G04 ================== begin FILE IDENTIFICATION RECORD ==================*
G04 Layout Name:  BEAGLEV-AHEAD V11_no_logo.brd*
G04 Film Name:    art07*
G04 File Format:  Gerber RS274X*
G04 File Origin:  Cadence Allegro 17.4-S035*
G04 Origin Date:  Wed Jul 12 11:35:00 2023*
G04 *
G04 Layer:  VIA CLASS/L7_PWR*
G04 Layer:  PIN/L7_PWR*
G04 Layer:  ETCH/L7_PWR*
G04 *
G04 Offset:    (0.00 0.00)*
G04 Mirror:    No*
G04 Mode:      Positive*
G04 Rotation:  0*
G04 FullContactRelief:  No*
G04 UndefLineWidth:     5.00*
G04 ================== end FILE IDENTIFICATION RECORD ====================*
%FSLAX25Y25*MOIN*%
%IR0*IPPOS*OFA0.00000B0.00000*MIA0B0*SFA1.00000B1.00000*%
%ADD25C,.01*%
%ADD22C,.06*%
%ADD24C,.075*%
%ADD23R,.06X.06*%
%ADD10C,.02362*%
%ADD13C,.04724*%
%ADD28R,.075X.075*%
%ADD12C,.07087*%
%ADD20C,.06299*%
%ADD17O,.15748X.07874*%
%ADD16O,.07874X.15748*%
%ADD19C,.1063*%
%ADD15C,.008*%
%ADD27C,.00394*%
%ADD18C,.12795*%
%ADD14O,.0374X.07087*%
%ADD11O,.09843X.0374*%
%ADD26R,.00394X.00394*%
%ADD21C,.19685*%
%ADD29O,.08661X.03937*%
%ADD30C,.02*%
%ADD31C,.003*%
%ADD44C,.01404*%
%ADD39C,.01604*%
%ADD36C,.06006*%
%ADD37C,.07204*%
%ADD41C,.07502*%
%ADD38C,.07604*%
%ADD45C,.03366*%
%ADD43C,.07902*%
%ADD42C,.0869*%
%ADD32O,.09478X.17352*%
%ADD33O,.09078X.16952*%
%ADD47O,.01604X.02404*%
%ADD35C,.1504*%
%ADD46O,.01804X.04104*%
%ADD40C,.12234*%
%ADD34C,.14872*%
G75*
%LPD*%
G75*
G36*
G01X103985Y251762D02*
X104366Y251941D01*
X104480Y251926D01*
X104525Y251889D01*
G03X106100Y251322I1575J1904D01*
G01X112204D01*
G03X112782Y251390I2J2471D01*
G01X112848Y251406D01*
X112970Y251352D01*
X113192Y250958D01*
G02X113158Y250718I-175J-98D01*
G01X106469Y244029D01*
G03X106410Y243887I141J-142D01*
G01Y209333D01*
G03X106469Y209191I200J0D01*
G01X110101Y205559D01*
G03X110243Y205500I142J141D01*
G01X112807D01*
G02X112949Y205441I0J-200D01*
G01X114201Y204189D01*
G03X114343Y204130I142J141D01*
G01X117305D01*
G02X117479Y204029I0J-200D01*
G01X117678Y203681D01*
X117677Y203574D01*
X117650Y203528D01*
G03X117310Y202278I2132J-1251D01*
G01Y198930D01*
G03X121037Y196801I2472J0D01*
G01X121084Y196829D01*
X121191D01*
X121539Y196630D01*
G02X121640Y196457I-99J-174D01*
G01Y185313D01*
G03X121699Y185171I200J0D01*
G01X125791Y181079D01*
G03X125933Y181020I142J141D01*
G01X186707D01*
G03X186849Y181079I0J200D01*
G01X189491Y183721D01*
G03X189550Y183863I-141J142D01*
G01Y199009D01*
G02X189722Y199207I200J0D01*
G01X190188Y199274D01*
X190312Y199194D01*
X190334Y199121D01*
G03X200354Y191622I10020J2945D01*
G03X210798Y202066I0J10444D01*
G03X210695Y203526I-10444J-3D01*
G01X210689Y203573D01*
X210718Y203661D01*
X210752Y203695D01*
G02X211035I141J-141D01*
G01X211381Y203349D01*
G02X211440Y203207I-141J-142D01*
G01Y184083D01*
G03X211499Y183941I200J0D01*
G01X214361Y181079D01*
G03X214503Y181020I142J141D01*
G01X439007D01*
G03X439149Y181079I0J200D01*
G01X440691Y182621D01*
G02X440833Y182680I142J-141D01*
G01X443687D01*
G03X443829Y182739I0J200D01*
G01X449101Y188011D01*
G03X449160Y188153I-141J142D01*
G01Y218427D01*
G02X449219Y218569I200J0D01*
G01X450396Y219746D01*
G02X450655Y219767I142J-141D01*
G01X451035Y219491D01*
X451069Y219349D01*
X451036Y219283D01*
G03X449910Y214566I9317J-4717D01*
G03X470798I10444J0D01*
G03X464520Y224143I-10444J0D01*
G01X464454Y224172D01*
X464389Y224297D01*
X464483Y224751D01*
G02X464679Y224910I196J-41D01*
G01X480777D01*
G02X480919Y224851I0J-200D01*
G01X481361Y224409D01*
G02X481420Y224267I-141J-142D01*
G01Y223377D01*
G02X481413Y223324I-200J-1D01*
G01X481242Y222707D01*
G03X481239Y222693I194J-49D01*
G01X480430Y218710D01*
X479574Y214540D01*
G02X479562Y214501I-196J39D01*
G01X477391Y209512D01*
G02X477389Y209508I-180J87D01*
G01X474946Y204203D01*
G02X474932Y204178I-181J85D01*
G01X470059Y196734D01*
G02X470039Y196708I-168J109D01*
G01X465657Y191968D01*
G02X465642Y191953I-149J134D01*
G01X461443Y188282D01*
G02X461415Y188261I-133J149D01*
G01X454569Y184145D01*
G02X454551Y184136I-98J174D01*
G01X449477Y181768D01*
G02X449442Y181755I-87J180D01*
G01X443195Y180161D01*
G03X443185Y180158I52J-193D01*
G01X440459Y179296D01*
G02X440420Y179288I-59J191D01*
G01X437600Y178980D01*
X435154Y178710D01*
X435146D01*
X433913Y178620D01*
X433907D01*
X433151Y178590D01*
X433149D01*
X432523Y178570D01*
X127886D01*
X127874D01*
X127202Y178610D01*
X127198D01*
X125725Y178720D01*
G02X125715Y178721I15J199D01*
G01X124282Y178900D01*
X124278D01*
X123656Y178968D01*
G02X123624Y178974I21J199D01*
G01X123143Y179109D01*
G02X123137Y179111I60J191D01*
G01X122170Y179410D01*
X119727Y180158D01*
G02X119713Y180163I60J191D01*
G01X117716Y180944D01*
G02X117686Y180959I74J185D01*
G01X116386Y181736D01*
G03X116373Y181743I-101J-172D01*
G01X115587Y182136D01*
G02X115573Y182144I92J178D01*
G01X114928Y182535D01*
G02X114912Y182546I105J170D01*
G01X111899Y184784D01*
G02X111882Y184797I113J165D01*
G01X111132Y185492D01*
G02X111117Y185508I138J144D01*
G01X109226Y187703D01*
G02X109214Y187718I150J132D01*
G01X107217Y190560D01*
G02X107204Y190581I163J116D01*
G01X106174Y192532D01*
G02X106167Y192548I179J88D01*
G01X105402Y194374D01*
G02X105398Y194386I188J69D01*
G01X104853Y195952D01*
G02X104848Y195969I189J65D01*
G01X104560Y197109D01*
Y197111D01*
X104261Y198335D01*
G02X104259Y198345I195J44D01*
G01X104191Y198706D01*
G02X104189Y198714I192J52D01*
G01X104140Y199060D01*
Y199070D01*
X104094Y199235D01*
G02X104088Y199265I193J54D01*
G01X104050Y199587D01*
G02X104146Y199782I199J23D01*
G01X104511Y200000D01*
X104629Y199996D01*
X104678Y199961D01*
G03X106100Y199510I1423J2021D01*
G01X112204D01*
G03Y204454I0J2472D01*
G01X106100D01*
G03X104525Y203886I1J-2472D01*
G01X104480Y203849D01*
X104366Y203834D01*
X103985Y204013D01*
G02X103870Y204194I85J181D01*
G01Y251581D01*
G02X103985Y251762I200J0D01*
G37*
G36*
G01X126841Y415540D02*
X432507D01*
G02X432535Y415538I0J-200D01*
G01X438526Y414671D01*
G02X438534Y414669I-44J-194D01*
G01X444887Y413512D01*
G02X444913Y413506I-32J-197D01*
G01X451024Y411535D01*
G02X451055Y411522I-62J-190D01*
G01X458356Y407727D01*
G02X458383Y407711I-88J-180D01*
G01X464315Y403341D01*
G02X464342Y403317I-119J-161D01*
G01X471564Y395657D01*
G02X471592Y395620I-145J-139D01*
G01X476963Y386292D01*
G02X476975Y386268I-172J-101D01*
G01X479674Y379694D01*
G02X479684Y379666I-183J-81D01*
G01X481189Y373546D01*
G02X481191Y373534I-196J-39D01*
G01X481519Y371766D01*
G02X481521Y371754I-196J-39D01*
G01X481670Y370562D01*
Y370558D01*
X481690Y370370D01*
X481700Y370340D01*
X481710Y370300D01*
Y370013D01*
G02X481651Y369871I-200J0D01*
G01X481299Y369519D01*
G02X481157Y369460I-142J141D01*
G01X465190D01*
G02X464995Y369614I0J200D01*
G01X464890Y370062D01*
X464948Y370187D01*
X465011Y370218D01*
G03X470798Y379566I-4657J9348D01*
G03X449910I-10444J0D01*
G03X450166Y377268I10444J0D01*
G01X450181Y377202D01*
X450126Y377081D01*
X449731Y376863D01*
G02X449493Y376897I-96J175D01*
G01X448419Y377971D01*
G02X448360Y378113I141J142D01*
G01Y404047D01*
G03X448301Y404189I-200J0D01*
G01X444369Y408121D01*
G03X444227Y408180I-142J-141D01*
G01X436753D01*
G02X436611Y408239I0J200D01*
G01X431829Y413021D01*
G03X431687Y413080I-142J-141D01*
G01X213943D01*
G03X213801Y413021I0J-200D01*
G01X211329Y410549D01*
G03X211270Y410407I141J-142D01*
G01Y391122D01*
X211268Y391117D01*
X211168Y391050D01*
X210967D01*
G02X210767Y391250I0J200D01*
G01Y391265D01*
G03X210798Y392066I-10413J804D01*
G03X189910I-10444J0D01*
G03X189927Y391473I10444J3D01*
G01X189929Y391431D01*
X189902Y391355D01*
X189673Y391113D01*
G02X189528Y391050I-146J137D01*
G01X189283D01*
G02X189141Y391109I0J200D01*
G01X189120Y391130D01*
X189090Y391203D01*
Y410437D01*
G03X189031Y410579I-200J0D01*
G01X186589Y413021D01*
G03X186447Y413080I-142J-141D01*
G01X122803D01*
G03X122661Y413021I0J-200D01*
G01X122038Y412398D01*
G02X122022Y412383I-145J138D01*
G01X120028Y410777D01*
G03X120012Y410762I129J-153D01*
G01X119510Y410260D01*
X119389Y410238D01*
X119332Y410263D01*
G03X115463Y406426I-1192J-2667D01*
G01X115480Y406387D01*
Y405093D01*
G02X115421Y404951I-200J0D01*
G01X106539Y396069D01*
G03X106480Y395927I141J-142D01*
G01Y363993D01*
G03X106539Y363851I200J0D01*
G01X113441Y356949D01*
G02X113500Y356807I-141J-142D01*
G01Y332533D01*
G02X113441Y332391I-200J0D01*
G01X106549Y325499D01*
G03X106490Y325357I141J-142D01*
G01Y268233D01*
G03X106549Y268091I200J0D01*
G01X113811Y260829D01*
G03X113953Y260770I142J141D01*
G01X121397D01*
G02X121539Y260711I0J-200D01*
G01X123681Y258569D01*
G02X123740Y258427I-141J-142D01*
G01Y254893D01*
G02X123681Y254751I-200J0D01*
G01X122595Y253665D01*
G02X122377Y253621I-142J141D01*
G01X122320Y253645D01*
X122254Y253745D01*
Y256806D01*
G03X117310I-2472J0D01*
G01Y253458D01*
G03X117658Y252195I2472J2D01*
G01X117686Y252148D01*
X117687Y252041D01*
X117488Y251691D01*
G02X117314Y251590I-174J99D01*
G01X114438D01*
G02X114258Y251704I1J200D01*
G01X114077Y252082D01*
X114091Y252196D01*
X114127Y252241D01*
G03X112204Y256264I-1924J1552D01*
G01X106100D01*
G03X104525Y255697I0J-2471D01*
G01X104480Y255660D01*
X104366Y255645D01*
X103985Y255824D01*
G02X103870Y256005I85J181D01*
G01Y392407D01*
G02X103929Y392549I200J0D01*
G01X103960Y392580D01*
Y392620D01*
X103970Y392630D01*
X104000Y392703D01*
Y392730D01*
X104159Y394127D01*
G02X104163Y394152I199J-19D01*
G01X104660Y396168D01*
Y396172D01*
X105067Y397968D01*
G02X105074Y397992I195J-44D01*
G01X106488Y401865D01*
G02X106492Y401875I188J-69D01*
G01X106703Y402374D01*
G02X106720Y402405I183J-80D01*
G01X109460Y406604D01*
G02X109483Y406634I169J-106D01*
G01X111401Y408631D01*
G02X111420Y408648I143J-140D01*
G01X112729Y409709D01*
G02X112731Y409711I142J-140D01*
G01X115327Y411779D01*
G02X115355Y411798I126J-155D01*
G01X117474Y412967D01*
G02X117486Y412973I95J-176D01*
G01X119537Y413934D01*
G02X119564Y413944I83J-182D01*
G01X122062Y414708D01*
G02X122078Y414712I57J-192D01*
G01X123479Y415020D01*
X123481D01*
X125071Y415348D01*
G02X125089Y415351I42J-196D01*
G01X126819Y415539D01*
G02X126841Y415540I20J-199D01*
G37*
G36*
G01X217633Y410300D02*
X430457D01*
G02X430599Y410241I0J-200D01*
G01X435411Y405429D01*
G03X435553Y405370I142J141D01*
G01X442937D01*
G02X443079Y405311I0J-200D01*
G01X445311Y403079D01*
G02X445370Y402937I-141J-142D01*
G01Y372303D01*
G03X445429Y372161I200J0D01*
G01X453341Y364249D01*
G03X453483Y364190I142J141D01*
G01X480237D01*
G02X480379Y364131I0J-200D01*
G01X481651Y362859D01*
G02X481710Y362717I-141J-142D01*
G01Y229973D01*
G02X481651Y229831I-200J0D01*
G01X481119Y229299D01*
G02X480977Y229240I-142J141D01*
G01X453403D01*
G03X453261Y229181I0J-200D01*
G01X445349Y221269D01*
G03X445290Y221127I141J-142D01*
G01Y189083D01*
G02X445231Y188941I-200J0D01*
G01X443459Y187169D01*
G02X443317Y187110I-142J141D01*
G01X441073D01*
G03X440931Y187051I0J-200D01*
G01X437769Y183889D01*
G02X437627Y183830I-142J141D01*
G01X217883D01*
G02X217741Y183889I0J200D01*
G01X215459Y186171D01*
G02X215400Y186313I141J142D01*
G01Y209807D01*
G03X215341Y209949I-200J0D01*
G01X208549Y216741D01*
G03X208407Y216800I-142J-141D01*
G01X192273D01*
G03X192131Y216741I0J-200D01*
G01X185439Y210049D01*
G03X185380Y209907I141J-142D01*
G01Y186503D01*
G02X185321Y186361I-200J0D01*
G01X182849Y183889D01*
G02X182707Y183830I-142J141D01*
G01X131723D01*
G02X131581Y183889I0J200D01*
G01X131189Y184281D01*
G02X131130Y184423I141J142D01*
G01Y201957D01*
G03X131071Y202099I-200J0D01*
G01X117679Y215491D01*
G02X117620Y215633I141J142D01*
G01Y245387D01*
G02X117679Y245529I200J0D01*
G01X118581Y246431D01*
G02X118723Y246490I142J-141D01*
G01X122587D01*
G03X122729Y246549I0J200D01*
G01X128781Y252601D01*
G03X128840Y252743I-141J142D01*
G01Y264037D01*
G03X128781Y264179I-200J0D01*
G01X124479Y268481D01*
G03X124337Y268540I-142J-141D01*
G01X121883D01*
G02X121691Y268685I0J200D01*
G01X121566Y269119D01*
X121613Y269243D01*
X121670Y269279D01*
G03X123707Y272960I-2307J3681D01*
G03X115017I-4345J0D01*
G03X117054Y269279I4344J0D01*
G01X117111Y269243D01*
X117158Y269119D01*
X117033Y268685D01*
G02X116841Y268540I-192J55D01*
G01X115573D01*
G02X115431Y268599I0J200D01*
G01X112859Y271171D01*
G02X112800Y271313I141J142D01*
G01Y324167D01*
G02X112859Y324309I200J0D01*
G01X114347Y325797D01*
G02X114572Y325838I142J-141D01*
G01X114970Y325655D01*
X115034Y325548D01*
X115029Y325485D01*
G03X115017Y325164I4333J-323D01*
G03X119362Y329509I4345J0D01*
G03X119041Y329497I2J-4345D01*
G01X118978Y329492D01*
X118871Y329556D01*
X118688Y329954D01*
G02X118729Y330179I182J83D01*
G01X119041Y330491D01*
G03X119100Y330633I-141J142D01*
G01Y358027D01*
G03X119041Y358169I-200J0D01*
G01X109399Y367811D01*
G02X109340Y367953I141J142D01*
G01Y394597D01*
G02X109399Y394739I200J0D01*
G01X114543Y399883D01*
G02X114761Y399926I141J-142D01*
G01X115159Y399761D01*
X115225Y399662D01*
X115226Y399600D01*
G03X118144Y402518I2914J4D01*
G01X118082Y402519D01*
X117983Y402585D01*
X117818Y402983D01*
G02X117861Y403201I185J77D01*
G01X120019Y405359D01*
X120025Y405364D01*
G03X120372Y405711I-1885J2232D01*
G02X120383Y405723I153J-129D01*
G01X124901Y410241D01*
G02X125043Y410300I142J-141D01*
G01X184577D01*
G02X184719Y410241I0J-200D01*
G01X185091Y409869D01*
G02X185150Y409727I-141J-142D01*
G01Y383133D01*
G03X185209Y382991I200J0D01*
G01X189661Y378539D01*
G03X189803Y378480I142J141D01*
G01X192647D01*
G02X192789Y378421I0J-200D01*
G01X194011Y377199D01*
G03X194153Y377140I142J141D01*
G01X206807D01*
G03X206949Y377199I0J200D01*
G01X215191Y385441D01*
G03X215250Y385583I-141J142D01*
G01Y407917D01*
G02X215309Y408059I200J0D01*
G01X217491Y410241D01*
G02X217633Y410300I142J-141D01*
G37*
%LPC*%
G75*
G36*
G01X216752Y394066D02*
Y400066D01*
G02X217354Y400668I602J0D01*
G01X223354D01*
G02X223956Y400066I0J-602D01*
G01Y394066D01*
G02X223354Y393464I-602J0D01*
G01X217354D01*
G02X216752Y394066I0J602D01*
G37*
G36*
G01X131366Y389804D02*
X139240D01*
G02Y380328I0J-4738D01*
G01X131366D01*
G02Y389804I0J4738D01*
G37*
G36*
G01X473810Y320257D02*
X478534D01*
G02Y315117I0J-2570D01*
G01X473810D01*
G02Y320257I0J2570D01*
G37*
G36*
G01Y295847D02*
X478534D01*
G02Y290707I0J-2570D01*
G01X473810D01*
G02Y295847I0J2570D01*
G37*
G36*
G01X270240Y259525D02*
G02X270640Y259632I400J-694D01*
G02Y258028I0J-802D01*
G02X270240Y258135I0J801D01*
G03X270040I-100J-173D01*
G02X269640Y258028I-400J694D01*
G02Y259632I0J802D01*
G02X270040Y259525I0J-801D01*
G03X270240I100J173D01*
G37*
G36*
G01X275695Y259350D02*
G02X275802Y258950I-694J-400D01*
G02X274198I-802J0D01*
G02X274305Y259350I801J0D01*
G03Y259550I-173J100D01*
G02X274198Y259950I694J400D01*
G02X275802I802J0D01*
G02X275695Y259550I-801J0D01*
G03Y259350I173J-100D01*
G37*
G36*
G01X302404Y262478D02*
G02X302290Y262890I687J412D01*
G02X302397Y263290I801J0D01*
G03Y263490I-173J100D01*
G02X302290Y263890I694J400D01*
G02X303092Y264692I802J0D01*
G02X303553Y264546I0J-801D01*
G03X303653Y264510I115J164D01*
G01X303763Y264502D01*
G03X303865Y264521I16J199D01*
G02X304172Y264592I308J-631D01*
G02X304874Y263890I0J-702D01*
G02X304756Y263501I-702J1D01*
G03Y263279I167J-111D01*
G02X304874Y262890I-584J-390D01*
G02X304779Y262537I-703J0D01*
G03X304776Y262339I172J-102D01*
G02X304864Y262000I-614J-340D01*
G02X304746Y261611I-702J1D01*
G03Y261389I167J-111D01*
G02X304864Y261000I-584J-390D01*
G02X304162Y260298I-702J0D01*
G02X303847Y260373I1J702D01*
G03X303638Y260355I-90J-179D01*
G02X303162Y260198I-477J645D01*
G02X302360Y261000I0J802D01*
G02X302467Y261400I801J0D01*
G03Y261600I-173J100D01*
G02X302360Y262000I694J400D01*
G02X302418Y262300I802J1D01*
G03X302404Y262478I-185J75D01*
G37*
G36*
G01X217013Y276846D02*
G02X217142Y276410I-672J-436D01*
G02X215538I-802J0D01*
G02X215683Y276870I802J0D01*
G03X215687Y277094I-164J115D01*
G02X215558Y277530I672J436D01*
G02X217162I802J0D01*
G02X217017Y277070I-802J0D01*
G03X217013Y276846I164J-115D01*
G37*
G36*
G01X459529Y279853D02*
X459523Y279965D01*
G03X459488Y280067I-200J-12D01*
G02X459348Y280520I663J453D01*
G02X460150Y281322I802J0D01*
G02X460602Y281182I-1J-802D01*
G03X460808Y281170I113J165D01*
G02X461180Y281262I373J-710D01*
G02X461982Y280460I0J-802D01*
G02X461888Y280083I-803J0D01*
G03X461896Y279882I177J-94D01*
G02X462022Y279450I-676J-432D01*
G02X461220Y278648I-802J0D01*
G02X460873Y278727I0J802D01*
G03X460672Y278710I-86J-180D01*
G02X460210Y278564I-461J656D01*
G02X459408Y279366I0J802D01*
G02X459505Y279748I801J0D01*
G03X459529Y279853I-176J95D01*
G37*
G36*
G01X458259Y292606D02*
G02X457840Y292488I-419J685D01*
G02X457038Y293290I0J802D01*
G02X457140Y293681I802J0D01*
G03X457144Y293869I-175J98D01*
G02X457058Y294230I715J361D01*
G02X457860Y295032I802J0D01*
G02X458205Y294954I0J-802D01*
G03X458389Y294960I86J181D01*
G02X458780Y295062I391J-700D01*
G02X459582Y294260I0J-802D01*
G02X459484Y293876I-801J0D01*
G03X459478Y293696I176J-96D01*
G02X459552Y293360I-728J-336D01*
G02X458750Y292558I-802J0D01*
G02X458441Y292620I0J801D01*
G03X458259Y292606I-77J-184D01*
G37*
G36*
G01X214023Y298116D02*
G02X213851Y298613I630J496D01*
G02X214653Y299415I802J0D01*
G02X214983Y299344I0J-802D01*
G03X215167Y299353I83J182D01*
G02X215570Y299462I404J-693D01*
G02X216372Y298660I0J-802D01*
G02X216136Y298092I-802J0D01*
G01X216109Y298065D01*
X216078Y297995D01*
X216068Y297643D01*
X216094Y297572D01*
X216119Y297543D01*
G02X216322Y297010I-598J-533D01*
G02X215520Y296208I-802J0D01*
G02X215117Y296316I-1J802D01*
G03X214932Y296324I-100J-173D01*
G02X214590Y296248I-341J726D01*
G02X213788Y297050I0J802D01*
G02X214003Y297596I801J0D01*
G01X214027Y297622D01*
X214054Y297688D01*
X214068Y298020D01*
X214046Y298088D01*
X214023Y298116D01*
G37*
G36*
G01X321162Y306564D02*
G03X321165Y307093I-298J266D01*
G02X320968Y307620I606J527D01*
G02X322572I802J0D01*
G02X322368Y307086I-801J0D01*
G03X322365Y306557I298J-266D01*
G02X322562Y306030I-606J-527D01*
G02X320958I-802J0D01*
G02X321162Y306564I801J0D01*
G37*
G36*
G01X325208Y306741D02*
G03X325228Y307257I-295J270D01*
G02X325058Y307750I632J494D01*
G02X326662I802J0D01*
G02X326452Y307209I-802J0D01*
G03X326432Y306693I295J-270D01*
G02X326602Y306200I-632J-494D01*
G02X324998I-802J0D01*
G02X325208Y306741I802J0D01*
G37*
G36*
G01X330176Y320435D02*
G02X329760Y320319I-416J686D01*
G02Y321923I0J802D01*
G02X330176Y321807I0J-802D01*
G03X330384I104J171D01*
G02X330800Y321923I416J-686D01*
G02X330881Y321919I1J-802D01*
G03X331041Y321975I20J199D01*
G02X331600Y322202I559J-575D01*
G02Y320598I0J-802D01*
G02X331519Y320602I-1J802D01*
G03X331359Y320546I-20J-199D01*
G02X330800Y320319I-559J575D01*
G02X330384Y320435I0J802D01*
G03X330176I-104J-171D01*
G37*
G36*
G01X217096Y323635D02*
G02X217460Y323722I363J-715D01*
G02Y322118I0J-802D01*
G02X217112Y322197I-1J802D01*
G03X216934Y322195I-87J-180D01*
G02X216570Y322108I-363J715D01*
G02Y323712I0J802D01*
G02X216918Y323633I1J-802D01*
G03X217096Y323635I87J180D01*
G37*
G36*
G01X331845Y324438D02*
G02X331440Y324328I-405J692D01*
G02X330638Y325130I0J802D01*
G02X330770Y325570I802J-1D01*
G03Y325790I-168J110D01*
G02X330638Y326230I670J441D01*
G02X331440Y327032I802J0D01*
G02X331947Y326851I0J-802D01*
G03X332109Y326809I127J155D01*
G02X332250Y326822I144J-789D01*
G02X333052Y326020I0J-802D01*
G02X332985Y325700I-802J1D01*
G03Y325540I184J-80D01*
G02X333052Y325220I-735J-321D01*
G02X332250Y324418I-802J0D01*
G02X332007Y324456I1J802D01*
G03X331845Y324438I-61J-191D01*
G37*
G36*
G01X229059Y335287D02*
X228949Y335274D01*
G03X228849Y335232I25J-199D01*
G02X228350Y335058I-499J629D01*
G02Y336662I0J802D01*
G02X228683Y336589I-1J-802D01*
G03X228791Y336573I82J182D01*
G01X228901Y336586D01*
G03X229001Y336628I-25J199D01*
G02X229500Y336802I499J-629D01*
G02Y335198I0J-802D01*
G02X229167Y335271I1J802D01*
G03X229059Y335287I-82J-182D01*
G37*
G36*
G01X189398Y342411D02*
G02X189750Y342492I351J-721D01*
G02Y340888I0J-802D01*
G02X189382Y340977I-1J802D01*
G03X189202Y340979I-92J-177D01*
G02X188850Y340898I-351J721D01*
G02Y342502I0J802D01*
G02X189218Y342413I1J-802D01*
G03X189398Y342411I92J177D01*
G37*
G36*
G01X439618Y343510D02*
X439620Y343622D01*
G03X439592Y343728I-200J4D01*
G02X439478Y344140I687J412D01*
G02X440280Y344942I802J0D01*
G02X440660Y344846I0J-802D01*
G03X440838Y344840I95J176D01*
G02X441170Y344912I332J-729D01*
G02X441972Y344110I0J-802D01*
G02X441863Y343706I-803J0D01*
G03X441836Y343594I173J-101D01*
G01X441843Y343478D01*
G03X441882Y343370I200J11D01*
G02X442042Y342890I-642J-481D01*
G02X441240Y342088I-802J0D01*
G02X440791Y342226I1J802D01*
G03X440595Y342241I-111J-166D01*
G02X440260Y342168I-334J729D01*
G02X439458Y342970I0J802D01*
G02X439586Y343405I803J0D01*
G03X439618Y343510I-168J109D01*
G37*
G36*
G01X455708Y342771D02*
G02X455210Y342598I-498J630D01*
G02X454408Y343400I0J802D01*
G02X454504Y343781I802J0D01*
G03X454496Y343985I-176J95D01*
G02X454368Y344420I675J435D01*
G02X455170Y345222I802J0D01*
G02X455600Y345097I0J-802D01*
G03X455824Y345103I108J169D01*
G02X456290Y345252I466J-654D01*
G02X457092Y344450I0J-802D01*
G02X457006Y344088I-802J-1D01*
G03X457012Y343896I178J-91D01*
G02X457122Y343490I-692J-405D01*
G02X456320Y342688I-802J0D01*
G02X455930Y342789I0J802D01*
G03X455708Y342771I-98J-174D01*
G37*
G36*
G01X292913Y382918D02*
X292635Y383222D01*
X292548Y383255D01*
X292501Y383251D01*
G02X292430Y383248I-69J799D01*
G02Y384852I0J802D01*
G02X292872Y384719I0J-801D01*
G03X292986Y384686I110J167D01*
G01X293104Y384688D01*
G03X293216Y384724I-2J200D01*
G02X293680Y384872I464J-653D01*
G02X294482Y384070I0J-802D01*
G02X294338Y383611I-802J0D01*
G01X294319Y383584D01*
X294301Y383524D01*
X294309Y383220D01*
X294331Y383161D01*
X294351Y383135D01*
G02X294522Y382640I-631J-495D01*
G02X292918I-802J0D01*
G02X292931Y382782I802J-2D01*
G01X292939Y382828D01*
X292913Y382918D01*
G37*
G36*
G01X265218Y384917D02*
X265105Y384923D01*
G03X264998Y384898I-10J-200D01*
G02X264610Y384798I-388J703D01*
G02Y386402I0J802D01*
G02X265068Y386258I0J-802D01*
G03X265172Y386223I113J165D01*
G01X265285Y386217D01*
G03X265392Y386242I10J200D01*
G02X265780Y386342I388J-703D01*
G02Y384738I0J-802D01*
G02X265322Y384882I0J802D01*
G03X265218Y384917I-113J-165D01*
G37*
G36*
G01X353999Y386031D02*
G02X353848Y386500I651J468D01*
G02X353955Y386901I802J1D01*
G03X353949Y387110I-173J100D01*
G02X353818Y387550I671J439D01*
G02X355422I802J0D01*
G02X355315Y387149I-802J-1D01*
G03X355321Y386940I173J-100D01*
G02X355452Y386500I-671J-439D01*
G02X355357Y386121I-802J0D01*
G03X355371Y385909I176J-95D01*
G02X355522Y385440I-651J-468D01*
G02X353918I-802J0D01*
G02X354013Y385819I802J0D01*
G03X353999Y386031I-176J95D01*
G37*
G36*
G01X248357Y406865D02*
X250125Y408633D01*
G02X250267Y408692I142J-141D01*
G01X416413D01*
G02X416555Y408633I0J-200D01*
G01X426534Y398654D01*
G03X426705Y398598I141J142D01*
G01X427070Y398653D01*
X427148Y398708D01*
X427170Y398750D01*
G02X430354Y400668I3184J-1684D01*
G02X433956Y397066I0J-3602D01*
G02X432038Y393882I-3602J0D01*
G01X431996Y393860D01*
X431941Y393782D01*
X431886Y393417D01*
G03X431942Y393246I198J-30D01*
G01X436534Y388654D01*
G03X436705Y388598I141J142D01*
G01X437070Y388653D01*
X437148Y388708D01*
X437170Y388750D01*
G02X440354Y390668I3184J-1684D01*
G02X443956Y387066I0J-3602D01*
G02X440958Y383515I-3602J0D01*
G01X440885Y383503D01*
X440792Y383392D01*
Y370659D01*
G03X440850Y370518I200J0D01*
G01X448628Y362740D01*
G03X448769Y362682I141J142D01*
G01X457473D01*
G02X457615Y362623I0J-200D01*
G01X458353Y361885D01*
G02X458412Y361743I-141J-142D01*
G01Y355067D01*
G02X458353Y354925I-200J0D01*
G01X456885Y353457D01*
G02X456743Y353398I-142J141D01*
G01X425187D01*
G02X425045Y353457I0J200D01*
G01X419417Y359085D01*
G02X419358Y359227I141J142D01*
G01Y374641D01*
G03X419300Y374782I-200J0D01*
G01X411790Y382293D01*
G03X411603Y382346I-141J-142D01*
G01X411222Y382258D01*
X411145Y382189D01*
X411129Y382140D01*
G02X410370Y381598I-759J260D01*
G02X409568Y382400I0J802D01*
G02X410110Y383159I802J0D01*
G01X410159Y383175D01*
X410228Y383252D01*
X410316Y383633D01*
G03X410263Y383820I-195J46D01*
G01X397822Y396260D01*
G03X397681Y396318I-141J-142D01*
G01X250187D01*
G02X250045Y396377I0J200D01*
G01X248357Y398065D01*
G02X248298Y398207I141J142D01*
G01Y406723D01*
G02X248357Y406865I200J0D01*
G37*
G36*
G01X264120Y382916D02*
G02X263868Y383500I551J584D01*
G02X264670Y384302I802J0D01*
G02X265169Y384128I0J-803D01*
G03X265394Y384112I124J157D01*
G02X265800Y384222I405J-692D01*
G02X266602Y383420I0J-802D01*
G02X266435Y382930I-802J0D01*
G01X266411Y382899D01*
X266390Y382826D01*
X266424Y382477D01*
X266459Y382409D01*
X266488Y382384D01*
G02X266762Y381780I-529J-604D01*
G02X265960Y380978I-802J0D01*
G02X265507Y381118I0J803D01*
G03X265390Y381153I-113J-165D01*
G01X265269Y381150D01*
G03X265153Y381110I4J-200D01*
G02X264670Y380948I-483J639D01*
G02X263868Y381750I0J802D01*
G02X264120Y382334I803J0D01*
G03X264183Y382479I-137J146D01*
G01Y382771D01*
G03X264120Y382916I-200J-1D01*
G37*
G36*
G01X334551Y333050D02*
X334503Y333062D01*
G02X333898Y333840I198J778D01*
G02X334700Y334642I802J0D01*
G02X335284Y334390I0J-803D01*
G01X335310Y334362D01*
X335377Y334330D01*
X335722Y334304D01*
X335794Y334326D01*
X335823Y334350D01*
G02X336320Y334522I496J-630D01*
G02X337122Y333720I0J-802D01*
G02X336426Y332925I-802J0D01*
G01X336378Y332919D01*
X336299Y332864D01*
X336101Y332492D01*
X336099Y332396D01*
X336120Y332353D01*
G02X336202Y332000I-719J-353D01*
G02X334598I-802J0D01*
G02X334736Y332450I803J0D01*
G01X334764Y332491D01*
X334775Y332588D01*
X334624Y332986D01*
X334551Y333050D01*
G37*
G36*
G01X324298Y332619D02*
G02X323890Y332508I-407J691D01*
G02Y334112I0J802D01*
G02X324607Y333670I0J-803D01*
G03X325167Y333506I357J180D01*
G02X325575Y333617I407J-691D01*
G02Y332013I0J-802D01*
G02X324858Y332455I0J803D01*
G03X324298Y332619I-357J-180D01*
G37*
G36*
G01X325716Y320336D02*
G02X325106Y320054I-610J519D01*
G02Y321658I0J802D01*
G02X325726Y321365I0J-802D01*
G03X326340Y321359I310J253D01*
G02X326950Y321641I610J-519D01*
G02Y320037I0J-802D01*
G02X326330Y320330I0J802D01*
G03X325716Y320336I-310J-253D01*
G37*
G36*
G01X192643Y305993D02*
G02X191980Y305642I-663J451D01*
G02Y307246I0J802D01*
G02X192631Y306912I0J-801D01*
G03X193287Y306921I325J234D01*
G02X193950Y307272I663J-451D01*
G02Y305668I0J-802D01*
G02X193299Y306002I0J801D01*
G03X192643Y305993I-325J-234D01*
G37*
G36*
G01X192583Y298041D02*
G02X191980Y297768I-603J529D01*
G02Y299372I0J802D01*
G02X192558Y299126I0J-802D01*
G03X193147Y299139I289J277D01*
G02X193750Y299412I603J-529D01*
G02Y297808I0J-802D01*
G02X193172Y298054I0J802D01*
G03X192583Y298041I-289J-277D01*
G37*
G36*
G01X435983Y291781D02*
G02X435608Y292460I427J679D01*
G02X437212I802J0D01*
G02X436890Y291818I-801J0D01*
G03X436917Y291159I240J-320D01*
G02X437292Y290480I-427J-679D01*
G02X435688I-802J0D01*
G02X436010Y291122I801J0D01*
G03X435983Y291781I-240J320D01*
G37*
G36*
G01X164427Y383095D02*
X165190Y383858D01*
G02X165332Y383916I141J-142D01*
G01X169568D01*
G02X169710Y383858I1J-200D01*
G01X181968Y371600D01*
G03X182109Y371542I141J142D01*
G01X214771D01*
G03X214912Y371600I0J200D01*
G01X221835Y378523D01*
G02X221977Y378582I142J-141D01*
G01X241425D01*
X241537Y378676D01*
X241548Y378749D01*
G02X243132I792J-130D01*
G01X243143Y378676D01*
X243255Y378582D01*
X412933D01*
G02X413075Y378523I0J-200D01*
G01X415103Y376495D01*
G02X415162Y376353I-141J-142D01*
G01Y369107D01*
G02X415103Y368965I-200J0D01*
G01X413505Y367367D01*
G02X413363Y367308I-142J141D01*
G01X402285D01*
G03X402110Y367206I-1J-200D01*
G01X401913Y366853D01*
X401915Y366746D01*
X401944Y366699D01*
G02X402062Y366280I-685J-419D01*
G02X400458I-802J0D01*
G02X400576Y366699I803J0D01*
G01X400605Y366746D01*
X400607Y366853D01*
X400410Y367206D01*
G03X400235Y367308I-174J-98D01*
G01X373352D01*
G03X373152Y367108I0J-199D01*
G01Y364262D01*
G03X373224Y364108I200J0D01*
G01X373494Y363883D01*
X373580Y363860D01*
X373624Y363869D01*
G02X373770Y363882I144J-789D01*
G02Y362278I0J-802D01*
G02X373435Y362351I-1J802D01*
G01X373395Y362370D01*
X373352D01*
G03X373152Y362170I0J-200D01*
G01Y361946D01*
X373249Y361835D01*
X373323Y361824D01*
G02Y360236I-113J-794D01*
G01X373249Y360225D01*
X373152Y360114D01*
Y358019D01*
G03X373210Y357878I200J0D01*
G01X373798Y357290D01*
G03X373939Y357232I141J142D01*
G01X414553D01*
G02X414695Y357173I0J-200D01*
G01X422708Y349160D01*
G03X422849Y349102I141J142D01*
G01X432613D01*
G02X432755Y349043I0J-200D01*
G01X434923Y346875D01*
G02X434982Y346733I-141J-142D01*
G01Y272382D01*
G03X435086Y272207I200J0D01*
G01X435442Y272011D01*
X435550Y272015D01*
X435597Y272045D01*
G02X436030Y272172I433J-675D01*
G02X436182Y272157I-2J-802D01*
G01X436227Y272149D01*
X436313Y272171D01*
X436586Y272396D01*
G03X436658Y272550I-128J154D01*
G01Y283913D01*
G02X436717Y284055I200J0D01*
G01X438235Y285573D01*
G02X438377Y285632I142J-141D01*
G01X456273D01*
G02X456415Y285573I0J-200D01*
G01X456963Y285025D01*
G02X457022Y284883I-141J-142D01*
G01Y267581D01*
G03X457110Y267415I200J0D01*
G01X457429Y267202D01*
X457527Y267192D01*
X457574Y267211D01*
G02X457880Y267272I307J-741D01*
G02X458313Y267145I0J-802D01*
G03X458419Y267114I107J169D01*
G01X458532Y267113D01*
G03X458639Y267142I3J200D01*
G02X459060Y267262I422J-682D01*
G02X459862Y266460I0J-802D01*
G02X459710Y265991I-802J1D01*
G03X459673Y265875I163J-116D01*
G01X459672Y265755D01*
G03X459708Y265639I200J-2D01*
G02X459852Y265180I-658J-459D01*
G02X459050Y264378I-802J0D01*
G02X458625Y264500I0J801D01*
G03X458517Y264530I-105J-170D01*
G01X458403Y264529D01*
G03X458296Y264497I2J-200D01*
G02X457860Y264368I-436J672D01*
G02X457567Y264423I-1J802D01*
G01X457521Y264441D01*
X457423Y264430D01*
X457109Y264216D01*
G03X457022Y264051I113J-165D01*
G01Y237637D01*
G02X456963Y237495I-200J0D01*
G01X430930Y211462D01*
G03X430880Y211264I142J-141D01*
G01X430996Y210873D01*
X431077Y210799D01*
X431131Y210788D01*
G02X434156Y207066I-777J-3722D01*
G02X430354Y203264I-3802J0D01*
G02X426632Y206289I0J3802D01*
G01X426621Y206343D01*
X426547Y206424D01*
X426156Y206540D01*
G03X425958Y206490I-57J-192D01*
G01X425530Y206062D01*
G03X425472Y205921I142J-141D01*
G01Y188787D01*
G02X425413Y188645I-200J0D01*
G01X422765Y185997D01*
G02X422623Y185938I-142J141D01*
G01X240527D01*
G02X240385Y185997I0J200D01*
G01X232587Y193795D01*
G03X232341Y193824I-141J-141D01*
G02X230354Y193264I-1986J3242D01*
G02X226552Y197066I0J3802D01*
G02X227112Y199053I3802J1D01*
G03X227083Y199299I-170J105D01*
G01X222976Y203406D01*
G03X222835Y203464I-141J-142D01*
G01X217354D01*
G02X216752Y204066I0J602D01*
G01Y209547D01*
G03X216694Y209688I-200J0D01*
G01X208282Y218100D01*
G03X208141Y218158I-141J-142D01*
G01X188177D01*
G02X188035Y218217I0J200D01*
G01X184632Y221620D01*
G02X184574Y221762I142J141D01*
G01Y231388D01*
G02X184632Y231530I200J1D01*
G01X185675Y232573D01*
G02X185817Y232632I142J-141D01*
G01X213933D01*
G02X214075Y232573I0J-200D01*
G01X216513Y230135D01*
G02X216572Y229993I-141J-142D01*
G01Y224649D01*
G03X216630Y224508I200J0D01*
G01X217193Y223945D01*
G03X217334Y223886I142J141D01*
G01X224528D01*
G02X224670Y223828I1J-200D01*
G01X240098Y208400D01*
G03X240239Y208342I141J142D01*
G01X386141D01*
G03X386282Y208400I0J200D01*
G01X436600Y258718D01*
G03X436658Y258859I-142J141D01*
G01Y270190D01*
G03X436586Y270344I-200J0D01*
G01X436313Y270569D01*
X436227Y270591D01*
X436182Y270583D01*
G02X436030Y270568I-154J787D01*
G02X435597Y270695I0J802D01*
G01X435550Y270725D01*
X435442Y270729D01*
X435086Y270533D01*
G03X434982Y270358I96J-175D01*
G01Y261757D01*
G02X434923Y261615I-200J0D01*
G01X384065Y210757D01*
G02X383923Y210698I-142J141D01*
G01X303517D01*
G02X303375Y210757I0J200D01*
G01X297674Y216458D01*
G03X297497Y216514I-142J-141D01*
G01X297126Y216448D01*
X297049Y216388D01*
X297028Y216343D01*
G02X296966Y216234I-726J341D01*
G03X296964Y216014I166J-112D01*
G02X297092Y215580I-674J-435D01*
G02X296290Y214778I-802J0D01*
G02X295848Y214911I0J801D01*
G03X295624Y214909I-111J-167D01*
G02X295170Y214768I-454J660D01*
G02X294729Y214900I0J803D01*
G03X294516Y214904I-110J-167D01*
G02X294100Y214788I-416J686D01*
G02X293298Y215590I0J802D01*
G02X293406Y215991I802J-1D01*
G03X293404Y216195I-173J100D01*
G02X293288Y216601I686J416D01*
G01X293287Y216684D01*
X293171Y216798D01*
X291092D01*
G03X290907Y216675I0J-200D01*
G01X290884Y216618D01*
X290907Y216501D01*
X291693Y215715D01*
G02X291752Y215573I-141J-142D01*
G01Y210977D01*
G02X291693Y210835I-200J0D01*
G01X290965Y210107D01*
G02X290823Y210048I-142J141D01*
G01X239217D01*
G02X239075Y210107I0J200D01*
G01X224832Y224350D01*
G03X224691Y224408I-141J-142D01*
G01X217857D01*
G02X217715Y224467I0J200D01*
G01X217217Y224965D01*
G02X217158Y225107I141J142D01*
G01Y230943D01*
G02X217217Y231085I200J0D01*
G01X218555Y232423D01*
G02X218697Y232482I142J-141D01*
G01X233073D01*
G02X233215Y232423I0J-200D01*
G01X248528Y217110D01*
G03X248669Y217052I141J142D01*
G01X277268D01*
G03X277453Y217175I0J200D01*
G01X277476Y217232D01*
X277453Y217349D01*
X271162Y223640D01*
G03X271021Y223698I-141J-142D01*
G01X244217D01*
G02X244075Y223757I0J200D01*
G01X233682Y234150D01*
G03X233541Y234208I-141J-142D01*
G01X170057D01*
G02X169915Y234267I0J200D01*
G01X166261Y237921D01*
G03X165979I-141J-142D01*
G01X165215Y237157D01*
G02X165073Y237098I-142J141D01*
G01X152557D01*
G02X152415Y237157I0J200D01*
G01X151597Y237975D01*
G02X151538Y238117I141J142D01*
G01Y249813D01*
G02X151597Y249955I200J0D01*
G01X154054Y252412D01*
G03X154103Y252614I-141J141D01*
G01X153977Y253007D01*
X153893Y253080D01*
X153837Y253089D01*
G02X153168Y253880I133J791D01*
G02X153970Y254682I802J0D01*
G02X154761Y254013I0J-802D01*
G01X154770Y253957D01*
X154843Y253873D01*
X155236Y253747D01*
G03X155438Y253796I61J190D01*
G01X161540Y259898D01*
G03X161598Y260039I-142J141D01*
G01Y265633D01*
G02X161657Y265775I200J0D01*
G01X162265Y266383D01*
G02X162407Y266442I142J-141D01*
G01X174851D01*
G03X174992Y266500I0J200D01*
G01X196480Y287988D01*
G03X196538Y288129I-142J141D01*
G01Y290580D01*
G03X196484Y290717I-200J0D01*
G01X196270Y290945D01*
X196201Y290977D01*
X196162Y290979D01*
G02X195408Y291780I48J801D01*
G02X195542Y292224I803J0D01*
G03Y292446I-166J111D01*
G02X195408Y292890I669J444D01*
G02X196162Y293691I802J0D01*
G01X196201Y293693D01*
X196270Y293725D01*
X196484Y293953D01*
G03X196538Y294090I-146J137D01*
G01Y311278D01*
X196438Y311391D01*
X196362Y311400D01*
G02X195654Y312196I93J796D01*
G02X195783Y312632I801J0D01*
G03X195784Y312849I-168J109D01*
G02X195658Y313280I676J431D01*
G02X196363Y314076I802J0D01*
G01X196438Y314085D01*
X196538Y314199D01*
Y323337D01*
G03X196488Y323470I-200J1D01*
G02Y324530I602J530D01*
G03X196538Y324663I-150J132D01*
G01Y341833D01*
G02X196597Y341975I200J0D01*
G01X198985Y344363D01*
G02X199127Y344422I142J-141D01*
G01X209783D01*
G02X209925Y344363I0J-200D01*
G01X210823Y343465D01*
G02X210882Y343323I-141J-142D01*
G01Y316441D01*
X210942Y316344D01*
X210993Y316319D01*
G02Y314881I-357J-719D01*
G01X210942Y314856D01*
X210882Y314759D01*
Y314572D01*
G03X211005Y314387I200J0D01*
G01X211062Y314364D01*
X211179Y314387D01*
X212295Y315503D01*
G02X212437Y315562I142J-141D01*
G01X229163D01*
G02X229305Y315503I0J-200D01*
G01X230643Y314165D01*
G02X230702Y314023I-141J-142D01*
G01Y309907D01*
G02X230643Y309765I-200J0D01*
G01X229955Y309077D01*
G02X229813Y309018I-142J141D01*
G01X212237D01*
G02X212095Y309077I0J200D01*
G01X211223Y309949D01*
G03X211005Y309993I-142J-141D01*
G01X210948Y309969D01*
X210882Y309870D01*
Y287391D01*
G03X210943Y287247I200J0D01*
G01X211181Y287018D01*
X211256Y286990D01*
X211298Y286991D01*
G02X211330Y286992I41J-801D01*
G02X212132Y286190I0J-802D01*
G02X212027Y285793I-803J0D01*
G03X212037Y285580I174J-99D01*
G02X212182Y285120I-657J-460D01*
G02X211380Y284318I-802J0D01*
G02X210709Y284680I0J803D01*
G01X210684Y284719D01*
X210608Y284765D01*
X210254Y284802D01*
G03X210092Y284744I-20J-199D01*
G01X198260Y272912D01*
G03X198206Y272727I141J-142D01*
G01X198290Y272348D01*
X198357Y272271D01*
X198405Y272253D01*
G02X198932Y271500I-274J-753D01*
G02X198130Y270698I-802J0D01*
G02X197377Y271225I0J801D01*
G01X197359Y271273D01*
X197282Y271340D01*
X196903Y271424D01*
G03X196718Y271370I-43J-195D01*
G01X181925Y256577D01*
G02X181783Y256518I-142J141D01*
G01X171819D01*
G03X171678Y256460I0J-200D01*
G01X171651Y256433D01*
G03X171607Y256215I141J-142D01*
G01X171631Y256158D01*
X171730Y256092D01*
X178123D01*
G02X178265Y256033I0J-200D01*
G01X178843Y255455D01*
G02X178902Y255313I-141J-142D01*
G01Y253517D01*
G02X178843Y253375I-200J0D01*
G01X178481Y253013D01*
G03X178437Y252795I141J-142D01*
G01X178461Y252738D01*
X178560Y252672D01*
X179741D01*
G03X179882Y252730I0J200D01*
G01X190355Y263203D01*
G02X190497Y263262I142J-141D01*
G01X191275D01*
X191384Y263347D01*
X191400Y263415D01*
G02X192960I780J-185D01*
G01X192976Y263347D01*
X193085Y263262D01*
X195980D01*
G03X196111Y263310I1J200D01*
G01X196337Y263506D01*
X196371Y263568D01*
X196376Y263604D01*
G02X197964I794J-114D01*
G01X197969Y263568D01*
X198003Y263506D01*
X198229Y263310D01*
G03X198360Y263262I130J152D01*
G01X205669D01*
X205780Y263354D01*
X205793Y263425D01*
G02X207371I789J-145D01*
G01X207384Y263354D01*
X207495Y263262D01*
X230471D01*
G03X230612Y263320I0J200D01*
G01X232840Y265548D01*
G03X232898Y265689I-142J141D01*
G01Y339933D01*
G02X232957Y340075I200J0D01*
G01X236585Y343703D01*
G02X236727Y343762I142J-141D01*
G01X262683D01*
G02X262825Y343703I0J-200D01*
G01X264043Y342485D01*
G02X264102Y342343I-141J-142D01*
G01Y330939D01*
G03X264160Y330798I200J0D01*
G01X269673Y325285D01*
G02X269732Y325143I-141J-142D01*
G01Y318177D01*
G02X269673Y318035I-200J0D01*
G01X257800Y306162D01*
G03X257742Y306021I142J-141D01*
G01Y298982D01*
G03X257802Y298839I200J0D01*
G01X258036Y298610D01*
X258110Y298581D01*
X258151Y298582D01*
X258170D01*
G02Y296978I0J-802D01*
G01X258151D01*
X258110Y296979D01*
X258036Y296950D01*
X257802Y296721D01*
G03X257742Y296578I140J-143D01*
G01Y275149D01*
G03X257800Y275008I200J0D01*
G01X265913Y266895D01*
G02X265972Y266753I-141J-142D01*
G01Y233527D01*
G02X265913Y233385I-200J0D01*
G01X264065Y231537D01*
G02X263923Y231478I-142J141D01*
G01X258670D01*
X258656Y231476D01*
G02X258540Y231468I-113J794D01*
G02X258424Y231476I-3J802D01*
G01X258410Y231478D01*
X242732D01*
G03X242547Y231355I0J-200D01*
G01X242524Y231298D01*
X242547Y231181D01*
X245448Y228280D01*
G03X245589Y228222I141J142D01*
G01X276113D01*
G02X276255Y228163I0J-200D01*
G01X276883Y227535D01*
G02X276942Y227393I-141J-142D01*
G01Y225739D01*
G03X277000Y225598I200J0D01*
G01X280407Y222191D01*
G03X280625Y222147I142J141D01*
G01X280682Y222171D01*
X280748Y222270D01*
Y230013D01*
G02X280807Y230155I200J0D01*
G01X288125Y237473D01*
G02X288267Y237532I142J-141D01*
G01X315610D01*
G03X315751Y237590I0J200D01*
G01X321089Y242928D01*
G03X321148Y243069I-141J142D01*
G01Y246232D01*
G02X321206Y246374I200J1D01*
G01X321639Y246807D01*
G03X321698Y246948I-141J142D01*
G01Y248482D01*
G02X321756Y248624I200J1D01*
G01X322839Y249707D01*
G03X322898Y249848I-141J142D01*
G01Y251947D01*
G03X322774Y252132I-200J0D01*
G01X322717Y252155D01*
X322600Y252132D01*
X317670Y247202D01*
G03X317615Y247024I141J-141D01*
G01X317685Y246650D01*
X317747Y246573D01*
X317792Y246553D01*
G02X318212Y245910I-282J-643D01*
G02X316808I-702J0D01*
G02X316878Y246215I702J-1D01*
G01X316900Y246262D01*
X316895Y246364D01*
X316687Y246695D01*
G03X316517Y246788I-169J-107D01*
G01X292447D01*
G02X292305Y246847I0J200D01*
G01X285867Y253285D01*
G02X285808Y253427I141J142D01*
G01Y260663D01*
G02X285867Y260805I200J0D01*
G01X287105Y262043D01*
G02X287247Y262102I142J-141D01*
G01X298153D01*
G02X298295Y262043I0J-200D01*
G01X301188Y259150D01*
G03X301329Y259092I141J142D01*
G01X306961D01*
G03X307102Y259150I0J200D01*
G01X308230Y260278D01*
G03X308288Y260419I-142J141D01*
G01Y283163D01*
G02X308347Y283305I200J0D01*
G01X329231Y304189D01*
G03X329290Y304331I-141J142D01*
G01X329288Y304656D01*
X329257Y304729D01*
X329228Y304757D01*
G02X328988Y305330I562J572D01*
G02X329165Y305833I803J0D01*
G03X329159Y306342I-311J251D01*
G02X328969Y306860I611J518D01*
G02X330573I802J0D01*
G02X330396Y306357I-803J0D01*
G03X330402Y305848I311J-251D01*
G02X330592Y305330I-611J-518D01*
G02X330544Y305057I-802J0D01*
G01X330528Y305011D01*
X330541Y304915D01*
X330757Y304607D01*
G03X330920Y304522I163J115D01*
G01X331581D01*
G03X331722Y304580I0J200D01*
G01X331920Y304778D01*
G03X331978Y304919I-142J141D01*
G01Y309431D01*
G03X331920Y309572I-200J0D01*
G01X331133Y310359D01*
X331014Y310383D01*
X330958Y310359D01*
G02X330650Y310298I-307J741D01*
G02X330216Y310425I-1J802D01*
G01X330156Y310464D01*
X330017Y310449D01*
X329525Y309957D01*
G02X329383Y309898I-142J141D01*
G01X326538D01*
X326447Y309848D01*
X326420Y309805D01*
G02X325060I-680J425D01*
G01X325033Y309848D01*
X324942Y309898D01*
X322790D01*
X322685Y309821D01*
X322665Y309759D01*
G02X321135I-765J241D01*
G01X321115Y309821D01*
X321010Y309898D01*
X320832D01*
G03X320632Y309698I0J-200D01*
G01Y309697D01*
Y309689D01*
G02X319830Y308887I-802J0D01*
G02X319134Y309291I0J802D01*
G01X319110Y309332D01*
X319033Y309384D01*
X318671Y309432D01*
G03X318503Y309376I-27J-198D01*
G01X318368Y309241D01*
G03X318310Y309096I142J-141D01*
G01X318315Y308768D01*
X318348Y308694D01*
X318378Y308666D01*
G02X318632Y308080I-549J-586D01*
G02X317830Y307278I-802J0D01*
G02X317244Y307532I0J803D01*
G01X317216Y307562D01*
X317142Y307595D01*
X316814Y307600D01*
G03X316669Y307542I-4J-200D01*
G01X306470Y297342D01*
G03X306412Y297201I142J-141D01*
G01Y282067D01*
G02X306353Y281925I-200J0D01*
G01X305525Y281097D01*
G02X305383Y281038I-142J141D01*
G01X296667D01*
G02X296525Y281097I0J200D01*
G01X296377Y281245D01*
G02X296318Y281387I141J142D01*
G01Y304123D01*
G02X296377Y304265I200J0D01*
G01X305320Y313208D01*
G03X305369Y313410I-141J141D01*
G01X305245Y313802D01*
X305161Y313875D01*
X305106Y313885D01*
G02X304441Y314675I137J790D01*
G02X305243Y315477I802J0D01*
G02X306045Y314693I0J-802D01*
G01X306046Y314653D01*
X306077Y314582D01*
X306305Y314359D01*
G03X306445Y314302I140J143D01*
G01X310511D01*
G03X310683Y314400I0J200D01*
G01X310885Y314744D01*
X310886Y314850D01*
X310860Y314897D01*
G02X310758Y315288I700J391D01*
G02X312362I802J0D01*
G02X312105Y314700I-801J0D01*
G03X312042Y314553I137J-146D01*
G01Y313082D01*
G03X312242Y312882I199J-1D01*
G01X312726D01*
G03X312888Y312964I1J200D01*
G01X313107Y313264D01*
X313122Y313358D01*
X313107Y313404D01*
G02X313068Y313650I763J247D01*
G02X313470Y314345I802J0D01*
G03X313570Y314505I-100J174D01*
G02X313656Y314816I800J-54D01*
G03X313662Y314985I-178J91D01*
G02X313598Y315300I738J314D01*
G02X314400Y316102I802J0D01*
G02X315202Y315301I0J-802D01*
G01Y315217D01*
X315318Y315102D01*
X315951D01*
G03X316092Y315160I0J200D01*
G01X317075Y316143D01*
G02X317217Y316202I142J-141D01*
G01X317250D01*
X317530Y316579D01*
X317546Y316672D01*
X317532Y316717D01*
G02X317498Y316950I768J231D01*
G02X317689Y317469I801J0D01*
G01X317720Y317506D01*
X317742Y317598D01*
X317642Y318008D01*
X317581Y318079D01*
X317536Y318098D01*
G02X317038Y318840I304J742D01*
G02X317093Y319133I802J1D01*
G01X317111Y319179D01*
X317100Y319277D01*
X316886Y319591D01*
G03X316721Y319678I-165J-113D01*
G01X315447D01*
X315342Y319602D01*
X315322Y319541D01*
G02X313798I-762J248D01*
G01X313778Y319602D01*
X313673Y319678D01*
X312936D01*
X312833Y319607D01*
X312811Y319549D01*
G02X311309I-751J281D01*
G01X311287Y319607D01*
X311184Y319678D01*
X310742D01*
G03X310600Y319619I0J-200D01*
G01X310372Y319389D01*
X310342Y319316D01*
Y319275D01*
Y319269D01*
G02X308738I-802J0D01*
G01Y319316D01*
X308708Y319389D01*
X308480Y319619D01*
G03X308338Y319678I-142J-141D01*
G01X301359D01*
G03X301218Y319620I0J-200D01*
G01X277620Y296022D01*
G03X277562Y295881I142J-141D01*
G01Y278257D01*
G02X277503Y278115I-200J0D01*
G01X276505Y277117D01*
G02X276363Y277058I-142J141D01*
G01X261667D01*
G02X261525Y277117I0J200D01*
G01X259867Y278775D01*
G02X259808Y278917I141J142D01*
G01Y305323D01*
G02X259867Y305465I200J0D01*
G01X260094Y305692D01*
G03X260152Y305846I-142J141D01*
G01X260129Y306190D01*
X260088Y306266D01*
X260054Y306292D01*
G02X259738Y306930I486J638D01*
G02X260540Y307732I802J0D01*
G02X261178Y307416I0J-802D01*
G01X261204Y307382D01*
X261280Y307341D01*
X261624Y307318D01*
G03X261778Y307376I13J200D01*
G01X284345Y329943D01*
G02X284487Y330002I142J-141D01*
G01X291390D01*
G03X291527Y330056I0J200D01*
G01X291755Y330270D01*
X291787Y330339D01*
X291789Y330378D01*
G02X292174Y331015I800J-49D01*
G03X292248Y331095I-104J171D01*
G01X292299Y331194D01*
G03X292320Y331300I-178J90D01*
G02X292318Y331360I800J57D01*
G02X292967Y332147I802J0D01*
G01X293037Y332161D01*
X293128Y332272D01*
Y341958D01*
G03X292928Y342158I-200J1D01*
G01X283221D01*
G03X283080Y342100I0J-200D01*
G01X272290Y331310D01*
G02X271900Y331148I-391J390D01*
G01X267712D01*
G03X267544Y331058I-1J-200D01*
G01X267333Y330734D01*
X267325Y330634D01*
X267346Y330587D01*
G02X267414Y330263I-734J-323D01*
G02X266612Y329461I-802J0D01*
G02X265812Y330213I0J802D01*
G01X265809Y330249D01*
X265779Y330316D01*
X265370Y330725D01*
G02X265208Y331115I390J391D01*
G01Y332190D01*
G02X265370Y332580I552J-1D01*
G01X265870Y333080D01*
G02X266260Y333242I391J-390D01*
G01X266970D01*
G02X267360Y333080I-1J-552D01*
G01X267530Y332910D01*
G03X267671Y332852I141J142D01*
G01X271339D01*
G03X271480Y332910I0J200D01*
G01X282270Y343700D01*
G02X282660Y343862I391J-390D01*
G01X307978D01*
G03X308178Y344062I0J199D01*
G01Y353103D01*
G02X308237Y353245I200J0D01*
G01X309635Y354643D01*
G02X309777Y354702I142J-141D01*
G01X349043D01*
G02X349185Y354643I0J-200D01*
G01X351733Y352095D01*
G02X351792Y351953I-141J-142D01*
G01Y341647D01*
G02X351733Y341505I-200J0D01*
G01X349066Y338838D01*
X349016D01*
X346465Y336287D01*
G02X346323Y336228I-142J141D01*
G01X346098D01*
X346064Y336216D01*
G02X345790Y336168I-273J754D01*
G02X345516Y336216I-1J802D01*
G01X345482Y336228D01*
X342084D01*
G03X341940Y336167I0J-200D01*
G02X341927Y336153I-594J538D01*
G01X341827Y336053D01*
G02X341260Y335818I-567J567D01*
G01X329670D01*
G02X329103Y336053I0J802D01*
G01X328793Y336363D01*
G02X328778Y336379I577J556D01*
G01X328747Y336412D01*
X328664Y336444D01*
X328267Y336418D01*
X328190Y336376D01*
X328163Y336339D01*
G02X327514Y336008I-649J471D01*
G02Y337612I0J802D01*
G02X328097Y337361I0J-803D01*
G01X328128Y337328D01*
X328210Y337296D01*
X328607Y337322D01*
X328685Y337364D01*
X328711Y337401D01*
G02X329360Y337732I649J-471D01*
G02X329927Y337497I0J-802D01*
G01X329943Y337480D01*
G03X330085Y337422I141J142D01*
G01X334038D01*
G03X334238Y337622I1J200D01*
G01Y338126D01*
X334230Y338153D01*
G02X334198Y338379I770J224D01*
G02X334230Y338605I802J2D01*
G01X334238Y338632D01*
Y338683D01*
G02X334297Y338825I200J0D01*
G01X335315Y339843D01*
G02X335457Y339902I142J-141D01*
G01X338371D01*
G03X338512Y339960I0J200D01*
G01X339150Y340598D01*
G03X339208Y340739I-142J141D01*
G01Y343308D01*
X339198D01*
Y344768D01*
G03X338998Y344968I-200J0D01*
G01X319670D01*
G03X319485Y344845I0J-200D01*
G01X319462Y344788D01*
X319485Y344671D01*
X320442Y343714D01*
G02X320500Y343572I-142J-141D01*
G01Y340842D01*
G03X320700Y340642I200J0D01*
G01X320868D01*
G02X321258Y340480I-1J-552D01*
G01X321558Y340180D01*
G02X321703Y339925I-390J-390D01*
G01X321709Y339899D01*
X321736Y339852D01*
X321973Y339615D01*
G02X322032Y339473I-141J-142D01*
G01Y331278D01*
X322148Y331162D01*
X322212D01*
Y330240D01*
G03X322270Y330099I200J0D01*
G01X324153Y328215D01*
G02X324212Y328073I-141J-142D01*
G01Y323098D01*
G02X324012Y322898I-201J0D01*
G01X319781D01*
G03X319637Y322837I0J-200D01*
G01X319408Y322599D01*
X319380Y322524D01*
X319381Y322482D01*
G02X319382Y322450I-801J-41D01*
G02X319350Y322224I-802J-2D01*
G01X319342Y322197D01*
Y319878D01*
G02X319142Y319678I-201J0D01*
G01X318959D01*
G03X318794Y319591I0J-200D01*
G01X318580Y319277D01*
X318569Y319179D01*
X318587Y319133D01*
G02X318642Y318840I-747J-292D01*
G02X318451Y318321I-801J0D01*
G01X318420Y318284D01*
X318398Y318192D01*
X318498Y317782D01*
X318559Y317711D01*
X318604Y317692D01*
G02X319020Y317303I-304J-742D01*
G03X319094Y317222I179J89D01*
G01X319190Y317162D01*
G03X319296Y317132I105J170D01*
G02X319699Y317025I3J-802D01*
G01X319746Y316998D01*
X319852Y316999D01*
X320199Y317199D01*
G03X320298Y317372I-101J173D01*
G01Y318502D01*
G02X320498Y318702I201J-1D01*
G01X321152D01*
X321265Y318802D01*
X321274Y318877D01*
G02X322866I796J-96D01*
G01X322875Y318802D01*
X322988Y318702D01*
X328469D01*
X328459Y318692D01*
X332420D01*
G03X332592Y318789I1J200D01*
G01X332795Y319129D01*
X332798Y319234D01*
X332772Y319281D01*
G02X332677Y319660I707J379D01*
G02X334281I802J0D01*
G02X334186Y319281I-802J0D01*
G01X334160Y319234D01*
X334163Y319129D01*
X334366Y318789D01*
G03X334538Y318692I171J103D01*
G01X336215D01*
G03X336357Y318751I0J200D01*
G02X336810Y318983I573J-561D01*
G01X336842Y318988D01*
X336898Y319016D01*
X338730Y320848D01*
G03X338788Y320989I-142J141D01*
G01Y323531D01*
X338771Y323588D01*
X338754Y323612D01*
G02X338618Y324060I666J447D01*
G02X338754Y324508I802J1D01*
G01X338771Y324532D01*
X338788Y324589D01*
Y326544D01*
G03X338731Y326685I-200J1D01*
G02Y327815I569J565D01*
G03X338788Y327956I-143J140D01*
G01Y329761D01*
G03X338730Y329902I-200J0D01*
G01X338257Y330375D01*
G02X338198Y330517I141J142D01*
G01Y331183D01*
G02X338257Y331325I200J0D01*
G01X338975Y332043D01*
G02X339117Y332102I142J-141D01*
G01X341983D01*
G02X342125Y332043I0J-200D01*
G01X342258Y331910D01*
G03X342399Y331852I141J142D01*
G01X342941D01*
G03X343082Y331910I0J200D01*
G01X343485Y332313D01*
G02X343627Y332372I142J-141D01*
G01X343671D01*
G03X343812Y332430I0J200D01*
G01X343895Y332513D01*
G02X344037Y332572I142J-141D01*
G01X345181D01*
G03X345322Y332630I0J200D01*
G01X360735Y348043D01*
G02X360877Y348102I142J-141D01*
G01X400052D01*
G02X400252Y347902I0J-201D01*
G01Y333208D01*
G03X400375Y333023I200J0D01*
G01X400432Y333000D01*
X400549Y333023D01*
X401384Y333858D01*
G02X401526Y333917I142J-141D01*
G01X408650Y333900D01*
G02X408776Y333855I0J-200D01*
G01X408787Y333846D01*
G03X408914Y333800I128J154D01*
G01X412682D01*
G02X412824Y333742I1J-200D01*
G01X420842Y325724D01*
G02X420900Y325582I-142J-141D01*
G01Y265366D01*
G02X420842Y265224I-200J-1D01*
G01X383555Y227937D01*
G02X383413Y227878I-142J141D01*
G01X364906D01*
G03X364706Y227678I-1J-200D01*
G01Y220040D01*
G02X364104Y219438I-602J0D01*
G01X356604D01*
G02X356002Y220040I0J602D01*
G01Y227678D01*
G03X355802Y227878I-199J0D01*
G01X353658D01*
G03X353471Y227750I0J-200D01*
G01X353315Y227342D01*
X353345Y227222D01*
X353391Y227181D01*
G02X354906Y223790I-3038J-3391D01*
G02X352335Y219692I-4551J0D01*
G01X352271Y219661D01*
X352211Y219535D01*
X352314Y219087D01*
G03X352509Y218932I195J45D01*
G01X377611D01*
G03X377752Y218990I0J200D01*
G01X425410Y266648D01*
G03X425468Y266789I-142J141D01*
G01Y336241D01*
G03X425410Y336382I-200J0D01*
G01X409282Y352510D01*
G03X409141Y352568I-141J-142D01*
G01X370237D01*
G02X370095Y352627I0J200D01*
G01X368297Y354425D01*
G02X368238Y354567I141J142D01*
G01Y355937D01*
X368181Y356032D01*
X368131Y356058D01*
G02X367698Y356770I369J712D01*
G02X367839Y357225I802J1D01*
G01X367860Y357255D01*
X367877Y357324D01*
X367841Y357655D01*
X367809Y357719D01*
X367783Y357744D01*
G02X367528Y358330I546J586D01*
G02X368097Y359097I801J0D01*
G01X368160Y359117D01*
X368238Y359222D01*
Y367108D01*
G03X368038Y367308I-199J1D01*
G01X363432D01*
G03X363247Y367185I0J-200D01*
G01X363224Y367128D01*
X363247Y367011D01*
X363893Y366365D01*
G02X363952Y366223I-141J-142D01*
G01Y358797D01*
G02X363893Y358655I-200J0D01*
G01X363317Y358079D01*
X363302Y357939D01*
X363341Y357879D01*
G02X363472Y357440I-670J-439D01*
G02X362670Y356638I-802J0D01*
G02X361883Y357287I0J802D01*
G01X361869Y357357D01*
X361758Y357448D01*
X280367D01*
G02X280225Y357507I0J200D01*
G01X279755Y357977D01*
G03X279619Y358036I-142J-141D01*
G01X279305Y358045D01*
X279234Y358018D01*
X279205Y357993D01*
G02X278670Y357788I-535J596D01*
G02X277868Y358590I0J802D01*
G02X278073Y359125I801J0D01*
G01X278098Y359154D01*
X278125Y359225D01*
X278116Y359539D01*
G03X278057Y359675I-200J-6D01*
G01X276977Y360755D01*
G02X276918Y360897I141J142D01*
G01Y366183D01*
G02X276977Y366325I200J0D01*
G01X277619Y366967D01*
G03X277663Y367185I-141J142D01*
G01X277639Y367242D01*
X277540Y367308D01*
X269919D01*
G03X269778Y367250I0J-200D01*
G01X249515Y346987D01*
G02X249373Y346928I-142J141D01*
G01X235599D01*
G03X235458Y346870I0J-200D01*
G01X227285Y338697D01*
G02X227143Y338638I-142J141D01*
G01X217777D01*
G02X217635Y338697I0J200D01*
G01X209712Y346620D01*
G03X209571Y346678I-141J-142D01*
G01X175907D01*
G02X175765Y346737I0J200D01*
G01X164427Y358075D01*
G02X164368Y358217I141J142D01*
G01Y382953D01*
G02X164427Y383095I200J0D01*
G37*
G54D44*
X410061Y337298D03*
X403569Y342480D03*
X379680Y349680D03*
X399560Y349760D03*
X401750Y349870D03*
X374060Y350400D03*
X396050Y350650D03*
X406520Y350080D03*
G54D39*
X130130Y214578D03*
X134570Y214480D03*
X142020Y214760D03*
X148550Y214900D03*
X156000Y215080D03*
X162480Y214970D03*
X130130Y218911D03*
Y223244D03*
X376910Y221940D03*
X130130Y227077D03*
Y230410D03*
X136290Y230200D03*
X149590Y243330D03*
X151960Y253960D03*
X473030Y269680D03*
X451080Y293450D03*
X455580Y293120D03*
X463470Y293310D03*
X216930Y306241D03*
X436360Y306880D03*
X191580Y316330D03*
X301449Y314661D03*
X440920Y319280D03*
X446790Y318180D03*
X452800Y319380D03*
X320570Y321060D03*
X326323Y324577D03*
X336920Y324420D03*
X436980Y324360D03*
X457030Y324160D03*
X465520Y322200D03*
X323701Y330880D03*
X325935Y328935D03*
X328610Y329000D03*
X336300Y328120D03*
X454480Y329020D03*
X467710Y328610D03*
X324074Y336810D03*
X328675Y332005D03*
X437700Y335800D03*
X456150Y334280D03*
X471020Y333360D03*
X322560Y341190D03*
X325583Y341175D03*
X328733D03*
X331183Y341173D03*
X454770Y339250D03*
X467750Y338890D03*
X466780Y343500D03*
X261220Y346910D03*
X422240Y352780D03*
X275710Y359630D03*
X366180Y357600D03*
X376010Y361240D03*
X273290Y363250D03*
X378740Y362700D03*
X384970Y363530D03*
X390350Y363500D03*
X396210Y363430D03*
X271740Y383320D03*
X277490Y382210D03*
X288770Y383140D03*
X400354Y384090D03*
X167210Y387900D03*
X381260Y391170D03*
X385440Y387160D03*
X390410Y390530D03*
X394770Y391670D03*
X394220Y394750D03*
X128090Y400920D03*
X137050Y401030D03*
X122260Y405050D03*
X132330Y405100D03*
X142120Y406870D03*
G54D36*
X148140Y403600D03*
G54D37*
X220354Y197066D03*
Y387066D03*
X440354Y397066D03*
G54D41*
X170346Y276562D03*
G54D38*
X430354Y197066D03*
X440354D03*
Y207066D03*
X230354Y387066D03*
Y397066D03*
G54D43*
X160346Y281562D03*
X170346Y286562D03*
X160346Y291562D03*
X170346Y296562D03*
X160346Y301562D03*
X170346Y306562D03*
X160346Y311562D03*
X170346Y316562D03*
X160346Y321562D03*
G54D42*
X119362Y282960D03*
Y315164D03*
G54D32*
X147803Y366944D03*
G54D33*
X123303D03*
G54D35*
X135346Y321562D03*
G54D40*
X147354Y268058D03*
Y330066D03*
G54D34*
X135346Y276562D03*
%LPD*%
G75*
G36*
G01X199293Y344020D02*
X209617D01*
G02X209759Y343961I0J-200D01*
G01X210421Y343299D01*
G02X210480Y343157I-141J-142D01*
G01Y319691D01*
G02X210424Y319552I-200J0D01*
G01X210205Y319324D01*
X210136Y319293D01*
X210097Y319291D01*
G03X210071Y319290I18J-802D01*
G01X209915Y319419D01*
G02X209847Y319534I128J154D01*
G03X209060Y320182I-787J-154D01*
G03X208258Y319380I0J-802D01*
G03X209052Y318578I802J0D01*
G02X209177Y318532I-3J-200D01*
G01X209275Y318451D01*
G02X209343Y318336I-128J-154D01*
G03X210097Y317689I787J154D01*
G01X210136Y317687D01*
X210205Y317656D01*
X210424Y317428D01*
G02X210480Y317289I-144J-139D01*
G01Y316473D01*
X210410Y316372D01*
X210351Y316349D01*
G03Y314851I286J-749D01*
G01X210410Y314828D01*
X210480Y314727D01*
Y310445D01*
G02X210409Y310292I-200J0D01*
G01X210142Y310066D01*
X210058Y310043D01*
X210013Y310051D01*
G03X209880Y310062I-132J-791D01*
G03Y308458I0J-802D01*
G03X210013Y308469I1J802D01*
G01X210058Y308477D01*
X210142Y308454D01*
X210409Y308228D01*
G02X210480Y308075I-129J-153D01*
G01Y306941D01*
G02X210418Y306797I-200J1D01*
G01X210180Y306568D01*
X210105Y306540D01*
X210063Y306541D01*
G03X210030Y306542I-41J-801D01*
G03Y304938I0J-802D01*
G03X210063Y304939I-8J802D01*
G01X210105Y304940D01*
X210180Y304912D01*
X210418Y304683D01*
G02X210480Y304539I-138J-145D01*
G01Y303741D01*
G02X210418Y303597I-200J1D01*
G01X210180Y303368D01*
X210105Y303340D01*
X210063Y303341D01*
G03X210030Y303342I-41J-801D01*
G03Y301738I0J-802D01*
G03X210063Y301739I-8J802D01*
G01X210105Y301740D01*
X210180Y301712D01*
X210418Y301483D01*
G02X210480Y301339I-138J-145D01*
G01Y300775D01*
G02X210429Y300641I-200J-1D01*
G01X210225Y300415D01*
X210161Y300381D01*
X210123Y300377D01*
G03Y298783I87J-797D01*
G01X210161Y298779D01*
X210225Y298745D01*
X210429Y298519D01*
G02X210480Y298385I-149J-133D01*
G01Y297670D01*
G02X210425Y297533I-200J1D01*
G01X210208Y297305D01*
X210139Y297273D01*
X210100Y297271D01*
G03Y295669I40J-801D01*
G01X210139Y295667D01*
X210208Y295635D01*
X210425Y295407D01*
G02X210480Y295270I-145J-138D01*
G01Y285783D01*
G02X210421Y285641I-200J0D01*
G01X181759Y256979D01*
G02X181617Y256920I-142J141D01*
G01X171653D01*
G03X171511Y256861I0J-200D01*
G01X165749Y251099D01*
G03X165690Y250957I141J-142D01*
G01Y242844D01*
G02X165622Y242693I-200J-1D01*
G03X165348Y242090I528J-604D01*
G03X165622Y241487I802J1D01*
G02X165690Y241336I-132J-150D01*
G01Y240554D01*
X165637Y240462D01*
X165590Y240435D01*
G03Y239045I400J-695D01*
G01X165637Y239018D01*
X165690Y238926D01*
Y238433D01*
X165641Y238343D01*
X165598Y238316D01*
G03X165244Y237801I432J-676D01*
G01X165238Y237772D01*
X165211Y237721D01*
X165049Y237559D01*
G02X164907Y237500I-142J141D01*
G01X152723D01*
G02X152581Y237559I0J200D01*
G01X151999Y238141D01*
G02X151940Y238283I141J142D01*
G01Y249647D01*
G02X151999Y249789I200J0D01*
G01X161941Y259731D01*
G03X162000Y259873I-141J142D01*
G01Y265467D01*
G02X162059Y265609I200J0D01*
G01X162431Y265981D01*
G02X162573Y266040I142J-141D01*
G01X175017D01*
G03X175159Y266099I0J200D01*
G01X180718Y271658D01*
X180761Y271673D01*
G03X181787Y272699I-561J1587D01*
G01X181802Y272742D01*
X185592Y276532D01*
X185711Y276555D01*
X185768Y276531D01*
G03X186080Y276468I312J739D01*
G03X186882Y277270I0J802D01*
G03X186819Y277582I-802J0D01*
G01X186795Y277639D01*
X186818Y277758D01*
X196881Y287821D01*
G03X196940Y287963I-141J142D01*
G01Y287982D01*
X196977Y288061D01*
X197281Y288316D01*
X197365Y288338D01*
X197410Y288330D01*
G03X197550Y288318I138J790D01*
G03Y289922I0J802D01*
G03X197410Y289910I-2J-802D01*
G01X197365Y289902D01*
X197281Y289924D01*
X197012Y290150D01*
G02X196940Y290303I128J154D01*
G01Y291446D01*
X196954Y291481D01*
G03X197012Y291780I-744J299D01*
G03X196954Y292079I-802J0D01*
G01X196940Y292114D01*
Y292556D01*
X196954Y292591D01*
G03X197012Y292890I-744J299D01*
G03X196954Y293189I-802J0D01*
G01X196940Y293224D01*
Y295189D01*
G02X196996Y295328I200J0D01*
G01X197215Y295556D01*
X197284Y295587D01*
X197323Y295589D01*
G03Y297191I-33J801D01*
G01X197284Y297193D01*
X197215Y297224D01*
X196996Y297452D01*
G02X196940Y297591I144J139D01*
G01Y298298D01*
G02X197000Y298441I200J0D01*
G01X197232Y298669D01*
X197306Y298699D01*
X197347Y298698D01*
X197360D01*
G03Y300302I0J802D01*
G01X197347D01*
X197306Y300301D01*
X197232Y300331D01*
X197000Y300559D01*
G02X196940Y300702I140J143D01*
G01Y301269D01*
G02X196989Y301400I200J0D01*
G01X197187Y301627D01*
X197250Y301660D01*
X197287Y301665D01*
G03Y303255I-107J795D01*
G01X197250Y303260D01*
X197187Y303293D01*
X196989Y303520D01*
G02X196940Y303651I151J131D01*
G01Y304469D01*
G02X196989Y304600I200J0D01*
G01X197187Y304827D01*
X197250Y304860D01*
X197287Y304865D01*
G03Y306455I-107J795D01*
G01X197250Y306460D01*
X197187Y306493D01*
X196989Y306720D01*
G02X196940Y306851I151J131D01*
G01Y308261D01*
X197041Y308374D01*
X197118Y308383D01*
G03Y309977I-88J797D01*
G01X197041Y309986D01*
X196940Y310099D01*
Y311464D01*
G02X197003Y311610I200J0D01*
G03X197258Y312196I-546J586D01*
G03X197132Y312627I-802J0D01*
G02X197133Y312844I169J108D01*
G03X197262Y313280I-672J436D01*
G03X197004Y313869I-801J0D01*
G02X196940Y314016I136J147D01*
G01Y322919D01*
G02X196995Y323057I200J0D01*
G01X197078Y323145D01*
G02X197197Y323205I144J-138D01*
G03X197536Y323334I-108J795D01*
G02X197746Y323342I111J-166D01*
G03X198140Y323238I395J698D01*
G03Y324842I0J802D01*
G03X197694Y324706I1J-802D01*
G02X197484Y324698I-111J166D01*
G03X197197Y324795I-396J-697D01*
G02X197078Y324855I25J198D01*
G01X196995Y324943D01*
G02X196940Y325081I145J138D01*
G01Y325500D01*
X196956Y325554D01*
X196971Y325578D01*
G03Y327382I-1422J902D01*
G02X196940Y327489I169J107D01*
G01Y341667D01*
G02X196999Y341809I200J0D01*
G01X199151Y343961D01*
G02X199293Y344020I142J-141D01*
G37*
G36*
G01X369383Y367280D02*
X372007D01*
G02X372149Y367221I0J-200D01*
G01X372691Y366679D01*
G02X372750Y366537I-141J-142D01*
G01Y361784D01*
G02X372682Y361633I-200J-1D01*
G03X372408Y361030I528J-604D01*
G03X372682Y360427I802J1D01*
G02X372750Y360276I-132J-150D01*
G01Y357853D01*
G03X372809Y357711I200J0D01*
G01X373631Y356889D01*
G03X373773Y356830I142J141D01*
G01X414387D01*
G02X414529Y356771I0J-200D01*
G01X422541Y348759D01*
G03X422683Y348700I142J141D01*
G01X432447D01*
G02X432589Y348641I0J-200D01*
G01X434521Y346709D01*
G02X434580Y346567I-141J-142D01*
G01Y284694D01*
G02X434513Y284544I-200J-1D01*
G01X434257Y284317D01*
X434177Y284291D01*
X434133Y284297D01*
G03X434040Y284302I-89J-797D01*
G03Y282698I0J-802D01*
G03X434133Y282703I4J802D01*
G01X434177Y282709D01*
X434257Y282683D01*
X434513Y282456D01*
G02X434580Y282306I-133J-149D01*
G01Y261923D01*
G02X434521Y261781I-200J0D01*
G01X383899Y211159D01*
G02X383757Y211100I-142J141D01*
G01X303683D01*
G02X303541Y211159I0J200D01*
G01X297559Y217141D01*
G03X297417Y217200I-142J-141D01*
G01X296997D01*
G02X296858Y217256I0J200D01*
G03X296300Y217482I-558J-576D01*
G03X295838Y217335I1J-802D01*
G02X295616Y217329I-116J164D01*
G03X295190Y217452I-427J-679D01*
G03X294725Y217304I-1J-802D01*
G02X294506Y217296I-116J163D01*
G03X294090Y217412I-416J-686D01*
G03X293597Y217242I1J-802D01*
G02X293474Y217200I-123J158D01*
G01X278253D01*
G02X278111Y217259I0J200D01*
G01X271329Y224041D01*
G03X271187Y224100I-142J-141D01*
G01X244383D01*
G02X244241Y224159I0J200D01*
G01X233849Y234551D01*
G03X233707Y234610I-142J-141D01*
G01X170223D01*
G02X170081Y234669I0J200D01*
G01X166744Y238006D01*
X166731Y238030D01*
G03X166566Y238236I-700J-391D01*
G02X166500Y238385I134J149D01*
G01Y239033D01*
G02X166558Y239174I200J0D01*
G03Y240306I-568J566D01*
G02X166500Y240447I142J141D01*
G01Y241303D01*
X166548Y241392D01*
X166590Y241420D01*
G03Y242760I-439J670D01*
G01X166548Y242788D01*
X166500Y242877D01*
Y250227D01*
G02X166559Y250369I200J0D01*
G01X166841Y250651D01*
X166968Y250672D01*
X167026Y250642D01*
G03X167386Y250557I359J717D01*
G03X168188Y251359I0J802D01*
G03X168103Y251719I-802J1D01*
G01X168073Y251777D01*
X168094Y251904D01*
X171821Y255631D01*
G02X171963Y255690I142J-141D01*
G01X177957D01*
G02X178099Y255631I0J-200D01*
G01X178441Y255289D01*
G02X178500Y255147I-141J-142D01*
G01Y253683D01*
G02X178441Y253541I-200J0D01*
G01X178279Y253379D01*
G02X178137Y253320I-142J141D01*
G01X174883D01*
G03X174741Y253261I0J-200D01*
G01X170629Y249149D01*
G03X170570Y249007I141J-142D01*
G01Y240653D01*
G03X170629Y240511I200J0D01*
G01X173491Y237649D01*
G03X173633Y237590I142J141D01*
G01X173832D01*
X173834Y237588D01*
X235489D01*
G02X235630Y237530I0J-200D01*
G01X245281Y227879D01*
G03X245423Y227820I142J141D01*
G01X275947D01*
G02X276089Y227761I0J-200D01*
G01X276481Y227369D01*
G02X276540Y227227I-141J-142D01*
G01Y225573D01*
G03X276599Y225431I200J0D01*
G01X280781Y221249D01*
G03X280923Y221190I142J141D01*
G01X302327D01*
G02X302469Y221131I0J-200D01*
G01X305011Y218589D01*
G03X305153Y218530I142J141D01*
G01X359035D01*
G02X359200Y218443I0J-200D01*
G03X360354Y217836I1155J795D01*
G03X361508Y218443I-1J1402D01*
G02X361673Y218530I165J-113D01*
G01X377777D01*
G03X377919Y218589I0J200D01*
G01X425811Y266481D01*
G03X425870Y266623I-141J142D01*
G01Y336407D01*
G03X425811Y336549I-200J0D01*
G01X409449Y352911D01*
G03X409307Y352970I-142J-141D01*
G01X370403D01*
G02X370261Y353029I0J200D01*
G01X368699Y354591D01*
G02X368640Y354733I141J142D01*
G01Y355891D01*
X368712Y355994D01*
X368772Y356016D01*
G03X369302Y356770I-271J754D01*
G03X369047Y357356I-801J0D01*
G01X369021Y357381D01*
X368989Y357445D01*
X368953Y357776D01*
X368970Y357845D01*
X368991Y357875D01*
G03X369132Y358330I-661J454D01*
G03X368738Y359020I-801J0D01*
G01X368693Y359047D01*
X368640Y359139D01*
Y366537D01*
G02X368699Y366679I200J0D01*
G01X369241Y367221D01*
G02X369383Y367280I142J-141D01*
G37*
G36*
G01X165498Y383515D02*
X169402D01*
G02X169544Y383456I0J-200D01*
G01X181801Y371199D01*
G03X181943Y371140I142J141D01*
G01X214937D01*
G03X215079Y371199I0J200D01*
G01X222001Y378121D01*
G02X222143Y378180I142J-141D01*
G01X239062D01*
G02X239209Y378115I0J-200D01*
G01X239438Y377867D01*
X239464Y377789D01*
X239461Y377747D01*
G03X239458Y377680I799J-69D01*
G03X241062I802J0D01*
G03X241059Y377747I-802J-2D01*
G01X241056Y377789D01*
X241082Y377867D01*
X241311Y378115D01*
G02X241458Y378180I147J-135D01*
G01X241569D01*
G02X241723Y378108I0J-200D01*
G03X242957I617J511D01*
G02X243111Y378180I154J-128D01*
G01X377972D01*
X378085Y378080D01*
X378094Y378004D01*
G03X379686I796J96D01*
G01X379695Y378080D01*
X379808Y378180D01*
X380470D01*
X380585Y378070D01*
X380589Y377990D01*
G03X382191I801J40D01*
G01X382195Y378070D01*
X382310Y378180D01*
X412767D01*
G02X412909Y378121I0J-200D01*
G01X414701Y376329D01*
G02X414760Y376187I-141J-142D01*
G01Y369273D01*
G02X414701Y369131I-200J0D01*
G01X413339Y367769D01*
G02X413197Y367710I-142J141D01*
G01X392350D01*
G02X392184Y367799I0J200D01*
G01X391971Y368118D01*
X391961Y368216D01*
X391981Y368263D01*
G03X392042Y368570I-742J307D01*
G03X390438I-802J0D01*
G03X390499Y368263I803J0D01*
G01X390519Y368216D01*
X390509Y368118D01*
X390296Y367799D01*
G02X390130Y367710I-166J111D01*
G01X337096D01*
G02X336922Y367811I0J200D01*
G01X336723Y368159D01*
X336724Y368266D01*
X336751Y368313D01*
G03X336862Y368720I-691J407D01*
G03X335258I-802J0D01*
G03X335369Y368313I802J0D01*
G01X335396Y368266D01*
X335397Y368159D01*
X335198Y367811D01*
G02X335024Y367710I-174J99D01*
G01X309507D01*
G02X309329Y367819I0J200D01*
G01X309141Y368186D01*
X309149Y368296D01*
X309182Y368343D01*
G03X309332Y368810I-652J467D01*
G03X307728I-802J0D01*
G03X307878Y368343I802J0D01*
G01X307911Y368296D01*
X307919Y368186D01*
X307731Y367819D01*
G02X307553Y367710I-178J91D01*
G01X305522D01*
X305418Y367784D01*
X305397Y367844D01*
G03X303883I-757J-264D01*
G01X303862Y367784D01*
X303758Y367710D01*
X288986D01*
G02X288822Y367796I0J200D01*
G01X288606Y368107D01*
X288594Y368203D01*
X288611Y368250D01*
G03X288662Y368530I-751J281D01*
G03X287058I-802J0D01*
G03X287109Y368250I802J1D01*
G01X287126Y368203D01*
X287114Y368107D01*
X286898Y367796D01*
G02X286734Y367710I-164J114D01*
G01X269753D01*
G03X269611Y367651I0J-200D01*
G01X260790Y358830D01*
G02X260651Y358771I-142J141D01*
G01X260333Y358767D01*
X260260Y358795D01*
X260232Y358822D01*
G03X259680Y359042I-552J-583D01*
G03X259130Y358823I1J-802D01*
G01X259100Y358796D01*
X259026Y358768D01*
X258664Y358778D01*
X258591Y358811D01*
X258564Y358840D01*
G03X257980Y359092I-584J-551D01*
G03X257319Y358744I0J-802D01*
G01X257291Y358704D01*
X257207Y358658D01*
X256782Y358652D01*
X256696Y358694D01*
X256667Y358734D01*
G03X256020Y359062I-647J-474D01*
G03Y357458I0J-802D01*
G03X256681Y357806I0J802D01*
G01X256709Y357846D01*
X256793Y357892D01*
X257218Y357898D01*
X257304Y357856D01*
X257333Y357816D01*
G03X257980Y357488I647J474D01*
G03X258530Y357707I-1J802D01*
G01X258560Y357734D01*
X258634Y357762D01*
X258996Y357752D01*
X259069Y357719D01*
X259096Y357690D01*
G03X259098Y357688I568J566D01*
G01X259125Y357660D01*
X259153Y357587D01*
X259149Y357269D01*
G02X259090Y357130I-200J3D01*
G01X255898Y353938D01*
X255820Y353908D01*
X255776Y353911D01*
G03X255730Y353912I-40J-801D01*
G03X254928Y353110I0J-802D01*
G03X254929Y353064I802J-6D01*
G01X254932Y353020D01*
X254902Y352942D01*
X254784Y352824D01*
G02X254502I-141J142D01*
G01X254468Y352858D01*
X254438Y352946D01*
X254445Y352993D01*
G03X254452Y353100I-795J106D01*
G03X252848I-802J0D01*
G03X253440Y352326I802J0D01*
G01X253492Y352312D01*
X253566Y352237D01*
X253669Y351850D01*
G02X253617Y351657I-193J-51D01*
G01X249349Y347389D01*
G02X249207Y347330I-142J141D01*
G01X235433D01*
G03X235291Y347271I0J-200D01*
G01X230829Y342809D01*
G02X230620Y342762I-142J141D01*
G01X230225Y342902D01*
X230154Y342993D01*
X230148Y343051D01*
G03X229350Y343772I-798J-81D01*
G03X228738Y343488I0J-801D01*
G01X228710Y343455D01*
X228634Y343419D01*
X228250Y343408D01*
X228172Y343440D01*
X228142Y343472D01*
G03X227560Y343722I-582J-552D01*
G03Y342118I0J-802D01*
G03X228172Y342402I0J801D01*
G01X228200Y342435D01*
X228276Y342471D01*
X228660Y342482D01*
X228738Y342450D01*
X228768Y342418D01*
G03X229269Y342172I582J552D01*
G01X229327Y342166D01*
X229418Y342095D01*
X229558Y341700D01*
G02X229511Y341491I-188J-67D01*
G01X227920Y339900D01*
G02X227721Y339850I-141J141D01*
G01X227331Y339967D01*
X227257Y340048D01*
X227245Y340102D01*
G03X226460Y340742I-785J-161D01*
G03X225658Y339940I0J-802D01*
G03X225731Y339606I802J0D01*
G01X225752Y339560D01*
X225745Y339458D01*
X225535Y339132D01*
G02X225367Y339040I-168J108D01*
G01X217943D01*
G02X217801Y339099I0J200D01*
G01X209879Y347021D01*
G03X209737Y347080I-142J-141D01*
G01X176073D01*
G02X175931Y347139I0J200D01*
G01X175903Y347167D01*
G02Y347449I142J141D01*
G01X175932Y347478D01*
X176006Y347508D01*
X176047D01*
X176055D01*
G03Y349112I0J802D01*
G03X175299Y348579I0J-803D01*
G01X175282Y348530D01*
X175206Y348462D01*
X174825Y348377D01*
G02X174640Y348430I-44J195D01*
G01X164829Y358241D01*
G02X164770Y358383I141J142D01*
G01Y382787D01*
G02X164829Y382929I200J0D01*
G01X165356Y383456D01*
G02X165498Y383515I142J-141D01*
G37*
G36*
G01X236893Y343360D02*
X262517D01*
G02X262659Y343301I0J-200D01*
G01X263641Y342319D01*
G02X263700Y342177I-141J-142D01*
G01Y330773D01*
G03X263759Y330631I200J0D01*
G01X269271Y325119D01*
G02X269330Y324977I-141J-142D01*
G01Y318343D01*
G02X269271Y318201I-200J0D01*
G01X257399Y306329D01*
G03X257340Y306187I141J-142D01*
G01Y274983D01*
G03X257399Y274841I200J0D01*
G01X265511Y266729D01*
G02X265570Y266587I-141J-142D01*
G01Y233693D01*
G02X265511Y233551I-200J0D01*
G01X263899Y231939D01*
G02X263757Y231880I-142J141D01*
G01X242913D01*
G02X242771Y231939I0J200D01*
G01X236779Y237931D01*
G03X236637Y237990I-142J-141D01*
G01X174083D01*
G02X173941Y238049I0J200D01*
G01X171099Y240891D01*
G02X171040Y241033I141J142D01*
G01Y248757D01*
G02X171099Y248899I200J0D01*
G01X174411Y252211D01*
G02X174553Y252270I142J-141D01*
G01X179907D01*
G03X180049Y252329I0J200D01*
G01X190521Y262801D01*
G02X190663Y262860I142J-141D01*
G01X191406D01*
X191492Y262815D01*
X191520Y262774D01*
G03X192840I660J456D01*
G01X192868Y262815D01*
X192954Y262860D01*
X196639D01*
X196696Y262843D01*
X196721Y262826D01*
G03X197170Y262688I450J664D01*
G03X197619Y262826I-1J802D01*
G01X197644Y262843D01*
X197701Y262860D01*
X205795D01*
G02X205952Y262784I0J-200D01*
G03X207212I630J496D01*
G02X207369Y262860I157J-124D01*
G01X230637D01*
G03X230779Y262919I0J200D01*
G01X233241Y265381D01*
G03X233300Y265523I-141J142D01*
G01Y339767D01*
G02X233359Y339909I200J0D01*
G01X236751Y343301D01*
G02X236893Y343360I142J-141D01*
G37*
G36*
G01X438543Y285230D02*
X456107D01*
G02X456249Y285171I0J-200D01*
G01X456561Y284859D01*
G02X456620Y284717I-141J-142D01*
G01Y265490D01*
G02X456537Y265328I-200J0D01*
G01X456234Y265110D01*
X456139Y265096D01*
X456094Y265111D01*
G03X455840Y265152I-253J-761D01*
G03Y263548I0J-802D01*
G03X456094Y263589I1J802D01*
G01X456139Y263604D01*
X456234Y263590D01*
X456537Y263372D01*
G02X456620Y263210I-117J-162D01*
G01Y237803D01*
G02X456561Y237661I-200J0D01*
G01X429736Y210836D01*
X429684Y210809D01*
X429653Y210803D01*
G03X426617Y207767I701J-3737D01*
G01X426611Y207736D01*
X426584Y207684D01*
X425129Y206229D01*
G03X425070Y206087I141J-142D01*
G01Y188953D01*
G02X425011Y188811I-200J0D01*
G01X422599Y186399D01*
G02X422457Y186340I-142J141D01*
G01X416303D01*
G02X416163Y186397I0J200D01*
G03X413817I-1173J-1207D01*
G02X413677Y186340I-140J143D01*
G01X405663D01*
G02X405523Y186397I0J200D01*
G03X403177I-1173J-1207D01*
G02X403037Y186340I-140J143D01*
G01X384739D01*
G02X384605Y186391I-1J200D01*
G03X383480Y186823I-1126J-1251D01*
G03X382355Y186391I1J-1683D01*
G02X382221Y186340I-133J149D01*
G01X240693D01*
G02X240551Y186399I0J200D01*
G01X233090Y193860D01*
G02X233031Y194000I141J142D01*
G01X233029Y194320D01*
X233058Y194393D01*
X233085Y194421D01*
G03X234156Y197066I-2731J2645D01*
G03X230354Y200868I-3802J0D01*
G03X227709Y199797I0J-3802D01*
G01X227681Y199770D01*
X227608Y199741D01*
X227288Y199743D01*
G02X227148Y199802I2J200D01*
G01X223967Y202983D01*
G02X223909Y203119I142J141D01*
G01X223900Y203432D01*
X223926Y203503D01*
X223952Y203532D01*
G03X224156Y204066I-597J534D01*
G01Y210066D01*
G03X223354Y210868I-802J0D01*
G01X217354D01*
G03X216820Y210664I0J-801D01*
G01X216791Y210638D01*
X216720Y210612D01*
X216407Y210621D01*
G02X216271Y210679I5J200D01*
G01X213779Y213171D01*
G02X213720Y213318I141J142D01*
G01X213729Y213651D01*
X213763Y213724D01*
X213795Y213752D01*
G03X214062Y214350I-536J598D01*
G03X213260Y215152I-802J0D01*
G03X212662Y214885I0J-803D01*
G01X212634Y214853D01*
X212561Y214819D01*
X212228Y214810D01*
G02X212081Y214869I-5J200D01*
G01X208449Y218501D01*
G03X208307Y218560I-142J-141D01*
G01X194278D01*
G02X194127Y218630I1J200D01*
G01X193901Y218893D01*
X193876Y218977D01*
X193883Y219020D01*
G03X193892Y219140I-793J120D01*
G03X192288I-802J0D01*
G03X192297Y219020I802J0D01*
G01X192304Y218977D01*
X192279Y218893D01*
X192053Y218630D01*
G02X191902Y218560I-152J130D01*
G01X188343D01*
G02X188201Y218619I0J200D01*
G01X185034Y221786D01*
G02X184975Y221928I141J142D01*
G01Y231222D01*
G02X185034Y231364I200J0D01*
G01X185841Y232171D01*
G02X185983Y232230I142J-141D01*
G01X213767D01*
G02X213909Y232171I0J-200D01*
G01X216111Y229969D01*
G02X216170Y229827I-141J-142D01*
G01Y224483D01*
G03X216229Y224341I200J0D01*
G01X217026Y223544D01*
G03X217168Y223485I142J141D01*
G01X224362D01*
G02X224504Y223426I0J-200D01*
G01X239931Y207999D01*
G03X240073Y207940I142J141D01*
G01X386307D01*
G03X386449Y207999I0J200D01*
G01X437001Y258551D01*
G03X437060Y258693I-141J142D01*
G01Y283747D01*
G02X437119Y283889I200J0D01*
G01X438401Y285171D01*
G02X438543Y285230I142J-141D01*
G37*
G36*
G01X211599Y314239D02*
X212461Y315101D01*
G02X212603Y315160I142J-141D01*
G01X228997D01*
G02X229139Y315101I0J-200D01*
G01X230241Y313999D01*
G02X230300Y313857I-141J-142D01*
G01Y310073D01*
G02X230241Y309931I-200J0D01*
G01X229789Y309479D01*
G02X229647Y309420I-142J141D01*
G01X212403D01*
G02X212261Y309479I0J200D01*
G01X211599Y310141D01*
G02X211540Y310283I141J142D01*
G01Y314097D01*
G02X211599Y314239I200J0D01*
G37*
G36*
G01X218863Y232080D02*
X232907D01*
G02X233049Y232021I0J-200D01*
G01X248361Y216709D01*
G03X248503Y216650I142J141D01*
G01X290107D01*
G02X290249Y216591I0J-200D01*
G01X291291Y215549D01*
G02X291350Y215407I-141J-142D01*
G01Y211143D01*
G02X291291Y211001I-200J0D01*
G01X290799Y210509D01*
G02X290657Y210450I-142J141D01*
G01X239383D01*
G02X239241Y210509I0J200D01*
G01X224999Y224751D01*
G03X224857Y224810I-142J-141D01*
G01X218023D01*
G02X217881Y224869I0J200D01*
G01X217619Y225131D01*
G02X217560Y225273I141J142D01*
G01Y230777D01*
G02X217619Y230919I200J0D01*
G01X218721Y232021D01*
G02X218863Y232080I142J-141D01*
G37*
G36*
G01X416610Y408010D02*
X426617Y398003D01*
X426646Y397907D01*
X426635Y397856D01*
G03X426552Y397066I3718J-790D01*
G03X430354Y393264I3802J0D01*
G03X431144Y393347I0J3801D01*
G01X431195Y393358D01*
X431291Y393329D01*
X436617Y388003D01*
X436646Y387907D01*
X436635Y387856D01*
G03X436552Y387066I3718J-790D01*
G03X440198Y383267I3802J0D01*
G02X440390Y383067I-8J-200D01*
G01Y370493D01*
G03X440449Y370351I200J0D01*
G01X448461Y362339D01*
G03X448603Y362280I142J141D01*
G01X457307D01*
G02X457449Y362221I0J-200D01*
G01X457951Y361719D01*
G02X458010Y361577I-141J-142D01*
G01Y355233D01*
G02X457951Y355091I-200J0D01*
G01X456719Y353859D01*
G02X456577Y353800I-142J141D01*
G01X425353D01*
G02X425211Y353859I0J200D01*
G01X419819Y359251D01*
G02X419760Y359393I141J142D01*
G01Y374807D01*
G03X419701Y374949I-200J0D01*
G01X397989Y396661D01*
G03X397847Y396720I-142J-141D01*
G01X250353D01*
G02X250211Y396779I0J200D01*
G01X248759Y398231D01*
G02X248700Y398373I141J142D01*
G01Y406557D01*
G02X248759Y406699I200J0D01*
G01X250291Y408231D01*
G02X250433Y408290I142J-141D01*
G01X262854D01*
G02X263027Y408191I0J-200D01*
G03X265933I1453J849D01*
G02X266106Y408290I173J-101D01*
G01X279753D01*
G02X279927Y408189I0J-200D01*
G03X282853I1463J830D01*
G02X283027Y408290I174J-99D01*
G01X311468D01*
G02X311638Y408195I0J-200D01*
G03X314502I1432J886D01*
G02X314672Y408290I170J-105D01*
G01X323980D01*
G02X324152Y408192I0J-200D01*
G03X327048I1448J858D01*
G02X327220Y408290I172J-102D01*
G01X334760D01*
G02X334937Y408182I0J-200D01*
G03X337923I1493J779D01*
G02X338100Y408290I177J-92D01*
G01X352241D01*
G02X352417Y408185I0J-200D01*
G03X355383I1483J794D01*
G02X355559Y408290I176J-95D01*
G01X372176D01*
G02X372347Y408193I0J-200D01*
G03X375233I1443J868D01*
G02X375404Y408290I171J-103D01*
G01X382143D01*
X382240Y408230D01*
X382265Y408177D01*
G03X385295I1515J733D01*
G01X385320Y408230D01*
X385417Y408290D01*
X392693D01*
X392792Y408225D01*
X392816Y408170D01*
G03X395904I1544J670D01*
G01X395928Y408225D01*
X396027Y408290D01*
X402416D01*
G02X402592Y408186I0J-200D01*
G03X405548I1478J803D01*
G02X405724Y408290I176J-96D01*
G01X412921D01*
X413020Y408226D01*
X413044Y408172D01*
G03X414580Y407177I1536J688D01*
G03X415992Y407944I0J1683D01*
G01X416017Y407982D01*
X416094Y408030D01*
X416448Y408067D01*
G02X416610Y408010I21J-199D01*
G37*
G36*
G01X320720Y330760D02*
X321610D01*
G02X321810Y330560I0J-200D01*
G01Y329800D01*
G03X322010Y329600I200J0D01*
G01X322118D01*
G02X322260Y329541I0J-200D01*
G01X323007Y328794D01*
X323031Y328754D01*
X323039Y328731D01*
G03X323315Y328342I762J249D01*
G01X323345Y328319D01*
X323383Y328257D01*
X323447Y327920D01*
X323434Y327849D01*
X323414Y327816D01*
G03X323298Y327400I686J-416D01*
G03X323708Y326700I803J0D01*
G01X323756Y326673D01*
X323810Y326581D01*
Y323500D01*
G02X323610Y323300I-200J0D01*
G01X323551D01*
G03X323500Y323302I-57J-800D01*
G03X323449Y323300I6J-802D01*
G01X320951D01*
G03X320900Y323302I-57J-800D01*
G03X320849Y323300I6J-802D01*
G01X319140D01*
G03X318940Y323100I0J-200D01*
G01Y320280D01*
G02X318740Y320080I-200J0D01*
G01X315379D01*
X315287Y320134D01*
X315260Y320182D01*
G03X315020Y320447I-700J-392D01*
G01X314985Y320472D01*
X314941Y320545D01*
X314898Y320929D01*
X314924Y321011D01*
X314953Y321043D01*
G03X315160Y321581I-594J537D01*
G03X314926Y322148I-801J1D01*
G01X314818Y322256D01*
G03X314251Y322490I-566J-567D01*
G01X312270D01*
G03X311468Y321689I0J-802D01*
G03X311700Y321126I802J1D01*
G01X311732Y321093D01*
X311761Y321008D01*
X311716Y320608D01*
X311668Y320531D01*
X311630Y320507D01*
G03X311343Y320190I430J-677D01*
G01X311318Y320139D01*
X311222Y320080D01*
X301193D01*
G03X301051Y320021I0J-200D01*
G01X277219Y296189D01*
G03X277160Y296047I141J-142D01*
G01Y278423D01*
G02X277101Y278281I-200J0D01*
G01X276339Y277519D01*
G02X276197Y277460I-142J141D01*
G01X261833D01*
G02X261691Y277519I0J200D01*
G01X260269Y278941D01*
G02X260210Y279083I141J142D01*
G01Y305157D01*
G02X260269Y305299I200J0D01*
G01X284511Y329541D01*
G02X284653Y329600I142J-141D01*
G01X291240D01*
G02X291402Y329517I0J-200D01*
G01X291620Y329214D01*
X291635Y329119D01*
X291620Y329074D01*
G03X291578Y328820I760J-256D01*
G03X292380Y328018I802J0D01*
G03X292947Y328253I0J802D01*
G01X292983Y328290D01*
G02X293125Y328348I141J-142D01*
G01X293330D01*
G03X294130Y329109I0J801D01*
G01X294132Y329148D01*
X294164Y329217D01*
X294392Y329433D01*
G02X294530Y329488I138J-145D01*
G01X311921D01*
X312031Y329399D01*
X312046Y329330D01*
G03X312632Y328856I586J125D01*
G03X313230Y329414I0J599D01*
G01X313235Y329493D01*
X313349Y329600D01*
X316404D01*
X316495Y329548D01*
X316522Y329502D01*
G03X318098I788J468D01*
G01X318125Y329548D01*
X318216Y329600D01*
X320320D01*
G03X320520Y329800I0J200D01*
G01Y330560D01*
G02X320720Y330760I200J0D01*
G37*
G36*
G01X349271Y366840D02*
X362767D01*
G02X362909Y366781I0J-200D01*
G01X363491Y366199D01*
G02X363550Y366057I-141J-142D01*
G01Y358963D01*
G02X363491Y358821I-200J0D01*
G01X362926Y358256D01*
X362836Y358226D01*
X362789Y358233D01*
G03X362670Y358242I-120J-793D01*
G03X362034Y357928I0J-801D01*
G02X361875Y357850I-159J122D01*
G01X280533D01*
G02X280391Y357909I0J200D01*
G01X279418Y358882D01*
X279403Y358916D01*
G03X278996Y359323I-733J-326D01*
G01X278962Y359338D01*
X277379Y360921D01*
G02X277320Y361063I141J142D01*
G01Y366017D01*
G02X277379Y366159I200J0D01*
G01X278001Y366781D01*
G02X278143Y366840I142J-141D01*
G01X286651D01*
G02X286787Y366787I0J-200D01*
G01X287015Y366575D01*
X287047Y366508D01*
X287050Y366470D01*
G03X287552Y365786I800J61D01*
G02X287653Y365695I-76J-185D01*
G01X287714Y365583D01*
G02X287734Y365448I-176J-95D01*
G03X287718Y365290I786J-159D01*
G03X288340Y364508I803J0D01*
G01X288372Y364501D01*
X288427Y364468D01*
X288624Y364235D01*
X288647Y364175D01*
X288649Y364142D01*
G03X289453Y363388I801J48D01*
G01X289487D01*
X289549Y363367D01*
X289798Y363174D01*
X289834Y363118D01*
X289842Y363085D01*
G03X290620Y362478I778J195D01*
G03X290617Y364082I0J802D01*
G01X290583D01*
X290521Y364103D01*
X290272Y364296D01*
X290236Y364352D01*
X290228Y364385D01*
G03X289630Y364972I-778J-195D01*
G01X289598Y364979D01*
X289543Y365012D01*
X289346Y365245D01*
X289323Y365305D01*
X289321Y365338D01*
G03X288818Y366034I-800J-49D01*
G02X288717Y366125I76J185D01*
G01X288656Y366237D01*
G02X288636Y366372I176J95D01*
G03X288650Y366470I-785J162D01*
G01X288653Y366508D01*
X288685Y366575D01*
X288913Y366787D01*
G02X289049Y366840I136J-147D01*
G01X298643D01*
G02X298800Y366764I0J-200D01*
G01X299023Y366481D01*
X299043Y366393D01*
X299032Y366348D01*
G03X299010Y366162I780J-187D01*
G03X300614I802J0D01*
G03X300592Y366348I-802J-1D01*
G01X300581Y366393D01*
X300601Y366481D01*
X300824Y366764D01*
G02X300981Y366840I157J-124D01*
G01X304329D01*
X304362Y366828D01*
G03X304640Y366778I279J752D01*
G03X304918Y366828I-1J802D01*
G01X304951Y366840D01*
X319418D01*
G02X319567Y366773I0J-200D01*
G01X319795Y366517D01*
X319820Y366437D01*
X319815Y366394D01*
G03X319810Y366301I797J-89D01*
G03X321414I802J0D01*
G03X321409Y366394I-802J4D01*
G01X321404Y366437D01*
X321429Y366517D01*
X321657Y366773D01*
G02X321806Y366840I149J-133D01*
G01X346869D01*
G02X347013Y366778I-1J-200D01*
G01X347242Y366540D01*
X347270Y366465D01*
X347269Y366423D01*
G03X347268Y366390I801J-41D01*
G03X348872I802J0D01*
G03X348871Y366423I-802J-8D01*
G01X348870Y366465D01*
X348898Y366540D01*
X349127Y366778D01*
G02X349271Y366840I145J-138D01*
G37*
G36*
G01X373099Y334199D02*
X381263D01*
G02X381421Y334122I0J-200D01*
G01X381644Y333838D01*
X381663Y333748D01*
X381652Y333703D01*
G03X381631Y333534I681J-170D01*
G03X382333Y332832I702J0D01*
G03X382976Y333252I0J702D01*
G01X382996Y333298D01*
X383072Y333358D01*
X383446Y333429D01*
G02X383625Y333373I37J-197D01*
G01X386249Y330749D01*
G03X386391Y330690I142J141D01*
G01X398907D01*
G03X399049Y330749I0J200D01*
G01X399505Y331205D01*
G03X399548Y331422I-142J141D01*
G01X399539Y331445D01*
X401550Y333456D01*
G02X401692Y333515I142J-141D01*
G01X408506Y333499D01*
G02X408632Y333454I0J-200D01*
G01X408644Y333444D01*
G03X408770Y333399I126J155D01*
G01X409861D01*
X409967Y333319D01*
X409986Y333255D01*
G03X411334I674J195D01*
G01X411353Y333319D01*
X411459Y333399D01*
X412516D01*
G02X412658Y333340I0J-200D01*
G01X420440Y325558D01*
G02X420499Y325416I-141J-142D01*
G01Y265532D01*
G02X420440Y265390I-200J0D01*
G01X383389Y228339D01*
G02X383247Y228280I-142J141D01*
G01X364414D01*
X364381Y228292D01*
G03X364104Y228342I-279J-752D01*
G01X356604D01*
G03X356327Y228292I2J-802D01*
G01X356294Y228280D01*
X351103D01*
X351087Y228283D01*
G03X350354Y228342I-731J-4493D01*
G03X349621Y228283I-2J-4552D01*
G01X349605Y228280D01*
X341103D01*
X341087Y228283D01*
G03X340354Y228342I-731J-4493D01*
G03X339621Y228283I-2J-4552D01*
G01X339605Y228280D01*
X331103D01*
X331087Y228283D01*
G03X330354Y228342I-731J-4493D01*
G03X329621Y228283I-2J-4552D01*
G01X329605Y228280D01*
X321103D01*
X321087Y228283D01*
G03X320354Y228342I-731J-4493D01*
G03X319621Y228283I-2J-4552D01*
G01X319605Y228280D01*
X311103D01*
X311087Y228283D01*
G03X310354Y228342I-731J-4493D01*
G03X309621Y228283I-2J-4552D01*
G01X309605Y228280D01*
X291843D01*
G03X291701Y228221I0J-200D01*
G01X285639Y222159D01*
G02X285497Y222100I-142J141D01*
G01X281603D01*
G02X281461Y222159I0J200D01*
G01X281209Y222411D01*
G02X281150Y222553I141J142D01*
G01Y229847D01*
G02X281209Y229989I200J0D01*
G01X288291Y237071D01*
G02X288433Y237130I142J-141D01*
G01X315776D01*
G03X315918Y237189I0J200D01*
G01X321490Y242761D01*
G03X321549Y242903I-141J142D01*
G01Y246066D01*
G02X321608Y246208I200J0D01*
G01X322040Y246640D01*
G03X322099Y246782I-141J142D01*
G01Y248316D01*
G02X322158Y248458I200J0D01*
G01X323240Y249540D01*
G03X323299Y249682I-141J142D01*
G01Y252492D01*
G02X323358Y252634I200J0D01*
G03Y253632I-495J499D01*
G02X323299Y253774I141J142D01*
G01Y254287D01*
X323321Y254349D01*
X323342Y254376D01*
G03Y255244I-553J434D01*
G01X323321Y255271D01*
X323299Y255333D01*
Y255916D01*
G02X323358Y256058I200J0D01*
G01X324440Y257140D01*
G03X324499Y257282I-141J142D01*
G01Y272886D01*
G02X324558Y273028I200J0D01*
G01X325940Y274410D01*
G03X325999Y274552I-141J142D01*
G01Y276073D01*
X326002Y276075D01*
Y277542D01*
G03X325943Y277683I-200J-1D01*
G01X325322Y278304D01*
G02X325266Y278477I142J141D01*
G01X325325Y278845D01*
X325382Y278922D01*
X325425Y278944D01*
G03X325811Y279571I-316J627D01*
G03X325109Y280273I-702J0D01*
G03X324482Y279887I0J-702D01*
G01X324460Y279844D01*
X324383Y279787D01*
X324015Y279728D01*
G02X323842Y279784I-32J198D01*
G01X321355Y282272D01*
G02Y282555I141J142D01*
G01X323440Y284640D01*
G02X323581Y284698I141J-142D01*
G01X323600D01*
X328551Y279747D01*
G02X328610Y279605I-141J-142D01*
G01Y271290D01*
G02X328551Y271148I-200J0D01*
G01X326728Y269325D01*
G03X326669Y269183I141J-142D01*
G01Y268978D01*
G02X326610Y268837I-200J1D01*
G01X326598Y268825D01*
Y265558D01*
G03X326657Y265417I200J1D01*
G01X326669Y265405D01*
Y243023D01*
G03X326728Y242881I200J0D01*
G01X328651Y240958D01*
G03X328793Y240899I142J141D01*
G01X346116D01*
G03X346258Y240958I0J200D01*
G01X346941Y241641D01*
G03X347000Y241783I-141J142D01*
G01Y249300D01*
X346999Y249301D01*
Y256616D01*
G02X347058Y256758I200J0D01*
G01X347340Y257040D01*
G03X347399Y257182I-141J142D01*
G01Y258017D01*
G02X347453Y258154I200J0D01*
G01X347535Y258242D01*
G02X347649Y258303I146J-136D01*
G03Y259689I-112J693D01*
G02X347535Y259750I32J197D01*
G01X347453Y259838D01*
G02X347399Y259975I146J137D01*
G01Y271216D01*
G02X347458Y271358I200J0D01*
G01X348040Y271940D01*
G02X348182Y271999I142J-141D01*
G01X350016D01*
G03X350158Y272058I0J200D01*
G01X352140Y274040D01*
G03X352199Y274182I-141J142D01*
G01Y278718D01*
G03X352140Y278860I-200J0D01*
G01X349858Y281142D01*
G02X349799Y281284I141J142D01*
G01Y283016D01*
G02X349858Y283158I200J0D01*
G01X350491Y283791D01*
G02X350633Y283850I142J-141D01*
G01X351865D01*
G02X352007Y283791I0J-200D01*
G01X353740Y282058D01*
G02X353799Y281916I-141J-142D01*
G01Y273032D01*
G02X353740Y272890I-200J0D01*
G01X349759Y268909D01*
G03X349700Y268767I141J-142D01*
G01Y268709D01*
G02X349641Y268568I-200J1D01*
G01X349556Y268482D01*
G03X349498Y268341I142J-141D01*
G01Y254498D01*
G03X349698Y254298I200J0D01*
G01X349700D01*
Y250823D01*
X349692Y250795D01*
G03X349663Y250596I673J-200D01*
G03X350365Y249894I702J0D01*
G03X350514Y249910I0J702D01*
G01X350559Y249920D01*
X350647Y249899D01*
X350925Y249675D01*
G02X350999Y249519I-126J-155D01*
G01Y246182D01*
G03X351058Y246040I200J0D01*
G01X352283Y244815D01*
X352307Y244700D01*
X352287Y244645D01*
G03X352235Y244362I750J-284D01*
G03X353037Y243560I802J0D01*
G03X353320Y243612I-1J802D01*
G01X353375Y243632D01*
X353490Y243608D01*
X356639Y240459D01*
G03X356781Y240400I142J141D01*
G01X376447D01*
G03X376589Y240459I0J200D01*
G01X384682Y248552D01*
X384791Y248578D01*
X384846Y248559D01*
G03X385100Y248518I253J761D01*
G03X385901Y249272I0J802D01*
G02X385956Y249399I200J-11D01*
G01X386045Y249492D01*
G02X386169Y249552I144J-139D01*
G03X386892Y250350I-79J798D01*
G03X386858Y250580I-802J-1D01*
G01X386843Y250633D01*
X386869Y250739D01*
X399409Y263279D01*
G02X399620Y263325I141J-142D01*
G01X400016Y263179D01*
X400086Y263086D01*
X400090Y263027D01*
G03X400890Y262288I800J64D01*
G03X401692Y263090I0J802D01*
G03X400953Y263890I-803J0D01*
G01X400894Y263894D01*
X400801Y263964D01*
X400655Y264360D01*
G02X400701Y264571I188J70D01*
G01X414141Y278011D01*
G03X414200Y278153I-141J142D01*
G01Y298215D01*
G03X414141Y298357I-200J0D01*
G01X410158Y302340D01*
G03X410016Y302399I-142J-141D01*
G01X408582D01*
G02X408440Y302458I0J200D01*
G01X407558Y303340D01*
G03X407416Y303399I-142J-141D01*
G01X403431D01*
G02X403289Y303458I0J200D01*
G01X401607Y305140D01*
G03X401465Y305199I-142J-141D01*
G01X387082D01*
G03X386940Y305140I0J-200D01*
G01X384058Y302258D01*
G02X383916Y302199I-142J141D01*
G01X376679D01*
G02X376479Y302399I0J200D01*
G01Y304299D01*
G02X376679Y304499I200J0D01*
G01X377563D01*
G03X377749Y304626I0J200D01*
G01X378257Y305914D01*
G02X378301Y305982I186J-72D01*
G01X379945Y307626D01*
G02X380087Y307685I142J-141D01*
G01X387351D01*
G02X387486Y307632I-1J-200D01*
G03X388434I474J519D01*
G02X388569Y307685I136J-147D01*
G01X402230D01*
G02X402372Y307626I0J-200D01*
G01X403590Y306408D01*
G03X403732Y306349I142J141D01*
G01X404709D01*
G02X404860Y306280I0J-200D01*
G03X405920I530J459D01*
G02X406071Y306349I151J-131D01*
G01X406709D01*
G02X406860Y306280I0J-200D01*
G03X407920I530J459D01*
G02X408071Y306349I151J-131D01*
G01X409666D01*
G03X409808Y306408I0J200D01*
G01X412841Y309441D01*
G03X412900Y309583I-141J142D01*
G01Y326667D01*
G03X412841Y326809I-200J0D01*
G01X411775Y327875D01*
G03X411633Y327934I-142J-141D01*
G01X402034D01*
X402026Y327926D01*
X398909D01*
G03X398767Y327867I0J-200D01*
G01X398700Y327800D01*
G02X398558Y327741I-142J141D01*
G01X384181D01*
G02X384039Y327800I0J200D01*
G01X380888Y330951D01*
X380858Y331036D01*
X380863Y331082D01*
G03X380867Y331159I-698J75D01*
G03X380165Y331861I-702J0D01*
G03X380088Y331857I-2J-702D01*
G01X380042Y331852D01*
X379957Y331882D01*
X379947Y331892D01*
X379874Y331922D01*
X379208D01*
X379190Y331940D01*
X378462D01*
X378428Y331953D01*
G03X378181Y331998I-247J-657D01*
G03X377934Y331953I0J-702D01*
G01X377900Y331940D01*
X373099D01*
G02X372899Y332140I0J200D01*
G01Y333999D01*
G02X373099Y334199I200J0D01*
G37*
G36*
G01X373969Y331622D02*
G03X374105Y331635I2J702D01*
G01X374124Y331639D01*
X378982D01*
G02X379124Y331580I0J-200D01*
G01X379404Y331300D01*
G02X379463Y331158I-141J-142D01*
G03X380164Y330457I702J1D01*
G02X380306Y330398I0J-200D01*
G01X383294Y327410D01*
G03X383436Y327351I142J141D01*
G01X409764D01*
G02X409906Y327292I0J-200D01*
G01X410540Y326658D01*
G02X410599Y326516I-141J-142D01*
G01Y325626D01*
G02X410535Y325480I-200J1D01*
G01X410319Y325280D01*
G02X410170Y325227I-136J146D01*
G01X410169D01*
G03X410117Y325229I-53J-700D01*
G03Y323825I0J-702D01*
G03X410169Y323827I-1J702D01*
G01X410170D01*
G02X410319Y323774I13J-199D01*
G01X410535Y323574D01*
G02X410599Y323428I-136J-147D01*
G01Y319036D01*
G02X410503Y318865I-200J0D01*
G01X410210Y318687D01*
G02X410014Y318681I-103J171D01*
G03X409689Y318761I-325J-622D01*
G03X409300Y318643I1J-702D01*
G02X409078I-111J167D01*
G03X408689Y318761I-390J-584D01*
G03X407987Y318059I0J-702D01*
G03X408105Y317670I702J1D01*
G02Y317448I-167J-111D01*
G03X407987Y317059I584J-390D01*
G03X408689Y316357I702J0D01*
G03X409078Y316475I-1J702D01*
G02X409300I111J-167D01*
G03X409689Y316357I390J584D01*
G03X410014Y316437I0J702D01*
G02X410210Y316431I93J-177D01*
G01X410503Y316253D01*
G02X410599Y316082I-104J-171D01*
G01Y310482D01*
G02X410540Y310340I-200J0D01*
G01X408763Y308563D01*
G02X408620Y308505I-141J142D01*
G01X399678Y308599D01*
X395126D01*
G02X394987Y308655I0J200D01*
G01X394786Y308848D01*
G02X394725Y308982I139J144D01*
G01Y308984D01*
G03X393323Y308985I-701J-26D01*
G01Y308982D01*
G02X393262Y308848I-200J10D01*
G01X393061Y308655D01*
G02X392922Y308599I-139J144D01*
G01X388587D01*
G02X388448Y308655I0J200D01*
G03X387472I-488J-506D01*
G02X387333Y308599I-139J144D01*
G01X380084D01*
G03X379942Y308540I0J-200D01*
G01X376091Y304689D01*
G03X376032Y304547I141J-142D01*
G01Y301811D01*
G03X376232Y301611I200J0D01*
G01X384588D01*
G03X384730Y301670I0J200D01*
G01X387200Y304140D01*
G02X387342Y304199I142J-141D01*
G01X400060D01*
G02X400260Y303999I0J-200D01*
G01Y295666D01*
G02X400112Y295473I-200J0D01*
G03Y294117I183J-678D01*
G02X400260Y293924I-52J-193D01*
G01Y281673D01*
G02X400201Y281531I-200J0D01*
G01X392129Y273459D01*
G02X391986Y273401I-141J142D01*
G01X391700Y273404D01*
G02X391559Y273465I3J200D01*
G01X391558Y273466D01*
G03X390980Y273712I-578J-556D01*
G03X390344Y273398I0J-801D01*
G01Y273397D01*
G02X390186Y273319I-159J122D01*
G01X389870Y273318D01*
G02X389711Y273394I-2J200D01*
G01Y273395D01*
G03X389080Y273702I-631J-495D01*
G03X388278Y272900I0J-802D01*
G03X388578Y272275I801J0D01*
G01X388579Y272274D01*
G02X388653Y272113I-126J-155D01*
G01X388642Y271746D01*
X388596Y271663D01*
X388558Y271636D01*
G03X388218Y270980I463J-656D01*
G03X388475Y270392I801J0D01*
G01X388506Y270363D01*
X388538Y270291D01*
X388544Y269961D01*
G02X388486Y269816I-200J-4D01*
G01X373329Y254659D01*
G02X373187Y254600I-142J141D01*
G01X349999D01*
G02X349799Y254800I0J200D01*
G01Y265066D01*
G02X349884Y265230I200J0D01*
G01X350152Y265418D01*
G02X350334Y265442I114J-164D01*
G01X350335D01*
G03X350574Y265400I239J659D01*
G03Y266804I0J702D01*
G03X350335Y266762I0J-701D01*
G01X350334D01*
G02X350152Y266786I-68J188D01*
G01X349884Y266974D01*
G02X349799Y267138I115J164D01*
G01Y268216D01*
G02X349858Y268358I200J0D01*
G01X354540Y273040D01*
G03X354599Y273182I-141J142D01*
G01Y282516D01*
G03X354540Y282658I-200J0D01*
G01X352858Y284340D01*
G03X352716Y284399I-142J-141D01*
G01X349882D01*
G03X349740Y284340I0J-200D01*
G01X349414Y284014D01*
G02X349175Y283980I-142J141D01*
G01X349174Y283981D01*
G03X348829Y284072I-346J-611D01*
G03X348127Y283370I0J-702D01*
G03X348740Y282673I703J0D01*
G02X348858Y282614I-25J-198D01*
G01X348943Y282527D01*
G02X348999Y282388I-144J-139D01*
G01Y281484D01*
G03X349058Y281342I200J0D01*
G01X351641Y278759D01*
G02X351700Y278617I-141J-142D01*
G01Y275844D01*
G02X351643Y275704I-200J0D01*
G01X351417Y275475D01*
X351346Y275444D01*
X351306D01*
G03X350516Y274642I12J-802D01*
G03X350535Y274467I802J-1D01*
G01Y274466D01*
G02X350481Y274281I-195J-43D01*
G01X348858Y272658D01*
G02X348716Y272599I-142J141D01*
G01X347382D01*
G03X347240Y272540I0J-200D01*
G01X346558Y271858D01*
G03X346499Y271716I141J-142D01*
G01Y257482D01*
G02X346440Y257340I-200J0D01*
G01X346258Y257158D01*
G03X346199Y257016I141J-142D01*
G01Y256457D01*
G02X346021Y256258I-200J0D01*
G03Y254862I80J-698D01*
G02X346199Y254663I-22J-199D01*
G01Y242520D01*
X346200Y242519D01*
Y242303D01*
G02X346141Y242161I-200J0D01*
G01X345379Y241399D01*
G02X345237Y241340I-142J141D01*
G01X329363D01*
G02X329221Y241399I0J200D01*
G01X327158Y243462D01*
G02X327099Y243604I141J142D01*
G01Y259401D01*
G02X327167Y259552I200J1D01*
G01X327394Y259749D01*
G02X327552Y259797I132J-150D01*
G03X327646Y259791I92J696D01*
G03Y261195I0J702D01*
G03X327552Y261189I-2J-702D01*
G02X327394Y261237I-26J198D01*
G01X327167Y261434D01*
G02X327099Y261585I132J150D01*
G01Y264816D01*
G02X327158Y264958I200J0D01*
G01X327209Y265009D01*
G03Y265291I-142J141D01*
G01X326959Y265541D01*
G02X326900Y265683I141J142D01*
G01Y268617D01*
G02X326959Y268759I200J0D01*
G01X328941Y270741D01*
G03X329000Y270883I-141J142D01*
G01Y279917D01*
G03X328941Y280059I-200J0D01*
G01X324059Y284941D01*
G03X323917Y285000I-142J-141D01*
G01X322983D01*
G03X322841Y284941I0J-200D01*
G01X320659Y282759D01*
G02X320517Y282700I-142J141D01*
G01X320500D01*
X325641Y277559D01*
G02X325700Y277417I-141J-142D01*
G01Y276283D01*
G02X325641Y276141I-200J0D01*
G01X324381Y274881D01*
X324350Y274866D01*
G03X324013Y274529I298J-635D01*
G01X323998Y274498D01*
X323924Y274424D01*
G02X323749Y274368I-142J141D01*
G01X323427Y274424D01*
G02X323281Y274534I34J197D01*
G03X322648Y274933I-633J-303D01*
G03Y273529I0J-702D01*
G01X322650D01*
G03X323000Y273623I-1J702D01*
G02X323200I100J-173D01*
G01X323500Y273451D01*
G02X323600Y273277I-100J-173D01*
G01Y265894D01*
X323558Y265852D01*
G03X323499Y265710I141J-142D01*
G01Y257982D01*
G02X323440Y257840I-200J0D01*
G01X322258Y256658D01*
G03X322199Y256516I141J-142D01*
G01Y255218D01*
X322186Y255169D01*
X322174Y255147D01*
G03Y254473I617J-337D01*
G01X322186Y254451D01*
X322199Y254402D01*
Y253360D01*
X322191Y253332D01*
G03X322162Y253133I673J-200D01*
G03X322191Y252934I702J1D01*
G01X322199Y252906D01*
Y252382D01*
G02X322140Y252240I-200J0D01*
G01X317149Y247249D01*
G02X317007Y247190I-142J141D01*
G01X292613D01*
G02X292471Y247249I0J200D01*
G01X286269Y253451D01*
G02X286210Y253593I141J142D01*
G01Y260497D01*
G02X286269Y260639I200J0D01*
G01X287271Y261641D01*
G02X287413Y261700I142J-141D01*
G01X297987D01*
G02X298129Y261641I0J-200D01*
G01X301021Y258749D01*
G03X301163Y258690I142J141D01*
G01X307127D01*
G03X307269Y258749I0J200D01*
G01X308631Y260111D01*
G03X308690Y260253I-141J142D01*
G01Y267666D01*
G02X308795Y267842I200J0D01*
G01X309153Y268036D01*
X309261Y268032D01*
X309307Y268002D01*
G03X309689Y267889I382J589D01*
G03Y269293I0J702D01*
G03X309307Y269180I0J-702D01*
G01X309261Y269150D01*
X309153Y269146D01*
X308795Y269340D01*
G02X308690Y269516I95J176D01*
G01Y282997D01*
G02X308749Y283139I200J0D01*
G01X329671Y304061D01*
G02X329813Y304120I142J-141D01*
G01X331747D01*
G03X331889Y304179I0J200D01*
G01X332321Y304611D01*
G03X332380Y304753I-141J142D01*
G01Y305012D01*
X332384Y305033D01*
G03X332402Y305199I-784J169D01*
G01Y305201D01*
G03X332384Y305367I-802J-3D01*
G01X332380Y305388D01*
Y309597D01*
G03X332321Y309739I-200J0D01*
G01X331448Y310612D01*
G02X331402Y310822I142J141D01*
G03X331452Y311100I-752J279D01*
G03X331178Y311703I-802J-1D01*
G02X331110Y311854I132J150D01*
G01Y314500D01*
G02X331310Y314700I200J0D01*
G01X336893D01*
G02X337051Y314623I0J-200D01*
G01X337274Y314338D01*
X337293Y314248D01*
X337282Y314204D01*
G03X337258Y314010I778J-195D01*
G03X338862I802J0D01*
G03X338665Y314536I-802J0D01*
G02X338663Y314538I140J142D01*
G02X338616Y314674I153J129D01*
G01X338624Y314948D01*
G02X338683Y315083I200J-7D01*
G01X339706Y316106D01*
G02X339848Y316165I142J-141D01*
G01X340552D01*
G03X340694Y316224I0J200D01*
G01X341840Y317370D01*
X341983Y317382D01*
X342043Y317341D01*
G03X342500Y317198I457J659D01*
G03X342820Y317265I-1J801D01*
G02X342980I80J-184D01*
G03X343300Y317198I321J734D01*
G03X344102Y318000I0J802D01*
G03X343596Y318745I-801J0D01*
G01X343539Y318768D01*
X343470Y318869D01*
Y322288D01*
G03X343412Y322428I-200J-1D01*
G01X343390Y322451D01*
G02X343332Y322591I142J141D01*
G01Y322823D01*
G03X343273Y322965I-200J0D01*
G01X342571Y323667D01*
G02X342512Y323809I141J142D01*
G01Y326801D01*
G02X342571Y326943I200J0D01*
G01X342809Y327181D01*
G02X342951Y327240I142J-141D01*
G01X343077D01*
G03X343219Y327299I0J200D01*
G01X344019Y328099D01*
X344092Y328128D01*
X344140D01*
G03Y329732I0J802D01*
G01X344139D01*
G03X344034Y329725I1J-802D01*
G02X343866Y329782I-26J198D01*
G01X343299Y330349D01*
G02X343240Y330491I141J142D01*
G01Y331417D01*
G02X343299Y331559I200J0D01*
G01X343651Y331911D01*
G02X343793Y331970I142J-141D01*
G01X343837D01*
G03X343979Y332029I0J200D01*
G01X344061Y332111D01*
G02X344203Y332170I142J-141D01*
G01X345347D01*
G03X345489Y332229I0J200D01*
G01X360901Y347641D01*
G02X361043Y347700I142J-141D01*
G01X399650D01*
G02X399850Y347500I0J-200D01*
G01Y333433D01*
G02X399791Y333291I-200J0D01*
G01X397906Y331406D01*
G02X397764Y331347I-142J141D01*
G01X386374D01*
G02X386232Y331406I0J200D01*
G01X382598Y335040D01*
G03X382456Y335099I-142J-141D01*
G01X372882D01*
G03X372740Y335040I0J-200D01*
G01X371958Y334258D01*
G03X371899Y334116I141J-142D01*
G01Y331839D01*
G03X372099Y331639I200J0D01*
G01X373814D01*
X373833Y331635D01*
G03X373969Y331622I134J689D01*
G37*
G36*
G01X293730Y342158D02*
X307989D01*
G02X308130Y342100I0J-200D01*
G01X310710Y339520D01*
G03X311100Y339358I391J390D01*
G01X316363D01*
X316399Y339344D01*
G03X316604Y339304I206J512D01*
G01X317278D01*
X317315Y339289D01*
G03X317471Y339258I155J370D01*
G01X317865D01*
G03X318205Y339445I1J401D01*
G01X318233Y339489D01*
X318322Y339538D01*
X319971D01*
G02X320117Y339475I0J-200D01*
G01X320345Y339232D01*
X320372Y339154D01*
X320370Y339112D01*
G03X320368Y339060I800J-57D01*
G03X321170Y338258I802J0D01*
G03X321378Y338285I2J802D01*
G01X321404Y338292D01*
X321430D01*
G02X321630Y338092I0J-200D01*
G01Y337875D01*
G02X321430Y337675I-200J0D01*
G01X321407D01*
X321384Y337681D01*
G03X321200Y337702I-182J-781D01*
G03Y336098I0J-802D01*
G01X321220D01*
X321261Y336099D01*
X321335Y336070D01*
X321570Y335842D01*
G02X321630Y335698I-140J-143D01*
G01Y331362D01*
G02X321430Y331162I-200J0D01*
G01X320118D01*
Y331160D01*
X320048D01*
G03X319906Y331101I0J-200D01*
G01X319649Y330844D01*
G03X319590Y330702I141J-142D01*
G01Y330290D01*
G02X319390Y330090I-200J0D01*
G01X318286D01*
G03X318144Y330031I0J-200D01*
G01X318114Y330002D01*
X318017D01*
G03X317834Y329882I0J-200D01*
G01X317781Y329762D01*
G02X317657Y329590I-471J209D01*
G02X317522Y329538I-135J148D01*
G01X317243D01*
G02X317101Y329597I0J200D01*
G01X316789Y329909D01*
G02X316748Y329969I142J141D01*
G01X316734Y330002D01*
X316696D01*
X316667Y330031D01*
G03X316525Y330090I-142J-141D01*
G01X314496D01*
G02X314296Y330290I0J200D01*
G01Y332406D01*
X314298Y332416D01*
G03X314302Y332500I-798J80D01*
G03X312698I-802J0D01*
G03X312798Y332111I802J-1D01*
G01X312811Y332089D01*
X312824Y332040D01*
Y331392D01*
G02X312624Y331192I-200J0D01*
G01X294151D01*
G02X294010Y331250I0J200D01*
G01X293953Y331307D01*
X293923Y331374D01*
X293920Y331410D01*
G03X293608Y331996I-800J-50D01*
G02X293530Y332155I122J159D01*
G01Y341958D01*
G02X293730Y342158I200J0D01*
G37*
G36*
G01X339390Y331450D02*
X342091D01*
G02X342251Y331369I-1J-200D01*
G01X342471Y331072D01*
X342487Y330979D01*
X342473Y330934D01*
G03X342438Y330700I767J-234D01*
G03X343117Y329908I801J0D01*
G01X343149Y329903D01*
X343205Y329875D01*
X343411Y329669D01*
G02X343470Y329527I-141J-142D01*
G01Y329401D01*
X343457Y329351D01*
X343444Y329328D01*
G03X343338Y328930I696J-398D01*
G03X343427Y328563I801J0D01*
G01X343457Y328505D01*
X343437Y328377D01*
X342654Y327594D01*
X342614Y327579D01*
G03X342151Y327116I286J-749D01*
G01X342136Y327076D01*
X342110Y327050D01*
Y326966D01*
X342108Y326951D01*
G03X342098Y326830I792J-126D01*
G03X342108Y326709I802J5D01*
G01X342110Y326694D01*
Y323643D01*
G03X342169Y323501I200J0D01*
G01X342871Y322799D01*
G02X342930Y322657I-141J-142D01*
G01Y319653D01*
G02X342871Y319511I-200J0D01*
G01X340249Y316889D01*
G02X340107Y316830I-142J141D01*
G01X339833D01*
G03X339691Y316771I0J-200D01*
G01X338279Y315359D01*
G02X338137Y315300I-142J141D01*
G01X335656D01*
X335631Y315306D01*
G03X335430Y315332I-203J-776D01*
G03X335229Y315306I2J-802D01*
G01X335204Y315300D01*
X331996D01*
X331965Y315310D01*
G03X331710Y315352I-256J-760D01*
G03X331455Y315310I1J-802D01*
G01X331424Y315300D01*
X331093D01*
G03X330951Y315241I0J-200D01*
G01X330759Y315049D01*
G03X330700Y314907I141J-142D01*
G01Y312016D01*
X330604Y311904D01*
X330530Y311893D01*
G03X329848Y311100I120J-793D01*
G03X329858Y310974I802J0D01*
G01X329866Y310926D01*
X329836Y310836D01*
X329359Y310359D01*
G02X329217Y310300I-142J141D01*
G01X328763D01*
G02X328633Y310348I0J200D01*
G03X327587I-523J-608D01*
G02X327457Y310300I-130J152D01*
G01X326637D01*
X326531Y310381D01*
X326512Y310446D01*
G03X324968I-772J-216D01*
G01X324949Y310381D01*
X324843Y310300D01*
X324297D01*
X324253Y310310D01*
X324233Y310320D01*
G03X323527I-353J-719D01*
G01X323507Y310310D01*
X323463Y310300D01*
X322714D01*
X322622Y310353D01*
X322595Y310400D01*
G03X321205I-695J-400D01*
G01X321178Y310353D01*
X321086Y310300D01*
X320387D01*
X320327Y310319D01*
X320301Y310338D01*
G03X319359I-471J-648D01*
G01X319333Y310319D01*
X319273Y310300D01*
X318943D01*
G03X318801Y310241I0J-200D01*
G01X306069Y297509D01*
G03X306010Y297367I141J-142D01*
G01Y282233D01*
G02X305951Y282091I-200J0D01*
G01X305359Y281499D01*
G02X305217Y281440I-142J141D01*
G01X296792D01*
X296787Y281442D01*
X296720Y281542D01*
Y303957D01*
G02X296779Y304099I200J0D01*
G01X306521Y313841D01*
G02X306663Y313900I142J-141D01*
G01X309067D01*
G02X309230Y313816I0J-200D01*
G01X309447Y313509D01*
X309460Y313414D01*
X309444Y313367D01*
G03X309398Y313100I756J-268D01*
G03X310200Y312298I802J0D01*
G03X310452Y312339I-1J802D01*
G01X310498Y312354D01*
X310593Y312339D01*
X310934Y312093D01*
X310978Y312008D01*
Y311960D01*
G03X311780Y311159I802J1D01*
G03X312582Y311961I0J802D01*
G03X312578Y312040I-802J-1D01*
G01X312574Y312083D01*
X312600Y312163D01*
X312828Y312414D01*
G02X312976Y312480I148J-134D01*
G01X313447D01*
G03X313589Y312539I0J200D01*
G01X313871Y312821D01*
X313930Y312850D01*
X313964Y312854D01*
G03X314670Y313595I-94J796D01*
G02X314770Y313755I200J-14D01*
G03X315159Y314309I-400J695D01*
G01X315165Y314339D01*
X315193Y314393D01*
X315356Y314556D01*
X315498Y314570D01*
X315557Y314531D01*
G03X316000Y314398I442J669D01*
G03X316802Y315200I0J802D01*
G01Y315215D01*
X316801Y315256D01*
X316831Y315331D01*
X317241Y315741D01*
G02X317383Y315800I142J-141D01*
G01X317426D01*
G02X317626Y315600I0J-200D01*
G01Y315542D01*
X317594Y315492D01*
G03X317468Y315060I676J-432D01*
G03X319072I802J0D01*
G03X319070Y315113I-802J-4D01*
G01X319068Y315152D01*
X319090Y315223D01*
X319310Y315494D01*
X319375Y315531D01*
X319413Y315536D01*
G03X319849Y315746I-114J794D01*
G01X319877Y315772D01*
X319948Y315800D01*
X320000D01*
X320641Y316441D01*
G03X320700Y316583I-141J142D01*
G01Y317899D01*
X320790Y318009D01*
X320860Y318023D01*
G03X321185Y318170I-160J786D01*
G02X321310Y318211I121J-159D01*
G01X321436Y318209D01*
G02X321559Y318163I-5J-200D01*
G03X322070Y317979I511J618D01*
G03X322658Y318236I0J801D01*
G02X322805Y318300I147J-136D01*
G01X322907D01*
G02X323075Y318208I0J-200D01*
G01X323285Y317882D01*
X323292Y317780D01*
X323271Y317734D01*
G03X323198Y317400I729J-334D01*
G03X324000Y316598I802J0D01*
G03X324542Y316809I0J802D01*
G01X324575Y316839D01*
X324656Y316865D01*
X325043Y316822D01*
X325116Y316779D01*
X325141Y316743D01*
G03X325800Y316398I659J457D01*
G03X326395Y316662I0J803D01*
G02X326911Y316729I297J-268D01*
G03X327350Y316598I439J670D01*
G03X328152Y317400I0J802D01*
G03X328082Y317727I-802J-1D01*
G01X328061Y317774D01*
X328069Y317874D01*
X328280Y318199D01*
G02X328448Y318290I168J-109D01*
G01X328899D01*
X328928Y318281D01*
G03X329160Y318247I231J768D01*
G03X329392Y318281I1J802D01*
G01X329421Y318290D01*
X332004D01*
G02X332152Y318224I0J-200D01*
G01X332380Y317973D01*
X332406Y317893D01*
X332402Y317850D01*
G03X333200Y316968I798J-80D01*
G03X333867Y317325I0J802D01*
G01X333892Y317362D01*
X333964Y317407D01*
X334352Y317456D01*
X334433Y317431D01*
X334466Y317401D01*
G03X335000Y317198I533J599D01*
G03X335799Y317927I0J802D01*
G01X335802Y317964D01*
X335835Y318031D01*
X336062Y318238D01*
G02X336197Y318290I135J-148D01*
G01X336657D01*
G03X336799Y318349I0J200D01*
G01X339131Y320681D01*
G03X339190Y320823I-141J142D01*
G01Y321764D01*
X339201Y321810D01*
X339212Y321832D01*
G03X339302Y322200I-712J369D01*
G03X339212Y322568I-802J-1D01*
G01X339201Y322590D01*
X339190Y322636D01*
Y328464D01*
X339201Y328510D01*
X339212Y328532D01*
G03X339302Y328900I-712J369D01*
G03X339212Y329268I-802J-1D01*
G01X339201Y329290D01*
X339190Y329336D01*
Y331250D01*
G02X339390Y331450I200J0D01*
G37*
G36*
G01X313225Y330385D02*
X313895D01*
Y332175D01*
X313225D01*
Y330385D01*
G37*
G36*
G01X311760Y329600D02*
Y328930D01*
X313550D01*
Y329600D01*
X311760D01*
G37*
G36*
G01X309943Y354300D02*
X348877D01*
G02X349019Y354241I0J-200D01*
G01X351331Y351929D01*
G02X351390Y351787I-141J-142D01*
G01Y341813D01*
G02X351331Y341671I-200J0D01*
G01X348900Y339240D01*
X348850D01*
X346299Y336689D01*
G02X346157Y336630I-142J141D01*
G01X342278D01*
X342165Y336731D01*
X342157Y336808D01*
G03X341360Y337522I-797J-88D01*
G03X341011Y337441I2J-802D01*
G01X340990Y337432D01*
X340947Y337422D01*
X334840D01*
G02X334640Y337622I0J200D01*
G01Y338517D01*
G02X334699Y338659I200J0D01*
G01X335481Y339441D01*
G02X335623Y339500I142J-141D01*
G01X338537D01*
G03X338679Y339559I0J200D01*
G01X339551Y340431D01*
G03X339610Y340573I-141J142D01*
G01Y343710D01*
X339599D01*
Y345170D01*
G03X339399Y345370I-200J0D01*
G01X320294D01*
G02X320147Y345435I1J200D01*
G01X319918Y345684D01*
X319892Y345762D01*
X319896Y345805D01*
G03X319899Y345876I-799J69D01*
G03X319561Y346530I-802J0D01*
G01X319522Y346558D01*
X319479Y346640D01*
X319467Y347055D01*
X319506Y347139D01*
X319544Y347169D01*
G03X319846Y347796I-500J627D01*
G03X319044Y348598I-802J0D01*
G03X318377Y348241I0J-802D01*
G01X318348Y348199D01*
X318261Y348152D01*
X317827D01*
X317740Y348199D01*
X317711Y348241D01*
G03X317044Y348598I-667J-445D01*
G03X316242Y347796I0J-802D01*
G03X316580Y347142I802J0D01*
G01X316619Y347114D01*
X316662Y347032D01*
X316674Y346617D01*
X316635Y346533D01*
X316597Y346503D01*
G03X316295Y345876I500J-627D01*
G03X317097Y345074I802J0D01*
G03X317764Y345431I0J802D01*
G01X317793Y345473D01*
X317880Y345520D01*
X318314D01*
X318401Y345473D01*
X318430Y345431D01*
G03X318574Y345268I667J445D01*
G02X318643Y345117I-131J-151D01*
G01Y345028D01*
G03X318702Y344886I200J0D01*
G01X318714Y344874D01*
X318715Y344710D01*
X318657Y344651D01*
G03X318428Y344090I573J-561D01*
G03X319230Y343288I802J0D01*
G03X319543Y343352I-1J802D01*
G01X319589Y343371D01*
X319689Y343362D01*
X320009Y343150D01*
G02X320099Y342983I-110J-167D01*
G01Y340842D01*
G02X319899Y340642I-200J0D01*
G01X318911D01*
G02X318770Y340700I0J200D01*
G01X318590Y340880D01*
G03X318495Y340956I-390J-390D01*
G02X318487Y340961I102J172D01*
G03X318170Y341062I-318J-451D01*
G01X311691D01*
G02X311550Y341120I0J200D01*
G01X308639Y344031D01*
G02X308580Y344173I141J142D01*
G01Y352937D01*
G02X308639Y353079I200J0D01*
G01X309801Y354241D01*
G02X309943Y354300I142J-141D01*
G37*
G36*
G01X316640Y339940D02*
Y338860D01*
X317970D01*
Y339940D01*
X316640D01*
G37*
G36*
G01X339500Y329700D02*
X339700D01*
X340300Y330300D01*
X342200D01*
X342300Y330400D01*
Y331300D01*
X341900Y331700D01*
X340700D01*
X339200D01*
X338600Y331100D01*
Y330600D01*
X339500Y329700D01*
G37*
G36*
G01X339800Y334600D02*
Y332400D01*
X339700Y332300D01*
X338100D01*
X337800Y332600D01*
Y334500D01*
X337900Y334600D01*
X339800D01*
G37*
G36*
G01X401999Y303759D02*
X402328Y303765D01*
G02X402473Y303706I3J-200D01*
G01X403123Y303056D01*
G03X403265Y302998I141J142D01*
G01X407250D01*
G02X407391Y302939I-1J-200D01*
G01X408274Y302056D01*
G03X408416Y301998I141J142D01*
G01X409850D01*
G02X409991Y301939I-1J-200D01*
G01X413740Y298190D01*
G02X413798Y298049I-142J-141D01*
G01Y278319D01*
G02X413740Y278178I-200J0D01*
G01X392490Y256927D01*
G02X392287Y256879I-141J142D01*
G01X391894Y257006D01*
X391821Y257091D01*
X391812Y257147D01*
G03X391020Y257822I-792J-127D01*
G03X390218Y257020I0J-802D01*
G03X390893Y256228I802J0D01*
G01X390949Y256219D01*
X391034Y256146D01*
X391161Y255753D01*
G02X391113Y255550I-190J-62D01*
G01X385609Y250047D01*
X385488Y250025D01*
X385430Y250051D01*
G03X385247Y250108I-328J-732D01*
G02Y250502I37J197D01*
G03X385902Y251290I-147J788D01*
G03X384298I-802J0D01*
G03X384640Y250633I802J0D01*
G01X384681Y250605D01*
X384726Y250518D01*
Y250092D01*
X384681Y250005D01*
X384640Y249977D01*
G03X384298Y249320I460J-657D01*
G03X384369Y248990I802J0D01*
G01X384395Y248932D01*
X384373Y248811D01*
X376422Y240860D01*
G02X376281Y240802I-141J142D01*
G01X356947D01*
G02X356806Y240860I0J200D01*
G01X351459Y246207D01*
G02X351400Y246348I141J142D01*
G01Y250282D01*
G03X351342Y250424I-200J1D01*
G01X351081Y250685D01*
X351054Y250732D01*
X351048Y250760D01*
G03X350529Y251279I-683J-164D01*
G01X350501Y251285D01*
X350454Y251312D01*
X350160Y251606D01*
G02X350102Y251747I142J141D01*
G01Y253998D01*
G02X350302Y254198I199J1D01*
G01X373353D01*
G03X373495Y254257I0J200D01*
G01X387783Y268545D01*
G02X387939Y268603I141J-141D01*
G01X388285Y268578D01*
X388360Y268537D01*
X388387Y268501D01*
G03X389030Y268178I643J479D01*
G03X389832Y268980I0J802D01*
G03X389509Y269623I-802J0D01*
G01X389473Y269650D01*
X389432Y269725D01*
X389407Y270071D01*
G02X389465Y270227I199J15D01*
G01X400603Y281365D01*
G03X400662Y281507I-141J142D01*
G01Y294093D01*
G02X400736Y294249I200J1D01*
G03Y295341I-441J546D01*
G02X400662Y295497I126J155D01*
G01Y303121D01*
G02X400743Y303282I200J0D01*
G01X401040Y303502D01*
X401133Y303518D01*
X401179Y303504D01*
G03X401384Y303473I206J671D01*
G03X401897Y303696I0J702D01*
G01X401925Y303726D01*
X401999Y303759D01*
G37*
%LPC*%
G75*
G36*
G01X163132Y250989D02*
G02X163041Y251359I711J371D01*
G02X163130Y251725I802J-1D01*
G03X163121Y251923I-178J91D01*
G02X162998Y252350I680J427D01*
G02X164602I802J0D01*
G02X164513Y251984I-802J1D01*
G03X164522Y251786I178J-91D01*
G02X164645Y251359I-680J-427D01*
G02X164544Y250970I-802J1D01*
G03X164541Y250780I175J-98D01*
G02X164632Y250410I-711J-371D01*
G02X163028I-802J0D01*
G02X163129Y250799I802J-1D01*
G03X163132Y250989I-175J98D01*
G37*
G36*
G01X206542Y293445D02*
X206875Y293443D01*
X206942Y293467D01*
X206970Y293491D01*
G02X207490Y293682I520J-612D01*
G02X208006Y293494I0J-802D01*
G01X208034Y293471D01*
X208101Y293447D01*
X208435Y293451D01*
X208501Y293476D01*
X208528Y293501D01*
G02X209060Y293702I531J-601D01*
G02Y292098I0J-802D01*
G02X208544Y292286I0J802D01*
G01X208516Y292309D01*
X208449Y292333D01*
X208115Y292329D01*
X208049Y292304D01*
X208022Y292279D01*
G02X207490Y292078I-531J601D01*
G02X206962Y292276I0J803D01*
G01X206935Y292300D01*
X206868Y292325D01*
X206535Y292327D01*
X206468Y292303D01*
X206440Y292279D01*
G02X205920Y292088I-520J612D01*
G02Y293692I0J802D01*
G02X206448Y293494I0J-803D01*
G01X206475Y293470D01*
X206542Y293445D01*
G37*
G36*
G01X199117Y292237D02*
G02X198808Y292870I494J633D01*
G02X200412I802J0D01*
G02X200043Y292195I-802J0D01*
G03X200013Y291543I216J-337D01*
G02X200322Y290910I-494J-633D01*
G02X198718I-802J0D01*
G02X199087Y291585I802J0D01*
G03X199117Y292237I-216J337D01*
G37*
G36*
G01X426787Y258631D02*
X426785Y258747D01*
G03X426749Y258855I-200J-7D01*
G02X426608Y259310I661J454D01*
G02X427410Y260112I802J0D01*
G02X427866Y259970I0J-803D01*
G03X428073Y259958I113J165D01*
G02X428450Y260052I377J-709D01*
G02X429252Y259250I0J-802D01*
G02X429112Y258797I-803J0D01*
G03X429077Y258690I165J-113D01*
G01X429073Y258576D01*
G03X429101Y258468I200J-6D01*
G02X429212Y258060I-691J-407D01*
G02X428410Y257258I-802J0D01*
G02X427993Y257375I0J802D01*
G03X427799Y257383I-104J-171D01*
G02X427440Y257298I-359J716D01*
G02X426638Y258100I0J802D01*
G02X426758Y258521I802J-1D01*
G03X426787Y258631I-171J104D01*
G37*
G36*
G01X193734Y355938D02*
G02X194070Y356012I336J-728D01*
G02Y354408I0J-802D01*
G02X193717Y354490I0J801D01*
G03X193546Y354492I-88J-180D01*
G02X193210Y354418I-336J728D01*
G02Y356022I0J802D01*
G02X193563Y355940I0J-801D01*
G03X193734Y355938I88J180D01*
G37*
G36*
G01X256910Y243465D02*
G02X256510Y243358I-400J694D01*
G02X255708Y244160I0J802D01*
G02X255836Y244595I803J0D01*
G03X255830Y244820I-168J108D01*
G02X255678Y245290I651J470D01*
G02X256480Y246092I802J0D01*
G02X256880Y245985I0J-801D01*
G03X257080I100J173D01*
G02X257480Y246092I400J-694D01*
G02X258282Y245290I0J-802D01*
G02X258154Y244855I-803J0D01*
G03X258160Y244630I168J-108D01*
G02X258312Y244160I-651J-470D01*
G02X257510Y243358I-802J0D01*
G02X257110Y243465I0J801D01*
G03X256910I-100J-173D01*
G37*
G36*
G01X247764Y258443D02*
X247687Y258537D01*
G03X247582Y258603I-154J-128D01*
G02X246978Y259380I198J777D01*
G02X247780Y260182I802J0D01*
G02X248580Y259431I0J-802D01*
G03X248626Y259317I200J14D01*
G01X248703Y259223D01*
G03X248808Y259157I154J128D01*
G02X249412Y258380I-198J-777D01*
G02X248610Y257578I-802J0D01*
G02X247810Y258329I0J802D01*
G03X247764Y258443I-200J-14D01*
G37*
G36*
G01X255330Y263370D02*
G02X255178Y263840I651J470D01*
G02X255980Y264642I802J0D01*
G02X256380Y264535I0J-801D01*
G03X256580I100J173D01*
G02X257380I400J-694D01*
G03X257580I100J173D01*
G02X257980Y264642I400J-694D01*
G02X258782Y263840I0J-802D01*
G02X258654Y263405I-803J0D01*
G03X258660Y263180I168J-108D01*
G02X258812Y262710I-651J-470D01*
G02X258010Y261908I-802J0D01*
G02X257610Y262015I0J801D01*
G03X257410I-100J-173D01*
G02X256610I-400J694D01*
G03X256410I-100J-173D01*
G02X256010Y261908I-400J694D01*
G02X255208Y262710I0J802D01*
G02X255336Y263145I803J0D01*
G03X255330Y263370I-168J108D01*
G37*
G36*
G01X243956Y265537D02*
G03X243953Y266056I-306J258D01*
G02X243758Y266580I607J524D01*
G02X245362I802J0D01*
G02X245174Y266063I-802J-1D01*
G03X245177Y265544I306J-258D01*
G02X245372Y265020I-607J-524D01*
G02X243768I-802J0D01*
G02X243956Y265537I802J1D01*
G37*
G36*
G01X244704Y286688D02*
G02X244578Y287120I676J432D01*
G02X245380Y287922I802J0D01*
G02X245836Y287780I0J-803D01*
G03X246048Y287770I114J164D01*
G02X246440Y287872I391J-700D01*
G02X246788Y287793I1J-802D01*
G03X246979Y287803I86J180D01*
G02X247400Y287922I420J-683D01*
G02X248202Y287120I0J-802D01*
G02X248104Y286737I-802J1D01*
G03X248114Y286529I176J-96D01*
G02X248252Y286080I-664J-450D01*
G02X247450Y285278I-802J0D01*
G02X247027Y285398I-1J802D01*
G03X246820Y285400I-105J-170D01*
G02X246410Y285288I-409J690D01*
G02X246010Y285395I0J801D01*
G03X245810I-100J-173D01*
G02X245410Y285288I-400J694D01*
G02X244608Y286090I0J802D01*
G02X244710Y286482I802J1D01*
G03X244704Y286688I-174J98D01*
G37*
G36*
G01X256100Y334165D02*
G02X256500Y334272I400J-694D01*
G02Y332668I0J-802D01*
G02X256100Y332775I0J801D01*
G03X255900I-100J-173D01*
G02X255500Y332668I-400J694D01*
G02Y334272I0J802D01*
G02X255900Y334165I0J-801D01*
G03X256100I100J173D01*
G37*
G36*
G01X235388Y315217D02*
G02X236992Y315220I802J3D01*
G02X236470Y314468I-803J0D01*
G03X236375Y314395I69J-188D01*
G01X236308Y314297D01*
G03X236272Y314183I164J-114D01*
G01Y314159D01*
X236390Y314011D01*
G03X236493Y313943I156J125D01*
G02X237082Y313170I-213J-773D01*
G02X236979Y312777I-801J0D01*
G03X236955Y312653I174J-98D01*
G01X236971Y312532D01*
G03X237026Y312418I198J25D01*
G02X237242Y311984I-576J-558D01*
G01X237249Y311944D01*
X237290Y311876D01*
X237588Y311663D01*
X237665Y311645D01*
X237705Y311652D01*
G02X237840Y311663I132J-791D01*
G02Y310059I0J-802D01*
G02X237768Y310062I-3J802D01*
G01X237731Y310066D01*
X237659Y310045D01*
X237385Y309836D01*
X237346Y309773D01*
X237339Y309736D01*
G02X237150Y309347I-789J143D01*
G03X237100Y309231I149J-133D01*
G01X237090Y309109D01*
G03X237120Y308986I199J-17D01*
G02X237242Y308560I-680J-425D01*
G02X236955Y307945I-802J0D01*
G01X236921Y307917D01*
X236885Y307842D01*
X236872Y307457D01*
X236903Y307379D01*
X236935Y307349D01*
G02X237182Y306770I-555J-579D01*
G02X236516Y305980I-802J0D01*
G03X236405Y305919I36J-197D01*
G01X236320Y305830D01*
G03X236267Y305714I146J-137D01*
G02X236162Y305394I-798J84D01*
G01X236139Y305355D01*
X236131Y305265D01*
X236273Y304888D01*
X236338Y304826D01*
X236381Y304812D01*
G02X236932Y304050I-251J-762D01*
G02X235328I-802J0D01*
G02X235438Y304456I802J1D01*
G01X235461Y304495D01*
X235469Y304585D01*
X235327Y304962D01*
X235262Y305024D01*
X235219Y305038D01*
G02X234668Y305800I251J762D01*
G02X235334Y306590I802J0D01*
G03X235445Y306651I-36J197D01*
G01X235530Y306740D01*
G03X235583Y306856I-146J137D01*
G02X235865Y307385I797J-85D01*
G01X235899Y307413D01*
X235935Y307488D01*
X235948Y307873D01*
X235917Y307951D01*
X235885Y307981D01*
G02X235638Y308560I555J579D01*
G02X235840Y309093I802J1D01*
G03X235890Y309209I-149J133D01*
G01X235900Y309331D01*
G03X235870Y309454I-199J17D01*
G02X235748Y309880I680J425D01*
G02X236064Y310518I802J0D01*
G01X236104Y310548D01*
X236145Y310637D01*
X236123Y311067D01*
X236073Y311150D01*
X236030Y311177D01*
G02X235648Y311860I420J683D01*
G02X235751Y312253I801J0D01*
G03X235775Y312377I-174J98D01*
G01X235759Y312498D01*
G03X235704Y312612I-198J-25D01*
G02X235479Y313130I576J558D01*
G03X235435Y313245I-200J-10D01*
G01X235360Y313339D01*
G03X235257Y313407I-156J-125D01*
G02X234668Y314180I213J773D01*
G02X235190Y314932I803J0D01*
G03X235285Y315005I-69J188D01*
G01X235352Y315103D01*
G03X235388Y315217I-164J114D01*
G37*
G36*
G01X258208Y196459D02*
Y196465D01*
G02X259010Y195663I802J0D01*
G02X258791Y195693I-2J802D01*
G03X258282Y195306I-109J-385D01*
G01Y195300D01*
G02X257480Y196102I-802J0D01*
G02X257699Y196072I2J-802D01*
G03X258208Y196459I109J385D01*
G37*
G36*
G01X280640Y214735D02*
G02X281040Y214842I400J-694D01*
G02Y213238I0J-802D01*
G02X280640Y213345I0J801D01*
G03X280440I-100J-173D01*
G02X280040Y213238I-400J694D01*
G02Y214842I0J802D01*
G02X280440Y214735I0J-801D01*
G03X280640I100J173D01*
G37*
G36*
G01X239559Y220545D02*
G02X239158Y221240I402J695D01*
G02X239228Y221568I802J0D01*
G03X239220Y221748I-182J82D01*
G02X239118Y222140I700J391D01*
G02X240722I802J0D01*
G02X240652Y221812I-802J0D01*
G03X240660Y221632I182J-82D01*
G02X240761Y221278I-700J-391D01*
G03X240861Y221115I200J10D01*
G02X241262Y220420I-402J-695D01*
G02X240460Y219618I-802J0D01*
G02X239659Y220382I0J802D01*
G03X239559Y220545I-200J-10D01*
G37*
G36*
G01X232740Y229995D02*
G02X233140Y230102I400J-694D01*
G02Y228498I0J-802D01*
G02X232740Y228605I0J801D01*
G03X232540I-100J-173D01*
G02X232140Y228498I-400J694D01*
G02Y230102I0J802D01*
G02X232540Y229995I0J-801D01*
G03X232740I100J173D01*
G37*
G36*
G01X438153Y360795D02*
X438150Y360918D01*
G03X438108Y361036I-200J-5D01*
G02X437938Y361530I633J494D01*
G02X438740Y362332I802J0D01*
G02X439105Y362244I0J-801D01*
G03X439290Y362246I91J178D01*
G02X439670Y362342I380J-706D01*
G02X440472Y361540I0J-802D01*
G02X440365Y361140I-801J0D01*
G03X440339Y361024I173J-100D01*
G01X440348Y360906D01*
G03X440392Y360796I200J16D01*
G02X440572Y360290I-621J-506D01*
G02X439770Y359488I-802J0D01*
G02X439425Y359566I0J802D01*
G03X439226Y359550I-86J-181D01*
G02X438770Y359408I-456J661D01*
G02X437968Y360210I0J802D01*
G02X438116Y360675I802J1D01*
G03X438153Y360795I-163J116D01*
G37*
G36*
G01X419514Y385635D02*
G02X419358Y386110I645J475D01*
G02X419501Y386567I802J0D01*
G03X419509Y386783I-164J114D01*
G02X419398Y387190I691J407D01*
G02X421002I802J0D01*
G02X420859Y386733I-802J0D01*
G03X420851Y386517I164J-114D01*
G02X420962Y386110I-691J-407D01*
G02X420870Y385737I-802J0D01*
G03X420886Y385525I177J-93D01*
G02X421042Y385050I-645J-475D01*
G02X419438I-802J0D01*
G02X419530Y385423I802J0D01*
G03X419514Y385635I-177J93D01*
G37*
G36*
G01X321244Y326247D02*
X321117Y326228D01*
G03X320997Y326164I28J-198D01*
G02X320400Y325898I-597J537D01*
G02Y327502I0J802D01*
G02X320823Y327382I1J-802D01*
G03X320956Y327353I107J169D01*
G01X321083Y327372D01*
G03X321203Y327436I-28J198D01*
G02X321800Y327702I597J-537D01*
G02Y326098I0J-802D01*
G02X321377Y326218I-1J802D01*
G03X321244Y326247I-107J-169D01*
G37*
G36*
G01X309052Y322883D02*
G02X308400Y322548I-652J467D01*
G02Y324152I0J802D01*
G02X309083Y323771I0J-803D01*
G03X309748Y323747I340J210D01*
G02X310400Y324082I652J-467D01*
G02Y322478I0J-802D01*
G02X309717Y322859I0J803D01*
G03X309052Y322883I-340J-210D01*
G37*
G36*
G01X383374Y240561D02*
G02X382710Y240208I-664J448D01*
G02Y241812I0J802D01*
G02X383340Y241506I0J-802D01*
G03X383986Y241529I315J247D01*
G02X384650Y241882I664J-448D01*
G02Y240278I0J-802D01*
G02X384020Y240584I0J802D01*
G03X383374Y240561I-315J-247D01*
G37*
G36*
G01X391647Y248830D02*
G02X390990Y248488I-657J460D01*
G02Y250092I0J802D01*
G02X391661Y249730I0J-803D01*
G03X392323Y249720I334J219D01*
G02X392980Y250062I657J-460D01*
G02Y248458I0J-802D01*
G02X392309Y248820I0J803D01*
G03X391647Y248830I-334J-219D01*
G37*
G36*
G01X394537Y253448D02*
G02X394188Y254110I453J662D01*
G02X395792I802J0D01*
G02X395690Y253718I-802J-1D01*
G03X395813Y253192I349J-196D01*
G02X396162Y252530I-453J-662D01*
G02X394558I-802J0D01*
G02X394660Y252922I802J1D01*
G03X394537Y253448I-349J196D01*
G37*
G36*
G01X335428Y243880D02*
G02X335535Y244280I801J0D01*
G03Y244480I-173J100D01*
G02X335428Y244880I694J400D01*
G02X336230Y245682I802J0D01*
G02X336590Y245597I0J-803D01*
G03X336770I90J178D01*
G02X337130Y245682I360J-718D01*
G02X337932Y244880I0J-802D01*
G02X337825Y244480I-801J0D01*
G03Y244280I173J-100D01*
G02X337932Y243880I-694J-400D01*
G02X337130Y243078I-802J0D01*
G02X336770Y243163I0J803D01*
G03X336590I-90J-178D01*
G02X336230Y243078I-360J718D01*
G02X335428Y243880I0J802D01*
G37*
G36*
G01X306840Y248688D02*
G02X306490Y248782I1J702D01*
G03X306290I-100J-174D01*
G02X305940Y248688I-351J608D01*
G02Y250092I0J702D01*
G02X306290Y249998I-1J-702D01*
G03X306490I100J174D01*
G02X306840Y250092I351J-608D01*
G02Y248688I0J-702D01*
G37*
G36*
G01X380758Y273860D02*
G02X380936Y274364I803J0D01*
G03X380958Y274581I-156J125D01*
G02X380868Y274950I711J369D01*
G02X381670Y275752I802J0D01*
G01X381671D01*
G02X382133Y275606I0J-802D01*
G03X382354Y275600I115J163D01*
G02X382780Y275722I425J-681D01*
G02X383582Y274920I0J-802D01*
G01Y274919D01*
G02X383460Y274494I-802J0D01*
G03X383462Y274278I169J-106D01*
G02X383592Y273840I-671J-437D01*
G02X382790Y273038I-802J0D01*
G02X382333Y273181I0J803D01*
G03X382223Y273216I-113J-165D01*
G01X382106Y273218D01*
G03X381995Y273186I-2J-200D01*
G02X381560Y273058I-435J675D01*
G02X380758Y273860I0J802D01*
G37*
G36*
G01X387684Y295565D02*
X387630Y295662D01*
G03X387557Y295736I-174J-99D01*
G02X387215Y296340I362J604D01*
G02X388619I702J0D01*
G01Y296319D01*
G03X388643Y296215I200J-9D01*
G01X388697Y296118D01*
G03X388770Y296044I174J99D01*
G02X389112Y295440I-362J-604D01*
G02X387708I-702J0D01*
G01Y295461D01*
G03X387684Y295565I-200J9D01*
G37*
G36*
G01X393731Y295759D02*
X393729Y295887D01*
G03X393682Y296011I-200J-5D01*
G02X393518Y296461I538J451D01*
G02X394220Y297163I702J0D01*
G02X394580Y297064I0J-704D01*
G03X394680Y297035I104J171D01*
G01X394791Y297034D01*
G03X394892Y297060I2J200D01*
G02X395238Y297151I346J-611D01*
G02X395940Y296449I0J-702D01*
G02X395796Y296024I-702J1D01*
G03X395756Y295898I160J-120D01*
G01X395758Y295770D01*
G03X395805Y295646I200J5D01*
G02X395969Y295196I-538J-451D01*
G02X395267Y294494I-702J0D01*
G02X394907Y294593I0J704D01*
G03X394807Y294622I-104J-171D01*
G01X394696Y294623D01*
G03X394595Y294597I-2J-200D01*
G02X394249Y294506I-346J611D01*
G02X393547Y295208I0J702D01*
G02X393691Y295633I702J-1D01*
G03X393731Y295759I-160J120D01*
G37*
G36*
G01X364597Y309399D02*
G02X364715Y309788I702J-1D01*
G03Y310010I-167J111D01*
G02X364597Y310399I584J390D01*
G02X365299Y311101I702J0D01*
G02X365688Y310983I-1J-702D01*
G03X365910I111J167D01*
G02X366299Y311101I390J-584D01*
G02X367001Y310399I0J-702D01*
G02X366883Y310010I-702J1D01*
G03Y309788I167J-111D01*
G02X367001Y309399I-584J-390D01*
G02X366299Y308697I-702J0D01*
G02X365910Y308815I1J702D01*
G03X365688I-111J-167D01*
G02X365299Y308697I-390J584D01*
G02X364597Y309399I0J702D01*
G37*
G36*
G01X352597Y309899D02*
G02X352715Y310288I702J-1D01*
G03Y310510I-167J111D01*
G02X352597Y310899I584J390D01*
G02X353299Y311601I702J0D01*
G02X353688Y311483I-1J-702D01*
G03X353910I111J167D01*
G02X354299Y311601I390J-584D01*
G02X355001Y310899I0J-702D01*
G02X354883Y310510I-702J1D01*
G03Y310288I167J-111D01*
G02X355001Y309899I-584J-390D01*
G02X354299Y309197I-702J0D01*
G02X353910Y309315I1J702D01*
G03X353688I-111J-167D01*
G02X353299Y309197I-390J584D01*
G02X352597Y309899I0J702D01*
G37*
G36*
G01X398987Y310259D02*
G02X399105Y310648I702J-1D01*
G03Y310870I-167J111D01*
G02X398987Y311259I584J390D01*
G02X400391I702J0D01*
G02X400273Y310870I-702J1D01*
G03Y310648I167J-111D01*
G02X400391Y310259I-584J-390D01*
G02X398987I-702J0D01*
G37*
G36*
G01X341198Y314190D02*
G02X341265Y314510I801J-1D01*
G03Y314670I-184J80D01*
G02X341198Y314990I734J321D01*
G02X342802I802J0D01*
G02X342735Y314670I-801J1D01*
G03Y314510I184J-80D01*
G02X342802Y314190I-734J-321D01*
G02X341198I-802J0D01*
G37*
G36*
G01X375500Y317758D02*
G02X375150Y317852I1J702D01*
G03X374950I-100J-174D01*
G02X374600Y317758I-351J608D01*
G02Y319162I0J702D01*
G02X374950Y319068I-1J-702D01*
G03X375150I100J174D01*
G02X375500Y319162I351J-608D01*
G02Y317758I0J-702D01*
G37*
G36*
G01X313233Y258002D02*
G02X312940Y257938I-293J639D01*
G02Y259342I0J702D01*
G02X313583Y258921I0J-702D01*
G03X314117Y258718I367J160D01*
G02X314410Y258782I293J-639D01*
G02Y257378I0J-702D01*
G02X313767Y257799I0J702D01*
G03X313233Y258002I-367J-160D01*
G37*
G36*
G01X361804Y275324D02*
G02X361220Y275012I-584J391D01*
G02Y276416I0J702D01*
G02X361783Y276133I0J-702D01*
G03X362436Y276150I320J239D01*
G02X363020Y276462I584J-391D01*
G02Y275058I0J-702D01*
G02X362457Y275341I0J702D01*
G03X361804Y275324I-320J-239D01*
G37*
G36*
G01X335663Y306340D02*
G02X335488Y306840I627J500D01*
G02X337092I802J0D01*
G02X336911Y306333I-802J0D01*
G03X336908Y305830I310J-253D01*
G02X337083Y305330I-627J-500D01*
G02X336281Y304528I-802J0D01*
G01X336280D01*
G02X335746Y304732I0J802D01*
G01X335716Y304759D01*
X335641Y304785D01*
X335315Y304764D01*
G03X335177Y304696I13J-199D01*
G02X334570Y304418I-607J524D01*
G02Y306022I0J802D01*
G02X335228Y305678I0J-801D01*
G03X335570Y305700I164J114D01*
G02X335660Y305837I712J-369D01*
G03X335663Y306340I-310J253D01*
G37*
G36*
G01X337830Y306428D02*
G02X337558Y307030I530J602D01*
G02X339162I802J0D01*
G02X338870Y306411I-802J0D01*
G03X338860Y305802I254J-309D01*
G02X339132Y305200I-530J-602D01*
G02X337528I-802J0D01*
G02X337820Y305819I802J0D01*
G03X337830Y306428I-254J309D01*
G37*
G36*
G01X345670Y310475D02*
G02X345350Y310408I-321J734D01*
G02Y312012I0J802D01*
G02X345670Y311945I-1J-801D01*
G03X345830I80J184D01*
G02X346150Y312012I321J-734D01*
G02X346952Y311210I0J-802D01*
G02X346489Y310483I-802J0D01*
G01X346443Y310462D01*
X346382Y310382D01*
X346318Y309952D01*
X346351Y309858D01*
X346389Y309824D01*
G02X346652Y309230I-539J-594D01*
G02X345850Y308428I-802J0D01*
G02X345331Y308619I0J801D01*
G03X344802Y308609I-259J-305D01*
G02X344260Y308398I-542J591D01*
G02Y310002I0J802D01*
G02X344779Y309811I0J-801D01*
G03X345308Y309821I259J305D01*
G02X345850Y310032I542J-591D01*
G02X345941Y310027I2J-802D01*
G03X346001Y310422I22J199D01*
G02X345830Y310475I150J788D01*
G03X345670I-80J-184D01*
G37*
G36*
G01X337956Y310806D02*
G02X337798Y311284I644J478D01*
G02X339402I802J0D01*
G02X338837Y310518I-802J0D01*
G03X338634Y309898I119J-382D01*
G02X338792Y309420I-644J-478D01*
G02X337188I-802J0D01*
G02X337753Y310186I802J0D01*
G03X337956Y310806I-119J382D01*
G37*
G36*
G01X341315Y311899D02*
G03X341831Y311901I257J307D01*
G02X342350Y312092I519J-610D01*
G02Y310488I0J-802D01*
G02X341835Y310675I0J803D01*
G03X341180Y310402I-256J-307D01*
G03X341356Y310186I199J-17D01*
G02X342062Y309390I-96J-796D01*
G02X341876Y308876I-803J0D01*
G03X341835Y308702I154J-128D01*
G01X341908Y308390D01*
G03X342021Y308253I195J46D01*
G01X342022D01*
G02X342502Y307519I-321J-734D01*
G02X340898I-802J0D01*
G02X341084Y308033I803J0D01*
G03X341125Y308207I-154J128D01*
G01X341052Y308519D01*
G03X340939Y308656I-195J-46D01*
G01X340938D01*
G02X340458Y309390I321J734D01*
G02X340650Y309911I803J0D01*
G03X340693Y310089I-151J131D01*
G01X340605Y310451D01*
X340542Y310523D01*
X340497Y310541D01*
G02X339998Y311284I304J743D01*
G02X340800Y312086I802J0D01*
G02X341315Y311899I0J-803D01*
G37*
G36*
G01X346535Y316740D02*
G02X346468Y317060I734J321D01*
G02X347270Y317862I802J0D01*
G02X348016Y317354I0J-802D01*
G01X348017Y317353D01*
G03X348152Y317233I186J73D01*
G01X348464Y317152D01*
G03X348642Y317191I51J193D01*
G02X349150Y317372I508J-622D01*
G02X349952Y316570I0J-802D01*
G02X349885Y316250I-801J1D01*
G03Y316090I184J-80D01*
G02Y315450I-734J-320D01*
G03Y315290I184J-80D01*
G02X349952Y314970I-734J-321D01*
G02X349150Y314168I-802J0D01*
G02X348404Y314676I0J802D01*
G01X348403Y314677D01*
G03X348268Y314797I-186J-73D01*
G01X347956Y314878D01*
G03X347778Y314839I-51J-193D01*
G02X347270Y314658I-508J622D01*
G02X346468Y315460I0J802D01*
G02X346535Y315780I801J-1D01*
G03Y315940I-184J80D01*
G02Y316580I734J320D01*
G03Y316740I-184J80D01*
G37*
G36*
G01X347430Y331652D02*
G02X347894Y331503I-1J-802D01*
G01X347931Y331477D01*
X348015Y331461D01*
X348353Y331545D01*
G03X348483Y331649I-48J194D01*
G01X348484Y331650D01*
G02X349200Y332092I716J-359D01*
G02X350002Y331290I0J-802D01*
G01Y328920D01*
G02X349767Y328353I-802J0D01*
G01X349757Y328343D01*
G02X349190Y328108I-567J567D01*
G02X348522Y328467I0J801D01*
G01X348500Y328500D01*
X348436Y328543D01*
X348120Y328608D01*
G03X347970Y328580I-41J-196D01*
G02X347530Y328448I-441J670D01*
G02X346963Y328683I0J802D01*
G01X346863Y328783D01*
G02X346628Y329350I567J567D01*
G01Y330850D01*
G02X347430Y331652I802J0D01*
G37*
G36*
G01X341420Y329665D02*
G02X341740Y329732I321J-735D01*
G02Y328128I0J-802D01*
G02X341420Y328195I1J802D01*
G03X341260I-80J-184D01*
G02X340940Y328128I-321J735D01*
G02Y329732I0J802D01*
G02X341260Y329665I-1J-802D01*
G03X341420I80J184D01*
G37*
G36*
G01X326281Y315696D02*
G02X326601Y315763I321J-735D01*
G02X326921Y315696I-1J-802D01*
G03X327121Y315719I80J183D01*
G02X327601Y315879I481J-642D01*
G02Y314275I0J-802D01*
G02X327281Y314342I1J802D01*
G03X327081Y314319I-80J-183D01*
G02X326601Y314159I-481J642D01*
G02X326281Y314226I1J802D01*
G03X326121I-80J-184D01*
G02X325801Y314159I-321J735D01*
G02X325320Y314319I0J803D01*
G01X325286Y314345D01*
X325202Y314364D01*
X324825Y314286D01*
X324755Y314236D01*
X324734Y314199D01*
G02X324039Y313798I-695J402D01*
G02Y315402I0J802D01*
G02X324520Y315242I0J-803D01*
G01X324554Y315216D01*
X324638Y315197D01*
X325015Y315275D01*
X325085Y315325D01*
X325106Y315362D01*
G02X325801Y315763I695J-402D01*
G02X326121Y315696I-1J-802D01*
G03X326281I80J184D01*
G37*
G36*
G01X331134Y348720D02*
G02X330777Y349387I445J667D01*
G02X332381I802J0D01*
G02X332024Y348720I-802J0D01*
G03Y348054I222J-333D01*
G02X332381Y347387I-445J-667D01*
G02X330777I-802J0D01*
G02X331134Y348054I802J0D01*
G03Y348720I-222J333D01*
G37*
G36*
G01X333217Y350872D02*
G02X332860Y351539I445J667D01*
G02X334464I802J0D01*
G02X334107Y350872I-802J0D01*
G03Y350206I222J-333D01*
G02X334464Y349539I-445J-667D01*
G02X332860I-802J0D01*
G02X333217Y350206I802J0D01*
G03Y350872I-222J333D01*
G37*
G54D44*
X325230Y246630D03*
X325250Y248990D03*
X348209Y250512D03*
X380286Y305959D03*
Y303959D03*
X382265Y331397D03*
X386644Y328964D03*
X403921Y329676D03*
Y331676D03*
X330059Y245882D03*
X309734Y252675D03*
X320849Y252980D03*
X342799Y248591D03*
X312294Y255194D03*
X314490Y255430D03*
X353040Y258500D03*
X361227Y259939D03*
X363157Y259957D03*
X361124Y266316D03*
X363124Y266338D03*
X309975Y275647D03*
X311975D03*
X317390Y276000D03*
X342442Y274241D03*
X355799Y277199D03*
X317390Y278090D03*
X321840Y278510D03*
X348612Y279283D03*
X355834Y279204D03*
X380660Y292826D03*
Y294826D03*
X373853Y298724D03*
X377127Y298721D03*
X374990Y306390D03*
X389599Y302599D03*
X408635Y311370D03*
X351700Y319900D03*
X382276Y314075D03*
X351900Y325130D03*
X380157Y323879D03*
X405926Y324110D03*
X376460Y337101D03*
X374370Y337004D03*
X388024Y334292D03*
X386550Y337410D03*
X396063Y337119D03*
X378803Y342531D03*
X386560Y339600D03*
X388201Y342435D03*
X396030Y339380D03*
X394578Y342538D03*
X378803Y344531D03*
X388201Y344435D03*
X394578Y344538D03*
X361169Y250948D03*
X408592Y298401D03*
G54D39*
X160490Y238800D03*
X161670Y242010D03*
X182300Y263330D03*
X192000Y277390D03*
X190030Y273510D03*
X196850Y274110D03*
X200880Y299510D03*
X203730Y299590D03*
X200810Y296400D03*
X203660Y296480D03*
X206700Y299510D03*
X206630Y296400D03*
X200700Y302470D03*
Y305670D03*
X203550Y305750D03*
X206520Y302470D03*
Y305670D03*
X200550Y309190D03*
X203400Y309270D03*
X206370Y309190D03*
X199560Y314040D03*
X201330Y316520D03*
X204348Y315530D03*
X203030Y319390D03*
X205910Y319380D03*
X207488Y315600D03*
X198250Y328322D03*
Y333822D03*
X380740Y219260D03*
X427430Y261370D03*
X433060Y262440D03*
X432970Y275020D03*
X178680Y348800D03*
X227420Y348770D03*
X227170Y346770D03*
X225420Y344660D03*
X229440Y348780D03*
X231440Y347650D03*
X230970Y345260D03*
X251530Y353150D03*
X237870Y360740D03*
X253940Y358250D03*
X251820Y358300D03*
X237860Y362990D03*
X241680Y365730D03*
X240670Y367560D03*
X246790Y364060D03*
X249970Y363940D03*
X167190Y372220D03*
X241990Y369380D03*
X241920Y373010D03*
X240640Y371330D03*
X247670Y368070D03*
X275040Y372270D03*
X288060Y373480D03*
X290160Y372490D03*
X301630Y370500D03*
X322390Y370680D03*
X349850Y370720D03*
X366300Y370570D03*
X405070Y370630D03*
X167150Y375380D03*
X167190Y378720D03*
X245820Y376750D03*
X287090Y375440D03*
X292640Y374620D03*
X176290Y241780D03*
X187150Y239580D03*
X186190Y245330D03*
X198740Y244550D03*
X206260Y244700D03*
X211030Y243650D03*
X188840Y252720D03*
X197300Y249580D03*
X205730Y250980D03*
X211440Y251360D03*
X235370Y301910D03*
X250650Y318670D03*
X249170Y323510D03*
X246230Y330470D03*
X240540Y193450D03*
X250450Y192000D03*
X260260Y191920D03*
X270350Y192320D03*
X280360Y192740D03*
X310400Y192180D03*
X320260Y192930D03*
X329540Y192590D03*
X340310Y193140D03*
X350120Y193060D03*
X360030Y193480D03*
X370520Y193020D03*
X381190Y193550D03*
X385630Y193240D03*
X410060Y193790D03*
X417500Y193160D03*
X243415Y198234D03*
X254370Y198900D03*
X270090Y198810D03*
X273437Y194303D03*
X278430Y196303D03*
X286940Y198100D03*
X293140Y196585D03*
X299940Y196740D03*
X305130Y195470D03*
X308090Y198430D03*
X310842Y195048D03*
X313612Y196623D03*
X324115Y198135D03*
X328114Y195846D03*
X333370Y196455D03*
X341350Y198310D03*
X345240Y196135D03*
X351290Y197430D03*
X358045Y198655D03*
X362640Y196035D03*
X371830Y199220D03*
X369052Y196542D03*
X373210Y197130D03*
X385720Y197380D03*
X382770Y196160D03*
X391180Y198450D03*
X393070Y199540D03*
X398550Y196020D03*
X402120Y196350D03*
X407010Y197890D03*
X412942Y196803D03*
X418110Y196480D03*
X421900Y198240D03*
X291640Y201570D03*
X224750Y217600D03*
X207320Y222630D03*
X193860Y226860D03*
X205430Y229870D03*
X211290Y225460D03*
X212950Y230870D03*
X447580Y249270D03*
X449930Y253550D03*
X451800Y249310D03*
X444750Y257845D03*
Y255345D03*
X447650Y257845D03*
X445943Y264018D03*
X446010Y261780D03*
X453345Y264550D03*
X446020Y266140D03*
X449220Y271350D03*
X440540Y275010D03*
X445900Y276960D03*
X449680Y275740D03*
X443120Y283570D03*
X440880Y283470D03*
X449370Y279180D03*
X422200Y372170D03*
X424940Y393130D03*
X260340Y402150D03*
X422390Y398430D03*
X320620Y324650D03*
X297860Y363000D03*
X301540Y363820D03*
X382690Y238130D03*
X385950Y237270D03*
X386650Y239540D03*
X324200Y243350D03*
X380830Y242820D03*
X386640Y242480D03*
X392970Y247240D03*
X394170Y242420D03*
X393700Y244920D03*
X389060Y251230D03*
X392960Y251290D03*
X392530Y254540D03*
X400750Y261040D03*
X343216Y244400D03*
X355808Y258454D03*
X375510Y261030D03*
X313478Y269490D03*
X315839Y269525D03*
X356959Y268536D03*
X375300Y267840D03*
X385110Y270940D03*
X387040Y272940D03*
X385027Y294789D03*
X384992Y297150D03*
X341700Y305119D03*
X333176Y311184D03*
X335700Y311260D03*
X347750Y324820D03*
X349830Y325010D03*
X347700Y326940D03*
X315990Y332160D03*
X319250Y332400D03*
X314870Y336502D03*
X319790Y313130D03*
X329100Y312900D03*
X341190Y340390D03*
X312920Y344070D03*
X316130Y344060D03*
X319244Y351033D03*
X355987Y244456D03*
X390990Y261130D03*
X391000Y265090D03*
X398900Y265080D03*
X391080Y268790D03*
X393880Y269960D03*
G54D38*
X230354Y207066D03*
X430354Y387066D03*
G54D45*
X185090Y355100D03*
X376710Y279250D03*
X383780Y283330D03*
X394070Y282470D03*
G54D47*
X347380Y321420D03*
G54D46*
X349550Y321080D03*
%LPD*%
G75*
G54D10*
X110960Y192350D03*
X105960Y197350D03*
X110960D03*
X105140Y206730D03*
X105130Y219280D03*
X105110Y227380D03*
X105190Y238410D03*
X110190Y249010D03*
X105190D03*
Y259010D03*
X110190D03*
X105190Y264010D03*
X108610Y262420D03*
X105190Y269010D03*
Y274010D03*
Y279010D03*
Y284010D03*
Y289010D03*
Y294010D03*
Y299010D03*
Y304010D03*
Y309010D03*
Y314010D03*
Y319010D03*
Y324010D03*
Y329010D03*
X109060Y330030D03*
X105190Y334010D03*
X110190D03*
X105190Y339010D03*
Y344010D03*
X110190D03*
X105190Y349010D03*
Y354010D03*
X110660Y353160D03*
X105190Y359010D03*
X110090Y358350D03*
X105190Y364010D03*
X110610Y369460D03*
X105190Y369010D03*
Y374010D03*
X110740Y375790D03*
X110650Y380190D03*
X105190Y379010D03*
X110550Y384490D03*
X105190Y384010D03*
X110640Y389530D03*
X105190Y389010D03*
X110690Y394320D03*
X106620Y398210D03*
X109240Y403520D03*
X115960Y187350D03*
X115990Y183280D03*
X111390Y187380D03*
X115960Y192350D03*
Y197350D03*
X115610Y259200D03*
X115580Y255700D03*
X114250Y277520D03*
X114280Y290530D03*
X114030Y285100D03*
X114280Y295530D03*
Y300530D03*
Y305530D03*
X114100Y312390D03*
X114040Y317680D03*
X114110Y323160D03*
X113890Y366060D03*
X116710Y369870D03*
X115010Y374190D03*
X115290Y379320D03*
Y384320D03*
Y389320D03*
Y394320D03*
X120290Y187290D03*
X120270Y183280D03*
X120290Y192290D03*
X121860Y295800D03*
Y290800D03*
Y300800D03*
Y305800D03*
X120460Y344020D03*
X120960Y354020D03*
X117350Y363170D03*
X120290Y379320D03*
Y384320D03*
Y389320D03*
X119030Y394360D03*
X119370Y412340D03*
X124350Y180430D03*
X126400Y270950D03*
X126420Y276350D03*
X126980Y281820D03*
X127110Y316690D03*
X125350Y326320D03*
X126160Y322050D03*
X125960Y344020D03*
Y339020D03*
Y349020D03*
Y354020D03*
X124760Y379500D03*
Y384500D03*
Y389500D03*
X124320Y395570D03*
X130240Y179810D03*
X132770Y185440D03*
Y190440D03*
Y200440D03*
Y195440D03*
X129760Y287350D03*
Y300770D03*
X134710Y309990D03*
X129620Y311880D03*
X130960Y344020D03*
X129790Y339860D03*
X130960Y349020D03*
Y354020D03*
Y359020D03*
Y364020D03*
Y369020D03*
Y374020D03*
X130610Y377740D03*
X129200Y414310D03*
X132700D03*
X135240Y179810D03*
X140240D03*
X138580Y185240D03*
X140950Y191600D03*
X136290Y291410D03*
X135590Y301290D03*
X140040Y309670D03*
X135960Y349020D03*
Y354020D03*
Y359020D03*
Y364020D03*
Y369020D03*
Y374020D03*
X136150Y377780D03*
X139190Y414300D03*
X145240Y179810D03*
X144270Y186000D03*
X143950Y281360D03*
X142610Y286890D03*
X143830Y292790D03*
X141950Y301390D03*
X145040Y309670D03*
X145190Y316290D03*
X144710Y347140D03*
X141090Y347180D03*
X142310Y414330D03*
X150240Y179810D03*
X150840Y185260D03*
X150400Y193790D03*
X151560Y278800D03*
X152100Y286030D03*
X152570Y292830D03*
X149040Y301270D03*
X150040Y309670D03*
X151910Y322250D03*
X148210Y347120D03*
X147310Y414330D03*
X152310D03*
X155240Y179810D03*
X156370Y186150D03*
X158030Y194090D03*
X156190Y270560D03*
X156730Y275320D03*
X154490Y301130D03*
X155040Y309670D03*
X154160Y316270D03*
X158880Y327890D03*
X156150Y344900D03*
X155840Y409020D03*
X157310Y414330D03*
X160240Y179810D03*
X163680Y185490D03*
X163970Y272460D03*
X163760Y336950D03*
X160990Y408910D03*
X162220Y414330D03*
X165240Y179810D03*
X170240D03*
X169920Y185360D03*
X167400Y322670D03*
X166880Y327270D03*
X167220Y414330D03*
X175240Y179810D03*
X176030Y185260D03*
X173130Y271020D03*
X176040Y277210D03*
X174440Y321720D03*
X174200Y327160D03*
X171110Y408790D03*
X172220Y414330D03*
X180240Y179810D03*
X182270Y185410D03*
X180360Y278100D03*
X180200Y273260D03*
X179340Y283460D03*
X179780Y288700D03*
X178500Y295160D03*
X179860Y301730D03*
X178480Y307940D03*
X179640Y314850D03*
X179550Y321310D03*
X181170Y328930D03*
X177220Y414330D03*
X182220D03*
X185240Y179810D03*
X183990Y301600D03*
X183260Y317870D03*
X183190Y324700D03*
X185090Y355100D03*
X183850Y408860D03*
X187220Y414330D03*
X190090Y179800D03*
X190840Y312330D03*
X190450Y320870D03*
X194300Y342630D03*
X192220Y414330D03*
X200090Y179800D03*
X195090D03*
X195550Y326480D03*
X197540Y414310D03*
X205090Y179800D03*
X202540Y414310D03*
X210090Y179800D03*
X207540Y414310D03*
X212540D03*
X215090Y179800D03*
X218690Y185110D03*
X217860Y408830D03*
X217540Y414310D03*
X220090Y179800D03*
X223660Y185110D03*
X222550Y189950D03*
X222540Y414310D03*
X230090Y179800D03*
X225090D03*
X229220Y185120D03*
X229920Y408630D03*
X227540Y414310D03*
X235090Y179800D03*
X232460Y414310D03*
X240090Y179800D03*
X237460Y414310D03*
X242460D03*
X245090Y179800D03*
X244820Y409060D03*
X247460Y414310D03*
X250990Y179800D03*
X252460Y414310D03*
X255990Y179800D03*
X257460Y414310D03*
X260990Y179800D03*
X265990D03*
X264480Y409040D03*
X262460Y414310D03*
X266650D03*
X270990Y179800D03*
X270500Y359470D03*
X271650Y414310D03*
X275990Y179800D03*
X276650Y414310D03*
X280990Y179800D03*
X281390Y409020D03*
X281970Y414290D03*
X285990Y179800D03*
X286970Y414290D03*
X290990Y179800D03*
X295990D03*
X291970Y414290D03*
X300990Y179800D03*
X296970Y414290D03*
X301970D03*
X305990Y179800D03*
X306970Y414290D03*
X312090Y179790D03*
X313070Y409080D03*
X311970Y414290D03*
X317090Y179790D03*
X316890Y414290D03*
X322090Y179790D03*
X325600Y409050D03*
X321890Y414290D03*
X327090Y179790D03*
X332090D03*
X326890Y414290D03*
X331890D03*
X337090Y179790D03*
X336430Y408960D03*
X336890Y414290D03*
X342090Y179790D03*
X341890Y414290D03*
X347090Y179790D03*
X346890Y414290D03*
X352090Y179790D03*
X353900Y408980D03*
X352320Y414300D03*
X357090Y179790D03*
X362090D03*
X357320Y414300D03*
X362320D03*
X367090Y179790D03*
X367640Y414280D03*
X372380Y179800D03*
X373790Y409060D03*
X372640Y414280D03*
X377380Y179800D03*
X376710Y279250D03*
X377640Y414280D03*
X382380Y179800D03*
X383480Y185140D03*
X383780Y283330D03*
Y408910D03*
X382640Y414280D03*
X387380Y179800D03*
X392380D03*
X387640Y414280D03*
X392640D03*
X397380Y179800D03*
X394070Y282470D03*
X394360Y408840D03*
X397640Y414280D03*
X402380Y179800D03*
X404350Y185190D03*
X404070Y408990D03*
X402560Y414280D03*
X407380Y179800D03*
X407560Y414280D03*
X412380Y179800D03*
X414990Y185190D03*
X414580Y408860D03*
X412560Y414280D03*
X417380Y179800D03*
X422380D03*
X417560Y414280D03*
X422560D03*
X427380Y179800D03*
X427560Y414280D03*
X432380Y179800D03*
X430280Y185280D03*
X430070Y406720D03*
X434390Y413560D03*
X436620Y185210D03*
X438980Y402620D03*
X441090Y181170D03*
X440750Y190450D03*
X443910Y221560D03*
X443920Y376140D03*
X443130Y403330D03*
X441350Y412390D03*
X446700Y182580D03*
X451970Y184670D03*
X449090Y227490D03*
X450030Y409880D03*
X457040Y187330D03*
X457690Y405410D03*
X462210Y191090D03*
X460060Y231030D03*
X466430Y195290D03*
X468040Y230590D03*
X469980Y394650D03*
X465000Y400130D03*
X470750Y200390D03*
X474650Y208090D03*
X473320Y223440D03*
X473120Y230640D03*
X474340Y237070D03*
X472780Y302310D03*
X472100Y311300D03*
X472780Y362840D03*
X472460Y370750D03*
X475710Y384800D03*
X478070Y216250D03*
X479730Y223440D03*
X480280Y235160D03*
X480350Y239710D03*
Y244710D03*
Y249710D03*
Y254710D03*
Y259710D03*
X480400Y264770D03*
Y269770D03*
Y274770D03*
Y279770D03*
X480330Y289260D03*
X480260Y298590D03*
Y308590D03*
Y303590D03*
Y313590D03*
X480400Y323430D03*
X480310Y333380D03*
X480400Y344130D03*
X480420Y356310D03*
X479960Y362540D03*
X480260Y370830D03*
X478250Y378310D03*
G54D11*
X109152Y201982D03*
Y253793D03*
G54D20*
X160346Y281562D03*
Y291562D03*
Y301562D03*
Y311562D03*
Y321562D03*
X170346Y276562D03*
Y286562D03*
Y296562D03*
Y306562D03*
Y316562D03*
G54D30*
G01X109152Y199310D02*
Y201982D01*
G01D02*
Y204654D01*
G01Y201982D02*
X114876D01*
G01X109152Y251121D02*
Y253793D01*
G01D02*
Y256465D01*
G01Y253793D02*
X114876D01*
G01X119782Y196258D02*
Y200604D01*
G01X117110D02*
X119782D01*
G01Y255132D02*
Y259478D01*
G01X117110Y255132D02*
X119782D01*
G01D02*
X122454D01*
G01X118564Y366944D02*
X123303D01*
G01Y358268D02*
Y366944D01*
G01D02*
Y375620D01*
G01Y366944D02*
X128042D01*
G01X170346Y272610D02*
Y276562D01*
G01D02*
Y280514D01*
G01X166394Y276562D02*
X170346D01*
G01D02*
X174298D01*
G01X189709Y392066D02*
X200354D01*
G01Y191421D02*
Y202066D01*
G01D02*
X210999D01*
G01X200354Y392066D02*
Y402711D01*
G01Y392066D02*
X210999D01*
G01X216552Y197066D02*
X220354D01*
G01X216552Y207066D02*
X220354D01*
G01X216552Y387066D02*
X220354D01*
G01X216552Y397066D02*
X220354D01*
G01Y193264D02*
Y197066D01*
G01D02*
Y200868D01*
G01Y197066D02*
X224156D01*
G01X220354Y203264D02*
Y207066D01*
G01Y383264D02*
Y387066D01*
G01D02*
Y390868D01*
G01Y387066D02*
X224156D01*
G01X220354Y393264D02*
Y397066D01*
G01D02*
Y400868D01*
G01Y397066D02*
X224156D01*
G01X360354Y219238D02*
Y223790D01*
G01D02*
X364906D01*
G01X430354Y397066D02*
Y400868D01*
G01Y397066D02*
X434156D01*
G01X440354Y387066D02*
Y390868D01*
G01Y387066D02*
X444156D01*
G01X440354Y393264D02*
Y397066D01*
G01D02*
Y400868D01*
G01X436552Y397066D02*
X440354D01*
G01D02*
X444156D01*
G01X449709Y214566D02*
X460354D01*
G01X449709Y379566D02*
X460354D01*
G01Y203921D02*
Y214566D01*
G01D02*
X470999D01*
G01X460354Y379566D02*
Y390211D01*
G01Y379566D02*
X470999D01*
G01X476172Y290506D02*
Y293277D01*
G01D02*
Y296048D01*
G01X471039Y293277D02*
X476172D01*
G01Y314916D02*
Y317687D01*
G01D02*
Y320458D01*
G01X471039Y317687D02*
X476172D01*
G54D21*
X200354Y202066D03*
Y392066D03*
X460354Y214566D03*
Y379566D03*
G54D12*
X119362Y272960D03*
Y282960D03*
Y315164D03*
Y325164D03*
G54D31*
G01X321168Y339469D02*
Y339790D01*
X320868Y340090D01*
X318590D01*
X318520Y340160D01*
Y340170D01*
X318200Y340490D01*
X318190D01*
X318170Y340510D01*
X311350D01*
X308550Y343310D01*
X282660D01*
X271650Y332300D01*
X267360D01*
X266970Y332690D01*
X266260D01*
X265760Y332190D01*
Y331115D01*
X266612Y330263D01*
G01Y331838D02*
X266750Y331700D01*
X271900D01*
X282910Y342710D01*
X308300D01*
X311100Y339910D01*
X316550D01*
X316604Y339856D01*
X317668D01*
G01X292590Y330330D02*
X292960D01*
X293250Y330040D01*
X312250D01*
X312632Y329658D01*
Y329455D01*
G01X293120Y331360D02*
X293840Y330640D01*
X312500D01*
X312521Y330619D01*
X312561D01*
X312774Y330406D01*
X313578D01*
G01Y330799D02*
Y332422D01*
X313500Y332500D01*
G54D13*
X118140Y399604D03*
Y407596D03*
X148140Y403600D03*
G54D22*
X220354Y197066D03*
Y387066D03*
X230354Y197066D03*
Y207066D03*
Y387066D03*
Y397066D03*
X430354Y197066D03*
Y207066D03*
Y387066D03*
Y397066D03*
X440354Y197066D03*
Y207066D03*
Y387066D03*
Y397066D03*
G54D14*
X119782Y200604D03*
Y255132D03*
G54D23*
X220354Y207066D03*
Y397066D03*
G54D15*
G01X293330Y329150D02*
X292710D01*
X292380Y328820D01*
G01X312270Y321689D02*
X313159D01*
G01D02*
X314251D01*
X314359Y321581D01*
G01X329360Y336930D02*
X329670Y336620D01*
X341260D01*
X341360Y336720D01*
G01X343030Y324250D02*
X343830D01*
G01X342900Y326830D02*
X343700D01*
G01X343240Y330700D02*
X344040D01*
G01X349550Y322230D02*
Y319930D01*
X349500Y319880D01*
G01X347380Y321820D02*
Y321020D01*
G01X349200Y331290D02*
Y328920D01*
X349190Y328910D01*
G01X347430Y330850D02*
Y330050D01*
G01D02*
Y329350D01*
X347530Y329250D01*
X121650Y214950D03*
X121370Y224830D03*
X122020Y228260D03*
X120930Y228000D03*
X121380Y231490D03*
X118830Y242390D03*
X120200Y245240D03*
X126720Y209220D03*
X122330Y216970D03*
X123120Y220310D03*
X123220Y224580D03*
X127346Y235791D03*
X122540Y239880D03*
X124900Y247390D03*
X123190Y400690D03*
X128090Y400920D03*
X125190Y409670D03*
X127280Y409690D03*
X122260Y405050D03*
X130130Y214578D03*
X133618Y218918D03*
X130130Y218911D03*
Y223244D03*
Y227077D03*
Y230410D03*
X131250Y253340D03*
X133060Y401060D03*
X132330Y405100D03*
X134820Y208580D03*
X134570Y214480D03*
X136290Y230200D03*
X137050Y401030D03*
X137900Y406110D03*
X141520Y198491D03*
X145410Y208730D03*
X142020Y214760D03*
X140618Y218918D03*
X141520Y235791D03*
X141930Y253730D03*
X142120Y406870D03*
X147790Y198180D03*
X149310Y202199D03*
X148550Y214900D03*
X147618Y218918D03*
X149580Y239679D03*
X149590Y243330D03*
X148160Y250080D03*
X147700Y254010D03*
X151960Y253960D03*
X152100Y384420D03*
X149050Y388390D03*
X149440Y407310D03*
X155480Y197920D03*
X156000Y215080D03*
X154618Y218918D03*
X152510Y235030D03*
X158050Y237970D03*
X157960Y238790D03*
X156940Y238010D03*
X156930Y238920D03*
X157940Y239630D03*
X156920Y239800D03*
Y240650D03*
X157810Y240450D03*
X156890Y241610D03*
X153970Y253880D03*
X157350Y399310D03*
X153890Y403000D03*
X161500Y197700D03*
X162070Y211060D03*
X162480Y214970D03*
X161618Y218918D03*
X158900Y233970D03*
X160490Y238800D03*
X161670Y242010D03*
X160400Y236560D03*
X164140Y236550D03*
X163843Y251359D03*
X163800Y252350D03*
X163830Y250410D03*
X161170Y372370D03*
X163760Y372260D03*
X163720Y375420D03*
X161290Y375240D03*
X161330Y378670D03*
X163760Y378760D03*
X163180Y392560D03*
X158200Y392190D03*
X162710Y400320D03*
X164140Y403280D03*
X159640Y406780D03*
X165330Y233900D03*
X165990Y239740D03*
X166030Y237640D03*
X166150Y242090D03*
X167386Y251359D03*
X168370Y248370D03*
Y249770D03*
X167190Y372220D03*
X167150Y375380D03*
X167190Y378720D03*
X166690Y383080D03*
X167740Y383030D03*
X167210Y387900D03*
X165670Y398150D03*
X164350Y406950D03*
X171470Y213870D03*
Y219760D03*
X171590Y241830D03*
X173040Y241820D03*
X173020Y243110D03*
X171610Y243120D03*
X172300Y340750D03*
X170290Y341530D03*
X176055Y348310D03*
X173422D03*
X178000Y200500D03*
X176530Y217820D03*
X179430Y223100D03*
X176350Y225420D03*
X180390Y231220D03*
X176290Y241780D03*
X177830Y253920D03*
X182070Y280240D03*
X181099Y295126D03*
Y307974D03*
X181336Y332913D03*
X178870Y339530D03*
X181520Y339620D03*
X181460Y344390D03*
X178680Y348800D03*
X178300Y408150D03*
X183070Y189970D03*
X187280Y228830D03*
Y229830D03*
Y230830D03*
X187150Y239580D03*
X186190Y245330D03*
X187090Y256570D03*
X187130Y255540D03*
X186120Y256650D03*
X186170Y255540D03*
X185290Y255560D03*
X185190Y256620D03*
X182300Y263330D03*
X186080Y277270D03*
X184643Y295126D03*
Y307974D03*
X183450Y395410D03*
X183410Y401370D03*
X190730Y216680D03*
X193090Y219140D03*
X193860Y226860D03*
X189280Y228830D03*
X188280D03*
X189280Y229830D03*
X188280D03*
X189930Y233350D03*
X188280Y230830D03*
X189280D03*
X188840Y252720D03*
X192180Y263230D03*
X192000Y277390D03*
X190030Y273510D03*
X188540Y280990D03*
X192620Y289080D03*
X191980Y298570D03*
X193750Y298610D03*
X191980Y306444D03*
X193950Y306470D03*
X191580Y316330D03*
X192000Y342500D03*
X188850Y341700D03*
X189750Y341690D03*
X193990Y344960D03*
X194050Y346000D03*
X193210Y355220D03*
X194070Y355210D03*
X195140Y217480D03*
X198740Y244550D03*
X197300Y249580D03*
X197170Y263490D03*
X198130Y271500D03*
X196850Y274110D03*
X197550Y289120D03*
X199610Y292870D03*
X199520Y290910D03*
X196210Y292890D03*
Y291780D03*
X197360Y299500D03*
X197290Y296390D03*
X197180Y302460D03*
Y305660D03*
X197030Y309180D03*
X196456Y312196D03*
X196460Y313280D03*
X199560Y314040D03*
X198140Y324040D03*
X197090Y324000D03*
X198250Y328322D03*
Y333822D03*
X201800Y217290D03*
X205190Y217420D03*
X205430Y229870D03*
X205730Y250980D03*
X202490Y270310D03*
X204850Y272790D03*
X205920Y292890D03*
X200880Y299510D03*
X203730Y299590D03*
X200810Y296400D03*
X203660Y296480D03*
X200700Y302470D03*
Y305670D03*
X203550Y305750D03*
X200550Y309190D03*
X203400Y309270D03*
X201330Y316520D03*
X204348Y315530D03*
X203030Y319390D03*
X205910Y319380D03*
X205920Y342040D03*
X204820Y341990D03*
X205920Y343060D03*
X204880Y343110D03*
X203810Y343090D03*
X203820Y342030D03*
X202910Y343080D03*
X202920Y342020D03*
X207320Y222630D03*
X211290Y225460D03*
X206260Y244700D03*
X211030Y243650D03*
X211440Y251360D03*
X211770Y256910D03*
Y257910D03*
Y258910D03*
X206582Y263280D03*
X210570Y281780D03*
X211330Y286190D03*
X211380Y285120D03*
X209060Y292900D03*
X207490Y292880D03*
X210210Y299580D03*
X206700Y299510D03*
X210140Y296470D03*
X206630Y296400D03*
X206520Y302470D03*
X210030Y302540D03*
Y305740D03*
X206520Y305670D03*
X209880Y309260D03*
X206370Y309190D03*
X210130Y318490D03*
X207488Y315600D03*
X209060Y319380D03*
X210637Y315600D03*
X206920Y343080D03*
X206930Y342030D03*
X216850Y187720D03*
X213260Y214350D03*
X212950Y230870D03*
X212770Y256910D03*
Y257910D03*
Y258910D03*
X216340Y276410D03*
X216360Y277530D03*
X214653Y298613D03*
X215570Y298660D03*
X214590Y297050D03*
X215520Y297010D03*
X216930Y306241D03*
X212340Y312130D03*
X212350Y313150D03*
X217460Y322920D03*
X216570Y322910D03*
X216230Y404160D03*
X216360Y406700D03*
X221490Y185580D03*
X218560Y225470D03*
Y226470D03*
X219560D03*
X220560D03*
Y225470D03*
X219560D03*
X222850Y281760D03*
X222680Y278330D03*
X222520Y340320D03*
X221490Y340000D03*
X223590Y340310D03*
X222560Y341370D03*
X221670Y341220D03*
X223660Y341340D03*
X221870Y402990D03*
X221750Y406540D03*
X221700Y409680D03*
X226780Y185410D03*
X224750Y217600D03*
X226740Y312530D03*
X224940Y312510D03*
X224870Y314100D03*
X226690D03*
X229500Y336000D03*
X228350Y335860D03*
X229510Y338160D03*
X226460Y339940D03*
X227560Y342920D03*
X229350Y342970D03*
X227420Y348770D03*
X227170Y346770D03*
X225420Y344660D03*
X229440Y348780D03*
X226100Y402950D03*
X226030Y406360D03*
X226170Y409490D03*
X233140Y229300D03*
X232140D03*
X230350Y236330D03*
X230310Y237140D03*
X231060Y260350D03*
X231270Y301150D03*
X235370Y301910D03*
X231300Y307370D03*
X231280Y304560D03*
X235470Y305800D03*
X231280Y312490D03*
X231080Y315660D03*
X235470Y314180D03*
X231440Y347650D03*
X230970Y345260D03*
X231410Y404960D03*
X236520Y185010D03*
X240540Y193450D03*
X240460Y220420D03*
X239960Y221240D03*
X239920Y222140D03*
X236380Y306770D03*
X236130Y304050D03*
X236450Y311860D03*
X236550Y309880D03*
X237840Y310861D03*
X236280Y313170D03*
X236440Y308560D03*
X236190Y315220D03*
X240690Y337650D03*
X239930Y337000D03*
X242060Y339040D03*
X241430Y338360D03*
X237870Y360740D03*
X237860Y362990D03*
X241680Y365730D03*
X240670Y367560D03*
X241990Y369380D03*
X241920Y373010D03*
X240640Y371330D03*
X240260Y377680D03*
X236130Y408870D03*
X241650Y409100D03*
X242570Y184810D03*
X243415Y198234D03*
X245380Y234880D03*
Y233880D03*
X247780Y259380D03*
X244570Y265020D03*
X244560Y266580D03*
X247400Y287120D03*
X246440Y287070D03*
X245380Y287120D03*
X245410Y286090D03*
X246410D03*
X247450Y286080D03*
X246230Y330470D03*
X245930Y342870D03*
X245290Y342190D03*
X244650Y341610D03*
X243950Y340980D03*
X243310Y340400D03*
X242720Y339690D03*
X243490Y360070D03*
X246790Y364060D03*
X247670Y368070D03*
X242340Y378620D03*
X245820Y376750D03*
X247940Y409310D03*
X252280Y184890D03*
X250450Y192000D03*
X250980Y201680D03*
X253880Y233270D03*
Y234270D03*
X248610Y258380D03*
X250650Y318670D03*
X249170Y323510D03*
X253630Y342070D03*
X252630D03*
X253650Y353100D03*
X251530Y353150D03*
X253940Y358250D03*
X251820Y358300D03*
X249970Y363940D03*
X250354Y403930D03*
X250350Y404940D03*
X251370Y404960D03*
Y403940D03*
X252350Y403920D03*
X252330Y404950D03*
X253360Y404960D03*
X253280Y403900D03*
X254370Y198900D03*
X257480Y195300D03*
X259010Y196465D03*
X258540Y233270D03*
Y232270D03*
X256510Y244160D03*
X256480Y245290D03*
X257510Y244160D03*
X257480Y245290D03*
X257050Y250850D03*
Y251850D03*
X257030Y256070D03*
Y257070D03*
X257010Y262710D03*
X256010D03*
X256980Y263840D03*
X255980D03*
X258010Y262710D03*
X257980Y263840D03*
X258170Y297780D03*
X255500Y333470D03*
X256500D03*
X257630Y342070D03*
X258630D03*
X256630D03*
X255630D03*
X254630D03*
X255730Y353110D03*
X257690Y353140D03*
X259390Y353090D03*
X259680Y358240D03*
X257980Y358290D03*
X256020Y358260D03*
X255630Y409490D03*
X263280Y185310D03*
X260260Y191920D03*
X264190Y236180D03*
Y237180D03*
Y242600D03*
Y243600D03*
X264240Y248780D03*
Y249780D03*
X264590Y254760D03*
Y255760D03*
X260540Y306930D03*
X260120Y333190D03*
X261090Y333200D03*
X261220Y346910D03*
X265870Y365160D03*
X264610Y385600D03*
X265780Y385540D03*
X264670Y383500D03*
X265800Y383420D03*
X264670Y381750D03*
X265960Y381780D03*
X260340Y402150D03*
X261690Y409420D03*
X271360Y185050D03*
X270350Y192320D03*
X270090Y198810D03*
X266550Y201570D03*
X270130Y236040D03*
X271130D03*
X270100Y237170D03*
X271100D03*
X271030Y242710D03*
X270030D03*
X271000Y243840D03*
X270000D03*
X272030Y242710D03*
X272000Y243840D03*
X271060Y249130D03*
X270060D03*
X271030Y250260D03*
X270030D03*
X272030D03*
X271010Y254370D03*
X270010D03*
X269980Y255500D03*
X272010Y254370D03*
X271980Y255500D03*
X270640Y258830D03*
X269640D03*
X267370Y322370D03*
X266420Y322360D03*
X267360Y323500D03*
X266270D03*
X267330Y324630D03*
X266260Y324570D03*
X266612Y331838D03*
Y330263D03*
X269761Y333413D03*
X271336D03*
Y334987D03*
X269761D03*
X266560Y335010D03*
X269440Y374190D03*
X271740Y383320D03*
X268810Y409470D03*
X273437Y194303D03*
X275990Y225510D03*
X274950Y225650D03*
X274930Y226830D03*
X272130Y236040D03*
X272100Y237170D03*
X272060Y249130D03*
X275000Y259950D03*
Y258950D03*
X276540Y280570D03*
X276510Y281590D03*
Y282590D03*
Y283590D03*
X275540Y281610D03*
Y282610D03*
Y283610D03*
X275570Y280590D03*
X276510Y285590D03*
Y284590D03*
X275540Y285610D03*
Y284610D03*
X274390Y324310D03*
X273390D03*
X272390D03*
X272150Y345530D03*
X273150D03*
X274150D03*
X275710Y359630D03*
X273290Y363250D03*
X277780Y363490D03*
Y362490D03*
X275040Y372270D03*
X276210Y376970D03*
X277490Y382210D03*
X276400Y409420D03*
X281650Y184800D03*
X280360Y192740D03*
X278430Y196303D03*
X282840Y201460D03*
X280040Y214040D03*
X281040D03*
X282830Y222670D03*
X281830D03*
X278670Y358590D03*
X278780Y362490D03*
Y363490D03*
X286940Y198100D03*
X286010Y211120D03*
X287560D03*
X289390Y211100D03*
X287610Y212330D03*
X286010Y212350D03*
X289340Y212390D03*
X287550Y253770D03*
Y254770D03*
Y255770D03*
Y256770D03*
Y257770D03*
Y258770D03*
Y259770D03*
Y260770D03*
X289450Y364190D03*
X288520Y365290D03*
X287850Y366530D03*
X289860Y368510D03*
X287860Y368530D03*
X288060Y373480D03*
X287090Y375440D03*
X288770Y383140D03*
X285290Y409610D03*
X295240Y184870D03*
X293140Y196585D03*
X291640Y201570D03*
X295170Y215570D03*
X294100Y215590D03*
X294090Y216610D03*
X295190Y216650D03*
X291930Y331930D03*
X290980Y331600D03*
X292380Y328820D03*
X293330Y329150D03*
X295750Y331770D03*
X294750D03*
X292590Y330330D03*
X293120Y331360D03*
X294750Y332770D03*
X295750D03*
X294270Y338360D03*
X295270D03*
Y339360D03*
X294270D03*
X290620Y363280D03*
X290160Y372490D03*
X292640Y374620D03*
X292430Y384050D03*
X293680Y384070D03*
X293720Y382640D03*
X299940Y196740D03*
X296290Y215580D03*
X296300Y216680D03*
X301730Y283330D03*
X300730D03*
X299730D03*
X298750Y283340D03*
X301449Y314661D03*
X296750Y331770D03*
Y332770D03*
X296270Y338360D03*
Y339360D03*
X299812Y366162D03*
X297812Y366161D03*
X297860Y363000D03*
X301540Y363820D03*
X301630Y370500D03*
X297800Y368180D03*
X305350Y184760D03*
X305130Y195470D03*
X304260Y201420D03*
X305940Y249390D03*
X306840D03*
X306726Y255767D03*
Y256767D03*
X305726Y255767D03*
Y256767D03*
X303092Y262890D03*
X304172D03*
X303162Y261000D03*
X304162D03*
X304172Y263890D03*
X303092D03*
X304162Y262000D03*
X303162D03*
X303730Y283330D03*
X302730D03*
X306920Y316470D03*
X303453Y316535D03*
X305243Y314675D03*
X307140Y334200D03*
X305540D03*
X306340D03*
X304640Y367580D03*
X310400Y192180D03*
X308090Y198430D03*
X310842Y195048D03*
X313612Y196623D03*
X309450Y240870D03*
Y241870D03*
X310350D03*
Y240870D03*
X309734Y252675D03*
Y254675D03*
X312940Y258640D03*
X312294Y255194D03*
X309689Y268591D03*
Y270591D03*
X309975Y275647D03*
X311975D03*
X312690Y313530D03*
X311700Y313438D03*
X310200Y313100D03*
X311780Y311961D03*
X313870Y313650D03*
X309330Y316828D03*
X308700Y316260D03*
X313640Y317770D03*
X308700Y315210D03*
X312480Y317730D03*
X311640Y317100D03*
X312900Y314580D03*
X313110Y315630D03*
Y316680D03*
X311560Y315288D03*
X312060Y319830D03*
X309540Y319269D03*
X308400Y323350D03*
X312270Y321689D03*
X313159D03*
X310400Y323280D03*
X312950Y323090D03*
X312680Y328480D03*
X310200Y328394D03*
X309400D03*
X313500Y328400D03*
Y332500D03*
X310950Y333970D03*
X310150D03*
X311750D03*
X313000Y342119D03*
X312920Y344070D03*
X311840Y348900D03*
X312850Y348800D03*
X313140Y347960D03*
X311810Y347810D03*
X310510Y368810D03*
X308530D03*
X316740Y184940D03*
X315090Y245925D03*
X319370Y245920D03*
X317510Y245910D03*
X314490Y255430D03*
X314410Y258080D03*
X317390Y276000D03*
Y278090D03*
X318800Y303400D03*
X319790Y313130D03*
X315400Y309400D03*
X319830Y309689D03*
X317830Y308080D03*
X316000Y315200D03*
X315980Y316990D03*
X315810Y319160D03*
X314500Y318000D03*
X319300Y316330D03*
X318300Y316950D03*
X317840Y318840D03*
X318270Y315060D03*
X314560Y319790D03*
X314400Y315300D03*
X314370Y314450D03*
X314359Y321581D03*
X318580Y322450D03*
X316150Y325420D03*
X317610Y324500D03*
X316160Y322950D03*
X318000Y330700D03*
X316189Y328710D03*
X317240Y327880D03*
X315990Y332160D03*
X319250Y332400D03*
X316300Y334881D03*
X319300Y335169D03*
X317090Y334440D03*
Y335240D03*
X317890Y334440D03*
Y335240D03*
X314870Y336502D03*
X316200Y342219D03*
X319290Y340940D03*
X316130Y344060D03*
X319230Y344090D03*
X317097Y345876D03*
X317044Y347796D03*
X313990Y348900D03*
X314070Y347940D03*
X319097Y345876D03*
X319044Y347796D03*
X319244Y351033D03*
X318572Y366341D03*
X318550Y368370D03*
X320260Y192930D03*
X324115Y198135D03*
X320370Y200980D03*
X324200Y243350D03*
X325230Y246630D03*
X321000Y247400D03*
X320400Y243700D03*
Y246400D03*
X322200Y243250D03*
X320849Y252980D03*
X325250Y248990D03*
X322864Y253133D03*
X322790Y254810D03*
X324809Y254913D03*
X322821Y257786D03*
X325200Y268700D03*
X323160Y267960D03*
X324648Y274231D03*
X325081Y277504D03*
X322648Y274231D03*
X325109Y279571D03*
X321840Y278510D03*
X322151Y282045D03*
X323900Y307610D03*
X324041Y305858D03*
X324000Y306800D03*
X321760Y306030D03*
X321770Y307620D03*
X325800Y306200D03*
X325860Y307750D03*
X323880Y309600D03*
X324000Y308600D03*
X321900Y310000D03*
X325740Y310230D03*
X325100Y319020D03*
X320700Y318809D03*
X325800Y317200D03*
X324000Y317400D03*
X322070Y318781D03*
X325801Y314961D03*
X324039Y314600D03*
X323500Y322500D03*
X322370Y321020D03*
X320900Y322500D03*
X321600Y321600D03*
X323407Y324349D03*
X320620Y324650D03*
X325106Y320856D03*
X320570Y321060D03*
X325801Y326981D03*
X325640Y330640D03*
X324100Y327400D03*
X323801Y328980D03*
X323701Y330880D03*
X325935Y328935D03*
X321300Y330220D03*
X320400Y326700D03*
X321800Y326900D03*
X323897Y334953D03*
X325575Y332815D03*
X321190Y335160D03*
Y334360D03*
X320390D03*
Y335160D03*
X323890Y333310D03*
X324074Y336810D03*
X321200Y336900D03*
X322410Y343150D03*
X324310Y339000D03*
X321170Y339060D03*
X325510Y343130D03*
X322560Y341190D03*
X325583Y341175D03*
X320612Y366301D03*
X322390Y370680D03*
X328130Y184900D03*
X329540Y192590D03*
X328114Y195846D03*
X330059Y245882D03*
X328059D03*
X327646Y258493D03*
Y260493D03*
X327393Y266537D03*
X327594Y283224D03*
X331600Y305200D03*
X328200Y305940D03*
X331510Y306870D03*
D03*
X327800Y307200D03*
Y305000D03*
X329790Y305330D03*
X329771Y306860D03*
X331550Y309160D03*
X330750D03*
X328110Y309740D03*
X327780Y308360D03*
X329100Y312900D03*
X330000Y309800D03*
X331000Y308400D03*
X331710Y313750D03*
X330650Y311100D03*
X327350Y317400D03*
X331479Y319840D03*
X329160Y319049D03*
X326950Y319139D03*
X328200Y319200D03*
X330400D03*
X331001Y317490D03*
X330100Y317800D03*
X331500Y316000D03*
Y316800D03*
X331710Y314550D03*
X327601Y315077D03*
X326601Y314961D03*
X331070Y323050D03*
X329900Y324100D03*
Y325200D03*
X329910Y323190D03*
X326260Y322620D03*
X331440Y325130D03*
X326323Y324577D03*
X326950Y320839D03*
X329760Y321121D03*
X331600Y321400D03*
X330800Y321121D03*
X328790Y327000D03*
X331600Y331600D03*
Y330600D03*
X331440Y326230D03*
X328610Y329000D03*
X329900Y333700D03*
X328790Y334070D03*
X328675Y332005D03*
X327514Y336810D03*
X329360Y336930D03*
X328870Y343120D03*
X327410Y339080D03*
X328733Y341175D03*
X331183Y341173D03*
X331579Y349387D03*
Y347387D03*
X333370Y196455D03*
X337800Y201380D03*
X337130Y243880D03*
Y244880D03*
X336230D03*
Y243880D03*
X336160Y252240D03*
Y251240D03*
X337060Y252240D03*
Y251240D03*
X333417Y274219D03*
X333663Y280542D03*
X334570Y305220D03*
X336290Y306840D03*
X336281Y305330D03*
X335430Y313730D03*
X333176Y311184D03*
X335700Y311260D03*
X335400Y319300D03*
X333200Y317770D03*
X335000Y318000D03*
X332800Y315800D03*
Y316600D03*
X335400Y315900D03*
Y316700D03*
X337750Y315960D03*
X336930Y318190D03*
X335430Y314530D03*
X333479Y319660D03*
X336920Y322420D03*
X336630Y320460D03*
X332250Y325220D03*
X336920Y324420D03*
X332600Y331600D03*
Y330600D03*
X332250Y326020D03*
X336300Y328120D03*
X332380Y333730D03*
X334700Y333840D03*
X335400Y332000D03*
X336320Y333720D03*
X335120Y340340D03*
X335000Y338379D03*
X333662Y349539D03*
Y351539D03*
X336060Y368720D03*
X339620Y184480D03*
X340310Y193140D03*
X341350Y198310D03*
X343216Y244400D03*
X342799Y248591D03*
X340799D03*
X342442Y274241D03*
X340442D03*
X340438Y280495D03*
X338330Y305200D03*
X338360Y307030D03*
X341700Y305119D03*
Y307519D03*
X341260Y309390D03*
X337990Y309420D03*
X340800Y311284D03*
X338600D03*
X342350Y311290D03*
X342500Y318000D03*
X338060Y314010D03*
X342000Y314990D03*
Y314190D03*
X343300Y318000D03*
X339380Y318250D03*
X340620Y319490D03*
X339760Y314740D03*
Y315540D03*
X338500Y322200D03*
X338380Y325400D03*
X340370Y320280D03*
X340220Y324060D03*
X339550Y320220D03*
X339420Y324060D03*
X343030Y324250D03*
X343830D03*
X343820Y320290D03*
X338500Y328900D03*
X340940Y328930D03*
X341740D03*
X338200Y329700D03*
X338190Y327170D03*
X339840Y330880D03*
X340100Y327250D03*
X339300D03*
X339040Y330880D03*
X342900Y326830D03*
X343700D03*
X343240Y330700D03*
X341113Y334777D03*
X338800Y334600D03*
X341360Y336720D03*
X341190Y340390D03*
X338130Y340410D03*
X338200Y338380D03*
X341050Y338379D03*
X338080Y368670D03*
X345240Y196135D03*
X345216Y244400D03*
X348209Y250512D03*
X347537Y258996D03*
X346100Y255560D03*
X348159Y255430D03*
X345552Y258580D03*
X345554Y267864D03*
X348612Y279283D03*
X348829Y283370D03*
X345430Y280499D03*
X345850Y309230D03*
X344260Y309200D03*
X345350Y311210D03*
X346150D03*
X349150Y316570D03*
Y315770D03*
Y314970D03*
X349500Y319880D03*
X344100Y315580D03*
Y314780D03*
X344170Y319560D03*
X347270Y316260D03*
Y317060D03*
Y315460D03*
X349550Y322230D03*
X347750Y324820D03*
X349830Y325010D03*
X347380Y321020D03*
Y321820D03*
X347700Y326940D03*
X349200Y331290D03*
X349190Y328910D03*
X344140Y328930D03*
X344040Y330700D03*
X347530Y329250D03*
X347430Y330050D03*
Y330850D03*
X347731Y336950D03*
X344400Y335000D03*
X345790Y336970D03*
X348070Y366390D03*
X346032Y366381D03*
X349850Y370720D03*
X345970Y368400D03*
X354840Y184830D03*
X350120Y193060D03*
X351290Y197430D03*
X354630Y201530D03*
X353037Y244362D03*
X350820Y244279D03*
X350365Y250596D03*
X353040Y258500D03*
X350975Y258542D03*
X350574Y266102D03*
X350759Y271703D03*
X350526Y268159D03*
X355799Y277199D03*
X350820Y283370D03*
X350900Y279000D03*
X355834Y279204D03*
X353299Y310899D03*
X354299Y309899D03*
Y310899D03*
X353299Y309899D03*
X351700Y319900D03*
X351900Y325130D03*
X354720Y385440D03*
X354620Y387550D03*
X354650Y386500D03*
X360030Y193480D03*
X358045Y198655D03*
X357987Y244456D03*
X355987D03*
X361169Y250948D03*
X361227Y259939D03*
X361124Y266316D03*
X361220Y275714D03*
X363930Y184730D03*
X362640Y196035D03*
X363320Y250940D03*
X365100Y253134D03*
X363157Y259957D03*
X365100Y255134D03*
X363124Y266338D03*
X361982Y269762D03*
X363020Y275760D03*
X367535Y283767D03*
X366535D03*
X365535D03*
Y285767D03*
X366535D03*
X367535D03*
Y284767D03*
X366535D03*
X365535D03*
X365299Y310399D03*
X366299D03*
Y309399D03*
X365299D03*
X362670Y357440D03*
X366180Y357600D03*
X364510Y366220D03*
X362530Y366240D03*
X366300Y370570D03*
X362490Y368200D03*
X370520Y193020D03*
X371830Y199220D03*
X369052Y196542D03*
X373210Y197130D03*
X371540Y204050D03*
X368535Y283767D03*
Y285767D03*
Y284767D03*
X373853Y298724D03*
X371293Y308905D03*
X368330Y358330D03*
X368500Y356770D03*
X373210Y361030D03*
X370570Y366570D03*
X373770Y363080D03*
X375240Y184760D03*
X376910Y221940D03*
X379140Y253540D03*
X375510Y261030D03*
X375300Y267840D03*
X377127Y298721D03*
X374990Y306390D03*
X376992Y303314D03*
X377013Y306392D03*
X374600Y318460D03*
X375500D03*
X378181Y331296D03*
X374018Y326741D03*
X376460Y337101D03*
X373969Y332324D03*
X374370Y337004D03*
X378803Y342531D03*
Y344531D03*
X379680Y349680D03*
X374060Y350400D03*
X376010Y361240D03*
X378740Y362700D03*
X378890Y378100D03*
X381190Y193550D03*
X385630Y193240D03*
X385720Y197380D03*
X382770Y196160D03*
X380740Y219260D03*
X384650Y241080D03*
X382690Y238130D03*
X382710Y241010D03*
X380830Y242820D03*
X385100Y249320D03*
Y251290D03*
X385110Y270940D03*
X381560Y273860D03*
X382790Y273840D03*
X382780Y274920D03*
X381670Y274950D03*
X380660Y292826D03*
X383426Y290824D03*
X380660Y294826D03*
X380286Y305959D03*
Y303959D03*
X382276Y314075D03*
X380076Y317977D03*
Y318977D03*
X381076Y317977D03*
Y318977D03*
X380276Y314075D03*
X380157Y323879D03*
Y321879D03*
X380165Y331159D03*
X384388Y330942D03*
X382265Y331397D03*
X382333Y333534D03*
X383426Y344784D03*
X384970Y363530D03*
X384760Y371630D03*
X381390Y378030D03*
X381260Y391170D03*
X385440Y387160D03*
X391180Y198450D03*
X387240Y201530D03*
X385950Y237270D03*
X386650Y239540D03*
X386640Y242480D03*
X389060Y251230D03*
X386090Y250350D03*
X390990Y249290D03*
X389640Y259370D03*
X391020Y257020D03*
X390990Y261130D03*
X391000Y265090D03*
X391080Y268790D03*
X389030Y268980D03*
X389020Y270980D03*
X389080Y272900D03*
X387040Y272940D03*
X390980Y272910D03*
X388410Y295440D03*
X387917Y296340D03*
X389599Y302599D03*
X386383Y306375D03*
X387599Y302599D03*
X387960Y308150D03*
X387950Y310137D03*
X386644Y328964D03*
X386358Y331837D03*
X386653Y326865D03*
X388024Y334292D03*
X386550Y337410D03*
X386560Y339600D03*
X388201Y342435D03*
Y344435D03*
X390350Y363500D03*
X391240Y368570D03*
X390410Y390530D03*
X393070Y199540D03*
X395450Y205120D03*
X392970Y247240D03*
X394170Y242420D03*
X393700Y244920D03*
X395360Y252530D03*
X392980Y249260D03*
X392960Y251290D03*
X394990Y254110D03*
X392530Y254540D03*
X391910Y271800D03*
X395990Y266250D03*
X393880Y269960D03*
X393900Y272040D03*
X395267Y295196D03*
X394249Y295208D03*
X394220Y296461D03*
X395238Y296449D03*
X396731Y304132D03*
X394024Y308957D03*
X396024D03*
X396050Y326890D03*
X395975Y332286D03*
X396063Y337119D03*
X396030Y339380D03*
X394578Y342538D03*
Y344538D03*
X396050Y350650D03*
X396210Y363430D03*
X393220Y368620D03*
X394770Y391670D03*
X394220Y394750D03*
X399710Y184840D03*
X398550Y196020D03*
X402120Y196350D03*
X403000Y200980D03*
X400750Y261040D03*
X400890Y263090D03*
X398900Y265080D03*
X401842Y291045D03*
X399842D03*
X400295Y294795D03*
X401617Y302132D03*
X400080Y306262D03*
X401384Y304175D03*
X399689Y311259D03*
Y310259D03*
X402480Y317200D03*
X403490Y317480D03*
X403290Y318460D03*
X402490Y318140D03*
X399087Y329470D03*
X403569Y342480D03*
X401480Y346350D03*
X403569Y344480D03*
X399560Y349760D03*
X401750Y349870D03*
X399383Y346411D03*
X403220Y366287D03*
X401260Y366280D03*
X401270Y368240D03*
X400354Y384090D03*
X407010Y197890D03*
X408592Y296401D03*
X408609Y301507D03*
X408592Y298401D03*
X407390Y306740D03*
X408609Y303507D03*
X405390Y306740D03*
X408635Y311370D03*
Y309370D03*
X408689Y318059D03*
X409689D03*
Y317059D03*
X408689D03*
X405926Y324110D03*
Y322110D03*
X403921Y329676D03*
Y331676D03*
X406520Y350080D03*
X405070Y370630D03*
X411960Y185200D03*
X410060Y193790D03*
X412942Y196803D03*
X410117Y324527D03*
X410770Y331060D03*
X410117Y326527D03*
X410660Y333450D03*
X412800Y334800D03*
X410300Y334900D03*
X410061Y337298D03*
Y339298D03*
X412613Y370019D03*
X410370Y382400D03*
X421780Y184890D03*
X417500Y193160D03*
X418110Y196480D03*
X418860Y201410D03*
X420240Y385050D03*
X420200Y387190D03*
X420160Y386110D03*
X421900Y198240D03*
X423220Y251530D03*
X427410Y259310D03*
X427440Y258100D03*
X427430Y261370D03*
X422240Y352780D03*
X422200Y372170D03*
X424940Y393130D03*
X422390Y398430D03*
X427970Y187040D03*
X428410Y258060D03*
X428450Y259250D03*
X433060Y262440D03*
X432970Y275020D03*
X430550Y331550D03*
X431640Y350010D03*
X433840Y191010D03*
X436030Y271370D03*
X434040Y283500D03*
X436410Y292460D03*
X436490Y290480D03*
X436360Y306880D03*
X436980Y324360D03*
X437700Y335800D03*
X436210Y350090D03*
X433970Y350070D03*
X438560Y350000D03*
X439770Y360290D03*
X439670Y361540D03*
X438740Y361530D03*
X438770Y360210D03*
X444390Y191500D03*
X443540Y212970D03*
X444750Y257845D03*
Y255345D03*
X440540Y275010D03*
X443120Y283570D03*
X440880Y283470D03*
X440920Y319280D03*
X440260Y342970D03*
X441240Y342890D03*
X441170Y344110D03*
X440280Y344140D03*
X440970Y350050D03*
X447580Y249270D03*
X449930Y253550D03*
X447650Y257845D03*
X449770Y256830D03*
X450970Y256760D03*
X450940Y257790D03*
X449650Y257845D03*
X445943Y264018D03*
X446010Y261780D03*
X446020Y266140D03*
X449220Y271350D03*
X445900Y276960D03*
X449680Y275740D03*
X449370Y279180D03*
X451500Y289679D03*
X451080Y293450D03*
X446790Y318180D03*
X449820Y349900D03*
X448780Y367160D03*
X451800Y249310D03*
X453345Y264550D03*
X455840Y264350D03*
X455500Y289679D03*
X455650Y284500D03*
X455580Y293120D03*
X452800Y319380D03*
X457030Y324160D03*
X454480Y329020D03*
X456150Y334280D03*
X455210Y343400D03*
X456320Y343490D03*
X454770Y339250D03*
X456740Y349890D03*
X456290Y344450D03*
X455170Y344420D03*
X454390Y349980D03*
X452150Y349960D03*
X455680Y361780D03*
X456710D03*
X455640Y360750D03*
X456630Y360720D03*
X457860Y265170D03*
X459050Y265180D03*
X463410Y271430D03*
X457880Y266470D03*
X459060Y266460D03*
X460240Y277010D03*
X463280Y275930D03*
X463360Y273710D03*
X458930Y273680D03*
X460210Y279366D03*
X461220Y279450D03*
X461180Y280460D03*
X460150Y280520D03*
X459500Y289679D03*
X463500D03*
X463470Y293310D03*
X458750Y293360D03*
X458780Y294260D03*
X457840Y293290D03*
X457860Y294230D03*
X459150Y349940D03*
X467060Y273510D03*
X465520Y322200D03*
X467710Y328610D03*
X467750Y338890D03*
X466780Y343500D03*
X465200Y359920D03*
X467430Y363560D03*
X475588Y234527D03*
X470408Y269840D03*
X473030Y269680D03*
X470408Y273383D03*
X473590Y273350D03*
X473000Y283590D03*
X471020Y333360D03*
G54D24*
X310354Y223790D03*
X320354D03*
X330354D03*
X340354D03*
X350354D03*
G54D16*
X123303Y366944D03*
X147803D03*
G54D25*
X313478Y269490D03*
X315839Y269525D03*
X355808Y258454D03*
X351318Y274642D03*
X356959Y268536D03*
X385027Y294789D03*
X384992Y297150D03*
G54D26*
X312632Y329062D03*
X313578Y330799D03*
X317668Y339856D03*
X321168Y339469D03*
G54D17*
X135303Y385066D03*
G54D18*
X135346Y276562D03*
Y321562D03*
G54D27*
X312632Y329455D03*
X313578Y330406D03*
X317668Y339463D03*
X321168Y339076D03*
G54D19*
X147354Y268058D03*
Y330066D03*
G54D28*
X360354Y223790D03*
G54D29*
X476172Y293277D03*
Y317687D03*
M02*
