G04 ================== begin FILE IDENTIFICATION RECORD ==================*
G04 Layout Name:  BEAGLEV-AHEAD V11_no_logo.brd*
G04 Film Name:    art08*
G04 File Format:  Gerber RS274X*
G04 File Origin:  Cadence Allegro 17.4-S035*
G04 Origin Date:  Wed Jul 12 11:35:01 2023*
G04 *
G04 Layer:  VIA CLASS/L8_PWR*
G04 Layer:  PIN/L8_PWR*
G04 Layer:  ETCH/L8_PWR*
G04 *
G04 Offset:    (0.00 0.00)*
G04 Mirror:    No*
G04 Mode:      Positive*
G04 Rotation:  0*
G04 FullContactRelief:  No*
G04 UndefLineWidth:     5.00*
G04 ================== end FILE IDENTIFICATION RECORD ====================*
%FSLAX25Y25*MOIN*%
%IR0*IPPOS*OFA0.00000B0.00000*MIA0B0*SFA1.00000B1.00000*%
%ADD25C,.01*%
%ADD22C,.06*%
%ADD24C,.075*%
%ADD23R,.06X.06*%
%ADD10C,.02362*%
%ADD13C,.04724*%
%ADD26R,.075X.075*%
%ADD12C,.07087*%
%ADD20C,.06299*%
%ADD17O,.15748X.07874*%
%ADD16O,.07874X.15748*%
%ADD19C,.1063*%
%ADD15C,.008*%
%ADD18C,.12795*%
%ADD14O,.0374X.07087*%
%ADD11O,.09843X.0374*%
%ADD21C,.19685*%
%ADD27O,.08661X.03937*%
%ADD28C,.02*%
%ADD29C,.003*%
%ADD30C,.0021*%
%ADD39C,.01404*%
%ADD36C,.01604*%
%ADD35C,.06006*%
%ADD37C,.07204*%
%ADD45C,.09104*%
%ADD41C,.07502*%
%ADD38C,.07604*%
%ADD44C,.03366*%
%ADD43C,.07902*%
%ADD42C,.0869*%
%ADD31O,.09478X.17352*%
%ADD32O,.09078X.16952*%
%ADD34C,.1504*%
%ADD46O,.01804X.04104*%
%ADD40C,.12234*%
%ADD33C,.14872*%
G75*
%LPD*%
G75*
G36*
G01X103985Y251762D02*
X104366Y251941D01*
X104480Y251926D01*
X104525Y251889D01*
G03X106100Y251322I1575J1904D01*
G01X112204D01*
G03X112782Y251390I2J2471D01*
G01X112848Y251406D01*
X112970Y251352D01*
X113192Y250958D01*
G02X113158Y250718I-175J-98D01*
G01X106469Y244029D01*
G03X106410Y243887I141J-142D01*
G01Y209333D01*
G03X106469Y209191I200J0D01*
G01X110101Y205559D01*
G03X110243Y205500I142J141D01*
G01X112807D01*
G02X112949Y205441I0J-200D01*
G01X114201Y204189D01*
G03X114343Y204130I142J141D01*
G01X117305D01*
G02X117479Y204029I0J-200D01*
G01X117678Y203681D01*
X117677Y203574D01*
X117650Y203528D01*
G03X117310Y202278I2132J-1251D01*
G01Y198930D01*
G03X121037Y196801I2472J0D01*
G01X121084Y196829D01*
X121191D01*
X121539Y196630D01*
G02X121640Y196457I-99J-174D01*
G01Y185313D01*
G03X121699Y185171I200J0D01*
G01X125791Y181079D01*
G03X125933Y181020I142J141D01*
G01X186707D01*
G03X186849Y181079I0J200D01*
G01X189491Y183721D01*
G03X189550Y183863I-141J142D01*
G01Y199009D01*
G02X189722Y199207I200J0D01*
G01X190188Y199274D01*
X190312Y199194D01*
X190334Y199121D01*
G03X200354Y191622I10020J2945D01*
G03X210798Y202066I0J10444D01*
G03X210699Y203503I-10444J2D01*
G01X210697Y203516D01*
Y203530D01*
G02X210897Y203730I200J0D01*
G01X210917D01*
G02X211059Y203671I0J-200D01*
G01X211381Y203349D01*
G02X211440Y203207I-141J-142D01*
G01Y184083D01*
G03X211499Y183941I200J0D01*
G01X214361Y181079D01*
G03X214503Y181020I142J141D01*
G01X439007D01*
G03X439149Y181079I0J200D01*
G01X440691Y182621D01*
G02X440833Y182680I142J-141D01*
G01X443687D01*
G03X443829Y182739I0J200D01*
G01X449101Y188011D01*
G03X449160Y188153I-141J142D01*
G01Y218427D01*
G02X449219Y218569I200J0D01*
G01X450396Y219746D01*
G02X450655Y219767I142J-141D01*
G01X451035Y219491D01*
X451069Y219349D01*
X451036Y219283D01*
G03X449910Y214566I9317J-4717D01*
G03X470798I10444J0D01*
G03X464520Y224143I-10444J0D01*
G01X464454Y224172D01*
X464389Y224297D01*
X464483Y224751D01*
G02X464679Y224910I196J-41D01*
G01X480777D01*
G02X480919Y224851I0J-200D01*
G01X481361Y224409D01*
G02X481420Y224267I-141J-142D01*
G01Y223377D01*
G02X481413Y223324I-200J-1D01*
G01X481242Y222707D01*
G03X481239Y222693I194J-49D01*
G01X480430Y218710D01*
X479574Y214540D01*
G02X479562Y214501I-196J39D01*
G01X477391Y209512D01*
G02X477389Y209508I-180J87D01*
G01X474946Y204203D01*
G02X474932Y204178I-181J85D01*
G01X470059Y196734D01*
G02X470039Y196708I-168J109D01*
G01X465657Y191968D01*
G02X465642Y191953I-149J134D01*
G01X461443Y188282D01*
G02X461415Y188261I-133J149D01*
G01X454569Y184145D01*
G02X454551Y184136I-98J174D01*
G01X449477Y181768D01*
G02X449442Y181755I-87J180D01*
G01X443195Y180161D01*
G03X443185Y180158I52J-193D01*
G01X440459Y179296D01*
G02X440420Y179288I-59J191D01*
G01X437600Y178980D01*
X435154Y178710D01*
X435146D01*
X433913Y178620D01*
X433907D01*
X433151Y178590D01*
X433149D01*
X432523Y178570D01*
X127886D01*
X127874D01*
X127202Y178610D01*
X127198D01*
X125725Y178720D01*
G02X125715Y178721I15J199D01*
G01X124282Y178900D01*
X124278D01*
X123656Y178968D01*
G02X123624Y178974I21J199D01*
G01X123143Y179109D01*
G02X123137Y179111I60J191D01*
G01X122170Y179410D01*
X119727Y180158D01*
G02X119713Y180163I60J191D01*
G01X117716Y180944D01*
G02X117686Y180959I74J185D01*
G01X116386Y181736D01*
G03X116373Y181743I-101J-172D01*
G01X115587Y182136D01*
G02X115573Y182144I92J178D01*
G01X114928Y182535D01*
G02X114912Y182546I105J170D01*
G01X111899Y184784D01*
G02X111882Y184797I113J165D01*
G01X111132Y185492D01*
G02X111117Y185508I138J144D01*
G01X109226Y187703D01*
G02X109214Y187718I150J132D01*
G01X107217Y190560D01*
G02X107204Y190581I163J116D01*
G01X106174Y192532D01*
G02X106167Y192548I179J88D01*
G01X105402Y194374D01*
G02X105398Y194386I188J69D01*
G01X104853Y195952D01*
G02X104848Y195969I189J65D01*
G01X104560Y197109D01*
Y197111D01*
X104261Y198335D01*
G02X104259Y198345I195J44D01*
G01X104191Y198706D01*
G02X104189Y198714I192J52D01*
G01X104140Y199060D01*
Y199070D01*
X104094Y199235D01*
G02X104088Y199265I193J54D01*
G01X104050Y199587D01*
G02X104146Y199782I199J23D01*
G01X104511Y200000D01*
X104629Y199996D01*
X104678Y199961D01*
G03X106100Y199510I1423J2021D01*
G01X112204D01*
G03Y204454I0J2472D01*
G01X106100D01*
G03X104525Y203886I1J-2472D01*
G01X104480Y203849D01*
X104366Y203834D01*
X103985Y204013D01*
G02X103870Y204194I85J181D01*
G01Y251581D01*
G02X103985Y251762I200J0D01*
G37*
G36*
G01X126841Y415540D02*
X432507D01*
G02X432535Y415538I0J-200D01*
G01X438526Y414671D01*
G02X438534Y414669I-44J-194D01*
G01X444887Y413512D01*
G02X444913Y413506I-32J-197D01*
G01X451024Y411535D01*
G02X451055Y411522I-62J-190D01*
G01X458356Y407727D01*
G02X458383Y407711I-88J-180D01*
G01X464315Y403341D01*
G02X464342Y403317I-119J-161D01*
G01X471564Y395657D01*
G02X471592Y395620I-145J-139D01*
G01X476963Y386292D01*
G02X476975Y386268I-172J-101D01*
G01X479674Y379694D01*
G02X479684Y379666I-183J-81D01*
G01X481189Y373546D01*
G02X481191Y373534I-196J-39D01*
G01X481519Y371766D01*
G02X481521Y371754I-196J-39D01*
G01X481670Y370562D01*
Y370558D01*
X481690Y370370D01*
X481700Y370340D01*
X481710Y370300D01*
Y370013D01*
G02X481651Y369871I-200J0D01*
G01X481299Y369519D01*
G02X481157Y369460I-142J141D01*
G01X465190D01*
G02X464995Y369614I0J200D01*
G01X464890Y370062D01*
X464948Y370187D01*
X465011Y370218D01*
G03X470798Y379566I-4657J9348D01*
G03X449910I-10444J0D01*
G03X450166Y377268I10444J0D01*
G01X450181Y377202D01*
X450126Y377081D01*
X449731Y376863D01*
G02X449493Y376897I-96J175D01*
G01X448419Y377971D01*
G02X448360Y378113I141J142D01*
G01Y404047D01*
G03X448301Y404189I-200J0D01*
G01X444369Y408121D01*
G03X444227Y408180I-142J-141D01*
G01X436753D01*
G02X436611Y408239I0J200D01*
G01X431829Y413021D01*
G03X431687Y413080I-142J-141D01*
G01X213943D01*
G03X213801Y413021I0J-200D01*
G01X211329Y410549D01*
G03X211270Y410407I141J-142D01*
G01Y391133D01*
G02X211211Y390991I-200J0D01*
G01X211199Y390979D01*
G02X211057Y390920I-142J141D01*
G01X210956D01*
G02X210756Y391120I0J200D01*
G01Y391129D01*
X210757Y391138D01*
G03X210798Y392066I-10403J925D01*
G03X189910I-10444J0D01*
G03X189935Y391347I10444J3D01*
G01X189938Y391306D01*
X189910Y391228D01*
X189682Y390984D01*
G02X189536Y390920I-147J136D01*
G01X189433D01*
G02X189291Y390979I0J200D01*
G01X189149Y391121D01*
G02X189090Y391263I141J142D01*
G01Y410437D01*
G03X189031Y410579I-200J0D01*
G01X186589Y413021D01*
G03X186447Y413080I-142J-141D01*
G01X122803D01*
G03X122661Y413021I0J-200D01*
G01X122038Y412398D01*
G02X122022Y412383I-145J138D01*
G01X120028Y410777D01*
G03X120012Y410762I129J-153D01*
G01X119510Y410260D01*
X119389Y410238D01*
X119332Y410263D01*
G03X115463Y406426I-1192J-2667D01*
G01X115480Y406387D01*
Y405093D01*
G02X115421Y404951I-200J0D01*
G01X106539Y396069D01*
G03X106480Y395927I141J-142D01*
G01Y363993D01*
G03X106539Y363851I200J0D01*
G01X113441Y356949D01*
G02X113500Y356807I-141J-142D01*
G01Y332533D01*
G02X113441Y332391I-200J0D01*
G01X106549Y325499D01*
G03X106490Y325357I141J-142D01*
G01Y268233D01*
G03X106549Y268091I200J0D01*
G01X113811Y260829D01*
G03X113953Y260770I142J141D01*
G01X121397D01*
G02X121539Y260711I0J-200D01*
G01X123681Y258569D01*
G02X123740Y258427I-141J-142D01*
G01Y254893D01*
G02X123681Y254751I-200J0D01*
G01X122595Y253665D01*
G02X122377Y253621I-142J141D01*
G01X122320Y253645D01*
X122254Y253745D01*
Y256806D01*
G03X117310I-2472J0D01*
G01Y253458D01*
G03X117658Y252195I2472J2D01*
G01X117686Y252148D01*
X117687Y252041D01*
X117488Y251691D01*
G02X117314Y251590I-174J99D01*
G01X114438D01*
G02X114258Y251704I1J200D01*
G01X114077Y252082D01*
X114091Y252196D01*
X114127Y252241D01*
G03X112204Y256264I-1924J1552D01*
G01X106100D01*
G03X104525Y255697I0J-2471D01*
G01X104480Y255660D01*
X104366Y255645D01*
X103985Y255824D01*
G02X103870Y256005I85J181D01*
G01Y392407D01*
G02X103929Y392549I200J0D01*
G01X103960Y392580D01*
Y392620D01*
X103970Y392630D01*
X104000Y392703D01*
Y392730D01*
X104159Y394127D01*
G02X104163Y394152I199J-19D01*
G01X104660Y396168D01*
Y396172D01*
X105067Y397968D01*
G02X105074Y397992I195J-44D01*
G01X106488Y401865D01*
G02X106492Y401875I188J-69D01*
G01X106703Y402374D01*
G02X106720Y402405I183J-80D01*
G01X109460Y406604D01*
G02X109483Y406634I169J-106D01*
G01X111401Y408631D01*
G02X111420Y408648I143J-140D01*
G01X112729Y409709D01*
G02X112731Y409711I142J-140D01*
G01X115327Y411779D01*
G02X115355Y411798I126J-155D01*
G01X117474Y412967D01*
G02X117486Y412973I95J-176D01*
G01X119537Y413934D01*
G02X119564Y413944I83J-182D01*
G01X122062Y414708D01*
G02X122078Y414712I57J-192D01*
G01X123479Y415020D01*
X123481D01*
X125071Y415348D01*
G02X125089Y415351I42J-196D01*
G01X126819Y415539D01*
G02X126841Y415540I20J-199D01*
G37*
G36*
G01X123707Y272960D02*
G03X115017I-4345J0D01*
G03X117054Y269279I4344J0D01*
G01X117111Y269243D01*
X117158Y269119D01*
X117034Y268685D01*
G02X116841Y268540I-192J55D01*
G01X115573D01*
G02X115431Y268599I0J200D01*
G01X112859Y271171D01*
G02X112800Y271313I141J142D01*
G01Y324167D01*
G02X112859Y324309I200J0D01*
G01X114347Y325797D01*
G02X114571Y325837I141J-142D01*
G01X114970Y325655D01*
X115034Y325547D01*
X115029Y325485D01*
G03X115017Y325164I4333J-323D01*
G03X119362Y329509I4345J0D01*
G03X119041Y329497I2J-4345D01*
G01X118979Y329492D01*
X118871Y329556D01*
X118689Y329955D01*
G02X118729Y330179I182J83D01*
G01X119041Y330491D01*
G03X119100Y330633I-141J142D01*
G01Y358027D01*
G03X119041Y358169I-200J0D01*
G01X109399Y367811D01*
G02X109340Y367953I141J142D01*
G01Y394597D01*
G02X109399Y394739I200J0D01*
G01X114543Y399883D01*
G02X114760Y399926I141J-142D01*
G01X115102Y399785D01*
G02X115226Y399601I-76J-185D01*
G01Y399600D01*
G03X118145Y402518I2914J4D01*
G01X118143D01*
G02X117959Y402642I1J200D01*
G01X117818Y402984D01*
G02X117861Y403201I185J76D01*
G01X120013Y405353D01*
G02X120025Y405364I141J-142D01*
G03X120372Y405711I-1885J2232D01*
G02X120383Y405723I153J-129D01*
G01X124901Y410241D01*
G02X125043Y410300I142J-141D01*
G01X184577D01*
G02X184719Y410241I0J-200D01*
G01X185091Y409869D01*
G02X185150Y409727I-141J-142D01*
G01Y383133D01*
G03X185209Y382991I200J0D01*
G01X189661Y378539D01*
G03X189803Y378480I142J141D01*
G01X192647D01*
G02X192789Y378421I0J-200D01*
G01X194011Y377199D01*
G03X194153Y377140I142J141D01*
G01X206807D01*
G03X206949Y377199I0J200D01*
G01X215191Y385441D01*
G03X215250Y385583I-141J142D01*
G01Y407917D01*
G02X215309Y408059I200J0D01*
G01X217491Y410241D01*
G02X217633Y410300I142J-141D01*
G01X430457D01*
G02X430599Y410241I0J-200D01*
G01X435411Y405429D01*
G03X435553Y405370I142J141D01*
G01X442937D01*
G02X443079Y405311I0J-200D01*
G01X445311Y403079D01*
G02X445370Y402937I-141J-142D01*
G01Y372303D01*
G03X445429Y372161I200J0D01*
G01X453341Y364249D01*
G03X453483Y364190I142J141D01*
G01X480237D01*
G02X480379Y364131I0J-200D01*
G01X481651Y362859D01*
G02X481710Y362717I-141J-142D01*
G01Y229973D01*
G02X481651Y229831I-200J0D01*
G01X481119Y229299D01*
G02X480977Y229240I-142J141D01*
G01X453393D01*
G03X453251Y229181I0J-200D01*
G01X445349Y221279D01*
G03X445290Y221137I141J-142D01*
G01Y189083D01*
G02X445231Y188941I-200J0D01*
G01X443459Y187169D01*
G02X443317Y187110I-142J141D01*
G01X441073D01*
G03X440931Y187051I0J-200D01*
G01X437769Y183889D01*
G02X437627Y183830I-142J141D01*
G01X217883D01*
G02X217741Y183889I0J200D01*
G01X215459Y186171D01*
G02X215400Y186313I141J142D01*
G01Y209807D01*
G03X215341Y209949I-200J0D01*
G01X208549Y216741D01*
G03X208407Y216800I-142J-141D01*
G01X192283D01*
G03X192141Y216741I0J-200D01*
G01X185429Y210029D01*
G03X185370Y209887I141J-142D01*
G01Y186493D01*
G02X185311Y186351I-200J0D01*
G01X182849Y183889D01*
G02X182707Y183830I-142J141D01*
G01X131723D01*
G02X131581Y183889I0J200D01*
G01X131189Y184281D01*
G02X131130Y184423I141J142D01*
G01Y201957D01*
G03X131071Y202099I-200J0D01*
G01X117679Y215491D01*
G02X117620Y215633I141J142D01*
G01Y245387D01*
G02X117679Y245529I200J0D01*
G01X118581Y246431D01*
G02X118723Y246490I142J-141D01*
G01X122587D01*
G03X122729Y246549I0J200D01*
G01X128781Y252601D01*
G03X128840Y252743I-141J142D01*
G01Y264037D01*
G03X128781Y264179I-200J0D01*
G01X124479Y268481D01*
G03X124337Y268540I-142J-141D01*
G01X121883D01*
G02X121690Y268685I-1J200D01*
G01X121566Y269119D01*
X121613Y269243D01*
X121670Y269279D01*
G03X123707Y272960I-2307J3681D01*
G37*
%LPC*%
G75*
G36*
G01X341599Y337794D02*
G03X341661Y337463I137J-146D01*
G02X342162Y336720I-300J-743D01*
G02X341360Y335918I-802J0D01*
G02X340708Y336253I0J802D01*
G03X340562Y336336I-163J-116D01*
G01X340258Y336360D01*
G03X340101Y336303I-17J-199D01*
G01X339441Y335643D01*
G03X339382Y335501I141J-142D01*
G01Y332081D01*
G03X339444Y331936I200J0D01*
G01X339653Y331736D01*
G03X339801Y331681I138J145D01*
G02X339840Y331682I40J-801D01*
G02Y330078I0J-802D01*
G02X339527Y330142I1J802D01*
G01X339464Y330169D01*
G02X339339Y330108I-424J711D01*
G03X339270Y330063I72J-187D01*
G01X338301Y329093D01*
G03X338242Y328951I141J-142D01*
G01Y328255D01*
G03X338347Y328079I200J0D01*
G01X338657Y327912D01*
G03X338861Y327921I94J176D01*
G02X339300Y328052I439J-670D01*
G02X339620Y327985I-1J-801D01*
G03X339780I80J184D01*
G02X340100Y328052I321J-734D01*
G02Y326448I0J-802D01*
G02X339780Y326515I1J801D01*
G03X339620I-80J-184D01*
G02X339300Y326448I-321J734D01*
G02X338861Y326579I0J801D01*
G03X338657Y326588I-110J-167D01*
G01X338347Y326421D01*
G03X338242Y326245I95J-176D01*
G01Y325718D01*
G02X338042Y325518I-200J0D01*
G01X337898D01*
G03X337720Y325409I0J-200D01*
G01X337532Y325043D01*
X337540Y324932D01*
X337573Y324886D01*
G02X337722Y324420I-654J-466D01*
G02X336920Y323618I-802J0D01*
G02X336561Y323703I0J801D01*
G03X336366Y323694I-89J-179D01*
G01X336077Y323516D01*
G03X335982Y323345I105J-170D01*
G01Y322778D01*
G02X335782Y322578I-200J0D01*
G01X334328D01*
G02X334128Y322778I0J200D01*
G01Y327172D01*
G02X334328Y327372I200J0D01*
G01X335150D01*
G03X335310Y327453I-1J200D01*
G01X335530Y327748D01*
X335546Y327842D01*
X335532Y327887D01*
G02X335498Y328120I768J231D01*
G02X335915Y328823I801J0D01*
G01X335963Y328849D01*
X336018Y328943D01*
Y330818D01*
G03X335946Y330972I-200J0D01*
G01X335676Y331197D01*
X335590Y331219D01*
X335546Y331211D01*
G02X335400Y331198I-144J789D01*
G02X334598Y332000I0J802D01*
G02X334736Y332450I803J0D01*
G01X334764Y332491D01*
X334775Y332587D01*
X334624Y332986D01*
X334551Y333050D01*
X334503Y333062D01*
G02X333898Y333840I198J778D01*
G02X334700Y334642I802J0D01*
G02X335284Y334390I0J-803D01*
G01X335310Y334362D01*
X335377Y334330D01*
X335722Y334304D01*
X335793Y334326D01*
X335823Y334350D01*
G02X335918Y334413I490J-635D01*
G03X335920Y334415I-136J138D01*
G01X335965Y334441D01*
X336018Y334533D01*
Y335161D01*
G03X335959Y335303I-200J0D01*
G01X334227Y337035D01*
G02X334168Y337177I141J142D01*
G01Y338992D01*
G02X334368Y339192I200J0D01*
G01X341662D01*
G02X341862Y338992I0J-200D01*
G01Y338147D01*
G02X341803Y338005I-200J0D01*
G01X341678Y337881D01*
X341672Y337873D01*
G02X341599Y337794I-624J504D01*
G37*
G36*
G01X216752Y394066D02*
Y400066D01*
G02X217354Y400668I602J0D01*
G01X223354D01*
G02X223956Y400066I0J-602D01*
G01Y394066D01*
G02X223354Y393464I-602J0D01*
G01X217354D01*
G02X216752Y394066I0J602D01*
G37*
G36*
G01X131366Y389804D02*
X139240D01*
G02Y380328I0J-4738D01*
G01X131366D01*
G02Y389804I0J4738D01*
G37*
G36*
G01X473810Y295847D02*
X478534D01*
G02Y290707I0J-2570D01*
G01X473810D01*
G02Y295847I0J2570D01*
G37*
G36*
G01X216752Y204066D02*
Y210066D01*
G02X217354Y210668I602J0D01*
G01X223354D01*
G02X223956Y210066I0J-602D01*
G01Y204066D01*
G02X223354Y203464I-602J0D01*
G01X217354D01*
G02X216752Y204066I0J602D01*
G37*
G36*
G01X305024Y255767D02*
G02X305142Y256156I702J-1D01*
G03Y256378I-167J111D01*
G02X305024Y256767I584J390D01*
G02X305726Y257469I702J0D01*
G02X306115Y257351I-1J-702D01*
G03X306337I111J167D01*
G02X306726Y257469I390J-584D01*
G02X307428Y256767I0J-702D01*
G02X307310Y256378I-702J1D01*
G03Y256156I167J-111D01*
G02X307428Y255767I-584J-390D01*
G02X306726Y255065I-702J0D01*
G02X306337Y255183I1J702D01*
G03X306115I-111J-167D01*
G02X305726Y255065I-390J584D01*
G02X305024Y255767I0J702D01*
G37*
G36*
G01X256228Y256070D02*
G02X256335Y256470I801J0D01*
G03Y256670I-173J100D01*
G02X256228Y257070I694J400D01*
G02X257832I802J0D01*
G02X257725Y256670I-801J0D01*
G03Y256470I173J-100D01*
G02X257832Y256070I-694J-400D01*
G02X256228I-802J0D01*
G37*
G36*
G01X426787Y258631D02*
X426785Y258747D01*
G03X426749Y258855I-200J-7D01*
G02X426608Y259310I661J454D01*
G02X427410Y260112I802J0D01*
G02X427866Y259970I0J-803D01*
G03X428073Y259958I113J165D01*
G02X428450Y260052I377J-709D01*
G02X429252Y259250I0J-802D01*
G02X429112Y258796I-804J-1D01*
G03X429077Y258690I165J-113D01*
G01X429073Y258577D01*
G03X429101Y258468I200J-7D01*
G02X429212Y258061I-691J-407D01*
G01Y258060D01*
G02X428410Y257258I-802J0D01*
G02X427993Y257375I0J802D01*
G03X427800Y257383I-104J-171D01*
G02X427441Y257298I-359J717D01*
G01X427440D01*
G02X426638Y258100I0J802D01*
G02X426758Y258521I801J-1D01*
G03X426787Y258631I-171J104D01*
G37*
G36*
G01X302290Y262890D02*
G02X302397Y263290I801J0D01*
G03Y263490I-173J100D01*
G02X302290Y263890I694J400D01*
G02X303092Y264692I802J0D01*
G02X303553Y264546I-1J-803D01*
G03X303653Y264511I114J165D01*
G01X303763Y264502D01*
G03X303865Y264522I14J200D01*
G02X304170Y264592I306J-632D01*
G01X304172D01*
G02X304874Y263890I0J-702D01*
G02X304756Y263501I-702J1D01*
G03Y263279I167J-111D01*
G02X304874Y262890I-584J-390D01*
G02X304779Y262537I-703J0D01*
G03X304776Y262340I173J-101D01*
G02X304864Y262000I-615J-340D01*
G02X304746Y261611I-702J1D01*
G03Y261389I167J-111D01*
G02X304864Y261000I-584J-390D01*
G02X304162Y260298I-702J0D01*
G02X303847Y260373I1J703D01*
G03X303638Y260355I-90J-179D01*
G02X303162Y260198I-477J645D01*
G02X302360Y261000I0J802D01*
G02X302467Y261400I801J0D01*
G03Y261600I-173J100D01*
G02X302360Y262000I694J400D01*
G02X302418Y262300I801J1D01*
G03X302404Y262478I-185J75D01*
G02X302290Y262890I688J412D01*
G37*
G36*
G01X215538Y276410D02*
G02X215683Y276870I802J0D01*
G03X215687Y277093I-164J114D01*
G02X215558Y277530I674J436D01*
G02X217162I802J0D01*
G02X217017Y277070I-802J0D01*
G03X217013Y276847I164J-114D01*
G02X217142Y276410I-674J-436D01*
G02X215538I-802J0D01*
G37*
G36*
G01X366146Y286351D02*
G02X366924I389J-585D01*
G03X367146I111J167D01*
G02X367535Y286469I390J-584D01*
G02X367850Y286394I-1J-703D01*
G03X368059Y286412I90J179D01*
G02X368535Y286569I477J-645D01*
G02X369337Y285767I0J-802D01*
G02X369230Y285367I-801J0D01*
G03Y285167I173J-100D01*
G02Y284367I-695J-400D01*
G03Y284167I173J-100D01*
G02X369337Y283767I-694J-400D01*
G02X368535Y282965I-802J0D01*
G02X368059Y283122I1J802D01*
G03X367850Y283140I-119J-161D01*
G02X367535Y283065I-316J628D01*
G02X367146Y283183I1J702D01*
G03X366924I-111J-167D01*
G02X366146I-389J585D01*
G03X365924I-111J-167D01*
G02X365535Y283065I-390J584D01*
G02X364833Y283767I0J702D01*
G02X364951Y284156I702J-1D01*
G03Y284378I-167J111D01*
G02Y285156I585J389D01*
G03Y285378I-167J111D01*
G02X364833Y285767I584J390D01*
G02X365535Y286469I702J0D01*
G02X365924Y286351I-1J-702D01*
G03X366146I111J167D01*
G37*
G36*
G01X457038Y293290D02*
Y293291D01*
G02X457140Y293682I802J0D01*
G03X457144Y293869I-175J97D01*
G02X457058Y294230I717J362D01*
G02X457860Y295032I802J0D01*
G02X458205Y294954I0J-802D01*
G03X458389Y294960I86J180D01*
G02X458780Y295062I391J-700D01*
G02X459582Y294260I0J-802D01*
G02X459484Y293876I-802J0D01*
G03X459478Y293696I175J-96D01*
G02X459552Y293360I-726J-336D01*
G02X458750Y292558I-802J0D01*
G02X458441Y292620I0J803D01*
G03X458260Y292606I-77J-185D01*
G02X457842Y292488I-419J684D01*
G01X457840D01*
G02X457038Y293290I0J802D01*
G37*
G36*
G01X334628Y313730D02*
G02X334695Y314050I801J-1D01*
G03Y314210I-184J80D01*
G02X334628Y314530I734J321D01*
G02X336232I802J0D01*
G02X336165Y314210I-801J1D01*
G03Y314050I184J-80D01*
G02X336232Y313730I-734J-321D01*
G02X334628I-802J0D01*
G37*
G36*
G01X338958Y314740D02*
G02X339025Y315060I801J-1D01*
G03Y315220I-184J80D01*
G02X338958Y315540I734J321D01*
G02X340562I802J0D01*
G02X340495Y315220I-801J1D01*
G03Y315060I184J-80D01*
G02X340562Y314740I-734J-321D01*
G02X338958I-802J0D01*
G37*
G36*
G01X343298Y314780D02*
G02X343365Y315100I801J-1D01*
G03Y315260I-184J80D01*
G02X343298Y315580I734J321D01*
G02X344902I802J0D01*
G02X344835Y315260I-801J1D01*
G03Y315100I184J-80D01*
G02X344902Y314780I-734J-321D01*
G02X343298I-802J0D01*
G37*
G36*
G01Y319681D02*
G02X343018Y320290I522J609D01*
G02X343820Y321092I802J0D01*
G02X344622Y320315I0J-802D01*
G03X344692Y320169I200J6D01*
G02X344972Y319560I-522J-609D01*
G02X344170Y318758I-802J0D01*
G02X343368Y319535I0J802D01*
G03X343298Y319681I-200J-6D01*
G37*
G36*
G01X330224Y321695D02*
X330336D01*
G03X330439Y321723I1J200D01*
G02X330798Y321823I361J-602D01*
G01X330800D01*
G02X330907Y321815I1J-703D01*
G03X331085Y321877I31J197D01*
G02X331600Y322102I515J-477D01*
G02Y320698I0J-702D01*
G02X331493Y320706I-1J703D01*
G03X331315Y320644I-31J-197D01*
G02X330800Y320419I-515J477D01*
G02X330439Y320519I0J702D01*
G03X330336Y320547I-102J-172D01*
G01X330224D01*
G03X330121Y320519I-1J-200D01*
G02X329762Y320419I-361J602D01*
G01X329760D01*
G02Y321823I0J702D01*
G01X329762D01*
G02X330121Y321723I-2J-702D01*
G03X330224Y321695I102J172D01*
G37*
G36*
G01X340220Y323258D02*
G02X339900Y323325I1J801D01*
G03X339740I-80J-184D01*
G02X339420Y323258I-321J734D01*
G02Y324862I0J802D01*
G02X339740Y324795I-1J-801D01*
G03X339900I80J184D01*
G02X340220Y324862I321J-734D01*
G02Y323258I0J-802D01*
G37*
G36*
G01X343830Y323448D02*
G02X343510Y323515I1J801D01*
G03X343350I-80J-184D01*
G02X343030Y323448I-321J734D01*
G02Y325052I0J802D01*
G02X343350Y324985I-1J-801D01*
G03X343510I80J184D01*
G02X343830Y325052I321J-734D01*
G02Y323448I0J-802D01*
G37*
G36*
G01X330638Y325130D02*
G02X330770Y325570I803J-1D01*
G03Y325790I-168J110D01*
G02X330638Y326230I671J441D01*
G02X331440Y327032I802J0D01*
G02X331947Y326851I0J-801D01*
G03X332109Y326809I127J155D01*
G02X332250Y326822I144J-789D01*
G02X333052Y326020I0J-802D01*
G02X332985Y325700I-801J1D01*
G03Y325540I184J-80D01*
G02X333052Y325220I-734J-321D01*
G02X332250Y324418I-802J0D01*
G01X332247D01*
G02X332006Y324456I3J802D01*
G03X331845Y324438I-60J-191D01*
G02X331440Y324328I-406J693D01*
G02X330638Y325130I0J802D01*
G37*
G36*
G01X343700Y326028D02*
G02X343380Y326095I1J801D01*
G03X343220I-80J-184D01*
G02X342900Y326028I-321J734D01*
G02Y327632I0J802D01*
G02X343220Y327565I-1J-801D01*
G03X343380I80J184D01*
G02X343700Y327632I321J-734D01*
G02Y326028I0J-802D01*
G37*
G36*
G01X344040Y329898D02*
G02X343720Y329965I1J801D01*
G03X343560I-80J-184D01*
G02X343240Y329898I-321J734D01*
G02Y331502I0J802D01*
G02X343560Y331435I-1J-801D01*
G03X343720I80J184D01*
G02X344040Y331502I321J-734D01*
G02Y329898I0J-802D01*
G37*
G36*
G01X261090Y332398D02*
G02X260709Y332494I0J802D01*
G03X260516Y332492I-95J-176D01*
G02X260121Y332388I-395J698D01*
G01X260120D01*
G02Y333992I0J802D01*
G02X260501Y333896I0J-802D01*
G03X260694Y333898I95J176D01*
G02X261089Y334002I395J-698D01*
G01X261090D01*
G02Y332398I0J-802D01*
G37*
G36*
G01X310150Y334772D02*
G02X310470Y334705I-1J-801D01*
G03X310630I80J184D01*
G02X311270I320J-734D01*
G03X311430I80J184D01*
G02X311750Y334772I321J-734D01*
G02Y333168I0J-802D01*
G02X311430Y333235I1J801D01*
G03X311270I-80J-184D01*
G02X310630I-320J734D01*
G03X310470I-80J-184D01*
G02X310150Y333168I-321J734D01*
G02Y334772I0J802D01*
G37*
G36*
G01X256060Y337372D02*
X267600D01*
G02X267990Y337210I-1J-552D01*
G01X268670Y336530D01*
G02X268832Y336140I-390J-391D01*
G01Y335662D01*
G03X268882Y335530I200J0D01*
G02X269082Y335000I-602J-530D01*
G02X268857Y334443I-802J0D01*
G01X268833Y334418D01*
X268805Y334354D01*
X268786Y334059D01*
G03X268824Y333929I199J-12D01*
G01Y333928D01*
G02X268982Y333450I-644J-478D01*
G02X268180Y332648I-802J0D01*
G02X267380Y333400I0J802D01*
G01X267378Y333437D01*
X267348Y333502D01*
X267020Y333830D01*
G02X266858Y334220I390J391D01*
G01Y335309D01*
G03X266799Y335451I-200J0D01*
G01X266641Y335609D01*
G03X266499Y335668I-142J-141D01*
G01X262378D01*
X262282Y335609D01*
X262257Y335559D01*
G02X261541Y335118I-716J361D01*
G02X260740Y335885I0J802D01*
G01Y335887D01*
X260738Y335925D01*
X260706Y335994D01*
X260478Y336213D01*
G03X260340Y336268I-138J-145D01*
G01X256371D01*
G03X256229Y336209I0J-200D01*
G01X256038Y336018D01*
G03X255980Y335890I142J-141D01*
G02X255180Y335138I-800J50D01*
G02X254378Y335940I0J802D01*
G02X255130Y336740I802J0D01*
G01X255167Y336742D01*
X255232Y336772D01*
X255670Y337210D01*
G02X256060Y337372I391J-390D01*
G37*
G36*
G01X439618Y343510D02*
X439620Y343622D01*
G03X439592Y343729I-200J5D01*
G02X439478Y344140I687J412D01*
G02X440280Y344942I802J0D01*
G02X440660Y344846I0J-802D01*
G03X440837Y344840I95J176D01*
G02X441168Y344912I332J-730D01*
G01X441170D01*
G02X441972Y344110I0J-802D01*
G01Y344109D01*
G02X441863Y343706I-802J1D01*
G03X441837Y343594I174J-99D01*
G01X441843Y343479D01*
G03X441883Y343371I200J12D01*
G02X442042Y342891I-643J-479D01*
G01Y342890D01*
G02X441240Y342088I-802J0D01*
G02X440790Y342225I-2J802D01*
G03X440595Y342241I-112J-166D01*
G02X440260Y342168I-335J730D01*
G02X439458Y342970I0J802D01*
G02X439586Y343404I800J0D01*
G03X439618Y343510I-168J109D01*
G37*
G36*
G01X167718Y348410D02*
Y351210D01*
G02X169522I902J0D01*
G01Y348866D01*
G03X169581Y348724I200J0D01*
G01X174554Y343751D01*
G03X174696Y343692I142J141D01*
G01X178790D01*
G02Y341888I0J-902D01*
G01X174240D01*
G02X173603Y342153I1J901D01*
G01X167983Y347773D01*
G02X167718Y348410I636J638D01*
G37*
G36*
G01X167740Y382228D02*
G02X167287Y382368I0J803D01*
G03X167078Y382378I-113J-165D01*
G02X166690Y382278I-388J701D01*
G02Y383882I0J802D01*
G02X167143Y383742I0J-803D01*
G03X167352Y383732I113J165D01*
G02X167740Y383832I388J-701D01*
G02Y382228I0J-802D01*
G37*
G36*
G01X387499Y344435D02*
G02X388903I702J0D01*
G02X388780Y344038I-702J0D01*
G01Y344037D01*
G03X388768Y343832I165J-113D01*
G01X388933Y343519D01*
G03X389110Y343412I177J93D01*
G01X410700D01*
G02X410900Y343212I0J-200D01*
G01Y331899D01*
G03X411027Y331713I200J0D01*
G02Y330407I-257J-653D01*
G03X410900Y330221I73J-186D01*
G01Y293788D01*
G02X410700Y293588I-200J0D01*
G01X362952D01*
G03X362752Y293388I0J-200D01*
G01Y267439D01*
G03X362809Y267300I200J1D01*
G01X363031Y267072D01*
X363102Y267041D01*
X363141Y267040D01*
G02X363826Y266338I-17J-702D01*
G02X363124Y265636I-702J0D01*
G02X362848Y265692I-1J702D01*
G01X362811Y265708D01*
X362202D01*
G03X362002Y265508I0J-200D01*
G01Y240538D01*
G02X361802Y240338I-200J0D01*
G01X310998D01*
G02X310798Y240538I0J200D01*
G01Y253796D01*
G03X310687Y253975I-200J0D01*
G01X310367Y254135D01*
G03X310157Y254115I-89J-179D01*
G02X309734Y253973I-423J559D01*
G02Y255377I0J702D01*
G02X310157Y255235I0J-701D01*
G03X310367Y255215I121J159D01*
G01X310687Y255375D01*
G03X310798Y255554I-89J179D01*
G01Y260664D01*
G03X310776Y260755I-200J0D01*
G01X310775Y260757D01*
G02X310691Y261089I618J333D01*
G02X310774Y261419I702J-1D01*
G03X310776Y261423I-178J91D01*
G03X310798Y261514I-178J91D01*
G01Y261664D01*
G03X310776Y261755I-200J0D01*
G01X310775Y261757D01*
G02X310691Y262089I618J333D01*
G02X310774Y262419I702J-1D01*
G03X310776Y262423I-178J91D01*
G03X310798Y262514I-178J91D01*
G01Y262664D01*
G03X310776Y262755I-200J0D01*
G01X310775Y262757D01*
G02X310691Y263089I618J333D01*
G02X310774Y263419I702J-1D01*
G03X310776Y263423I-178J91D01*
G03X310798Y263514I-178J91D01*
G01Y263664D01*
G03X310776Y263755I-200J0D01*
G01X310775Y263757D01*
G02X310691Y264089I618J333D01*
G02X310774Y264419I702J-1D01*
G03X310776Y264423I-178J91D01*
G03X310798Y264514I-178J91D01*
G01Y279062D01*
G02X310998Y279262I200J0D01*
G01X328598D01*
G03X328798Y279462I0J200D01*
G01Y312212D01*
G02X328998Y312412I200J0D01*
G01X346098D01*
G03X346298Y312612I0J200D01*
G01Y331382D01*
G02X346498Y331582I200J0D01*
G01X347099D01*
X347134Y331596D01*
G02X347430Y331652I294J-746D01*
G02X347726Y331596I2J-802D01*
G01X347761Y331582D01*
X366561D01*
G03X366703Y331641I0J200D01*
G01X378415Y343353D01*
G02X378557Y343412I142J-141D01*
G01X387292D01*
G03X387469Y343519I0J200D01*
G01X387634Y343832D01*
G03X387622Y344037I-177J92D01*
G01Y344038D01*
G02X387499Y344435I579J397D01*
G37*
G36*
G01X324298Y332619D02*
G02X323892Y332508I-407J691D01*
G01X323890D01*
G02Y334112I0J802D01*
G02X324607Y333670I0J-803D01*
G03X325167Y333506I357J180D01*
G02X325573Y333617I407J-691D01*
G01X325575D01*
G02Y332013I0J-802D01*
G02X324858Y332455I0J803D01*
G03X324298Y332619I-357J-180D01*
G37*
G36*
G01X319668Y321060D02*
G02X320570Y321962I902J0D01*
G02X321207Y321697I-1J-901D01*
G01X322054Y320851D01*
G03X322196Y320792I142J141D01*
G01X322510D01*
G02X323147Y320527I-1J-901D01*
G01X323807Y319867D01*
G02X324072Y319230I-636J-638D01*
G01Y318259D01*
G03X324210Y318069I200J0D01*
G01X324211D01*
G02X324702Y317400I-210J-669D01*
G02X324628Y317087I-702J1D01*
G03X324620Y317070I177J-94D01*
G03X324893Y316817I187J-72D01*
G03X324906Y316824I-88J180D01*
G02X325116Y316911I447J-783D01*
G03X325154Y316925I-50J194D01*
G02X325559Y317022I407J-805D01*
G01X325860D01*
G03X325953Y317045I0J200D01*
G02X326378Y317152I426J-795D01*
G01X329901D01*
G03X330038Y317206I0J200D01*
G01X330266Y317422D01*
X330298Y317491D01*
X330300Y317529D01*
G02X330940Y318189I701J-39D01*
G03X331056Y318240I-18J199D01*
G01X331149Y318323D01*
G03X331212Y318437I-134J149D01*
G02X331463Y318918I888J-157D01*
G01X332842Y320297D01*
G02X333479Y320562I638J-636D01*
G02X334380Y319660I-1J-902D01*
G02X334116Y319023I-901J0D01*
G01X333061Y317967D01*
G03X333002Y317825I141J-142D01*
G01Y317050D01*
G02X332737Y316413I-901J1D01*
G01X332131Y315806D01*
G03X332073Y315649I141J-141D01*
G01X332101Y315302D01*
X332144Y315226D01*
X332180Y315200D01*
G02X332512Y314550I-470J-650D01*
G02X332445Y314230I-801J1D01*
G03Y314070I184J-80D01*
G02X332512Y313750I-734J-321D01*
G02X330908I-802J0D01*
G02X330975Y314070I801J-1D01*
G03Y314230I-184J80D01*
G02X330908Y314550I734J321D01*
G01Y314552D01*
G02X330953Y314816I802J-1D01*
G01X330969Y314861D01*
X330956Y314958D01*
X330739Y315264D01*
G03X330576Y315348I-163J-116D01*
G01X328695D01*
G03X328562Y315298I-1J-200D01*
G01X328364Y315122D01*
G03X328298Y314995I133J-150D01*
G02X327601Y314375I-697J82D01*
G01X327600D01*
G02X327324Y314432I1J702D01*
G03X327222Y314446I-77J-184D01*
G01X327113Y314434D01*
G03X327018Y314396I24J-199D01*
G02X326601Y314259I-417J566D01*
G02X326290Y314332I1J702D01*
G03X326112I-89J-180D01*
G02X325801Y314259I-312J629D01*
G02X325316Y314453I0J703D01*
G01X325257Y314509D01*
X325094Y314507D01*
X324892Y314305D01*
X324877Y314267D01*
G02X324039Y313698I-838J333D01*
G02X323402Y313963I1J901D01*
G01X322243Y315122D01*
G02X321978Y315759I636J638D01*
G01Y317928D01*
G03X321844Y318117I-200J0D01*
G01X321843D01*
G02X321368Y318781I227J664D01*
G02X321374Y318870I702J-3D01*
G01Y318872D01*
G03X321317Y319038I-198J25D01*
G01X319933Y320423D01*
G02X319668Y321060I636J638D01*
G37*
G36*
G01X338748Y320220D02*
G02X339550Y321022I802J0D01*
G01X339551D01*
G02X339825Y320974I1J-802D01*
G03X339989Y320986I69J188D01*
G02X340370Y321082I381J-706D01*
G02Y319478I0J-802D01*
G01X340369D01*
G02X340095Y319526I-1J802D01*
G03X339931Y319514I-69J-188D01*
G02X339612Y319420I-381J706D01*
G03X339578Y319027I15J-199D01*
G02X340182Y318250I-198J-777D01*
G02X338578I-802J0D01*
G02X338982Y318946I802J0D01*
G03X339082Y319102I-99J174D01*
G01X339111Y319430D01*
G03X339039Y319602I-199J18D01*
G02X338748Y320220I511J618D01*
G37*
G36*
G01X388578Y270311D02*
G02X388218Y270980I442J669D01*
G02X389822I802J0D01*
G02X389468Y270315I-802J0D01*
G03X389472Y269649I224J-332D01*
G02X389832Y268980I-442J-669D01*
G02X388228I-802J0D01*
G02X388582Y269645I802J0D01*
G03X388578Y270311I-224J332D01*
G37*
G36*
G01X406115Y349474D02*
X405598D01*
G02X405171Y349651I1J606D01*
G01X402697Y352125D01*
G03X402480Y352168I-141J-142D01*
G01X402423Y352145D01*
X402356Y352044D01*
Y350275D01*
G03X402378Y350184I200J0D01*
G02X402452Y349870I-629J-314D01*
G02X401048I-702J0D01*
G02X401122Y350184I703J0D01*
G03X401144Y350275I-178J91D01*
G01Y352536D01*
G03X401085Y352678I-200J0D01*
G01X397887Y355875D01*
G03X397745Y355934I-142J-141D01*
G01X382479D01*
G02X382050Y356112I0J606D01*
G01X377298Y360864D01*
G03X377136Y360921I-141J-142D01*
G01X376783Y360885D01*
X376706Y360838D01*
X376681Y360800D01*
G02X376010Y360438I-671J441D01*
G02X375441Y360675I0J802D01*
G03X375299Y360734I-142J-141D01*
G01X374026D01*
X373934Y360680D01*
X373907Y360633D01*
G02X373210Y360228I-697J397D01*
G02X372625Y360481I0J803D01*
G03X372480Y360544I-146J-137D01*
G01X367316D01*
G03X367131Y360420I0J-200D01*
G01X367107Y360364D01*
X367131Y360246D01*
X368186Y359191D01*
G03X368328Y359132I142J141D01*
G02X369132Y358330I2J-802D01*
G01Y358329D01*
G02X368991Y357875I-802J0D01*
G01X368971Y357845D01*
X368953Y357776D01*
X368985Y357480D01*
G03X369047Y357356I199J22D01*
G02X369302Y356770I-546J-586D01*
G02X367698Y356772I-802J0D01*
G03X367640Y356914I-200J1D01*
G01X367411Y357143D01*
G03X367257Y357202I-142J-141D01*
G01X366957Y357183D01*
G03X366813Y357108I12J-199D01*
G01X366812Y357107D01*
G02X366180Y356798I-632J492D01*
G02X365378Y357600I0J802D01*
G02X365844Y358328I802J0D01*
G01X365877Y358343D01*
X365903Y358369D01*
G03Y358651I-142J141D01*
G01X365829Y358725D01*
G03X365687Y358784I-142J-141D01*
G01X295601D01*
G03X295459Y358725I0J-200D01*
G02X294890Y358488I-569J565D01*
G02X294088Y359290I0J802D01*
G02X294089Y359332I802J2D01*
G01X294091Y359373D01*
X294063Y359451D01*
X293835Y359691D01*
G03X293690Y359754I-146J-137D01*
G01X292538D01*
G03X292398Y359697I0J-200D01*
G02X291840Y359471I-558J576D01*
G02X291038Y360273I0J802D01*
G01Y360320D01*
X291009Y360394D01*
X290780Y360625D01*
G03X290638Y360684I-142J-141D01*
G01X288453D01*
G03X288311Y360625I0J-200D01*
G01X285992Y358305D01*
G03X285949Y358088I142J-141D01*
G01X285972Y358031D01*
X286073Y357964D01*
X323916D01*
G02X324058Y357905I0J-200D01*
G01X329105Y352859D01*
G02X329164Y352717I-141J-142D01*
G01Y346603D01*
G03X329223Y346461I200J0D01*
G01X331943Y343741D01*
G02X332002Y343599I-141J-142D01*
G01Y340747D01*
G02X331943Y340605I-200J0D01*
G01X331625Y340287D01*
G02X331483Y340228I-142J141D01*
G01X328492D01*
G03X328292Y340028I0J-200D01*
G01Y337929D01*
G03X328398Y337752I200J0D01*
G01X328708Y337587D01*
G03X328914Y337597I95J176D01*
G02X329359Y337732I445J-667D01*
G01X329360D01*
G02Y336128I0J-802D01*
G01X329359D01*
G02X328914Y336263I0J802D01*
G03X328708Y336273I-111J-166D01*
G01X328398Y336108D01*
G03X328292Y335931I94J-177D01*
G01Y335378D01*
G02X328092Y335178I-200J0D01*
G01X320211D01*
X320101Y335088D01*
X320087Y335018D01*
Y335016D01*
G02X318513I-787J152D01*
G01Y335018D01*
X318499Y335088D01*
X318389Y335178D01*
X317498D01*
G03X317363Y335125I1J-200D01*
G01X317135Y334917D01*
X317102Y334850D01*
X317099Y334813D01*
G02X315501I-799J68D01*
G01Y334814D01*
X315498Y334850D01*
X315465Y334917D01*
X315237Y335125D01*
G03X315102Y335178I-136J-147D01*
G01X308194D01*
G03X308022Y335080I0J-200D01*
G01X307819Y334738D01*
X307817Y334633D01*
X307843Y334586D01*
G02X307942Y334200I-703J-386D01*
G02X307140Y333398I-802J0D01*
G02X306820Y333465I1J801D01*
G03X306660I-80J-184D01*
G02X306020I-320J734D01*
G03X305860I-80J-184D01*
G02X305540Y333398I-321J734D01*
G02X304738Y334200I0J802D01*
G02X304837Y334586I802J0D01*
G01X304863Y334633D01*
X304861Y334738D01*
X304658Y335080D01*
G03X304486Y335178I-172J-102D01*
G01X303967D01*
G02X303825Y335237I0J200D01*
G01X298893Y340169D01*
G03X298751Y340228I-142J-141D01*
G01X297377D01*
G03X297211Y340139I0J-200D01*
G01X296999Y339819D01*
X296989Y339720D01*
X297009Y339673D01*
G02X297072Y339360I-739J-312D01*
G02X296965Y338960I-801J0D01*
G03Y338760I173J-100D01*
G02X297072Y338360I-694J-400D01*
G02X296270Y337558I-802J0D01*
G02X295870Y337665I0J801D01*
G03X295670I-100J-173D01*
G02X294870I-400J695D01*
G03X294670I-100J-173D01*
G02X294270Y337558I-400J694D01*
G02X293468Y338360I0J802D01*
G02X293575Y338760I801J0D01*
G03Y338960I-173J100D01*
G02X293468Y339360I694J400D01*
G02X293531Y339673I802J1D01*
G01X293551Y339720D01*
X293541Y339819D01*
X293329Y340139D01*
G03X293163Y340228I-166J-111D01*
G01X266239D01*
G03X266097Y340169I0J-200D01*
G01X264695Y338767D01*
G02X264553Y338708I-142J141D01*
G01X252329D01*
G03X252187Y338649I0J-200D01*
G01X235631Y322093D01*
G03X235572Y321951I141J-142D01*
G01Y316402D01*
G03X235644Y316248I200J0D01*
G01X235914Y316023D01*
X236000Y316001D01*
X236044Y316009D01*
G02X236190Y316022I144J-789D01*
G02Y314418I0J-802D01*
G02X236044Y314431I-2J802D01*
G01X236000Y314439D01*
X235914Y314417D01*
X235644Y314192D01*
G03X235572Y314038I128J-154D01*
G01Y314033D01*
G03X235772Y313833I200J0D01*
G01X235826D01*
X235873Y313861D01*
G02X236280Y313972I407J-691D01*
G02Y312368I0J-802D01*
G02X236074Y312395I0J802D01*
G01X236028Y312407D01*
X235939Y312389D01*
X235650Y312167D01*
G03X235572Y312009I122J-158D01*
G01Y309667D01*
G03X235661Y309501I200J0D01*
G01X235981Y309289D01*
X236080Y309279D01*
X236127Y309299D01*
G02X236440Y309362I312J-739D01*
G02X237242Y308560I0J-802D01*
G02X236955Y307945I-802J0D01*
G01X236922Y307918D01*
X236884Y307841D01*
X236873Y307501D01*
G03X236935Y307349I200J-7D01*
G02X237182Y306770I-555J-579D01*
G02X236380Y305968I-802J0D01*
G02X236107Y306016I0J802D01*
G01X236062Y306032D01*
X235965Y306019D01*
X235657Y305804D01*
G03X235572Y305640I115J-164D01*
G01Y305242D01*
G03X235640Y305091I200J-1D01*
G01X235899Y304864D01*
X235981Y304839D01*
X236024Y304845D01*
G02X236129Y304852I106J-795D01*
G01X236130D01*
G02X236800Y304490I0J-801D01*
G01X236825Y304452D01*
X236901Y304406D01*
X237255Y304370D01*
G03X237417Y304427I21J199D01*
G01X250335Y317344D01*
G03X250392Y317512I-141J142D01*
G01X250344Y317873D01*
X250292Y317951D01*
X250251Y317974D01*
G02X249848Y318670I400J696D01*
G02X250650Y319472I802J0D01*
G02X251346Y319069I0J-803D01*
G01X251369Y319028D01*
X251447Y318976D01*
X251808Y318928D01*
G03X251976Y318985I26J198D01*
G01X262790Y329800D01*
G02X263180Y329962I391J-390D01*
G01X265414D01*
G03X265549Y330015I-1J200D01*
G01X265749Y330199D01*
G03X265813Y330328I-135J147D01*
G01Y330329D01*
G02X266006Y330788I799J-66D01*
G03X266055Y330919I-151J131D01*
G01Y331182D01*
G03X266006Y331313I-200J0D01*
G02X265810Y331838I605J525D01*
G02X267414I802J0D01*
G02X267218Y331313I-801J0D01*
G03X267169Y331182I151J-131D01*
G01Y330919D01*
G03X267218Y330788I200J0D01*
G02X267411Y330330I-606J-525D01*
G01Y330328D01*
G03X267475Y330199I199J18D01*
G01X267675Y330015D01*
G03X267810Y329962I136J147D01*
G01X289919D01*
G03X290061Y330021I0J200D01*
G01X291790Y331750D01*
G02X292180Y331912I391J-390D01*
G01X292458D01*
G03X292590Y331962I0J200D01*
G02X293120Y332162I530J-602D01*
G01X293121D01*
G02X293666Y331948I0J-802D01*
G03X293991Y332029I136J146D01*
G02X294055Y332170I759J-259D01*
G03Y332370I-173J100D01*
G02X293948Y332770I694J400D01*
G02X294750Y333572I802J0D01*
G02X295150Y333465I0J-801D01*
G03X295350I100J173D01*
G02X296150I400J-695D01*
G03X296350I100J173D01*
G02X296750Y333572I400J-694D01*
G02X297552Y332770I0J-802D01*
G02X297445Y332370I-801J0D01*
G03Y332170I173J-100D01*
G02X297552Y331770I-694J-400D01*
G02X296750Y330968I-802J0D01*
G02X296350Y331075I0J801D01*
G03X296150I-100J-173D01*
G02X295350I-400J695D01*
G03X295150I-100J-173D01*
G02X294750Y330968I-400J694D01*
G02X294346Y331077I0J803D01*
G01X294312Y331097D01*
X294235Y331108D01*
X293887Y331020D01*
X293824Y330974D01*
X293804Y330941D01*
G02X293536Y330674I-684J419D01*
G03X293463Y330595I105J-170D01*
G01X293412Y330496D01*
G03X293390Y330390I177J-92D01*
G02X293392Y330330I-800J-57D01*
G02X293310Y329977I-801J0D01*
G01X293287Y329930D01*
X293293Y329829D01*
X293500Y329496D01*
G03X293670Y329402I170J106D01*
G01X304764D01*
X304765Y329400D01*
X307484D01*
G02X307626Y329342I1J-200D01*
G01X308147Y328821D01*
G03X308304Y328763I141J141D01*
G01X308607Y328786D01*
G03X308752Y328866I-15J199D01*
G01X308753Y328867D01*
G02X309400Y329196I647J-472D01*
G02X309720Y329129I-1J-801D01*
G03X309880I80J184D01*
G02X310200Y329196I321J-734D01*
G02X310997Y328480I0J-802D01*
G01X311006Y328403D01*
X311119Y328302D01*
X311760D01*
X311876Y328416D01*
X311878Y328497D01*
G02X312680Y329282I802J-17D01*
G02X313079Y329176I0J-804D01*
G03X313243Y329160I100J173D01*
G02X313500Y329202I256J-761D01*
G02X314298Y328481I0J-802D01*
G01X314306Y328404D01*
X314419Y328302D01*
X314987D01*
G03X315129Y328361I0J200D01*
G01X315358Y328591D01*
X315387Y328664D01*
Y328710D01*
G02X316991I802J0D01*
G01Y328664D01*
X317020Y328591D01*
X317249Y328361D01*
G03X317391Y328302I142J141D01*
G01X322402D01*
G02X322602Y328102I0J-200D01*
G01Y325517D01*
G02X322543Y325375I-200J0D01*
G01X319965Y322797D01*
G02X319823Y322738I-142J141D01*
G01X319776D01*
G03X319642Y322686I1J-200D01*
G01X319416Y322480D01*
X319382Y322413D01*
X319379Y322376D01*
G02X317781I-799J74D01*
G01X317778Y322413D01*
X317744Y322480D01*
X317518Y322686D01*
G03X317384Y322738I-135J-148D01*
G01X312907D01*
G02X312765Y322797I0J200D01*
G01X311913Y323649D01*
G03X311771Y323708I-142J-141D01*
G01X311612D01*
G03X311412Y323508I0J-200D01*
G01Y321006D01*
G03X311486Y320851I200J0D01*
G01X311762Y320627D01*
X311850Y320606D01*
X311894Y320615D01*
G02X312060Y320632I164J-785D01*
G02Y319028I0J-802D01*
G02X311894Y319045I-2J802D01*
G01X311850Y319054D01*
X311762Y319033D01*
X311486Y318809D01*
G03X311412Y318654I126J-155D01*
G01Y317738D01*
G02X311212Y317538I-200J0D01*
G01X309122D01*
G03X308922Y317338I0J-200D01*
G01Y315769D01*
G03X308981Y315627I200J0D01*
G01X310767Y313841D01*
G02X310918Y313630I-568J-566D01*
G01X310932Y313601D01*
X311642Y312892D01*
X311705Y312863D01*
X311741Y312860D01*
G02X312076Y312758I-60J-799D01*
G03X312175Y312732I99J174D01*
G01X312786D01*
G03X312955Y312825I0J200D01*
G01X313135Y313110D01*
G03X313146Y313304I-169J107D01*
G02X313068Y313648I724J345D01*
G01Y313650D01*
G02X313570Y314394I802J0D01*
G02X313568Y314450I800J57D01*
G02X313656Y314816I802J1D01*
G03X313662Y314985I-178J91D01*
G02X313598Y315299I738J314D01*
G01Y315300D01*
G02X315202I802J0D01*
G01Y315299D01*
G02X315114Y314934I-802J0D01*
G03X315108Y314765I178J-91D01*
G02X315144Y314659I-740J-310D01*
G01X315158Y314607D01*
X315233Y314532D01*
X315620Y314429D01*
G03X315814Y314481I52J193D01*
G01X316599Y315267D01*
G03X316658Y315409I-141J142D01*
G01Y319203D01*
G02X316717Y319345I200J0D01*
G01X317075Y319703D01*
G02X317217Y319762I142J-141D01*
G01X318513D01*
G02X318655Y319703I0J-200D01*
G01X320593Y317765D01*
G02X320652Y317623I-141J-142D01*
G01Y315867D01*
G02X320593Y315725I-200J0D01*
G01X319759Y314891D01*
G03Y314609I142J-141D01*
G01X320543Y313825D01*
G02X320602Y313683I-141J-142D01*
G01Y312917D01*
G02X320543Y312775I-200J0D01*
G01X320466Y312698D01*
X320455Y312682D01*
G02X320238Y312465I-665J448D01*
G01X320222Y312454D01*
X320025Y312257D01*
G02X319883Y312198I-142J141D01*
G01X318589D01*
X318516Y312168D01*
X318492Y312144D01*
Y310802D01*
G03X318692Y310602I200J0D01*
G01X320188D01*
G03X320388Y310802I0J200D01*
G01Y310902D01*
G02X320588Y311102I200J0D01*
G01X323402D01*
G02X323602Y310902I0J-200D01*
G01Y298224D01*
G02X323543Y298082I-200J0D01*
G01X321167Y295707D01*
G02X321025Y295648I-142J141D01*
G01X312504D01*
X312515Y295658D01*
X297309D01*
G03X297167Y295599I0J-200D01*
G01X296311Y294743D01*
G03X296267Y294525I141J-142D01*
G01X296290Y294469D01*
X296390Y294402D01*
X321251D01*
G03X321393Y294461I0J200D01*
G01X324189Y297257D01*
G03X324248Y297399I-141J142D01*
G01Y310802D01*
G02X324448Y311002I200J0D01*
G01X325520D01*
X325544Y311008D01*
G02X325740Y311032I195J-778D01*
G02X325936Y311008I1J-802D01*
G01X325960Y311002D01*
X326822D01*
G02X327022Y310802I0J-200D01*
G01Y294457D01*
G02X326963Y294315I-200J0D01*
G01X323305Y290657D01*
G02X323163Y290598I-142J141D01*
G01X302739D01*
G03X302597Y290539I0J-200D01*
G01X299821Y287763D01*
G03X299762Y287621I141J-142D01*
G01Y236632D01*
G03X299885Y236447I200J0D01*
G01X299941Y236424D01*
X300059Y236447D01*
X301005Y237393D01*
G02X301147Y237452I142J-141D01*
G01X365911D01*
G03X366053Y237511I0J200D01*
G01X374209Y245667D01*
G03X374268Y245809I-141J142D01*
G01Y274673D01*
G02X374327Y274815I200J0D01*
G01X375715Y276203D01*
G02X375857Y276262I142J-141D01*
G01X383003D01*
G02X383145Y276203I0J-200D01*
G01X383853Y275495D01*
G02X383912Y275353I-141J-142D01*
G01Y262859D01*
G03X383971Y262717I200J0D01*
G01X389590Y257098D01*
G03X389779Y257045I142J141D01*
G01X390112Y257126D01*
G03X390255Y257260I-48J194D01*
G02X391020Y257822I765J-240D01*
G02X391822Y257020I0J-802D01*
G02X391260Y256255I-802J0D01*
G01X391209Y256239D01*
X391139Y256164D01*
X391045Y255779D01*
G03X391098Y255590I194J-47D01*
G01X391494Y255194D01*
G03X391624Y255136I141J142D01*
G01X391929Y255119D01*
X391998Y255142D01*
X392027Y255165D01*
G02X392530Y255342I503J-626D01*
G02X393332Y254540I0J-802D01*
G02X393155Y254037I-803J0D01*
G01X393132Y254008D01*
X393109Y253939D01*
X393126Y253634D01*
G03X393184Y253504I200J11D01*
G01X394193Y252495D01*
G02X394252Y252353I-141J-142D01*
G01Y245582D01*
G03X394302Y245450I200J0D01*
G02Y244390I-602J-530D01*
G03X394252Y244258I150J-132D01*
G01Y237817D01*
G02X394193Y237675I-200J0D01*
G01X374105Y217587D01*
G02X373963Y217528I-142J141D01*
G01X318669D01*
G03X318527Y217469I0J-200D01*
G01X310395Y209337D01*
G02X310253Y209278I-142J141D01*
G01X286157D01*
G02X286015Y209337I0J200D01*
G01X284047Y211305D01*
G02X283988Y211447I141J142D01*
G01Y211838D01*
G03X283865Y212023I-200J0D01*
G01X283809Y212046D01*
X283691Y212023D01*
X283415Y211747D01*
G02X283273Y211688I-142J141D01*
G01X277957D01*
G02X277815Y211747I0J200D01*
G01X277297Y212265D01*
G02X277238Y212407I141J142D01*
G01Y257828D01*
G03X277115Y258013I-200J0D01*
G01X277059Y258036D01*
X276941Y258013D01*
X276575Y257647D01*
G02X276433Y257588I-142J141D01*
G01X273047D01*
G02X272905Y257647I0J200D01*
G01X272353Y258199D01*
G03X272135Y258243I-142J-141D01*
G01X272079Y258220D01*
X272012Y258120D01*
Y257197D01*
G02X271953Y257055I-200J0D01*
G01X271105Y256207D01*
G02X270963Y256148I-142J141D01*
G01X265792D01*
G03X265652Y256090I1J-200D01*
G01X265451Y255893D01*
G03X265392Y255753I141J-142D01*
G01Y255752D01*
G02X265285Y255360I-802J8D01*
G03Y255160I173J-100D01*
G02X265392Y254760I-694J-400D01*
G02X263788I-802J0D01*
G02X263895Y255160I801J0D01*
G03Y255360I-173J100D01*
G02X263788Y255760I694J400D01*
G02X264391Y256537I802J0D01*
G03X264535Y256678I-49J194D01*
G01X264626Y257013D01*
G03X264575Y257207I-193J53D01*
G01X254427Y267355D01*
G02X254368Y267497I141J142D01*
G01Y296853D01*
G02X254427Y296995I200J0D01*
G01X280235Y322803D01*
G03X280278Y323020I-142J141D01*
G01X280255Y323077D01*
X280154Y323144D01*
X278904D01*
G03X278762Y323085I0J-200D01*
G01X249231Y293553D01*
G03X249172Y293411I141J-142D01*
G01Y285937D01*
G02X249113Y285795I-200J0D01*
G01X247905Y284587D01*
G02X247763Y284528I-142J141D01*
G01X240037D01*
G02X239895Y284587I0J200D01*
G01X238427Y286055D01*
G02X238368Y286197I141J142D01*
G01Y300853D01*
G02X238427Y300995I200J0D01*
G01X265339Y327907D01*
G03X265383Y328125I-141J142D01*
G01X265360Y328181D01*
X265260Y328248D01*
X263730D01*
G03X263588Y328189I0J-200D01*
G01X237471Y302072D01*
G03X237412Y301930I141J-142D01*
G01Y280320D01*
G03X237471Y280178I200J0D01*
G01X249630Y268019D01*
G02X249792Y267629I-390J-391D01*
G01Y259010D01*
G02X249630Y258620I-552J1D01*
G01X249468Y258458D01*
G03X249410Y258330I142J-141D01*
G02X248610Y257578I-800J50D01*
G02X247808Y258380I0J802D01*
G01Y258390D01*
X247686Y258537D01*
G03X247582Y258603I-154J-128D01*
G02X246978Y259380I198J777D01*
G02X247730Y260180I802J0D01*
G01X247767Y260182D01*
X247832Y260212D01*
X248029Y260409D01*
G03X248088Y260551I-141J142D01*
G01Y267069D01*
G03X248029Y267211I-200J0D01*
G01X235913Y279327D01*
G03X235695Y279371I-142J-141D01*
G01X235639Y279348D01*
X235572Y279248D01*
Y269159D01*
G03X235631Y269017I200J0D01*
G01X236627Y268021D01*
G03X236769Y267962I142J141D01*
G01X244793D01*
G02X244935Y267903I0J-200D01*
G01X245703Y267135D01*
G02X245762Y266993I-141J-142D01*
G01Y264677D01*
G02X245703Y264535I-200J0D01*
G01X245215Y264047D01*
G02X245073Y263988I-142J141D01*
G01X234757D01*
G02X234615Y264047I0J200D01*
G01X231613Y267049D01*
G03X231395Y267093I-142J-141D01*
G01X231339Y267070D01*
X231272Y266970D01*
Y246639D01*
G03X231331Y246497I200J0D01*
G01X242423Y235405D01*
G02X242482Y235263I-141J-142D01*
G01Y220219D01*
G03X242541Y220077I200J0D01*
G01X261687Y200931D01*
G03X261829Y200872I142J141D01*
G01X267868D01*
G03X268053Y200995I0J200D01*
G01X268076Y201051D01*
X268053Y201169D01*
X255637Y213585D01*
G02X255578Y213727I141J142D01*
G01Y229211D01*
G03X255519Y229353I-200J0D01*
G01X253853Y231019D01*
G03X253711Y231078I-142J-141D01*
G01X245287D01*
G02X245145Y231137I0J200D01*
G01X244327Y231955D01*
G02X244268Y232097I141J142D01*
G01Y236673D01*
G02X244327Y236815I200J0D01*
G01X244775Y237263D01*
G02X244917Y237322I142J-141D01*
G01X257421D01*
G03X257563Y237381I0J200D01*
G01X260559Y240377D01*
G03X260618Y240519I-141J142D01*
G01Y248421D01*
G03X260559Y248563I-200J0D01*
G01X259273Y249849D01*
G03X259131Y249908I-142J-141D01*
G01X256208D01*
G02X256008Y250108I0J200D01*
G01Y252653D01*
G02X256067Y252795I200J0D01*
G01X256605Y253333D01*
G02X256747Y253392I142J-141D01*
G01X262743D01*
G02X262885Y253333I0J-200D01*
G01X265173Y251045D01*
G02X265232Y250903I-141J-142D01*
G01Y215929D01*
G03X265291Y215787I200J0D01*
G01X272607Y208471D01*
G03X272749Y208412I142J141D01*
G01X383181D01*
G03X383323Y208471I0J200D01*
G01X443585Y268733D01*
G02X443727Y268792I142J-141D01*
G01X459023D01*
G02X459165Y268733I0J-200D01*
G01X459977Y267921D01*
G03X460195Y267877I142J141D01*
G01X460251Y267900D01*
X460318Y268000D01*
Y268951D01*
G03X460259Y269093I-200J0D01*
G01X459373Y269979D01*
G03X459231Y270038I-142J-141D01*
G01X436027D01*
G02X435885Y270097I0J200D01*
G01X434937Y271045D01*
G02X434878Y271187I141J142D01*
G01Y282381D01*
G03X434791Y282547I-200J1D01*
G01X434477Y282760D01*
X434379Y282771D01*
X434333Y282753D01*
G02X434042Y282698I-292J747D01*
G01X434040D01*
G02Y284302I0J802D01*
G01X434042D01*
G02X434333Y284247I-1J-802D01*
G01X434379Y284229D01*
X434477Y284240D01*
X434791Y284453D01*
G03X434878Y284619I-113J165D01*
G01Y335733D01*
G02X434937Y335875I200J0D01*
G01X435845Y336783D01*
G02X435987Y336842I142J-141D01*
G01X451291D01*
G03X451433Y336901I0J200D01*
G01X453995Y339463D01*
X454010Y339507D01*
G02X454770Y340052I760J-257D01*
G01X454771D01*
G02X455292Y339860I0J-802D01*
G03X455421Y339812I130J152D01*
G01X468273D01*
G02X468415Y339753I0J-200D01*
G01X469003Y339165D01*
G02X469062Y339023I-141J-142D01*
G01Y328277D01*
G02X469003Y328135I-200J0D01*
G01X467855Y326987D01*
G02X467713Y326928I-142J141D01*
G01X456769D01*
G03X456627Y326869I0J-200D01*
G01X453091Y323333D01*
G03X453032Y323191I141J-142D01*
G01Y320226D01*
X453093Y320129D01*
X453145Y320104D01*
G02Y318656I-345J-724D01*
G01X453093Y318631D01*
X453032Y318534D01*
Y284799D01*
G03X453091Y284657I200J0D01*
G01X455417Y282331D01*
G03X455559Y282272I142J141D01*
G01X469863D01*
G02X470005Y282213I0J-200D01*
G01X474833Y277385D01*
G02X474892Y277243I-141J-142D01*
G01Y248207D01*
G02X474833Y248065I-200J0D01*
G01X458065Y231297D01*
G02X457923Y231238I-142J141D01*
G01X450899D01*
G03X450757Y231179I0J-200D01*
G01X442575Y222998D01*
G03X442516Y222856I141J-142D01*
G01Y215832D01*
G02X442457Y215690I-200J0D01*
G01X434177Y207410D01*
X434147Y207330D01*
X434150Y207287D01*
G02X434156Y207066I-3796J-214D01*
G02X430354Y203264I-3802J0D01*
G02X430133Y203270I-7J3802D01*
G01X430090Y203273D01*
X430010Y203243D01*
X413915Y187147D01*
G02X413773Y187088I-142J141D01*
G01X253227D01*
G02X253085Y187147I0J200D01*
G01X234707Y205525D01*
G02X234648Y205667I141J142D01*
G01Y229871D01*
G03X234589Y230013I-200J0D01*
G01X234563Y230039D01*
G03X234345Y230083I-142J-141D01*
G01X234289Y230060D01*
X234222Y229960D01*
Y226887D01*
G02X234163Y226745I-200J0D01*
G01X233675Y226257D01*
G02X233533Y226198I-142J141D01*
G01X229127D01*
G02X228985Y226257I0J200D01*
G01X217997Y237245D01*
G02X217938Y237387I141J142D01*
G01Y296317D01*
G03X217845Y296486I-200J0D01*
G01X217517Y296694D01*
X217414Y296700D01*
X217367Y296678D01*
G02X216981Y296592I-384J815D01*
G02X216636Y296660I-2J901D01*
G01X216605Y296673D01*
X216539Y296677D01*
X216269Y296603D01*
G03X216163Y296531I53J-193D01*
G01X216162Y296530D01*
G02X215520Y296208I-642J479D01*
G01X215519D01*
G02X215117Y296316I0J802D01*
G03X214932Y296324I-100J-173D01*
G02X214591Y296248I-341J726D01*
G01X214590D01*
G02X213788Y297050I0J802D01*
G02X214003Y297596I801J0D01*
G01X214027Y297622D01*
X214054Y297688D01*
X214068Y298020D01*
X214045Y298088D01*
X214023Y298116D01*
G02X213851Y298612I630J496D01*
G01Y298613D01*
G02X214653Y299415I802J0D01*
G02X214984Y299344I1J-802D01*
G03X215167Y299353I83J182D01*
G02X215570Y299462I403J-690D01*
G02X215609Y299461I-1J-802D01*
G03X215757Y299516I10J200D01*
G01X215966Y299716D01*
G03X216028Y299861I-138J145D01*
G01Y303551D01*
G02X216069Y303820I903J0D01*
G01X216078Y303849D01*
Y305943D01*
X216069Y305972D01*
G02Y306510I862J269D01*
G01X216078Y306539D01*
Y310900D01*
G02X216661Y311743I901J0D01*
G01X216662D01*
G03X216786Y311888I-72J187D01*
G01X216856Y312217D01*
G03X216802Y312400I-195J42D01*
G01X214337Y314865D01*
G02X214278Y315007I141J142D01*
G01Y343921D01*
G03X214155Y344106I-200J0D01*
G01X214099Y344129D01*
X213981Y344106D01*
X213211Y343336D01*
G03X213152Y343194I141J-142D01*
G01Y241747D01*
G02X213093Y241605I-200J0D01*
G01X181325Y209837D01*
G02X181183Y209778I-142J141D01*
G01X129657D01*
G02X129515Y209837I0J200D01*
G01X128127Y211225D01*
G02X128068Y211367I141J142D01*
G01Y248623D01*
G02X128127Y248765I200J0D01*
G01X131905Y252543D01*
G02X132047Y252602I142J-141D01*
G01X166101D01*
G03X166243Y252661I0J200D01*
G01X182819Y269237D01*
G03X182878Y269379I-141J142D01*
G01Y346031D01*
G03X182819Y346173I-200J0D01*
G01X170717Y358275D01*
G02X170658Y358417I141J142D01*
G01Y402303D01*
G02X170717Y402445I200J0D01*
G01X171435Y403163D01*
G02X171577Y403222I142J-141D01*
G01X176563D01*
G02X176705Y403163I0J-200D01*
G01X177623Y402245D01*
G02X177682Y402103I-141J-142D01*
G01Y383249D01*
G03X177741Y383107I200J0D01*
G01X186377Y374471D01*
G03X186519Y374412I142J141D01*
G01X215341D01*
G03X215483Y374471I0J200D01*
G01X226039Y385027D01*
G03X226098Y385169I-141J142D01*
G01Y400633D01*
G02X226157Y400775I200J0D01*
G01X228545Y403163D01*
G02X228687Y403222I142J-141D01*
G01X249193D01*
G03X249351Y403300I0J200D01*
G01X249544Y403551D01*
G03X249579Y403724I-158J122D01*
G02X249552Y403930I775J206D01*
G02X249660Y404332I802J0D01*
G03X249659Y404533I-173J100D01*
G02X249548Y404940I691J407D01*
G02X250350Y405742I802J0D01*
G02X250745Y405638I0J-802D01*
G03X250948Y405642I98J174D01*
G02X251370Y405762I422J-682D01*
G02X251762Y405660I1J-801D01*
G03X251954Y405658I98J174D01*
G02X252330Y405752I377J-708D01*
G02X252736Y405642I0J-803D01*
G03X252941Y405644I101J173D01*
G02X253360Y405762I419J-685D01*
G02X254162Y404960I0J-802D01*
G02X254006Y404485I-801J0D01*
G03X253990Y404273I161J-119D01*
G02X254082Y403900I-710J-373D01*
G02X254060Y403714I-802J1D01*
G01X254049Y403669D01*
X254069Y403581D01*
X254292Y403298D01*
G03X254449Y403222I157J124D01*
G01X435163D01*
G02X435305Y403163I0J-200D01*
G01X438273Y400195D01*
G03X438516Y400164I141J141D01*
G01X438517D01*
G02X440354Y400668I1838J-3098D01*
G02X443956Y397066I0J-3602D01*
G02X441726Y393735I-3603J0D01*
G03X441602Y393550I76J-185D01*
G01Y390582D01*
G03X441726Y390397I200J0D01*
G02Y383735I-1372J-3331D01*
G03X441602Y383550I76J-185D01*
G01Y370129D01*
G03X441661Y369987I200J0D01*
G01X451607Y360041D01*
G03X451749Y359982I142J141D01*
G01X454496D01*
G03X454658Y360064I0J200D01*
G01X454848Y360325D01*
G03X454877Y360504I-161J118D01*
G02X454838Y360750I763J247D01*
G02X454969Y361189I801J0D01*
G03X454977Y361395I-168J110D01*
G02X454878Y361780I702J386D01*
G02X455680Y362582I802J0D01*
G02X456092Y362468I0J-801D01*
G03X456298I103J172D01*
G02X456710Y362582I412J-687D01*
G02X457512Y361780I0J-802D01*
G02X457356Y361305I-801J0D01*
G03X457340Y361093I161J-119D01*
G02X457432Y360720I-710J-373D01*
G02X457400Y360494I-802J-2D01*
G01X457386Y360449D01*
X457403Y360356D01*
X457623Y360062D01*
G03X457783Y359982I160J120D01*
G01X460283D01*
G02X460425Y359923I0J-200D01*
G01X477493Y342855D01*
G02X477552Y342713I-141J-142D01*
G01Y324927D01*
G02X477493Y324785I-200J0D01*
G01X473306Y320598D01*
G03X473263Y320381I142J-141D01*
G01X473286Y320324D01*
X473387Y320257D01*
X478534D01*
G02Y315117I0J-2570D01*
G01X473810D01*
G02X471240Y317687I0J2570D01*
G02X471822Y319315I2570J-1D01*
G01X471859Y319360D01*
X471873Y319474D01*
X471693Y319854D01*
G03X471512Y319968I-181J-86D01*
G01X463907D01*
G02X463765Y320027I0J200D01*
G01X463107Y320685D01*
G02X463048Y320827I141J142D01*
G01Y324073D01*
G02X463107Y324215I200J0D01*
G01X464455Y325563D01*
G02X464597Y325622I142J-141D01*
G01X469371D01*
G03X469513Y325681I0J200D01*
G01X469989Y326157D01*
G03X470048Y326299I-141J142D01*
G01Y339921D01*
G03X469989Y340063I-200J0D01*
G01X469273Y340779D01*
G03X469131Y340838I-142J-141D01*
G01X453757D01*
G02X453615Y340897I0J200D01*
G01X445273Y349239D01*
G03X445131Y349298I-142J-141D01*
G01X407627D01*
G02X407485Y349357I0J200D01*
G01X407279Y349564D01*
G03X407001Y349569I-142J-141D01*
G01X407000Y349568D01*
G02X406520Y349378I-480J511D01*
G02X406206Y349452I0J703D01*
G03X406115Y349474I-91J-178D01*
G37*
G54D39*
X363157Y259957D03*
X365100Y255134D03*
X309689Y270591D03*
X322151Y282045D03*
X399842Y291045D03*
X325106Y320856D03*
X326950Y320839D03*
X379680Y349680D03*
X394578Y344538D03*
X399560Y349760D03*
X399383Y346411D03*
X374060Y350400D03*
X396050Y350650D03*
G54D36*
X240540Y193450D03*
X193090Y219140D03*
X380740Y219260D03*
X151960Y253960D03*
X153970Y253880D03*
X390990Y261130D03*
X391000Y265090D03*
X400890Y263090D03*
X398900Y265080D03*
X391080Y268790D03*
X393880Y269960D03*
X387040Y272940D03*
X390980Y272910D03*
X432970Y275020D03*
X455650Y284500D03*
X455580Y293120D03*
X463470Y293310D03*
X237840Y310861D03*
X311560Y315288D03*
X314560Y319790D03*
X337750Y315960D03*
X336930Y318190D03*
X249170Y323510D03*
X323407Y324349D03*
X326323Y324577D03*
X457030Y324160D03*
X246230Y330470D03*
X318000Y330700D03*
X323701Y330880D03*
X325935Y328935D03*
X321300Y330220D03*
X328610Y329000D03*
X328675Y332005D03*
X345790Y336970D03*
X331579Y347387D03*
X333662Y349539D03*
X362670Y357440D03*
X167210Y387900D03*
X128090Y400920D03*
X137050Y401030D03*
X122260Y405050D03*
X132330Y405100D03*
X142120Y406870D03*
G54D35*
X148140Y403600D03*
G54D37*
X220354Y197066D03*
Y387066D03*
G54D41*
X170346Y276562D03*
G54D38*
X230354Y197066D03*
X430354D03*
X440354D03*
X230354Y207066D03*
X440354D03*
G54D43*
X160346Y281562D03*
X170346Y286562D03*
X160346Y291562D03*
X170346Y296562D03*
X160346Y301562D03*
X170346Y306562D03*
X160346Y311562D03*
X170346Y316562D03*
X160346Y321562D03*
G54D42*
X119362Y282960D03*
Y315164D03*
G54D31*
X147803Y366944D03*
G54D32*
X123303D03*
G54D34*
X135346Y321562D03*
G54D40*
X147354Y268058D03*
Y330066D03*
G54D33*
X135346Y276562D03*
%LPD*%
G75*
G36*
G01X212350Y313952D02*
G03X211548Y313150I0J-802D01*
G03X211656Y312749I802J1D01*
G02X211654Y312545I-173J-100D01*
G03X211538Y312130I686J-415D01*
G03X212340Y311328I802J0D01*
G01X212387D01*
X212461Y311298D01*
X212691Y311070D01*
G02X212750Y310928I-141J-142D01*
G01Y241913D01*
G02X212691Y241771I-200J0D01*
G01X181159Y210239D01*
G02X181017Y210180I-142J141D01*
G01X163172D01*
G02X163005Y210270I0J200D01*
G01X162793Y210593D01*
X162785Y210693D01*
X162805Y210740D01*
G03X162872Y211060I-735J321D01*
G03X161268I-802J0D01*
G03X161335Y210740I802J1D01*
G01X161355Y210693D01*
X161347Y210593D01*
X161135Y210270D01*
G02X160968Y210180I-167J110D01*
G01X129823D01*
G02X129681Y210239I0J200D01*
G01X128529Y211391D01*
G02X128470Y211533I141J142D01*
G01Y248457D01*
G02X128529Y248599I200J0D01*
G01X132071Y252141D01*
G02X132213Y252200I142J-141D01*
G01X162924D01*
X163027Y252129D01*
X163049Y252070D01*
G03X163121Y251923I752J277D01*
G02X163130Y251725I-169J-107D01*
G03X163041Y251359I713J-367D01*
G03X163132Y250989I802J1D01*
G02X163129Y250799I-178J-92D01*
G03X163028Y250410I701J-390D01*
G03X164632I802J0D01*
G03X164541Y250780I-802J-1D01*
G02X164544Y250970I178J92D01*
G03X164645Y251359I-701J390D01*
G03X164522Y251786I-803J0D01*
G02X164513Y251984I169J107D01*
G03X164551Y252070I-713J366D01*
G01X164573Y252129D01*
X164676Y252200D01*
X166267D01*
G03X166409Y252259I0J200D01*
G01X183221Y269071D01*
G03X183280Y269213I-141J142D01*
G01Y299540D01*
G02X183350Y299692I200J0D01*
G01X183612Y299918D01*
X183696Y299942D01*
X183740Y299936D01*
G03X183990Y299917I252J1664D01*
G03Y303283I0J1683D01*
G03X183740Y303264I2J-1683D01*
G01X183696Y303258D01*
X183612Y303282D01*
X183350Y303508D01*
G02X183280Y303660I130J152D01*
G01Y316077D01*
X183380Y316190D01*
X183457Y316199D01*
G03Y319541I-197J1671D01*
G01X183380Y319550D01*
X183280Y319663D01*
Y322914D01*
X183376Y323026D01*
X183449Y323037D01*
G03Y326363I-259J1663D01*
G01X183376Y326374D01*
X183280Y326486D01*
Y346197D01*
G03X183221Y346339I-200J0D01*
G01X171119Y358441D01*
G02X171060Y358583I141J142D01*
G01Y402137D01*
G02X171119Y402279I200J0D01*
G01X171601Y402761D01*
G02X171743Y402820I142J-141D01*
G01X176397D01*
G02X176539Y402761I0J-200D01*
G01X177221Y402079D01*
G02X177280Y401937I-141J-142D01*
G01Y383083D01*
G03X177339Y382941I200J0D01*
G01X186211Y374069D01*
G03X186353Y374010I142J141D01*
G01X215507D01*
G03X215649Y374069I0J200D01*
G01X226441Y384861D01*
G03X226500Y385003I-141J142D01*
G01Y400467D01*
G02X226559Y400609I200J0D01*
G01X228711Y402761D01*
G02X228853Y402820I142J-141D01*
G01X259169D01*
G02X259325Y402745I0J-200D01*
G01X259549Y402463D01*
X259569Y402375D01*
X259559Y402330D01*
G03X259538Y402150I781J-182D01*
G03X261142I802J0D01*
G03X261121Y402330I-802J-2D01*
G01X261111Y402375D01*
X261131Y402463D01*
X261355Y402745D01*
G02X261511Y402820I156J-125D01*
G01X434997D01*
G02X435139Y402761I0J-200D01*
G01X437623Y400277D01*
G02X437682Y400137I-141J-142D01*
G01X437684Y399816D01*
X437655Y399744D01*
X437627Y399715D01*
G03X436552Y397066I2726J-2649D01*
G03X440354Y393264I3802J0D01*
G03X440758Y393285I5J3802D01*
G01X440800Y393290D01*
X440880Y393264D01*
X441134Y393037D01*
G02X441200Y392888I-134J-149D01*
G01Y391244D01*
G02X441134Y391095I-200J0D01*
G01X440880Y390868D01*
X440800Y390842D01*
X440758Y390847D01*
G03X440354Y390868I-399J-3781D01*
G03Y383264I0J-3802D01*
G03X440758Y383285I5J3802D01*
G01X440800Y383290D01*
X440880Y383264D01*
X441134Y383037D01*
G02X441200Y382888I-134J-149D01*
G01Y369963D01*
G03X441259Y369821I200J0D01*
G01X451441Y359639D01*
G03X451583Y359580I142J141D01*
G01X460117D01*
G02X460259Y359521I0J-200D01*
G01X477091Y342689D01*
G02X477150Y342547I-141J-142D01*
G01Y325093D01*
G02X477091Y324951I-200J0D01*
G01X472569Y320429D01*
G02X472427Y320370I-142J141D01*
G01X464073D01*
G02X463931Y320429I0J200D01*
G01X463509Y320851D01*
G02X463450Y320993I141J142D01*
G01Y323907D01*
G02X463509Y324049I200J0D01*
G01X464621Y325161D01*
G02X464763Y325220I142J-141D01*
G01X469537D01*
G03X469679Y325279I0J200D01*
G01X470391Y325991D01*
G03X470450Y326133I-141J142D01*
G01Y340087D01*
G03X470391Y340229I-200J0D01*
G01X469439Y341181D01*
G03X469297Y341240I-142J-141D01*
G01X453923D01*
G02X453781Y341299I0J200D01*
G01X445439Y349641D01*
G03X445297Y349700I-142J-141D01*
G01X442171D01*
G02X442032Y349756I0J200D01*
G01X441804Y349975D01*
X441773Y350044D01*
X441771Y350083D01*
G03X440169I-801J-33D01*
G01X440167Y350044D01*
X440136Y349975D01*
X439908Y349756D01*
G02X439769Y349700I-139J144D01*
G01X439758D01*
G02X439622Y349753I0J200D01*
G01X439395Y349962D01*
X439362Y350029D01*
X439359Y350067D01*
G03X437761I-799J-67D01*
G01X437758Y350029D01*
X437725Y349962D01*
X437498Y349753D01*
G02X437362Y349700I-136J147D01*
G01X437194D01*
G02X436994Y349900I0J200D01*
G01Y349919D01*
X436997Y349938D01*
G03X437012Y350090I-787J154D01*
G03X436210Y350892I-802J0D01*
G03X435408Y350097I0J-802D01*
G01Y350056D01*
X435378Y349985D01*
X435149Y349758D01*
G02X435008Y349700I-141J142D01*
G01X434957D01*
G02X434757Y349900I0J200D01*
G01Y349917D01*
X434760Y349934D01*
G03X434772Y350070I-790J138D01*
G03X433970Y350872I-802J0D01*
G03X433168Y350090I0J-802D01*
G01X433167Y350051D01*
X433136Y349979D01*
X432908Y349757D01*
G02X432768Y349700I-140J143D01*
G01X432636D01*
G02X432436Y349900I0J200D01*
G01Y349911D01*
X432437Y349922D01*
G03X432442Y350010I-797J89D01*
G03X431640Y350812I-802J0D01*
G03X430840Y350070I0J-802D01*
G01X430837Y350032D01*
X430805Y349965D01*
X430577Y349753D01*
G02X430441Y349700I-136J147D01*
G01X407793D01*
G02X407651Y349759I0J200D01*
G01X407234Y350176D01*
X407208Y350222D01*
X407201Y350249D01*
G03X406689Y350761I-681J-169D01*
G01X406662Y350768D01*
X406616Y350794D01*
X397714Y359696D01*
G02X397656Y359833I142J141D01*
G01X397649Y360149D01*
X397675Y360220D01*
X397702Y360249D01*
G03X397912Y360790I-592J541D01*
G03X397110Y361592I-802J0D01*
G03X396707Y361484I-1J-802D01*
G01X396684Y361470D01*
X396634Y361456D01*
X396036D01*
G02X395895Y361515I1J200D01*
G01X394828Y362582D01*
G02X394784Y362800I141J142D01*
G01X394808Y362857D01*
X394908Y362924D01*
X395499D01*
G02X395641Y362865I0J-200D01*
G03X396210Y362628I569J565D01*
G03Y364232I0J802D01*
G03X395641Y363995I0J-802D01*
G02X395499Y363936I-142J141D01*
G01X395013D01*
G02X394871Y363995I0J200D01*
G01X393998Y364868D01*
G03X393640Y365016I-358J-359D01*
G01X392476D01*
G02X392335Y365075I1J200D01*
G01X385520Y371890D01*
X385504Y371928D01*
G03X385058Y372374I-744J-298D01*
G01X385020Y372390D01*
X379677Y377733D01*
X379649Y377837D01*
X379664Y377889D01*
G03X379692Y378100I-774J210D01*
G03X378890Y378902I-802J0D01*
G03X378478Y378788I0J-801D01*
G01X378455Y378774D01*
X378403Y378760D01*
X372553D01*
X372494Y378778D01*
X372469Y378796D01*
G03X372180Y378886I-288J-416D01*
G01X245983D01*
G02X245841Y378945I0J200D01*
G01X244958Y379828D01*
G03X244600Y379976I-358J-359D01*
G01X242050D01*
G03X241692Y379828I0J-507D01*
G01X240624Y378760D01*
X240570D01*
X240322Y378512D01*
X240256Y378483D01*
X240218Y378481D01*
G03X239459Y377722I42J-801D01*
G01X239457Y377684D01*
X239428Y377618D01*
X239400Y377590D01*
X239370Y377517D01*
Y376903D01*
G03X239429Y376761I200J0D01*
G01X239751Y376439D01*
G03X239893Y376380I142J141D01*
G01X245046D01*
X245132Y376335D01*
X245160Y376294D01*
G03X246480I660J456D01*
G01X246508Y376335D01*
X246594Y376380D01*
X276017D01*
G02X276159Y376321I0J-200D01*
G01X276401Y376079D01*
G02X276460Y375937I-141J-142D01*
G01Y372213D01*
G02X276401Y372071I-200J0D01*
G01X275529Y371199D01*
G02X275387Y371140I-142J141D01*
G01X241559D01*
X241443Y371255D01*
X241442Y371338D01*
G03X239838I-802J-8D01*
G01X239837Y371255D01*
X239721Y371140D01*
X233033D01*
G03X232891Y371081I0J-200D01*
G01X223865Y362055D01*
G02X223724Y361996I-142J141D01*
G01X216580D01*
G03X216222Y361848I0J-507D01*
G01X213426Y359052D01*
X213352Y359022D01*
X213312D01*
G03X212508Y358220I-2J-802D01*
G03X214112Y358222I802J0D01*
G01Y358262D01*
X214142Y358336D01*
X216731Y360925D01*
G02X216873Y360984I142J-141D01*
G01X222311D01*
G02X222496Y360860I0J-200D01*
G01X222519Y360803D01*
X222496Y360686D01*
X212809Y350999D01*
G03X212750Y350857I141J-142D01*
G01Y345508D01*
G02X212691Y345366I-200J0D01*
G01X206133Y338807D01*
G03X205868Y338170I636J-638D01*
G01Y329310D01*
G03X207672I902J0D01*
G01Y337714D01*
G02X207730Y337855I200J0D01*
G01X212409Y342534D01*
G02X212627Y342577I141J-142D01*
G01X212683Y342554D01*
X212750Y342454D01*
Y314352D01*
G02X212691Y314211I-200J1D01*
G01X212491Y314011D01*
G02X212350Y313952I-142J141D01*
G37*
G36*
G01X253475Y357563D02*
X253538Y357555D01*
X253570Y357538D01*
G03X254314Y357540I370J712D01*
G01X254335Y357551D01*
X254359Y357557D01*
G02X254408Y357563I49J-194D01*
G01X255598D01*
X255641Y357553D01*
X255663Y357542D01*
G03X256377I357J717D01*
G01X256399Y357553D01*
X256442Y357563D01*
X257639D01*
X257676Y357548D01*
G03X257980Y357488I304J742D01*
G03X258284Y357548I0J802D01*
G01X258321Y357563D01*
X259193D01*
G02X259242Y357557I0J-200D01*
G01X259270Y357550D01*
X259293Y357537D01*
G03X260066I387J704D01*
G01X260068Y357538D01*
X260091Y357550D01*
X260113Y357556D01*
G02X260165Y357563I52J-193D01*
G01X323750D01*
G02X323892Y357504I0J-200D01*
G01X328703Y352693D01*
G02X328762Y352551I-141J-142D01*
G01Y346437D01*
G03X328821Y346295I200J0D01*
G01X331541Y343575D01*
G02X331600Y343433I-141J-142D01*
G01Y340913D01*
G02X331541Y340771I-200J0D01*
G01X331459Y340689D01*
G02X331317Y340630I-142J141D01*
G01X321799D01*
G02X321599Y340830I0J200D01*
G01Y342020D01*
G02X321684Y342184I200J0D01*
G01X321993Y342400D01*
X322090Y342413D01*
X322136Y342396D01*
G03X322409Y342348I273J754D01*
G01X322410D01*
G03X323212Y343150I0J802D01*
G03X323035Y343653I-803J0D01*
G01X323011Y343682D01*
X322989Y343752D01*
X323005Y344055D01*
G02X323063Y344186I200J-10D01*
G01X323182Y344305D01*
G03X323241Y344447I-141J142D01*
G01Y351312D01*
G03X323182Y351454I-200J0D01*
G01X320985Y353651D01*
G03X320843Y353710I-142J-141D01*
G01X259933D01*
X259875Y353728D01*
X259850Y353746D01*
G03X258930I-460J-655D01*
G01X258905Y353728D01*
X258847Y353710D01*
X258331D01*
G02X258203Y353756I0J200D01*
G03X257690Y353942I-513J-616D01*
G03X257177Y353756I0J-802D01*
G02X257049Y353710I-128J154D01*
G01X256333D01*
G02X256213Y353750I0J200D01*
G03X255247I-483J-639D01*
G02X255127Y353710I-120J160D01*
G01X254207D01*
X254148Y353729D01*
X254122Y353748D01*
G03X253650Y353902I-472J-648D01*
G03X253178Y353748I0J-802D01*
G01X253152Y353729D01*
X253093Y353710D01*
X252183D01*
G02X252053Y353758I0J200D01*
G03X251007I-523J-608D01*
G02X250877Y353710I-130J152D01*
G01X231143D01*
G03X231001Y353651I0J-200D01*
G01X220409Y343059D01*
G03X220350Y342917I141J-142D01*
G01Y330453D01*
G03X220409Y330311I200J0D01*
G01X222201Y328519D01*
G02X222260Y328377I-141J-142D01*
G01Y282376D01*
G02X222218Y282253I-200J0D01*
G03X222048Y281760I632J-494D01*
G03X222218Y281267I802J1D01*
G02X222260Y281144I-158J-123D01*
G01Y279117D01*
G02X222184Y278960I-200J0D01*
G03Y277700I496J-630D01*
G02X222260Y277543I-124J-157D01*
G01Y241563D01*
G03X222319Y241421I200J0D01*
G01X233761Y229979D01*
G02X233820Y229837I-141J-142D01*
G01Y227053D01*
G02X233761Y226911I-200J0D01*
G01X233509Y226659D01*
G02X233367Y226600I-142J141D01*
G01X229293D01*
G02X229151Y226659I0J200D01*
G01X218399Y237411D01*
G02X218340Y237553I141J142D01*
G01Y311347D01*
G03X218281Y311489I-200J0D01*
G01X214739Y315031D01*
G02X214680Y315173I141J142D01*
G01Y347487D01*
G02X214739Y347629I200J0D01*
G01X224611Y357501D01*
G02X224753Y357560I142J-141D01*
G01X232360D01*
X232363Y357563D01*
X251502D01*
X251536Y357550D01*
G03X252104I284J750D01*
G01X252138Y357563D01*
X253475D01*
G37*
G36*
G01X233199Y370738D02*
X255858D01*
G02X256043Y370615I1J-200D01*
G01X256066Y370558D01*
X256043Y370441D01*
X254337Y368735D01*
G02X254196Y368676I-142J141D01*
G01X248232D01*
X248172Y368696D01*
X248146Y368716D01*
G03X247670Y368872I-475J-646D01*
G03Y367268I0J-802D01*
G03X248146Y367424I1J802D01*
G01X248172Y367444D01*
X248232Y367464D01*
X253832D01*
G02X254017Y367340I0J-200D01*
G01X254040Y367283D01*
X254017Y367166D01*
X251456Y364605D01*
G02X251315Y364546I-142J141D01*
G01X250532D01*
X250472Y364566D01*
X250446Y364586D01*
G03X249970Y364742I-475J-646D01*
G03X249168Y363940I0J-802D01*
G03X249183Y363784I802J-2D01*
G01X249192Y363740D01*
X249171Y363654D01*
X248945Y363380D01*
G02X248791Y363306I-155J126D01*
G01X248343D01*
G02X248201Y363365I0J200D01*
G01X247622Y363944D01*
X247592Y364018D01*
Y364058D01*
G03X246790Y364862I-802J2D01*
G03X246792Y363258I0J-802D01*
G01X246832D01*
X246906Y363228D01*
X247692Y362442D01*
G03X248050Y362294I358J359D01*
G01X252040D01*
G03X252398Y362442I0J507D01*
G01X256871Y366915D01*
G02X257013Y366974I142J-141D01*
G01X286649D01*
G02X286793Y366912I-1J-200D01*
G01X287021Y366676D01*
X287050Y366600D01*
X287049Y366559D01*
G03X287048Y366530I801J-42D01*
G03X287552Y365786I801J0D01*
G02X287653Y365695I-76J-185D01*
G01X287714Y365583D01*
G02X287734Y365448I-176J-95D01*
G03X287718Y365290I786J-159D01*
G03X288340Y364508I803J0D01*
G01X288372Y364501D01*
X288427Y364468D01*
X288624Y364235D01*
X288647Y364175D01*
X288649Y364142D01*
G03X289450Y363388I801J48D01*
G03X289513Y363391I-7J802D01*
G02X289652Y363349I16J-200D01*
G01X289755Y363269D01*
G02X289829Y363145I-123J-157D01*
G03X289841Y363091I788J147D01*
G01X289852Y363046D01*
X289832Y362956D01*
X289609Y362673D01*
G02X289452Y362596I-158J123D01*
G01X288110D01*
G03X287752Y362448I0J-507D01*
G01X285479Y360175D01*
G02X285337Y360116I-142J141D01*
G01X276440D01*
G02X276294Y360179I0J200D01*
G03X275710Y360432I-585J-549D01*
G03Y358828I0J-802D01*
G03X276262Y359049I-1J802D01*
G02X276400Y359104I138J-145D01*
G01X277473D01*
G02X277621Y359038I-1J-200D01*
G01X277849Y358788D01*
X277876Y358708D01*
X277872Y358666D01*
G03X277868Y358590I798J-80D01*
G03X277882Y358440I802J-1D01*
G01X277891Y358395D01*
X277869Y358309D01*
X277643Y358037D01*
G02X277489Y357964I-155J127D01*
G01X232197D01*
X232194Y357962D01*
X224587D01*
G03X224445Y357903I0J-200D01*
G01X214337Y347795D01*
G03X214278Y347653I141J-142D01*
G01Y345910D01*
G02X214186Y345742I-200J0D01*
G01X213858Y345533D01*
X213757Y345526D01*
X213710Y345548D01*
G03X213417Y345627I-378J-819D01*
G02X213294Y345686I20J199D01*
G01X213209Y345773D01*
G02X213152Y345913I143J140D01*
G01Y350691D01*
G02X213210Y350832I200J0D01*
G01X223303Y360925D01*
G02X223444Y360984I142J-141D01*
G01X230459D01*
G02X230601Y360925I0J-200D01*
G03X231170Y360688I569J565D01*
G03Y362292I0J802D01*
G03X230601Y362055I0J-802D01*
G02X230459Y361996I-142J141D01*
G01X224857D01*
G02X224672Y362120I0J200D01*
G01X224649Y362177D01*
X224672Y362294D01*
X233058Y370680D01*
G02X233199Y370738I141J-142D01*
G37*
G36*
G01X259907Y352450D02*
X314617D01*
G02X314759Y352391I0J-200D01*
G01X314971Y352179D01*
G02X315030Y352037I-141J-142D01*
G01Y346463D01*
G02X314971Y346321I-200J0D01*
G01X314829Y346179D01*
G02X314687Y346120I-142J141D01*
G01X274766D01*
G02X274643Y346162I0J200D01*
G03X274150Y346332I-494J-632D01*
G03X273750Y346225I0J-801D01*
G02X273550I-100J173D01*
G03X272750I-400J-694D01*
G02X272550I-100J173D01*
G03X272150Y346332I-400J-694D01*
G03X271657Y346162I1J-802D01*
G02X271534Y346120I-123J158D01*
G01X247523D01*
G03X247381Y346061I0J-200D01*
G01X230929Y329609D01*
G03X230870Y329467I141J-142D01*
G01Y316515D01*
X230806Y316416D01*
X230752Y316392D01*
G03Y314928I328J-732D01*
G01X230806Y314904D01*
X230870Y314805D01*
Y313285D01*
G02X230792Y313126I-200J0D01*
G03Y311854I487J-636D01*
G02X230870Y311695I-122J-159D01*
G01Y308149D01*
G02X230796Y307994I-200J0D01*
G03Y306746I504J-624D01*
G02X230870Y306591I-126J-155D01*
G01Y305355D01*
G02X230792Y305196I-200J0D01*
G03Y303924I487J-636D01*
G02X230870Y303765I-122J-159D01*
G01Y301904D01*
X230828Y301821D01*
X230790Y301792D01*
G03Y300508I479J-642D01*
G01X230828Y300479D01*
X230870Y300396D01*
Y246473D01*
G03X230929Y246331I200J0D01*
G01X242021Y235239D01*
G02X242080Y235097I-141J-142D01*
G01Y220053D01*
G03X242139Y219911I200J0D01*
G01X261521Y200529D01*
G03X261663Y200470I142J141D01*
G01X397857D01*
G03X397999Y200529I0J200D01*
G01X446321Y248851D01*
G02X446479Y248909I142J-141D01*
G01X446827Y248881D01*
X446903Y248838D01*
X446929Y248802D01*
G03X447580Y248468I651J467D01*
G03X448382Y249270I0J802D01*
G03X448048Y249921I-801J0D01*
G01X448012Y249947D01*
X447969Y250023D01*
X447941Y250371D01*
G02X447999Y250529I199J16D01*
G01X450317Y252847D01*
X450339Y252860D01*
G03X450620Y253141I-409J690D01*
G01X450633Y253163D01*
X460661Y263191D01*
G03X460720Y263333I-141J142D01*
G01Y269117D01*
G03X460661Y269259I-200J0D01*
G01X459539Y270381D01*
G03X459397Y270440I-142J-141D01*
G01X450308D01*
G02X450140Y270533I1J200D01*
G01X449931Y270861D01*
X449924Y270963D01*
X449946Y271010D01*
G03X450022Y271350I-726J341D01*
G03X448418I-802J0D01*
G03X448494Y271010I802J1D01*
G01X448516Y270963D01*
X448509Y270861D01*
X448300Y270533D01*
G02X448132Y270440I-169J107D01*
G01X436193D01*
G02X436051Y270499I0J200D01*
G01X435339Y271211D01*
G02X435280Y271353I141J142D01*
G01Y305889D01*
G02X435387Y306066I200J0D01*
G01X435749Y306257D01*
X435860Y306250D01*
X435906Y306219D01*
G03X436360Y306078I454J660D01*
G03Y307682I0J802D01*
G03X435906Y307541I0J-801D01*
G01X435860Y307510D01*
X435749Y307503D01*
X435387Y307694D01*
G02X435280Y307871I93J177D01*
G01Y335567D01*
G02X435339Y335709I200J0D01*
G01X436011Y336381D01*
G02X436153Y336440I142J-141D01*
G01X451457D01*
G03X451599Y336499I0J200D01*
G01X453713Y338613D01*
G02X453846Y338672I142J-141D01*
G01X454154Y338685D01*
X454225Y338661D01*
X454254Y338636D01*
G03X454770Y338448I516J614D01*
G03X455571Y339218I0J802D01*
G01X455575Y339299D01*
X455690Y339410D01*
X468107D01*
G02X468249Y339351I0J-200D01*
G01X468601Y338999D01*
G02X468660Y338857I-141J-142D01*
G01Y328443D01*
G02X468601Y328301I-200J0D01*
G01X467689Y327389D01*
G02X467547Y327330I-142J141D01*
G01X456603D01*
G03X456461Y327271I0J-200D01*
G01X452689Y323499D01*
G03X452630Y323357I141J-142D01*
G01Y320249D01*
X452561Y320148D01*
X452504Y320125D01*
G03Y318635I295J-745D01*
G01X452561Y318612D01*
X452630Y318511D01*
Y290634D01*
G02X452519Y290455I-200J0D01*
G01X452146Y290270D01*
X452033Y290281D01*
X451987Y290316D01*
G03X451500Y290481I-487J-636D01*
G03Y288877I0J-802D01*
G03X451987Y289042I0J801D01*
G01X452033Y289077D01*
X452146Y289088D01*
X452519Y288903D01*
G02X452630Y288724I-89J-179D01*
G01Y284633D01*
G03X452689Y284491I200J0D01*
G01X455251Y281929D01*
G03X455393Y281870I142J141D01*
G01X469697D01*
G02X469839Y281811I0J-200D01*
G01X474431Y277219D01*
G02X474490Y277077I-141J-142D01*
G01Y274443D01*
G02X474398Y274275I-200J0D01*
G01X474072Y274065D01*
X473970Y274058D01*
X473924Y274079D01*
G03X473590Y274152I-334J-729D01*
G03Y272548I0J-802D01*
G03X473924Y272621I0J802D01*
G01X473970Y272642D01*
X474072Y272635D01*
X474398Y272425D01*
G02X474490Y272257I-108J-168D01*
G01Y248373D01*
G02X474431Y248231I-200J0D01*
G01X457899Y231699D01*
G02X457757Y231640I-142J141D01*
G01X450733D01*
G03X450591Y231581I0J-200D01*
G01X442174Y223164D01*
G03X442115Y223022I141J-142D01*
G01Y215998D01*
G02X442056Y215856I-200J0D01*
G01X434540Y208340D01*
G02X434358Y208285I-142J141D01*
G01X433981Y208363D01*
X433904Y208427D01*
X433885Y208474D01*
G03X430354Y210868I-3531J-1407D01*
G03X426552Y207066I0J-3802D01*
G03X428946Y203535I3801J0D01*
G01X428993Y203516D01*
X429057Y203439D01*
X429135Y203062D01*
G02X429080Y202880I-196J-40D01*
G01X413749Y187549D01*
G02X413607Y187490I-142J141D01*
G01X253393D01*
G02X253251Y187549I0J200D01*
G01X250280Y190520D01*
G02X250233Y190730I141J142D01*
G01X250376Y191126D01*
X250466Y191196D01*
X250525Y191202D01*
G03X251252Y192000I-74J798D01*
G03X250450Y192802I-802J0D01*
G03X249652Y192075I0J-801D01*
G01X249646Y192016D01*
X249576Y191926D01*
X249180Y191783D01*
G02X248970Y191830I-68J188D01*
G01X243829Y196971D01*
G02X243771Y197130I141J142D01*
G01X243800Y197479D01*
X243843Y197554D01*
X243880Y197580D01*
G03X244217Y198234I-466J654D01*
G03X243415Y199036I-802J0D01*
G03X242761Y198699I0J-803D01*
G01X242735Y198662D01*
X242660Y198619D01*
X242311Y198590D01*
G02X242152Y198648I-17J199D01*
G01X235109Y205691D01*
G02X235050Y205833I141J142D01*
G01Y230037D01*
G03X234991Y230179I-200J0D01*
G01X223489Y241681D01*
G02X223430Y241823I141J142D01*
G01Y278044D01*
X223440Y278075D01*
G03X223482Y278330I-760J256D01*
G03X223440Y278585I-802J-1D01*
G01X223430Y278616D01*
Y281131D01*
G02X223474Y281257I200J1D01*
G03X223652Y281760I-624J504D01*
G03X223474Y282263I-802J-1D01*
G02X223430Y282389I156J125D01*
G01Y329527D01*
G03X223371Y329669I-200J0D01*
G01X221149Y331891D01*
G02X221090Y332033I141J142D01*
G01Y342457D01*
G02X221149Y342599I200J0D01*
G01X226721Y348171D01*
X226871Y348181D01*
X226931Y348134D01*
G03X227420Y347968I489J637D01*
G03X228222Y348770I0J802D01*
G03X228092Y349208I-803J0D01*
G02X228060Y349330I168J109D01*
G01X228068Y349447D01*
G02X228126Y349576I200J-12D01*
G01X230941Y352391D01*
G02X231083Y352450I142J-141D01*
G01X251113D01*
X251157Y352440D01*
X251177Y352430D01*
G03X251883I353J719D01*
G01X251903Y352440D01*
X251947Y352450D01*
X253148D01*
X253201Y352435D01*
X253225Y352420D01*
G03X254075I425J679D01*
G01X254099Y352435D01*
X254152Y352450D01*
X255243D01*
X255295Y352436D01*
X255318Y352422D01*
G03X256142I412J687D01*
G01X256165Y352436D01*
X256217Y352450D01*
X257254D01*
X257300Y352439D01*
X257322Y352428D01*
G03X257690Y352338I369J712D01*
G03X258058Y352428I-1J802D01*
G01X258080Y352439D01*
X258126Y352450D01*
X258873D01*
X258928Y352434D01*
X258953Y352418D01*
G03X259390Y352288I438J672D01*
G03X259827Y352418I-1J802D01*
G01X259852Y352434D01*
X259907Y352450D01*
G37*
G36*
G01X274791Y344960D02*
X306017D01*
G02X306159Y344901I0J-200D01*
G01X311521Y339539D01*
G03X311663Y339480I142J141D01*
G01X319968D01*
G02X320111Y339420I0J-200D01*
G01X320339Y339188D01*
X320369Y339114D01*
X320368Y339073D01*
Y339060D01*
G03X321972I802J0D01*
G01Y339073D01*
X321971Y339114D01*
X322001Y339188D01*
X322229Y339420D01*
G02X322372Y339480I143J-140D01*
G01X323111D01*
G02X323257Y339417I0J-200D01*
G01X323485Y339173D01*
X323513Y339095D01*
X323510Y339053D01*
G03X323508Y339000I800J-57D01*
G03X325112I802J0D01*
G03X325110Y339053I-802J-4D01*
G01X325107Y339095D01*
X325135Y339173D01*
X325363Y339417D01*
G02X325509Y339480I146J-137D01*
G01X326208D01*
G02X326349Y339421I-1J-200D01*
G01X326549Y339221D01*
G02X326608Y339080I-141J-142D01*
G03X327410Y338278I802J0D01*
G03X327463Y338280I-4J802D01*
G01X327505Y338283D01*
X327583Y338255D01*
X327827Y338027D01*
G02X327890Y337881I-137J-146D01*
G01Y335780D01*
G02X327690Y335580I-200J0D01*
G01X324432D01*
X324375Y335598D01*
X324350Y335615D01*
G03X323444I-453J-663D01*
G01X323419Y335598D01*
X323362Y335580D01*
X320094D01*
G02X319936Y335658I0J200D01*
G03X318664I-636J-490D01*
G02X318506Y335580I-158J122D01*
G01X316719D01*
X316675Y335590D01*
X316654Y335601D01*
G03X316300Y335683I-353J-720D01*
G03X315946Y335601I-1J-802D01*
G01X315925Y335590D01*
X315881Y335580D01*
X315700D01*
G02X315514Y335705I-1J200D01*
G01X315473Y335809D01*
G02X315501Y336007I185J75D01*
G03X315672Y336502I-631J495D01*
G03X314068I-802J0D01*
G03X314148Y336154I802J1D01*
G01X314170Y336106D01*
X314165Y336005D01*
X313957Y335674D01*
G02X313787Y335580I-170J106D01*
G01X304133D01*
G02X303991Y335639I0J200D01*
G01X299059Y340571D01*
G03X298917Y340630I-142J-141D01*
G01X266073D01*
G03X265931Y340571I0J-200D01*
G01X264529Y339169D01*
G02X264387Y339110I-142J141D01*
G01X252163D01*
G03X252021Y339051I0J-200D01*
G01X235229Y322259D01*
G03X235170Y322117I141J-142D01*
G01Y314994D01*
X235117Y314902D01*
X235070Y314875D01*
G03Y313485I400J-695D01*
G01X235117Y313458D01*
X235170Y313366D01*
Y306614D01*
X235117Y306522D01*
X235070Y306495D01*
G03Y305105I400J-695D01*
G01X235117Y305078D01*
X235170Y304986D01*
Y302769D01*
X235105Y302669D01*
X235050Y302645D01*
G03Y301175I319J-735D01*
G01X235105Y301151D01*
X235170Y301051D01*
Y268993D01*
G03X235229Y268851I200J0D01*
G01X236461Y267619D01*
G03X236603Y267560I142J141D01*
G01X244627D01*
G02X244769Y267501I0J-200D01*
G01X245301Y266969D01*
G02X245360Y266827I-141J-142D01*
G01Y264843D01*
G02X245301Y264701I-200J0D01*
G01X245049Y264449D01*
G02X244907Y264390I-142J141D01*
G01X234923D01*
G02X234781Y264449I0J200D01*
G01X231759Y267471D01*
G02X231700Y267613I141J142D01*
G01Y300371D01*
G02X231774Y300526I200J0D01*
G03Y301774I-504J624D01*
G02X231700Y301929I126J155D01*
G01Y303773D01*
G02X231776Y303930I200J0D01*
G03Y305190I-496J630D01*
G02X231700Y305347I124J157D01*
G01Y306616D01*
X231742Y306699D01*
X231780Y306728D01*
G03Y308012I-479J642D01*
G01X231742Y308041D01*
X231700Y308124D01*
Y311703D01*
G02X231776Y311860I200J0D01*
G03Y313120I-496J630D01*
G02X231700Y313277I124J157D01*
G01Y315115D01*
X231718Y315174D01*
X231736Y315199D01*
G03Y316121I-655J461D01*
G01X231718Y316146D01*
X231700Y316205D01*
Y326937D01*
G02X231759Y327079I200J0D01*
G01X249581Y344901D01*
G02X249723Y344960I142J-141D01*
G01X271509D01*
G02X271637Y344914I0J-200D01*
G03X272150Y344728I513J616D01*
G03X272550Y344835I0J801D01*
G02X272750I100J-173D01*
G03X273550I400J694D01*
G02X273750I100J-173D01*
G03X274150Y344728I400J694D01*
G03X274663Y344914I0J802D01*
G02X274791Y344960I128J-154D01*
G37*
G36*
G01X231309Y353308D02*
X320677D01*
G02X320818Y353250I0J-200D01*
G01X322781Y351287D01*
G02X322840Y351146I-141J-142D01*
G01Y344613D01*
G02X322781Y344472I-200J1D01*
G01X321256Y342947D01*
G03X321198Y342805I142J-141D01*
G01Y340082D01*
G02X320998Y339882I-200J0D01*
G01X320296D01*
G02X320120Y339986I-1J200D01*
G01X319926Y340345D01*
X319931Y340454D01*
X319961Y340501D01*
G03X320092Y340940I-670J439D01*
G03X318488I-802J0D01*
G03X318619Y340501I801J0D01*
G01X318649Y340454D01*
X318654Y340345D01*
X318460Y339986D01*
G02X318284Y339882I-175J96D01*
G01X311829D01*
G02X311688Y339940I0J200D01*
G01X306251Y345377D01*
G02X306207Y345595I141J142D01*
G01X306231Y345652D01*
X306330Y345718D01*
X314853D01*
G03X314995Y345777I0J200D01*
G01X315373Y346155D01*
G03X315432Y346297I-141J142D01*
G01Y352203D01*
G03X315373Y352345I-200J0D01*
G01X314925Y352793D01*
G03X314783Y352852I-142J-141D01*
G01X231252D01*
G02X231067Y352975I0J200D01*
G01X231044Y353032D01*
X231067Y353149D01*
X231168Y353250D01*
G02X231309Y353308I141J-142D01*
G37*
G36*
G01X293300Y329000D02*
X304598D01*
X304599Y328999D01*
X307318D01*
G02X307460Y328940I0J-200D01*
G01X308441Y327959D01*
G03X308583Y327900I142J141D01*
G01X308677D01*
G02X308822Y327839I1J-200D01*
G03X309400Y327592I579J555D01*
G03X309720Y327659I-1J802D01*
G02X309880I80J-184D01*
G03X310200Y327592I321J735D01*
G03X310778Y327839I-1J802D01*
G02X310923Y327900I144J-139D01*
G01X312051D01*
G02X312177Y327856I1J-200D01*
G03X312680Y327678I504J624D01*
G03X312937Y327720I1J802D01*
G02X313101Y327704I64J-189D01*
G03X313500Y327598I399J696D01*
G03X314074Y327840I0J802D01*
G02X314217Y327900I143J-140D01*
G01X322000D01*
G02X322200Y327700I0J-200D01*
G01Y325683D01*
G02X322141Y325541I-200J0D01*
G01X319799Y323199D01*
G02X319657Y323140I-142J141D01*
G01X319016D01*
X318970Y323151D01*
X318948Y323162D01*
G03X318580Y323252I-369J-712D01*
G03X318212Y323162I1J-802D01*
G01X318190Y323151D01*
X318144Y323140D01*
X313073D01*
G02X312931Y323199I0J200D01*
G01X312079Y324051D01*
G03X311937Y324110I-142J-141D01*
G01X311031D01*
G02X310889Y324169I0J200D01*
G01X310866Y324192D01*
X309397D01*
G03X309255Y324133I0J-200D01*
G01X309232Y324110D01*
X308658D01*
X308630Y324118D01*
G03X308400Y324152I-231J-768D01*
G03X307663Y323666I0J-802D01*
G01X307639Y323610D01*
X307540Y323545D01*
X278738D01*
G03X278596Y323486I0J-200D01*
G01X278013Y322903D01*
X277991Y322890D01*
G03X277710Y322609I409J-690D01*
G01X277697Y322587D01*
X268731Y313621D01*
X268679Y313593D01*
X268649Y313588D01*
G03X268012Y312951I151J-788D01*
G01X268007Y312921D01*
X267979Y312869D01*
X262000Y306890D01*
G02X261801Y306840I-141J141D01*
G01X261411Y306957D01*
X261337Y307038D01*
X261325Y307092D01*
G03X260540Y307732I-785J-161D01*
G03X259738Y306930I0J-802D01*
G03X260378Y306145I801J0D01*
G01X260432Y306133D01*
X260513Y306059D01*
X260630Y305669D01*
G02X260580Y305470I-191J-58D01*
G01X248829Y293719D01*
G03X248770Y293577I141J-142D01*
G01Y286103D01*
G02X248711Y285961I-200J0D01*
G01X247739Y284989D01*
G02X247597Y284930I-142J141D01*
G01X240203D01*
G02X240061Y284989I0J200D01*
G01X238829Y286221D01*
G02X238770Y286363I141J142D01*
G01Y300687D01*
G02X238829Y300829I200J0D01*
G01X266190Y328190D01*
G02X266331Y328248I141J-142D01*
G01X291060D01*
G03X291331Y328320I-1J552D01*
G01X291361Y328336D01*
X291424Y328349D01*
X291730Y328306D01*
X291788Y328278D01*
X291812Y328254D01*
G03X292380Y328018I568J566D01*
G03X293182Y328804I0J802D01*
G01X293183Y328886D01*
X293300Y329000D01*
G37*
G36*
G01X443893Y268390D02*
X458857D01*
G02X458999Y268331I0J-200D01*
G01X459541Y267789D01*
G02X459600Y267647I-141J-142D01*
G01Y263333D01*
G02X459541Y263191I-200J0D01*
G01X450556Y254206D01*
X450418Y254191D01*
X450358Y254228D01*
G03X449930Y254352I-428J-677D01*
G03X449128Y253550I0J-802D01*
G03X449252Y253122I801J0D01*
G01X449289Y253062D01*
X449274Y252924D01*
X397919Y201569D01*
G02X397777Y201510I-142J141D01*
G01X292557D01*
X292445Y201608D01*
X292434Y201682D01*
G03X290846I-794J-112D01*
G01X290835Y201608D01*
X290723Y201510D01*
X268363D01*
G02X268221Y201569I0J200D01*
G01X256039Y213751D01*
G02X255980Y213893I141J142D01*
G01Y229377D01*
G03X255921Y229519I-200J0D01*
G01X254019Y231421D01*
G03X253877Y231480I-142J-141D01*
G01X245453D01*
G02X245311Y231539I0J200D01*
G01X244729Y232121D01*
G02X244670Y232263I141J142D01*
G01Y236507D01*
G02X244729Y236649I200J0D01*
G01X244941Y236861D01*
G02X245083Y236920I142J-141D01*
G01X257587D01*
G03X257729Y236979I0J200D01*
G01X260961Y240211D01*
G03X261020Y240353I-141J142D01*
G01Y248587D01*
G03X260961Y248729I-200J0D01*
G01X259439Y250251D01*
G03X259297Y250310I-142J-141D01*
G01X256610D01*
G02X256410Y250510I0J200D01*
G01Y252487D01*
G02X256469Y252629I200J0D01*
G01X256771Y252931D01*
G02X256913Y252990I142J-141D01*
G01X262577D01*
G02X262719Y252931I0J-200D01*
G01X264771Y250879D01*
G02X264830Y250737I-141J-142D01*
G01Y215763D01*
G03X264889Y215621I200J0D01*
G01X272441Y208069D01*
G03X272583Y208010I142J141D01*
G01X383347D01*
G03X383489Y208069I0J200D01*
G01X443751Y268331D01*
G02X443893Y268390I142J-141D01*
G37*
G36*
G01X309563Y323790D02*
X310617D01*
G02X310759Y323731I0J-200D01*
G01X310951Y323539D01*
G02X311010Y323397I-141J-142D01*
G01Y318140D01*
G02X310810Y317940I-200J0D01*
G01X286423D01*
G03X286281Y317881I0J-200D01*
G01X262749Y294349D01*
G03X262690Y294207I141J-142D01*
G01Y271303D01*
G03X262749Y271161I200J0D01*
G01X271551Y262359D01*
G02X271610Y262217I-141J-142D01*
G01Y257363D01*
G02X271551Y257221I-200J0D01*
G01X270939Y256609D01*
G02X270797Y256550I-142J141D01*
G01X265883D01*
G02X265741Y256609I0J200D01*
G01X258791Y263559D01*
X258761Y263652D01*
X258770Y263701D01*
G03X258782Y263840I-790J138D01*
G03X257980Y264642I-802J0D01*
G03X257841Y264630I-1J-802D01*
G01X257792Y264621D01*
X257699Y264651D01*
X254829Y267521D01*
G02X254770Y267663I141J142D01*
G01Y296687D01*
G02X254829Y296829I200J0D01*
G01X280961Y322961D01*
G02X281103Y323020I142J-141D01*
G01X307602D01*
X307692Y322970D01*
X307719Y322926D01*
G03X308400Y322548I681J424D01*
G03X309202Y323350I0J802D01*
G03X309200Y323411I-802J4D01*
G01X309196Y323455D01*
X309227Y323537D01*
X309421Y323731D01*
G02X309563Y323790I142J-141D01*
G37*
G36*
G01X317383Y319360D02*
X318347D01*
G02X318489Y319301I0J-200D01*
G01X320191Y317599D01*
G02X320250Y317457I-141J-142D01*
G01Y316033D01*
G02X320191Y315891I-200J0D01*
G01X319434Y315134D01*
X319410Y315121D01*
G03X318998Y314420I390J-701D01*
G03X319080Y314067I801J0D01*
G01X319100Y314026D01*
Y314000D01*
X319117D01*
G03X319800Y313618I683J420D01*
G03X320117Y313683I1J802D01*
G01X320141Y313659D01*
G02X320200Y313517I-141J-142D01*
G01Y313083D01*
G02X320141Y312941I-200J0D01*
G01X319859Y312659D01*
G02X319717Y312600I-142J141D01*
G01X318463D01*
G03X318321Y312541I0J-200D01*
G01X318149Y312369D01*
G03X318090Y312227I141J-142D01*
G01Y310876D01*
G02X318036Y310740I-200J1D01*
G01X317954Y310652D01*
G02X317838Y310591I-146J137D01*
G03X317158Y309798I122J-793D01*
G03X317359Y309267I802J0D01*
G01X317386Y309236D01*
X317412Y309161D01*
X317384Y308792D01*
X317347Y308722D01*
X317316Y308695D01*
G03X317032Y308160I514J-616D01*
G01X317028Y308122D01*
X316995Y308057D01*
X316768Y307852D01*
G02X316634Y307800I-134J148D01*
G01X290143D01*
G03X290001Y307741I0J-200D01*
G01X277019Y294759D01*
G03X276960Y294617I141J-142D01*
G01Y258683D01*
G02X276901Y258541I-200J0D01*
G01X276409Y258049D01*
G02X276267Y257990I-142J141D01*
G01X273213D01*
G02X273071Y258049I0J200D01*
G01X272409Y258711D01*
G02X272350Y258853I141J142D01*
G01Y263147D01*
G03X272291Y263289I-200J0D01*
G01X263609Y271971D01*
G02X263550Y272113I141J142D01*
G01Y293537D01*
G02X263609Y293679I200J0D01*
G01X282201Y312271D01*
G02X282343Y312330I142J-141D01*
G01X309854D01*
G02X309995Y312271I-1J-200D01*
G01X310772Y311494D01*
G03X311339Y311260I566J567D01*
G01X311390D01*
X311431Y311240D01*
G03X311780Y311160I349J721D01*
G03X312581Y311940I0J801D01*
G01X312582Y311980D01*
X312613Y312051D01*
X312841Y312273D01*
G02X312981Y312330I140J-143D01*
G01X314067D01*
G03X314209Y312389I0J200D01*
G01X314990Y313170D01*
X315063Y313200D01*
X315100D01*
X316411Y314511D01*
X316430Y314523D01*
G03X316677Y314770I-430J677D01*
G01X316689Y314789D01*
X317001Y315101D01*
G03X317060Y315243I-141J142D01*
G01Y319037D01*
G02X317119Y319179I200J0D01*
G01X317241Y319301D01*
G02X317383Y319360I142J-141D01*
G37*
G36*
G01X319162Y310200D02*
X319954D01*
X320047Y310146D01*
X320073Y310099D01*
G03X320095Y310064I524J305D01*
G01X320112Y310039D01*
X320128Y309984D01*
Y305669D01*
G02X320070Y305528I-200J0D01*
G01X319101Y304559D01*
G02X318959Y304500I-142J141D01*
G01X295523D01*
G03X295381Y304441I0J-200D01*
G01X283729Y292789D01*
G03X283670Y292647I141J-142D01*
G01Y212653D01*
G02X283611Y212511I-200J0D01*
G01X283249Y212149D01*
G02X283107Y212090I-142J141D01*
G01X278123D01*
G02X277981Y212149I0J200D01*
G01X277699Y212431D01*
G02X277640Y212573I141J142D01*
G01Y294267D01*
G02X277699Y294409I200J0D01*
G01X290431Y307141D01*
G02X290573Y307200I142J-141D01*
G01X317617D01*
G03X317759Y307259I0J200D01*
G01X317776Y307276D01*
X317855Y307278D01*
G03X318632Y308080I-25J802D01*
G03X318526Y308478I-802J0D01*
G01X318513Y308501D01*
X318500Y308551D01*
Y309122D01*
G02X318552Y309257I200J0D01*
G03X318762Y309799I-592J541D01*
G01Y309839D01*
X318792Y309913D01*
X319020Y310141D01*
G02X319162Y310200I142J-141D01*
G37*
G36*
G01X286589Y317538D02*
X307118D01*
G02X307318Y317338I0J-199D01*
G01Y315354D01*
G03X307553Y314787I802J0D01*
G01X309268Y313073D01*
G02X309311Y312855I-142J-141D01*
G01X309288Y312798D01*
X309188Y312732D01*
X282182D01*
G02X281997Y312855I0J200D01*
G01X281974Y312912D01*
X281997Y313029D01*
X286448Y317480D01*
G02X286589Y317538I141J-142D01*
G37*
G36*
G01X321542Y310700D02*
X323000D01*
G02X323200Y310500I0J-200D01*
G01Y310053D01*
X323188Y310006D01*
X323176Y309984D01*
G03Y309216I703J-384D01*
G01X323188Y309194D01*
X323200Y309147D01*
Y308027D01*
X323190Y307983D01*
X323180Y307963D01*
G03Y307257I719J-353D01*
G01X323190Y307237D01*
X323200Y307193D01*
Y298390D01*
G02X323141Y298248I-200J0D01*
G01X321001Y296108D01*
G02X320859Y296049I-142J141D01*
G01X313473D01*
X313484Y296060D01*
X297143D01*
G03X297001Y296001I0J-200D01*
G01X291324Y290324D01*
G03X291265Y290182I141J-142D01*
G01Y215448D01*
G03X291324Y215306I200J0D01*
G01X292371Y214259D01*
G03X292513Y214200I142J141D01*
G01X299407D01*
G03X299549Y214259I0J200D01*
G01X300261Y214971D01*
G03X300320Y215113I-141J142D01*
G01Y236057D01*
G02X300379Y236199I200J0D01*
G01X301171Y236991D01*
G02X301313Y237050I142J-141D01*
G01X366077D01*
G03X366219Y237109I0J200D01*
G01X374611Y245501D01*
G03X374670Y245643I-141J142D01*
G01Y259911D01*
G02X374757Y260077I200J1D01*
G01X375072Y260291D01*
X375170Y260302D01*
X375216Y260284D01*
G03X375510Y260228I294J746D01*
G03Y261832I0J802D01*
G03X375216Y261776I0J-802D01*
G01X375170Y261758D01*
X375072Y261769D01*
X374757Y261983D01*
G02X374670Y262149I113J165D01*
G01Y266660D01*
G02X374743Y266815I200J0D01*
G01X375016Y267040D01*
X375102Y267062D01*
X375147Y267053D01*
G03X375300Y267038I154J787D01*
G03Y268642I0J802D01*
G03X375147Y268627I1J-802D01*
G01X375102Y268618D01*
X375016Y268640D01*
X374743Y268865D01*
G02X374670Y269020I127J155D01*
G01Y274507D01*
G02X374729Y274649I200J0D01*
G01X375881Y275801D01*
G02X376023Y275860I142J-141D01*
G01X382837D01*
G02X382979Y275801I0J-200D01*
G01X383451Y275329D01*
G02X383510Y275187I-141J-142D01*
G01Y262693D01*
G03X383569Y262551I200J0D01*
G01X391725Y254395D01*
X391750Y254352D01*
X391757Y254326D01*
G03X392316Y253767I773J214D01*
G01X392342Y253760D01*
X392385Y253735D01*
X393791Y252329D01*
G02X393850Y252187I-141J-142D01*
G01Y250366D01*
G02X393760Y250199I-200J0D01*
G01X393440Y249988D01*
X393340Y249978D01*
X393294Y249998D01*
G03X392980Y250062I-314J-738D01*
G03X392323Y249720I0J-802D01*
G01X392294Y249679D01*
X392206Y249634D01*
X391775Y249640D01*
X391688Y249688D01*
X391661Y249730D01*
G03X390990Y250092I-671J-441D01*
G03Y248488I0J-802D01*
G03X391647Y248830I0J802D01*
G01X391676Y248871D01*
X391764Y248916D01*
X392195Y248910D01*
X392282Y248862D01*
X392309Y248820D01*
G03X392980Y248458I671J441D01*
G03X393294Y248522I0J802D01*
G01X393340Y248542D01*
X393440Y248532D01*
X393760Y248321D01*
G02X393850Y248154I-110J-167D01*
G01Y248107D01*
G02X393730Y247923I-200J-1D01*
G01X393625Y247877D01*
G02X393430Y247897I-80J184D01*
G03X392970Y248042I-460J-657D01*
G03Y246438I0J-802D01*
G03X393290Y246505I-1J802D01*
G01X393337Y246525D01*
X393437Y246517D01*
X393760Y246305D01*
G02X393850Y246138I-110J-167D01*
G01Y246001D01*
G02X393795Y245863I-200J0D01*
G01X393712Y245775D01*
G02X393593Y245715I-144J138D01*
G03Y244125I107J-795D01*
G02X393712Y244065I-25J-198D01*
G01X393795Y243977D01*
G02X393850Y243839I-145J-138D01*
G01Y243224D01*
X393799Y243133D01*
X393754Y243106D01*
G03Y241734I417J-686D01*
G01X393799Y241707D01*
X393850Y241616D01*
Y237983D01*
G02X393791Y237841I-200J0D01*
G01X378224Y222274D01*
G02X378058Y222217I-141J142D01*
G01X377699Y222262D01*
X377622Y222312D01*
X377598Y222352D01*
G03X376910Y222742I-688J-412D01*
G03X376108Y221940I0J-802D01*
G03X376498Y221252I802J0D01*
G01X376538Y221228D01*
X376588Y221151D01*
X376633Y220792D01*
G02X376576Y220626I-199J-25D01*
G01X373939Y217989D01*
G02X373797Y217930I-142J141D01*
G01X318503D01*
G03X318361Y217871I0J-200D01*
G01X310229Y209739D01*
G02X310087Y209680I-142J141D01*
G01X286323D01*
G02X286181Y209739I0J200D01*
G01X284449Y211471D01*
G02X284390Y211613I141J142D01*
G01Y292077D01*
G02X284449Y292219I200J0D01*
G01X294161Y301931D01*
G02X294303Y301990I142J-141D01*
G01X310380D01*
X310370Y302000D01*
X318917D01*
G03X319059Y302059I0J200D01*
G01X320731Y303731D01*
G03X320790Y303873I-141J142D01*
G01Y304449D01*
G02X320849Y304591I200J0D01*
G01X321164Y304906D01*
G03X321342Y305335I-428J429D01*
G01Y310500D01*
G02X321542Y310700I200J0D01*
G37*
G36*
G01X324850Y310600D02*
X326420D01*
G02X326620Y310400I0J-200D01*
G01Y294623D01*
G02X326561Y294481I-200J0D01*
G01X323139Y291059D01*
G02X322997Y291000I-142J141D01*
G01X302573D01*
G03X302431Y290941I0J-200D01*
G01X299419Y287929D01*
G03X299360Y287787I141J-142D01*
G01Y215683D01*
G02X299301Y215541I-200J0D01*
G01X298849Y215089D01*
G02X298707Y215030I-142J141D01*
G01X292783D01*
G02X292641Y215089I0J200D01*
G01X292399Y215331D01*
G02X292340Y215473I141J142D01*
G01Y289707D01*
G02X292399Y289849I200J0D01*
G01X296491Y293941D01*
G02X296633Y294000I142J-141D01*
G01X321417D01*
G03X321559Y294059I0J200D01*
G01X324591Y297091D01*
G03X324650Y297233I-141J142D01*
G01Y305299D01*
X324669Y305359D01*
X324689Y305385D01*
G03Y306331I-649J473D01*
G01X324669Y306357D01*
X324650Y306417D01*
Y307324D01*
X324660Y307355D01*
G03X324702Y307610I-760J256D01*
G03X324660Y307865I-802J-1D01*
G01X324650Y307896D01*
Y309374D01*
X324656Y309399D01*
G03X324682Y309600I-776J203D01*
G03X324656Y309801I-802J-2D01*
G01X324650Y309826D01*
Y310400D01*
G02X324850Y310600I200J0D01*
G37*
G36*
G01X319725Y304157D02*
X320047Y304479D01*
G02X320265Y304523I142J-141D01*
G01X320322Y304499D01*
X320388Y304400D01*
Y304039D01*
G02X320330Y303898I-200J0D01*
G01X318892Y302460D01*
G02X318751Y302402I-141J142D01*
G01X309401D01*
X309411Y302392D01*
X294382D01*
G02X294197Y302515I0J200D01*
G01X294174Y302572D01*
X294197Y302689D01*
X295548Y304040D01*
G02X295689Y304098I141J-142D01*
G01X319583D01*
G03X319725Y304157I0J200D01*
G37*
G36*
G01X347276Y371024D02*
X357375D01*
G02X357559Y370900I-1J-200D01*
G01X357583Y370843D01*
X357560Y370726D01*
X356266Y369432D01*
X356227Y369417D01*
G03X355781Y368983I292J-747D01*
G01X355765Y368947D01*
X355738Y368920D01*
G02X355455I-142J141D01*
G01X355361Y369014D01*
X355350Y369031D01*
G03X354600Y369432I-750J-501D01*
G03X353930Y369133I1J-902D01*
G01X353900Y369100D01*
X353821Y369066D01*
X353430Y369074D01*
X353353Y369111D01*
X353324Y369145D01*
G03X352630Y369472I-695J-575D01*
G03X351728Y368570I0J-902D01*
G01Y367910D01*
G03X351993Y367273I901J1D01*
G01X353467Y365798D01*
G02X353511Y365580I-141J-142D01*
G01X353487Y365523D01*
X353388Y365456D01*
X347113D01*
G02X346944Y365550I1J200D01*
G01X346737Y365881D01*
X346731Y365984D01*
X346754Y366031D01*
G03X346834Y366381I-722J349D01*
G03X345230I-802J0D01*
G03X345310Y366031I802J-1D01*
G01X345333Y365984D01*
X345327Y365881D01*
X345120Y365550D01*
G02X344951Y365456I-170J106D01*
G01X319672D01*
G02X319504Y365547I0J200D01*
G01X319293Y365871D01*
X319285Y365971D01*
X319306Y366018D01*
G03X319374Y366341I-733J323D01*
G03X317770I-802J0D01*
G03X317838Y366018I801J0D01*
G01X317859Y365971D01*
X317851Y365871D01*
X317640Y365547D01*
G02X317472Y365456I-168J109D01*
G01X317453D01*
G02X317311Y365515I0J200D01*
G01X315808Y367018D01*
G03X315450Y367166I-358J-359D01*
G01X307120D01*
G03X306762Y367018I0J-507D01*
G01X305599Y365855D01*
G02X305457Y365796I-142J141D01*
G01X299013D01*
G02X298874Y365853I1J200D01*
G01X298646Y366074D01*
X298615Y366146D01*
X298614Y366185D01*
G03X298610Y366239I-801J-32D01*
G01X298607Y366273D01*
X298623Y366339D01*
X298799Y366606D01*
X298853Y366647D01*
X298886Y366658D01*
G03X299088Y366782I-157J482D01*
G01X299321Y367015D01*
G02X299463Y367074I142J-141D01*
G01X303929D01*
G02X304071Y367015I0J-200D01*
G03X304640Y366778I569J565D01*
G03Y368382I0J802D01*
G03X304071Y368145I0J-802D01*
G02X303929Y368086I-142J141D01*
G01X299170D01*
G03X299057Y368074I-3J-506D01*
G01X299018Y368065D01*
X298941Y368078D01*
X298634Y368267D01*
X298589Y368330D01*
X298579Y368369D01*
G03X297800Y368982I-779J-188D01*
G03X296998Y368180I0J-802D01*
G03X297003Y368091I802J0D01*
G01X297008Y368048D01*
X296982Y367968D01*
X296755Y367713D01*
G02X296605Y367646I-150J133D01*
G01X295203D01*
G02X295061Y367705I0J200D01*
G01X294928Y367838D01*
G03X294570Y367986I-358J-359D01*
G01X292989D01*
G02X292838Y368056I1J200D01*
G01X292611Y368318D01*
X292587Y368400D01*
X292594Y368444D01*
G03X292602Y368560I-794J113D01*
G03X292601Y368601I-802J1D01*
G01X292599Y368644D01*
X292629Y368723D01*
X293611Y369705D01*
G02X293753Y369764I142J-141D01*
G01X297169D01*
G02X297311Y369705I0J-200D01*
G03X297880Y369468I569J565D01*
G03X298682Y370270I0J802D01*
G03X298647Y370506I-802J2D01*
G01X298632Y370552D01*
X298648Y370645D01*
X298868Y370942D01*
G02X299029Y371024I162J-118D01*
G01X313495D01*
G02X313679Y370900I-1J-200D01*
G01X313703Y370843D01*
X313680Y370726D01*
X312606Y369652D01*
X312532Y369622D01*
X312492D01*
G03X311827Y369271I-2J-802D01*
G01X311799Y369230D01*
X311713Y369184D01*
X311283Y369182D01*
X311197Y369227D01*
X311168Y369268D01*
G03X310510Y369612I-658J-457D01*
G03X309849Y369265I0J-803D01*
G01X309821Y369224D01*
X309735Y369178D01*
X309305D01*
X309219Y369224D01*
X309191Y369265D01*
G03X308530Y369612I-661J-456D01*
G03Y368008I0J-802D01*
G03X309191Y368355I0J803D01*
G01X309219Y368396D01*
X309305Y368442D01*
X309735D01*
X309821Y368396D01*
X309849Y368355D01*
G03X310510Y368008I661J456D01*
G03X311173Y368359I0J802D01*
G01X311201Y368400D01*
X311287Y368446D01*
X311717Y368448D01*
X311803Y368403D01*
X311832Y368362D01*
G03X312490Y368018I658J457D01*
G03X313292Y368822I0J802D01*
G01Y368862D01*
X313322Y368936D01*
X314281Y369895D01*
G02X314423Y369954I142J-141D01*
G01X317899D01*
G02X318041Y369895I0J-200D01*
G03X318610Y369658I569J565D01*
G03X319412Y370460I0J802D01*
G03X319405Y370569I-802J3D01*
G01X319399Y370613D01*
X319423Y370695D01*
X319650Y370955D01*
G02X319801Y371024I151J-131D01*
G01X345132D01*
G02X345332Y370824I0J-200D01*
G01Y370790D01*
X345321Y370759D01*
G03X345285Y370609I758J-261D01*
G01X345275Y370535D01*
X345163Y370436D01*
X341180D01*
G03X340822Y370288I0J-507D01*
G01X340176Y369642D01*
X340102Y369612D01*
X340062D01*
G03X339368Y369215I-2J-802D01*
G01X339343Y369172D01*
X339258Y369119D01*
X338830Y369089D01*
X338739Y369129D01*
X338709Y369168D01*
G03X338080Y369472I-629J-499D01*
G03Y367868I0J-802D01*
G03X338772Y368265I0J802D01*
G01X338797Y368308D01*
X338882Y368361D01*
X339310Y368391D01*
X339401Y368351D01*
X339431Y368312D01*
G03X340060Y368008I629J499D01*
G03X340862Y368812I0J802D01*
G01Y368852D01*
X340892Y368926D01*
X341331Y369365D01*
G02X341473Y369424I142J-141D01*
G01X344942D01*
G02X345117Y369322I0J-200D01*
G01X345315Y368970D01*
X345313Y368863D01*
X345284Y368816D01*
G03X345168Y368400I686J-416D01*
G03X346772I802J0D01*
G03X345979Y369202I-802J0D01*
G01X345939D01*
X345868Y369233D01*
X345840Y369261D01*
G02Y369543I141J141D01*
G01X345964Y369668D01*
X346038Y369698D01*
X346078D01*
G03X346882Y370500I2J802D01*
G03X346878Y370582I-802J2D01*
G01X346873Y370625D01*
X346899Y370705D01*
X347127Y370957D01*
G02X347276Y371024I149J-133D01*
G37*
G36*
G01X410085Y338596D02*
G02X410231Y338540I7J-200D01*
G01X410438Y338341D01*
G02X410499Y338197I-139J-144D01*
G01Y334276D01*
G02X410380Y334093I-200J0D01*
G01X410379D01*
G03Y332807I281J-643D01*
G01X410380D01*
G02X410499Y332624I-81J-183D01*
G01Y331777D01*
X410448Y331686D01*
X410403Y331659D01*
G03Y330461I368J-599D01*
G01X410448Y330434D01*
X410499Y330343D01*
Y325629D01*
G02X410442Y325489I-200J0D01*
G01X410216Y325260D01*
X410145Y325229D01*
X410106D01*
G03Y323825I11J-702D01*
G01X410145D01*
X410216Y323794D01*
X410442Y323565D01*
G02X410499Y323425I-143J-140D01*
G01Y319082D01*
G02X410411Y318916I-200J0D01*
G01X410137Y318731D01*
G02X409950Y318711I-112J165D01*
G03X409691Y318761I-260J-652D01*
G01X409689D01*
G03X409300Y318643I1J-702D01*
G02X409078I-111J167D01*
G03X408689Y318761I-390J-584D01*
G03X407987Y318059I0J-702D01*
G03X408105Y317670I702J1D01*
G02Y317448I-167J-111D01*
G03X407987Y317059I584J-390D01*
G03X408689Y316357I702J0D01*
G03X409078Y316475I-1J702D01*
G02X409300I111J-167D01*
G03X409689Y316357I390J584D01*
G01X409691D01*
G03X409950Y316407I-1J702D01*
G02X410137Y316387I75J-185D01*
G01X410411Y316202D01*
G02X410499Y316036I-112J-166D01*
G01Y294190D01*
G02X410299Y293990I-200J0D01*
G01X362550D01*
G03X362350Y293790I0J-200D01*
G01Y275971D01*
X362343Y275945D01*
G03X362318Y275760I677J-186D01*
G03X362343Y275575I702J1D01*
G01X362350Y275549D01*
Y266310D01*
G02X362150Y266110I-200J0D01*
G01X361800D01*
G03X361600Y265910I0J-200D01*
G01Y240940D01*
G02X361400Y240740I-200J0D01*
G01X311400D01*
G02X311200Y240940I0J200D01*
G01Y278660D01*
G02X311400Y278860I200J0D01*
G01X320739D01*
G02X320877Y278805I0J-200D01*
G01X321077Y278613D01*
G02X321139Y278478I-138J-145D01*
G03X322541I701J32D01*
G01X322543Y278517D01*
X322575Y278586D01*
X322803Y278805D01*
G02X322941Y278860I138J-145D01*
G01X329000D01*
G03X329200Y279060I0J200D01*
G01Y304143D01*
G02X329270Y304295I200J0D01*
G01X329536Y304522D01*
X329619Y304545D01*
X329663Y304538D01*
G03X329789Y304528I126J792D01*
G01X329790D01*
G03X330356Y304762I0J802D01*
G01X330357Y304763D01*
G02X330511Y304820I140J-143D01*
G01X330856Y304795D01*
X330933Y304753D01*
X330958Y304719D01*
G03X331600Y304398I642J482D01*
G03X332402Y305200I0J802D01*
G03X332145Y305788I-801J0D01*
G01X332116Y305815D01*
X332084Y305884D01*
X332064Y306241D01*
X332090Y306315D01*
X332115Y306344D01*
G03X332312Y306870I-604J526D01*
G03X331510Y307672I-802J0D01*
G03X330927Y307420I1J-802D01*
G02X330783Y307357I-146J137D01*
G01X330452Y307355D01*
X330376Y307388D01*
X330348Y307417D01*
G03X329771Y307662I-577J-557D01*
G01X329769D01*
G03X329657Y307654I1J-802D01*
G01X329656D01*
G02X329497Y307701I-28J198D01*
G01X329269Y307898D01*
G02X329200Y308049I131J151D01*
G01Y310897D01*
G02X329240Y311017I200J0D01*
G03X329402Y311500I-639J483D01*
G03X329399Y311573I-802J4D01*
G02X329450Y311726I199J19D01*
G01X329650Y311945D01*
G02X329797Y312010I148J-135D01*
G01X346500D01*
G03X346700Y312210I0J200D01*
G01Y323809D01*
G02X346804Y323985I200J1D01*
G01X347160Y324179D01*
X347270Y324175D01*
X347316Y324145D01*
G03X347748Y324018I433J675D01*
G01X347750D01*
G03Y325622I0J802D01*
G01X347748D01*
G03X347316Y325495I1J-802D01*
G01X347270Y325465D01*
X347160Y325461D01*
X346804Y325655D01*
G02X346700Y325831I96J175D01*
G01Y325899D01*
G02X346800Y326072I200J0D01*
G01X347146Y326272D01*
X347254D01*
X347300Y326245D01*
G03X347700Y326138I400J694D01*
G03Y327742I0J802D01*
G03X347300Y327635I0J-801D01*
G01X347254Y327608D01*
X347146D01*
X346800Y327808D01*
G02X346700Y327981I100J173D01*
G01Y330980D01*
G02X346900Y331180I200J0D01*
G01X348247D01*
G02X348437Y331042I0J-200D01*
G03X349963I763J248D01*
G01X349983Y331104D01*
X350088Y331180D01*
X366727D01*
G03X366869Y331239I0J200D01*
G01X378581Y342951D01*
G02X378723Y343010I142J-141D01*
G01X410299D01*
G02X410499Y342810I0J-200D01*
G01Y340399D01*
G02X410438Y340255I-200J0D01*
G01X410231Y340056D01*
G02X410085Y340000I-139J144D01*
G01X410061D01*
G03Y338596I0J-702D01*
G01X410085D01*
G37*
G36*
G01X334770Y338790D02*
X341260D01*
G02X341460Y338590I0J-200D01*
G01Y338313D01*
G02X341401Y338171I-200J0D01*
G01X339039Y335809D01*
G03X338980Y335667I141J-142D01*
G01Y331779D01*
X338898Y331672D01*
X338832Y331655D01*
G03X338238Y330880I209J-775D01*
G03X338445Y330342I803J0D01*
G01X338471Y330313D01*
X338498Y330242D01*
X338490Y329928D01*
G02X338431Y329791I-200J5D01*
G01X338342Y329702D01*
X338300Y329677D01*
X338275Y329670D01*
G03X337698Y328900I225J-770D01*
G03X337812Y328488I801J0D01*
G01X337826Y328465D01*
X337840Y328413D01*
Y326120D01*
G02X337640Y325920I-200J0D01*
G01X335780D01*
G03X335580Y325720I0J-200D01*
G01Y323180D01*
G02X335380Y322980I-200J0D01*
G01X334730D01*
G02X334530Y323180I0J200D01*
G01Y326770D01*
G02X334730Y326970I200J0D01*
G01X336220D01*
G03X336420Y327170I0J200D01*
G01Y327235D01*
X336495Y327339D01*
X336556Y327360D01*
G03Y328880I-256J760D01*
G01X336495Y328901D01*
X336420Y329005D01*
Y332830D01*
X336497Y332935D01*
X336560Y332955D01*
G03Y334485I-240J765D01*
G01X336497Y334505D01*
X336420Y334610D01*
Y335327D01*
G03X336361Y335469I-200J0D01*
G01X334629Y337201D01*
G02X334570Y337343I141J142D01*
G01Y338590D01*
G02X334770Y338790I200J0D01*
G37*
G36*
G01X370570Y365768D02*
G03X371269Y366176I0J803D01*
G01X371291Y366217D01*
X371370Y366270D01*
X371732Y366320D01*
G02X371900Y366263I26J-198D01*
G01X373663Y364499D01*
G02X373716Y364313I-142J-141D01*
G01X373628Y363932D01*
X373559Y363856D01*
X373510Y363839D01*
G03X372968Y363080I260J-759D01*
G03X372977Y362958I802J-2D01*
G02X372931Y362797I-198J-31D01*
G01X372734Y362566D01*
G02X372582Y362496I-152J130D01*
G01X355576D01*
G02X355427Y362562I0J200D01*
G01X355228Y362783D01*
G02X355178Y362937I149J134D01*
G01Y362938D01*
G03X355182Y363020I-798J80D01*
G03X355114Y363343I-801J0D01*
G01X355094Y363390D01*
X355102Y363490D01*
X355313Y363813D01*
G02X355480Y363904I168J-109D01*
G01X355579D01*
G02X355773Y363754I0J-200D01*
G01Y363753D01*
G03X356550Y363148I777J196D01*
G03X357352Y363950I0J802D01*
G01Y363951D01*
G03X357317Y364185I-802J0D01*
G01X357308Y364214D01*
Y364244D01*
G02X357508Y364444I200J0D01*
G01X357603D01*
G02X357790Y364315I0J-200D01*
G03X358540Y363798I750J286D01*
G03X359342Y364600I0J802D01*
G03X359338Y364679I-802J-1D01*
G01X359334Y364721D01*
X359360Y364801D01*
X359587Y365052D01*
G02X359736Y365118I148J-134D01*
G01X362310D01*
G03X362947Y365383I-1J901D01*
G01X363167Y365603D01*
G03X363432Y366240I-636J638D01*
G03X363109Y366931I-901J0D01*
G01X363076Y366958D01*
X363038Y367037D01*
X363032Y367379D01*
G02X363091Y367525I200J4D01*
G01X363128Y367562D01*
G03X363272Y367750I-638J638D01*
G03X363392Y368199I-782J449D01*
G01Y368200D01*
G03X362491Y369102I-902J0D01*
G01X362489D01*
G03X362451Y369101I5J-901D01*
G03X361852Y368838I38J-901D01*
G01X361335Y368321D01*
G02X361193Y368262I-142J141D01*
G01X357721D01*
G02X357579Y368321I0J200D01*
G01X357350Y368551D01*
X357321Y368624D01*
Y368670D01*
G03X357292Y368883I-802J-1D01*
G01X357278Y368935D01*
X357305Y369039D01*
X358031Y369765D01*
G02X358173Y369824I142J-141D01*
G01X361819D01*
G02X361961Y369765I0J-200D01*
G03X362530Y369528I569J565D01*
G03X363332Y370330I0J802D01*
G01Y370332D01*
G03X363308Y370526I-802J-1D01*
G02X363344Y370698I194J49D01*
G01X363538Y370947D01*
G02X363696Y371024I158J-123D01*
G01X367056D01*
G02X367198Y370965I0J-200D01*
G01X370263Y367900D01*
G02X370320Y367732I-141J-142D01*
G01X370270Y367370D01*
X370217Y367291D01*
X370176Y367269D01*
G03X369768Y366570I395J-699D01*
G03X370570Y365768I802J0D01*
G37*
%LPC*%
G75*
G36*
G01X156194Y240310D02*
G02X156118Y240650I726J341D01*
G02X156204Y241012I802J1D01*
G03X156198Y241204I-178J91D01*
G02X156088Y241610I692J405D01*
G02X156890Y242412I802J0D01*
G02X157692Y241616I0J-802D01*
G01Y241582D01*
X157714Y241519D01*
X157909Y241273D01*
X157965Y241238D01*
X157998Y241230D01*
G02X158612Y240450I-188J-780D01*
G02X158583Y240236I-802J0D01*
G03X158609Y240072I193J-54D01*
G02X158742Y239630I-668J-442D01*
G02X158676Y239311I-802J0D01*
G03X158680Y239143I183J-80D01*
G02X158762Y238790I-719J-353D01*
G02X158723Y238542I-802J-1D01*
G03X158741Y238378I190J-62D01*
G02X158852Y237970I-691J-407D01*
G02X158050Y237168I-802J0D01*
G02X157582Y237319I0J801D01*
G03X157360Y237327I-117J-162D01*
G02X156940Y237208I-420J682D01*
G02X156138Y238010I0J802D01*
G02X156222Y238366I802J-1D01*
G03X156220Y238548I-179J89D01*
G02X156128Y238920I710J373D01*
G02X156206Y239264I802J-1D01*
G03X156204Y239440I-181J86D01*
G02X156118Y239800I716J361D01*
G02X156194Y240140I802J-1D01*
G03Y240310I-181J85D01*
G37*
G36*
G01X170985Y242424D02*
X170987Y242545D01*
G03X170952Y242662I-200J4D01*
G02X170808Y243120I658J458D01*
G02X171610Y243922I802J0D01*
G02X172128Y243733I1J-802D01*
G03X172255Y243685I130J152D01*
G01X172383Y243684D01*
G03X172511Y243730I0J200D01*
G02X173020Y243912I509J-621D01*
G02X173822Y243110I0J-802D01*
G02X173678Y242652I-802J0D01*
G03X173643Y242535I165J-113D01*
G01X173645Y242414D01*
G03X173684Y242298I200J3D01*
G02X173842Y241820I-644J-478D01*
G02X173040Y241018I-802J0D01*
G02X172552Y241184I1J802D01*
G01X172526Y241204D01*
X172465Y241225D01*
X172157Y241227D01*
X172096Y241207D01*
X172069Y241187D01*
G02X171590Y241028I-479J642D01*
G02X170788Y241830I0J802D01*
G02X170946Y242308I802J0D01*
G03X170985Y242424I-161J119D01*
G37*
G36*
G01X196878Y292224D02*
G02X197012Y291780I-669J-444D01*
G02X195408I-802J0D01*
G02X195542Y292224I803J0D01*
G03Y292446I-166J111D01*
G02X195408Y292890I669J444D01*
G02X197012I802J0D01*
G02X196878Y292446I-803J0D01*
G03Y292224I166J-111D01*
G37*
G36*
G01X206542Y293445D02*
X206875Y293443D01*
X206942Y293467D01*
X206970Y293491D01*
G02X207490Y293682I520J-612D01*
G02X208006Y293494I0J-802D01*
G01X208034Y293471D01*
X208101Y293447D01*
X208435Y293451D01*
X208501Y293476D01*
X208528Y293501D01*
G02X209060Y293702I531J-601D01*
G02Y292098I0J-802D01*
G02X208544Y292286I0J802D01*
G01X208516Y292309D01*
X208449Y292333D01*
X208115Y292329D01*
X208049Y292304D01*
X208022Y292279D01*
G02X207490Y292078I-531J601D01*
G02X206962Y292276I0J803D01*
G01X206935Y292300D01*
X206868Y292325D01*
X206535Y292327D01*
X206468Y292303D01*
X206440Y292279D01*
G02X205920Y292088I-520J612D01*
G02Y293692I0J802D01*
G02X206448Y293494I0J-803D01*
G01X206475Y293470D01*
X206542Y293445D01*
G37*
G36*
G01X197132Y312627D02*
G02X197258Y312196I-676J-431D01*
G02X195654I-802J0D01*
G02X195783Y312632I801J0D01*
G03X195784Y312849I-168J109D01*
G02X195658Y313280I676J431D01*
G02X197262I802J0D01*
G02X197133Y312844I-801J0D01*
G03X197132Y312627I168J-109D01*
G37*
G36*
G01X209275Y318451D02*
X209177Y318532D01*
G03X209052Y318578I-128J-154D01*
G02X208258Y319380I8J802D01*
G02X209060Y320182I802J0D01*
G02X209847Y319534I0J-802D01*
G03X209915Y319419I196J39D01*
G01X210013Y319338D01*
G03X210138Y319292I128J154D01*
G02X210932Y318490I-8J-802D01*
G02X210130Y317688I-802J0D01*
G02X209343Y318336I0J802D01*
G03X209275Y318451I-196J-39D01*
G37*
G36*
G01X189398Y342411D02*
G02X189750Y342492I351J-721D01*
G02Y340888I0J-802D01*
G02X189382Y340977I-1J802D01*
G03X189202Y340979I-92J-177D01*
G02X188850Y340898I-351J721D01*
G02Y342502I0J802D01*
G02X189218Y342413I1J-802D01*
G03X189398Y342411I92J177D01*
G37*
G36*
G01X202233Y342649D02*
G02X202108Y343080I677J430D01*
G02X202910Y343882I802J0D01*
G02X203262Y343801I1J-802D01*
G03X203442Y343803I88J179D01*
G02X203810Y343892I367J-713D01*
G02X204226Y343776I0J-802D01*
G03X204439Y343780I103J171D01*
G02X204880Y343912I441J-671D01*
G02X205329Y343774I-1J-802D01*
G03X205537Y343764I112J166D01*
G02X205920Y343862I384J-704D01*
G02X206306Y343763I0J-802D01*
G03X206506Y343767I97J175D01*
G02X206920Y343882I414J-688D01*
G02X207722Y343080I0J-802D01*
G02X207607Y342666I-803J0D01*
G03X207609Y342457I171J-103D01*
G02X207732Y342030I-680J-427D01*
G02X206930Y341228I-802J0D01*
G02X206519Y341341I0J802D01*
G03X206317Y341343I-103J-171D01*
G02X205920Y341238I-397J698D01*
G02X205510Y341351I0J802D01*
G03X205291Y341341I-102J-172D01*
G02X204820Y341188I-471J648D01*
G02X204392Y341312I0J801D01*
G03X204192Y341320I-107J-169D01*
G02X203820Y341228I-373J710D01*
G02X203468Y341309I-1J802D01*
G03X203288Y341307I-88J-179D01*
G02X202920Y341218I-367J713D01*
G02X202118Y342020I0J802D01*
G02X202235Y342438I802J1D01*
G03X202233Y342649I-171J104D01*
G37*
G36*
G01X455708Y342771D02*
G02X455210Y342598I-498J630D01*
G02X454408Y343400I0J802D01*
G02X454504Y343781I802J0D01*
G03X454496Y343985I-176J95D01*
G02X454368Y344420I675J435D01*
G02X455170Y345222I802J0D01*
G02X455600Y345097I0J-802D01*
G03X455824Y345103I108J169D01*
G02X456290Y345252I466J-654D01*
G02X457092Y344450I0J-802D01*
G02X457006Y344088I-802J-1D01*
G03X457012Y343896I178J-91D01*
G02X457122Y343490I-692J-405D01*
G02X456320Y342688I-802J0D01*
G02X455930Y342789I0J802D01*
G03X455708Y342771I-98J-174D01*
G37*
G36*
G01X193336Y344496D02*
G02X193188Y344960I653J464D01*
G02X193330Y345416I803J0D01*
G03X193342Y345623I-165J113D01*
G02X193248Y346000I709J377D01*
G02X194852I802J0D01*
G02X194710Y345544I-803J0D01*
G03X194698Y345337I165J-113D01*
G02X194792Y344960I-709J-377D01*
G02X194743Y344683I-802J-1D01*
G01X194729Y344647D01*
X194732Y344571D01*
X194871Y344247D01*
X194925Y344193D01*
X194961Y344178D01*
G02X195983Y342630I-661J-1548D01*
G02X194300Y340947I-1683J0D01*
G02X192913Y341676I0J1684D01*
G01X192892Y341707D01*
X192831Y341749D01*
X192496Y341827D01*
X192422Y341817D01*
X192390Y341799D01*
G02X192000Y341698I-390J701D01*
G02Y343302I0J802D01*
G02X192308Y343240I-1J-802D01*
G01X192343Y343226D01*
X192417Y343224D01*
X192741Y343340D01*
X192797Y343389D01*
X192815Y343422D01*
G02X193257Y343951I1485J-792D01*
G01X193288Y343975D01*
X193326Y344041D01*
X193376Y344391D01*
X193358Y344465D01*
X193336Y344496D01*
G37*
G36*
G01X179935Y365949D02*
X176766Y369118D01*
X176692Y369148D01*
X176652D01*
G02X176650Y370752I-2J802D01*
G02X177452Y369948I0J-802D01*
G01Y369908D01*
X177482Y369834D01*
X180858Y366458D01*
G02X181006Y366100I-359J-358D01*
G01Y358301D01*
G03X181065Y358159I200J0D01*
G02X181302Y357590I-565J-569D01*
G02X179698I-802J0D01*
G02X179935Y358159I802J0D01*
G03X179994Y358301I-141J142D01*
G01Y365807D01*
G03X179935Y365949I-200J0D01*
G37*
G36*
G01X296649Y379975D02*
G02X296080Y379738I-569J565D01*
G02Y381342I0J802D01*
G02X296649Y381105I0J-802D01*
G03X296791Y381046I142J141D01*
G01X309590D01*
G03X309733Y381107I-1J200D01*
G02X310310Y381352I577J-557D01*
G02Y379748I0J-802D01*
G02X309749Y379977I0J802D01*
G03X309610Y380034I-140J-143D01*
G01X296791D01*
G03X296649Y379975I0J-200D01*
G37*
G36*
G01X199117Y292237D02*
G02X198808Y292870I494J633D01*
G02X200412I802J0D01*
G02X200043Y292195I-802J0D01*
G03X200013Y291543I216J-337D01*
G02X200322Y290910I-494J-633D01*
G02X198718I-802J0D01*
G02X199087Y291585I802J0D01*
G03X199117Y292237I-216J337D01*
G37*
G36*
G01X192583Y298041D02*
G02X191980Y297768I-603J529D01*
G02Y299372I0J802D01*
G02X192558Y299126I0J-802D01*
G03X193147Y299139I289J277D01*
G02X193750Y299412I603J-529D01*
G02Y297808I0J-802D01*
G02X193172Y298054I0J802D01*
G03X192583Y298041I-289J-277D01*
G37*
G36*
G01X192643Y305993D02*
G02X191980Y305642I-663J451D01*
G02Y307246I0J802D01*
G02X192631Y306912I0J-801D01*
G03X193287Y306921I325J234D01*
G02X193950Y307272I663J-451D01*
G02Y305668I0J-802D01*
G02X193299Y306002I0J801D01*
G03X192643Y305993I-325J-234D01*
G37*
G36*
G01X396980Y370916D02*
X400629D01*
G03X400771Y370975I0J200D01*
G02X401340Y371212I569J-565D01*
G02Y369608I0J-802D01*
G02X400771Y369845I0J802D01*
G03X400629Y369904I-142J-141D01*
G01X397273D01*
G03X397131Y369845I0J-200D01*
G01X396032Y368746D01*
X396002Y368674D01*
Y368634D01*
G02X395200Y367838I-802J6D01*
G02X394544Y368179I0J801D01*
G01X394515Y368220D01*
X394429Y368264D01*
X393999Y368260D01*
X393913Y368213D01*
X393885Y368172D01*
G02X393220Y367818I-665J448D01*
G02Y369422I0J802D01*
G02X393876Y369081I0J-801D01*
G01X393905Y369040D01*
X393991Y368996D01*
X394421Y369000D01*
X394507Y369047D01*
X394535Y369088D01*
G02X395200Y369442I665J-448D01*
G01X395210D01*
X395252Y369441D01*
X395325Y369471D01*
X396622Y370768D01*
G02X396980Y370916I358J-359D01*
G37*
G36*
G01X360923Y380017D02*
G02X360354Y379780I-569J565D01*
G02Y381384I0J802D01*
G02X360923Y381147I0J-802D01*
G03X361065Y381088I142J141D01*
G01X389738D01*
G02X390096Y380940I0J-507D01*
G01X394028Y377008D01*
G02X394176Y376650I-359J-358D01*
G01Y375221D01*
G03X394235Y375079I200J0D01*
G02X394239Y375075I-565J-569D01*
G03X394381Y375016I142J141D01*
G01X428229D01*
G03X428371Y375075I0J200D01*
G02X428940Y375312I569J-565D01*
G02X429742Y374510I0J-802D01*
G02X429715Y374304I-802J0D01*
G03X429716Y374197I193J-52D01*
G01X429747Y374091D01*
G03X429804Y374000I192J57D01*
G02X430062Y373410I-544J-589D01*
G02X429260Y372608I-802J0D01*
G02X428691Y372845I0J802D01*
G03X428549Y372904I-142J-141D01*
G01X394343D01*
G03X394201Y372845I0J-200D01*
G01X392072Y370716D01*
X392042Y370642D01*
Y370602D01*
G02X390438Y370600I-802J-2D01*
G02X391242Y371402I802J0D01*
G01X391282D01*
X391356Y371432D01*
X393208Y373284D01*
G03X393266Y373437I-142J141D01*
G01X393246Y373779D01*
X393207Y373854D01*
X393173Y373881D01*
G02X392868Y374510I496J629D01*
G02X393105Y375079I802J0D01*
G03X393164Y375221I-141J142D01*
G01Y376357D01*
G03X393105Y376499I-200J0D01*
G01X389587Y380017D01*
G03X389445Y380076I-142J-141D01*
G01X361065D01*
G03X360923Y380017I0J-200D01*
G37*
G36*
G01X409699Y381957D02*
X409673Y382004D01*
G02X409568Y382400I697J397D01*
G02X411172I802J0D01*
G02X411067Y382004I-802J1D01*
G01X411041Y381957D01*
Y381851D01*
X411242Y381506D01*
G03X411415Y381406I173J100D01*
G01X420040D01*
G02X420168Y381390I2J-506D01*
G03X420245Y381385I51J193D01*
G02X420350Y381392I106J-795D01*
G02Y379788I0J-802D01*
G02X419613Y380273I0J802D01*
G01X419589Y380328D01*
X419490Y380394D01*
X397841D01*
G03X397699Y380335I0J-200D01*
G02X397130Y380098I-569J565D01*
G02Y381702I0J802D01*
G02X397699Y381465I0J-802D01*
G03X397841Y381406I142J141D01*
G01X409325D01*
G03X409498Y381506I0J200D01*
G01X409699Y381851D01*
Y381957D01*
G37*
G36*
G01X360422Y396618D02*
X360382D01*
G02X360380Y398222I-2J802D01*
G02X361182Y397418I0J-802D01*
G01Y397378D01*
X361212Y397304D01*
X361791Y396725D01*
G03X361933Y396666I142J141D01*
G01X369218D01*
G03X369379Y396747I0J200D01*
G01X369598Y397042D01*
X369615Y397135D01*
X369601Y397181D01*
G02X369568Y397410I769J228D01*
G02X370370Y398212I802J0D01*
G02X370939Y397975I0J-802D01*
G03X371081Y397916I142J141D01*
G01X401710D01*
G02X402068Y397768I0J-507D01*
G01X407441Y392395D01*
G03X407583Y392336I142J141D01*
G01X423804D01*
G03X423967Y392421I-1J200D01*
G01X424185Y392726D01*
X424198Y392821D01*
X424182Y392867D01*
G02X424138Y393130I758J262D01*
G02X425742I802J0D01*
G02X425739Y393065I-802J4D01*
G01X425736Y393022D01*
X425763Y392943D01*
X426022Y392665D01*
X426100Y392632D01*
X426142D01*
X426150D01*
G02Y391028I0J-802D01*
G02X425581Y391265I0J802D01*
G03X425439Y391324I-142J-141D01*
G01X407290D01*
G02X406932Y391472I0J507D01*
G01X401559Y396845D01*
G03X401417Y396904I-142J-141D01*
G01X397542D01*
G03X397381Y396823I0J-200D01*
G01X397162Y396528D01*
X397145Y396435D01*
X397159Y396389D01*
G02X397192Y396160I-769J-228D01*
G02X396390Y395358I-802J0D01*
G02X395821Y395595I0J802D01*
G03X395679Y395654I-142J-141D01*
G01X395311D01*
G03X395143Y395561I1J-200D01*
G01X394934Y395234D01*
X394927Y395133D01*
X394948Y395086D01*
G02X395022Y394750I-728J-336D01*
G02X393418I-802J0D01*
G02X393492Y395086I802J0D01*
G01X393513Y395133D01*
X393506Y395234D01*
X393297Y395561D01*
G03X393129Y395654I-169J-107D01*
G01X361640D01*
G02X361282Y395802I0J507D01*
G01X360496Y396588D01*
X360422Y396618D01*
G37*
G36*
G01X271922Y401428D02*
G02X272280Y401576I358J-359D01*
G01X313680D01*
G02X314038Y401428I0J-507D01*
G01X318921Y396545D01*
G03X319063Y396486I142J141D01*
G01X324610D01*
G02X324968Y396338I0J-507D01*
G01X325598Y395708D01*
G02X325746Y395350I-359J-358D01*
G01Y395220D01*
X325777Y395147D01*
X325805Y395119D01*
G02X326042Y394550I-565J-569D01*
G02X325240Y393748I-802J0D01*
G02X324533Y394171I0J802D01*
G01X324517Y394201D01*
X324467Y394247D01*
X324175Y394372D01*
X324107Y394376D01*
X324074Y394367D01*
G02X323860Y394338I-214J773D01*
G02X323291Y394575I0J802D01*
G03X323149Y394634I-142J-141D01*
G01X318520D01*
G02X318162Y394782I0J507D01*
G01X313089Y399855D01*
G03X312947Y399914I-142J-141D01*
G01X291279D01*
G03X291102Y399806I1J-200D01*
G01X290911Y399443D01*
X290918Y399332D01*
X290950Y399286D01*
G02X291092Y398828I-660J-456D01*
G01Y398788D01*
X291122Y398714D01*
X293901Y395935D01*
G03X294043Y395876I142J141D01*
G01X305089D01*
G03X305231Y395935I0J200D01*
G02X305800Y396172I569J-565D01*
G02Y394568I0J-802D01*
G02X305231Y394805I0J802D01*
G03X305089Y394864I-142J-141D01*
G01X293750D01*
G02X293392Y395012I0J507D01*
G01X290406Y397998D01*
X290332Y398028D01*
X290292D01*
G02X289488Y398830I-2J802D01*
G02X289630Y399286I803J0D01*
G01X289662Y399332D01*
X289669Y399443D01*
X289478Y399806D01*
G03X289301Y399914I-178J-92D01*
G01X282003D01*
G03X281861Y399855I0J-200D01*
G01X281202Y399196D01*
X281172Y399122D01*
Y399082D01*
G02X279568Y399080I-802J-2D01*
G02X280372Y399882I802J0D01*
G01X280412D01*
X280486Y399912D01*
X280796Y400222D01*
G03X280839Y400440I-142J141D01*
G01X280816Y400497D01*
X280716Y400564D01*
X272573D01*
G03X272431Y400505I0J-200D01*
G01X271082Y399156D01*
X271052Y399082D01*
Y399042D01*
G02X269448Y399040I-802J-2D01*
G02X270252Y399842I802J0D01*
G01X270292D01*
X270366Y399872D01*
X271922Y401428D01*
G37*
G36*
G01X217096Y323635D02*
G02X217460Y323722I363J-715D01*
G02Y322118I0J-802D01*
G02X217112Y322197I-1J802D01*
G03X216934Y322195I-87J-180D01*
G02X216570Y322108I-363J715D01*
G02Y323712I0J802D01*
G02X216918Y323633I1J-802D01*
G03X217096Y323635I87J180D01*
G37*
G36*
G01X459529Y279853D02*
X459523Y279965D01*
G03X459488Y280067I-200J-12D01*
G02X459348Y280520I663J453D01*
G02X460150Y281322I802J0D01*
G02X460602Y281182I-1J-802D01*
G03X460808Y281170I113J165D01*
G02X461180Y281262I373J-710D01*
G02X461982Y280460I0J-802D01*
G02X461888Y280083I-803J0D01*
G03X461896Y279882I177J-94D01*
G02X462022Y279450I-676J-432D01*
G02X461220Y278648I-802J0D01*
G02X460873Y278727I0J802D01*
G03X460672Y278710I-86J-180D01*
G02X460210Y278564I-461J656D01*
G02X459408Y279366I0J802D01*
G02X459505Y279748I801J0D01*
G03X459529Y279853I-176J95D01*
G37*
G36*
G01X229059Y335287D02*
X228949Y335274D01*
G03X228849Y335232I25J-199D01*
G02X228350Y335058I-499J629D01*
G02Y336662I0J802D01*
G02X228683Y336589I-1J-802D01*
G03X228791Y336573I82J182D01*
G01X228901Y336586D01*
G03X229001Y336628I-25J199D01*
G02X229500Y336802I499J-629D01*
G02Y335198I0J-802D01*
G02X229167Y335271I1J802D01*
G03X229059Y335287I-82J-182D01*
G37*
G36*
G01X258208Y196459D02*
Y196465D01*
G02X259010Y195663I802J0D01*
G02X258791Y195693I-2J802D01*
G03X258282Y195306I-109J-385D01*
G01Y195300D01*
G02X257480Y196102I-802J0D01*
G02X257699Y196072I2J-802D01*
G03X258208Y196459I109J385D01*
G37*
G36*
G01X228172Y342402D02*
G02X227560Y342118I-612J517D01*
G02Y343722I0J802D01*
G02X228142Y343472I0J-802D01*
G03X228738Y343488I291J275D01*
G02X229350Y343772I612J-517D01*
G02Y342168I0J-802D01*
G02X228768Y342418I0J802D01*
G03X228172Y342402I-291J-275D01*
G37*
G36*
G01X256230Y342765D02*
G02X257030I400J-694D01*
G03X257230I100J173D01*
G02X258030I400J-694D01*
G03X258230I100J173D01*
G02X258630Y342872I400J-694D01*
G02Y341268I0J-802D01*
G02X258230Y341375I0J801D01*
G03X258030I-100J-173D01*
G02X257230I-400J694D01*
G03X257030I-100J-173D01*
G02X256230I-400J694D01*
G03X256030I-100J-173D01*
G02X255230I-400J694D01*
G03X255030I-100J-173D01*
G02X254230I-400J694D01*
G03X254030I-100J-173D01*
G02X253230I-400J694D01*
G03X253030I-100J-173D01*
G02X252630Y341268I-400J694D01*
G02Y342872I0J802D01*
G02X253030Y342765I0J-801D01*
G03X253230I100J173D01*
G02X254030I400J-694D01*
G03X254230I100J173D01*
G02X255030I400J-694D01*
G03X255230I100J173D01*
G02X256030I400J-694D01*
G03X256230I100J173D01*
G37*
G36*
G01X318580Y347142D02*
G02X318242Y347796I464J654D01*
G02X319846I802J0D01*
G02X319544Y347169I-802J0D01*
G03X319561Y346530I249J-313D01*
G02X319899Y345876I-464J-654D01*
G02X318295I-802J0D01*
G02X318597Y346503I802J0D01*
G03X318580Y347142I-249J313D01*
G37*
G36*
G01X272790Y323615D02*
G02X272390Y323508I-400J694D01*
G02Y325112I0J802D01*
G02X272790Y325005I0J-801D01*
G03X272990I100J173D01*
G02X273790I400J-694D01*
G03X273990I100J173D01*
G02X274390Y325112I400J-694D01*
G02Y323508I0J-802D01*
G02X273990Y323615I0J801D01*
G03X273790I-100J-173D01*
G02X272990I-400J694D01*
G03X272790I-100J-173D01*
G37*
G36*
G01X265644Y322998D02*
G02X265468Y323500I626J501D01*
G02X265588Y323922I802J0D01*
G03X265586Y324135I-170J105D01*
G02X265458Y324570I675J435D01*
G02X266260Y325372I802J0D01*
G02X266650Y325271I0J-802D01*
G03X266864Y325283I98J174D01*
G02X267330Y325432I466J-654D01*
G02X268132Y324630I0J-802D01*
G02X268004Y324195I-803J0D01*
G03X268010Y323970I168J-108D01*
G02X268162Y323500I-651J-470D01*
G02X268026Y323054I-802J1D01*
G03X268028Y322828I166J-112D01*
G02X268172Y322370I-658J-458D01*
G02X267370Y321568I-802J0D01*
G02X266997Y321660I0J802D01*
G03X266808Y321658I-93J-177D01*
G02X266420Y321558I-388J703D01*
G02X265618Y322360I0J802D01*
G02X265686Y322683I801J0D01*
G03X265701Y322789I-183J80D01*
G01X265687Y322899D01*
G03X265644Y322998I-198J-27D01*
G37*
G36*
G01X448346Y257442D02*
X448317Y257400D01*
G02X447650Y257043I-667J445D01*
G02Y258647I0J802D01*
G02X448317Y258290I0J-802D01*
G01X448346Y258248D01*
X448433Y258201D01*
X448867D01*
X448954Y258248D01*
X448983Y258290D01*
G02X449650Y258647I667J-445D01*
G02X450146Y258475I0J-801D01*
G03X450261Y258433I123J158D01*
G01X450381Y258428D01*
G03X450500Y258460I10J200D01*
G02X450940Y258592I441J-670D01*
G02X451742Y257790I0J-802D01*
G02X451640Y257398I-802J-1D01*
G03X451646Y257192I174J-98D01*
G02X451772Y256760I-676J-432D01*
G02X450970Y255958I-802J0D01*
G02X450496Y256113I0J802D01*
G03X450390Y256151I-118J-162D01*
G01X450275Y256158D01*
G03X450165Y256132I-11J-200D01*
G02X449770Y256028I-395J698D01*
G02X448968Y256830I0J802D01*
G02X449037Y257155I802J0D01*
G03X449013Y257358I-183J81D01*
G02X448983Y257400I637J487D01*
G01X448954Y257442D01*
X448867Y257489D01*
X448433D01*
X448346Y257442D01*
G37*
G36*
G01X355802Y220040D02*
Y227540D01*
G02X356604Y228342I802J0D01*
G01X364104D01*
G02X364906Y227540I0J-802D01*
G01Y220040D01*
G02X364104Y219238I-802J0D01*
G01X356604D01*
G02X355802Y220040I0J802D01*
G37*
G36*
G01X384726Y250092D02*
Y250518D01*
X384681Y250605D01*
X384640Y250633D01*
G02X384298Y251290I460J657D01*
G02X385100Y252092I802J0D01*
G02X385894Y251405I0J-802D01*
G03X385954Y251289I198J29D01*
G01X386045Y251203D01*
G03X386164Y251149I137J145D01*
G02X386892Y250350I-74J-799D01*
G02X386169Y249552I-802J0D01*
G03X386045Y249492I20J-199D01*
G01X385956Y249399D01*
G03X385901Y249272I145J-138D01*
G02X385100Y248518I-801J48D01*
G02X384298Y249320I0J802D01*
G02X384640Y249977I802J0D01*
G01X384681Y250005D01*
X384726Y250092D01*
G37*
G36*
G01X383374Y240561D02*
G02X382710Y240208I-664J448D01*
G02Y241812I0J802D01*
G02X383340Y241506I0J-802D01*
G03X383986Y241529I315J247D01*
G02X384650Y241882I664J-448D01*
G02Y240278I0J-802D01*
G02X384020Y240584I0J802D01*
G03X383374Y240561I-315J-247D01*
G37*
G36*
G01X335428Y243880D02*
G02X335535Y244280I801J0D01*
G03Y244480I-173J100D01*
G02X335428Y244880I694J400D01*
G02X336230Y245682I802J0D01*
G02X336590Y245597I0J-803D01*
G03X336770I90J178D01*
G02X337130Y245682I360J-718D01*
G02X337932Y244880I0J-802D01*
G02X337825Y244480I-801J0D01*
G03Y244280I173J-100D01*
G02X337932Y243880I-694J-400D01*
G02X337130Y243078I-802J0D01*
G02X336770Y243163I0J803D01*
G03X336590I-90J-178D01*
G02X336230Y243078I-360J718D01*
G02X335428Y243880I0J802D01*
G37*
G36*
G01X335458Y251240D02*
G02X335576Y251629I702J-1D01*
G03Y251851I-167J111D01*
G02X335458Y252240I584J390D01*
G02X336160Y252942I702J0D01*
G02X336510Y252848I-1J-702D01*
G03X336710I100J174D01*
G02X337060Y252942I351J-608D01*
G02X337762Y252240I0J-702D01*
G02X337644Y251851I-702J1D01*
G03Y251629I167J-111D01*
G02X337762Y251240I-584J-390D01*
G02X337060Y250538I-702J0D01*
G02X336710Y250632I1J702D01*
G03X336510I-100J-174D01*
G02X336160Y250538I-351J608D01*
G02X335458Y251240I0J702D01*
G37*
G36*
G01X387684Y295565D02*
X387630Y295662D01*
G03X387557Y295736I-174J-99D01*
G02X387215Y296340I362J604D01*
G02X388619I702J0D01*
G01Y296319D01*
G03X388643Y296215I200J-9D01*
G01X388697Y296118D01*
G03X388770Y296044I174J99D01*
G02X389112Y295440I-362J-604D01*
G02X387708I-702J0D01*
G01Y295461D01*
G03X387684Y295565I-200J9D01*
G37*
G36*
G01X331550Y308358D02*
G02X331230Y308425I1J801D01*
G03X331070I-80J-184D01*
G02X330750Y308358I-321J734D01*
G02Y309962I0J802D01*
G02X331070Y309895I-1J-801D01*
G03X331230I80J184D01*
G02X331550Y309962I321J-734D01*
G02Y308358I0J-802D01*
G37*
G36*
G01X345331Y308619D02*
G03X344802Y308609I-259J-305D01*
G02X344260Y308398I-542J591D01*
G02Y310002I0J802D01*
G02X344779Y309811I0J-801D01*
G03X345308Y309821I259J305D01*
G02X345850Y310032I542J-591D01*
G02Y308428I0J-802D01*
G02X345331Y308619I0J801D01*
G37*
G36*
G01X364597Y309399D02*
G02X364715Y309788I702J-1D01*
G03Y310010I-167J111D01*
G02X364597Y310399I584J390D01*
G02X365299Y311101I702J0D01*
G02X365688Y310983I-1J-702D01*
G03X365910I111J167D01*
G02X366299Y311101I390J-584D01*
G02X367001Y310399I0J-702D01*
G02X366883Y310010I-702J1D01*
G03Y309788I167J-111D01*
G02X367001Y309399I-584J-390D01*
G02X366299Y308697I-702J0D01*
G02X365910Y308815I1J702D01*
G03X365688I-111J-167D01*
G02X365299Y308697I-390J584D01*
G02X364597Y309399I0J702D01*
G37*
G36*
G01X352597Y309899D02*
G02X352715Y310288I702J-1D01*
G03Y310510I-167J111D01*
G02X352597Y310899I584J390D01*
G02X353299Y311601I702J0D01*
G02X353688Y311483I-1J-702D01*
G03X353910I111J167D01*
G02X354299Y311601I390J-584D01*
G02X355001Y310899I0J-702D01*
G02X354883Y310510I-702J1D01*
G03Y310288I167J-111D01*
G02X355001Y309899I-584J-390D01*
G02X354299Y309197I-702J0D01*
G02X353910Y309315I1J702D01*
G03X353688I-111J-167D01*
G02X353299Y309197I-390J584D01*
G02X352597Y309899I0J702D01*
G37*
G36*
G01X398987Y310259D02*
G02X399105Y310648I702J-1D01*
G03Y310870I-167J111D01*
G02X398987Y311259I584J390D01*
G02X400391I702J0D01*
G02X400273Y310870I-702J1D01*
G03Y310648I167J-111D01*
G02X400391Y310259I-584J-390D01*
G02X398987I-702J0D01*
G37*
G36*
G01X348415Y315450D02*
G02Y316090I734J320D01*
G03Y316250I-184J80D01*
G02X348348Y316570I734J321D01*
G02X349952I802J0D01*
G02X349885Y316250I-801J1D01*
G03Y316090I184J-80D01*
G02Y315450I-734J-320D01*
G03Y315290I184J-80D01*
G02X349952Y314970I-734J-321D01*
G02X348348I-802J0D01*
G02X348415Y315290I801J-1D01*
G03Y315450I-184J80D01*
G37*
G36*
G01X375500Y317758D02*
G02X375150Y317852I1J702D01*
G03X374950I-100J-174D01*
G02X374600Y317758I-351J608D01*
G02Y319162I0J702D01*
G02X374950Y319068I-1J-702D01*
G03X375150I100J174D01*
G02X375500Y319162I351J-608D01*
G02Y317758I0J-702D01*
G37*
G36*
G01X401778Y317200D02*
G02X401885Y317573I702J0D01*
G03X401887Y317781I-170J106D01*
G02X401788Y318140I603J359D01*
G02X402490Y318842I702J0D01*
G01X402492D01*
G02X402572Y318837I-4J-702D01*
G03X402749Y318908I23J199D01*
G02X403290Y319162I541J-449D01*
G02X403992Y318460I0J-702D01*
G02X403940Y318196I-702J1D01*
G03X403985Y317979I186J-75D01*
G02X404192Y317480I-497J-498D01*
G02X403490Y316778I-702J0D01*
G01X403488D01*
G02X403300Y316804I1J702D01*
G03X403193I-54J-193D01*
G01X403083Y316774D01*
G03X402991Y316718I54J-193D01*
G02X402480Y316498I-511J483D01*
G02X401778Y317200I0J702D01*
G37*
G36*
G01X379374Y317977D02*
G02X379492Y318366I702J-1D01*
G03Y318588I-167J111D01*
G02X379374Y318977I584J390D01*
G02X380076Y319679I702J0D01*
G02X380465Y319561I-1J-702D01*
G03X380687I111J167D01*
G02X381076Y319679I390J-584D01*
G02X381778Y318977I0J-702D01*
G02X381660Y318588I-702J1D01*
G03Y318366I167J-111D01*
G02X381778Y317977I-584J-390D01*
G02X381076Y317275I-702J0D01*
G02X380687Y317393I1J702D01*
G03X380465I-111J-167D01*
G02X380076Y317275I-390J584D01*
G02X379374Y317977I0J702D01*
G37*
G36*
G01X323511Y243760D02*
G02X324200Y244152I689J-410D01*
G02Y242548I0J-802D01*
G02X323555Y242873I0J803D01*
G03X322889Y242840I-322J-237D01*
G02X322200Y242448I-689J410D01*
G02Y244052I0J802D01*
G02X322845Y243727I0J-803D01*
G03X323511Y243760I322J237D01*
G37*
G36*
G01X343883Y243955D02*
G02X343216Y243598I-667J445D01*
G02Y245202I0J802D01*
G02X343883Y244845I0J-802D01*
G03X344549I333J222D01*
G02X345216Y245202I667J-445D01*
G02Y243598I0J-802D01*
G02X344549Y243955I0J802D01*
G03X343883I-333J-222D01*
G37*
G36*
G01X335663Y306340D02*
G02X335488Y306840I627J500D01*
G02X337092I802J0D01*
G02X336911Y306333I-802J0D01*
G03X336908Y305830I310J-253D01*
G02X337083Y305330I-627J-500D01*
G02X336281Y304528I-802J0D01*
G01X336280D01*
G02X335746Y304732I0J802D01*
G01X335716Y304759D01*
X335641Y304785D01*
X335315Y304764D01*
G03X335177Y304696I13J-199D01*
G02X334570Y304418I-607J524D01*
G02Y306022I0J802D01*
G02X335228Y305678I0J-801D01*
G03X335570Y305700I164J114D01*
G02X335660Y305837I712J-369D01*
G03X335663Y306340I-310J253D01*
G37*
G36*
G01X337830Y306428D02*
G02X337558Y307030I530J602D01*
G02X339162I802J0D01*
G02X338870Y306411I-802J0D01*
G03X338860Y305802I254J-309D01*
G02X339132Y305200I-530J-602D01*
G02X337528I-802J0D01*
G02X337820Y305819I802J0D01*
G03X337830Y306428I-254J309D01*
G37*
G36*
G01X340938Y308656D02*
G02X340458Y309390I321J734D01*
G02X342062I802J0D01*
G02X341876Y308876I-803J0D01*
G03X342022Y308253I307J-257D01*
G02X342502Y307519I-321J-734D01*
G02X340898I-802J0D01*
G02X341084Y308033I803J0D01*
G03X340938Y308656I-307J257D01*
G37*
G54D39*
X315090Y245925D03*
X319370Y245920D03*
X325230Y246630D03*
X330059Y245882D03*
X320849Y252980D03*
X325250Y248990D03*
X342799Y248591D03*
X348209Y250512D03*
X314490Y255430D03*
X322790Y254810D03*
X324809Y254913D03*
X327646Y258493D03*
X347537Y258996D03*
X346100Y255560D03*
X348159Y255430D03*
X345552Y258580D03*
X353040Y258500D03*
X350975Y258542D03*
X327646Y260493D03*
X350574Y266102D03*
X350526Y268159D03*
X317390Y276000D03*
X324648Y274231D03*
X325081Y277504D03*
X342442Y274241D03*
X340442D03*
X355799Y277199D03*
X348612Y279283D03*
X348829Y283370D03*
X350820D03*
X350900Y279000D03*
X377127Y298721D03*
X408592Y296401D03*
X408609Y301507D03*
X374990Y306390D03*
X377013Y306392D03*
X380286Y305959D03*
X389599Y302599D03*
X387599D03*
X401617Y302132D03*
X400080Y306262D03*
X407390Y306740D03*
X408609Y303507D03*
X405390Y306740D03*
X387960Y308150D03*
X387950Y310137D03*
X394024Y308957D03*
X396024D03*
X408635Y311370D03*
X351700Y319900D03*
X382276Y314075D03*
X380276D03*
X351900Y325130D03*
X380157Y323879D03*
Y321879D03*
X405926Y324110D03*
X378181Y331296D03*
X380165Y331159D03*
X386644Y328964D03*
X386358Y331837D03*
X386653Y326865D03*
X403921Y329676D03*
X376460Y337101D03*
X373969Y332324D03*
X382333Y333534D03*
X388024Y334292D03*
X386560Y339600D03*
X396030Y339380D03*
G54D36*
X134570Y214480D03*
X142020Y214760D03*
X148550Y214900D03*
X156000Y215080D03*
X162480Y214970D03*
X171470Y213870D03*
X176530Y217820D03*
X133618Y218918D03*
X140618D03*
X147618D03*
X154618D03*
X161618D03*
X171470Y219760D03*
X179430Y223100D03*
X176350Y225420D03*
X193860Y226860D03*
X136290Y230200D03*
X141520Y235791D03*
X152510Y235030D03*
X158900Y233970D03*
X165330Y233900D03*
X180390Y231220D03*
X189930Y233350D03*
X149580Y239679D03*
X160490Y238800D03*
X161670Y242010D03*
X160400Y236560D03*
X164140Y236550D03*
X165990Y239740D03*
X166030Y237640D03*
X176290Y241780D03*
X187150Y239580D03*
X149590Y243330D03*
X166150Y242090D03*
X186190Y245330D03*
X198740Y244550D03*
X206260Y244700D03*
X211030Y243650D03*
X148160Y250080D03*
X167386Y251359D03*
X177830Y253920D03*
X188840Y252720D03*
X197300Y249580D03*
X205730Y250980D03*
X211440Y251360D03*
X182300Y263330D03*
X192180Y263230D03*
X197170Y263490D03*
X206582Y263280D03*
X202490Y270310D03*
X186080Y277270D03*
X192000Y277390D03*
X190030Y273510D03*
X196850Y274110D03*
X204850Y272790D03*
X188540Y280990D03*
X210570Y281780D03*
X192620Y289080D03*
X197550Y289120D03*
X184643Y295126D03*
X197360Y299500D03*
X197290Y296390D03*
X200880Y299510D03*
X203730Y299590D03*
X200810Y296400D03*
X203660Y296480D03*
X210210Y299580D03*
X206700Y299510D03*
X210140Y296470D03*
X206630Y296400D03*
X184643Y307974D03*
X197180Y302460D03*
Y305660D03*
X200700Y302470D03*
Y305670D03*
X203550Y305750D03*
X206520Y302470D03*
X210030Y302540D03*
Y305740D03*
X206520Y305670D03*
X197030Y309180D03*
X200550Y309190D03*
X203400Y309270D03*
X209880Y309260D03*
X206370Y309190D03*
X191580Y316330D03*
X199560Y314040D03*
X201330Y316520D03*
X204348Y315530D03*
X203030Y319390D03*
X205910Y319380D03*
X207488Y315600D03*
X210637D03*
X198250Y328322D03*
Y333822D03*
X449820Y349900D03*
X456740Y349890D03*
X454390Y349980D03*
X452150Y349960D03*
X459150Y349940D03*
X403220Y366287D03*
X241920Y373010D03*
X401270Y368240D03*
X405070Y370630D03*
X412613Y370019D03*
X381390Y378030D03*
X271740Y383320D03*
X277490Y382210D03*
X288770Y383140D03*
X400354Y384090D03*
X381260Y391170D03*
X385440Y387160D03*
X390410Y390530D03*
X394770Y391670D03*
X422390Y398430D03*
X325510Y343130D03*
X328870Y343120D03*
X243490Y360070D03*
X273290Y363250D03*
X260260Y191920D03*
X270350Y192320D03*
X280360Y192740D03*
X310400Y192180D03*
X320260Y192930D03*
X329540Y192590D03*
X340310Y193140D03*
X350120Y193060D03*
X360030Y193480D03*
X370520Y193020D03*
X381190Y193550D03*
X385630Y193240D03*
X410060Y193790D03*
X417500Y193160D03*
X273437Y194303D03*
X278430Y196303D03*
X293140Y196585D03*
X299940Y196740D03*
X305130Y195470D03*
X310842Y195048D03*
X313612Y196623D03*
X328114Y195846D03*
X333370Y196455D03*
X345240Y196135D03*
X351290Y197430D03*
X362640Y196035D03*
X369052Y196542D03*
X373210Y197130D03*
X385720Y197380D03*
X382770Y196160D03*
X398550Y196020D03*
X402120Y196350D03*
X412942Y196803D03*
X418110Y196480D03*
X451800Y249310D03*
X463410Y271430D03*
X470408Y269840D03*
X440540Y275010D03*
X449680Y275740D03*
X460240Y277010D03*
X463280Y275930D03*
X463360Y273710D03*
X458930Y273680D03*
X467060Y273510D03*
X470408Y273383D03*
X443120Y283570D03*
X440880Y283470D03*
X449370Y279180D03*
X436490Y290480D03*
X451080Y293450D03*
X440920Y319280D03*
X446790Y318180D03*
X436980Y324360D03*
X454480Y329020D03*
X456150Y334280D03*
X229510Y338160D03*
X226460Y339940D03*
X227170Y346770D03*
X225420Y344660D03*
X229440Y348780D03*
X231440Y347650D03*
X230970Y345260D03*
X313000Y342119D03*
X316200Y342219D03*
X319244Y351033D03*
X316150Y325420D03*
X444750Y257845D03*
Y255345D03*
X445943Y264018D03*
X446010Y261780D03*
X453345Y264550D03*
X455840Y264350D03*
X446020Y266140D03*
X309540Y319269D03*
X315400Y309400D03*
X301449Y314661D03*
X305243Y314675D03*
X382690Y238130D03*
X385950Y237270D03*
X386650Y239540D03*
X380830Y242820D03*
X386640Y242480D03*
X379140Y253540D03*
X389060Y251230D03*
X376600Y269800D03*
X318550Y368370D03*
X336060Y368720D03*
X353037Y244362D03*
X357987Y244456D03*
X341700Y305119D03*
X337990Y309420D03*
X349830Y325010D03*
X349190Y328910D03*
G54D45*
X310354Y223790D03*
X320354D03*
X330354D03*
X340354D03*
X350354D03*
G54D38*
X430354Y387066D03*
Y397066D03*
G54D44*
X190840Y312330D03*
X190450Y320870D03*
X195550Y326480D03*
X185090Y355100D03*
G54D46*
X349550Y321080D03*
%LPD*%
G75*
G54D10*
X110960Y192350D03*
X105960Y197350D03*
X110960D03*
X105140Y206730D03*
X105130Y219280D03*
X105110Y227380D03*
X105190Y238410D03*
X110190Y249010D03*
X105190D03*
Y259010D03*
X110190D03*
X105190Y264010D03*
X108610Y262420D03*
X105190Y269010D03*
Y274010D03*
Y279010D03*
Y284010D03*
Y289010D03*
Y294010D03*
Y299010D03*
Y304010D03*
Y309010D03*
Y314010D03*
Y319010D03*
Y324010D03*
Y329010D03*
X109060Y330030D03*
X105190Y334010D03*
X110190D03*
X105190Y339010D03*
Y344010D03*
X110190D03*
X105190Y349010D03*
Y354010D03*
X110660Y353160D03*
X105190Y359010D03*
X110090Y358350D03*
X105190Y364010D03*
X110610Y369460D03*
X105190Y369010D03*
Y374010D03*
X110740Y375790D03*
X110650Y380190D03*
X105190Y379010D03*
X110550Y384490D03*
X105190Y384010D03*
X110640Y389530D03*
X105190Y389010D03*
X110690Y394320D03*
X106620Y398210D03*
X109240Y403520D03*
X115960Y187350D03*
X115990Y183280D03*
X111390Y187380D03*
X115960Y192350D03*
Y197350D03*
X115610Y259200D03*
X115580Y255700D03*
X114250Y277520D03*
X114280Y290530D03*
X114030Y285100D03*
X114280Y295530D03*
Y300530D03*
Y305530D03*
X114100Y312390D03*
X114040Y317680D03*
X114110Y323160D03*
X113890Y366060D03*
X116710Y369870D03*
X115010Y374190D03*
X115290Y379320D03*
Y384320D03*
Y389320D03*
Y394320D03*
X120290Y187290D03*
X120270Y183280D03*
X120290Y192290D03*
X121860Y295800D03*
Y290800D03*
Y300800D03*
Y305800D03*
X120460Y344020D03*
X120960Y354020D03*
X117350Y363170D03*
X120290Y379320D03*
Y384320D03*
Y389320D03*
X119030Y394360D03*
X119370Y412340D03*
X124350Y180430D03*
X126400Y270950D03*
X126420Y276350D03*
X126980Y281820D03*
X127110Y316690D03*
X125350Y326320D03*
X126160Y322050D03*
X125960Y344020D03*
Y339020D03*
Y349020D03*
Y354020D03*
X124760Y379500D03*
Y384500D03*
Y389500D03*
X124320Y395570D03*
X130240Y179810D03*
X132770Y185440D03*
Y190440D03*
Y200440D03*
Y195440D03*
X129760Y287350D03*
Y300770D03*
X134710Y309990D03*
X129620Y311880D03*
X130960Y344020D03*
X129790Y339860D03*
X130960Y349020D03*
Y354020D03*
Y359020D03*
Y364020D03*
Y369020D03*
Y374020D03*
X130610Y377740D03*
X129200Y414310D03*
X132700D03*
X135240Y179810D03*
X140240D03*
X138580Y185240D03*
X140950Y191600D03*
X136290Y291410D03*
X135590Y301290D03*
X140040Y309670D03*
X135960Y349020D03*
Y354020D03*
Y359020D03*
Y364020D03*
Y369020D03*
Y374020D03*
X136150Y377780D03*
X139190Y414300D03*
X145240Y179810D03*
X144270Y186000D03*
X143950Y281360D03*
X142610Y286890D03*
X143830Y292790D03*
X141950Y301390D03*
X145040Y309670D03*
X145190Y316290D03*
X144710Y347140D03*
X141090Y347180D03*
X142310Y414330D03*
X150240Y179810D03*
X150840Y185260D03*
X150400Y193790D03*
X151560Y278800D03*
X152100Y286030D03*
X152570Y292830D03*
X149040Y301270D03*
X150040Y309670D03*
X151910Y322250D03*
X148210Y347120D03*
X147310Y414330D03*
X152310D03*
X155240Y179810D03*
X156370Y186150D03*
X158030Y194090D03*
X156190Y270560D03*
X156730Y275320D03*
X154490Y301130D03*
X155040Y309670D03*
X154160Y316270D03*
X158880Y327890D03*
X156150Y344900D03*
X155840Y409020D03*
X157310Y414330D03*
X160240Y179810D03*
X163680Y185490D03*
X163970Y272460D03*
X163760Y336950D03*
X160990Y408910D03*
X162220Y414330D03*
X165240Y179810D03*
X170240D03*
X169920Y185360D03*
X167400Y322670D03*
X166880Y327270D03*
X167220Y414330D03*
X175240Y179810D03*
X176030Y185260D03*
X173130Y271020D03*
X176040Y277210D03*
X174440Y321720D03*
X174200Y327160D03*
X171110Y408790D03*
X172220Y414330D03*
X180240Y179810D03*
X182270Y185410D03*
X180360Y278100D03*
X180200Y273260D03*
X179340Y283460D03*
X179780Y288700D03*
X178500Y295160D03*
X179860Y301730D03*
X178480Y307940D03*
X179640Y314850D03*
X179550Y321310D03*
X181170Y328930D03*
X177220Y414330D03*
X182220D03*
X185240Y179810D03*
X183990Y301600D03*
X183260Y317870D03*
X183190Y324700D03*
X185090Y355100D03*
X183850Y408860D03*
X187220Y414330D03*
X190090Y179800D03*
X190840Y312330D03*
X190450Y320870D03*
X194300Y342630D03*
X192220Y414330D03*
X200090Y179800D03*
X195090D03*
X195550Y326480D03*
X197540Y414310D03*
X205090Y179800D03*
X202540Y414310D03*
X210090Y179800D03*
X207540Y414310D03*
X212540D03*
X215090Y179800D03*
X218690Y185110D03*
X217860Y408830D03*
X217540Y414310D03*
X220090Y179800D03*
X223660Y185110D03*
X222550Y189950D03*
X222540Y414310D03*
X230090Y179800D03*
X225090D03*
X229220Y185120D03*
X229920Y408630D03*
X227540Y414310D03*
X235090Y179800D03*
X232460Y414310D03*
X240090Y179800D03*
X237460Y414310D03*
X242460D03*
X245090Y179800D03*
X244820Y409060D03*
X247460Y414310D03*
X250990Y179800D03*
X252460Y414310D03*
X255990Y179800D03*
X257460Y414310D03*
X260990Y179800D03*
X265990D03*
X264480Y409040D03*
X262460Y414310D03*
X266650D03*
X270990Y179800D03*
X270500Y359470D03*
X271650Y414310D03*
X275990Y179800D03*
X276650Y414310D03*
X280990Y179800D03*
X281390Y409020D03*
X281970Y414290D03*
X285990Y179800D03*
X286970Y414290D03*
X290990Y179800D03*
X295990D03*
X291970Y414290D03*
X300990Y179800D03*
X296970Y414290D03*
X301970D03*
X305990Y179800D03*
X306970Y414290D03*
X312090Y179790D03*
X313070Y409080D03*
X311970Y414290D03*
X317090Y179790D03*
X316890Y414290D03*
X322090Y179790D03*
X325600Y409050D03*
X321890Y414290D03*
X327090Y179790D03*
X332090D03*
X326890Y414290D03*
X331890D03*
X337090Y179790D03*
X336430Y408960D03*
X336890Y414290D03*
X342090Y179790D03*
X341890Y414290D03*
X347090Y179790D03*
X346890Y414290D03*
X352090Y179790D03*
X353900Y408980D03*
X352320Y414300D03*
X357090Y179790D03*
X362090D03*
X357320Y414300D03*
X362320D03*
X367090Y179790D03*
X367640Y414280D03*
X372380Y179800D03*
X373790Y409060D03*
X372640Y414280D03*
X377380Y179800D03*
X376710Y279250D03*
X377640Y414280D03*
X382380Y179800D03*
X383480Y185140D03*
X383780Y283330D03*
Y408910D03*
X382640Y414280D03*
X387380Y179800D03*
X392380D03*
X387640Y414280D03*
X392640D03*
X397380Y179800D03*
X394070Y282470D03*
X394360Y408840D03*
X397640Y414280D03*
X402380Y179800D03*
X404350Y185190D03*
X404070Y408990D03*
X402560Y414280D03*
X407380Y179800D03*
X407560Y414280D03*
X412380Y179800D03*
X414990Y185190D03*
X414580Y408860D03*
X412560Y414280D03*
X417380Y179800D03*
X422380D03*
X417560Y414280D03*
X422560D03*
X427380Y179800D03*
X427560Y414280D03*
X432380Y179800D03*
X430280Y185280D03*
X430070Y406720D03*
X434390Y413560D03*
X436620Y185210D03*
X438980Y402620D03*
X441090Y181170D03*
X440750Y190450D03*
X443910Y221560D03*
X443920Y376140D03*
X443130Y403330D03*
X441350Y412390D03*
X446700Y182580D03*
X451970Y184670D03*
X449090Y227490D03*
X450030Y409880D03*
X457040Y187330D03*
X457690Y405410D03*
X462210Y191090D03*
X460060Y231030D03*
X466430Y195290D03*
X468040Y230590D03*
X469980Y394650D03*
X465000Y400130D03*
X470750Y200390D03*
X474650Y208090D03*
X473320Y223440D03*
X473120Y230640D03*
X474340Y237070D03*
X472780Y302310D03*
X472100Y311300D03*
X472780Y362840D03*
X472460Y370750D03*
X475710Y384800D03*
X478070Y216250D03*
X479730Y223440D03*
X480280Y235160D03*
X480350Y239710D03*
Y244710D03*
Y249710D03*
Y254710D03*
Y259710D03*
X480400Y264770D03*
Y269770D03*
Y274770D03*
Y279770D03*
X480330Y289260D03*
X480260Y298590D03*
Y308590D03*
Y303590D03*
Y313590D03*
X480400Y323430D03*
X480310Y333380D03*
X480400Y344130D03*
X480420Y356310D03*
X479960Y362540D03*
X480260Y370830D03*
X478250Y378310D03*
G54D11*
X109152Y201982D03*
Y253793D03*
G54D20*
X160346Y281562D03*
Y291562D03*
Y301562D03*
Y311562D03*
Y321562D03*
X170346Y276562D03*
Y286562D03*
Y296562D03*
Y306562D03*
Y316562D03*
G54D30*
G01X180500Y357590D02*
Y366100D01*
X176650Y369950D01*
G01X213310Y358220D02*
X216580Y361490D01*
X231170D01*
G01X240260Y377680D02*
X242050Y379470D01*
X244600D01*
X245690Y378380D01*
X372180D01*
X386050Y364510D01*
X393640D01*
X394720Y363430D01*
X396210D01*
G01X246790Y364060D02*
X248050Y362800D01*
X252040D01*
X256720Y367480D01*
X294570D01*
X294910Y367140D01*
X298730D01*
X299170Y367580D01*
X304640D01*
G01X247670Y368070D02*
X254530D01*
X256900Y370440D01*
X289620D01*
X291559Y372379D01*
X367701D01*
X382790Y357290D01*
X398390D01*
X405600Y350080D01*
X406520D01*
G01X242340Y378620D02*
X243320Y377640D01*
X372020D01*
X386120Y363540D01*
X390310D01*
X390350Y363500D01*
G01X245820Y376750D02*
X246010Y376940D01*
X371810D01*
X384940Y363810D01*
Y363560D01*
X384970Y363530D01*
G01X249970Y363940D02*
X251649D01*
X257400Y369691D01*
X289931D01*
X291870Y371630D01*
X367390D01*
X382479Y356541D01*
X398079D01*
X401750Y352870D01*
Y349870D01*
G01X270250Y399040D02*
X272280Y401070D01*
X313680D01*
X318770Y395980D01*
X324610D01*
X325240Y395350D01*
Y394550D01*
G01X308410Y362090D02*
X288110D01*
X285630Y359610D01*
X275730D01*
X275710Y359630D01*
G01X310100Y361211D02*
X310079Y361190D01*
X288160D01*
X285550Y358580D01*
X278680D01*
X278670Y358590D01*
G01X280370Y399080D02*
X281710Y400420D01*
X313240D01*
X318520Y395140D01*
X323860D01*
G01X356550Y363950D02*
X356090Y364410D01*
X316830D01*
X315190Y366050D01*
X307530D01*
X306210Y364730D01*
X290810D01*
X290270Y364190D01*
X289450D01*
G01X358540Y364600D02*
X358190Y364950D01*
X317160D01*
X315450Y366660D01*
X307120D01*
X305750Y365290D01*
X288520D01*
G01X393230Y358760D02*
X392270D01*
X391980Y359050D01*
X386000D01*
X371340Y373710D01*
X288290D01*
X288060Y373480D01*
G01X397110Y360790D02*
X397020D01*
X396860Y360950D01*
X386230D01*
X372080Y375100D01*
X293510D01*
X293170Y375440D01*
X287090D01*
G01X291840Y360273D02*
X291853Y360260D01*
X366400D01*
X368330Y358330D01*
G01X294890Y359290D02*
X365980D01*
X368500Y356770D01*
G01X391100Y358230D02*
X390980Y358350D01*
X385550D01*
X370800Y373100D01*
X290770D01*
X290160Y372490D01*
G01X291800Y368560D02*
Y368610D01*
X293460Y370270D01*
X297880D01*
G01X394980Y359760D02*
X394920Y359700D01*
X386510D01*
X371840Y374370D01*
X293760D01*
X293750Y374360D01*
X292850D01*
X292640Y374570D01*
Y374620D01*
G01X305800Y395370D02*
X293750D01*
X290290Y398830D01*
G01X352500Y362910D02*
X316660D01*
X314700Y364870D01*
X308290D01*
X306430Y363010D01*
X297870D01*
X297860Y363000D01*
G01X354380Y363020D02*
X353620Y363780D01*
X316570D01*
X314950Y365400D01*
X307820D01*
X306190Y363770D01*
X301590D01*
X301540Y363820D01*
G01X296080Y380540D02*
X310300D01*
X310310Y380550D01*
G01X312710Y364050D02*
X314490D01*
X316550Y361990D01*
X373540D01*
X374290Y361240D01*
X376010D01*
G01X312490Y368820D02*
X314130Y370460D01*
X318610D01*
G01X311810Y375910D02*
X311970Y376070D01*
X320150D01*
G01X318800Y303400D02*
X320735Y305335D01*
Y310265D01*
X320600Y310400D01*
Y311500D01*
G01X314510Y362820D02*
X314610D01*
X316380Y361050D01*
X363590D01*
X363600Y361060D01*
X363610Y361050D01*
X373190D01*
X373210Y361030D01*
G01X324000Y298000D02*
X324041Y298041D01*
Y305858D01*
G01D02*
Y307469D01*
X323900Y307610D01*
G01D02*
Y309580D01*
X323880Y309600D01*
G01D02*
Y311080D01*
X324500Y311700D01*
G01X340060Y368810D02*
X341180Y369930D01*
X345510D01*
X346080Y370500D01*
G01X356519Y368670D02*
Y368969D01*
X357880Y370330D01*
X362530D01*
G01X360354Y380582D02*
X389738D01*
X393670Y376650D01*
Y374510D01*
G01X396390Y396160D02*
X361640D01*
X360380Y397420D01*
G01X426150Y391830D02*
X407290D01*
X401710Y397410D01*
X370370D01*
G01X429260Y373410D02*
X394050D01*
X391240Y370600D01*
G01X395200Y368640D02*
X395210D01*
X396980Y370410D01*
X401340D01*
G01X393670Y374510D02*
X428940D01*
G01X397130Y380900D02*
X420040D01*
X420350Y380590D01*
G54D21*
X200354Y202066D03*
Y392066D03*
X460354Y214566D03*
Y379566D03*
G54D12*
X119362Y272960D03*
Y282960D03*
Y315164D03*
Y325164D03*
G54D13*
X118140Y399604D03*
Y407596D03*
X148140Y403600D03*
G54D22*
X220354Y197066D03*
Y387066D03*
X230354Y197066D03*
Y207066D03*
Y387066D03*
Y397066D03*
X430354Y197066D03*
Y207066D03*
Y387066D03*
Y397066D03*
X440354Y197066D03*
Y207066D03*
Y387066D03*
Y397066D03*
G54D14*
X119782Y200604D03*
Y255132D03*
G54D23*
X220354Y207066D03*
Y397066D03*
G54D15*
G01X310200Y313100D02*
Y313274D01*
X308120Y315354D01*
Y321179D01*
G01D02*
X308415Y321474D01*
G01X311780Y311961D02*
X311680Y312061D01*
X311339D01*
X310300Y313100D01*
X310200D01*
G01X324039Y314600D02*
X322880Y315759D01*
Y317808D01*
X323170Y318098D01*
Y319230D01*
X322510Y319890D01*
X321740D01*
X320570Y321060D01*
G01X333479Y319660D02*
X332100Y318281D01*
Y317050D01*
X331300Y316250D01*
X326378D01*
X326248Y316120D01*
X325559D01*
X325480Y316041D01*
X325353D01*
X324039Y314727D01*
Y314600D01*
G01X349550Y322230D02*
Y319930D01*
X349500Y319880D01*
X121650Y214950D03*
X121370Y224830D03*
X122020Y228260D03*
X120930Y228000D03*
X121380Y231490D03*
X118830Y242390D03*
X120200Y245240D03*
X126720Y209220D03*
X122330Y216970D03*
X123120Y220310D03*
X123220Y224580D03*
X127346Y235791D03*
X122540Y239880D03*
X124900Y247390D03*
X123190Y400690D03*
X128090Y400920D03*
X125190Y409670D03*
X127280Y409690D03*
X122260Y405050D03*
X130130Y214578D03*
X133618Y218918D03*
X130130Y218911D03*
Y223244D03*
Y227077D03*
Y230410D03*
X131250Y253340D03*
X133060Y401060D03*
X132330Y405100D03*
X134820Y208580D03*
X134570Y214480D03*
X136290Y230200D03*
X137050Y401030D03*
X137900Y406110D03*
X141520Y198491D03*
X145410Y208730D03*
X142020Y214760D03*
X140618Y218918D03*
X141520Y235791D03*
X141930Y253730D03*
X142120Y406870D03*
X147790Y198180D03*
X149310Y202199D03*
X148550Y214900D03*
X147618Y218918D03*
X149580Y239679D03*
X149590Y243330D03*
X148160Y250080D03*
X147700Y254010D03*
X151960Y253960D03*
X152100Y384420D03*
X149050Y388390D03*
X149440Y407310D03*
X155480Y197920D03*
X156000Y215080D03*
X154618Y218918D03*
X152510Y235030D03*
X158050Y237970D03*
X157960Y238790D03*
X156940Y238010D03*
X156930Y238920D03*
X157940Y239630D03*
X156920Y239800D03*
Y240650D03*
X157810Y240450D03*
X156890Y241610D03*
X153970Y253880D03*
X157350Y399310D03*
X153890Y403000D03*
X161500Y197700D03*
X162070Y211060D03*
X162480Y214970D03*
X161618Y218918D03*
X158900Y233970D03*
X160490Y238800D03*
X161670Y242010D03*
X160400Y236560D03*
X164140Y236550D03*
X163843Y251359D03*
X163800Y252350D03*
X163830Y250410D03*
X161170Y372370D03*
X163760Y372260D03*
X163720Y375420D03*
X161290Y375240D03*
X161330Y378670D03*
X163760Y378760D03*
X163180Y392560D03*
X158200Y392190D03*
X162710Y400320D03*
X164140Y403280D03*
X159640Y406780D03*
X165330Y233900D03*
X165990Y239740D03*
X166030Y237640D03*
X166150Y242090D03*
X167386Y251359D03*
X168620Y348410D03*
Y351210D03*
X167190Y372220D03*
X167150Y375380D03*
X167190Y378720D03*
X166690Y383080D03*
X167740Y383030D03*
X167210Y387900D03*
X165670Y398150D03*
X164350Y406950D03*
X171470Y213870D03*
Y219760D03*
X171590Y241830D03*
X173040Y241820D03*
X173020Y243110D03*
X171610Y243120D03*
X172300Y340750D03*
X170290Y341530D03*
X176055Y348310D03*
X173422D03*
X178000Y200500D03*
X176530Y217820D03*
X179430Y223100D03*
X176350Y225420D03*
X180390Y231220D03*
X176290Y241780D03*
X177830Y253920D03*
X182070Y280240D03*
X181099Y295126D03*
Y307974D03*
X181336Y332913D03*
X178870Y339530D03*
X181520Y339620D03*
X178790Y342790D03*
X181460Y344390D03*
X178680Y348800D03*
X180500Y357590D03*
X176650Y369950D03*
X176640Y401980D03*
X178300Y408150D03*
X183070Y189970D03*
X187280Y228830D03*
Y229830D03*
Y230830D03*
X187150Y239580D03*
X186190Y245330D03*
X182300Y263330D03*
X186080Y277270D03*
X184643Y295126D03*
Y307974D03*
X183450Y395410D03*
X183410Y401370D03*
X190730Y216680D03*
X193090Y219140D03*
X193860Y226860D03*
X189280Y228830D03*
X188280D03*
X189280Y229830D03*
X188280D03*
X189930Y233350D03*
X188280Y230830D03*
X189280D03*
X188840Y252720D03*
X192180Y263230D03*
X192000Y277390D03*
X190030Y273510D03*
X188540Y280990D03*
X192620Y289080D03*
X191980Y298570D03*
X193750Y298610D03*
X191980Y306444D03*
X193950Y306470D03*
X191580Y316330D03*
X192000Y342500D03*
X188850Y341700D03*
X189750Y341690D03*
X193990Y344960D03*
X194050Y346000D03*
X193210Y355220D03*
X194070Y355210D03*
X195140Y217480D03*
X198740Y244550D03*
X197300Y249580D03*
X197170Y263490D03*
X198130Y271500D03*
X196850Y274110D03*
X197550Y289120D03*
X199610Y292870D03*
X199520Y290910D03*
X196210Y292890D03*
Y291780D03*
X197360Y299500D03*
X197290Y296390D03*
X197180Y302460D03*
Y305660D03*
X197030Y309180D03*
X196456Y312196D03*
X196460Y313280D03*
X199560Y314040D03*
X198140Y324040D03*
X197090Y324000D03*
X198250Y328322D03*
Y333822D03*
X201800Y217290D03*
X205190Y217420D03*
X205430Y229870D03*
X205730Y250980D03*
X202490Y270310D03*
X204850Y272790D03*
X205920Y292890D03*
X200880Y299510D03*
X203730Y299590D03*
X200810Y296400D03*
X203660Y296480D03*
X200700Y302470D03*
Y305670D03*
X203550Y305750D03*
X200550Y309190D03*
X203400Y309270D03*
X201330Y316520D03*
X204348Y315530D03*
X203030Y319390D03*
X205910Y319380D03*
X205920Y342040D03*
X204820Y341990D03*
X205920Y343060D03*
X204880Y343110D03*
X203810Y343090D03*
X203820Y342030D03*
X202910Y343080D03*
X202920Y342020D03*
X207320Y222630D03*
X211290Y225460D03*
X206260Y244700D03*
X211030Y243650D03*
X211440Y251360D03*
X206582Y263280D03*
X210570Y281780D03*
X211330Y286190D03*
X211380Y285120D03*
X209060Y292900D03*
X207490Y292880D03*
X210210Y299580D03*
X206700Y299510D03*
X210140Y296470D03*
X206630Y296400D03*
X206520Y302470D03*
X210030Y302540D03*
Y305740D03*
X206520Y305670D03*
X209880Y309260D03*
X206370Y309190D03*
X210130Y318490D03*
X207488Y315600D03*
X209060Y319380D03*
X210637Y315600D03*
X206770Y329310D03*
X206920Y343080D03*
X206930Y342030D03*
X216850Y187720D03*
X213260Y214350D03*
X212950Y230870D03*
X216340Y276410D03*
X216360Y277530D03*
X214653Y298613D03*
X216930Y301370D03*
X216981Y297493D03*
X215570Y298660D03*
X214590Y297050D03*
X215520Y297010D03*
X216980Y303601D03*
X216930Y306241D03*
X212340Y312130D03*
X212350Y313150D03*
X216980Y310900D03*
Y308567D03*
X217460Y322920D03*
X216570Y322910D03*
X213330Y344730D03*
X213310Y358220D03*
X216230Y404160D03*
X216360Y406700D03*
X221490Y185580D03*
X222850Y281760D03*
X222680Y278330D03*
X222520Y340320D03*
X221490Y340000D03*
X223590Y340310D03*
X222560Y341370D03*
X221670Y341220D03*
X223660Y341340D03*
X221870Y402990D03*
X221750Y406540D03*
X221700Y409680D03*
X226780Y185410D03*
X224750Y217600D03*
X224850Y260890D03*
X226740Y312530D03*
X224940Y312510D03*
X224870Y314100D03*
X226690D03*
X229500Y336000D03*
X228350Y335860D03*
X229510Y338160D03*
X226460Y339940D03*
X227560Y342920D03*
X229350Y342970D03*
X227420Y348770D03*
X227170Y346770D03*
X225420Y344660D03*
X229440Y348780D03*
X226100Y402950D03*
X226030Y406360D03*
X226170Y409490D03*
X233140Y229300D03*
X232140D03*
X231270Y301150D03*
X235370Y301910D03*
X231300Y307370D03*
X231280Y304560D03*
X235470Y305800D03*
X231280Y312490D03*
X231080Y315660D03*
X235470Y314180D03*
X231440Y347650D03*
X230970Y345260D03*
X231170Y361490D03*
X231410Y404960D03*
X236520Y185010D03*
X240540Y193450D03*
X240460Y220420D03*
X239960Y221240D03*
X239920Y222140D03*
X236380Y306770D03*
X236130Y304050D03*
X236450Y311860D03*
X236550Y309880D03*
X237840Y310861D03*
X236280Y313170D03*
X236440Y308560D03*
X236190Y315220D03*
X240690Y337650D03*
X239930Y337000D03*
X242060Y339040D03*
X241430Y338360D03*
X237870Y360740D03*
X237860Y362990D03*
X241680Y365730D03*
X240670Y367560D03*
X241990Y369380D03*
X241920Y373010D03*
X240640Y371330D03*
X240260Y377680D03*
X236130Y408870D03*
X241650Y409100D03*
X242570Y184810D03*
X243415Y198234D03*
X245380Y234880D03*
Y233880D03*
X247780Y259380D03*
X244570Y265020D03*
X244560Y266580D03*
X247400Y287120D03*
X246440Y287070D03*
X245380Y287120D03*
X245410Y286090D03*
X246410D03*
X247450Y286080D03*
X246230Y330470D03*
X245930Y342870D03*
X245290Y342190D03*
X244650Y341610D03*
X243950Y340980D03*
X243310Y340400D03*
X242720Y339690D03*
X243490Y360070D03*
X246790Y364060D03*
X247670Y368070D03*
X242340Y378620D03*
X245820Y376750D03*
X247940Y409310D03*
X252280Y184890D03*
X250450Y192000D03*
X253880Y233270D03*
Y234270D03*
X248610Y258380D03*
X250650Y318670D03*
X249170Y323510D03*
X253630Y342070D03*
X252630D03*
X253650Y353100D03*
X251530Y353150D03*
X253940Y358250D03*
X251820Y358300D03*
X249970Y363940D03*
X250354Y403930D03*
X250350Y404940D03*
X251370Y404960D03*
Y403940D03*
X252350Y403920D03*
X252330Y404950D03*
X253360Y404960D03*
X253280Y403900D03*
X254370Y198900D03*
X257480Y195300D03*
X259010Y196465D03*
X258540Y233270D03*
Y232270D03*
X256510Y244160D03*
X256480Y245290D03*
X257510Y244160D03*
X257480Y245290D03*
X257050Y250850D03*
Y251850D03*
X257030Y256070D03*
Y257070D03*
X257010Y262710D03*
X256010D03*
X256980Y263840D03*
X255980D03*
X258010Y262710D03*
X257980Y263840D03*
X258170Y297780D03*
X255500Y333470D03*
X256500D03*
X255180Y335940D03*
X257630Y342070D03*
X258630D03*
X256630D03*
X255630D03*
X254630D03*
X255730Y353110D03*
X257690Y353140D03*
X259390Y353090D03*
X259680Y358240D03*
X257980Y358290D03*
X256020Y358260D03*
X255630Y409490D03*
X263280Y185310D03*
X260260Y191920D03*
X264190Y236180D03*
Y237180D03*
Y242600D03*
Y243600D03*
X264240Y248780D03*
Y249780D03*
X264590Y254760D03*
Y255760D03*
X262640Y306320D03*
X260540Y306930D03*
X261541Y335920D03*
X260120Y333190D03*
X261090Y333200D03*
X261220Y346910D03*
X264610Y385600D03*
X265780Y385540D03*
X264670Y383500D03*
X265800Y383420D03*
X264670Y381750D03*
X265960Y381780D03*
X260340Y402150D03*
X261690Y409420D03*
X271360Y185050D03*
X270350Y192320D03*
X270090Y198810D03*
X270130Y236040D03*
X271130D03*
X270100Y237170D03*
X271100D03*
X271030Y242710D03*
X270030D03*
X271000Y243840D03*
X270000D03*
X272030Y242710D03*
X272000Y243840D03*
X271060Y249130D03*
X270060D03*
X271030Y250260D03*
X270030D03*
X272030D03*
X271010Y254370D03*
X270010D03*
X269980Y255500D03*
X272010Y254370D03*
X271980Y255500D03*
X270640Y258830D03*
X269640D03*
X268800Y312800D03*
X267370Y322370D03*
X266420Y322360D03*
X267360Y323500D03*
X266270D03*
X267330Y324630D03*
X266260Y324570D03*
X266612Y331838D03*
Y330263D03*
X269761Y333413D03*
X271336D03*
Y334987D03*
X269761D03*
X266560Y335010D03*
X268180Y333450D03*
X268280Y335000D03*
X271740Y383320D03*
X270250Y399040D03*
X268810Y409470D03*
X273437Y194303D03*
X272130Y236040D03*
X272100Y237170D03*
X272060Y249130D03*
X275000Y259950D03*
Y258950D03*
X274390Y324310D03*
X273390D03*
X272390D03*
X276330Y320040D03*
X272150Y345530D03*
X273150D03*
X274150D03*
X275710Y359630D03*
X273290Y363250D03*
X275040Y372270D03*
X277490Y382210D03*
X276400Y409420D03*
X281650Y184800D03*
X280360Y192740D03*
X278430Y196303D03*
X280040Y214040D03*
X281040D03*
X278400Y322200D03*
X278670Y358590D03*
X280370Y399080D03*
X286940Y198100D03*
X286010Y211120D03*
X287560D03*
X289390Y211100D03*
X287610Y212330D03*
X286010Y212350D03*
X289340Y212390D03*
X288800Y316400D03*
X288000Y314400D03*
X289450Y364190D03*
X288520Y365290D03*
X287850Y366530D03*
X289860Y368510D03*
X287860Y368530D03*
X288060Y373480D03*
X287090Y375440D03*
X288770Y383140D03*
X285290Y409610D03*
X295240Y184870D03*
X293140Y196585D03*
X291640Y201570D03*
X295170Y215570D03*
X294100Y215590D03*
X294090Y216610D03*
X295190Y216650D03*
X294000Y318400D03*
X293030Y321280D03*
X290980Y331600D03*
X292380Y328820D03*
X295750Y331770D03*
X294750D03*
X292590Y330330D03*
X293120Y331360D03*
X294750Y332770D03*
X295750D03*
X294270Y338360D03*
X295270D03*
Y339360D03*
X294270D03*
X291840Y360273D03*
X294890Y359290D03*
X290620Y363280D03*
X290160Y372490D03*
X291800Y368560D03*
X292640Y374620D03*
X292430Y384050D03*
X293680Y384070D03*
X293720Y382640D03*
X290290Y398830D03*
X299940Y196740D03*
X296290Y215580D03*
X296300Y216680D03*
X298400Y318400D03*
X296200D03*
X301449Y314661D03*
X296200Y320600D03*
X298400D03*
X301420Y330180D03*
X296750Y331770D03*
Y332770D03*
X296270Y338360D03*
Y339360D03*
X301400Y339600D03*
X299812Y366162D03*
X297812Y366161D03*
X297860Y363000D03*
X301540Y363820D03*
X301630Y370500D03*
X297800Y368180D03*
X297880Y370270D03*
X296080Y380540D03*
X305350Y184760D03*
X305130Y195470D03*
X305940Y249390D03*
X306840D03*
X306726Y255767D03*
Y256767D03*
X305726Y255767D03*
Y256767D03*
X303092Y262890D03*
X304172D03*
X303162Y261000D03*
X304162D03*
X304172Y263890D03*
X303092D03*
X304162Y262000D03*
X303162D03*
X306000Y309600D03*
X306920Y316470D03*
X303453Y316535D03*
X303513Y314665D03*
X307043Y314675D03*
X305243D03*
X304303Y331459D03*
X306190Y331450D03*
X307140Y334200D03*
X305540D03*
X306340D03*
X304640Y367580D03*
X305800Y395370D03*
X310400Y192180D03*
X308090Y198430D03*
X310842Y195048D03*
X313612Y196623D03*
X309450Y240870D03*
Y241870D03*
X310350D03*
Y240870D03*
X309734Y252675D03*
Y254675D03*
X312940Y258640D03*
X312294Y255194D03*
X313393Y261089D03*
Y262089D03*
Y263089D03*
Y264089D03*
X312393Y261089D03*
Y262089D03*
Y263089D03*
Y264089D03*
X311393D03*
Y263089D03*
Y262089D03*
Y261089D03*
X309689Y268591D03*
Y270591D03*
X309975Y275647D03*
X311975D03*
X308400Y281800D03*
X311000Y305800D03*
X312690Y313530D03*
X311700Y313438D03*
X310200Y313100D03*
X311780Y311961D03*
X313870Y313650D03*
X309330Y316828D03*
X312480Y317730D03*
X311640Y317100D03*
X312900Y314580D03*
X313110Y315630D03*
Y316680D03*
X311560Y315288D03*
X312060Y319830D03*
X309540Y319269D03*
X308400Y323350D03*
X312270Y321689D03*
X310400Y323280D03*
X308415Y321474D03*
X309700Y330946D03*
X308500Y331000D03*
X312680Y328480D03*
X310200Y328394D03*
X309400D03*
X313500Y328400D03*
Y332500D03*
X310950Y333970D03*
X310150D03*
X311750D03*
X313000Y342119D03*
X312920Y344070D03*
X311840Y348900D03*
X312850Y348800D03*
X313140Y347960D03*
X311810Y347810D03*
X310100Y361211D03*
X312710Y364050D03*
X308410Y362090D03*
X310510Y368810D03*
X308530D03*
X312490Y368820D03*
X311810Y375910D03*
X310310Y380550D03*
X316740Y184940D03*
X316770Y241360D03*
X318070D03*
X315090Y245925D03*
X319370Y245920D03*
X317510Y245910D03*
X318070Y242860D03*
X316770D03*
X314490Y255430D03*
X314410Y258080D03*
X317390Y276000D03*
Y278090D03*
X316800Y287000D03*
X318800Y303400D03*
X319200Y311500D03*
X317960Y309798D03*
X318010Y313320D03*
X319790Y313130D03*
X315400Y309400D03*
X319830Y309689D03*
X317830Y308080D03*
X316000Y315200D03*
X315980Y316990D03*
X315810Y319160D03*
X314500Y318000D03*
X319800Y314420D03*
X319300Y316330D03*
X318300Y316950D03*
X317840Y318840D03*
X318270Y315060D03*
X314560Y319790D03*
X314400Y315300D03*
X314370Y314450D03*
X314359Y321581D03*
X318580Y322450D03*
X316150Y325420D03*
X316070Y330370D03*
X318000Y330700D03*
X316189Y328710D03*
X315990Y332160D03*
X319250Y332400D03*
X316300Y334881D03*
X319300Y335169D03*
X314870Y336502D03*
X316200Y342219D03*
X319290Y340940D03*
X316130Y344060D03*
X319230Y344090D03*
X317097Y345876D03*
X317044Y347796D03*
X313990Y348900D03*
X314070Y347940D03*
X319097Y345876D03*
X319044Y347796D03*
X319244Y351033D03*
X318572Y366341D03*
X314510Y362820D03*
X318550Y368370D03*
X318610Y370460D03*
X320260Y192930D03*
X324115Y198135D03*
X324200Y243350D03*
X325230Y246630D03*
X322200Y243250D03*
X320849Y252980D03*
X325250Y248990D03*
X322864Y253133D03*
X322790Y254810D03*
X324809Y254913D03*
X324648Y274231D03*
X325081Y277504D03*
X322648Y274231D03*
X325109Y279571D03*
X321840Y278510D03*
X322151Y282045D03*
X324800Y288800D03*
X320800Y299200D03*
X325520Y296520D03*
X323900Y307610D03*
X324041Y305858D03*
X321760Y306030D03*
X321770Y307620D03*
X321756Y303400D03*
X325800Y306200D03*
X325860Y307750D03*
X320600Y311500D03*
X323880Y309600D03*
X324500Y311700D03*
X323300Y311800D03*
X321900D03*
X321790Y312830D03*
X323600Y313200D03*
X325900Y311600D03*
X325200Y313200D03*
X321900Y310000D03*
X325740Y310230D03*
X325100Y319020D03*
X320700Y318809D03*
X322000Y314600D03*
X321800Y317000D03*
X325800Y317200D03*
X324000Y317400D03*
X322070Y318781D03*
X325801Y314961D03*
X324039Y314600D03*
X323500Y322500D03*
X322370Y321020D03*
X320900Y322500D03*
X323407Y324349D03*
X320620Y324650D03*
X325106Y320856D03*
X320570Y321060D03*
X325801Y326981D03*
X325640Y330640D03*
X324100Y327400D03*
X323801Y328980D03*
X323701Y330880D03*
X325935Y328935D03*
X321300Y330220D03*
X320400Y326700D03*
X321800Y326900D03*
X323897Y334953D03*
X321310Y332130D03*
X325575Y332815D03*
X323890Y333310D03*
X324074Y336810D03*
X321200Y336900D03*
X322410Y343150D03*
X324310Y339000D03*
X321170Y339060D03*
X325510Y343130D03*
X322560Y341190D03*
X325583Y341175D03*
X320612Y366301D03*
X322390Y370680D03*
X320150Y376070D03*
X323860Y395140D03*
X325240Y394550D03*
X328130Y184900D03*
X329540Y192590D03*
X328114Y195846D03*
X330059Y245882D03*
X327646Y258493D03*
Y260493D03*
X331600Y305200D03*
X328200Y305940D03*
X331510Y306870D03*
D03*
X329790Y305330D03*
X329771Y306860D03*
X326320Y303836D03*
X331550Y309160D03*
X330750D03*
X328110Y309740D03*
X327780Y308360D03*
X329100Y312900D03*
X328600Y311500D03*
X327400D03*
X326800Y313200D03*
X328000Y313400D03*
X330000D03*
X331710Y313750D03*
X330650Y311100D03*
X327350Y317400D03*
X331479Y319840D03*
X329160Y319049D03*
X326950Y319139D03*
X328200Y319200D03*
X330400D03*
X331001Y317490D03*
X331710Y314550D03*
X327601Y315077D03*
X326601Y314961D03*
X331070Y323050D03*
X329900Y324100D03*
Y325200D03*
X329910Y323190D03*
X326260Y322620D03*
X331440Y325130D03*
X326323Y324577D03*
X326950Y320839D03*
X329760Y321121D03*
X331600Y321400D03*
X330800Y321121D03*
X328790Y327000D03*
X331600Y331600D03*
Y330600D03*
X331440Y326230D03*
X328610Y329000D03*
X329900Y333700D03*
X328790Y334070D03*
X328675Y332005D03*
X327514Y336810D03*
X329360Y336930D03*
X328870Y343120D03*
X327410Y339080D03*
X328733Y341175D03*
X331183Y341173D03*
X331579Y349387D03*
Y347387D03*
X333370Y196455D03*
X337130Y243880D03*
Y244880D03*
X336230D03*
Y243880D03*
X336160Y252240D03*
Y251240D03*
X337060Y252240D03*
Y251240D03*
X334570Y305220D03*
X336290Y306840D03*
X336281Y305330D03*
X335430Y313730D03*
X333176Y311184D03*
X335700Y311260D03*
X335400Y319300D03*
X333200Y317770D03*
X333520Y315120D03*
Y314120D03*
X335000Y318000D03*
X337750Y315960D03*
X336930Y318190D03*
X335430Y314530D03*
X333479Y319660D03*
X336920Y322420D03*
X336630Y320460D03*
X332250Y325220D03*
X336920Y324420D03*
X334950Y323400D03*
X332600Y331600D03*
Y330600D03*
X332250Y326020D03*
X336300Y328120D03*
X332380Y333730D03*
X334700Y333840D03*
X335400Y332000D03*
X336320Y333720D03*
X335120Y340340D03*
X335000Y338379D03*
X333662Y349539D03*
Y351539D03*
X336060Y368720D03*
X339620Y184480D03*
X340310Y193140D03*
X341350Y198310D03*
X343216Y244400D03*
X342799Y248591D03*
X342442Y274241D03*
X340442D03*
X338330Y305200D03*
X338360Y307030D03*
X341700Y305119D03*
Y307519D03*
X339800Y302600D03*
X341260Y309390D03*
X337990Y309420D03*
X340800Y311284D03*
X338600D03*
X342350Y311290D03*
X342500Y318000D03*
X338060Y314010D03*
X342000Y314990D03*
Y314190D03*
X343300Y318000D03*
X339380Y318250D03*
X339760Y314740D03*
Y315540D03*
X339700Y322200D03*
X338500D03*
X343600Y322050D03*
X340370Y320280D03*
X340220Y324060D03*
X339550Y320220D03*
X339420Y324060D03*
X343030Y324250D03*
X343830D03*
X343820Y320290D03*
X338500Y328900D03*
X340940Y328930D03*
X341740D03*
X339840Y330880D03*
X340100Y327250D03*
X339300D03*
X339040Y330880D03*
X342900Y326830D03*
X343700D03*
X343240Y330700D03*
X341113Y334777D03*
X341360Y336720D03*
X341190Y340390D03*
X338130Y340410D03*
X338200Y338380D03*
X341050Y338379D03*
X338080Y368670D03*
X340060Y368810D03*
X345240Y196135D03*
X345216Y244400D03*
X348209Y250512D03*
X347537Y258996D03*
X346100Y255560D03*
X348159Y255430D03*
X345552Y258580D03*
X348612Y279283D03*
X348829Y283370D03*
X345850Y309230D03*
X344260Y309200D03*
X345350Y311210D03*
X346150D03*
X349150Y316570D03*
Y315770D03*
Y314970D03*
X349500Y319880D03*
X344100Y315580D03*
Y314780D03*
X344170Y319560D03*
X347270Y316260D03*
Y317060D03*
Y315460D03*
X349550Y322230D03*
X347750Y324820D03*
X349830Y325010D03*
X347380Y321020D03*
Y321820D03*
X347700Y326940D03*
X349200Y331290D03*
X349190Y328910D03*
X344140Y328930D03*
X344040Y330700D03*
X347530Y329250D03*
X347430Y330050D03*
Y330850D03*
X347731Y336950D03*
X345790Y336970D03*
X348070Y366390D03*
X346032Y366381D03*
X349850Y370720D03*
X345970Y368400D03*
X346080Y370500D03*
X354840Y184830D03*
X350120Y193060D03*
X351290Y197430D03*
X353037Y244362D03*
X350365Y250596D03*
X353040Y258500D03*
X350975Y258542D03*
X350574Y266102D03*
X350526Y268159D03*
X355799Y277199D03*
X350820Y283370D03*
X350900Y279000D03*
X355834Y279204D03*
X353299Y310899D03*
X354299Y309899D03*
Y310899D03*
X353299Y309899D03*
X353300Y315200D03*
Y316700D03*
X354800D03*
Y315200D03*
X351700Y319900D03*
X351900Y325130D03*
X352500Y362910D03*
X354380Y363020D03*
X354600Y368530D03*
X352630Y368570D03*
X354720Y385440D03*
X354620Y387550D03*
X354650Y386500D03*
X360030Y193480D03*
X358045Y198655D03*
X357987Y244456D03*
X355987D03*
X361169Y250948D03*
X361227Y259939D03*
X361124Y266316D03*
X361220Y275714D03*
X357879Y286907D03*
X358879D03*
X359879D03*
X360879D03*
Y285907D03*
X359879D03*
X358879D03*
X357879D03*
X360879Y284907D03*
X359879D03*
X358879D03*
X357879D03*
X356550Y363950D03*
X358540Y364600D03*
X356519Y368670D03*
X360354Y380582D03*
X360380Y397420D03*
X363930Y184730D03*
X362640Y196035D03*
X363320Y250940D03*
X365100Y253134D03*
X363157Y259957D03*
X365100Y255134D03*
X363124Y266338D03*
X363020Y275760D03*
X367535Y283767D03*
X366535D03*
X365535D03*
Y285767D03*
X366535D03*
X367535D03*
Y284767D03*
X366535D03*
X365535D03*
X365299Y310399D03*
X366299D03*
Y309399D03*
X365299D03*
X365100Y316800D03*
X366600D03*
Y315300D03*
X365100D03*
X362670Y357440D03*
X366180Y357600D03*
X364510Y366220D03*
X362530Y366240D03*
X366300Y370570D03*
X362490Y368200D03*
X362530Y370330D03*
X370520Y193020D03*
X371830Y199220D03*
X369052Y196542D03*
X373210Y197130D03*
X372600Y269400D03*
X372000Y272800D03*
X371800Y282600D03*
X368535Y283767D03*
X372200Y285200D03*
X368535Y285767D03*
Y284767D03*
X373853Y298724D03*
X368330Y358330D03*
X368500Y356770D03*
X373210Y361030D03*
X370570Y366570D03*
X373770Y363080D03*
X370370Y397410D03*
X375240Y184760D03*
X376910Y221940D03*
X379140Y253540D03*
X375510Y261030D03*
X376600Y269800D03*
X375300Y267840D03*
X377127Y298721D03*
X374990Y306390D03*
X377013Y306392D03*
X374600Y318460D03*
X375500D03*
X378181Y331296D03*
X376460Y337101D03*
X373969Y332324D03*
X374370Y337004D03*
X378803Y342531D03*
Y344531D03*
X379680Y349680D03*
X374060Y350400D03*
X376010Y361240D03*
X378740Y362700D03*
X378890Y378100D03*
X381190Y193550D03*
X385630Y193240D03*
X385720Y197380D03*
X382770Y196160D03*
X380740Y219260D03*
X384650Y241080D03*
X382690Y238130D03*
X382710Y241010D03*
X380830Y242820D03*
X385100Y249320D03*
Y251290D03*
X385110Y270940D03*
X384200Y278000D03*
X381560Y273860D03*
X382790Y273840D03*
X382780Y274920D03*
X381670Y274950D03*
X380660Y292826D03*
Y294826D03*
X380286Y305959D03*
Y303959D03*
X382276Y314075D03*
X380076Y317977D03*
Y318977D03*
X381076Y317977D03*
Y318977D03*
X380276Y314075D03*
X380157Y323879D03*
Y321879D03*
X380165Y331159D03*
X382265Y331397D03*
X382333Y333534D03*
X384970Y363530D03*
X384760Y371630D03*
X381390Y378030D03*
X381260Y391170D03*
X385440Y387160D03*
X391180Y198450D03*
X385950Y237270D03*
X386650Y239540D03*
X386640Y242480D03*
X389060Y251230D03*
X386090Y250350D03*
X390990Y249290D03*
X389640Y259370D03*
X391020Y257020D03*
X390990Y261130D03*
X391000Y265090D03*
X391080Y268790D03*
X389030Y268980D03*
X389020Y270980D03*
X389080Y272900D03*
X387040Y272940D03*
X390980Y272910D03*
X387400Y284200D03*
X388410Y295440D03*
X387917Y296340D03*
X389599Y302599D03*
X387599D03*
X387960Y308150D03*
X387950Y310137D03*
X386644Y328964D03*
X386358Y331837D03*
X386653Y326865D03*
X388024Y334292D03*
X386550Y337410D03*
X386560Y339600D03*
X388201Y342435D03*
Y344435D03*
X391100Y358230D03*
X390350Y363500D03*
X391240Y368570D03*
Y370600D03*
X390410Y390530D03*
X393070Y199540D03*
X392970Y247240D03*
X394170Y242420D03*
X393700Y244920D03*
X395360Y252530D03*
X392980Y249260D03*
X392960Y251290D03*
X394990Y254110D03*
X392530Y254540D03*
X391910Y271800D03*
X395990Y266250D03*
X393880Y269960D03*
X393900Y272040D03*
X395267Y295196D03*
X394249Y295208D03*
X394220Y296461D03*
X395238Y296449D03*
X394024Y308957D03*
X396024D03*
X396063Y337119D03*
X396030Y339380D03*
X394578Y342538D03*
Y344538D03*
X396050Y350650D03*
X393230Y358760D03*
X397110Y360790D03*
X394980Y359760D03*
X396210Y363430D03*
X393220Y368620D03*
X395200Y368640D03*
X393670Y374510D03*
X397130Y380900D03*
X394770Y391670D03*
X394220Y394750D03*
X396390Y396160D03*
X399710Y184840D03*
X398550Y196020D03*
X402120Y196350D03*
X400750Y261040D03*
X400890Y263090D03*
X398900Y265080D03*
X401842Y291045D03*
X399842D03*
X400295Y294795D03*
X401617Y302132D03*
X400080Y306262D03*
X401384Y304175D03*
X399689Y311259D03*
Y310259D03*
X402480Y317200D03*
X403490Y317480D03*
X403290Y318460D03*
X402490Y318140D03*
X403569Y342480D03*
X401480Y346350D03*
X403569Y344480D03*
X399560Y349760D03*
X401750Y349870D03*
X399383Y346411D03*
X403220Y366287D03*
X401260Y366280D03*
X401270Y368240D03*
X401340Y370410D03*
X400354Y384090D03*
X407010Y197890D03*
X408592Y296401D03*
X408609Y301507D03*
X408592Y298401D03*
X407390Y306740D03*
X408609Y303507D03*
X405390Y306740D03*
X408635Y311370D03*
X408689Y318059D03*
X409689D03*
Y317059D03*
X408689D03*
X405926Y324110D03*
X403921Y329676D03*
Y331676D03*
X406520Y350080D03*
X405070Y370630D03*
X411960Y185200D03*
X410060Y193790D03*
X412942Y196803D03*
X410117Y324527D03*
X410770Y331060D03*
X410660Y333450D03*
X410061Y337298D03*
Y339298D03*
X412613Y370019D03*
X410370Y382400D03*
X421780Y184890D03*
X417500Y193160D03*
X418110Y196480D03*
X420240Y385050D03*
X420350Y380590D03*
X420200Y387190D03*
X420160Y386110D03*
X421900Y198240D03*
X427410Y259310D03*
X427440Y258100D03*
X427430Y261370D03*
X422240Y352780D03*
X422200Y372170D03*
X426150Y391830D03*
X424940Y393130D03*
X422390Y398430D03*
X427970Y187040D03*
X428410Y258060D03*
X428450Y259250D03*
X433060Y262440D03*
X432970Y275020D03*
X431640Y350010D03*
X429260Y373410D03*
X428940Y374510D03*
X433840Y191010D03*
X436030Y271370D03*
X434040Y283500D03*
X436410Y292460D03*
X436490Y290480D03*
X436360Y306880D03*
X436980Y324360D03*
X437700Y335800D03*
X436210Y350090D03*
X433970Y350070D03*
X438560Y350000D03*
X439770Y360290D03*
X439670Y361540D03*
X438740Y361530D03*
X438770Y360210D03*
X444390Y191500D03*
X443540Y212970D03*
X444750Y257845D03*
Y255345D03*
X440540Y275010D03*
X443120Y283570D03*
X440880Y283470D03*
X440920Y319280D03*
X440260Y342970D03*
X441240Y342890D03*
X441170Y344110D03*
X440280Y344140D03*
X440970Y350050D03*
X447580Y249270D03*
X449930Y253550D03*
X447650Y257845D03*
X449770Y256830D03*
X450970Y256760D03*
X450940Y257790D03*
X449650Y257845D03*
X445943Y264018D03*
X446010Y261780D03*
X446020Y266140D03*
X449220Y271350D03*
X445900Y276960D03*
X449680Y275740D03*
X449370Y279180D03*
X451500Y289679D03*
X451080Y293450D03*
X446790Y318180D03*
X449820Y349900D03*
X448780Y367160D03*
X451800Y249310D03*
X453345Y264550D03*
X455840Y264350D03*
X455500Y289679D03*
X455650Y284500D03*
X455580Y293120D03*
X452800Y319380D03*
X457030Y324160D03*
X454480Y329020D03*
X456150Y334280D03*
X455210Y343400D03*
X456320Y343490D03*
X454770Y339250D03*
X456740Y349890D03*
X456290Y344450D03*
X455170Y344420D03*
X454390Y349980D03*
X452150Y349960D03*
X455680Y361780D03*
X456710D03*
X455640Y360750D03*
X456630Y360720D03*
X457860Y265170D03*
X459050Y265180D03*
X463410Y271430D03*
X457880Y266470D03*
X459060Y266460D03*
X460240Y277010D03*
X463280Y275930D03*
X463360Y273710D03*
X458930Y273680D03*
X460210Y279366D03*
X461220Y279450D03*
X461180Y280460D03*
X460150Y280520D03*
X459500Y289679D03*
X463500D03*
X463470Y293310D03*
X458750Y293360D03*
X458780Y294260D03*
X457840Y293290D03*
X457860Y294230D03*
X459150Y349940D03*
X467060Y273510D03*
X465520Y322200D03*
X467710Y328610D03*
X467750Y338890D03*
X466780Y343500D03*
X465200Y359920D03*
X467430Y363560D03*
X475588Y234527D03*
X470408Y269840D03*
X473030Y269680D03*
X470408Y273383D03*
X473590Y273350D03*
X473000Y283590D03*
X471020Y333360D03*
G54D24*
X310354Y223790D03*
X320354D03*
X330354D03*
X340354D03*
X350354D03*
G54D16*
X123303Y366944D03*
X147803D03*
G54D25*
G01X168620Y348410D02*
Y351210D01*
G01X178790Y342790D02*
X174240D01*
X168620Y348410D01*
G01X206770Y329310D02*
Y338170D01*
X213330Y344730D01*
G01X216930Y301370D02*
Y303551D01*
X216980Y303601D01*
G01X216930Y301370D02*
Y297544D01*
X216981Y297493D01*
G01X216980Y303601D02*
Y306191D01*
X216930Y306241D01*
G01X216980Y308567D02*
Y306291D01*
X216930Y306241D01*
G01X216980Y310900D02*
Y308567D01*
G01X362490Y368200D02*
X361650Y367360D01*
X355740D01*
X354600Y368500D01*
Y368530D01*
G01X362530Y366240D02*
X362310Y366020D01*
X354520D01*
X352630Y367910D01*
Y368570D01*
X313478Y269490D03*
X315839Y269525D03*
X355808Y258454D03*
X351318Y274642D03*
X356959Y268536D03*
X385027Y294789D03*
X384992Y297150D03*
G54D17*
X135303Y385066D03*
G54D26*
X360354Y223790D03*
G54D27*
X476172Y293277D03*
Y317687D03*
G54D18*
X135346Y276562D03*
Y321562D03*
G54D28*
G01X109152Y199310D02*
Y201982D01*
G01D02*
Y204654D01*
G01Y201982D02*
X114876D01*
G01X109152Y251121D02*
Y253793D01*
G01D02*
Y256465D01*
G01Y253793D02*
X114876D01*
G01X119782Y196258D02*
Y200604D01*
G01X117110D02*
X119782D01*
G01Y255132D02*
Y259478D01*
G01X117110Y255132D02*
X119782D01*
G01D02*
X122454D01*
G01X118564Y366944D02*
X123303D01*
G01Y358268D02*
Y366944D01*
G01D02*
Y375620D01*
G01Y366944D02*
X128042D01*
G01X170346Y272610D02*
Y276562D01*
G01D02*
Y280514D01*
G01X166394Y276562D02*
X170346D01*
G01D02*
X174298D01*
G01X189709Y392066D02*
X200354D01*
G01Y191421D02*
Y202066D01*
G01D02*
X210999D01*
G01X200354Y392066D02*
Y402711D01*
G01Y392066D02*
X210999D01*
G01X216552Y197066D02*
X220354D01*
G01X216552Y207066D02*
X220354D01*
G01X216552Y387066D02*
X220354D01*
G01X216552Y397066D02*
X220354D01*
G01Y193264D02*
Y197066D01*
G01D02*
Y200868D01*
G01Y197066D02*
X224156D01*
G01X220354Y203264D02*
Y207066D01*
G01D02*
Y210868D01*
G01Y207066D02*
X224156D01*
G01X220354Y383264D02*
Y387066D01*
G01D02*
Y390868D01*
G01Y387066D02*
X224156D01*
G01X220354Y393264D02*
Y397066D01*
G01D02*
Y400868D01*
G01Y397066D02*
X224156D01*
G01X440354D02*
Y400868D01*
G01Y397066D02*
X444156D01*
G01X449709Y214566D02*
X460354D01*
G01X449709Y379566D02*
X460354D01*
G01Y203921D02*
Y214566D01*
G01D02*
X470999D01*
G01X460354Y379566D02*
Y390211D01*
G01Y379566D02*
X470999D01*
G01X476172Y290506D02*
Y293277D01*
G01D02*
Y296048D01*
G01X471039Y293277D02*
X476172D01*
G01Y314916D02*
Y317687D01*
G01D02*
Y320458D01*
G01X471039Y317687D02*
X476172D01*
G54D19*
X147354Y268058D03*
Y330066D03*
G54D29*
G01X248610Y258380D02*
X249240Y259010D01*
Y267629D01*
X236860Y280009D01*
Y302241D01*
X263419Y328800D01*
X291060D01*
X292590Y330330D01*
G01X247780Y259380D02*
X248640Y260240D01*
Y267380D01*
X236260Y279760D01*
Y302490D01*
X263180Y329410D01*
X290230D01*
X292180Y331360D01*
X293120D01*
G01X248030Y259440D02*
X247970Y259380D01*
X247780D01*
G01X268280Y335000D02*
Y336140D01*
X267600Y336820D01*
X256060D01*
X255180Y335940D01*
G01X261541Y335920D02*
X261841Y336220D01*
X266810D01*
X267410Y335620D01*
Y334220D01*
X268180Y333450D01*
M02*
