G04 ================== begin FILE IDENTIFICATION RECORD ==================*
G04 Layout Name:  BEAGLEV-AHEAD V11_no_logo.brd*
G04 Film Name:    art09*
G04 File Format:  Gerber RS274X*
G04 File Origin:  Cadence Allegro 17.4-S035*
G04 Origin Date:  Wed Jul 12 11:35:01 2023*
G04 *
G04 Layer:  VIA CLASS/L9_GND*
G04 Layer:  PIN/L9_GND*
G04 Layer:  ETCH/L9_GND*
G04 *
G04 Offset:    (0.00 0.00)*
G04 Mirror:    No*
G04 Mode:      Positive*
G04 Rotation:  0*
G04 FullContactRelief:  No*
G04 UndefLineWidth:     5.00*
G04 ================== end FILE IDENTIFICATION RECORD ====================*
%FSLAX25Y25*MOIN*%
%IR0*IPPOS*OFA0.00000B0.00000*MIA0B0*SFA1.00000B1.00000*%
%ADD22C,.06*%
%ADD24C,.075*%
%ADD23R,.06X.06*%
%ADD10C,.02362*%
%ADD13C,.04724*%
%ADD25R,.075X.075*%
%ADD12C,.07087*%
%ADD20C,.06299*%
%ADD17O,.15748X.07874*%
%ADD16O,.07874X.15748*%
%ADD19C,.1063*%
%ADD15C,.008*%
%ADD18C,.12795*%
%ADD14O,.0374X.07087*%
%ADD11O,.09843X.0374*%
%ADD21C,.19685*%
%ADD26O,.08661X.03937*%
%ADD27C,.02*%
%ADD28C,.003*%
%ADD38C,.01404*%
%ADD34C,.01604*%
%ADD33C,.06006*%
%ADD35C,.07204*%
%ADD40C,.07502*%
%ADD37C,.09104*%
%ADD36C,.07604*%
%ADD42C,.07902*%
%ADD41C,.0869*%
%ADD29O,.09478X.17352*%
%ADD30O,.09078X.16952*%
%ADD32C,.1504*%
%ADD39C,.12234*%
%ADD31C,.14872*%
G75*
%LPD*%
G75*
G36*
G01X103985Y251762D02*
X104366Y251941D01*
X104480Y251926D01*
X104525Y251889D01*
G03X106100Y251322I1575J1904D01*
G01X112204D01*
G03X112782Y251390I2J2471D01*
G01X112848Y251406D01*
X112970Y251352D01*
X113192Y250958D01*
G02X113158Y250718I-175J-98D01*
G01X106469Y244029D01*
G03X106410Y243887I141J-142D01*
G01Y209333D01*
G03X106469Y209191I200J0D01*
G01X110101Y205559D01*
G03X110243Y205500I142J141D01*
G01X112807D01*
G02X112949Y205441I0J-200D01*
G01X114201Y204189D01*
G03X114343Y204130I142J141D01*
G01X117305D01*
G02X117479Y204029I0J-200D01*
G01X117678Y203681D01*
X117677Y203574D01*
X117650Y203528D01*
G03X117310Y202278I2132J-1251D01*
G01Y198930D01*
G03X121037Y196801I2472J0D01*
G01X121084Y196829D01*
X121191D01*
X121539Y196630D01*
G02X121640Y196457I-99J-174D01*
G01Y185313D01*
G03X121699Y185171I200J0D01*
G01X125791Y181079D01*
G03X125933Y181020I142J141D01*
G01X186707D01*
G03X186849Y181079I0J200D01*
G01X189491Y183721D01*
G03X189550Y183863I-141J142D01*
G01Y199009D01*
G02X189722Y199207I200J0D01*
G01X190188Y199274D01*
X190312Y199194D01*
X190334Y199121D01*
G03X200354Y191622I10020J2945D01*
G03X210798Y202066I0J10444D01*
G03X210691Y203560I-10444J3D01*
G01X210684Y203608D01*
X210713Y203696D01*
X210747Y203730D01*
G02X211030I142J-141D01*
G01X211381Y203379D01*
G02X211440Y203237I-141J-142D01*
G01Y184083D01*
G03X211499Y183941I200J0D01*
G01X214361Y181079D01*
G03X214503Y181020I142J141D01*
G01X439007D01*
G03X439149Y181079I0J200D01*
G01X440691Y182621D01*
G02X440833Y182680I142J-141D01*
G01X443687D01*
G03X443829Y182739I0J200D01*
G01X449101Y188011D01*
G03X449160Y188153I-141J142D01*
G01Y218427D01*
G02X449219Y218569I200J0D01*
G01X450396Y219746D01*
G02X450655Y219767I142J-141D01*
G01X451035Y219491D01*
X451069Y219349D01*
X451036Y219283D01*
G03X449910Y214566I9317J-4717D01*
G03X470798I10444J0D01*
G03X464520Y224143I-10444J0D01*
G01X464454Y224172D01*
X464389Y224297D01*
X464483Y224751D01*
G02X464679Y224910I196J-41D01*
G01X480777D01*
G02X480919Y224851I0J-200D01*
G01X481361Y224409D01*
G02X481420Y224267I-141J-142D01*
G01Y223377D01*
G02X481413Y223324I-200J-1D01*
G01X481242Y222707D01*
G03X481239Y222693I194J-49D01*
G01X480430Y218710D01*
X479574Y214540D01*
G02X479562Y214501I-196J39D01*
G01X477391Y209512D01*
G02X477389Y209508I-180J87D01*
G01X474946Y204203D01*
G02X474932Y204178I-181J85D01*
G01X470059Y196734D01*
G02X470039Y196708I-168J109D01*
G01X465657Y191968D01*
G02X465642Y191953I-149J134D01*
G01X461443Y188282D01*
G02X461415Y188261I-133J149D01*
G01X454569Y184145D01*
G02X454551Y184136I-98J174D01*
G01X449477Y181768D01*
G02X449442Y181755I-87J180D01*
G01X443195Y180161D01*
G03X443185Y180158I52J-193D01*
G01X440459Y179296D01*
G02X440420Y179288I-59J191D01*
G01X437600Y178980D01*
X435154Y178710D01*
X435146D01*
X433913Y178620D01*
X433907D01*
X433151Y178590D01*
X433149D01*
X432523Y178570D01*
X127886D01*
X127874D01*
X127202Y178610D01*
X127198D01*
X125725Y178720D01*
G02X125715Y178721I15J199D01*
G01X124282Y178900D01*
X124278D01*
X123656Y178968D01*
G02X123624Y178974I21J199D01*
G01X123143Y179109D01*
G02X123137Y179111I60J191D01*
G01X122170Y179410D01*
X119727Y180158D01*
G02X119713Y180163I60J191D01*
G01X117716Y180944D01*
G02X117686Y180959I74J185D01*
G01X116386Y181736D01*
G03X116373Y181743I-101J-172D01*
G01X115587Y182136D01*
G02X115573Y182144I92J178D01*
G01X114928Y182535D01*
G02X114912Y182546I105J170D01*
G01X111899Y184784D01*
G02X111882Y184797I113J165D01*
G01X111132Y185492D01*
G02X111117Y185508I138J144D01*
G01X109226Y187703D01*
G02X109214Y187718I150J132D01*
G01X107217Y190560D01*
G02X107204Y190581I163J116D01*
G01X106174Y192532D01*
G02X106167Y192548I179J88D01*
G01X105402Y194374D01*
G02X105398Y194386I188J69D01*
G01X104853Y195952D01*
G02X104848Y195969I189J65D01*
G01X104560Y197109D01*
Y197111D01*
X104261Y198335D01*
G02X104259Y198345I195J44D01*
G01X104191Y198706D01*
G02X104189Y198714I192J52D01*
G01X104140Y199060D01*
Y199070D01*
X104094Y199235D01*
G02X104088Y199265I193J54D01*
G01X104050Y199587D01*
G02X104146Y199782I199J23D01*
G01X104511Y200000D01*
X104629Y199996D01*
X104678Y199961D01*
G03X106100Y199510I1423J2021D01*
G01X112204D01*
G03Y204454I0J2472D01*
G01X106100D01*
G03X104525Y203886I1J-2472D01*
G01X104480Y203849D01*
X104366Y203834D01*
X103985Y204013D01*
G02X103870Y204194I85J181D01*
G01Y251581D01*
G02X103985Y251762I200J0D01*
G37*
G36*
G01X126841Y415540D02*
X432507D01*
G02X432535Y415538I0J-200D01*
G01X438526Y414671D01*
G02X438534Y414669I-44J-194D01*
G01X444887Y413512D01*
G02X444913Y413506I-32J-197D01*
G01X451024Y411535D01*
G02X451055Y411522I-62J-190D01*
G01X458356Y407727D01*
G02X458383Y407711I-88J-180D01*
G01X464315Y403341D01*
G02X464342Y403317I-119J-161D01*
G01X471564Y395657D01*
G02X471592Y395620I-145J-139D01*
G01X476963Y386292D01*
G02X476975Y386268I-172J-101D01*
G01X479674Y379694D01*
G02X479684Y379666I-183J-81D01*
G01X481189Y373546D01*
G02X481191Y373534I-196J-39D01*
G01X481519Y371766D01*
G02X481521Y371754I-196J-39D01*
G01X481670Y370562D01*
Y370558D01*
X481690Y370370D01*
X481700Y370340D01*
X481710Y370300D01*
Y370013D01*
G02X481651Y369871I-200J0D01*
G01X481299Y369519D01*
G02X481157Y369460I-142J141D01*
G01X465190D01*
G02X464995Y369614I0J200D01*
G01X464890Y370062D01*
X464948Y370187D01*
X465011Y370218D01*
G03X470798Y379566I-4657J9348D01*
G03X449910I-10444J0D01*
G03X450166Y377268I10444J0D01*
G01X450181Y377202D01*
X450126Y377081D01*
X449731Y376863D01*
G02X449493Y376897I-96J175D01*
G01X448419Y377971D01*
G02X448360Y378113I141J142D01*
G01Y404047D01*
G03X448301Y404189I-200J0D01*
G01X444369Y408121D01*
G03X444227Y408180I-142J-141D01*
G01X436753D01*
G02X436611Y408239I0J200D01*
G01X431829Y413021D01*
G03X431687Y413080I-142J-141D01*
G01X213943D01*
G03X213801Y413021I0J-200D01*
G01X211329Y410549D01*
G03X211270Y410407I141J-142D01*
G01Y391163D01*
G02X211211Y391021I-200J0D01*
G01X211159Y390969D01*
G02X211017Y390910I-142J141D01*
G01X210955D01*
G02X210755Y391110I0J200D01*
G01Y391119D01*
X210756Y391128D01*
G03X210798Y392066I-10402J936D01*
G03X189910I-10444J0D01*
G03X189935Y391338I10444J-6D01*
G01X189938Y391296D01*
X189911Y391218D01*
X189683Y390974D01*
G02X189536Y390910I-147J136D01*
G01X189463D01*
G02X189321Y390969I0J200D01*
G01X189149Y391141D01*
G02X189090Y391283I141J142D01*
G01Y410437D01*
G03X189031Y410579I-200J0D01*
G01X186589Y413021D01*
G03X186447Y413080I-142J-141D01*
G01X122803D01*
G03X122661Y413021I0J-200D01*
G01X122038Y412398D01*
G02X122022Y412383I-145J138D01*
G01X120028Y410777D01*
G03X120012Y410762I129J-153D01*
G01X119510Y410260D01*
X119389Y410238D01*
X119332Y410263D01*
G03X115463Y406426I-1192J-2667D01*
G01X115480Y406387D01*
Y405093D01*
G02X115421Y404951I-200J0D01*
G01X106539Y396069D01*
G03X106480Y395927I141J-142D01*
G01Y363993D01*
G03X106539Y363851I200J0D01*
G01X113441Y356949D01*
G02X113500Y356807I-141J-142D01*
G01Y332533D01*
G02X113441Y332391I-200J0D01*
G01X106549Y325499D01*
G03X106490Y325357I141J-142D01*
G01Y268233D01*
G03X106549Y268091I200J0D01*
G01X113811Y260829D01*
G03X113953Y260770I142J141D01*
G01X121397D01*
G02X121539Y260711I0J-200D01*
G01X123681Y258569D01*
G02X123740Y258427I-141J-142D01*
G01Y254893D01*
G02X123681Y254751I-200J0D01*
G01X122595Y253665D01*
G02X122377Y253621I-142J141D01*
G01X122320Y253645D01*
X122254Y253745D01*
Y256806D01*
G03X117310I-2472J0D01*
G01Y253458D01*
G03X117658Y252195I2472J2D01*
G01X117686Y252148D01*
X117687Y252041D01*
X117488Y251691D01*
G02X117314Y251590I-174J99D01*
G01X114438D01*
G02X114258Y251704I1J200D01*
G01X114077Y252082D01*
X114091Y252196D01*
X114127Y252241D01*
G03X112204Y256264I-1924J1552D01*
G01X106100D01*
G03X104525Y255697I0J-2471D01*
G01X104480Y255660D01*
X104366Y255645D01*
X103985Y255824D01*
G02X103870Y256005I85J181D01*
G01Y392407D01*
G02X103929Y392549I200J0D01*
G01X103960Y392580D01*
Y392620D01*
X103970Y392630D01*
X104000Y392703D01*
Y392730D01*
X104159Y394127D01*
G02X104163Y394152I199J-19D01*
G01X104660Y396168D01*
Y396172D01*
X105067Y397968D01*
G02X105074Y397992I195J-44D01*
G01X106488Y401865D01*
G02X106492Y401875I188J-69D01*
G01X106703Y402374D01*
G02X106720Y402405I183J-80D01*
G01X109460Y406604D01*
G02X109483Y406634I169J-106D01*
G01X111401Y408631D01*
G02X111420Y408648I143J-140D01*
G01X112729Y409709D01*
G02X112731Y409711I142J-140D01*
G01X115327Y411779D01*
G02X115355Y411798I126J-155D01*
G01X117474Y412967D01*
G02X117486Y412973I95J-176D01*
G01X119537Y413934D01*
G02X119564Y413944I83J-182D01*
G01X122062Y414708D01*
G02X122078Y414712I57J-192D01*
G01X123479Y415020D01*
X123481D01*
X125071Y415348D01*
G02X125089Y415351I42J-196D01*
G01X126819Y415539D01*
G02X126841Y415540I20J-199D01*
G37*
G36*
G01X217633Y410300D02*
X430457D01*
G02X430599Y410241I0J-200D01*
G01X435411Y405429D01*
G03X435553Y405370I142J141D01*
G01X442937D01*
G02X443079Y405311I0J-200D01*
G01X445311Y403079D01*
G02X445370Y402937I-141J-142D01*
G01Y372303D01*
G03X445429Y372161I200J0D01*
G01X453341Y364249D01*
G03X453483Y364190I142J141D01*
G01X480237D01*
G02X480379Y364131I0J-200D01*
G01X481651Y362859D01*
G02X481710Y362717I-141J-142D01*
G01Y229963D01*
G02X481651Y229821I-200J0D01*
G01X481129Y229299D01*
G02X480987Y229240I-142J141D01*
G01X453403D01*
G03X453261Y229181I0J-200D01*
G01X445349Y221269D01*
G03X445290Y221127I141J-142D01*
G01Y189083D01*
G02X445231Y188941I-200J0D01*
G01X443449Y187159D01*
G02X443307Y187100I-142J141D01*
G01X441063D01*
G03X440921Y187041I0J-200D01*
G01X437769Y183889D01*
G02X437627Y183830I-142J141D01*
G01X217873D01*
G02X217731Y183889I0J200D01*
G01X215459Y186161D01*
G02X215400Y186303I141J142D01*
G01Y209807D01*
G03X215341Y209949I-200J0D01*
G01X208549Y216741D01*
G03X208407Y216800I-142J-141D01*
G01X192293D01*
G03X192151Y216741I0J-200D01*
G01X185429Y210019D01*
G03X185370Y209877I141J-142D01*
G01Y186493D01*
G02X185311Y186351I-200J0D01*
G01X182849Y183889D01*
G02X182707Y183830I-142J141D01*
G01X131723D01*
G02X131581Y183889I0J200D01*
G01X131220Y184250D01*
X131190Y184323D01*
Y184360D01*
X131189Y184361D01*
G02X131130Y184503I141J142D01*
G01Y201957D01*
G03X131071Y202099I-200J0D01*
G01X117679Y215491D01*
G02X117620Y215633I141J142D01*
G01Y245387D01*
G02X117679Y245529I200J0D01*
G01X118581Y246431D01*
G02X118723Y246490I142J-141D01*
G01X122587D01*
G03X122729Y246549I0J200D01*
G01X128781Y252601D01*
G03X128840Y252743I-141J142D01*
G01Y264037D01*
G03X128781Y264179I-200J0D01*
G01X124479Y268481D01*
G03X124337Y268540I-142J-141D01*
G01X121883D01*
G02X121691Y268685I0J200D01*
G01X121566Y269119D01*
X121613Y269243D01*
X121670Y269279D01*
G03X123707Y272960I-2307J3681D01*
G03X115017I-4345J0D01*
G03X117054Y269279I4344J0D01*
G01X117111Y269243D01*
X117158Y269119D01*
X117033Y268685D01*
G02X116841Y268540I-192J55D01*
G01X115573D01*
G02X115431Y268599I0J200D01*
G01X112859Y271171D01*
G02X112800Y271313I141J142D01*
G01Y324167D01*
G02X112859Y324309I200J0D01*
G01X114347Y325797D01*
G02X114572Y325838I142J-141D01*
G01X114970Y325655D01*
X115034Y325548D01*
X115029Y325485D01*
G03X115017Y325164I4333J-323D01*
G03X119362Y329509I4345J0D01*
G03X119041Y329497I2J-4345D01*
G01X118978Y329492D01*
X118871Y329556D01*
X118688Y329954D01*
G02X118729Y330179I182J83D01*
G01X119041Y330491D01*
G03X119100Y330633I-141J142D01*
G01Y358027D01*
G03X119041Y358169I-200J0D01*
G01X109399Y367811D01*
G02X109340Y367953I141J142D01*
G01Y394597D01*
G02X109399Y394739I200J0D01*
G01X114543Y399883D01*
G02X114761Y399926I141J-142D01*
G01X115159Y399761D01*
X115225Y399662D01*
X115226Y399600D01*
G03X118144Y402518I2914J4D01*
G01X118082Y402519D01*
X117983Y402585D01*
X117818Y402983D01*
G02X117861Y403201I185J77D01*
G01X120019Y405359D01*
X120025Y405364D01*
G03X120372Y405711I-1885J2232D01*
G02X120383Y405723I153J-129D01*
G01X124901Y410241D01*
G02X125043Y410300I142J-141D01*
G01X184577D01*
G02X184719Y410241I0J-200D01*
G01X185091Y409869D01*
G02X185150Y409727I-141J-142D01*
G01Y383133D01*
G03X185209Y382991I200J0D01*
G01X189661Y378539D01*
G03X189803Y378480I142J141D01*
G01X192647D01*
G02X192789Y378421I0J-200D01*
G01X194011Y377199D01*
G03X194153Y377140I142J141D01*
G01X206807D01*
G03X206949Y377199I0J200D01*
G01X215191Y385441D01*
G03X215250Y385583I-141J142D01*
G01Y407917D01*
G02X215309Y408059I200J0D01*
G01X217491Y410241D01*
G02X217633Y410300I142J-141D01*
G37*
%LPC*%
G75*
G36*
G01X216752Y394066D02*
Y400066D01*
G02X217354Y400668I602J0D01*
G01X223354D01*
G02X223956Y400066I0J-602D01*
G01Y394066D01*
G02X223354Y393464I-602J0D01*
G01X217354D01*
G02X216752Y394066I0J602D01*
G37*
G36*
G01X131366Y389804D02*
X139240D01*
G02Y380328I0J-4738D01*
G01X131366D01*
G02Y389804I0J4738D01*
G37*
G36*
G01X473810Y320257D02*
X478534D01*
G02Y315117I0J-2570D01*
G01X473810D01*
G02Y320257I0J2570D01*
G37*
G36*
G01Y295847D02*
X478534D01*
G02Y290707I0J-2570D01*
G01X473810D01*
G02Y295847I0J2570D01*
G37*
G36*
G01X356002Y220040D02*
Y227540D01*
G02X356604Y228142I602J0D01*
G01X364104D01*
G02X364706Y227540I0J-602D01*
G01Y220040D01*
G02X364104Y219438I-602J0D01*
G01X356604D01*
G02X356002Y220040I0J602D01*
G37*
G36*
G01X216752Y204066D02*
Y210066D01*
G02X217354Y210668I602J0D01*
G01X223354D01*
G02X223956Y210066I0J-602D01*
G01Y204066D01*
G02X223354Y203464I-602J0D01*
G01X217354D01*
G02X216752Y204066I0J602D01*
G37*
G36*
G01X266469Y277608D02*
X266467D01*
G02Y279188I1J790D01*
G01X266469D01*
G02Y277608I0J-790D01*
G37*
G36*
G01X259235Y232670D02*
G02X259342Y232270I-694J-400D01*
G02X257738I-802J0D01*
G02X257845Y232670I801J0D01*
G03Y232870I-173J100D01*
G02X257738Y233270I694J400D01*
G02X259342I802J0D01*
G02X259235Y232870I-801J0D01*
G03Y232670I173J-100D01*
G37*
G36*
G01X254575Y233670D02*
G02X254682Y233270I-694J-400D01*
G02X253078I-802J0D01*
G02X253185Y233670I801J0D01*
G03Y233870I-173J100D01*
G02X253078Y234270I694J400D01*
G02X254682I802J0D01*
G02X254575Y233870I-801J0D01*
G03Y233670I173J-100D01*
G37*
G36*
G01X246075Y234280D02*
G02X246182Y233880I-694J-400D01*
G02X244578I-802J0D01*
G02X244685Y234280I801J0D01*
G03Y234480I-173J100D01*
G02X244578Y234880I694J400D01*
G02X246182I802J0D01*
G02X246075Y234480I-801J0D01*
G03Y234280I173J-100D01*
G37*
G36*
G01X264885Y236580D02*
G02X264992Y236180I-694J-400D01*
G02X263388I-802J0D01*
G02X263495Y236580I801J0D01*
G03Y236780I-173J100D01*
G02X263388Y237180I694J400D01*
G02X264992I802J0D01*
G02X264885Y236780I-801J0D01*
G03Y236580I173J-100D01*
G37*
G36*
G01X156194Y240310D02*
G02X156118Y240650I726J341D01*
G02X156204Y241012I802J1D01*
G03X156198Y241204I-178J91D01*
G02X156088Y241610I692J405D01*
G02X156890Y242412I802J0D01*
G02X157692Y241616I0J-802D01*
G01Y241582D01*
X157714Y241519D01*
X157909Y241273D01*
X157965Y241238D01*
X157998Y241230D01*
G02X158612Y240450I-188J-780D01*
G02X158583Y240236I-802J0D01*
G03X158609Y240072I193J-54D01*
G02X158742Y239630I-668J-442D01*
G02X158676Y239311I-802J0D01*
G03X158680Y239143I183J-80D01*
G02X158762Y238790I-719J-353D01*
G02X158723Y238542I-802J-1D01*
G03X158741Y238378I190J-62D01*
G02X158852Y237970I-691J-407D01*
G02X158050Y237168I-802J0D01*
G02X157582Y237319I0J801D01*
G03X157360Y237327I-117J-162D01*
G02X156940Y237208I-420J682D01*
G02X156138Y238010I0J802D01*
G02X156222Y238366I802J-1D01*
G03X156220Y238548I-179J89D01*
G02X156128Y238920I710J373D01*
G02X156206Y239264I802J-1D01*
G03X156204Y239440I-181J86D01*
G02X156118Y239800I716J361D01*
G02X156194Y240140I802J-1D01*
G03Y240310I-181J85D01*
G37*
G36*
G01X316187Y241985D02*
Y242235D01*
G03X316143Y242360I-200J0D01*
G02X315968Y242860I627J500D01*
G02X316770Y243662I802J0D01*
G02X317242Y243509I1J-802D01*
G03X317359Y243470I119J161D01*
G01X317481D01*
G03X317598Y243509I-2J200D01*
G02X318070Y243662I471J-649D01*
G02X318872Y242860I0J-802D01*
G02X318697Y242360I-802J0D01*
G03X318653Y242235I156J-125D01*
G01Y241985D01*
G03X318697Y241860I200J0D01*
G02X318872Y241360I-627J-500D01*
G02X318070Y240558I-802J0D01*
G02X317598Y240711I-1J802D01*
G03X317481Y240750I-119J-161D01*
G01X317359D01*
G03X317242Y240711I2J-200D01*
G02X316770Y240558I-471J649D01*
G02X315968Y241360I0J802D01*
G02X316143Y241860I802J0D01*
G03X316187Y241985I-156J125D01*
G37*
G36*
G01X170985Y242424D02*
X170987Y242545D01*
G03X170952Y242662I-200J4D01*
G02X170808Y243120I658J458D01*
G02X171610Y243922I802J0D01*
G02X172128Y243733I1J-802D01*
G03X172255Y243685I130J152D01*
G01X172383Y243684D01*
G03X172511Y243730I0J200D01*
G02X173020Y243912I509J-621D01*
G02X173822Y243110I0J-802D01*
G02X173678Y242652I-802J0D01*
G03X173643Y242535I165J-113D01*
G01X173645Y242414D01*
G03X173684Y242298I200J3D01*
G02X173842Y241820I-644J-478D01*
G02X173040Y241018I-802J0D01*
G02X172552Y241184I1J802D01*
G01X172526Y241204D01*
X172465Y241225D01*
X172157Y241227D01*
X172096Y241207D01*
X172069Y241187D01*
G02X171590Y241028I-479J642D01*
G02X170788Y241830I0J802D01*
G02X170946Y242308I802J0D01*
G03X170985Y242424I-161J119D01*
G37*
G36*
G01X264885Y243000D02*
G02X264992Y242600I-694J-400D01*
G02X263388I-802J0D01*
G02X263495Y243000I801J0D01*
G03Y243200I-173J100D01*
G02X263388Y243600I694J400D01*
G02X264992I802J0D01*
G02X264885Y243200I-801J0D01*
G03Y243000I173J-100D01*
G37*
G36*
G01X264935Y249180D02*
G02X265042Y248780I-694J-400D01*
G02X263438I-802J0D01*
G02X263545Y249180I801J0D01*
G03Y249380I-173J100D01*
G02X263438Y249780I694J400D01*
G02X265042I802J0D01*
G02X264935Y249380I-801J0D01*
G03Y249180I173J-100D01*
G37*
G36*
G01X257745Y251250D02*
G02X257852Y250850I-694J-400D01*
G02X256248I-802J0D01*
G02X256355Y251250I801J0D01*
G03Y251450I-173J100D01*
G02X256248Y251850I694J400D01*
G02X257852I802J0D01*
G02X257745Y251450I-801J0D01*
G03Y251250I173J-100D01*
G37*
G36*
G01X336510Y250632D02*
G02X336160Y250538I-351J608D01*
G02X335458Y251240I0J702D01*
G02X335576Y251629I702J-1D01*
G03Y251851I-167J111D01*
G02X335458Y252240I584J390D01*
G02X336160Y252942I702J0D01*
G02X336510Y252848I-1J-702D01*
G03X336710I100J174D01*
G02X337060Y252942I351J-608D01*
G02X337762Y252240I0J-702D01*
G02X337644Y251851I-702J1D01*
G03Y251629I167J-111D01*
G02X337762Y251240I-584J-390D01*
G02X337060Y250538I-702J0D01*
G02X336710Y250632I1J702D01*
G03X336510I-100J-174D01*
G37*
G36*
G01X265285Y255160D02*
G02X265392Y254760I-694J-400D01*
G02X263788I-802J0D01*
G02X263895Y255160I801J0D01*
G03Y255360I-173J100D01*
G02X263788Y255760I694J400D01*
G02X265392I802J0D01*
G02X265285Y255360I-801J0D01*
G03Y255160I173J-100D01*
G37*
G36*
G01X306115Y255183D02*
G02X305726Y255065I-390J584D01*
G02X305024Y255767I0J702D01*
G02X305142Y256156I702J-1D01*
G03Y256378I-167J111D01*
G02X305024Y256767I584J390D01*
G02X305726Y257469I702J0D01*
G02X306115Y257351I-1J-702D01*
G03X306337I111J167D01*
G02X306726Y257469I390J-584D01*
G02X307428Y256767I0J-702D01*
G02X307310Y256378I-702J1D01*
G03Y256156I167J-111D01*
G02X307428Y255767I-584J-390D01*
G02X306726Y255065I-702J0D01*
G02X306337Y255183I1J702D01*
G03X306115I-111J-167D01*
G37*
G36*
G01X257725Y256470D02*
G02X257832Y256070I-694J-400D01*
G02X256228I-802J0D01*
G02X256335Y256470I801J0D01*
G03Y256670I-173J100D01*
G02X256228Y257070I694J400D01*
G02X257832I802J0D01*
G02X257725Y256670I-801J0D01*
G03Y256470I173J-100D01*
G37*
G36*
G01X450165Y256132D02*
G02X449770Y256028I-395J698D01*
G02X448968Y256830I0J802D01*
G02X449037Y257155I802J0D01*
G03X449013Y257358I-183J81D01*
G02X448848Y257845I636J487D01*
G02X449650Y258647I802J0D01*
G02X450146Y258475I0J-801D01*
G03X450261Y258433I123J158D01*
G01X450381Y258428D01*
G03X450500Y258460I10J200D01*
G02X450940Y258592I441J-670D01*
G02X451742Y257790I0J-802D01*
G02X451640Y257398I-802J-1D01*
G03X451646Y257192I174J-98D01*
G02X451772Y256760I-676J-432D01*
G02X450970Y255958I-802J0D01*
G02X450496Y256113I0J802D01*
G03X450390Y256151I-118J-162D01*
G01X450275Y256158D01*
G03X450165Y256132I-11J-200D01*
G37*
G36*
G01X426787Y258631D02*
X426785Y258747D01*
G03X426749Y258855I-200J-7D01*
G02X426608Y259310I661J454D01*
G02X427410Y260112I802J0D01*
G02X427866Y259970I0J-803D01*
G03X428073Y259958I113J165D01*
G02X428450Y260052I377J-709D01*
G02X429252Y259250I0J-802D01*
G02X429112Y258797I-803J0D01*
G03X429077Y258690I165J-113D01*
G01X429073Y258576D01*
G03X429101Y258468I200J-6D01*
G02X429212Y258060I-691J-407D01*
G02X428410Y257258I-802J0D01*
G02X427993Y257375I0J802D01*
G03X427799Y257383I-104J-171D01*
G02X427440Y257298I-359J716D01*
G02X426638Y258100I0J802D01*
G02X426758Y258521I802J-1D01*
G03X426787Y258631I-171J104D01*
G37*
G36*
G01X302404Y262478D02*
G02X302290Y262890I687J412D01*
G02X302397Y263290I801J0D01*
G03Y263490I-173J100D01*
G02X302290Y263890I694J400D01*
G02X303092Y264692I802J0D01*
G02X303553Y264546I0J-801D01*
G03X303653Y264510I115J164D01*
G01X303763Y264502D01*
G03X303865Y264521I16J199D01*
G02X304172Y264592I308J-631D01*
G02X304874Y263890I0J-702D01*
G02X304756Y263501I-702J1D01*
G03Y263279I167J-111D01*
G02X304874Y262890I-584J-390D01*
G02X304779Y262537I-703J0D01*
G03X304776Y262339I172J-102D01*
G02X304864Y262000I-614J-340D01*
G02X304746Y261611I-702J1D01*
G03Y261389I167J-111D01*
G02X304864Y261000I-584J-390D01*
G02X304162Y260298I-702J0D01*
G02X303847Y260373I1J702D01*
G03X303638Y260355I-90J-179D01*
G02X303162Y260198I-477J645D01*
G02X302360Y261000I0J802D01*
G02X302467Y261400I801J0D01*
G03Y261600I-173J100D01*
G02X302360Y262000I694J400D01*
G02X302418Y262300I802J1D01*
G03X302404Y262478I-185J75D01*
G37*
G36*
G01X310809Y263700D02*
G02X310691Y264089I584J390D01*
G02X311393Y264791I702J0D01*
G02X311782Y264673I-1J-702D01*
G03X312004I111J167D01*
G02X312393Y264791I390J-584D01*
G02X312782Y264673I-1J-702D01*
G03X313004I111J167D01*
G02X313393Y264791I390J-584D01*
G02X314095Y264089I0J-702D01*
G02X313977Y263700I-702J1D01*
G03Y263478I167J-111D01*
G02X314095Y263089I-584J-390D01*
G02X313977Y262700I-702J1D01*
G03Y262478I167J-111D01*
G02X314095Y262089I-584J-390D01*
G02X313977Y261700I-702J1D01*
G03Y261478I167J-111D01*
G02X314095Y261089I-584J-390D01*
G02X313393Y260387I-702J0D01*
G02X313004Y260505I1J702D01*
G03X312782I-111J-167D01*
G02X312393Y260387I-390J584D01*
G02X312004Y260505I1J702D01*
G03X311782I-111J-167D01*
G02X311393Y260387I-390J584D01*
G02X310691Y261089I0J702D01*
G02X310809Y261478I702J-1D01*
G03Y261700I-167J111D01*
G02X310691Y262089I584J390D01*
G02X310809Y262478I702J-1D01*
G03Y262700I-167J111D01*
G02X310691Y263089I584J390D01*
G02X310809Y263478I702J-1D01*
G03Y263700I-167J111D01*
G37*
G36*
G01X457259Y265769D02*
X457261Y265890D01*
G03X457224Y266008I-200J2D01*
G02X457078Y266470I656J461D01*
G02X457880Y267272I802J0D01*
G02X458313Y267145I0J-802D01*
G03X458419Y267114I107J169D01*
G01X458532Y267113D01*
G03X458639Y267142I3J200D01*
G02X459060Y267262I422J-682D01*
G02X459862Y266460I0J-802D01*
G02X459710Y265991I-802J1D01*
G03X459673Y265875I163J-116D01*
G01X459672Y265755D01*
G03X459708Y265639I200J-2D01*
G02X459852Y265180I-658J-459D01*
G02X459050Y264378I-802J0D01*
G02X458625Y264500I0J801D01*
G03X458517Y264530I-105J-170D01*
G01X458403Y264529D01*
G03X458296Y264497I2J-200D01*
G02X457860Y264368I-436J672D01*
G02X457058Y265170I0J802D01*
G02X457219Y265652I802J0D01*
G03X457259Y265769I-160J120D01*
G37*
G36*
G01X217013Y276846D02*
G02X217142Y276410I-672J-436D01*
G02X215538I-802J0D01*
G02X215683Y276870I802J0D01*
G03X215687Y277094I-164J115D01*
G02X215558Y277530I672J436D01*
G02X217162I802J0D01*
G02X217017Y277070I-802J0D01*
G03X217013Y276846I164J-115D01*
G37*
G36*
G01X459529Y279853D02*
X459523Y279965D01*
G03X459488Y280067I-200J-12D01*
G02X459348Y280520I663J453D01*
G02X460150Y281322I802J0D01*
G02X460602Y281182I-1J-802D01*
G03X460808Y281170I113J165D01*
G02X461180Y281262I373J-710D01*
G02X461982Y280460I0J-802D01*
G02X461888Y280083I-803J0D01*
G03X461896Y279882I177J-94D01*
G02X462022Y279450I-676J-432D01*
G02X461220Y278648I-802J0D01*
G02X460873Y278727I0J802D01*
G03X460672Y278710I-86J-180D01*
G02X460210Y278564I-461J656D01*
G02X459408Y279366I0J802D01*
G02X459505Y279748I801J0D01*
G03X459529Y279853I-176J95D01*
G37*
G36*
G01X366146Y286351D02*
G02X366535Y286469I390J-584D01*
G02X366924Y286351I-1J-702D01*
G03X367146I111J167D01*
G02X367535Y286469I390J-584D01*
G02X367850Y286394I-1J-702D01*
G03X368059Y286412I90J179D01*
G02X368535Y286569I477J-645D01*
G02X369337Y285767I0J-802D01*
G02X369230Y285367I-801J0D01*
G03Y285167I173J-100D01*
G02Y284367I-694J-400D01*
G03Y284167I173J-100D01*
G02X369337Y283767I-694J-400D01*
G02X368535Y282965I-802J0D01*
G02X368059Y283122I1J802D01*
G03X367850Y283140I-119J-161D01*
G02X367535Y283065I-316J627D01*
G02X367146Y283183I1J702D01*
G03X366924I-111J-167D01*
G02X366535Y283065I-390J584D01*
G02X366146Y283183I1J702D01*
G03X365924I-111J-167D01*
G02X365535Y283065I-390J584D01*
G02X364833Y283767I0J702D01*
G02X364951Y284156I702J-1D01*
G03Y284378I-167J111D01*
G02X364833Y284767I584J390D01*
G02X364951Y285156I702J-1D01*
G03Y285378I-167J111D01*
G02X364833Y285767I584J390D01*
G02X365535Y286469I702J0D01*
G02X365924Y286351I-1J-702D01*
G03X366146I111J167D01*
G37*
G36*
G01X358490Y287491D02*
G02X358879Y287609I390J-584D01*
G02X359268Y287491I-1J-702D01*
G03X359490I111J167D01*
G02X359879Y287609I390J-584D01*
G02X360268Y287491I-1J-702D01*
G03X360490I111J167D01*
G02X360879Y287609I390J-584D01*
G02X361581Y286907I0J-702D01*
G02X361463Y286518I-702J1D01*
G03Y286296I167J-111D01*
G02X361581Y285907I-584J-390D01*
G02X361463Y285518I-702J1D01*
G03Y285296I167J-111D01*
G02X361581Y284907I-584J-390D01*
G02X360879Y284205I-702J0D01*
G02X360490Y284323I1J702D01*
G03X360268I-111J-167D01*
G02X359879Y284205I-390J584D01*
G02X359490Y284323I1J702D01*
G03X359268I-111J-167D01*
G02X358879Y284205I-390J584D01*
G02X358490Y284323I1J702D01*
G03X358268I-111J-167D01*
G02X357879Y284205I-390J584D01*
G02X357177Y284907I0J702D01*
G02X357295Y285296I702J-1D01*
G03Y285518I-167J111D01*
G02X357177Y285907I584J390D01*
G02X357295Y286296I702J-1D01*
G03Y286518I-167J111D01*
G02X357177Y286907I584J390D01*
G02X357879Y287609I702J0D01*
G02X358268Y287491I-1J-702D01*
G03X358490I111J167D01*
G37*
G36*
G01X196878Y292224D02*
G02X197012Y291780I-669J-444D01*
G02X195408I-802J0D01*
G02X195542Y292224I803J0D01*
G03Y292446I-166J111D01*
G02X195408Y292890I669J444D01*
G02X197012I802J0D01*
G02X196878Y292446I-803J0D01*
G03Y292224I166J-111D01*
G37*
G36*
G01X206542Y293445D02*
X206875Y293443D01*
X206942Y293467D01*
X206970Y293491D01*
G02X207490Y293682I520J-612D01*
G02X208006Y293494I0J-802D01*
G01X208034Y293471D01*
X208101Y293447D01*
X208435Y293451D01*
X208501Y293476D01*
X208528Y293501D01*
G02X209060Y293702I531J-601D01*
G02Y292098I0J-802D01*
G02X208544Y292286I0J802D01*
G01X208516Y292309D01*
X208449Y292333D01*
X208115Y292329D01*
X208049Y292304D01*
X208022Y292279D01*
G02X207490Y292078I-531J601D01*
G02X206962Y292276I0J803D01*
G01X206935Y292300D01*
X206868Y292325D01*
X206535Y292327D01*
X206468Y292303D01*
X206440Y292279D01*
G02X205920Y292088I-520J612D01*
G02Y293692I0J802D01*
G02X206448Y293494I0J-803D01*
G01X206475Y293470D01*
X206542Y293445D01*
G37*
G36*
G01X458259Y292606D02*
G02X457840Y292488I-419J685D01*
G02X457038Y293290I0J802D01*
G02X457140Y293681I802J0D01*
G03X457144Y293869I-175J98D01*
G02X457058Y294230I715J361D01*
G02X457860Y295032I802J0D01*
G02X458205Y294954I0J-802D01*
G03X458389Y294960I86J181D01*
G02X458780Y295062I391J-700D01*
G02X459582Y294260I0J-802D01*
G02X459484Y293876I-801J0D01*
G03X459478Y293696I176J-96D01*
G02X459552Y293360I-728J-336D01*
G02X458750Y292558I-802J0D01*
G02X458441Y292620I0J801D01*
G03X458259Y292606I-77J-184D01*
G37*
G36*
G01X393731Y295759D02*
X393728Y295887D01*
G03X393682Y296010I-200J-5D01*
G02X393518Y296461I538J451D01*
G02X394220Y297163I702J0D01*
G02X394580Y297063I-1J-702D01*
G03X394681Y297035I102J172D01*
G01X394791Y297034D01*
G03X394892Y297060I2J200D01*
G02X395238Y297151I346J-612D01*
G02X395940Y296449I0J-702D01*
G02X395797Y296024I-703J0D01*
G03X395756Y295898I159J-121D01*
G01X395759Y295770D01*
G03X395805Y295647I200J5D01*
G02X395969Y295196I-538J-451D01*
G02X395267Y294494I-702J0D01*
G02X394907Y294594I1J702D01*
G03X394806Y294622I-102J-172D01*
G01X394696Y294623D01*
G03X394595Y294597I-2J-200D01*
G02X394249Y294506I-346J612D01*
G02X393547Y295208I0J702D01*
G02X393690Y295633I703J0D01*
G03X393731Y295759I-159J121D01*
G37*
G36*
G01X214023Y298116D02*
G02X213851Y298613I630J496D01*
G02X214653Y299415I802J0D01*
G02X214983Y299344I0J-802D01*
G03X215167Y299353I83J182D01*
G02X215570Y299462I404J-693D01*
G02X216372Y298671I0J-802D01*
G01X216373Y298627D01*
X216410Y298548D01*
X216713Y298297D01*
X216798Y298275D01*
X216841Y298283D01*
G02X216981Y298295I138J-790D01*
G02Y296691I0J-802D01*
G02X216687Y296747I0J802D01*
G01X216654Y296760D01*
X216585Y296762D01*
X216274Y296659D01*
X216220Y296616D01*
X216201Y296586D01*
G02X215520Y296208I-681J424D01*
G02X215117Y296316I-1J802D01*
G03X214932Y296324I-100J-173D01*
G02X214590Y296248I-341J726D01*
G02X213788Y297050I0J802D01*
G02X214003Y297596I801J0D01*
G01X214027Y297622D01*
X214054Y297688D01*
X214068Y298020D01*
X214046Y298088D01*
X214023Y298116D01*
G37*
G36*
G01X329165Y305833D02*
G03X329159Y306342I-311J251D01*
G02X328969Y306860I611J518D01*
G02X330573I802J0D01*
G02X330396Y306357I-803J0D01*
G03X330402Y305848I311J-251D01*
G02X330592Y305330I-611J-518D01*
G02X328988I-802J0D01*
G02X329165Y305833I803J0D01*
G37*
G36*
G01X321162Y306564D02*
G03X321165Y307093I-298J266D01*
G02X320968Y307620I606J527D01*
G02X322572I802J0D01*
G02X322368Y307086I-801J0D01*
G03X322365Y306557I298J-266D01*
G02X322562Y306030I-606J-527D01*
G02X320958I-802J0D01*
G02X321162Y306564I801J0D01*
G37*
G36*
G01X325208Y306741D02*
G03X325228Y307257I-295J270D01*
G02X325058Y307750I632J494D01*
G02X326662I802J0D01*
G02X326452Y307209I-802J0D01*
G03X326432Y306693I295J-270D01*
G02X326602Y306200I-632J-494D01*
G02X324998I-802J0D01*
G02X325208Y306741I802J0D01*
G37*
G36*
G01X345830Y311945D02*
G02X346150Y312012I321J-735D01*
G02Y310408I0J-802D01*
G02X345830Y310475I1J802D01*
G03X345670I-80J-184D01*
G02X345350Y310408I-321J735D01*
G02Y312012I0J802D01*
G02X345670Y311945I-1J-802D01*
G03X345830I80J184D01*
G37*
G36*
G01X341835Y310675D02*
G03X341319Y310673I-257J-307D01*
G02X340800Y310482I-519J610D01*
G02Y312086I0J802D01*
G02X341315Y311899I0J-803D01*
G03X341831Y311901I257J307D01*
G02X342350Y312092I519J-610D01*
G02Y310488I0J-802D01*
G02X341835Y310675I0J803D01*
G37*
G36*
G01X213034Y312531D02*
G02X213142Y312130I-694J-402D01*
G02X211538I-802J0D01*
G02X211654Y312545I802J0D01*
G03X211656Y312749I-171J104D01*
G02X211548Y313150I694J402D01*
G02X213152I802J0D01*
G02X213036Y312735I-802J0D01*
G03X213034Y312531I171J-104D01*
G37*
G36*
G01X197132Y312627D02*
G02X197258Y312196I-676J-431D01*
G02X195654I-802J0D01*
G02X195783Y312632I801J0D01*
G03X195784Y312849I-168J109D01*
G02X195658Y313280I676J431D01*
G02X197262I802J0D01*
G02X197133Y312844I-801J0D01*
G03X197132Y312627I168J-109D01*
G37*
G36*
G01X336165Y314050D02*
G02X336232Y313730I-735J-321D01*
G02X334628I-802J0D01*
G02X334695Y314050I802J-1D01*
G03Y314210I-184J80D01*
G02X334628Y314530I735J321D01*
G02X336232I802J0D01*
G02X336165Y314210I-802J1D01*
G03Y314050I184J-80D01*
G37*
G36*
G01X332445Y314070D02*
G02X332512Y313750I-735J-321D01*
G02X330908I-802J0D01*
G02X330975Y314070I802J-1D01*
G03Y314230I-184J80D01*
G02X330908Y314550I735J321D01*
G02X332512I802J0D01*
G02X332445Y314230I-802J1D01*
G03Y314070I184J-80D01*
G37*
G36*
G01X313570Y314505D02*
G02X313656Y314816I800J-54D01*
G03X313662Y314985I-178J91D01*
G02X313598Y315300I738J314D01*
G02X315202I802J0D01*
G02X315114Y314934I-802J-1D01*
G03X315108Y314765I178J-91D01*
G02X315172Y314450I-738J-314D01*
G02X314770Y313755I-802J0D01*
G03X314670Y313595I100J-174D01*
G02X313870Y312848I-800J55D01*
G02X313068Y313650I0J802D01*
G02X313470Y314345I802J0D01*
G03X313570Y314505I-100J174D01*
G37*
G36*
G01X340495Y315060D02*
G02X340562Y314740I-735J-321D01*
G02X338958I-802J0D01*
G02X339025Y315060I802J-1D01*
G03Y315220I-184J80D01*
G02X338958Y315540I735J321D01*
G02X340562I802J0D01*
G02X340495Y315220I-802J1D01*
G03Y315060I184J-80D01*
G37*
G36*
G01X344835Y315100D02*
G02X344902Y314780I-735J-321D01*
G02X343298I-802J0D01*
G02X343365Y315100I802J-1D01*
G03Y315260I-184J80D01*
G02X343298Y315580I735J321D01*
G02X344902I802J0D01*
G02X344835Y315260I-802J1D01*
G03Y315100I184J-80D01*
G37*
G36*
G01X346535Y315940D02*
G02X346468Y316260I735J321D01*
G02X346535Y316580I802J-1D01*
G03Y316740I-184J80D01*
G02X346468Y317060I735J321D01*
G02X348072I802J0D01*
G02X348005Y316740I-802J1D01*
G03Y316580I184J-80D01*
G02X348072Y316260I-735J-321D01*
G02X348005Y315940I-802J1D01*
G03Y315780I184J-80D01*
G02X348072Y315460I-735J-321D01*
G02X346468I-802J0D01*
G02X346535Y315780I802J-1D01*
G03Y315940I-184J80D01*
G37*
G36*
G01X402991Y316719D02*
G02X402480Y316498I-511J480D01*
G02X401778Y317200I0J702D01*
G02X401885Y317572I702J0D01*
G03X401887Y317781I-170J106D01*
G02X401788Y318140I603J359D01*
G02X402490Y318842I702J0D01*
G02X402572Y318837I-2J-702D01*
G03X402750Y318908I24J199D01*
G02X403290Y319162I540J-447D01*
G02X403992Y318460I0J-702D01*
G02X403940Y318195I-701J0D01*
G03X403985Y317978I185J-75D01*
G02X404192Y317480I-496J-498D01*
G02X403490Y316778I-702J0D01*
G02X403300Y316804I-1J702D01*
G03X403192I-54J-192D01*
G01X403083Y316774D01*
G03X402991Y316719I53J-193D01*
G37*
G36*
G01X380465Y317393D02*
G02X380076Y317275I-390J584D01*
G02X379374Y317977I0J702D01*
G02X379492Y318366I702J-1D01*
G03Y318588I-167J111D01*
G02X379374Y318977I584J390D01*
G02X380076Y319679I702J0D01*
G02X380465Y319561I-1J-702D01*
G03X380687I111J167D01*
G02X381076Y319679I390J-584D01*
G02X381778Y318977I0J-702D01*
G02X381660Y318588I-702J1D01*
G03Y318366I167J-111D01*
G02X381778Y317977I-584J-390D01*
G02X381076Y317275I-702J0D01*
G02X380687Y317393I1J702D01*
G03X380465I-111J-167D01*
G37*
G36*
G01X344691Y320169D02*
G02X344972Y319560I-521J-610D01*
G02X344170Y318758I-802J0D01*
G02X343368Y319535I0J802D01*
G03X343299Y319681I-200J-5D01*
G02X343018Y320290I521J610D01*
G02X343820Y321092I802J0D01*
G02X344622Y320315I0J-802D01*
G03X344691Y320169I200J5D01*
G37*
G36*
G01X330176Y320435D02*
G02X329760Y320319I-416J686D01*
G02Y321923I0J802D01*
G02X330176Y321807I0J-802D01*
G03X330384I104J171D01*
G02X330800Y321923I416J-686D01*
G02X330881Y321919I1J-802D01*
G03X331041Y321975I20J199D01*
G02X331600Y322202I559J-575D01*
G02Y320598I0J-802D01*
G02X331519Y320602I-1J802D01*
G03X331359Y320546I-20J-199D01*
G02X330800Y320319I-559J575D01*
G02X330384Y320435I0J802D01*
G03X330176I-104J-171D01*
G37*
G36*
G01X348115Y321340D02*
G02X348182Y321020I-735J-321D01*
G02X346578I-802J0D01*
G02X346645Y321340I802J-1D01*
G03Y321500I-184J80D01*
G02X346578Y321820I735J321D01*
G02X348182I802J0D01*
G02X348115Y321500I-802J1D01*
G03Y321340I184J-80D01*
G37*
G36*
G01X217096Y323635D02*
G02X217460Y323722I363J-715D01*
G02Y322118I0J-802D01*
G02X217112Y322197I-1J802D01*
G03X216934Y322195I-87J-180D01*
G02X216570Y322108I-363J715D01*
G02Y323712I0J802D01*
G02X216918Y323633I1J-802D01*
G03X217096Y323635I87J180D01*
G37*
G36*
G01X339900Y324795D02*
G02X340220Y324862I321J-735D01*
G02Y323258I0J-802D01*
G02X339900Y323325I1J802D01*
G03X339740I-80J-184D01*
G02X339420Y323258I-321J735D01*
G02Y324862I0J802D01*
G02X339740Y324795I-1J-802D01*
G03X339900I80J184D01*
G37*
G36*
G01X343510Y324985D02*
G02X343830Y325052I321J-735D01*
G02Y323448I0J-802D01*
G02X343510Y323515I1J802D01*
G03X343350I-80J-184D01*
G02X343030Y323448I-321J735D01*
G02Y325052I0J802D01*
G02X343350Y324985I-1J-802D01*
G03X343510I80J184D01*
G37*
G36*
G01X265644Y322998D02*
G02X265468Y323500I626J501D01*
G02X265588Y323922I802J0D01*
G03X265586Y324135I-170J105D01*
G02X265458Y324570I675J435D01*
G02X266260Y325372I802J0D01*
G02X266650Y325271I0J-802D01*
G03X266864Y325283I98J174D01*
G02X267330Y325432I466J-654D01*
G02X268132Y324630I0J-802D01*
G02X268004Y324195I-803J0D01*
G03X268010Y323970I168J-108D01*
G02X268162Y323500I-651J-470D01*
G02X268026Y323054I-802J1D01*
G03X268028Y322828I166J-112D01*
G02X268172Y322370I-658J-458D01*
G02X267370Y321568I-802J0D01*
G02X266997Y321660I0J802D01*
G03X266808Y321658I-93J-177D01*
G02X266420Y321558I-388J703D01*
G02X265618Y322360I0J802D01*
G02X265686Y322683I801J0D01*
G03X265701Y322789I-183J80D01*
G01X265687Y322899D01*
G03X265644Y322998I-198J-27D01*
G37*
G36*
G01X331845Y324438D02*
G02X331440Y324328I-405J692D01*
G02X330638Y325130I0J802D01*
G02X330770Y325570I802J-1D01*
G03Y325790I-168J110D01*
G02X330638Y326230I670J441D01*
G02X331440Y327032I802J0D01*
G02X331947Y326851I0J-802D01*
G03X332109Y326809I127J155D01*
G02X332250Y326822I144J-789D01*
G02X333052Y326020I0J-802D01*
G02X332985Y325700I-802J1D01*
G03Y325540I184J-80D01*
G02X333052Y325220I-735J-321D01*
G02X332250Y324418I-802J0D01*
G02X332007Y324456I1J802D01*
G03X331845Y324438I-61J-191D01*
G37*
G36*
G01X343380Y327565D02*
G02X343700Y327632I321J-735D01*
G02Y326028I0J-802D01*
G02X343380Y326095I1J802D01*
G03X343220I-80J-184D01*
G02X342900Y326028I-321J735D01*
G02Y327632I0J802D01*
G02X343220Y327565I-1J-802D01*
G03X343380I80J184D01*
G37*
G36*
G01X321244Y326247D02*
X321117Y326228D01*
G03X320997Y326164I28J-198D01*
G02X320400Y325898I-597J537D01*
G02Y327502I0J802D01*
G02X320823Y327382I1J-802D01*
G03X320956Y327353I107J169D01*
G01X321083Y327372D01*
G03X321203Y327436I-28J198D01*
G02X321800Y327702I597J-537D01*
G02Y326098I0J-802D01*
G02X321377Y326218I-1J802D01*
G03X321244Y326247I-107J-169D01*
G37*
G36*
G01X339780Y327985D02*
G02X340100Y328052I321J-735D01*
G02Y326448I0J-802D01*
G02X339780Y326515I1J802D01*
G03X339620I-80J-184D01*
G02X339300Y326448I-321J735D01*
G02Y328052I0J802D01*
G02X339620Y327985I-1J-802D01*
G03X339780I80J184D01*
G37*
G36*
G01X309880Y329129D02*
G02X310200Y329196I321J-735D01*
G02Y327592I0J-802D01*
G02X309880Y327659I1J802D01*
G03X309720I-80J-184D01*
G02X309400Y327592I-321J735D01*
G02Y329196I0J802D01*
G02X309720Y329129I-1J-802D01*
G03X309880I80J184D01*
G37*
G36*
G01X313243Y329160D02*
G02X313500Y329202I256J-760D01*
G02Y327598I0J-802D01*
G02X313101Y327704I0J802D01*
G03X312937Y327720I-100J-173D01*
G02X312680Y327678I-256J760D01*
G02Y329282I0J802D01*
G02X313079Y329176I0J-802D01*
G03X313243Y329160I100J173D01*
G37*
G36*
G01X343720Y331435D02*
G02X344040Y331502I321J-735D01*
G02Y329898I0J-802D01*
G02X343720Y329965I1J802D01*
G03X343560I-80J-184D01*
G02X343240Y329898I-321J735D01*
G02Y331502I0J802D01*
G02X343560Y331435I-1J-802D01*
G03X343720I80J184D01*
G37*
G36*
G01X346741Y329639D02*
G02X346628Y330050I689J411D01*
G02X346695Y330370I802J-1D01*
G03Y330530I-184J80D01*
G02X346628Y330850I735J321D01*
G02X348232I802J0D01*
G02X348165Y330530I-802J1D01*
G03Y330370I184J-80D01*
G02X348232Y330050I-735J-321D01*
G02X348199Y329821I-802J-1D01*
G03X348219Y329661I191J-57D01*
G02X348332Y329250I-689J-411D01*
G02X346728I-802J0D01*
G02X346761Y329479I802J1D01*
G03X346741Y329639I-191J57D01*
G37*
G36*
G01X339520Y331615D02*
G02X339840Y331682I321J-735D01*
G02Y330078I0J-802D01*
G02X339520Y330145I1J802D01*
G03X339360I-80J-184D01*
G02X339040Y330078I-321J735D01*
G02Y331682I0J802D01*
G02X339360Y331615I-1J-802D01*
G03X339520I80J184D01*
G37*
G36*
G01X294055Y332370D02*
G02X293948Y332770I694J400D01*
G02X294750Y333572I802J0D01*
G02X295150Y333465I0J-801D01*
G03X295350I100J173D01*
G02X296150I400J-694D01*
G03X296350I100J173D01*
G02X296750Y333572I400J-694D01*
G02X297552Y332770I0J-802D01*
G02X297445Y332370I-801J0D01*
G03Y332170I173J-100D01*
G02X297552Y331770I-694J-400D01*
G02X296750Y330968I-802J0D01*
G02X296350Y331075I0J801D01*
G03X296150I-100J-173D01*
G02X295350I-400J694D01*
G03X295150I-100J-173D01*
G02X294750Y330968I-400J694D01*
G02X293948Y331770I0J802D01*
G02X294055Y332170I801J0D01*
G03Y332370I-173J100D01*
G37*
G36*
G01X260695Y333898D02*
G02X261090Y334002I395J-698D01*
G02Y332398I0J-802D01*
G02X260709Y332494I0J802D01*
G03X260515Y332492I-95J-176D01*
G02X260120Y332388I-395J698D01*
G02Y333992I0J802D01*
G02X260501Y333896I0J-802D01*
G03X260695Y333898I95J176D01*
G37*
G36*
G01X310470Y333235D02*
G02X310150Y333168I-321J735D01*
G02Y334772I0J802D01*
G02X310470Y334705I-1J-802D01*
G03X310630I80J184D01*
G02X310950Y334772I321J-735D01*
G02X311270Y334705I-1J-802D01*
G03X311430I80J184D01*
G02X311750Y334772I321J-735D01*
G02Y333168I0J-802D01*
G02X311430Y333235I1J802D01*
G03X311270I-80J-184D01*
G02X310950Y333168I-321J735D01*
G02X310630Y333235I1J802D01*
G03X310470I-80J-184D01*
G37*
G36*
G01X305860Y333465D02*
G02X305540Y333398I-321J735D01*
G02Y335002I0J802D01*
G02X305860Y334935I-1J-802D01*
G03X306020I80J184D01*
G02X306340Y335002I321J-735D01*
G02X306660Y334935I-1J-802D01*
G03X306820I80J184D01*
G02X307140Y335002I321J-735D01*
G02Y333398I0J-802D01*
G02X306820Y333465I1J802D01*
G03X306660I-80J-184D01*
G02X306340Y333398I-321J735D01*
G02X306020Y333465I1J802D01*
G03X305860I-80J-184D01*
G37*
G36*
G01X229059Y335287D02*
X228949Y335274D01*
G03X228849Y335232I25J-199D01*
G02X228350Y335058I-499J629D01*
G02Y336662I0J802D01*
G02X228683Y336589I-1J-802D01*
G03X228791Y336573I82J182D01*
G01X228901Y336586D01*
G03X229001Y336628I-25J199D01*
G02X229500Y336802I499J-629D01*
G02Y335198I0J-802D01*
G02X229167Y335271I1J802D01*
G03X229059Y335287I-82J-182D01*
G37*
G36*
G01X293575Y338960D02*
G02X293468Y339360I694J400D01*
G02X294270Y340162I802J0D01*
G02X294670Y340055I0J-801D01*
G03X294870I100J173D01*
G02X295670I400J-694D01*
G03X295870I100J173D01*
G02X296270Y340162I400J-694D01*
G02X297072Y339360I0J-802D01*
G02X296965Y338960I-801J0D01*
G03Y338760I173J-100D01*
G02X297072Y338360I-694J-400D01*
G02X296270Y337558I-802J0D01*
G02X295870Y337665I0J801D01*
G03X295670I-100J-173D01*
G02X294870I-400J694D01*
G03X294670I-100J-173D01*
G02X294270Y337558I-400J694D01*
G02X293468Y338360I0J802D01*
G02X293575Y338760I801J0D01*
G03Y338960I-173J100D01*
G37*
G36*
G01X221907Y340837D02*
G02X222520Y341122I613J-517D01*
G02Y339518I0J-802D01*
G02X222308Y339546I-2J802D01*
G03X222103Y339483I-53J-193D01*
G02X221490Y339198I-613J517D01*
G02Y340802I0J802D01*
G02X221702Y340774I2J-802D01*
G03X221907Y340837I53J193D01*
G37*
G36*
G01X189398Y342411D02*
G02X189750Y342492I351J-721D01*
G02Y340888I0J-802D01*
G02X189382Y340977I-1J802D01*
G03X189202Y340979I-92J-177D01*
G02X188850Y340898I-351J721D01*
G02Y342502I0J802D01*
G02X189218Y342413I1J-802D01*
G03X189398Y342411I92J177D01*
G37*
G36*
G01X256230Y342765D02*
G02X257030I400J-694D01*
G03X257230I100J173D01*
G02X258030I400J-694D01*
G03X258230I100J173D01*
G02X258630Y342872I400J-694D01*
G02Y341268I0J-802D01*
G02X258230Y341375I0J801D01*
G03X258030I-100J-173D01*
G02X257230I-400J694D01*
G03X257030I-100J-173D01*
G02X256230I-400J694D01*
G03X256030I-100J-173D01*
G02X255230I-400J694D01*
G03X255030I-100J-173D01*
G02X254230I-400J694D01*
G03X254030I-100J-173D01*
G02X253230I-400J694D01*
G03X253030I-100J-173D01*
G02X252630Y341268I-400J694D01*
G02Y342872I0J802D01*
G02X253030Y342765I0J-801D01*
G03X253230I100J173D01*
G02X254030I400J-694D01*
G03X254230I100J173D01*
G02X255030I400J-694D01*
G03X255230I100J173D01*
G02X256030I400J-694D01*
G03X256230I100J173D01*
G37*
G36*
G01X243896Y341884D02*
G02X244420Y342378I754J-274D01*
G03X244548Y342494I-57J192D01*
G02X245029Y342948I742J-304D01*
G03X245157Y343084I-65J189D01*
G02X245930Y343672I773J-214D01*
G02X246732Y342870I0J-802D01*
G02X246191Y342112I-802J0D01*
G03X246063Y341976I65J-189D01*
G02X245520Y341422I-773J214D01*
G03X245392Y341306I57J-192D01*
G02X244843Y340832I-742J304D01*
G03X244704Y340706I49J-194D01*
G02X244180Y340212I-754J274D01*
G03X244052Y340096I57J-192D01*
G02X243621Y339661I-742J304D01*
G03X243504Y339519I78J-184D01*
G02X242955Y338923I-784J171D01*
G03X242823Y338793I58J-191D01*
G02X242329Y338285I-763J247D01*
G03X242204Y338149I68J-188D01*
G02X241611Y337579I-774J211D01*
G03X241463Y337437I45J-195D01*
G02X240838Y336862I-773J213D01*
G03X240686Y336732I37J-197D01*
G02X239930Y336198I-756J268D01*
G02X239128Y337000I0J802D01*
G02X239782Y337788I802J0D01*
G03X239934Y337918I-37J197D01*
G02X240509Y338431I756J-268D01*
G03X240657Y338573I-45J195D01*
G02X241161Y339115I773J-213D01*
G03X241286Y339251I-68J188D01*
G02X241825Y339807I774J-211D01*
G03X241957Y339937I-58J191D01*
G02X242409Y340429I763J-247D01*
G03X242526Y340571I-78J184D01*
G02X243080Y341168I783J-172D01*
G03X243208Y341284I-57J192D01*
G02X243757Y341758I742J-304D01*
G03X243896Y341884I-49J194D01*
G37*
G36*
G01X202233Y342649D02*
G02X202108Y343080I677J430D01*
G02X202910Y343882I802J0D01*
G02X203262Y343801I1J-802D01*
G03X203442Y343803I88J179D01*
G02X203810Y343892I367J-713D01*
G02X204226Y343776I0J-802D01*
G03X204439Y343780I103J171D01*
G02X204880Y343912I441J-671D01*
G02X205329Y343774I-1J-802D01*
G03X205537Y343764I112J166D01*
G02X205920Y343862I384J-704D01*
G02X206306Y343763I0J-802D01*
G03X206506Y343767I97J175D01*
G02X206920Y343882I414J-688D01*
G02X207722Y343080I0J-802D01*
G02X207607Y342666I-803J0D01*
G03X207609Y342457I171J-103D01*
G02X207732Y342030I-680J-427D01*
G02X206930Y341228I-802J0D01*
G02X206519Y341341I0J802D01*
G03X206317Y341343I-103J-171D01*
G02X205920Y341238I-397J698D01*
G02X205510Y341351I0J802D01*
G03X205291Y341341I-102J-172D01*
G02X204820Y341188I-471J648D01*
G02X204392Y341312I0J801D01*
G03X204192Y341320I-107J-169D01*
G02X203820Y341228I-373J710D01*
G02X203468Y341309I-1J802D01*
G03X203288Y341307I-88J-179D01*
G02X202920Y341218I-367J713D01*
G02X202118Y342020I0J802D01*
G02X202235Y342438I802J1D01*
G03X202233Y342649I-171J104D01*
G37*
G36*
G01X439618Y343510D02*
X439620Y343622D01*
G03X439592Y343728I-200J4D01*
G02X439478Y344140I687J412D01*
G02X440280Y344942I802J0D01*
G02X440660Y344846I0J-802D01*
G03X440838Y344840I95J176D01*
G02X441170Y344912I332J-729D01*
G02X441972Y344110I0J-802D01*
G02X441863Y343706I-803J0D01*
G03X441836Y343594I173J-101D01*
G01X441843Y343478D01*
G03X441882Y343370I200J11D01*
G02X442042Y342890I-642J-481D01*
G02X441240Y342088I-802J0D01*
G02X440791Y342226I1J802D01*
G03X440595Y342241I-111J-166D01*
G02X440260Y342168I-334J729D01*
G02X439458Y342970I0J802D01*
G02X439586Y343405I803J0D01*
G03X439618Y343510I-168J109D01*
G37*
G36*
G01X455708Y342771D02*
G02X455210Y342598I-498J630D01*
G02X454408Y343400I0J802D01*
G02X454504Y343781I802J0D01*
G03X454496Y343985I-176J95D01*
G02X454368Y344420I675J435D01*
G02X455170Y345222I802J0D01*
G02X455600Y345097I0J-802D01*
G03X455824Y345103I108J169D01*
G02X456290Y345252I466J-654D01*
G02X457092Y344450I0J-802D01*
G02X457006Y344088I-802J-1D01*
G03X457012Y343896I178J-91D01*
G02X457122Y343490I-692J-405D01*
G02X456320Y342688I-802J0D01*
G02X455930Y342789I0J802D01*
G03X455708Y342771I-98J-174D01*
G37*
G36*
G01X311155Y348482D02*
G02X311038Y348900I685J417D01*
G02X311840Y349702I802J0D01*
G02X312312Y349548I0J-802D01*
G03X312514Y349528I118J162D01*
G02X312850Y349602I336J-728D01*
G02X313202Y349521I1J-802D01*
G03X313307Y349501I89J179D01*
G01X313418Y349511D01*
G03X313518Y349548I-17J199D01*
G02X313990Y349702I472J-648D01*
G02X314792Y348900I0J-802D01*
G02X314723Y348574I-802J-1D01*
G03X314739Y348383I183J-81D01*
G02X314872Y347940I-669J-442D01*
G02X314070Y347138I-802J0D01*
G02X313683Y347238I1J802D01*
G03X313497Y347242I-97J-175D01*
G02X313140Y347158I-357J717D01*
G02X312728Y347272I0J801D01*
G03X312603Y347299I-103J-172D01*
G01X312480Y347285D01*
G03X312365Y347231I23J-199D01*
G02X311810Y347008I-555J579D01*
G02X311008Y347810I0J802D01*
G02X311149Y348265I802J1D01*
G03X311155Y348482I-165J113D01*
G37*
G36*
G01X193734Y355938D02*
G02X194070Y356012I336J-728D01*
G02Y354408I0J-802D01*
G02X193717Y354490I0J801D01*
G03X193546Y354492I-88J-180D01*
G02X193210Y354418I-336J728D01*
G02Y356022I0J802D01*
G02X193563Y355940I0J-801D01*
G03X193734Y355938I88J180D01*
G37*
G36*
G01X438153Y360795D02*
X438150Y360918D01*
G03X438108Y361036I-200J-5D01*
G02X437938Y361530I633J494D01*
G02X438740Y362332I802J0D01*
G02X439105Y362244I0J-801D01*
G03X439290Y362246I91J178D01*
G02X439670Y362342I380J-706D01*
G02X440472Y361540I0J-802D01*
G02X440365Y361140I-801J0D01*
G03X440339Y361024I173J-100D01*
G01X440348Y360906D01*
G03X440392Y360796I200J16D01*
G02X440572Y360290I-621J-506D01*
G02X439770Y359488I-802J0D01*
G02X439425Y359566I0J802D01*
G03X439226Y359550I-86J-181D01*
G02X438770Y359408I-456J661D01*
G02X437968Y360210I0J802D01*
G02X438116Y360675I802J1D01*
G03X438153Y360795I-163J116D01*
G37*
G36*
G01X456015Y360041D02*
G02X455640Y359948I-375J710D01*
G02X454838Y360750I0J802D01*
G02X454969Y361189I801J0D01*
G03X454977Y361394I-168J109D01*
G02X454878Y361780I703J386D01*
G02X455680Y362582I802J0D01*
G02X456092Y362468I0J-801D01*
G03X456298I103J172D01*
G02X456710Y362582I412J-687D01*
G02X457512Y361780I0J-802D01*
G02X457356Y361305I-801J0D01*
G03X457340Y361093I161J-119D01*
G02X457432Y360720I-710J-373D01*
G02X456630Y359918I-802J0D01*
G02X456213Y360035I0J802D01*
G03X456015Y360041I-104J-171D01*
G37*
G36*
G01X428484Y373723D02*
X428453Y373829D01*
G03X428396Y373920I-192J-57D01*
G02X428138Y374510I544J589D01*
G02X429742I802J0D01*
G02X429715Y374304I-802J0D01*
G03X429716Y374197I193J-52D01*
G01X429747Y374091D01*
G03X429804Y374000I192J57D01*
G02X430062Y373410I-544J-589D01*
G02X428458I-802J0D01*
G02X428485Y373616I802J0D01*
G03X428484Y373723I-193J52D01*
G37*
G36*
G01X167352Y383732D02*
G02X167740Y383832I388J-703D01*
G02Y382228I0J-802D01*
G02X167287Y382368I0J803D01*
G03X167078Y382378I-113J-165D01*
G02X166690Y382278I-388J703D01*
G02Y383882I0J802D01*
G02X167143Y383742I0J-803D01*
G03X167352Y383732I113J165D01*
G37*
G36*
G01X324533Y394171D02*
G03X324074Y394367I-352J-189D01*
G02X323860Y394338I-214J773D01*
G02Y395942I0J802D01*
G02X324567Y395519I0J-802D01*
G03X325026Y395323I352J189D01*
G02X325240Y395352I214J-773D01*
G02Y393748I0J-802D01*
G02X324533Y394171I0J802D01*
G37*
G36*
G01X250948Y405642D02*
G02X251370Y405762I422J-682D01*
G02X251762Y405660I1J-802D01*
G03X251953Y405658I97J175D01*
G02X252330Y405752I377J-709D01*
G02X252736Y405642I1J-802D01*
G03X252941Y405644I101J173D01*
G02X253360Y405762I419J-685D01*
G02X254162Y404960I0J-802D01*
G02X254006Y404485I-801J0D01*
G03X253990Y404273I161J-119D01*
G02X254082Y403900I-710J-373D01*
G02X253280Y403098I-802J0D01*
G02X252893Y403198I1J802D01*
G03X252707Y403202I-97J-175D01*
G02X252350Y403118I-357J717D01*
G02X251944Y403229I1J802D01*
G03X251748Y403233I-102J-173D01*
G02X251370Y403138I-379J707D01*
G02X250970Y403245I0J801D01*
G03X250767Y403243I-100J-174D01*
G02X250354Y403128I-414J687D01*
G02X249552Y403930I0J802D01*
G02X249660Y404331I802J-1D01*
G03X249659Y404533I-173J100D01*
G02X249548Y404940I691J407D01*
G02X250350Y405742I802J0D01*
G02X250745Y405638I0J-802D01*
G03X250948Y405642I98J174D01*
G37*
G36*
G01X258208Y196459D02*
Y196465D01*
G02X259010Y195663I802J0D01*
G02X258791Y195693I-2J802D01*
G03X258282Y195306I-109J-385D01*
G01Y195300D01*
G02X257480Y196102I-802J0D01*
G02X257699Y196072I2J-802D01*
G03X258208Y196459I109J385D01*
G37*
G36*
G01X391647Y248830D02*
G02X390990Y248488I-657J460D01*
G02Y250092I0J802D01*
G02X391661Y249730I0J-803D01*
G03X392323Y249720I334J219D01*
G02X392980Y250062I657J-460D01*
G02Y248458I0J-802D01*
G02X392309Y248820I0J803D01*
G03X391647Y248830I-334J-219D01*
G37*
G36*
G01X384640Y250633D02*
G02X384298Y251290I460J657D01*
G02X385902I802J0D01*
G02X385560Y250633I-802J0D01*
G03Y249977I229J-328D01*
G02X385902Y249320I-460J-657D01*
G02X384298I-802J0D01*
G02X384640Y249977I802J0D01*
G03Y250633I-229J328D01*
G37*
G36*
G01X388578Y270311D02*
G02X388218Y270980I442J669D01*
G02X389822I802J0D01*
G02X389468Y270315I-802J0D01*
G03X389472Y269649I224J-332D01*
G02X389832Y268980I-442J-669D01*
G02X388228I-802J0D01*
G02X388582Y269645I802J0D01*
G03X388578Y270311I-224J332D01*
G37*
G36*
G01X435983Y291781D02*
G02X435608Y292460I427J679D01*
G02X437212I802J0D01*
G02X436890Y291818I-801J0D01*
G03X436917Y291159I240J-320D01*
G02X437292Y290480I-427J-679D01*
G02X435688I-802J0D01*
G02X436010Y291122I801J0D01*
G03X435983Y291781I-240J320D01*
G37*
G36*
G01X199117Y292237D02*
G02X198808Y292870I494J633D01*
G02X200412I802J0D01*
G02X200043Y292195I-802J0D01*
G03X200013Y291543I216J-337D01*
G02X200322Y290910I-494J-633D01*
G02X198718I-802J0D01*
G02X199087Y291585I802J0D01*
G03X199117Y292237I-216J337D01*
G37*
G36*
G01X192583Y298041D02*
G02X191980Y297768I-603J529D01*
G02Y299372I0J802D01*
G02X192558Y299126I0J-802D01*
G03X193147Y299139I289J277D01*
G02X193750Y299412I603J-529D01*
G02Y297808I0J-802D01*
G02X193172Y298054I0J802D01*
G03X192583Y298041I-289J-277D01*
G37*
G36*
G01X192643Y305993D02*
G02X191980Y305642I-663J451D01*
G02Y307246I0J802D01*
G02X192631Y306912I0J-801D01*
G03X193287Y306921I325J234D01*
G02X193950Y307272I663J-451D01*
G02Y305668I0J-802D01*
G02X193299Y306002I0J801D01*
G03X192643Y305993I-325J-234D01*
G37*
G36*
G01X335663Y306340D02*
G02X335488Y306840I627J500D01*
G02X337092I802J0D01*
G02X336911Y306333I-802J0D01*
G03X336908Y305830I310J-253D01*
G02X337083Y305330I-627J-500D01*
G02X336281Y304528I-802J0D01*
G02X335746Y304732I-1J802D01*
G01X335716Y304760D01*
X335641Y304785D01*
X335275Y304762D01*
X335204Y304727D01*
X335177Y304696D01*
G02X334570Y304418I-607J524D01*
G02Y306022I0J802D01*
G02X335228Y305678I0J-801D01*
G03X335570Y305700I164J114D01*
G02X335660Y305837I712J-369D01*
G03X335663Y306340I-310J253D01*
G37*
G36*
G01X235885Y307981D02*
G02X235638Y308560I555J579D01*
G02X237242I802J0D01*
G02X236955Y307945I-802J0D01*
G03X236935Y307349I256J-307D01*
G02X237182Y306770I-555J-579D01*
G02X235578I-802J0D01*
G02X235865Y307385I802J0D01*
G03X235885Y307981I-256J307D01*
G37*
G36*
G01X310452Y312339D02*
G02X310200Y312298I-253J761D01*
G02Y313902I0J802D01*
G02X311002Y313101I0J-802D01*
G03X311528Y312722I400J1D01*
G02X311780Y312763I253J-761D01*
G02Y311159I0J-802D01*
G02X310978Y311960I0J802D01*
G03X310452Y312339I-400J-1D01*
G37*
G36*
G01X326281Y315696D02*
G02X326601Y315763I321J-735D01*
G02X326921Y315696I-1J-802D01*
G03X327121Y315719I80J183D01*
G02X327601Y315879I481J-642D01*
G02Y314275I0J-802D01*
G02X327281Y314342I1J802D01*
G03X327081Y314319I-80J-183D01*
G02X326601Y314159I-481J642D01*
G02X326281Y314226I1J802D01*
G03X326121I-80J-184D01*
G02X325801Y314159I-321J735D01*
G02X325320Y314319I0J803D01*
G01X325286Y314345D01*
X325202Y314364D01*
X324825Y314286D01*
X324755Y314236D01*
X324734Y314199D01*
G02X324039Y313798I-695J402D01*
G02Y315402I0J802D01*
G02X324520Y315242I0J-803D01*
G01X324554Y315216D01*
X324638Y315197D01*
X325015Y315275D01*
X325085Y315325D01*
X325106Y315362D01*
G02X325801Y315763I695J-402D01*
G02X326121Y315696I-1J-802D01*
G03X326281I80J184D01*
G37*
G36*
G01X352786Y316222D02*
G02X352598Y316700I514J478D01*
G02X353300Y317402I702J0D01*
G02X353778Y317214I0J-702D01*
G03X353914Y317161I136J147D01*
G01X354186D01*
G03X354322Y317214I0J200D01*
G02X354800Y317402I478J-514D01*
G02X355502Y316700I0J-702D01*
G02X355314Y316222I-702J0D01*
G03X355261Y316086I147J-136D01*
G01Y315814D01*
G03X355314Y315678I200J0D01*
G02X355502Y315200I-514J-478D01*
G02X354800Y314498I-702J0D01*
G02X354322Y314686I0J702D01*
G03X354186Y314739I-136J-147D01*
G01X353914D01*
G03X353778Y314686I0J-200D01*
G02X353300Y314498I-478J514D01*
G02X352598Y315200I0J702D01*
G02X352786Y315678I702J0D01*
G03X352839Y315814I-147J136D01*
G01Y316086D01*
G03X352786Y316222I-200J0D01*
G37*
G36*
G01X364586Y316322D02*
G02X364398Y316800I514J478D01*
G02X365100Y317502I702J0D01*
G02X365578Y317314I0J-702D01*
G03X365714Y317261I136J147D01*
G01X365986D01*
G03X366122Y317314I0J200D01*
G02X366600Y317502I478J-514D01*
G02X367302Y316800I0J-702D01*
G02X367114Y316322I-702J0D01*
G03X367061Y316186I147J-136D01*
G01Y315914D01*
G03X367114Y315778I200J0D01*
G02X367302Y315300I-514J-478D01*
G02X366600Y314598I-702J0D01*
G02X366122Y314786I0J702D01*
G03X365986Y314839I-136J-147D01*
G01X365714D01*
G03X365578Y314786I0J-200D01*
G02X365100Y314598I-478J514D01*
G02X364398Y315300I0J702D01*
G02X364586Y315778I702J0D01*
G03X364639Y315914I-147J136D01*
G01Y316186D01*
G03X364586Y316322I-200J0D01*
G37*
G36*
G01X317581Y318079D02*
X317536Y318098D01*
G02X317038Y318840I304J742D01*
G02X318642I802J0D01*
G02X318451Y318321I-801J0D01*
G01X318420Y318284D01*
X318398Y318192D01*
X318498Y317782D01*
X318559Y317711D01*
X318604Y317692D01*
G02X319020Y317303I-304J-742D01*
G03X319094Y317222I179J89D01*
G01X319190Y317162D01*
G03X319296Y317132I105J170D01*
G02X320102Y316330I4J-802D01*
G02X319413Y315536I-802J0D01*
G01X319375Y315531D01*
X319310Y315494D01*
X319090Y315223D01*
X319068Y315152D01*
X319070Y315113D01*
G02X319072Y315060I-800J-57D01*
G02X318724Y314399I-802J0D01*
G01X318689Y314375D01*
X318645Y314305D01*
X318590Y313932D01*
X318611Y313853D01*
X318637Y313820D01*
G02X318661Y313789I-622J-506D01*
G01X318686Y313754D01*
X318759Y313712D01*
X319141Y313671D01*
X319221Y313697D01*
X319253Y313726D01*
G02X319790Y313932I537J-597D01*
G02Y312328I0J-802D01*
G02X319139Y312661I0J803D01*
G01X319114Y312696D01*
X319041Y312738D01*
X318659Y312779D01*
X318579Y312753D01*
X318547Y312724D01*
G02X318010Y312518I-537J597D01*
G02X317208Y313320I0J802D01*
G02X317556Y313981I802J0D01*
G01X317591Y314005D01*
X317635Y314075D01*
X317690Y314448D01*
X317669Y314527D01*
X317643Y314560D01*
G02X317468Y315060I627J500D01*
G02X317785Y315698I802J-1D01*
G01X317821Y315726D01*
X317863Y315808D01*
X317869Y316215D01*
X317830Y316298D01*
X317795Y316327D01*
G02X317498Y316950I505J623D01*
G02X317689Y317469I801J0D01*
G01X317720Y317506D01*
X317742Y317598D01*
X317642Y318008D01*
X317581Y318079D01*
G37*
G36*
G01X339077Y319570D02*
X339039Y319602D01*
G02X338748Y320220I511J618D01*
G02X339550Y321022I802J0D01*
G02X339825Y320973I-1J-802D01*
G03X339988Y320985I68J188D01*
G02X340370Y321082I382J-704D01*
G02Y319478I0J-802D01*
G02X340095Y319527I1J802D01*
G03X339932Y319515I-68J-188D01*
G02X339612Y319420I-383J705D01*
G03X339578Y319027I15J-199D01*
G02X340182Y318250I-198J-777D01*
G02X338578I-802J0D01*
G02X338982Y318946I802J0D01*
G01X339026Y318971D01*
X339078Y319053D01*
X339115Y319480D01*
X339077Y319570D01*
G37*
G36*
G01X325716Y320336D02*
G02X325106Y320054I-610J519D01*
G02Y321658I0J802D01*
G02X325726Y321365I0J-802D01*
G03X326340Y321359I310J253D01*
G02X326950Y321641I610J-519D01*
G02Y320037I0J-802D01*
G02X326330Y320330I0J802D01*
G03X325716Y320336I-310J-253D01*
G37*
G36*
G01X324298Y332619D02*
G02X323890Y332508I-407J691D01*
G02Y334112I0J802D01*
G02X324607Y333670I0J-803D01*
G03X325167Y333506I357J180D01*
G02X325575Y333617I407J-691D01*
G02Y332013I0J-802D01*
G02X324858Y332455I0J803D01*
G03X324298Y332619I-357J-180D01*
G37*
G36*
G01X334551Y333050D02*
X334503Y333062D01*
G02X333898Y333840I198J778D01*
G02X334700Y334642I802J0D01*
G02X335284Y334390I0J-803D01*
G01X335310Y334362D01*
X335377Y334330D01*
X335722Y334304D01*
X335794Y334326D01*
X335823Y334350D01*
G02X336320Y334522I496J-630D01*
G02X337122Y333720I0J-802D01*
G02X336426Y332925I-802J0D01*
G01X336378Y332919D01*
X336299Y332864D01*
X336101Y332492D01*
X336099Y332396D01*
X336120Y332353D01*
G02X336202Y332000I-719J-353D01*
G02X334598I-802J0D01*
G02X334736Y332450I803J0D01*
G01X334764Y332491D01*
X334775Y332588D01*
X334624Y332986D01*
X334551Y333050D01*
G37*
G36*
G01X267636Y334522D02*
G02X267478Y335000I644J478D01*
G02X269082I802J0D01*
G02X268857Y334443I-802J0D01*
G03X268824Y333928I288J-277D01*
G02X268982Y333450I-644J-478D01*
G02X268777Y332915I-801J0D01*
G01X268752Y332886D01*
X268726Y332818D01*
X268728Y332474D01*
X268754Y332406D01*
X268780Y332378D01*
G02X268989Y331838I-593J-540D01*
G02X268788Y331308I-802J1D01*
G03X268738Y331175I150J-132D01*
G01Y330497D01*
G02X268577Y330107I-551J-1D01*
G01X267340Y328870D01*
G02X266950Y328708I-391J390D01*
G01X265262D01*
X265231Y328698D01*
G02X264980Y328658I-250J762D01*
G02Y330262I0J802D01*
G02X265293Y330198I-1J-802D01*
G01X265334Y330181D01*
X265419Y330183D01*
X265771Y330356D01*
X265825Y330423D01*
X265836Y330466D01*
G02X266006Y330788I776J-204D01*
G03X266055Y330919I-151J131D01*
G01Y331182D01*
G03X266006Y331313I-200J0D01*
G02X265810Y331838I605J525D01*
G02X266612Y332640I802J0D01*
G02X267137Y332444I0J-801D01*
G03X267268Y332395I131J151D01*
G01X267531D01*
G03X267662Y332444I0J200D01*
G02X267708Y332481I525J-606D01*
G03X267706Y332803I-120J160D01*
G02X267378Y333450I474J647D01*
G02X267603Y334007I802J0D01*
G03X267636Y334522I-288J277D01*
G37*
G36*
G01X328163Y336339D02*
G02X327514Y336008I-649J471D01*
G02Y337612I0J802D01*
G02X328097Y337361I0J-803D01*
G03X328711Y337401I290J275D01*
G02X329360Y337732I649J-471D01*
G02Y336128I0J-802D01*
G02X328777Y336379I0J803D01*
G03X328163Y336339I-290J-275D01*
G37*
G36*
G01X340592Y337721D02*
G02X340248Y338379I457J658D01*
G02X341852I802J0D01*
G02X341715Y337930I-802J-1D01*
G03X341818Y337378I331J-224D01*
G02X342162Y336720I-457J-658D01*
G02X340558I-802J0D01*
G02X340695Y337169I802J1D01*
G03X340592Y337721I-331J224D01*
G37*
G36*
G01X228172Y342402D02*
G02X227560Y342118I-612J517D01*
G02Y343722I0J802D01*
G02X228142Y343472I0J-802D01*
G03X228738Y343488I291J275D01*
G02X229350Y343772I612J-517D01*
G02Y342168I0J-802D01*
G02X228768Y342418I0J802D01*
G03X228172Y342402I-291J-275D01*
G37*
G36*
G01X318580Y347142D02*
G02X318242Y347796I464J654D01*
G02X319846I802J0D01*
G02X319544Y347169I-802J0D01*
G03X319561Y346530I249J-313D01*
G02X319899Y345876I-464J-654D01*
G02X318295I-802J0D01*
G02X318597Y346503I802J0D01*
G03X318580Y347142I-249J313D01*
G37*
G36*
G01X308748Y361363D02*
G02X308410Y361288I-339J727D01*
G02Y362892I0J802D01*
G02X309200Y362231I0J-803D01*
G03X309762Y361938I394J70D01*
G02X310100Y362013I339J-727D01*
G02Y360409I0J-802D01*
G02X309310Y361070I0J803D01*
G03X308748Y361363I-394J-70D01*
G37*
G36*
G01X353156Y362449D02*
G02X352500Y362108I-656J460D01*
G02Y363712I0J802D01*
G02X353098Y363444I0J-801D01*
G03X353724Y363481I298J267D01*
G02X354380Y363822I656J-460D01*
G02Y362218I0J-802D01*
G02X353782Y362486I0J801D01*
G03X353156Y362449I-298J-267D01*
G37*
G36*
G01X362039Y367537D02*
G02X361688Y368200I451J663D01*
G02X363292I802J0D01*
G02X362967Y367556I-802J1D01*
G03X362981Y366903I238J-322D01*
G02X363332Y366240I-451J-663D01*
G02X361728I-802J0D01*
G02X362053Y366884I802J-1D01*
G03X362039Y367537I-238J322D01*
G37*
G36*
G01X400802Y367588D02*
G02X400468Y368240I469J652D01*
G02X402072I802J0D01*
G02X401731Y367584I-801J0D01*
G03X401728Y366932I230J-327D01*
G02X402062Y366280I-469J-652D01*
G02X400458I-802J0D01*
G02X400799Y366936I801J0D01*
G03X400802Y367588I-230J327D01*
G37*
G36*
G01X289168Y368919D02*
X289197Y368962D01*
G02X289860Y369312I663J-453D01*
G02X290495Y369000I0J-802D01*
G01X290525Y368961D01*
X290610Y368921D01*
X291030Y368932D01*
X291113Y368977D01*
X291141Y369016D01*
G02X291800Y369362I660J-456D01*
G02Y367758I0J-802D01*
G02X291165Y368070I0J802D01*
G01X291135Y368109D01*
X291050Y368149D01*
X290630Y368138D01*
X290547Y368093D01*
X290519Y368054D01*
G02X289860Y367708I-660J456D01*
G02X289188Y368072I0J802D01*
G01X289160Y368115D01*
X289074Y368162D01*
X288639Y368166D01*
X288552Y368121D01*
X288523Y368078D01*
G02X288302Y367861I-662J453D01*
G01X288259Y367832D01*
X288212Y367746D01*
X288210Y367311D01*
X288256Y367224D01*
X288298Y367195D01*
G02X288652Y366530I-448J-665D01*
G02X287048I-802J0D01*
G02X287408Y367199I802J0D01*
G01X287451Y367228D01*
X287498Y367314D01*
X287500Y367749D01*
X287454Y367836D01*
X287412Y367865D01*
G02X287058Y368530I448J665D01*
G02X287860Y369332I802J0D01*
G02X288532Y368968I0J-802D01*
G01X288560Y368925D01*
X288646Y368878D01*
X289081Y368874D01*
X289168Y368919D01*
G37*
G36*
G01X392521Y369016D02*
X392548Y369058D01*
G02X393220Y369422I672J-438D01*
G02X393876Y369081I0J-801D01*
G01X393905Y369040D01*
X393991Y368996D01*
X394421Y369000D01*
X394507Y369047D01*
X394535Y369088D01*
G02X395200Y369442I665J-448D01*
G02Y367838I0J-802D01*
G02X394544Y368179I0J801D01*
G01X394515Y368220D01*
X394429Y368264D01*
X393999Y368260D01*
X393913Y368213D01*
X393885Y368172D01*
G02X393220Y367818I-665J448D01*
G02X392571Y368149I0J802D01*
G01X392541Y368190D01*
X392454Y368233D01*
X392024Y368222D01*
X391939Y368174D01*
X391912Y368132D01*
G02X391240Y367768I-672J438D01*
G02Y369372I0J802D01*
G02X391889Y369041I0J-802D01*
G01X391919Y369000D01*
X392006Y368957D01*
X392436Y368968D01*
X392521Y369016D01*
G37*
G36*
G01X353923Y368963D02*
X353952Y369003D01*
G02X354600Y369332I648J-474D01*
G02X355205Y369056I0J-801D01*
G01X355237Y369020D01*
X355323Y368984D01*
X355738Y369015D01*
X355818Y369062D01*
X355844Y369103D01*
G02X356519Y369472I675J-433D01*
G02Y367868I0J-802D01*
G02X355914Y368144I0J801D01*
G01X355882Y368180D01*
X355796Y368216D01*
X355381Y368185D01*
X355301Y368138D01*
X355275Y368097D01*
G02X354600Y367728I-675J433D01*
G02X353933Y368084I0J803D01*
G01X353906Y368125D01*
X353820Y368172D01*
X353394Y368180D01*
X353307Y368137D01*
X353278Y368097D01*
G02X352630Y367768I-648J474D01*
G02Y369372I0J802D01*
G02X353297Y369016I0J-803D01*
G01X353324Y368975D01*
X353410Y368928D01*
X353836Y368920D01*
X353923Y368963D01*
G37*
G36*
G01X338772Y368265D02*
G02X338080Y367868I-692J405D01*
G02Y369472I0J802D01*
G02X338709Y369168I0J-803D01*
G03X339368Y369215I313J248D01*
G02X340060Y369612I692J-405D01*
G02Y368008I0J-802D01*
G02X339431Y368312I0J803D01*
G03X338772Y368265I-313J-248D01*
G37*
G36*
G01X309821Y369224D02*
X309849Y369265D01*
G02X310510Y369612I661J-456D01*
G02X311168Y369268I0J-801D01*
G01X311197Y369227D01*
X311283Y369182D01*
X311713Y369184D01*
X311799Y369230D01*
X311827Y369271D01*
G02X312490Y369622I663J-451D01*
G02Y368018I0J-802D01*
G02X311832Y368362I0J801D01*
G01X311803Y368403D01*
X311717Y368448D01*
X311287Y368446D01*
X311201Y368400D01*
X311173Y368359D01*
G02X310510Y368008I-663J451D01*
G02X309849Y368355I0J803D01*
G01X309821Y368396D01*
X309735Y368442D01*
X309305D01*
X309219Y368396D01*
X309191Y368355D01*
G02X308530Y368008I-661J456D01*
G02Y369612I0J802D01*
G02X309191Y369265I0J-803D01*
G01X309219Y369224D01*
X309305Y369178D01*
X309735D01*
X309821Y369224D01*
G37*
G36*
G01X424948Y392328D02*
X424940D01*
G02X425742Y393130I0J802D01*
G02X425739Y393065I-802J4D01*
G03X426142Y392632I399J-33D01*
G01X426150D01*
G02X425348Y391830I0J-802D01*
G02X425351Y391895I802J-4D01*
G03X424948Y392328I-399J33D01*
G37*
G54D38*
X317510Y245910D03*
X325250Y248990D03*
X322864Y253133D03*
X348209Y250512D03*
X350365Y250596D03*
X361169Y250948D03*
X309734Y254675D03*
X312294Y255194D03*
X324809Y254913D03*
X327646Y258493D03*
X348159Y255430D03*
X345552Y258580D03*
X350975Y258542D03*
X361227Y259939D03*
X363157Y259957D03*
X365100Y255134D03*
X309689Y270591D03*
X350526Y268159D03*
X361124Y266316D03*
X363124Y266338D03*
X311975Y275647D03*
X325081Y277504D03*
X322648Y274231D03*
X340442Y274241D03*
X361220Y275714D03*
X317390Y278090D03*
X322151Y282045D03*
X350820Y283370D03*
X350900Y279000D03*
X355834Y279204D03*
X380660Y294826D03*
X399842Y291045D03*
X320800Y299200D03*
X325520Y296520D03*
X373853Y298724D03*
X408592Y298401D03*
X321756Y303400D03*
X326320Y303836D03*
X339800Y302600D03*
X377013Y306392D03*
X380286Y303959D03*
X387599Y302599D03*
X400080Y306262D03*
X401384Y304175D03*
X408609Y303507D03*
X405390Y306740D03*
X387950Y310137D03*
X396024Y308957D03*
X351700Y319900D03*
X380276Y314075D03*
X380157Y321879D03*
X378181Y331296D03*
X382265Y331397D03*
X386358Y331837D03*
X386653Y326865D03*
X403921Y329676D03*
Y331676D03*
X410770Y331060D03*
X373969Y332324D03*
X374370Y337004D03*
X386550Y337410D03*
X396063Y337119D03*
X410061Y337298D03*
X378803Y342531D03*
X388201Y342435D03*
X394578Y342538D03*
X403569Y342480D03*
X379680Y349680D03*
X388201Y344435D03*
X394578Y344538D03*
X399560Y349760D03*
X401750Y349870D03*
X399383Y346411D03*
X374060Y350400D03*
X396050Y350650D03*
X406520Y350080D03*
G54D34*
X240540Y193450D03*
X250450Y192000D03*
X260260Y191920D03*
X270350Y192320D03*
X280360Y192740D03*
X310400Y192180D03*
X320260Y192930D03*
X329540Y192590D03*
X340310Y193140D03*
X350120Y193060D03*
X360030Y193480D03*
X370520Y193020D03*
X381190Y193550D03*
X385630Y193240D03*
X410060Y193790D03*
X417500Y193160D03*
X243415Y198234D03*
X273437Y194303D03*
X278430Y196303D03*
X293140Y196585D03*
X299940Y196740D03*
X305130Y195470D03*
X310842Y195048D03*
X313612Y196623D03*
X328114Y195846D03*
X333370Y196455D03*
X345240Y196135D03*
X351290Y197430D03*
X362640Y196035D03*
X369052Y196542D03*
X373210Y197130D03*
X385720Y197380D03*
X382770Y196160D03*
X398550Y196020D03*
X402120Y196350D03*
X412942Y196803D03*
X418110Y196480D03*
X291640Y201570D03*
X130130Y214578D03*
X134570Y214480D03*
X142020Y214760D03*
X148550Y214900D03*
X156000Y215080D03*
X162480Y214970D03*
X130130Y218911D03*
Y223244D03*
X193090Y219140D03*
X376910Y221940D03*
X380740Y219260D03*
X130130Y227077D03*
Y230410D03*
X136290Y230200D03*
X382690Y238130D03*
X382710Y241010D03*
X386650Y239540D03*
X149590Y243330D03*
X322200Y243250D03*
X345216Y244400D03*
X355987Y244456D03*
X386640Y242480D03*
X393700Y244920D03*
X151960Y253960D03*
X153970Y253880D03*
X177830Y253920D03*
X392960Y251290D03*
X447580Y249270D03*
X449930Y253550D03*
X451800Y249310D03*
X391020Y257020D03*
X392530Y254540D03*
X182300Y263330D03*
X192180Y263230D03*
X197170Y263490D03*
X206582Y263280D03*
X224850Y260890D03*
X390990Y261130D03*
X391000Y265090D03*
X400890Y263090D03*
X398900Y265080D03*
X455840Y264350D03*
X198130Y271500D03*
X391080Y268790D03*
X393880Y269960D03*
X436030Y271370D03*
X449220Y271350D03*
X473030Y269680D03*
X190030Y273510D03*
X387040Y272940D03*
X390980Y272910D03*
X432970Y275020D03*
X440540Y275010D03*
X449680Y275740D03*
X434040Y283500D03*
X443120Y283570D03*
X440880Y283470D03*
X449370Y279180D03*
X455650Y284500D03*
X451080Y293450D03*
X455580Y293120D03*
X463470Y293310D03*
X216930Y301370D03*
X216980Y303601D03*
X216930Y306241D03*
X236130Y304050D03*
X260540Y306930D03*
X311000Y305800D03*
X341700Y307519D03*
X436360Y306880D03*
X216980Y310900D03*
Y308567D03*
X237840Y310861D03*
X236280Y313170D03*
X306000Y309600D03*
X315400Y309400D03*
X319830Y309689D03*
X317830Y308080D03*
X321900Y310000D03*
X325740Y310230D03*
X330650Y311100D03*
X333176Y311184D03*
X335700Y311260D03*
X338600Y311284D03*
X191580Y316330D03*
X199560Y314040D03*
X201330Y316520D03*
X204348Y315530D03*
X203030Y319390D03*
X205910Y319380D03*
X207488Y315600D03*
X209060Y319380D03*
X210637Y315600D03*
X236190Y315220D03*
X250650Y318670D03*
X294000Y318400D03*
X298400D03*
X296200D03*
X301449Y314661D03*
X305243Y314675D03*
X311560Y315288D03*
X312060Y319830D03*
X309540Y319269D03*
X314560Y319790D03*
X324000Y317400D03*
X322070Y318781D03*
X331001Y317490D03*
X337750Y315960D03*
X336930Y318190D03*
X333479Y319660D03*
X440920Y319280D03*
X446790Y318180D03*
X452800Y319380D03*
X249170Y323510D03*
X293030Y321280D03*
X296200Y320600D03*
X298400D03*
X310400Y323280D03*
X308415Y321474D03*
X318580Y322450D03*
X316150Y325420D03*
X323407Y324349D03*
X320620Y324650D03*
X320570Y321060D03*
X326323Y324577D03*
X336920Y324420D03*
X334950Y323400D03*
X347750Y324820D03*
X349830Y325010D03*
X436980Y324360D03*
X457030Y324160D03*
X206770Y329310D03*
X246230Y330470D03*
X318000Y330700D03*
X316189Y328710D03*
X323701Y330880D03*
X325935Y328935D03*
X321300Y330220D03*
X328610Y329000D03*
X336300Y328120D03*
X454480Y329020D03*
X255180Y335940D03*
X261541Y335920D03*
X316300Y334881D03*
X319300Y335169D03*
X314870Y336502D03*
X324074Y336810D03*
X321200Y336900D03*
X328675Y332005D03*
X345790Y336970D03*
X456150Y334280D03*
X178790Y342790D03*
X301400Y339600D03*
X313000Y342119D03*
X316200Y342219D03*
X319290Y340940D03*
X322560Y341190D03*
X325583Y341175D03*
X328733D03*
X335000Y338379D03*
X338200Y338380D03*
X454770Y339250D03*
X168620Y348410D03*
X213330Y344730D03*
X227420Y348770D03*
X227170Y346770D03*
X225420Y344660D03*
X229440Y348780D03*
X231440Y347650D03*
X230970Y345260D03*
X331579Y347387D03*
X333662Y349539D03*
X168620Y351210D03*
X319244Y351033D03*
X422240Y352780D03*
X180500Y357590D03*
X213310Y358220D03*
X231170Y361490D03*
X291840Y360273D03*
X294890Y359290D03*
X362670Y357440D03*
X366180Y357600D03*
X391100Y358230D03*
X393230Y358760D03*
X397110Y360790D03*
X394980Y359760D03*
X273290Y363250D03*
X290620Y363280D03*
X297812Y366161D03*
X312710Y364050D03*
X318572Y366341D03*
X314510Y362820D03*
X346032Y366381D03*
X356550Y363950D03*
X358540Y364600D03*
X370570Y366570D03*
X373770Y363080D03*
X378740Y362700D03*
X176650Y369950D03*
X297800Y368180D03*
X297880Y370270D03*
X318550Y368370D03*
X318610Y370460D03*
X336060Y368720D03*
X345970Y368400D03*
X346080Y370500D03*
X362530Y370330D03*
X384760Y371630D03*
X391240Y370600D03*
X401340Y370410D03*
X412613Y370019D03*
X422200Y372170D03*
X311810Y375910D03*
X320150Y376070D03*
X393670Y374510D03*
X271740Y383320D03*
X277490Y382210D03*
X288770Y383140D03*
X296080Y380540D03*
X310310Y380550D03*
X360354Y380582D03*
X397130Y380900D03*
X400354Y384090D03*
X410370Y382400D03*
X420350Y380590D03*
X167210Y387900D03*
X381260Y391170D03*
X385440Y387160D03*
X390410Y390530D03*
X394770Y391670D03*
X305800Y395370D03*
X360380Y397420D03*
X370370Y397410D03*
X394220Y394750D03*
X396390Y396160D03*
X128090Y400920D03*
X137050Y401030D03*
X176640Y401980D03*
X260340Y402150D03*
X270250Y399040D03*
X280370Y399080D03*
X290290Y398830D03*
X422390Y398430D03*
X122260Y405050D03*
X132330Y405100D03*
X142120Y406870D03*
G54D33*
X148140Y403600D03*
G54D35*
X220354Y197066D03*
Y387066D03*
X430354D03*
X440354D03*
X430354Y397066D03*
X440354D03*
G54D40*
X170346Y276562D03*
G54D37*
X310354Y223790D03*
X320354D03*
X330354D03*
X340354D03*
X350354D03*
G54D36*
X230354Y197066D03*
X430354D03*
X440354D03*
X230354Y207066D03*
X430354D03*
X440354D03*
X230354Y387066D03*
Y397066D03*
G54D42*
X160346Y281562D03*
X170346Y286562D03*
X160346Y291562D03*
X170346Y296562D03*
X160346Y301562D03*
X170346Y306562D03*
X160346Y311562D03*
X170346Y316562D03*
X160346Y321562D03*
G54D41*
X119362Y282960D03*
Y315164D03*
G54D29*
X147803Y366944D03*
G54D30*
X123303D03*
G54D32*
X135346Y321562D03*
G54D39*
X147354Y268058D03*
Y330066D03*
G54D31*
X135346Y276562D03*
%LPD*%
G75*
G54D10*
X110960Y192350D03*
X105960Y197350D03*
X110960D03*
X105140Y206730D03*
X105130Y219280D03*
X105110Y227380D03*
X105190Y238410D03*
X110190Y249010D03*
X105190D03*
Y259010D03*
X110190D03*
X105190Y264010D03*
X108610Y262420D03*
X105190Y269010D03*
Y274010D03*
Y279010D03*
Y284010D03*
Y289010D03*
Y294010D03*
Y299010D03*
Y304010D03*
Y309010D03*
Y314010D03*
Y319010D03*
Y324010D03*
Y329010D03*
X109060Y330030D03*
X105190Y334010D03*
X110190D03*
X105190Y339010D03*
Y344010D03*
X110190D03*
X105190Y349010D03*
Y354010D03*
X110660Y353160D03*
X105190Y359010D03*
X110090Y358350D03*
X105190Y364010D03*
X110610Y369460D03*
X105190Y369010D03*
Y374010D03*
X110740Y375790D03*
X110650Y380190D03*
X105190Y379010D03*
X110550Y384490D03*
X105190Y384010D03*
X110640Y389530D03*
X105190Y389010D03*
X110690Y394320D03*
X106620Y398210D03*
X109240Y403520D03*
X115960Y187350D03*
X115990Y183280D03*
X111390Y187380D03*
X115960Y192350D03*
Y197350D03*
X115610Y259200D03*
X115580Y255700D03*
X114250Y277520D03*
X114280Y290530D03*
X114030Y285100D03*
X114280Y295530D03*
Y300530D03*
Y305530D03*
X114100Y312390D03*
X114040Y317680D03*
X114110Y323160D03*
X113890Y366060D03*
X116710Y369870D03*
X115010Y374190D03*
X115290Y379320D03*
Y384320D03*
Y389320D03*
Y394320D03*
X120290Y187290D03*
X120270Y183280D03*
X120290Y192290D03*
X121860Y295800D03*
Y290800D03*
Y300800D03*
Y305800D03*
X120460Y344020D03*
X120960Y354020D03*
X117350Y363170D03*
X120290Y379320D03*
Y384320D03*
Y389320D03*
X119030Y394360D03*
X119370Y412340D03*
X124350Y180430D03*
X126400Y270950D03*
X126420Y276350D03*
X126980Y281820D03*
X127110Y316690D03*
X125350Y326320D03*
X126160Y322050D03*
X125960Y344020D03*
Y339020D03*
Y349020D03*
Y354020D03*
X124760Y379500D03*
Y384500D03*
Y389500D03*
X124320Y395570D03*
X130240Y179810D03*
X132770Y185440D03*
Y190440D03*
Y200440D03*
Y195440D03*
X129760Y287350D03*
Y300770D03*
X134710Y309990D03*
X129620Y311880D03*
X130960Y344020D03*
X129790Y339860D03*
X130960Y349020D03*
Y354020D03*
Y359020D03*
Y364020D03*
Y369020D03*
Y374020D03*
X130610Y377740D03*
X129200Y414310D03*
X132700D03*
X135240Y179810D03*
X140240D03*
X138580Y185240D03*
X140950Y191600D03*
X136290Y291410D03*
X135590Y301290D03*
X140040Y309670D03*
X135960Y349020D03*
Y354020D03*
Y359020D03*
Y364020D03*
Y369020D03*
Y374020D03*
X136150Y377780D03*
X139190Y414300D03*
X145240Y179810D03*
X144270Y186000D03*
X143950Y281360D03*
X142610Y286890D03*
X143830Y292790D03*
X141950Y301390D03*
X145040Y309670D03*
X145190Y316290D03*
X144710Y347140D03*
X141090Y347180D03*
X142310Y414330D03*
X150240Y179810D03*
X150840Y185260D03*
X150400Y193790D03*
X151560Y278800D03*
X152100Y286030D03*
X152570Y292830D03*
X149040Y301270D03*
X150040Y309670D03*
X151910Y322250D03*
X148210Y347120D03*
X147310Y414330D03*
X152310D03*
X155240Y179810D03*
X156370Y186150D03*
X158030Y194090D03*
X156190Y270560D03*
X156730Y275320D03*
X154490Y301130D03*
X155040Y309670D03*
X154160Y316270D03*
X158880Y327890D03*
X156150Y344900D03*
X155840Y409020D03*
X157310Y414330D03*
X160240Y179810D03*
X163680Y185490D03*
X163970Y272460D03*
X163760Y336950D03*
X160990Y408910D03*
X162220Y414330D03*
X165240Y179810D03*
X170240D03*
X169920Y185360D03*
X167400Y322670D03*
X166880Y327270D03*
X167220Y414330D03*
X175240Y179810D03*
X176030Y185260D03*
X173130Y271020D03*
X176040Y277210D03*
X174440Y321720D03*
X174200Y327160D03*
X171110Y408790D03*
X172220Y414330D03*
X180240Y179810D03*
X182270Y185410D03*
X180360Y278100D03*
X180200Y273260D03*
X179340Y283460D03*
X179780Y288700D03*
X178500Y295160D03*
X179860Y301730D03*
X178480Y307940D03*
X179640Y314850D03*
X179550Y321310D03*
X181170Y328930D03*
X177220Y414330D03*
X182220D03*
X185240Y179810D03*
X183990Y301600D03*
X183260Y317870D03*
X183190Y324700D03*
X185090Y355100D03*
X183850Y408860D03*
X187220Y414330D03*
X190090Y179800D03*
X190840Y312330D03*
X190450Y320870D03*
X194300Y342630D03*
X192220Y414330D03*
X200090Y179800D03*
X195090D03*
X195550Y326480D03*
X197540Y414310D03*
X205090Y179800D03*
X202540Y414310D03*
X210090Y179800D03*
X207540Y414310D03*
X212540D03*
X215090Y179800D03*
X218690Y185110D03*
X217860Y408830D03*
X217540Y414310D03*
X220090Y179800D03*
X223660Y185110D03*
X222550Y189950D03*
X222540Y414310D03*
X230090Y179800D03*
X225090D03*
X229220Y185120D03*
X229920Y408630D03*
X227540Y414310D03*
X235090Y179800D03*
X232460Y414310D03*
X240090Y179800D03*
X237460Y414310D03*
X242460D03*
X245090Y179800D03*
X244820Y409060D03*
X247460Y414310D03*
X250990Y179800D03*
X252460Y414310D03*
X255990Y179800D03*
X257460Y414310D03*
X260990Y179800D03*
X265990D03*
X264480Y409040D03*
X262460Y414310D03*
X266650D03*
X270990Y179800D03*
X270500Y359470D03*
X271650Y414310D03*
X275990Y179800D03*
X276650Y414310D03*
X280990Y179800D03*
X281390Y409020D03*
X281970Y414290D03*
X285990Y179800D03*
X286970Y414290D03*
X290990Y179800D03*
X295990D03*
X291970Y414290D03*
X300990Y179800D03*
X296970Y414290D03*
X301970D03*
X305990Y179800D03*
X306970Y414290D03*
X312090Y179790D03*
X313070Y409080D03*
X311970Y414290D03*
X317090Y179790D03*
X316890Y414290D03*
X322090Y179790D03*
X325600Y409050D03*
X321890Y414290D03*
X327090Y179790D03*
X332090D03*
X326890Y414290D03*
X331890D03*
X337090Y179790D03*
X336430Y408960D03*
X336890Y414290D03*
X342090Y179790D03*
X341890Y414290D03*
X347090Y179790D03*
X346890Y414290D03*
X352090Y179790D03*
X353900Y408980D03*
X352320Y414300D03*
X357090Y179790D03*
X362090D03*
X357320Y414300D03*
X362320D03*
X367090Y179790D03*
X367640Y414280D03*
X372380Y179800D03*
X373790Y409060D03*
X372640Y414280D03*
X377380Y179800D03*
X376710Y279250D03*
X377640Y414280D03*
X382380Y179800D03*
X383480Y185140D03*
X383780Y283330D03*
Y408910D03*
X382640Y414280D03*
X387380Y179800D03*
X392380D03*
X387640Y414280D03*
X392640D03*
X397380Y179800D03*
X394070Y282470D03*
X394360Y408840D03*
X397640Y414280D03*
X402380Y179800D03*
X404350Y185190D03*
X404070Y408990D03*
X402560Y414280D03*
X407380Y179800D03*
X407560Y414280D03*
X412380Y179800D03*
X414990Y185190D03*
X414580Y408860D03*
X412560Y414280D03*
X417380Y179800D03*
X422380D03*
X417560Y414280D03*
X422560D03*
X427380Y179800D03*
X427560Y414280D03*
X432380Y179800D03*
X430280Y185280D03*
X430070Y406720D03*
X434390Y413560D03*
X436620Y185210D03*
X438980Y402620D03*
X441090Y181170D03*
X440750Y190450D03*
X443910Y221560D03*
X443920Y376140D03*
X443130Y403330D03*
X441350Y412390D03*
X446700Y182580D03*
X451970Y184670D03*
X449090Y227490D03*
X450030Y409880D03*
X457040Y187330D03*
X457690Y405410D03*
X462210Y191090D03*
X460060Y231030D03*
X466430Y195290D03*
X468040Y230590D03*
X469980Y394650D03*
X465000Y400130D03*
X470750Y200390D03*
X474650Y208090D03*
X473320Y223440D03*
X473120Y230640D03*
X474340Y237070D03*
X472780Y302310D03*
X472100Y311300D03*
X472780Y362840D03*
X472460Y370750D03*
X475710Y384800D03*
X478070Y216250D03*
X479730Y223440D03*
X480280Y235160D03*
X480350Y239710D03*
Y244710D03*
Y249710D03*
Y254710D03*
Y259710D03*
X480400Y264770D03*
Y269770D03*
Y274770D03*
Y279770D03*
X480330Y289260D03*
X480260Y298590D03*
Y308590D03*
Y303590D03*
Y313590D03*
X480400Y323430D03*
X480310Y333380D03*
X480400Y344130D03*
X480420Y356310D03*
X479960Y362540D03*
X480260Y370830D03*
X478250Y378310D03*
G54D11*
X109152Y201982D03*
Y253793D03*
G54D20*
X160346Y281562D03*
Y291562D03*
Y301562D03*
Y311562D03*
Y321562D03*
X170346Y276562D03*
Y286562D03*
Y296562D03*
Y306562D03*
Y316562D03*
G54D21*
X200354Y202066D03*
Y392066D03*
X460354Y214566D03*
Y379566D03*
G54D12*
X119362Y272960D03*
Y282960D03*
Y315164D03*
Y325164D03*
G54D13*
X118140Y399604D03*
Y407596D03*
X148140Y403600D03*
G54D22*
X220354Y197066D03*
Y387066D03*
X230354Y197066D03*
Y207066D03*
Y387066D03*
Y397066D03*
X430354Y197066D03*
Y207066D03*
Y387066D03*
Y397066D03*
X440354Y197066D03*
Y207066D03*
Y387066D03*
Y397066D03*
G54D14*
X119782Y200604D03*
Y255132D03*
G54D23*
X220354Y207066D03*
Y397066D03*
G54D15*
X121650Y214950D03*
X121370Y224830D03*
X122020Y228260D03*
X120930Y228000D03*
X121380Y231490D03*
X120460Y243000D03*
X118830Y242390D03*
X120200Y245240D03*
X126720Y209220D03*
X122330Y216970D03*
X123120Y220310D03*
X123220Y224580D03*
X127346Y235791D03*
X124150Y239330D03*
X122540Y239880D03*
X124900Y247390D03*
X128130Y394970D03*
X123190Y400690D03*
X128090Y400920D03*
X125190Y409670D03*
X127280Y409690D03*
X122260Y405050D03*
X128560Y210840D03*
X130130Y214578D03*
X133618Y218918D03*
X130130Y218911D03*
Y223244D03*
Y227077D03*
X130220Y232910D03*
X130130Y230410D03*
X128560Y249260D03*
X131250Y253340D03*
X133060Y401060D03*
X132330Y405100D03*
X136470Y211140D03*
X134820Y208580D03*
X134570Y214480D03*
X139320Y232440D03*
X136290Y230200D03*
X137400Y252600D03*
X135720Y393980D03*
X137050Y401030D03*
X137900Y406110D03*
X141520Y198491D03*
X142600Y211170D03*
X145410Y208730D03*
X142020Y214760D03*
X140618Y218918D03*
X141520Y235791D03*
X141930Y253730D03*
X142870Y394500D03*
X142120Y406870D03*
X147790Y198180D03*
X149310Y202199D03*
X150730Y211020D03*
X148550Y214900D03*
X147618Y218918D03*
X149580Y239679D03*
X149780Y247020D03*
X149590Y243330D03*
X148160Y250080D03*
X149650Y252920D03*
X147700Y254010D03*
X151960Y253960D03*
X152100Y384420D03*
X149050Y388390D03*
X149440Y407310D03*
X155480Y197920D03*
X157430Y205030D03*
X156000Y215080D03*
X154618Y218918D03*
X152510Y235030D03*
X158050Y237970D03*
X157960Y238790D03*
X156940Y238010D03*
X156930Y238920D03*
X157940Y239630D03*
X156920Y239800D03*
Y240650D03*
X157810Y240450D03*
X156890Y241610D03*
X153970Y253880D03*
X155080Y381360D03*
X153630Y396430D03*
X157350Y399310D03*
X153890Y403000D03*
X161500Y197700D03*
X162070Y211060D03*
X162480Y214970D03*
X161618Y218918D03*
X158900Y233970D03*
X160490Y238800D03*
X161670Y242010D03*
X160400Y236560D03*
X164140Y236550D03*
X163843Y251359D03*
X163800Y252350D03*
X163830Y250410D03*
X160180Y256660D03*
X158580Y347730D03*
X161170Y372370D03*
X163760Y372260D03*
X163720Y375420D03*
X161290Y375240D03*
X161330Y378670D03*
X163760Y378760D03*
X159010Y393900D03*
X163180Y392560D03*
X158200Y392190D03*
X162710Y400320D03*
X164140Y403280D03*
X159640Y406780D03*
X168800Y204900D03*
X165330Y233900D03*
X165990Y239740D03*
X166030Y237640D03*
X166150Y242090D03*
X167386Y251359D03*
X167540Y262880D03*
X167990Y333800D03*
X168620Y348410D03*
Y351210D03*
X167190Y372220D03*
X167150Y375380D03*
X167190Y378720D03*
X166690Y383080D03*
X167740Y383030D03*
X167210Y387900D03*
X165670Y398150D03*
X164350Y406950D03*
X171470Y213870D03*
Y219760D03*
X171590Y241830D03*
X173040Y241820D03*
X173020Y243110D03*
X171610Y243120D03*
X172690Y256700D03*
X172300Y340750D03*
X170290Y341530D03*
X176055Y348310D03*
X173422D03*
X170390Y395110D03*
X178000Y200500D03*
X181740Y207710D03*
X176530Y217820D03*
X179430Y223100D03*
X176350Y225420D03*
X180390Y231220D03*
X176290Y241780D03*
X177830Y253920D03*
X181550Y257180D03*
X178910Y262710D03*
X180080Y270010D03*
X182070Y280240D03*
X181099Y295126D03*
Y307974D03*
X181336Y332913D03*
X176800Y333780D03*
X178870Y339530D03*
X181520Y339620D03*
X178790Y342790D03*
X181460Y344390D03*
X178680Y348800D03*
X180500Y357590D03*
X176650Y369950D03*
X176580Y374820D03*
X176640Y401980D03*
X178300Y408150D03*
X183070Y189970D03*
X187150Y239580D03*
X186190Y245330D03*
X182300Y263330D03*
X186080Y277270D03*
X184643Y295126D03*
Y307974D03*
X187090Y355870D03*
X182840Y383220D03*
X183450Y395410D03*
X183410Y401370D03*
X189040Y214760D03*
X190730Y216680D03*
X193090Y219140D03*
X193860Y226860D03*
X189930Y233350D03*
X188840Y252720D03*
X192180Y263230D03*
X192000Y277390D03*
X190030Y273510D03*
X188540Y280990D03*
X192620Y289080D03*
X191980Y298570D03*
X193750Y298610D03*
X191980Y306444D03*
X193950Y306470D03*
X191580Y316330D03*
X190480Y332900D03*
X192000Y342500D03*
X188850Y341700D03*
X189750Y341690D03*
X193990Y344960D03*
X194050Y346000D03*
X193210Y355220D03*
X194070Y355210D03*
X195140Y217480D03*
X198740Y244550D03*
X197300Y249580D03*
X197170Y263490D03*
X198130Y271500D03*
X199650Y273670D03*
X196850Y274110D03*
X197550Y289120D03*
X199610Y292870D03*
X199520Y290910D03*
X196210Y292890D03*
Y291780D03*
X197360Y299500D03*
X197290Y296390D03*
X197180Y302460D03*
Y305660D03*
X197030Y309180D03*
X196456Y312196D03*
X196460Y313280D03*
X199560Y314040D03*
X198250Y328322D03*
X197120Y331280D03*
X198250Y333822D03*
X197300Y337750D03*
X197800Y341880D03*
X198740Y346890D03*
X199210Y353610D03*
X201800Y217290D03*
X205190Y217420D03*
X205430Y229870D03*
X205730Y250980D03*
X204080Y254800D03*
X202490Y270310D03*
X204850Y272790D03*
X205920Y292890D03*
X200880Y299510D03*
X203730Y299590D03*
X200810Y296400D03*
X203660Y296480D03*
X200700Y302470D03*
Y305670D03*
X203550Y305750D03*
X200550Y309190D03*
X203400Y309270D03*
X201330Y316520D03*
X204348Y315530D03*
X203030Y319390D03*
X205910Y319380D03*
X200430Y324470D03*
X202690Y331190D03*
X206040Y336980D03*
X205920Y342040D03*
X204820Y341990D03*
X205920Y343060D03*
X204880Y343110D03*
X203810Y343090D03*
X203820Y342030D03*
X202910Y343080D03*
X202920Y342020D03*
X205580Y353950D03*
X207320Y222630D03*
X211290Y225460D03*
X206260Y244700D03*
X211030Y243650D03*
X211440Y251360D03*
X211860Y256100D03*
X206582Y263280D03*
X211430Y275660D03*
X207220Y273630D03*
X210570Y281780D03*
X209060Y292900D03*
X207490Y292880D03*
X210210Y299580D03*
X206700Y299510D03*
X210140Y296470D03*
X206630Y296400D03*
X206520Y302470D03*
X210030Y302540D03*
Y305740D03*
X206520Y305670D03*
X209880Y309260D03*
X206370Y309190D03*
X210130Y318490D03*
X207488Y315600D03*
X209060Y319380D03*
X210637Y315600D03*
X211920Y325250D03*
X206700Y324770D03*
X206770Y329310D03*
X206920Y343080D03*
X206930Y342030D03*
X216850Y187720D03*
X213260Y214350D03*
X212950Y230870D03*
X213570Y264310D03*
X216340Y276410D03*
X216360Y277530D03*
X212930Y280670D03*
X214653Y298613D03*
X216930Y301370D03*
X216981Y297493D03*
X215570Y298660D03*
X214590Y297050D03*
X215520Y297010D03*
X216980Y303601D03*
X216930Y306241D03*
X212340Y312130D03*
X212350Y313150D03*
X216980Y310900D03*
Y308567D03*
X218050Y325480D03*
X217460Y322920D03*
X216570Y322910D03*
X213330Y344730D03*
X213310Y358220D03*
X216230Y404160D03*
X216360Y406700D03*
X221490Y185580D03*
X223230Y228830D03*
X220790Y256250D03*
X222750Y264110D03*
X219340Y269520D03*
X222850Y281760D03*
X222680Y278330D03*
X219940Y312850D03*
Y315040D03*
X222910Y315020D03*
X222160Y320530D03*
X222300Y330390D03*
X222520Y340320D03*
X221490Y340000D03*
X221870Y402990D03*
X221750Y406540D03*
X221700Y409680D03*
X226780Y185410D03*
X224750Y217600D03*
X224220Y238750D03*
X228980Y260980D03*
X224850Y260890D03*
X226820Y272760D03*
X227060Y291710D03*
X225420Y295790D03*
X224444Y301000D03*
Y297500D03*
Y306241D03*
Y303608D03*
X224410Y310920D03*
X224444Y308574D03*
X228830Y313640D03*
X226890Y320050D03*
X228490Y329530D03*
X229500Y336000D03*
X228350Y335860D03*
X229510Y338160D03*
X226460Y339940D03*
X227560Y342920D03*
X229350Y342970D03*
X227420Y348770D03*
X227170Y346770D03*
X225420Y344660D03*
X229440Y348780D03*
X226100Y402950D03*
X226030Y406360D03*
X226170Y409490D03*
X233680Y244350D03*
X231100Y277120D03*
X232180Y286690D03*
X232930Y293590D03*
X233950Y297480D03*
X231270Y301150D03*
X235370Y301910D03*
X231300Y307370D03*
X231280Y304560D03*
X235470Y305800D03*
X231280Y312490D03*
X231730Y316850D03*
X231080Y315660D03*
X235470Y314180D03*
X232450Y345350D03*
X231440Y347650D03*
X230970Y345260D03*
X231170Y361490D03*
X231410Y404960D03*
X236520Y185010D03*
X240540Y193450D03*
X238230Y233870D03*
X241430Y256330D03*
X236650Y299230D03*
X239030Y302920D03*
X236380Y306770D03*
X236130Y304050D03*
X240260Y309380D03*
X236450Y311860D03*
X236550Y309880D03*
X237840Y310861D03*
X236280Y313170D03*
X236440Y308560D03*
X236850Y317440D03*
X240240Y314700D03*
X236190Y315220D03*
X236590Y326880D03*
X240690Y337650D03*
X239930Y337000D03*
X242060Y339040D03*
X241430Y338360D03*
X237870Y360740D03*
X237860Y362990D03*
X241680Y365730D03*
X240670Y367560D03*
X241990Y369380D03*
X241920Y373010D03*
X240640Y371330D03*
X236130Y408870D03*
X241650Y409100D03*
X242570Y184810D03*
X243415Y198234D03*
X242820Y222080D03*
X246320Y227720D03*
X246380Y226620D03*
X245380Y234880D03*
Y233880D03*
X247860Y244680D03*
X246230Y330470D03*
X245930Y342870D03*
X245290Y342190D03*
X244650Y341610D03*
X243950Y340980D03*
X243310Y340400D03*
X242720Y339690D03*
X247940Y409310D03*
X252280Y184890D03*
X250450Y192000D03*
X253880Y233270D03*
Y234270D03*
X253770Y237880D03*
X253750Y238820D03*
X250510Y258750D03*
X248270Y280650D03*
X252220Y300430D03*
X252110Y315130D03*
X250650Y318670D03*
X249170Y323510D03*
X250950Y337900D03*
X248530Y334520D03*
X253630Y342070D03*
X252630D03*
X253650Y353100D03*
X251530Y353150D03*
X253940Y358250D03*
X251820Y358300D03*
X250354Y403930D03*
X250350Y404940D03*
X251370Y404960D03*
Y403940D03*
X252350Y403920D03*
X252330Y404950D03*
X253360Y404960D03*
X253280Y403900D03*
X257480Y195300D03*
X259010Y196465D03*
X258570Y228680D03*
X258600Y227800D03*
X258540Y233270D03*
Y232270D03*
X256510Y244160D03*
X256480Y245290D03*
X257510Y244160D03*
X257480Y245290D03*
X257050Y250850D03*
Y251850D03*
X257030Y256070D03*
Y257070D03*
X257010Y262710D03*
X256010D03*
X256980Y263840D03*
X255980D03*
X258010Y262710D03*
X257980Y263840D03*
X255500Y333470D03*
X256500D03*
X255180Y335940D03*
X258050Y338230D03*
X255030Y337960D03*
X257630Y342070D03*
X258630D03*
X256630D03*
X255630D03*
X254630D03*
X255730Y353110D03*
X257690Y353140D03*
X259390Y353090D03*
X259680Y358240D03*
X257980Y358290D03*
X256020Y358260D03*
X258310Y362710D03*
X255630Y409490D03*
X263280Y185310D03*
X260260Y191920D03*
X264190Y236180D03*
Y237180D03*
Y242600D03*
Y243600D03*
X264240Y248780D03*
Y249780D03*
X264590Y254760D03*
Y255760D03*
X263080Y267520D03*
X263800Y283200D03*
X262640Y306320D03*
X260540Y306930D03*
X262220Y311360D03*
X261030Y318710D03*
X264980Y329460D03*
X264930Y336370D03*
X261541Y335920D03*
X260120Y333190D03*
X261090Y333200D03*
X263030Y338240D03*
X264190Y352650D03*
X263470Y390670D03*
X260340Y402150D03*
X261690Y409420D03*
X271360Y185050D03*
X270350Y192320D03*
X266810Y222970D03*
X270130Y236040D03*
X271130D03*
X270100Y237170D03*
X271100D03*
X271030Y242710D03*
X270030D03*
X271000Y243840D03*
X270000D03*
X272030Y242710D03*
X272000Y243840D03*
X271060Y249130D03*
X270060D03*
X271030Y250260D03*
X270030D03*
X272030D03*
X271010Y254370D03*
X270010D03*
X269980Y255500D03*
X272010Y254370D03*
X271980Y255500D03*
X271320Y297740D03*
X268800Y312800D03*
X267370Y322370D03*
X266420Y322360D03*
X267360Y323500D03*
X266270D03*
X267330Y324630D03*
X266260Y324570D03*
X268187Y331838D03*
X266612D03*
Y330263D03*
X269761Y333413D03*
X271336D03*
Y334987D03*
X269761D03*
X266560Y335010D03*
X268180Y333450D03*
X268280Y335000D03*
X271410Y349970D03*
X266740Y361870D03*
X271740Y383320D03*
X270250Y399040D03*
X268810Y409470D03*
X273437Y194303D03*
X272130Y236040D03*
X272100Y237170D03*
X272060Y249130D03*
X276550Y261890D03*
X274390Y324310D03*
X273390D03*
X272390D03*
X276330Y320040D03*
X272150Y345530D03*
X273150D03*
X274150D03*
X273290Y363250D03*
X277790Y370410D03*
X277490Y382210D03*
X272660Y391010D03*
X276400Y409420D03*
X281650Y184800D03*
X280360Y192740D03*
X278430Y196303D03*
X280650Y226740D03*
X283040Y238860D03*
X282030Y254240D03*
X282000Y297600D03*
X278400Y322200D03*
X281530Y347540D03*
X281950Y358410D03*
X281730Y363560D03*
X279990Y374640D03*
X280310Y391070D03*
X280370Y399080D03*
X287480Y266740D03*
X285840Y281580D03*
X288600Y298220D03*
X287480Y306730D03*
X288800Y316400D03*
X288000Y314400D03*
X284490Y319450D03*
X288540Y346930D03*
X287850Y366530D03*
X284490Y369740D03*
X289860Y368510D03*
X287860Y368530D03*
X288770Y383140D03*
X285880Y390970D03*
X285290Y409610D03*
X295240Y184870D03*
X293140Y196585D03*
X291640Y201570D03*
X295870Y242820D03*
X295600Y295200D03*
Y291400D03*
X291000Y310200D03*
X294000Y318400D03*
X294760Y324280D03*
X295790Y325460D03*
X293030Y321280D03*
X294650Y326550D03*
X290980Y331600D03*
X292380Y328820D03*
X295750Y331770D03*
X294750D03*
Y332770D03*
X295750D03*
X294270Y338360D03*
X295270D03*
Y339360D03*
X294270D03*
X292440Y347550D03*
X294370Y346440D03*
X295220Y346430D03*
X294410Y345360D03*
X295270Y345320D03*
X293000Y354520D03*
X291840Y360273D03*
X294890Y359290D03*
X293280Y362000D03*
X290620Y363280D03*
X293770Y368526D03*
X291800Y368560D03*
X291780Y391040D03*
X290290Y398830D03*
X299940Y196740D03*
X296280Y226480D03*
X299870Y255470D03*
X297400Y295200D03*
Y291400D03*
X301000Y318200D03*
X298400Y318400D03*
X296200D03*
X301449Y314661D03*
X296710Y324270D03*
X296200Y320600D03*
X298400D03*
X300400Y328000D03*
X301420Y330180D03*
X296960Y326610D03*
X296750Y331770D03*
Y332770D03*
X296270Y338360D03*
Y339360D03*
X301400Y339600D03*
X296160Y346440D03*
X296190Y345300D03*
X299812Y366162D03*
X297812Y366161D03*
X301630Y370500D03*
X297800Y368180D03*
X297880Y370270D03*
X296080Y380540D03*
X296950Y391180D03*
X305350Y184760D03*
X305130Y195470D03*
X306990Y236370D03*
X305940Y249390D03*
X306840D03*
X305380Y248340D03*
X306680Y248310D03*
X306726Y255767D03*
Y256767D03*
X305726Y255767D03*
Y256767D03*
X303092Y262890D03*
X304172D03*
X303162Y261000D03*
X304162D03*
X304172Y263890D03*
X303092D03*
X304162Y262000D03*
X303162D03*
X302030Y272440D03*
X306000Y302500D03*
Y309600D03*
X306920Y316470D03*
X303453Y316535D03*
X303513Y314665D03*
X307043Y314675D03*
X305243D03*
X304303Y331459D03*
X306190Y331450D03*
X307140Y334200D03*
X305540D03*
X306340D03*
X304300Y343870D03*
X304250Y342480D03*
X302540Y342410D03*
X302620Y343960D03*
X303620Y346350D03*
X303030Y352260D03*
X304540Y359000D03*
X305240Y364270D03*
X305800Y395370D03*
X310400Y192180D03*
X310842Y195048D03*
X313612Y196623D03*
X309450Y240870D03*
Y241870D03*
X310350D03*
Y240870D03*
X309734Y252675D03*
Y254675D03*
X312294Y255194D03*
X313393Y261089D03*
Y262089D03*
Y263089D03*
Y264089D03*
X312393Y261089D03*
Y262089D03*
Y263089D03*
Y264089D03*
X311393D03*
Y263089D03*
Y262089D03*
Y261089D03*
X309689Y268591D03*
Y270591D03*
X309975Y275647D03*
X311975D03*
X308400Y281800D03*
X311000Y300800D03*
Y305800D03*
X312690Y313530D03*
X311700Y313438D03*
X312000Y309640D03*
X310200Y313100D03*
X311780Y311961D03*
X313870Y313650D03*
X309330Y316828D03*
X312480Y317730D03*
X311640Y317100D03*
X312900Y314580D03*
X313110Y315630D03*
Y316680D03*
X311560Y315288D03*
X312060Y319830D03*
X309540Y319269D03*
X308400Y323350D03*
X312270Y321689D03*
X310400Y323280D03*
X308415Y321474D03*
X309700Y330946D03*
X308500Y331000D03*
X312680Y328480D03*
X310200Y328394D03*
X309400D03*
X313500Y328400D03*
Y332500D03*
X310950Y333970D03*
X310150D03*
X311750D03*
X309760Y342890D03*
X308130Y343810D03*
X311390Y338190D03*
X310180Y341690D03*
X312800Y338200D03*
Y340000D03*
X313000Y342119D03*
X312920Y344070D03*
X310400Y347800D03*
X308520Y348800D03*
X311840Y348900D03*
X312850Y348800D03*
X313140Y347960D03*
X311810Y347810D03*
X313450Y352100D03*
X312590Y352140D03*
X312550Y353220D03*
X313400Y353210D03*
X309840Y353220D03*
X310360Y357850D03*
X310100Y361211D03*
X312710Y364050D03*
X308410Y362090D03*
X310510Y368810D03*
X308530D03*
X312490Y368820D03*
X311810Y375910D03*
X310310Y380550D03*
X316740Y184940D03*
X317210Y236290D03*
X316770Y241360D03*
X318070D03*
X315090Y245925D03*
X319370Y245920D03*
X317510Y245910D03*
X318070Y242860D03*
X316770D03*
X314490Y255430D03*
X317390Y276000D03*
Y278090D03*
X316800Y287000D03*
X318800Y303400D03*
X319830Y307689D03*
X315600Y303600D03*
X319200Y311500D03*
X314123Y311959D03*
X317960Y309798D03*
X318010Y313320D03*
X319790Y313130D03*
X315400Y309400D03*
X319830Y309689D03*
X317830Y308080D03*
X316000Y315200D03*
X315980Y316990D03*
X315810Y319160D03*
X314500Y318000D03*
X319800Y314420D03*
X319300Y316330D03*
X318300Y316950D03*
X317840Y318840D03*
X318270Y315060D03*
X314560Y319790D03*
X314400Y315300D03*
X314370Y314450D03*
X314359Y321581D03*
X314000Y325000D03*
X318401Y324610D03*
X318580Y322450D03*
X316150Y325420D03*
X316070Y330370D03*
X318181Y326500D03*
X318400Y328618D03*
X318000Y330700D03*
X316189Y328710D03*
X315990Y332160D03*
X319250Y332400D03*
X316300Y334881D03*
X319300Y335169D03*
X314870Y336502D03*
X314930Y338312D03*
X316200Y342219D03*
X319290Y340940D03*
X316130Y344060D03*
X319230Y344090D03*
X317097Y345876D03*
X317044Y347796D03*
X313990Y348900D03*
X314070Y347940D03*
X319097Y345876D03*
X319044Y347796D03*
X317020Y351000D03*
X314370Y352080D03*
X314340Y353220D03*
X319244Y351033D03*
X316490Y357490D03*
X318572Y366341D03*
X314510Y362820D03*
X314478Y368784D03*
X318550Y368370D03*
X318610Y370460D03*
X316740Y389900D03*
X320260Y192930D03*
X324200Y243350D03*
X325230Y246630D03*
X322200Y243250D03*
X320849Y252980D03*
X325250Y248990D03*
X322864Y253133D03*
X322790Y254810D03*
X324809Y254913D03*
X324648Y274231D03*
X325081Y277504D03*
X322648Y274231D03*
X325109Y279571D03*
X321840Y278510D03*
X322151Y282045D03*
X324800Y288800D03*
X320800Y294200D03*
X325800Y292200D03*
X320800Y299200D03*
X325520Y296520D03*
X323900Y307610D03*
X324041Y305858D03*
X321760Y306030D03*
X321770Y307620D03*
X321756Y303400D03*
X325800Y306200D03*
X325860Y307750D03*
X320600Y311500D03*
X323880Y309600D03*
X324500Y311700D03*
X323300Y311800D03*
X321900D03*
X321790Y312830D03*
X323600Y313200D03*
X325900Y311600D03*
X325200Y313200D03*
X321900Y310000D03*
X325740Y310230D03*
X325100Y319020D03*
X320700Y318809D03*
X322000Y314600D03*
X321800Y317000D03*
X325800Y317200D03*
X324000Y317400D03*
X322070Y318781D03*
X325801Y314961D03*
X324039Y314600D03*
X323500Y322500D03*
X322370Y321020D03*
X320900Y322500D03*
X323407Y324349D03*
X320620Y324650D03*
X325106Y320856D03*
X320570Y321060D03*
X325801Y326981D03*
X325640Y330640D03*
X324100Y327400D03*
X323801Y328980D03*
X323701Y330880D03*
X325935Y328935D03*
X321300Y330220D03*
X320400Y326700D03*
X321800Y326900D03*
X323897Y334953D03*
X321310Y332130D03*
X325575Y332815D03*
X323890Y333310D03*
X324074Y336810D03*
X321200Y336900D03*
X322410Y343150D03*
X324310Y339000D03*
X321170Y339060D03*
X325510Y343130D03*
X322560Y341190D03*
X325583Y341175D03*
X321440Y354550D03*
X320612Y366301D03*
X324730Y367820D03*
X320140Y364200D03*
X322390Y370680D03*
X320150Y376070D03*
X321030Y390000D03*
X323860Y395140D03*
X325240Y394550D03*
X328130Y184900D03*
X329540Y192590D03*
X328114Y195846D03*
X330059Y245882D03*
X327646Y258493D03*
Y260493D03*
X326050Y299460D03*
X331600Y305200D03*
X328200Y305940D03*
X331510Y306870D03*
D03*
X329790Y305330D03*
X329771Y306860D03*
X326320Y303836D03*
X331550Y309160D03*
X330750D03*
X328110Y309740D03*
X327780Y308360D03*
X329100Y312900D03*
X328600Y311500D03*
X327400D03*
X326800Y313200D03*
X328000Y313400D03*
X330000D03*
X331710Y313750D03*
X330650Y311100D03*
X327350Y317400D03*
X331479Y319840D03*
X329160Y319049D03*
X326950Y319139D03*
X328200Y319200D03*
X330400D03*
X331001Y317490D03*
X331710Y314550D03*
X327601Y315077D03*
X326601Y314961D03*
X331070Y323050D03*
X329900Y324100D03*
Y325200D03*
X329910Y323190D03*
X326260Y322620D03*
X331440Y325130D03*
X326323Y324577D03*
X326950Y320839D03*
X329760Y321121D03*
X331600Y321400D03*
X330800Y321121D03*
X328790Y327000D03*
X331600Y331600D03*
Y330600D03*
X331440Y326230D03*
X328610Y329000D03*
X329900Y333700D03*
X328790Y334070D03*
X328675Y332005D03*
X327514Y336810D03*
X329360Y336930D03*
X328870Y343120D03*
X327410Y339080D03*
X328733Y341175D03*
X331579Y349387D03*
Y347387D03*
X329780Y353160D03*
X328210Y390370D03*
X333370Y196455D03*
X334450Y235950D03*
X337130Y243880D03*
Y244880D03*
X336230D03*
Y243880D03*
X336160Y252240D03*
Y251240D03*
X337060Y252240D03*
Y251240D03*
X333600Y297600D03*
X334570Y305220D03*
X336290Y306840D03*
X336281Y305330D03*
X335430Y313730D03*
X333176Y311184D03*
X335700Y311260D03*
X335400Y319300D03*
X333200Y317770D03*
X333520Y315120D03*
Y314120D03*
X335000Y318000D03*
X337750Y315960D03*
X336930Y318190D03*
X335430Y314530D03*
X333479Y319660D03*
X336920Y322420D03*
X336630Y320460D03*
X332250Y325220D03*
X336920Y324420D03*
X334950Y323400D03*
X332600Y331600D03*
Y330600D03*
X336200Y330020D03*
X336300Y326220D03*
X332250Y326020D03*
X336300Y328120D03*
X332380Y333730D03*
X336317Y335783D03*
X334700Y333840D03*
X335400Y332000D03*
X336320Y333720D03*
X335120Y340340D03*
X335000Y338379D03*
X334800Y344800D03*
X333662Y349539D03*
Y351539D03*
X332810Y358110D03*
X332920Y366620D03*
X336060Y368720D03*
X334520Y390640D03*
X339620Y184480D03*
X340310Y193140D03*
X343216Y244400D03*
X342799Y248591D03*
X342442Y274241D03*
X340442D03*
X339800Y297600D03*
X338330Y305200D03*
X338360Y307030D03*
X341700Y305119D03*
Y307519D03*
X339800Y302600D03*
X341260Y309390D03*
X337990Y309420D03*
X340800Y311284D03*
X338600D03*
X342350Y311290D03*
X342500Y318000D03*
X338060Y314010D03*
X342000Y314990D03*
Y314190D03*
X343300Y318000D03*
X339380Y318250D03*
X339760Y314740D03*
Y315540D03*
X339700Y322200D03*
X338500D03*
X343600Y322050D03*
X340370Y320280D03*
X340220Y324060D03*
X339550Y320220D03*
X339420Y324060D03*
X343030Y324250D03*
X343830D03*
X343820Y320290D03*
X338500Y328900D03*
X340940Y328930D03*
X341740D03*
X339840Y330880D03*
X340100Y327250D03*
X339300D03*
X339040Y330880D03*
X342900Y326830D03*
X343700D03*
X343240Y330700D03*
X341113Y334777D03*
X341360Y336720D03*
X341190Y340390D03*
X338130Y340410D03*
X338200Y338380D03*
X341050Y338379D03*
X339160Y352360D03*
X341990Y368746D03*
X338080Y368670D03*
X340060Y368810D03*
X343370Y390470D03*
X345240Y196135D03*
X345216Y244400D03*
X348209Y250512D03*
X347537Y258996D03*
X346100Y255560D03*
X348159Y255430D03*
X345552Y258580D03*
X348612Y279283D03*
X348829Y283370D03*
X345850Y309230D03*
X344260Y309200D03*
X345350Y311210D03*
X346150D03*
X349150Y316570D03*
Y315770D03*
Y314970D03*
X349500Y319880D03*
X344100Y315580D03*
Y314780D03*
X344170Y319560D03*
X347270Y316260D03*
Y317060D03*
Y315460D03*
X349550Y322230D03*
X347750Y324820D03*
X349830Y325010D03*
X347380Y321020D03*
Y321820D03*
X347700Y326940D03*
X349200Y331290D03*
X349190Y328910D03*
X344140Y328930D03*
X344040Y330700D03*
X347530Y329250D03*
X347430Y330050D03*
Y330850D03*
X347731Y336950D03*
X349600Y334800D03*
X345790Y336970D03*
X344500Y341520D03*
X344710Y360790D03*
X348070Y366390D03*
X347810Y364190D03*
X346032Y366381D03*
X349850Y370720D03*
X345970Y368400D03*
X346080Y370500D03*
X349750Y389400D03*
X354840Y184830D03*
X350120Y193060D03*
X351290Y197430D03*
X353037Y244362D03*
X350365Y250596D03*
X353040Y258500D03*
X350975Y258542D03*
X350574Y266102D03*
X350526Y268159D03*
X355799Y277199D03*
X350820Y283370D03*
X350900Y279000D03*
X355834Y279204D03*
X353299Y310899D03*
X354299Y309899D03*
Y310899D03*
X353299Y309899D03*
X353300Y315200D03*
Y316700D03*
X354800D03*
Y315200D03*
X351700Y319900D03*
X351900Y325130D03*
X355540Y321400D03*
X350640Y327020D03*
X350200Y352600D03*
X355830Y361680D03*
X352500Y362910D03*
X354380Y363020D03*
X354600Y368530D03*
X352630Y368570D03*
X360030Y193480D03*
X356130Y236850D03*
X357987Y244456D03*
X355987D03*
X361169Y250948D03*
X361227Y259939D03*
X361124Y266316D03*
X361220Y275714D03*
X357879Y286907D03*
X358879D03*
X359879D03*
X360879D03*
Y285907D03*
X359879D03*
X358879D03*
X357879D03*
X360879Y284907D03*
X359879D03*
X358879D03*
X357879D03*
X357460Y326670D03*
X357620Y352190D03*
X356550Y363950D03*
X358540Y364600D03*
X358488Y368574D03*
X356519Y368670D03*
X360354Y380582D03*
X360380Y397420D03*
X363930Y184730D03*
X362640Y196035D03*
X366090Y238080D03*
X363320Y250940D03*
X365100Y253134D03*
X363157Y259957D03*
X365100Y255134D03*
X363124Y266338D03*
X363020Y275760D03*
X367535Y283767D03*
X366535D03*
X365535D03*
Y285767D03*
X366535D03*
X367535D03*
Y284767D03*
X366535D03*
X365535D03*
X365299Y310399D03*
X366299D03*
Y309399D03*
X365299D03*
X365100Y316800D03*
X366600D03*
Y315300D03*
X365100D03*
X362350Y321290D03*
X365930Y328250D03*
X367280Y352130D03*
X363410Y361610D03*
X362670Y357440D03*
X366180Y357600D03*
X364510Y366220D03*
X367710Y363640D03*
X362530Y366240D03*
X366300Y370570D03*
X362490Y368200D03*
X362530Y370330D03*
X362930Y389200D03*
X370520Y193020D03*
X369052Y196542D03*
X373210Y197130D03*
X373660Y223110D03*
X372600Y269400D03*
X372000Y272800D03*
X371800Y282600D03*
X368535Y283767D03*
X372200Y285200D03*
X368535Y285767D03*
Y284767D03*
X373853Y298724D03*
X369390Y323380D03*
X370990Y348280D03*
X373190Y357140D03*
X370570Y366570D03*
X373770Y363080D03*
X371050Y389700D03*
X370370Y397410D03*
X375240Y184760D03*
X376910Y221940D03*
X379140Y253540D03*
X375510Y261030D03*
X376600Y269800D03*
X375300Y267840D03*
X378830Y274700D03*
X377127Y298721D03*
X374990Y306390D03*
X377013Y306392D03*
X374600Y318460D03*
X375500D03*
X375690Y325360D03*
X379230Y328040D03*
X378181Y331296D03*
X376460Y337101D03*
X373969Y332324D03*
X374370Y337004D03*
X378803Y342531D03*
Y344531D03*
X376780Y347960D03*
X379680Y349680D03*
X377710Y353580D03*
X374060Y350400D03*
X379370Y359620D03*
X378740Y362700D03*
X378890Y378100D03*
X377130Y375230D03*
X381190Y193550D03*
X385630Y193240D03*
X385720Y197380D03*
X382770Y196160D03*
X384330Y223220D03*
X380740Y219260D03*
X380160Y240250D03*
X384650Y241080D03*
X382690Y238130D03*
X382710Y241010D03*
X380830Y242820D03*
X380940Y249270D03*
X385100Y249320D03*
Y251290D03*
X380340Y259350D03*
X385110Y270940D03*
X380170Y267300D03*
X384200Y278000D03*
X380660Y292826D03*
Y294826D03*
X380286Y305959D03*
Y303959D03*
X382940Y311590D03*
X382276Y314075D03*
X380076Y317977D03*
Y318977D03*
X381076Y317977D03*
Y318977D03*
X380276Y314075D03*
X380157Y323879D03*
Y321879D03*
X380165Y331159D03*
X382265Y331397D03*
X382333Y333534D03*
X385340Y347690D03*
X384760Y371630D03*
X381390Y378030D03*
X379900Y387850D03*
X381260Y391170D03*
X385440Y387160D03*
X385540Y393790D03*
X389000Y235390D03*
X385950Y237270D03*
X386650Y239540D03*
X386640Y242480D03*
X389060Y251230D03*
X386090Y250350D03*
X390990Y249290D03*
X389640Y259370D03*
X391020Y257020D03*
X390990Y261130D03*
X391000Y265090D03*
X391080Y268790D03*
X389030Y268980D03*
X389020Y270980D03*
X389080Y272900D03*
X387040Y272940D03*
X390980Y272910D03*
X387400Y284200D03*
X388410Y295440D03*
X387917Y296340D03*
X389599Y302599D03*
X387599D03*
X387960Y308150D03*
X387950Y310137D03*
X387310Y319570D03*
X390500Y315280D03*
X386644Y328964D03*
X386358Y331837D03*
X386653Y326865D03*
X388024Y334292D03*
X386550Y337410D03*
X386560Y339600D03*
X388201Y342435D03*
Y344435D03*
X388320Y359210D03*
X391100Y358230D03*
X387930Y366600D03*
X387760Y373410D03*
X391240Y368570D03*
Y370600D03*
X390410Y390530D03*
X393620Y222810D03*
X392800Y230580D03*
X392920Y238010D03*
X392690Y241740D03*
X392970Y247240D03*
X394170Y242420D03*
X393700Y244920D03*
X395360Y252530D03*
X392980Y249260D03*
X392960Y251290D03*
X394990Y254110D03*
X392530Y254540D03*
X391910Y271800D03*
X395990Y266250D03*
X393880Y269960D03*
X393900Y272040D03*
X392750Y277040D03*
X395267Y295196D03*
X394249Y295208D03*
X394220Y296461D03*
X395238Y296449D03*
X394024Y308957D03*
X397030Y311930D03*
X396024Y308957D03*
X392200Y326440D03*
X392410Y333400D03*
X396063Y337119D03*
X396030Y339380D03*
X394578Y342538D03*
Y344538D03*
X391890Y353080D03*
X396050Y350650D03*
X396640Y356710D03*
X393230Y358760D03*
X397110Y360790D03*
X394980Y359760D03*
X397158Y368634D03*
X393220Y368620D03*
X395200Y368640D03*
X393670Y374510D03*
X397130Y380900D03*
X394770Y391670D03*
X394220Y394750D03*
X396390Y396160D03*
X399710Y184840D03*
X398550Y196020D03*
X402120Y196350D03*
X403720Y223420D03*
X400120Y244390D03*
X400750Y261040D03*
X400890Y263090D03*
X398900Y265080D03*
X402170Y276410D03*
X401842Y291045D03*
X399842D03*
X401617Y302132D03*
X400080Y306262D03*
X401384Y304175D03*
X399689Y311259D03*
Y310259D03*
X402480Y317200D03*
X403490Y317480D03*
X403290Y318460D03*
X402490Y318140D03*
X403569Y342480D03*
X401480Y346350D03*
X403569Y344480D03*
X399560Y349760D03*
X401750Y349870D03*
X399383Y346411D03*
X400210Y360810D03*
X403220Y366287D03*
X402630Y364050D03*
X401260Y366280D03*
X401270Y368240D03*
X401340Y370410D03*
X399900Y374550D03*
X400354Y384090D03*
X403120Y388560D03*
X408250Y241290D03*
X407950Y237000D03*
X408140Y245690D03*
X408592Y296401D03*
X408609Y301507D03*
X408592Y298401D03*
X407390Y306740D03*
X408609Y303507D03*
X405390Y306740D03*
X408635Y311370D03*
X405430Y311670D03*
X408689Y318059D03*
X409689D03*
Y317059D03*
X408689D03*
X405926Y324110D03*
X403921Y329676D03*
Y331676D03*
X409370Y345080D03*
X406520Y350080D03*
X405070Y370630D03*
X409820Y374390D03*
X411960Y185200D03*
X410060Y193790D03*
X412942Y196803D03*
X411200Y222550D03*
X413700Y231400D03*
X414520Y245510D03*
X414260Y252150D03*
X411010Y260580D03*
X414520Y267630D03*
X412440Y276750D03*
X413040Y315650D03*
X410117Y324527D03*
X414730Y324450D03*
X410770Y331060D03*
X410660Y333450D03*
X415090Y332070D03*
X410061Y337298D03*
Y339298D03*
X412613Y370019D03*
X410370Y382400D03*
X412340Y388590D03*
X421780Y184890D03*
X417500Y193160D03*
X418110Y196480D03*
X421440Y262840D03*
X416280Y289030D03*
X417390Y299080D03*
X417430Y308280D03*
X416350Y340110D03*
X417210Y349210D03*
X419050Y373990D03*
X420350Y380590D03*
X419920Y388190D03*
X422090Y240020D03*
X425710Y250280D03*
X427410Y259310D03*
X427440Y258100D03*
X427430Y261370D03*
X425080Y333300D03*
X424650Y345320D03*
X422240Y352780D03*
X422200Y372170D03*
X426150Y391830D03*
X424940Y393130D03*
X422390Y398430D03*
X427970Y187040D03*
X428170Y223220D03*
X432680Y235050D03*
X428410Y258060D03*
X428450Y259250D03*
X433060Y262440D03*
X429270Y269780D03*
X432060Y277920D03*
X432970Y275020D03*
X428640Y284940D03*
X430610Y294840D03*
X430760Y307240D03*
X428340Y318050D03*
X428320Y326760D03*
X431640Y350010D03*
X429260Y373410D03*
X431190Y379840D03*
X428940Y374510D03*
X433840Y191010D03*
X436680Y242820D03*
X438250Y251740D03*
X438430Y269120D03*
X436030Y271370D03*
X439250Y280480D03*
X434040Y283500D03*
X436410Y292460D03*
X436490Y290480D03*
X436360Y306880D03*
X436980Y324360D03*
X436210Y350090D03*
X433970Y350070D03*
X438560Y350000D03*
X436290Y352290D03*
X439770Y360290D03*
X439670Y361540D03*
X438740Y361530D03*
X438770Y360210D03*
X438970Y376600D03*
X444390Y191500D03*
X443540Y212970D03*
X444750Y257845D03*
Y255345D03*
X440540Y275010D03*
X443120Y283570D03*
X440880Y283470D03*
X442950Y302180D03*
X440920Y319280D03*
X440260Y342970D03*
X441240Y342890D03*
X441170Y344110D03*
X440280Y344140D03*
X440970Y350050D03*
X442880Y367260D03*
X447580Y249270D03*
X449930Y253550D03*
X447650Y257845D03*
X449770Y256830D03*
X450970Y256760D03*
X450940Y257790D03*
X449650Y257845D03*
X445943Y264018D03*
X446010Y261780D03*
X446400Y269680D03*
X446020Y266140D03*
X449220Y271350D03*
X449680Y275740D03*
X449370Y279180D03*
X451500Y289679D03*
X451080Y293450D03*
X446790Y318180D03*
X449820Y349900D03*
X447130Y360720D03*
X448780Y367160D03*
X452280Y239850D03*
X452230Y251070D03*
X451800Y249310D03*
X453345Y264550D03*
X455840Y264350D03*
X455500Y289679D03*
X455650Y284500D03*
X455580Y293120D03*
X452240Y308450D03*
X452800Y319380D03*
X457030Y324160D03*
X454480Y329020D03*
X456150Y334280D03*
X455210Y343400D03*
X456320Y343490D03*
X454770Y339250D03*
X456740Y349890D03*
X456290Y344450D03*
X455170Y344420D03*
X454390Y349980D03*
X452150Y349960D03*
X455220Y354690D03*
X455680Y361780D03*
X456710D03*
X455640Y360750D03*
X456630Y360720D03*
X457860Y265170D03*
X459050Y265180D03*
X463410Y271430D03*
X457880Y266470D03*
X459060Y266460D03*
X460240Y277010D03*
X463280Y275930D03*
X463360Y273710D03*
X458930Y273680D03*
X460210Y279366D03*
X461220Y279450D03*
X461180Y280460D03*
X460150Y280520D03*
X459500Y289679D03*
X463500D03*
X458350Y286510D03*
X463470Y293310D03*
X458750Y293360D03*
X458780Y294260D03*
X457840Y293290D03*
X457860Y294230D03*
X460270Y299110D03*
X463760Y334730D03*
X459150Y349940D03*
X462950Y352810D03*
X462890Y363460D03*
X467060Y273510D03*
X467340Y287720D03*
X467790Y305290D03*
X463840Y318470D03*
X465200Y359920D03*
X467430Y363560D03*
X475588Y234527D03*
X470408Y269840D03*
X474140Y266360D03*
X473030Y269680D03*
X470408Y273383D03*
X473590Y273350D03*
X473000Y283590D03*
X476080Y276150D03*
X476440Y284540D03*
G54D24*
X310354Y223790D03*
X320354D03*
X330354D03*
X340354D03*
X350354D03*
G54D16*
X123303Y366944D03*
X147803D03*
G54D25*
X360354Y223790D03*
G54D26*
X476172Y293277D03*
Y317687D03*
G54D17*
X135303Y385066D03*
G54D27*
G01X109152Y199310D02*
Y201982D01*
G01D02*
Y204654D01*
G01Y201982D02*
X114876D01*
G01X109152Y251121D02*
Y253793D01*
G01D02*
Y256465D01*
G01Y253793D02*
X114876D01*
G01X119782Y196258D02*
Y200604D01*
G01X117110D02*
X119782D01*
G01Y255132D02*
Y259478D01*
G01X117110Y255132D02*
X119782D01*
G01D02*
X122454D01*
G01X118564Y366944D02*
X123303D01*
G01Y358268D02*
Y366944D01*
G01D02*
Y375620D01*
G01Y366944D02*
X128042D01*
G01X170346Y272610D02*
Y276562D01*
G01D02*
Y280514D01*
G01X166394Y276562D02*
X170346D01*
G01D02*
X174298D01*
G01X189709Y392066D02*
X200354D01*
G01Y191421D02*
Y202066D01*
G01D02*
X210999D01*
G01X200354Y392066D02*
Y402711D01*
G01Y392066D02*
X210999D01*
G01X216552Y197066D02*
X220354D01*
G01X216552Y207066D02*
X220354D01*
G01X216552Y387066D02*
X220354D01*
G01X216552Y397066D02*
X220354D01*
G01Y193264D02*
Y197066D01*
G01D02*
Y200868D01*
G01Y197066D02*
X224156D01*
G01X220354Y203264D02*
Y207066D01*
G01D02*
Y210868D01*
G01Y207066D02*
X224156D01*
G01X220354Y383264D02*
Y387066D01*
G01D02*
Y390868D01*
G01Y387066D02*
X224156D01*
G01X220354Y393264D02*
Y397066D01*
G01D02*
Y400868D01*
G01Y397066D02*
X224156D01*
G01X360354Y219238D02*
Y223790D01*
G01D02*
Y228342D01*
G01Y223790D02*
X364906D01*
G01X426552Y387066D02*
X430354D01*
G01X426552Y397066D02*
X430354D01*
G01Y383264D02*
Y387066D01*
G01D02*
Y390868D01*
G01Y387066D02*
X434156D01*
G01X430354Y393264D02*
Y397066D01*
G01D02*
Y400868D01*
G01Y397066D02*
X434156D01*
G01X440354Y383264D02*
Y387066D01*
G01D02*
Y390868D01*
G01X436552Y387066D02*
X440354D01*
G01D02*
X444156D01*
G01X440354Y393264D02*
Y397066D01*
G01D02*
Y400868D01*
G01X436552Y397066D02*
X440354D01*
G01D02*
X444156D01*
G01X449709Y214566D02*
X460354D01*
G01X449709Y379566D02*
X460354D01*
G01Y203921D02*
Y214566D01*
G01D02*
X470999D01*
G01X460354Y379566D02*
Y390211D01*
G01Y379566D02*
X470999D01*
G01X476172Y290506D02*
Y293277D01*
G01D02*
Y296048D01*
G01X471039Y293277D02*
X476172D01*
G01Y314916D02*
Y317687D01*
G01D02*
Y320458D01*
G01X471039Y317687D02*
X476172D01*
G54D18*
X135346Y276562D03*
Y321562D03*
G54D28*
G01X268187Y331838D02*
Y330497D01*
X266950Y329260D01*
X265180D01*
X264980Y329460D01*
G54D19*
X147354Y268058D03*
Y330066D03*
M02*
