M48
INCH
T01C.004
T02C.008
T03C.01575
T04C.03543
T05C.041
T06C.04134
T07C.04331
T08C.06693
T09C.17323
T10C.04724
T11C.12795
;LEADER: 12 
;HEADER: 
;CODE  : ASCII 
;FILE  : BEAGLEV-AHEAD V11_no_logo-1-5.drl for  ... layers TOP and L5_SIG
;DESIGN: BEAGLEV-AHEAD V11_no_logo.brd
;T01 Holesize 1. = 4.000000 Tolerance = +3.000000/-3.000000 PLATED MILS Quantity = 2218
%
G90
T01
X0388550Y0198810
X0382830Y0200320
X0252200Y0198760
X0246360Y0200690
X0284360Y0198640
X0278370Y0200430
X0420450Y0198900
X0414710Y0200390
X0338940Y0198610
X0333180Y0200200
X0305610Y0198872
X0299590Y0200530
X0194060Y0331950
X0289590Y0358650
X0195560Y0351470
X0129930Y0227150
X0197520Y0331600
X0290470Y0357930
X0442300Y0320750
X0291470Y0357450
X0410750Y0198410
X0377760Y0211000
X0374340Y0210440
X0288620Y0358020
X0159340Y0253880
X0458540Y0337665
X0457020Y0337630
X0458684Y0327065
X0460680Y0327010
X0275700Y0358320
X0284950Y0374490
X0274510Y0359880
X0468220Y0337780
X0462510Y0339610
X0262080Y0200440
X0267810Y0199030
X0321590Y0198440
X0315730Y0200210
X0229890Y0313100
X0229890Y0288640
X0228930Y0333040
X0229970Y0333050
X0189700Y0343050
X0188810Y0343080
X0403500Y0261290
X0284240Y0278490
X0424780Y0260290
X0423610Y0259120
X0424840Y0259110
X0423710Y0260180
X0459100Y0297380
X0458180Y0297370
X0457280Y0297340
X0456390Y0297390
X0232270Y0346633
X0232270Y0350560
X0468460Y0327190
X0462620Y0329020
X0230270Y0354770
X0380670Y0221830
X0378700Y0221850
X0294810Y0276830
X0379510Y0251400
X0404310Y0198550
X0398570Y0200280
X0355700Y0198840
X0349990Y0200290
X0231870Y0343560
X0153100Y0242950
X0153100Y0244840
X0153110Y0243910
X0154010Y0244850
X0155100Y0244820
X0133640Y0244430
X0132380Y0244400
X0132410Y0245310
X0133670Y0245340
X0132400Y0246180
X0133660Y0246210
X0132360Y0243500
X0132340Y0242570
X0133620Y0243530
X0133600Y0242600
X0155000Y0242990
X0154010Y0242960
X0154020Y0243920
X0155020Y0243910
X0453370Y0361760
X0454370Y0360710
X0453440Y0360670
X0454372Y0361770
X0232480Y0261610
X0210660Y0256640
X0210700Y0255530
X0208480Y0256610
X0208510Y0255580
X0209617Y0255482
X0209680Y0256610
X0188060Y0256530
X0188090Y0255600
X0189270Y0256530
X0189310Y0255480
X0190360Y0255460
X0190377Y0256522
X0260113Y0254256
X0256964Y0254256
X0260113Y0251106
X0263263Y0251106
X0256964Y0251106
X0263263Y0247956
X0263263Y0244807
X0263263Y0238508
X0263263Y0241657
X0260113Y0238508
X0260113Y0235358
X0263263Y0235358
X0260113Y0232208
X0263263Y0232208
X0256964Y0235358
X0253814Y0235358
X0253814Y0232208
X0250665Y0232208
X0241216Y0235358
X0373212Y0198502
X0367380Y0200240
X0192430Y0353720
X0414730Y0198390
X0396930Y0194090
X0394620Y0198330
X0400670Y0194620
X0398370Y0196660
X0402002Y0250420
X0286630Y0278420
X0380860Y0195270
X0293310Y0278330
X0400520Y0272280
X0401000Y0246380
X0288930Y0278420
X0382772Y0196888
X0404750Y0256030
X0281920Y0278330
X0365510Y0194860
X0402160Y0273900
X0291080Y0278330
X0383720Y0193878
X0213140Y0295180
X0213260Y0296380
X0365420Y0198270
X0370760Y0194160
X0365390Y0196570
X0346040Y0193662
X0347950Y0198410
X0351150Y0194360
X0303370Y0197690
X0347990Y0196670
X0378970Y0198380
X0335150Y0197130
X0333170Y0198220
X0330090Y0193660
X0329154Y0198186
X0320170Y0195790
X0315710Y0198220
X0312140Y0193460
X0311770Y0198220
X0297670Y0198560
X0278442Y0196838
X0295650Y0198570
X0280500Y0194520
X0462280Y0299150
X0296010Y0196590
X0454890Y0295800
X0275400Y0193940
X0452690Y0295080
X0274477Y0196643
X0288480Y0189620
X0288190Y0188530
X0261970Y0196770
X0252400Y0193530
X0258130Y0198450
X0241850Y0195110
X0261910Y0193350
X0246380Y0198710
X0456530Y0346400
X0455480Y0347390
X0455420Y0346420
X0456540Y0347350
X0444650Y0344160
X0444650Y0345250
X0445640Y0345220
X0445640Y0344220
X0388595Y0221994
X0382600Y0223700
X0197400Y0294370
X0196350Y0293870
X0199340Y0313130
X0199320Y0312180
X0276500Y0380790
X0213660Y0299980
X0214010Y0305720
X0213540Y0299090
X0365260Y0354690
X0274520Y0383330
X0200380Y0293330
X0199340Y0293550
X0194350Y0300640
X0194330Y0299630
X0195110Y0312860
X0193490Y0312750
X0193500Y0313640
X0195130Y0313740
X0194350Y0308370
X0194330Y0307504
X0366700Y0354810
X0287570Y0371820
X0286500Y0188250
X0285270Y0373390
X0284930Y0188320
X0282440Y0382550
X0286950Y0366550
X0287420Y0362170
X0269320Y0253750
X0269260Y0251050
X0234370Y0251650
X0327158Y0316335
X0335032Y0319485
X0319284Y0319485
X0327158Y0321060
X0328733Y0313184
X0328733Y0319485
X0325583Y0319485
X0314560Y0317910
X0314560Y0319485
X0391040Y0266460
X0312985Y0316330
X0153460Y0250990
X0251210Y0344450
X0228820Y0248430
X0252480Y0343600
X0229080Y0257190
X0280710Y0316180
X0288240Y0316220
X0245380Y0345370
X0237540Y0260000
X0240720Y0366090
X0253830Y0345650
X0243030Y0366400
X0301961Y0314760
X0404370Y0360150
X0457400Y0331010
X0402910Y0361110
X0459090Y0332620
X0439860Y0314830
X0311420Y0354140
X0305111Y0314760
X0306280Y0359810
X0327140Y0343110
X0368420Y0211720
X0368310Y0208090
X0317709Y0311611
X0386580Y0221630
X0377510Y0216590
X0439860Y0313430
X0311420Y0352576
X0439890Y0307450
X0312990Y0349386
X0439890Y0308850
X0312990Y0350950
X0314560Y0354120
X0439890Y0302800
X0314560Y0352556
X0439890Y0301400
X0439900Y0295630
X0439900Y0297030
X0349205Y0319485
X0338190Y0310020
X0341350Y0310020
X0339760Y0311610
X0338180Y0311600
X0346058Y0317909
X0346058Y0314759
X0344483Y0310036
X0342908Y0311609
X0346058Y0321059
X0346058Y0327359
X0346058Y0330509
X0360914Y0258493
X0360914Y0252193
X0355796Y0258493
X0355796Y0245894
X0350578Y0252193
X0355912Y0280539
X0360914Y0274241
X0350648Y0274236
X0360914Y0267941
X0355796Y0267941
X0347630Y0316337
X0373984Y0298644
X0347633Y0328934
X0347634Y0325783
X0372802Y0336305
X0386576Y0298721
X0380276Y0303839
X0386576Y0293603
X0380276Y0293603
X0394395Y0292272
X0402324Y0293603
X0396024Y0298721
X0402324Y0304022
X0396024Y0342225
X0386576Y0342225
X0386576Y0337107
X0396024Y0337107
X0402324Y0342225
X0380276Y0342225
X0402324Y0331989
X0408623Y0298721
X0408623Y0337107
X0312292Y0252193
X0317410Y0258493
X0312294Y0258525
X0335034Y0310035
X0333458Y0311609
X0331884Y0310035
X0330308Y0311609
X0317333Y0280533
X0322528Y0274241
X0312292Y0267941
X0312292Y0274241
X0317410Y0267941
X0322711Y0252193
X0317410Y0245894
X0381356Y0330966
X0349205Y0322634
X0338182Y0305312
X0405473Y0306398
X0247360Y0278860
X0247380Y0277870
X0248420Y0277880
X0249420Y0277880
X0249400Y0278870
X0248400Y0278870
X0290390Y0254710
R02Y-0001000
X0289390Y0252710
R02Y0001000
X0288390Y0252710
R02Y0001000
X0344482Y0332085
X0342908Y0330509
X0345560Y0258493
X0345560Y0245894
X0340442Y0252193
X0340442Y0245894
X0340363Y0274241
X0345560Y0280540
X0340377Y0280525
X0342908Y0317909
X0342908Y0314759
X0338190Y0313190
X0339760Y0314760
X0336600Y0314770
X0342908Y0321059
X0344482Y0319485
X0365413Y0255338
X0350678Y0258493
X0363473Y0271091
X0350752Y0267971
X0373935Y0314094
X0373977Y0308957
X0373977Y0326871
X0373992Y0321688
X0383426Y0291044
X0396024Y0303839
X0402324Y0314075
X0396024Y0308957
X0388012Y0310627
X0380273Y0314057
X0377154Y0306367
X0387599Y0302599
X0399174Y0291044
X0396024Y0331989
X0399179Y0346724
X0386620Y0326919
X0387552Y0331120
X0378785Y0331052
X0402324Y0321753
X0380276Y0321674
X0396040Y0326890
X0383426Y0344784
X0408623Y0308957
X0408623Y0314075
X0408623Y0326871
X0408623Y0321753
X0333457Y0314760
X0331883Y0313184
X0330307Y0314760
X0332764Y0245894
X0327646Y0245894
X0332946Y0274244
X0322528Y0258493
X0327744Y0267926
X0332983Y0280582
X0327646Y0280540
X0325056Y0277363
X0309733Y0271091
X0327646Y0258493
X0309733Y0255343
X0332764Y0252193
X0322477Y0267911
X0350500Y0275800
X0345608Y0267897
X0342908Y0327359
X0344482Y0325785
X0342908Y0324209
X0397710Y0267310
X0398160Y0262040
X0393480Y0256960
X0392080Y0256720
X0370880Y0225580
X0369510Y0225670
X0369490Y0227070
X0370870Y0227100
X0253330Y0221260
X0252410Y0221260
X0252400Y0220330
X0253340Y0220270
X0325582Y0311610
X0328733Y0310036
X0336600Y0310060
X0336608Y0311609
X0276360Y0220770
X0344482Y0322635
X0346058Y0324209
X0348119Y0255343
X0350678Y0245894
X0350751Y0280637
X0350656Y0269550
X0373977Y0303839
X0373880Y0332062
X0399174Y0306398
X0383426Y0306398
X0399174Y0329430
X0384766Y0330884
X0408623Y0303839
X0408623Y0331989
X0325087Y0255343
X0322528Y0280540
X0325087Y0271091
X0322528Y0245894
X0335032Y0305312
X0363480Y0200260
X0395430Y0223280
X0420560Y0203060
X0404588Y0202632
X0388832Y0202940
X0373388Y0202532
X0355980Y0202960
X0339180Y0202800
X0321740Y0202510
X0305588Y0202832
X0284340Y0202810
X0267920Y0202950
X0252340Y0203010
X0209230Y0287440
X0210259Y0287470
X0198480Y0320930
X0197300Y0320940
X0468540Y0342020
X0468620Y0331390
X0442530Y0324490
X0418590Y0383720
X0419500Y0383750
X0420440Y0383780
X0354620Y0387550
X0354720Y0385440
X0354650Y0386500
X0275060Y0375670
X0263010Y0387330
X0290680Y0381680
X0289710Y0381710
X0288790Y0381720
X0442770Y0361840
X0442760Y0360780
X0443660Y0361780
X0443600Y0360760
X0187250Y0230440
R02Y-0001000
X0188250Y0228440
X0189250Y0228440
X0189250Y0229440
X0188250Y0229440
X0188250Y0230440
X0189250Y0230440
X0458680Y0329030
X0458560Y0339660
X0242380Y0200760
X0258140Y0200470
X0274380Y0200520
X0295610Y0200540
X0311790Y0200240
X0329230Y0200290
X0345990Y0200380
X0378990Y0200300
X0394620Y0200350
X0410760Y0200430
X0247540Y0244810
X0330308Y0339959
X0333480Y0343120
X0324009Y0339959
X0320860Y0343100
X0139950Y0401130
X0431080Y0354400
X0261210Y0220770
X0128530Y0401420
X0268560Y0220770
X0217320Y0229060
X0217320Y0230290
X0214540Y0230260
X0215930Y0230330
X0214550Y0229120
X0215910Y0229020
X0322434Y0313186
X0322433Y0311610
X0383580Y0273760
X0382190Y0273760
X0382170Y0274680
X0383570Y0274770
X0391920Y0274490
X0386560Y0274420
X0391030Y0268520
X0386240Y0268590
X0124530Y0401470
X0132630Y0401490
X0459740Y0343610
X0456820Y0341300
X0273080Y0220770
X0342908Y0336809
X0331883Y0338382
R02X-0003150
X0322434Y0338382
X0278150Y0233000
X0330307Y0336810
R03X-0003150
X0404258Y0280350
X0320859Y0311611
X0256890Y0220770
X0319282Y0325785
X0322432Y0325785
X0320858Y0324209
X0290352Y0266007
R02Y-0001000
X0289352Y0264007
R02Y0001000
X0274410Y0278050
X0274390Y0279040
X0269570Y0279290
X0270570Y0279290
X0270590Y0278300
X0269590Y0278300
X0273390Y0279040
X0273410Y0278050
X0266920Y0278410
X0267920Y0278410
X0267900Y0279400
X0266900Y0279400
X0312984Y0325783
X0312984Y0328933
X0312984Y0322633
X0324007Y0324210
X0319282Y0322635
X0316132Y0322635
X0316132Y0321060
X0322432Y0328935
X0322433Y0327359
X0319282Y0328935
X0316132Y0328935
X0316132Y0325785
X0239090Y0299110
X0285550Y0316090
X0282690Y0315700
X0283630Y0316690
X0338182Y0316335
X0341332Y0316335
X0341333Y0322634
X0341333Y0319484
X0338182Y0319485
X0341333Y0328934
X0341333Y0325784
X0335032Y0316335
X0328732Y0316335
X0331882Y0316335
X0341333Y0332084
X0281620Y0317170
X0286880Y0316250
X0236950Y0273890
X0247760Y0306040
X0267260Y0309590
X0400220Y0351380
X0248580Y0362610
X0403430Y0350070
X0246230Y0366730
X0383770Y0239570
X0383950Y0242480
X0379810Y0241060
X0306210Y0291330
X0379680Y0238070
X0197590Y0375950
X0394600Y0362080
X0201080Y0375360
X0241160Y0385410
X0383240Y0362180
X0388740Y0362160
X0241090Y0381460
X0139940Y0405260
X0278100Y0229150
X0317709Y0314760
X0319284Y0316335
X0316135Y0316335
X0316135Y0319485
X0320858Y0314759
X0322434Y0319485
X0319283Y0314759
X0379550Y0246620
X0380650Y0223800
X0460550Y0339650
X0460600Y0329020
X0260210Y0342580
X0249670Y0220030
X0248470Y0220050
X0468580Y0340010
X0468600Y0329370
X0275060Y0377630
X0242020Y0361790
X0267840Y0375920
X0264445Y0366858
X0214470Y0311020
X0213420Y0310930
X0436100Y0337580
X0402230Y0281520
X0388496Y0224033
X0373388Y0200552
X0420630Y0201040
X0404588Y0200652
X0388832Y0200960
X0355980Y0200960
X0339030Y0200760
X0321740Y0200530
X0305588Y0200852
X0284340Y0200830
X0267910Y0201140
X0252340Y0201030
X0249060Y0220770
X0344482Y0335235
X0344481Y0338382
X0338182Y0338382
X0341331Y0338382
X0335032Y0338382
X0319284Y0338382
X0316135Y0338382
X0312984Y0335233
X0312985Y0338382
X0244370Y0200730
X0260120Y0200440
X0276340Y0200540
X0297580Y0200540
X0313780Y0200210
X0331201Y0200255
X0347990Y0200340
X0365420Y0200240
X0380853Y0200334
X0396600Y0200360
X0412720Y0200430
X0267120Y0297460
X0431560Y0328790
X0131240Y0223970
X0228850Y0238760
X0232390Y0251670
X0277160Y0225430
X0278070Y0225480
X0311408Y0321059
X0312984Y0313183
X0260570Y0309580
X0338182Y0335235
X0338182Y0325785
X0338182Y0332085
X0338182Y0328935
X0338182Y0322635
X0325582Y0316335
X0335032Y0335235
X0328732Y0335235
X0325582Y0335235
X0331882Y0335235
X0316132Y0335235
X0322432Y0335235
X0319282Y0335235
X0335033Y0325784
R02Y0003150
X0331882Y0325785
R02X-0003150
X0331882Y0328935
R02X-0003150
X0331882Y0332085
R05X-0003150
X0335032Y0322635
X0328732Y0322635
X0325582Y0322635
X0331882Y0322635
X0348119Y0249044
X0363473Y0258493
X0363525Y0267916
X0327108Y0297438
X0317410Y0252193
X0327108Y0299012
X0319969Y0252193
X0324009Y0303737
X0318180Y0275310
X0319280Y0275370
X0324009Y0302162
X0327630Y0274247
X0331836Y0302209
X0336607Y0300587
X0327646Y0271091
X0333457Y0299012
X0330301Y0258499
X0330291Y0255352
X0333473Y0300556
X0330205Y0267941
X0335132Y0302162
X0330227Y0270980
X0333457Y0303690
X0344473Y0298994
X0355796Y0252193
X0344477Y0300591
X0353237Y0252193
X0355716Y0274243
X0350780Y0300587
X0353233Y0274205
X0350780Y0302162
X0345560Y0274241
X0338182Y0303737
X0345560Y0271091
X0338182Y0302162
X0343009Y0258493
X0339786Y0297432
X0343009Y0255343
X0339766Y0299011
X0343086Y0271110
X0342906Y0297438
X0325087Y0249044
X0352355Y0330508
X0378980Y0335400
X0352355Y0316335
X0378735Y0311070
X0349205Y0316235
X0384371Y0310571
X0353930Y0314760
X0399165Y0311594
X0355506Y0321069
X0399174Y0324312
X0355505Y0314760
X0396018Y0311604
X0350780Y0317910
X0385945Y0310358
X0353923Y0324127
X0388758Y0326914
X0357085Y0321089
X0396024Y0324312
X0405473Y0329430
X0386576Y0346784
X0396009Y0346802
X0353930Y0317910
X0381977Y0310561
X0353926Y0310040
X0402324Y0301280
X0355523Y0310044
X0402324Y0298721
X0357079Y0327359
X0402324Y0337107
X0353930Y0303737
X0380274Y0298801
X0350780Y0330508
X0379000Y0336500
X0350780Y0321060
X0383426Y0326871
X0352355Y0303737
X0380312Y0301284
X0355505Y0327359
X0402324Y0334548
X0352355Y0322634
X0380270Y0326887
X0465390Y0305660
X0465250Y0302150
X0451390Y0298350
X0438350Y0313340
X0438430Y0315270
X0438520Y0310050
X0439880Y0304430
X0440180Y0299850
X0438840Y0303730
X0180210Y0305520
X0184270Y0314470
X0184610Y0305950
X0184400Y0297840
X0180260Y0293490
X0184380Y0291280
X0183730Y0283360
X0204510Y0292520
X0405640Y0279550
X0382900Y0237970
X0383970Y0241360
X0416690Y0200434
X0400538Y0200356
X0384790Y0200334
X0369338Y0200256
X0351938Y0200356
X0335138Y0200256
X0317690Y0200234
X0301538Y0200556
X0280290Y0200534
X0264038Y0200456
X0248290Y0200734
X0464450Y0339570
X0464590Y0329034
X0367190Y0191990
X0367500Y0188710
X0201930Y0296390
X0202000Y0299740
X0201830Y0301740
X0201860Y0305810
X0201710Y0309460
X0380920Y0250620
X0284320Y0314860
X0277330Y0315060
X0377950Y0185000
X0388190Y0184840
X0396440Y0184990
X0408100Y0184830
X0424830Y0184940
X0433100Y0185990
X0130990Y0203640
X0118150Y0230150
X0120560Y0219180
X0118290Y0222670
X0118470Y0226960
X0131300Y0253670
X0136290Y0253840
X0142010Y0253880
X0146010Y0254210
X0124320Y0405050
X0128660Y0405150
X0136349Y0405350
X0152610Y0404860
X0150180Y0400200
X0144980Y0398360
X0147280Y0395510
X0150910Y0392160
X0153790Y0388870
X0157350Y0384970
X0173060Y0362280
X0179360Y0362300
X0182320Y0362100
X0185630Y0361990
X0227370Y0187820
X0219170Y0190780
X0191890Y0378040
X0191780Y0375780
X0164500Y0390240
X0166700Y0394660
X0165600Y0392440
X0166060Y0384260
X0166180Y0381600
X0167760Y0383530
X0167550Y0377480
X0167140Y0374870
X0167180Y0371820
X0168310Y0366420
X0181740Y0370240
X0179890Y0370920
X0181620Y0380610
X0180210Y0377970
X0179890Y0374610
X0179870Y0372770
X0166770Y0390490
X0168010Y0388430
X0166930Y0385940
X0167410Y0380570
X0173300Y0393950
X0175640Y0394140
X0178430Y0394250
X0183690Y0393190
X0169710Y0379670
X0172060Y0378950
X0170760Y0375820
X0169810Y0377560
X0169690Y0371990
X0170210Y0369360
X0170490Y0366610
X0171870Y0374510
X0172950Y0366120
X0172890Y0363930
X0192920Y0362380
X0186580Y0212120
X0192970Y0217290
X0197900Y0217400
X0207090Y0217600
X0168370Y0230430
X0141050Y0212300
X0135980Y0212210
X0137210Y0223080
X0134520Y0220720
X0129960Y0218670
X0125120Y0220720
X0122120Y0224260
X0121360Y0229040
X0446480Y0317070
X0437880Y0299970
X0392420Y0362930
X0386770Y0363100
X0412740Y0303420
X0389700Y0346030
X0381640Y0346010
X0371450Y0346040
X0376120Y0346060
X0452296Y0328219
X0444880Y0371520
X0460560Y0363690
X0462410Y0361710
X0281470Y0268750
X0280420Y0271480
X0275220Y0271150
X0234610Y0295080
X0238170Y0365960
X0166350Y0378840
X0167250Y0387020
X0163680Y0395750
X0164930Y0403730
X0183740Y0401110
X0173680Y0401140
X0158940Y0401330
X0159610Y0390930
X0162700Y0385410
X0161860Y0379760
X0162100Y0372660
X0161850Y0367040
X0161370Y0362650
X0170390Y0361230
X0175010Y0361660
X0180810Y0361580
X0257220Y0376590
X0252060Y0376890
X0247790Y0380250
X0246270Y0315630
X0284840Y0212580
X0285660Y0222120
X0284480Y0221850
X0290950Y0227130
X0293930Y0230050
X0296380Y0232710
X0300270Y0236600
X0348940Y0376640
X0404300Y0351610
X0412070Y0338950
X0412030Y0335060
X0412140Y0329590
X0411750Y0320950
X0411930Y0313880
X0412270Y0307440
X0368140Y0259970
X0368070Y0266020
X0367920Y0274960
X0368330Y0280320
X0377860Y0287190
X0388360Y0286970
X0409720Y0288680
X0414660Y0299780
X0414700Y0294740
X0413530Y0292270
X0405810Y0283570
X0398610Y0283010
X0399800Y0280100
X0399850Y0275480
X0396140Y0274060
X0397890Y0271110
X0393930Y0278490
X0388010Y0282140
X0379500Y0277810
X0379940Y0281810
X0373670Y0280710
X0373020Y0274770
X0375990Y0271850
X0372470Y0268910
X0371800Y0265170
X0372650Y0260850
X0379510Y0266020
X0384330Y0265950
X0379190Y0261830
X0383140Y0262020
X0382770Y0256480
X0379700Y0255150
X0443790Y0211060
X0443980Y0202750
X0430010Y0201990
X0425930Y0202060
X0420970Y0187810
X0408000Y0187160
X0392220Y0187340
X0162530Y0375530
X0180340Y0356310
X0180340Y0348860
X0217800Y0355020
X0230610Y0347540
X0224230Y0347120
X0244980Y0327430
X0223820Y0282320
X0204260Y0356060
X0196020Y0354050
X0228330Y0355130
X0223670Y0318710
X0222240Y0320630
X0233490Y0281520
X0233470Y0277470
X0230030Y0277810
X0230040Y0275690
X0230060Y0273990
X0223660Y0270600
X0221020Y0267700
X0219190Y0265910
X0229090Y0343770
X0207980Y0335420
X0205450Y0335440
X0202780Y0335470
X0195840Y0335210
X0190420Y0323890
X0190970Y0317960
X0201950Y0282530
X0202180Y0285040
X0235330Y0264540
X0232540Y0264310
X0227280Y0259640
X0223380Y0218330
X0208440Y0231920
X0211510Y0231840
X0215430Y0241670
X0213400Y0236070
X0208380Y0240080
X0210670Y0239730
X0201920Y0250240
X0216600Y0262400
X0213940Y0262520
X0204190Y0263690
X0212920Y0272280
X0208540Y0268010
X0196930Y0263560
X0195600Y0262300
X0199750Y0233980
X0200130Y0229950
X0199410Y0227130
X0199160Y0223790
X0171890Y0207630
X0178950Y0208950
X0184960Y0214070
X0174740Y0214460
X0174790Y0241240
X0173440Y0239540
X0183230Y0252510
X0179900Y0250080
X0177550Y0252170
X0180330Y0255920
X0174010Y0262150
X0168300Y0258590
X0171060Y0217880
X0164820Y0224430
X0162300Y0221960
X0159450Y0219620
X0166640Y0226790
X0161420Y0225020
X0157980Y0224970
X0155010Y0224810
X0151480Y0225050
X0393140Y0242800
X0393760Y0250330
X0392690Y0250560
X0392620Y0246970
X0402220Y0222920
X0251690Y0209480
X0249040Y0209490
X0242660Y0210640
X0230890Y0211550
X0228820Y0213290
X0226160Y0216260
X0373870Y0186480
X0378460Y0191160
X0391360Y0191600
X0400320Y0190190
X0340570Y0212690
X0337410Y0212640
X0332860Y0212690
X0299760Y0217600
X0305210Y0212640
X0315660Y0212860
X0321940Y0212900
X0323700Y0217120
X0315880Y0217650
X0306740Y0217950
X0304240Y0222260
X0453000Y0254950
X0452780Y0260350
X0454030Y0268640
X0452670Y0272900
X0452500Y0277820
X0465760Y0311210
X0465450Y0307650
X0465410Y0303790
X0465800Y0300360
X0468900Y0322340
X0473780Y0327610
X0473380Y0334990
X0473560Y0342290
X0466730Y0358080
X0431340Y0362480
X0426240Y0391710
X0423910Y0398740
X0418000Y0403550
X0410490Y0403770
X0402890Y0403640
X0395180Y0403260
X0388020Y0403350
X0381720Y0403420
X0374690Y0403310
X0352260Y0403700
X0345710Y0403880
X0336350Y0403750
X0328470Y0403570
X0321880Y0403660
X0314630Y0403530
X0306880Y0403700
X0288950Y0403700
X0280150Y0403180
X0272940Y0402790
X0169170Y0395180
X0183560Y0398250
X0178350Y0398410
X0180990Y0398300
X0170820Y0398450
X0173480Y0398500
X0175920Y0398450
X0183600Y0396230
X0181030Y0396280
X0178390Y0396390
X0175960Y0396430
X0173520Y0396480
X0170860Y0396430
X0168190Y0393660
X0168310Y0390290
X0249630Y0387250
X0252880Y0383870
X0253720Y0400690
X0235530Y0391620
X0237770Y0398960
X0244840Y0398340
X0241420Y0393030
X0237640Y0386570
X0233000Y0382400
X0222150Y0382150
X0216460Y0382220
X0213060Y0382480
X0354560Y0372430
X0356850Y0374710
X0346110Y0374110
X0350830Y0378640
X0322140Y0376750
X0326070Y0374750
X0304610Y0372420
X0305230Y0364930
X0303870Y0367570
X0300450Y0375490
X0299990Y0371580
X0170660Y0393290
X0189400Y0373310
X0172300Y0368740
X0175110Y0366030
X0173480Y0380340
X0173460Y0378460
X0174320Y0363460
X0173820Y0365120
X0173660Y0367140
X0173400Y0369890
X0175220Y0370030
X0173460Y0376340
X0173480Y0374540
X0173460Y0372660
X0175150Y0376220
X0175140Y0374570
X0175240Y0372880
X0176810Y0365260
X0178660Y0365370
X0182630Y0365200
X0180660Y0365330
X0180730Y0363860
R02X-0002000
X0191400Y0373540
X0190410Y0379130
X0190420Y0376900
X0190320Y0374840
X0188050Y0381290
X0187900Y0378860
X0187910Y0376630
X0187810Y0374570
X0185770Y0381230
X0185530Y0374510
X0185630Y0376570
X0185620Y0378800
X0185610Y0372550
X0183770Y0381230
X0183530Y0374510
X0183630Y0376570
X0183620Y0378800
X0183610Y0372550
X0181630Y0376570
X0181530Y0374510
X0181610Y0372550
X0182890Y0371280
X0184590Y0370500
X0186720Y0370080
X0190720Y0369960
X0188650Y0370050
X0182600Y0363830
X0184600Y0363830
X0184600Y0365830
R03X0002000
X0220900Y0213340
X0216700Y0215930
X0210400Y0215960
X0205680Y0218660
X0200080Y0218680
X0190740Y0220310
X0184720Y0217850
X0173300Y0219600
X0167550Y0214160
X0163370Y0209590
X0157550Y0200890
X0150940Y0200630
X0144020Y0201590
X0137430Y0202860
X0133480Y0205620
X0129200Y0206030
X0157860Y0255990
X0162010Y0259490
X0170770Y0264550
X0179540Y0267490
X0180130Y0270650
X0250600Y0195360
X0255680Y0195460
X0268000Y0194910
X0271830Y0195910
X0288030Y0194350
X0299120Y0187330
X0308680Y0187400
X0317420Y0187380
X0326230Y0187220
X0335040Y0187310
X0342240Y0187270
X0349490Y0187220
X0355550Y0187360
X0362170Y0187360
X0370010Y0191600
X0372620Y0194670
X0438320Y0191840
X0423650Y0190850
X0409310Y0190650
X0398850Y0192800
X0385300Y0192450
X0379980Y0192670
X0394530Y0204520
X0403930Y0222990
X0400260Y0223050
X0430700Y0212090
X0436830Y0213960
X0440040Y0219890
X0443730Y0224020
X0447070Y0229200
X0447240Y0236360
X0439310Y0230180
X0436580Y0228160
X0441160Y0238160
X0446850Y0242100
X0450070Y0244490
X0452500Y0247620
X0448860Y0278560
X0450780Y0286030
X0457520Y0291810
X0449650Y0291020
X0450510Y0293400
X0448310Y0317890
X0444450Y0319560
X0446340Y0336900
X0439640Y0341160
X0437900Y0350370
X0439940Y0353270
X0434440Y0370140
X0430900Y0368030
X0426330Y0372910
X0431610Y0358590
X0429070Y0375040
X0423850Y0378570
X0420050Y0378350
X0405810Y0378220
X0398190Y0378050
X0393660Y0378130
X0271670Y0357670
X0277000Y0352650
X0203770Y0309440
X0207520Y0309110
X0207240Y0305770
X0203660Y0305710
X0203770Y0302350
X0206580Y0302370
X0206530Y0300220
X0203480Y0300220
X0203390Y0296280
X0206750Y0296270
X0209540Y0296140
X0204770Y0314350
X0208740Y0314520
X0216180Y0345980
X0218540Y0346450
X0187860Y0271360
X0185880Y0272480
X0193680Y0285760
X0193990Y0281580
X0197940Y0276280
X0201810Y0279160
X0204620Y0282860
X0206250Y0286380
X0190110Y0299570
X0190060Y0302650
X0190330Y0309190
X0192970Y0323160
X0190810Y0327260
X0190990Y0330520
X0223810Y0303690
X0223860Y0307120
X0234700Y0307170
X0234770Y0311540
X0234580Y0315080
X0230040Y0315030
X0160240Y0357400
X0230170Y0345190
X0202480Y0359490
X0206710Y0359340
X0207720Y0354620
X0207070Y0345690
X0206970Y0342540
X0184400Y0351680
X0183160Y0344920
X0478916Y0284247
X0481000Y0285990
X0476820Y0285930
X0476680Y0282240
X0481070Y0282200
X0476570Y0232630
X0480750Y0232690
X0480920Y0229750
X0476230Y0229800
X0478666Y0230947
X0260520Y0348550
X0133559Y0227184
X0133559Y0235084
X0133559Y0231184
X0246340Y0307860
X0241600Y0300080
X0238400Y0300150
X0236900Y0299500
X0229520Y0287490
X0233170Y0293030
X0250320Y0289630
X0250590Y0292970
X0255020Y0289610
X0254500Y0292780
X0259410Y0289760
X0259190Y0292880
X0280000Y0292990
X0280360Y0289920
X0274950Y0289830
X0270130Y0289830
X0264720Y0289940
X0264380Y0292920
X0269820Y0292970
X0274950Y0292940
X0283430Y0292870
X0285720Y0289750
X0288450Y0289770
X0288330Y0292850
X0288990Y0296130
X0291479Y0296887
X0290810Y0374640
X0290800Y0375710
X0383590Y0279750
X0391500Y0276500
R02X-0002500
X0438130Y0341300
X0470532Y0341999
X0470532Y0335999
X0471140Y0329370
X0470632Y0325399
X0464710Y0316010
X0461200Y0315980
X0462904Y0319065
X0460890Y0294330
X0465050Y0295880
X0461020Y0287990
X0465000Y0287900
X0463020Y0291810
X0463680Y0310200
X0460790Y0310210
X0460820Y0305460
X0463610Y0305480
X0463570Y0300750
X0461030Y0300780
X0457274Y0303120
X0439330Y0311800
X0439310Y0316410
X0439640Y0306170
X0440150Y0310450
X0441900Y0304430
X0439650Y0298660
X0441780Y0294000
X0442460Y0298660
X0453540Y0286440
X0457920Y0282730
X0453770Y0282750
X0457760Y0285930
X0377500Y0251500
X0386530Y0266190
X0388320Y0259610
X0390999Y0259156
X0393000Y0259000
X0418640Y0268800
X0418650Y0267620
X0375571Y0196360
X0427990Y0408570
X0427930Y0403060
X0425770Y0405930
X0423520Y0408740
X0423610Y0403020
X0369820Y0408930
X0369760Y0403420
X0367600Y0406290
X0365350Y0409100
X0365440Y0403380
X0361580Y0408980
X0361520Y0403470
X0359360Y0406340
X0357110Y0409150
X0357200Y0403430
X0304100Y0408870
X0304040Y0403360
X0301880Y0406230
X0299630Y0409040
X0299720Y0403320
X0295730Y0408800
X0295670Y0403290
X0293510Y0406160
X0291260Y0408970
X0291350Y0403250
X0233760Y0403020
X0238080Y0403060
X0238140Y0408570
X0233670Y0408740
X0235920Y0405930
X0407360Y0384930
X0411380Y0386090
X0413840Y0385030
X0414810Y0390000
X0410840Y0390160
X0406520Y0390000
X0401130Y0389890
X0394030Y0389270
X0390680Y0388690
X0387390Y0385730
X0368310Y0387350
X0379510Y0387110
X0374350Y0387410
X0399610Y0391580
X0399641Y0393500
X0399550Y0395220
X0415340Y0387710
X0415300Y0386810
X0414240Y0387790
X0414200Y0386890
X0362820Y0386380
X0362780Y0385480
X0361680Y0385560
X0361720Y0386460
X0351000Y0385760
X0352030Y0385780
X0339330Y0395390
X0339421Y0393670
X0339390Y0391750
X0333380Y0395390
X0333471Y0393670
X0333440Y0391750
X0327530Y0395400
X0327521Y0393600
X0327490Y0391680
X0321640Y0395340
X0321631Y0393540
X0321600Y0391620
X0315780Y0395290
X0315771Y0393490
X0315740Y0391570
X0292530Y0389950
X0298040Y0389690
X0295670Y0391690
X0285610Y0397750
X0279550Y0397920
X0273600Y0398100
X0265900Y0400250
X0257750Y0396820
X0261750Y0396840
X0255800Y0394170
X0255830Y0395480
X0249931Y0393630
X0249940Y0395430
X0249900Y0391710
X0243960Y0391620
X0244000Y0395340
X0243991Y0393540
X0243110Y0383270
X0248260Y0366370
X0265480Y0334345
X0265479Y0336220
X0265360Y0338130
X0276080Y0321050
X0276080Y0318840
X0270950Y0315400
X0276090Y0316280
X0243980Y0365340
X0238320Y0355220
X0239640Y0345950
X0246020Y0338120
X0168150Y0357040
X0180320Y0353030
X0178504Y0347024
X0173217Y0341720
X0161490Y0348250
X0167670Y0336290
X0174430Y0333690
X0185770Y0333300
X0189358Y0357263
X0122300Y0231940
X0120324Y0231991
X0118190Y0231970
X0122350Y0233210
X0118240Y0233240
X0120374Y0233261
X0122250Y0212010
X0120274Y0212061
X0118140Y0212040
X0128157Y0212163
X0131701Y0212163
X0154690Y0202850
X0158810Y0203020
X0159700Y0213670
X0154570Y0212420
X0147260Y0249470
R02X0002000
X0145260Y0249470
X0143260Y0249470
X0143310Y0247670
X0145310Y0247670
X0151310Y0247670
R02X-0002000
X0149090Y0228750
X0153770Y0229540
X0164515Y0229360
X0160515Y0229360
X0162515Y0229360
X0158515Y0229360
X0156515Y0229360
X0156515Y0231360
X0158515Y0231360
X0164515Y0231360
X0162515Y0231360
X0170153Y0229658
X0176720Y0230520
X0220270Y0224420
X0216990Y0224170
X0213920Y0224060
X0210970Y0223940
X0212520Y0247540
X0209670Y0250830
X0210280Y0250230
X0212570Y0244420
X0212580Y0246440
X0208960Y0230910
X0209910Y0230900
X0209120Y0228970
X0209970Y0228970
X0209940Y0229850
X0192157Y0241090
X0188280Y0247740
X0189360Y0247760
X0189320Y0249800
X0189330Y0248820
X0188160Y0249630
X0188180Y0248770
X0189320Y0250680
X0190810Y0244700
X0192190Y0246230
X0193570Y0247480
X0193310Y0243150
X0191147Y0241130
R02Y-0001000
X0193347Y0241060
R02Y-0001000
X0195610Y0240140
X0193360Y0242050
X0192147Y0242010
X0192157Y0239090
X0192157Y0240090
X0195490Y0230902
X0196800Y0230920
X0195550Y0228762
X0196860Y0228780
X0196780Y0229830
X0234880Y0223510
X0236360Y0221770
X0272300Y0270750
X0272340Y0286700
X0273420Y0286660
X0274500Y0286690
X0272350Y0285790
X0273430Y0285750
X0274510Y0285780
X0266380Y0286680
X0267460Y0286640
X0268540Y0286670
X0267430Y0285750
X0268510Y0285780
X0266350Y0285790
X0261200Y0285100
X0261170Y0286140
X0262120Y0285110
X0262140Y0286140
X0261160Y0284120
X0262120Y0284100
X0255400Y0285120
X0255370Y0286160
X0256320Y0285130
X0256340Y0286160
X0255360Y0284140
X0256320Y0284120
X0248010Y0284790
X0247980Y0285830
X0248930Y0284800
X0248950Y0285830
X0247970Y0283810
X0248930Y0283790
X0243240Y0283750
X0243260Y0285790
X0243240Y0284760
X0242280Y0283770
X0242290Y0285790
X0242320Y0284750
X0238330Y0270620
X0227390Y0242130
X0228870Y0243540
X0232110Y0234110
X0232089Y0235131
X0232070Y0233130
X0282290Y0232470
X0282240Y0233510
X0250665Y0247956
X0253814Y0247956
X0256964Y0247956
X0260113Y0247956
X0250665Y0244807
X0260113Y0244807
X0256964Y0244807
X0253814Y0244807
X0253814Y0241657
X0260113Y0241657
X0256964Y0241657
X0256964Y0238508
X0253814Y0238508
X0470630Y0340010
X0470680Y0331380
X0186600Y0371830
R02X0002000
X0186600Y0363830
R02X0002000
X0195610Y0372760
X0193610Y0372760
X0195610Y0370760
X0193610Y0370760
X0195610Y0368760
X0193610Y0368760
X0195610Y0366760
X0193610Y0366760
X0193610Y0364760
X0195610Y0364760
X0196600Y0371830
X0196600Y0369830
X0196600Y0365830
X0196600Y0367830
X0194600Y0371830
X0194600Y0369830
X0194600Y0363830
R02Y0002000
X0192600Y0363830
X0192600Y0365830
X0192600Y0371830
R02Y-0002000
X0418130Y0284330
X0418200Y0280500
X0375530Y0200590
X0417430Y0268800
X0417440Y0267620
X0390690Y0224060
X0390652Y0226280
X0412189Y0281408
X0408551Y0276822
X0408515Y0272588
X0408447Y0263822
X0408435Y0246322
X0408439Y0250322
X0408500Y0254280
X0395980Y0261990
X0395490Y0268220
X0422710Y0202730
X0422670Y0201140
X0406558Y0202652
X0406618Y0200592
X0390810Y0202630
X0390832Y0200980
X0375670Y0202560
X0357958Y0202652
X0357980Y0200960
X0341158Y0202552
X0341180Y0200810
X0323710Y0202530
X0323896Y0200663
X0307558Y0202852
X0307980Y0200900
X0286310Y0202830
X0286370Y0200770
X0269850Y0201130
X0269920Y0203010
X0254310Y0203030
X0254462Y0201129
X0210280Y0251590
X0212590Y0245450
X0209060Y0229850
X0195470Y0229812
X0228320Y0230220
X0226120Y0241770
X0160515Y0231360
X0289640Y0375530
X0272970Y0375660
X0243978Y0361785
X0249550Y0366360
X0263460Y0347830
X0262430Y0350550
X0456190Y0303120
X0462180Y0300750
X0462220Y0305490
X0462200Y0310210
X0452110Y0306570
X0449340Y0299310
X0445730Y0299300
X0449390Y0311140
X0445510Y0311137
X0452020Y0332290
X0446830Y0324140
X0317709Y0339957
X0402324Y0344784
X0400698Y0344818
X0380276Y0344784
X0350820Y0347840
X0344481Y0346256
X0349220Y0344670
X0349210Y0346230
X0341331Y0349406
X0338182Y0346256
X0339757Y0346256
X0341331Y0346256
X0338182Y0347831
X0339757Y0347831
X0336607Y0346256
X0336607Y0347831
X0333457Y0349406
X0335032Y0346256
X0335032Y0349406
X0335032Y0347831
X0327158Y0349406
X0328733Y0349406
X0327158Y0347831
R03X0001575
X0327158Y0346256
R02X0001575
X0322434Y0349406
X0325583Y0347831
X0325583Y0346256
X0324009Y0347831
X0324009Y0346256
X0319284Y0349406
X0317709Y0346256
X0316135Y0346256
X0314564Y0349407
X0314560Y0346256
X0319284Y0346256
X0308261Y0346256
X0309820Y0346200
X0311410Y0346210
X0308261Y0344682
X0309890Y0347880
X0311430Y0347890
X0408623Y0339666
X0406001Y0343532
X0405612Y0338355
X0405890Y0340977
X0402559Y0338388
X0397904Y0339255
X0400695Y0342164
X0397465Y0342190
X0386576Y0339666
X0381639Y0342181
X0384945Y0342156
X0346056Y0343107
X0346056Y0339957
X0339757Y0343107
X0339757Y0339957
X0342906Y0339957
X0336607Y0343107
X0336607Y0339957
X0330308Y0343107
X0327140Y0339940
X0324009Y0343107
X0320860Y0339970
X0327158Y0338382
X0324009Y0338382
X0314560Y0339957
X0317709Y0343107
X0314560Y0343107
X0308261Y0343107
R03Y-0001575
X0311410Y0343107
X0311410Y0339957
X0306686Y0341532
X0408623Y0334548
X0405473Y0337107
X0406121Y0333317
X0402795Y0335859
X0403656Y0334720
X0397314Y0337215
X0387870Y0337335
X0386162Y0335814
X0383426Y0337107
X0383456Y0335924
X0396024Y0339666
X0384754Y0334625
X0350780Y0335245
X0352355Y0335245
X0353930Y0335225
X0346056Y0336808
X0346040Y0332090
X0349191Y0335265
X0339757Y0336808
X0339757Y0333658
X0342906Y0333658
X0336607Y0336808
X0330308Y0333658
X0327158Y0333658
X0330308Y0338382
X0333457Y0333658
X0333457Y0336808
X0333490Y0340010
X0314560Y0336808
X0317709Y0336808
X0320859Y0338382
X0308261Y0336808
R03Y-0001575
X0311410Y0336808
X0311408Y0333659
X0306686Y0335233
X0306686Y0333658
X0408623Y0329430
X0407275Y0326581
X0406298Y0330635
X0406187Y0328257
X0402324Y0329430
X0401559Y0330935
X0403515Y0331281
X0396024Y0329430
X0344481Y0328934
X0347620Y0330500
X0347670Y0327400
X0349233Y0328895
X0327158Y0330508
X0330308Y0330508
X0324009Y0330508
X0324009Y0327359
X0308261Y0328934
X0308261Y0327359
X0308261Y0330508
X0311410Y0330508
X0311410Y0327359
X0306686Y0328934
X0408623Y0324312
X0399174Y0321753
X0402324Y0324312
X0383426Y0321676
X0377118Y0321678
X0365839Y0321765
X0358327Y0321074
X0347640Y0321060
X0339757Y0327359
X0339757Y0321060
X0339757Y0324209
X0339757Y0330508
X0324009Y0321060
X0320860Y0321070
X0314560Y0321060
X0317709Y0324209
X0320857Y0327360
X0317709Y0327359
X0314560Y0324209
X0324020Y0333670
X0320859Y0333658
X0320859Y0330508
X0317709Y0333658
X0317709Y0330508
X0314560Y0327359
X0314560Y0330508
X0314558Y0333659
X0308250Y0324200
X0311410Y0324209
X0308261Y0322634
X0308261Y0321060
X0306686Y0322634
X0405473Y0314075
X0404774Y0315907
X0393574Y0314204
X0388110Y0314035
X0377127Y0314075
X0399174Y0314075
X0383426Y0314075
X0349175Y0327444
X0349208Y0324209
X0350780Y0322634
X0350830Y0319484
X0344481Y0316335
X0347630Y0317880
X0347631Y0314760
X0339757Y0317910
X0333457Y0316335
X0336607Y0321060
X0336607Y0317910
X0327158Y0317910
X0330308Y0327359
X0327158Y0327359
X0330308Y0324209
X0327158Y0324209
X0330308Y0321060
X0330308Y0317910
X0331880Y0314760
X0317709Y0317910
R02X0003150
X0314580Y0314760
X0312985Y0317910
X0308261Y0319485
R02Y-0001575
X0311410Y0316335
X0311410Y0314760
X0308261Y0314760
X0306686Y0319485
X0306686Y0316335
X0306686Y0314760
X0404125Y0311235
X0405988Y0312820
X0406024Y0310282
X0408623Y0311516
X0402324Y0311516
X0399142Y0312925
X0395167Y0312720
X0350780Y0308461
X0346056Y0311611
X0349205Y0311611
X0349205Y0314760
X0349205Y0310036
X0349205Y0308461
X0341331Y0313186
X0341331Y0311611
X0342906Y0310036
X0333910Y0308770
X0335033Y0313184
X0335032Y0311611
X0327400Y0308400
X0331000Y0308400
X0327200Y0313200
X0328733Y0311611
X0327158Y0310036
X0330308Y0310036
X0320600Y0310200
X0320859Y0313186
X0324009Y0313186
X0320859Y0308461
X0324008Y0308459
X0316135Y0311611
X0314560Y0308461
X0308261Y0313186
X0308261Y0311611
X0311408Y0308459
X0311410Y0311611
X0306686Y0313186
X0408623Y0306398
X0404060Y0307860
X0395792Y0302467
X0384953Y0303740
X0380276Y0306398
X0352355Y0305312
X0350783Y0305309
X0350780Y0303737
X0352355Y0302162
X0350780Y0306886
X0344550Y0305290
X0349200Y0303730
X0349200Y0302130
X0349208Y0305309
X0349220Y0306890
X0338190Y0306890
X0339760Y0305310
X0342910Y0305310
X0336607Y0305312
X0333390Y0305420
X0333457Y0310036
X0330990Y0307060
X0326000Y0307000
X0328840Y0306840
X0330300Y0305420
X0331870Y0305430
X0327158Y0305440
X0331910Y0303720
X0325583Y0305372
X0324000Y0306880
X0308261Y0302162
X0405473Y0298721
X0408623Y0301280
X0408623Y0296162
X0400340Y0300713
X0400865Y0298880
X0401396Y0300368
X0403270Y0297767
X0383672Y0302567
X0388107Y0299719
X0383491Y0298685
X0381192Y0299937
X0381927Y0298715
X0381829Y0301230
X0383942Y0297476
X0381767Y0296025
X0377238Y0299971
X0379059Y0299844
X0357249Y0297268
X0377127Y0298721
X0353930Y0300587
X0355505Y0299012
X0317709Y0308461
X0404066Y0292720
X0403985Y0295858
X0406009Y0294905
X0402324Y0291044
X0396055Y0291045
X0386576Y0291044
X0381783Y0293345
X0383992Y0294896
X0380276Y0291044
X0375460Y0291187
X0378343Y0293075
X0309876Y0279057
X0363473Y0274241
X0360870Y0272878
X0353247Y0272478
X0332964Y0277390
X0325087Y0274241
X0317404Y0272590
X0317410Y0277390
X0311877Y0276061
X0312198Y0272734
X0309733Y0274241
X0358355Y0267941
X0356024Y0266647
X0360845Y0269572
X0355796Y0271091
X0354613Y0271061
X0354503Y0268355
X0353314Y0269763
X0340367Y0277399
X0340365Y0271091
X0332764Y0271091
X0332724Y0266407
X0322429Y0269564
X0317374Y0271026
X0317761Y0266674
X0312642Y0269758
X0309733Y0267941
X0294452Y0264097
X0295452Y0264097
X0294480Y0265130
X0358555Y0258511
X0353804Y0254177
X0347937Y0258608
X0341592Y0255375
X0332764Y0255343
X0340442Y0255343
X0331614Y0255375
X0309734Y0258462
X0295552Y0260297
X0294552Y0260297
X0296552Y0260297
X0295452Y0259297
X0294452Y0259297
X0296452Y0259297
X0363507Y0253819
X0363473Y0252193
X0362221Y0248516
X0359666Y0248627
X0357044Y0248905
X0356730Y0250769
X0360853Y0253822
X0354515Y0248459
X0352006Y0248396
X0354149Y0253121
X0355637Y0253652
X0355796Y0249044
X0348119Y0252193
X0349324Y0248219
X0343001Y0252193
X0334596Y0249743
X0332764Y0249044
X0330205Y0252193
X0329924Y0250392
X0326291Y0248065
X0331509Y0248529
X0328928Y0248539
X0317410Y0249044
X0316456Y0251247
X0314874Y0250570
X0312201Y0250577
X0313594Y0248508
X0309733Y0252193
X0358355Y0245894
X0353237Y0245894
X0345270Y0247242
X0348119Y0245894
X0346953Y0247981
X0343001Y0245894
X0330205Y0245894
X0319969Y0245894
X0325087Y0245894
X0314851Y0245894
X0289703Y0233552
X0289703Y0232552
X0289703Y0234552
X0281803Y0226052
X0281803Y0225052
X0282003Y0229752
X0282003Y0228752
X0276483Y0217362
X0276483Y0216362
X0272473Y0217292
X0272473Y0216292
X0268593Y0217172
X0268593Y0216172
X0264933Y0217462
X0264933Y0216462
X0256503Y0216242
X0256503Y0217242
X0248883Y0216412
X0248883Y0217412
M30
