M48
INCH
T01C.004
T02C.008
T03C.01575
T04C.03543
T05C.041
T06C.04134
T07C.04331
T08C.06693
T09C.17323
T10C.04724
T11C.12795
;LEADER: 12 
;HEADER: 
;CODE  : ASCII 
;FILE  : BEAGLEV-AHEAD V11_no_logo-4-5.drl for  ... layers L4_GND and L5_SIG
;DESIGN: BEAGLEV-AHEAD V11_no_logo.brd
;T01 Holesize 1. = 4.000000 Tolerance = +3.000000/-3.000000 PLATED MILS Quantity = 54
%
G90
T01
X0265530Y0278400
X0347200Y0348400
X0346000Y0347200
X0343600Y0349800
X0343400Y0347000
X0394700Y0335500
X0374983Y0327977
X0371149Y0326003
X0370936Y0320800
X0356290Y0322044
X0331590Y0320250
X0325500Y0324030
X0325710Y0320880
X0320670Y0322350
X0317530Y0325710
X0373045Y0315237
X0363701Y0318137
X0367696Y0318137
X0365937Y0314898
X0356615Y0318203
X0360725Y0314964
X0356944Y0314931
X0355332Y0319451
X0341490Y0315010
X0335000Y0314970
X0391166Y0309595
X0384968Y0309331
X0323400Y0313740
X0324660Y0313950
X0376179Y0305220
X0336100Y0307130
X0333800Y0307810
X0343600Y0299700
X0333000Y0298000
X0328200Y0299500
X0325900Y0288100
X0339489Y0283581
X0334000Y0281100
X0333584Y0283892
X0345700Y0276100
X0347700Y0277100
X0343900Y0276000
X0333900Y0273600
X0344200Y0271100
X0333900Y0262100
X0344200Y0258700
X0343000Y0259600
X0328900Y0258600
X0322800Y0256800
X0350300Y0253700
X0331380Y0317750
X0317709Y0319100
X0387138Y0309430
X0340430Y0309050
M30
