M48
INCH
T01C.004
T02C.008
T03C.01575
T04C.03543
T05C.041
T06C.04134
T07C.04331
T08C.06693
T09C.17323
T10C.04724
T11C.12795
;LEADER: 12 
;HEADER: 
;CODE  : ASCII 
;FILE  : BEAGLEV-AHEAD V11_no_logo-2-4.drl for  ... layers L2_GND and L4_GND
;DESIGN: BEAGLEV-AHEAD V11_no_logo.brd
;T01 Holesize 1. = 4.000000 Tolerance = +3.000000/-3.000000 PLATED MILS Quantity = 201
%
G90
T01
X0215830Y0354270
X0213680Y0356440
X0212560Y0354880
X0210600Y0357430
X0208640Y0359600
X0294530Y0279140
X0292140Y0279250
X0290110Y0279290
X0287750Y0279140
X0285370Y0279140
X0283050Y0277530
X0401020Y0274460
X0399830Y0273290
X0403500Y0262580
X0404950Y0257140
X0401840Y0251860
X0401010Y0248080
X0380660Y0247520
X0234700Y0341270
X0236640Y0342690
X0238280Y0343410
X0239630Y0344680
X0241140Y0345490
X0242420Y0346250
X0217110Y0368790
X0217600Y0370210
X0218280Y0371800
X0304910Y0288510
X0307110Y0288390
X0356510Y0209120
X0350290Y0207190
X0345080Y0207510
X0331980Y0207200
X0327120Y0207380
X0324870Y0215000
X0317480Y0208380
X0312520Y0207190
X0305610Y0206760
X0300290Y0209320
X0291760Y0209470
X0290670Y0207140
X0286830Y0206860
X0315800Y0375400
X0351800Y0369510
X0350100Y0373890
X0350060Y0367930
X0345800Y0371000
X0342400Y0370000
X0339400Y0370000
X0336400Y0370200
X0334800Y0369200
X0332285Y0369312
X0332285Y0372312
X0334800Y0372200
X0329605Y0369400
X0327000Y0369000
X0329605Y0372400
X0322600Y0371200
X0319200Y0368400
X0315800Y0370000
X0312800Y0372600
X0309800Y0372600
X0306400Y0372600
X0346200Y0366000
X0345800Y0364000
X0342400Y0364000
X0339400Y0364000
X0336400Y0364200
X0334800Y0363200
X0332285Y0363312
X0329605Y0363400
X0327000Y0364000
X0325800Y0367600
X0322600Y0367000
X0315800Y0365600
X0312800Y0362000
X0312800Y0367600
X0309800Y0367600
X0309800Y0362000
X0306400Y0362000
X0351840Y0361740
X0334800Y0357200
X0332285Y0357312
X0327000Y0358800
X0329605Y0357400
X0326000Y0361800
X0322600Y0361800
X0322600Y0356200
X0319400Y0357800
X0319155Y0361745
X0315800Y0360400
X0312800Y0357600
X0309800Y0357600
X0349950Y0361950
X0334800Y0351200
X0319600Y0353000
X0306400Y0357600
X0290200Y0351800
X0385069Y0343952
X0294200Y0348200
X0404089Y0338359
X0403791Y0341911
X0394800Y0339400
X0388666Y0342553
X0375505Y0339800
X0378263Y0341339
X0304970Y0343260
X0300000Y0343800
X0406908Y0335999
X0407023Y0333317
X0400200Y0337900
X0394700Y0333900
X0388245Y0332468
X0381100Y0336200
X0380200Y0337300
X0385182Y0332905
X0374558Y0336588
X0359100Y0335000
X0291500Y0333600
X0407183Y0330980
X0383600Y0330900
X0381865Y0326828
X0384995Y0326876
X0378513Y0326878
X0377021Y0326892
X0377326Y0331245
X0374929Y0331181
X0369300Y0329400
X0405968Y0325044
X0394923Y0323028
X0394143Y0321469
X0397696Y0323165
X0390728Y0321126
X0386695Y0320943
X0381810Y0321663
X0378697Y0320553
X0372243Y0321607
X0368178Y0321538
X0363182Y0321469
X0353702Y0321356
X0298160Y0323540
X0273600Y0325800
X0390800Y0316900
X0381891Y0314124
X0385140Y0314059
X0378681Y0314091
X0375438Y0314059
X0400685Y0312610
X0383168Y0311190
X0375945Y0311187
X0367835Y0311068
X0361786Y0311109
X0357758Y0309857
X0406330Y0305610
X0403067Y0307782
X0397499Y0307717
X0386137Y0302680
X0384895Y0306331
X0381781Y0306379
X0375231Y0303624
X0378796Y0303900
X0378610Y0306347
X0359970Y0303953
X0386577Y0300103
X0387424Y0297321
X0384518Y0300317
X0378541Y0298641
X0344660Y0296759
X0318090Y0298030
X0373037Y0294565
X0366162Y0294565
X0350564Y0294547
X0340200Y0288700
X0343449Y0286682
X0324600Y0284400
X0309700Y0287700
X0356300Y0279300
X0340300Y0282000
X0340200Y0279400
X0332900Y0279300
X0317600Y0279200
X0309800Y0281700
X0340300Y0273000
X0340300Y0275500
X0343300Y0272400
X0332900Y0272900
X0332900Y0275500
X0325100Y0272300
X0325100Y0276200
X0321300Y0272700
X0323300Y0273200
X0313400Y0277000
X0351200Y0266700
X0349800Y0268800
X0333700Y0263000
X0314600Y0265200
X0314400Y0262000
X0350000Y0256400
X0327800Y0257200
X0317300Y0257200
X0320100Y0250900
M30
