M48
INCH
T01C.004
T02C.008
T03C.01575
T04C.03543
T05C.041
T06C.04134
T07C.04331
T08C.06693
T09C.17323
T10C.04724
T11C.12795
;LEADER: 12 
;HEADER: 
;CODE  : ASCII 
;FILE  : BEAGLEV-AHEAD V11_no_logo-8-10.drl for  ... layers L8_PWR and BOTTOM
;DESIGN: BEAGLEV-AHEAD V11_no_logo.brd
;T01 Holesize 1. = 4.000000 Tolerance = +3.000000/-3.000000 PLATED MILS Quantity = 151
%
G90
T01
X0362530Y0370330
X0356519Y0368670
X0346080Y0370500
X0340060Y0368810
X0297880Y0370270
X0291800Y0368560
X0270250Y0399040
X0325240Y0394550
X0394980Y0359760
X0429260Y0373410
X0391240Y0370600
X0360380Y0397420
X0396390Y0396160
X0370370Y0397410
X0426150Y0391830
X0176650Y0369950
X0180500Y0357590
X0354380Y0363020
X0352500Y0362910
X0231170Y0361490
X0213310Y0358220
X0310100Y0361211
X0397110Y0360790
X0308410Y0362090
X0318610Y0370460
X0312490Y0368820
X0401340Y0370410
X0395200Y0368640
X0168620Y0351210
X0168620Y0348410
X0178790Y0342790
X0206770Y0329310
X0213330Y0344730
X0290290Y0398830
X0305800Y0395370
X0420350Y0380590
X0397130Y0380900
X0216981Y0297493
X0216980Y0303601
X0216930Y0301370
X0216980Y0308567
X0216980Y0310900
X0310310Y0380550
X0296080Y0380540
X0314510Y0362820
X0320150Y0376070
X0311810Y0375910
X0294890Y0359290
X0391100Y0358230
X0291840Y0360273
X0280370Y0399080
X0323860Y0395140
X0393230Y0358760
X0312710Y0364050
X0358540Y0364600
X0360354Y0380582
X0393670Y0374510
X0428940Y0374510
X0356550Y0363950
X0255180Y0335940
X0268280Y0335000
X0311393Y0261089
R03Y0001000
X0312393Y0264089
R03Y-0001000
X0313393Y0264089
R03Y-0001000
X0357879Y0284907
R03X0001000
X0357879Y0285907
R03X0001000
X0360879Y0286907
R03X-0001000
X0339800Y0302600
X0365100Y0315300
X0366600Y0315300
X0366600Y0316800
X0365100Y0316800
X0354800Y0315200
X0354800Y0316700
X0353300Y0316700
X0353300Y0315200
X0316770Y0242860
X0318070Y0242860
X0318070Y0241360
X0316770Y0241360
X0268180Y0333450
X0261541Y0335920
X0325520Y0296520
X0326320Y0303836
X0176640Y0401980
X0352630Y0368570
X0320800Y0299200
X0321756Y0303400
X0301400Y0339600
X0311000Y0305800
X0306000Y0309600
X0318010Y0313320
X0224850Y0260890
X0334950Y0323400
X0354600Y0368530
X0293030Y0321280
X0296200Y0318400
X0298400Y0320600
X0296200Y0320600
X0308415Y0321474
X0298400Y0318400
X0294000Y0318400
X0301420Y0330180
X0306190Y0331450
X0304303Y0331459
X0317960Y0309798
X0321310Y0332130
X0316070Y0330370
X0308500Y0331000
X0309700Y0330946
X0343600Y0322050
X0333520Y0314120
X0333520Y0315120
X0321800Y0317000
X0322000Y0314600
X0319800Y0314420
X0307043Y0314675
X0303513Y0314665
X0330000Y0313400
X0328000Y0313400
X0326800Y0313200
X0327400Y0311500
X0328600Y0311500
X0325200Y0313200
X0325900Y0311600
X0323600Y0313200
X0321790Y0312830
X0321900Y0311800
X0323300Y0311800
X0319200Y0311500
X0324500Y0311700
X0320600Y0311500
X0339700Y0322200
M30
