M48
INCH
T01C.004
T02C.008
T03C.01575
T04C.03543
T05C.041
T06C.04134
T07C.04331
T08C.06693
T09C.17323
T10C.04724
T11C.12795
;LEADER: 12 
;HEADER: 
;CODE  : ASCII 
;FILE  : BEAGLEV-AHEAD V11_no_logo-6-10.drl for  ... layers L6_PWR and BOTTOM
;DESIGN: BEAGLEV-AHEAD V11_no_logo.brd
;T01 Holesize 1. = 4.000000 Tolerance = +3.000000/-3.000000 PLATED MILS Quantity = 1055
%
G90
T01
X0136290Y0230200
X0156000Y0215080
X0162480Y0214970
X0436980Y0324360
X0452800Y0319380
X0440920Y0319280
X0446790Y0318180
X0418110Y0196480
X0192180Y0263230
X0206582Y0263280
X0153970Y0253880
X0456150Y0334280
X0454770Y0339250
X0454480Y0329020
X0457030Y0324160
X0142020Y0214760
X0134570Y0214480
X0148550Y0214900
X0449370Y0279180
X0228350Y0335860
X0229500Y0336000
X0189750Y0341690
X0188850Y0341700
X0428450Y0259250
X0428410Y0258060
X0427440Y0258100
X0427410Y0259310
X0460150Y0280520
X0461180Y0280460
X0461220Y0279450
X0460210Y0279366
X0457860Y0294230
X0457840Y0293290
X0458780Y0294260
X0458750Y0293360
X0440880Y0283470
X0230970Y0345260
X0231440Y0347650
X0229440Y0348780
X0380740Y0219260
X0376910Y0221940
X0393880Y0269960
X0385100Y0251290
X0287850Y0366530
X0290620Y0363280
X0229350Y0342970
X0156890Y0241610
X0157810Y0240450
X0156920Y0240650
X0202920Y0342020
X0202910Y0343080
X0206930Y0342030
X0203820Y0342030
X0203810Y0343090
X0204880Y0343110
X0205920Y0343060
X0206920Y0343080
X0204820Y0341990
X0205920Y0342040
X0156920Y0239800
X0157940Y0239630
X0156930Y0238920
X0156940Y0238010
X0157960Y0238790
X0158050Y0237970
X0456630Y0360720
X0455640Y0360750
X0456710Y0361780
X0455680Y0361780
X0253280Y0403900
X0253360Y0404960
X0252330Y0404950
X0252350Y0403920
X0251370Y0403940
X0251370Y0404960
X0250350Y0404940
X0250354Y0403930
X0459060Y0266460
X0459050Y0265180
X0457860Y0265170
X0457880Y0266470
X0171610Y0243120
X0173020Y0243110
X0173040Y0241820
X0171590Y0241830
X0264590Y0255760
X0264590Y0254760
X0257030Y0257070
X0257030Y0256070
X0264240Y0249780
X0264240Y0248780
X0257050Y0251850
X0257050Y0250850
X0264190Y0243600
X0264190Y0242600
X0264190Y0237180
X0264190Y0236180
X0258540Y0232270
X0258540Y0233270
X0253880Y0234270
X0253880Y0233270
X0245380Y0233880
X0245380Y0234880
X0412942Y0196803
X0417500Y0193160
X0402120Y0196350
X0410060Y0193790
X0398550Y0196020
X0385630Y0193240
X0424940Y0393130
X0382770Y0196160
X0422390Y0398430
X0373210Y0197130
X0381190Y0193550
X0210637Y0315600
X0215520Y0297010
X0214590Y0297050
X0369052Y0196542
X0209060Y0319380
X0370520Y0193020
X0216570Y0322910
X0217460Y0322920
X0216360Y0277530
X0216340Y0276410
X0362640Y0196035
X0360030Y0193480
X0351290Y0197430
X0350120Y0193060
X0305130Y0195470
X0205910Y0319380
X0345240Y0196135
X0385720Y0197380
X0340310Y0193140
X0333370Y0196455
X0329540Y0192590
X0328114Y0195846
X0205920Y0292890
X0320260Y0192930
X0313612Y0196623
X0310400Y0192180
X0310842Y0195048
X0299940Y0196740
X0278430Y0196303
X0203030Y0319390
X0291640Y0201570
X0280360Y0192740
X0463470Y0293310
X0443120Y0283570
X0293140Y0196585
X0455580Y0293120
X0434040Y0283500
X0270350Y0192320
X0451080Y0293450
X0273437Y0194303
X0207490Y0292880
X0259010Y0196465
X0250450Y0192000
X0257480Y0195300
X0240540Y0193450
X0260260Y0191920
X0243415Y0198234
X0456320Y0343490
X0455170Y0344420
X0456290Y0344450
X0455210Y0343400
X0440280Y0344140
X0441240Y0342890
X0440260Y0342970
X0441170Y0344110
X0204348Y0315530
X0191580Y0316330
X0190030Y0273510
X0207488Y0315600
X0196210Y0291780
X0196210Y0292890
X0196460Y0313280
X0196456Y0312196
X0277490Y0382210
X0215570Y0298660
X0216930Y0306241
X0214653Y0298613
X0449930Y0253550
X0366180Y0357600
X0362670Y0357440
X0271740Y0383320
X0451800Y0249310
X0199520Y0290910
X0199610Y0292870
X0193750Y0298610
X0191980Y0298570
X0193950Y0306470
X0191980Y0306444
X0209060Y0292900
X0288770Y0383140
X0227560Y0342920
X0324039Y0314600
X0333479Y0319660
X0320570Y0321060
X0330800Y0321121
X0331600Y0321400
X0329760Y0321121
X0326601Y0314961
X0325801Y0314961
X0327601Y0315077
X0326950Y0320839
X0325106Y0320856
X0314370Y0314450
X0313870Y0313650
X0314400Y0315300
X0309540Y0319269
X0312060Y0319830
X0314560Y0319790
X0449680Y0275740
X0391000Y0265090
X0311560Y0315288
X0149590Y0243330
X0260340Y0402150
X0249170Y0323510
X0250650Y0318670
X0225420Y0344660
X0400354Y0384090
X0385440Y0387160
X0301449Y0314661
X0379680Y0349680
X0305243Y0314675
X0440540Y0275010
X0432970Y0275020
X0319244Y0351033
X0201330Y0316520
X0317830Y0308080
X0199560Y0314040
X0227170Y0346770
X0374060Y0350400
X0227420Y0348770
X0182300Y0263330
X0436490Y0290480
X0197170Y0263490
X0351700Y0319900
X0335700Y0311260
X0342350Y0311290
X0346150Y0311210
X0347430Y0330850
X0347430Y0330050
X0347270Y0315460
X0347270Y0317060
X0347380Y0321820
X0345350Y0311210
X0338600Y0311284
X0340800Y0311284
X0361227Y0259939
X0361169Y0250948
X0355987Y0244456
X0350365Y0250596
X0355834Y0279204
X0361220Y0275714
X0361124Y0266316
X0347270Y0316260
X0373853Y0298724
X0374370Y0337004
X0347380Y0321020
X0347530Y0329250
X0380286Y0303959
X0380660Y0294826
X0395238Y0296449
X0394220Y0296461
X0394249Y0295208
X0395267Y0295196
X0401384Y0304175
X0382265Y0331397
X0396063Y0337119
X0386550Y0337410
X0388201Y0342435
X0394578Y0342538
X0403569Y0342480
X0378803Y0342531
X0408592Y0298401
X0410061Y0337298
X0403921Y0331676
X0312294Y0255194
X0330650Y0311100
X0333176Y0311184
X0317390Y0278090
X0322648Y0274231
X0311975Y0275647
X0322864Y0253133
X0317510Y0245910
X0349830Y0325010
X0341700Y0307519
X0405390Y0306740
X0303162Y0262000
X0304162Y0262000
X0303092Y0263890
X0304172Y0263890
X0304162Y0261000
X0303162Y0261000
X0304172Y0262890
X0303092Y0262890
X0344170Y0319560
X0339760Y0315540
X0335430Y0314530
X0331710Y0314550
X0344100Y0314780
X0343240Y0330700
X0344040Y0330700
X0345552Y0258580
X0345216Y0244400
X0340442Y0274241
X0337060Y0251240
X0337060Y0252240
X0339760Y0314740
X0344100Y0315580
X0343820Y0320290
X0365100Y0255134
X0350975Y0258542
X0350900Y0279000
X0350526Y0268159
X0402490Y0318140
X0403290Y0318460
X0403490Y0317480
X0402480Y0317200
X0396024Y0308957
X0387950Y0310137
X0380276Y0314075
X0377013Y0306392
X0387599Y0302599
X0399842Y0291045
X0399383Y0346411
X0386653Y0326865
X0386358Y0331837
X0378181Y0331296
X0380157Y0321879
X0331710Y0313750
X0335430Y0313730
X0336160Y0251240
X0336160Y0252240
X0325081Y0277504
X0309689Y0270591
X0327646Y0258493
X0309734Y0254675
X0343700Y0326830
X0342900Y0326830
X0343830Y0324250
X0343030Y0324250
X0398900Y0265080
X0400890Y0263090
X0392530Y0254540
X0391020Y0257020
X0325740Y0310230
X0325860Y0307750
X0325800Y0306200
X0329771Y0306860
X0329790Y0305330
X0336281Y0305330
X0336290Y0306840
X0348159Y0255430
X0350820Y0283370
X0347750Y0324820
X0400080Y0306262
X0408609Y0303507
X0410770Y0331060
X0324809Y0254913
X0322151Y0282045
X0322200Y0243250
X0373969Y0332324
X0334570Y0305220
X0194070Y0355210
X0193210Y0355220
X0391240Y0368570
X0308530Y0368810
X0287860Y0368530
X0455650Y0284500
X0449650Y0257845
X0450940Y0257790
X0450970Y0256760
X0449770Y0256830
X0362530Y0366240
X0346032Y0366381
X0318572Y0366341
X0297812Y0366161
X0422200Y0372170
X0401260Y0366280
X0438770Y0360210
X0438740Y0361530
X0439670Y0361540
X0439770Y0360290
X0422240Y0352780
X0198130Y0271500
X0130130Y0230410
X0130130Y0227077
X0130130Y0223244
R02Y-0004333
X0336060Y0368720
X0246230Y0330470
X0331579Y0347387
X0333662Y0349539
X0319044Y0347796
X0319097Y0345876
X0137050Y0401030
X0128090Y0400920
X0392960Y0251290
X0321770Y0307620
X0321760Y0306030
X0321900Y0310000
X0390980Y0272910
X0387040Y0272940
X0389020Y0270980
X0389030Y0268980
X0455840Y0264350
X0122260Y0405050
X0132330Y0405100
X0378740Y0362700
X0373770Y0363080
X0325583Y0341175
X0328733Y0341175
X0322560Y0341190
X0341360Y0336720
X0327514Y0336810
X0321200Y0336900
X0324074Y0336810
X0319830Y0309689
X0321800Y0326900
X0320400Y0326700
X0320620Y0324650
X0316150Y0325420
X0312680Y0328480
X0321300Y0330220
X0323407Y0324349
X0318580Y0322450
X0316189Y0328710
X0436360Y0306880
X0390410Y0390530
X0394220Y0394750
X0381260Y0391170
X0339040Y0330880
X0339300Y0327250
X0339420Y0324060
X0336930Y0318190
X0337750Y0315960
X0339380Y0318250
X0340220Y0324060
X0340370Y0320280
X0340100Y0327250
X0339840Y0330880
X0331001Y0317490
X0236440Y0308560
X0394770Y0391670
X0236280Y0313170
X0236190Y0315220
X0410370Y0382400
X0237840Y0310861
X0236130Y0304050
X0193090Y0219140
X0273290Y0363250
X0449220Y0271350
X0167210Y0387900
X0236380Y0306770
X0401750Y0349870
X0406520Y0350080
X0386650Y0239540
X0386640Y0242480
X0382710Y0241010
X0399560Y0349760
X0393700Y0244920
X0396050Y0350650
X0391080Y0268790
X0390990Y0249290
X0385100Y0249320
X0382690Y0238130
X0392980Y0249260
X0142120Y0406870
X0319790Y0313130
X0318270Y0315060
X0317840Y0318840
X0318300Y0316950
X0322070Y0318781
X0319300Y0316330
X0390990Y0261130
X0393220Y0368620
X0338080Y0368670
X0310510Y0368810
X0289860Y0368510
X0297800Y0368180
X0318550Y0368370
X0345970Y0368400
X0384760Y0371630
X0401270Y0368240
X0412613Y0370019
X0311810Y0347810
X0212350Y0313150
X0212340Y0312130
X0436410Y0292460
X0473030Y0269680
X0436030Y0271370
X0221490Y0340000
X0222520Y0340320
X0313140Y0347960
X0314070Y0347940
X0313990Y0348900
X0312850Y0348800
X0311840Y0348900
X0345790Y0336970
X0341050Y0338379
X0338200Y0338380
X0335000Y0338379
X0314870Y0336502
X0319290Y0340940
X0316200Y0342219
X0313000Y0342119
X0447580Y0249270
X0370570Y0366570
X0151960Y0253960
X0177830Y0253920
X0311780Y0311961
X0310400Y0323280
X0310200Y0313100
X0260540Y0306930
X0324000Y0317400
X0336920Y0324420
X0336300Y0328120
X0336320Y0333720
X0318000Y0330700
X0335400Y0332000
X0328610Y0329000
X0323890Y0333310
X0326323Y0324577
X0331440Y0325130
X0331440Y0326230
X0332250Y0325220
X0332250Y0326020
X0334700Y0333840
X0319300Y0335169
X0325575Y0332815
X0325935Y0328935
X0328675Y0332005
X0316300Y0334881
X0323701Y0330880
X0348209Y0250512
X0363157Y0259957
X0363124Y0266338
X0325250Y0248990
X0403921Y0329676
X0388201Y0344435
X0394578Y0344538
X0240640Y0371330
X0240670Y0367560
X0241920Y0373010
X0241990Y0369380
X0241680Y0365730
X0210130Y0318490
X0394170Y0242420
X0380830Y0242820
X0389640Y0259370
X0386090Y0250350
X0395360Y0252530
X0384650Y0241080
X0235370Y0301910
X0235470Y0314180
X0235470Y0305800
X0236550Y0309880
X0236450Y0311860
X0141930Y0253730
X0147700Y0254010
X0131250Y0253340
X0145410Y0208730
X0134820Y0208580
X0126720Y0209220
X0121650Y0214950
X0122330Y0216970
X0124900Y0247390
X0120200Y0245240
X0118830Y0242390
X0122540Y0239880
X0121380Y0231490
X0120930Y0228000
X0122020Y0228260
X0121370Y0224830
X0123220Y0224580
X0123120Y0220310
X0231270Y0301150
X0231280Y0304560
X0231300Y0307370
X0231280Y0312490
X0231080Y0315660
X0375300Y0267840
X0375510Y0261030
X0379140Y0253540
X0385950Y0237270
X0443540Y0212970
X0444390Y0191500
X0433840Y0191010
X0427970Y0187040
X0421780Y0184890
X0411960Y0185200
X0285290Y0409610
X0276400Y0409420
X0268810Y0409470
X0261690Y0409420
X0255630Y0409490
X0247940Y0409310
X0241650Y0409100
X0236130Y0408870
X0231410Y0404960
X0221700Y0409680
X0226170Y0409490
X0226030Y0406360
X0226100Y0402950
X0221870Y0402990
X0221750Y0406540
X0216360Y0406700
X0216230Y0404160
X0399710Y0184840
X0375240Y0184760
X0363930Y0184730
X0354840Y0184830
X0339620Y0184480
X0328130Y0184900
X0316740Y0184940
X0305350Y0184760
X0295240Y0184870
X0281650Y0184800
X0271360Y0185050
X0263280Y0185310
X0252280Y0184890
X0242570Y0184810
X0236520Y0185010
X0475588Y0234527
X0226780Y0185410
X0221490Y0185580
X0216850Y0187720
X0183450Y0395410
X0183410Y0401370
X0178300Y0408150
X0159640Y0406780
X0164350Y0406950
X0164140Y0403280
X0162710Y0400320
X0165670Y0398150
X0149440Y0407310
X0153890Y0403000
X0157350Y0399310
X0158200Y0392190
X0163180Y0392560
X0149050Y0388390
X0152100Y0384420
X0190730Y0216680
X0195140Y0217480
X0205190Y0217420
X0201800Y0217290
X0127280Y0409690
X0125190Y0409670
X0123190Y0400690
X0133060Y0401060
X0137900Y0406110
X0210570Y0281780
X0192000Y0277390
X0196850Y0274110
X0182070Y0280240
X0192620Y0289080
X0197550Y0289120
X0188540Y0280990
X0448780Y0367160
X0467430Y0363560
X0465200Y0359920
X0458930Y0273680
X0473590Y0273350
X0467060Y0273510
X0463360Y0273710
X0446020Y0266140
X0446010Y0261780
X0178680Y0348800
X0181520Y0339620
X0178870Y0339530
X0170290Y0341530
X0202490Y0270310
X0204850Y0272790
X0186080Y0277270
X0211290Y0225460
X0212950Y0230870
X0211030Y0243650
X0211440Y0251360
X0205730Y0250980
X0206260Y0244700
X0198740Y0244550
X0197300Y0249580
X0188840Y0252720
X0186190Y0245330
X0187150Y0239580
X0189930Y0233350
X0213260Y0214350
X0224750Y0217600
X0193860Y0226860
X0207320Y0222630
X0205430Y0229870
X0180390Y0231220
X0179430Y0223100
X0171470Y0219760
X0176350Y0225420
X0176530Y0217820
X0171470Y0213870
X0162070Y0211060
X0183070Y0189970
X0178000Y0200500
X0161500Y0197700
X0155480Y0197920
X0147790Y0198180
X0167190Y0378720
X0167150Y0375380
X0167190Y0372220
X0163760Y0372260
X0163760Y0378760
X0161330Y0378670
X0161290Y0375240
X0161170Y0372370
X0163720Y0375420
X0459150Y0349940
X0452150Y0349960
X0456740Y0349890
X0454390Y0349980
X0449820Y0349900
X0438560Y0350000
X0440970Y0350050
X0433970Y0350070
X0431640Y0350010
X0436210Y0350090
X0463500Y0289679
R03X-0004000
X0473000Y0283590
X0378890Y0378100
X0381390Y0378030
X0256020Y0358260
X0257980Y0358290
X0259680Y0358240
X0251820Y0358300
X0253940Y0358250
X0251530Y0353150
X0259390Y0353090
X0257690Y0353140
X0255730Y0353110
X0253650Y0353100
X0237870Y0360740
X0237860Y0362990
X0194050Y0346000
X0192000Y0342500
X0193990Y0344960
X0198250Y0333822
X0198250Y0328322
X0206630Y0296400
X0210140Y0296470
X0203660Y0296480
X0200810Y0296400
X0197290Y0296390
X0206700Y0299510
X0210210Y0299580
X0203730Y0299590
X0200880Y0299510
X0197360Y0299500
X0206370Y0309190
X0209880Y0309260
X0203400Y0309270
X0200550Y0309190
X0197030Y0309180
X0206520Y0305670
X0210030Y0305740
X0203550Y0305750
X0200700Y0305670
X0197180Y0305660
X0210030Y0302540
X0200700Y0302470
X0206520Y0302470
X0197180Y0302460
X0173422Y0348310
X0176055Y0348310
X0181460Y0344390
X0172300Y0340750
X0181336Y0332913
X0184643Y0307974
X0181099Y0307974
X0181099Y0295126
X0184643Y0295126
X0152510Y0235030
X0165330Y0233900
X0158900Y0233970
X0164140Y0236550
X0160400Y0236560
X0166030Y0237640
X0165990Y0239740
X0141520Y0235791
X0127346Y0235791
X0148160Y0250080
X0149580Y0239679
X0167386Y0251359
X0133618Y0218918
R02X0007000
X0161618Y0218918
X0154618Y0218918
X0149310Y0202199
X0141520Y0198491
X0470408Y0273383
X0470408Y0269840
X0463280Y0275930
X0463410Y0271430
X0453345Y0264550
X0447650Y0257845
X0444750Y0255345
X0444750Y0257845
X0445943Y0264018
X0433060Y0262440
X0427430Y0261370
X0394990Y0254110
X0392970Y0247240
X0400750Y0261040
X0395990Y0266250
X0393900Y0272040
X0389080Y0272900
X0391910Y0271800
X0385110Y0270940
X0389060Y0251230
X0222680Y0278330
X0222850Y0281760
X0176290Y0241780
X0163830Y0250410
X0163800Y0252350
X0163843Y0251359
X0166150Y0242090
X0161670Y0242010
X0160490Y0238800
X0226460Y0339940
X0229510Y0338160
X0460240Y0277010
X0403220Y0366287
X0405070Y0370630
X0366300Y0370570
X0349850Y0370720
X0322390Y0370680
X0364510Y0366220
X0348070Y0366390
X0320612Y0366301
X0301630Y0370500
X0299812Y0366162
X0337990Y0309420
X0341260Y0309390
X0343300Y0318000
X0342000Y0314190
X0342000Y0314990
X0338060Y0314010
X0333662Y0351539
X0403569Y0344480
X0401480Y0346350
X0378803Y0344531
X0331579Y0349387
X0317044Y0347796
X0317097Y0345876
X0319230Y0344090
X0316130Y0344060
X0312920Y0344070
X0274150Y0345530
R02X-0001000
X0396030Y0339380
X0386560Y0339600
X0338130Y0340410
X0341190Y0340390
X0335120Y0340340
X0327410Y0339080
X0328870Y0343120
X0325510Y0343130
X0321170Y0339060
X0324310Y0339000
X0322410Y0343150
X0388024Y0334292
X0382333Y0333534
X0376460Y0337101
X0347731Y0336950
X0341113Y0334777
X0266560Y0335010
X0269761Y0334987
X0271336Y0334987
X0271336Y0333413
X0269761Y0333413
X0256500Y0333470
X0255500Y0333470
X0386644Y0328964
X0380165Y0331159
X0344140Y0328930
X0349190Y0328910
X0349200Y0331290
X0347700Y0326940
X0341740Y0328930
X0340940Y0328930
X0338500Y0328900
X0313500Y0332500
X0380157Y0323879
X0351900Y0325130
X0320900Y0322500
X0322370Y0321020
X0314359Y0321581
X0308400Y0323350
X0272390Y0324310
R02X0001000
X0408689Y0317059
X0409689Y0317059
X0409689Y0318059
X0408689Y0318059
X0375500Y0318460
X0374600Y0318460
X0349500Y0319880
X0349550Y0322230
X0349150Y0314970
R02Y0000800
X0333200Y0317770
X0335400Y0319300
X0329160Y0319049
X0331479Y0319840
X0325100Y0319020
X0327350Y0317400
X0314500Y0318000
X0315810Y0319160
X0316000Y0315200
X0309330Y0316828
X0303453Y0316535
X0306920Y0316470
X0399689Y0310259
X0399689Y0311259
X0394024Y0308957
X0387960Y0308150
X0382276Y0314075
X0365299Y0309399
X0366299Y0309399
X0366299Y0310399
X0365299Y0310399
X0353299Y0309899
X0354299Y0310899
X0354299Y0309899
X0353299Y0310899
X0344260Y0309200
X0345850Y0309230
X0329100Y0312900
X0327780Y0308360
X0328110Y0309740
X0407390Y0306740
X0401617Y0302132
X0374990Y0306390
X0341700Y0305119
X0338360Y0307030
X0338330Y0305200
X0331510Y0306870
X0328200Y0305940
X0331600Y0305200
X0323900Y0307610
X0318800Y0303400
X0389599Y0302599
X0388410Y0295440
X0387917Y0296340
X0348829Y0283370
X0348612Y0279283
X0321840Y0278510
X0325109Y0279571
X0363020Y0275760
X0355799Y0277199
X0342442Y0274241
X0350574Y0266102
X0327646Y0260493
X0257980Y0263840
X0258010Y0262710
X0255980Y0263840
X0256980Y0263840
X0256010Y0262710
X0257010Y0262710
X0353040Y0258500
X0346100Y0255560
X0347537Y0258996
X0322790Y0254810
X0271980Y0255500
X0272010Y0254370
X0269980Y0255500
X0270010Y0254370
X0271010Y0254370
X0365100Y0253134
X0363320Y0250940
X0320849Y0252980
X0314490Y0255430
X0306840Y0249390
X0305940Y0249390
X0272030Y0250260
X0272060Y0249130
X0270030Y0250260
X0271030Y0250260
X0270060Y0249130
X0271060Y0249130
X0336230Y0243880
X0336230Y0244880
X0337130Y0244880
X0337130Y0243880
X0325230Y0246630
X0410061Y0339298
X0410660Y0333450
X0329900Y0333700
X0324100Y0327400
X0325640Y0330640
X0410117Y0324527
X0405926Y0324110
X0338500Y0322200
X0319250Y0332400
X0315990Y0332160
X0342500Y0318000
X0323500Y0322500
X0325801Y0326981
X0408635Y0311370
X0380286Y0305959
X0330750Y0309160
X0331550Y0309160
X0408609Y0301507
X0408592Y0296401
X0377127Y0298721
X0401842Y0291045
X0380660Y0292826
X0324648Y0274231
X0317390Y0276000
X0309975Y0275647
X0309689Y0268591
X0342799Y0248591
X0309734Y0252675
X0357987Y0244456
X0353037Y0244362
X0343216Y0244400
X0330059Y0245882
X0319370Y0245920
X0324200Y0243350
X0315090Y0245925
X0272000Y0243840
X0272030Y0242710
X0270000Y0243840
X0271000Y0243840
X0270030Y0242710
X0271030Y0242710
X0257480Y0245290
X0257510Y0244160
X0256480Y0245290
X0256510Y0244160
X0310350Y0240870
X0310350Y0241870
X0309450Y0241870
X0309450Y0240870
X0272100Y0237170
R02X-0001000
X0272130Y0236040
R02X-0001000
M30
