M48
INCH
T01C.004
T02C.008
T03C.01575
T04C.03543
T05C.041
T06C.04134
T07C.04331
T08C.06693
T09C.17323
T10C.04724
T11C.12795
;LEADER: 12 
;HEADER: 
;CODE  : ASCII 
;FILE  : BEAGLEV-AHEAD V11_no_logo-9-10.drl for  ... layers L9_GND and BOTTOM
;DESIGN: BEAGLEV-AHEAD V11_no_logo.brd
;T01 Holesize 1. = 4.000000 Tolerance = +3.000000/-3.000000 PLATED MILS Quantity = 366
%
G90
T01
X0264980Y0329460
X0268187Y0331838
X0397158Y0368634
X0463760Y0334730
X0358488Y0368574
X0341990Y0368746
X0314478Y0368784
X0293770Y0368526
X0263470Y0390670
X0272660Y0391010
X0280310Y0391070
X0285880Y0390970
X0291780Y0391040
X0296950Y0391180
X0316740Y0389900
X0321030Y0390000
X0328210Y0390370
X0334520Y0390640
X0343370Y0390470
X0349750Y0389400
X0362930Y0389200
X0371050Y0389700
X0379900Y0387850
X0385540Y0393790
X0403120Y0388560
X0412340Y0388590
X0419920Y0388190
X0241430Y0256330
X0224220Y0238750
X0373660Y0223110
X0384330Y0223220
X0393620Y0222810
X0403720Y0223420
X0411200Y0222550
X0428170Y0223220
X0180080Y0270010
X0128560Y0210840
X0136470Y0211140
X0142600Y0211170
X0150730Y0211020
X0159010Y0393900
X0153630Y0396430
X0128130Y0394970
X0452280Y0239850
X0432680Y0235050
X0476080Y0276150
X0476440Y0284540
X0458350Y0286510
X0467340Y0287720
X0460270Y0299110
X0467790Y0305290
X0463840Y0318470
X0462950Y0352810
X0462890Y0363460
X0431190Y0379840
X0438970Y0376600
X0442880Y0367260
X0447130Y0360720
X0455220Y0354690
X0436290Y0352290
X0149650Y0252920
X0149780Y0247020
X0137400Y0252600
X0128560Y0249260
X0120460Y0243000
X0124150Y0239330
X0130220Y0232910
X0139320Y0232440
X0248530Y0334520
X0255030Y0337960
X0258050Y0338230
X0263030Y0338240
X0264930Y0336370
X0250950Y0337900
X0222300Y0330390
X0228490Y0329530
X0232450Y0345350
X0226890Y0320050
X0236590Y0326880
X0262220Y0311360
X0252110Y0315130
X0261030Y0318710
X0284490Y0319450
X0287480Y0306730
X0302030Y0272440
X0287480Y0266740
X0285840Y0281580
X0271320Y0297740
X0252220Y0300430
X0248270Y0280650
X0223230Y0228830
X0233680Y0244350
X0276550Y0261890
X0263080Y0267520
X0250510Y0258750
X0247860Y0244680
X0238230Y0233870
X0242820Y0222080
X0266810Y0222970
X0280650Y0226740
X0296280Y0226480
X0283040Y0238860
X0282030Y0254240
X0299870Y0255470
X0306680Y0248310
X0305380Y0248340
X0295870Y0242820
X0306990Y0236370
X0317210Y0236290
X0334450Y0235950
X0356130Y0236850
X0366090Y0238080
X0392800Y0230580
X0413700Y0231400
X0436680Y0242820
X0474140Y0266360
X0452230Y0251070
X0442950Y0302180
X0452240Y0308450
X0438250Y0251740
X0422090Y0240020
X0407950Y0237000
X0408140Y0245690
X0389000Y0235390
X0380160Y0240250
X0380940Y0249270
X0380340Y0259350
X0411010Y0260580
X0392690Y0241740
X0400120Y0244390
X0392920Y0238010
X0408250Y0241290
X0414520Y0245510
X0425710Y0250280
X0414260Y0252150
X0414520Y0267630
X0421440Y0262840
X0446400Y0269680
X0438430Y0269120
X0429270Y0269780
X0439250Y0280480
X0432060Y0277920
X0378830Y0274700
X0380170Y0267300
X0392750Y0277040
X0402170Y0276410
X0412440Y0276750
X0428640Y0284940
X0430610Y0294840
X0430760Y0307240
X0416280Y0289030
X0417390Y0299080
X0417430Y0308280
X0428340Y0318050
X0428320Y0326760
X0419050Y0373990
X0409820Y0374390
X0399900Y0374550
X0377130Y0375230
X0387760Y0373410
X0387930Y0366600
X0391890Y0353080
X0385340Y0347690
X0379370Y0359620
X0388320Y0359210
X0396640Y0356710
X0400210Y0360810
X0402630Y0364050
X0425080Y0333300
X0424650Y0345320
X0417210Y0349210
X0409370Y0345080
X0416350Y0340110
X0415090Y0332070
X0414730Y0324450
X0413040Y0315650
X0405430Y0311670
X0397030Y0311930
X0390500Y0315280
X0382940Y0311590
X0387310Y0319570
X0392200Y0326440
X0392410Y0333400
X0379230Y0328040
X0375690Y0325360
X0369390Y0323380
X0362350Y0321290
X0355540Y0321400
X0365930Y0328250
X0350640Y0327020
X0357460Y0326670
X0344500Y0341520
X0376780Y0347960
X0370990Y0348280
X0367280Y0352130
X0357620Y0352190
X0350200Y0352600
X0339160Y0352360
X0377710Y0353580
X0373190Y0357140
X0367710Y0363640
X0363410Y0361610
X0355830Y0361680
X0344710Y0360790
X0347810Y0364190
X0320140Y0364200
X0324730Y0367820
X0332920Y0366620
X0332810Y0358110
X0329780Y0353160
X0321440Y0354550
X0316490Y0357490
X0310360Y0357850
X0305240Y0364270
X0304540Y0359000
X0303030Y0352260
X0293000Y0354520
X0293280Y0362000
X0284490Y0369740
X0279990Y0374640
X0277790Y0370410
X0281730Y0363560
X0281950Y0358410
X0309840Y0353220
X0308520Y0348800
X0303620Y0346350
X0288540Y0346930
X0296190Y0345300
X0296160Y0346440
X0295270Y0345320
X0294410Y0345360
X0295220Y0346430
X0294370Y0346440
X0314340Y0353220
X0313400Y0353210
X0312550Y0353220
X0312590Y0352140
X0314370Y0352080
X0313450Y0352100
X0302620Y0343960
X0302540Y0342410
X0292440Y0347550
X0281530Y0347540
X0271410Y0349970
X0264190Y0352650
X0266740Y0361870
X0258310Y0362710
X0182840Y0383220
X0176580Y0374820
X0170390Y0395110
X0155080Y0381360
X0135720Y0393980
X0142870Y0394500
X0158580Y0347730
X0167990Y0333800
X0176800Y0333780
X0206040Y0336980
X0206700Y0324770
X0225420Y0295790
X0227060Y0291710
X0253750Y0238820
X0253770Y0237880
X0258600Y0227800
X0246380Y0226620
X0258570Y0228680
X0246320Y0227720
X0189040Y0214760
X0181740Y0207710
X0168800Y0204900
X0157430Y0205030
X0167540Y0262880
X0178910Y0262710
X0181550Y0257180
X0172690Y0256700
X0160180Y0256660
X0204080Y0254800
X0211860Y0256100
X0220790Y0256250
X0228980Y0260980
X0222750Y0264110
X0213570Y0264310
X0219340Y0269520
X0226820Y0272760
X0231100Y0277120
X0232180Y0286690
X0232930Y0293590
X0236650Y0299230
X0239030Y0302920
X0240260Y0309380
X0240240Y0314700
X0205580Y0353950
X0199210Y0353610
X0187090Y0355870
X0198740Y0346890
X0197800Y0341880
X0190480Y0332900
X0197300Y0337750
X0197120Y0331280
X0202690Y0331190
X0200430Y0324470
X0211920Y0325250
X0218050Y0325480
X0222160Y0320530
X0222910Y0315020
X0236850Y0317440
X0231730Y0316850
X0228830Y0313640
X0295790Y0325460
X0296710Y0324270
X0296960Y0326610
X0294650Y0326550
X0294760Y0324280
X0199650Y0273670
X0207220Y0273630
X0211430Y0275660
X0212930Y0280670
X0219940Y0315040
X0219940Y0312850
X0233950Y0297480
X0224444Y0297500
X0224444Y0301000
X0224444Y0303608
X0224444Y0306241
X0224444Y0308574
X0224410Y0310920
X0317020Y0351000
X0334800Y0344800
X0310400Y0347800
X0314930Y0338312
X0312800Y0340000
X0312800Y0338200
X0310180Y0341690
X0311390Y0338190
X0308130Y0343810
X0304250Y0342480
X0309760Y0342890
X0304300Y0343870
X0349600Y0334800
X0336317Y0335783
X0336300Y0326220
X0336200Y0330020
X0318400Y0328618
X0318181Y0326500
X0300400Y0328000
X0318401Y0324610
X0314000Y0325000
X0301000Y0318200
X0314123Y0311959
X0312000Y0309640
X0291000Y0310200
X0315600Y0303600
X0319830Y0307689
X0306000Y0302500
X0339800Y0297600
X0333600Y0297600
X0326050Y0299460
X0311000Y0300800
X0288600Y0298220
X0282000Y0297600
X0325800Y0292200
X0320800Y0294200
X0297400Y0291400
X0297400Y0295200
X0295600Y0291400
X0295600Y0295200
X0263800Y0283200
M30
