M48
INCH
T01C.004
T02C.008
T03C.01575
T04C.03543
T05C.041
T06C.04134
T07C.04331
T08C.06693
T09C.17323
T10C.04724
T11C.12795
;LEADER: 12 
;HEADER: 
;CODE  : ASCII 
;FILE  : BEAGLEV-AHEAD V11_no_logo-6-7.drl for  ... layers L6_PWR and L7_PWR
;DESIGN: BEAGLEV-AHEAD V11_no_logo.brd
;T01 Holesize 1. = 4.000000 Tolerance = +3.000000/-3.000000 PLATED MILS Quantity = 147
%
G90
T01
X0231060Y0260350
X0211770Y0258910
R02Y-0001000
X0212770Y0258910
R02Y-0001000
X0185190Y0256620
X0185290Y0255560
X0186170Y0255540
X0186120Y0256650
X0187130Y0255540
X0187090Y0256570
X0287550Y0260770
R07Y-0001000
X0345554Y0267864
X0345430Y0280499
X0340438Y0280495
X0340799Y0248591
X0361982Y0269762
X0371293Y0308905
X0374018Y0326741
X0383426Y0290824
X0396731Y0304132
X0395975Y0332286
X0396050Y0326890
X0383426Y0344784
X0408635Y0309370
X0410117Y0326527
X0405926Y0322110
X0328059Y0245882
X0323160Y0267960
X0333417Y0274219
X0322821Y0257786
X0327393Y0266537
X0333663Y0280542
X0327594Y0283224
X0281830Y0222670
X0282830Y0222670
X0350820Y0244279
X0350759Y0271703
X0386383Y0306375
X0376992Y0303314
X0399087Y0329470
X0384388Y0330942
X0325200Y0268700
X0395450Y0205120
X0418860Y0201410
X0403000Y0200980
X0387240Y0201530
X0371540Y0204050
X0354630Y0201530
X0337800Y0201380
X0320370Y0200980
X0304260Y0201420
X0282840Y0201460
X0266550Y0201570
X0250980Y0201680
X0277780Y0362490
X0277780Y0363490
X0278780Y0363490
X0278780Y0362490
X0219560Y0225470
X0220560Y0225470
X0220560Y0226470
R02X-0001000
X0218560Y0225470
X0275570Y0280590
X0275540Y0284610
R03Y-0001000
X0275540Y0285610
X0276510Y0284590
R03Y-0001000
X0276540Y0280570
X0276510Y0285590
X0317240Y0327880
X0316160Y0322950
X0317610Y0324500
X0312950Y0323090
X0298750Y0283340
X0299730Y0283330
R04X0001000
X0340620Y0319490
X0335400Y0316700
X0335400Y0315900
X0332800Y0316600
X0332800Y0315800
X0331500Y0316800
X0331500Y0316000
X0330100Y0317800
X0269440Y0374190
X0276210Y0376970
X0265870Y0365160
X0423220Y0251530
X0430550Y0331550
X0168370Y0249770
X0168370Y0248370
X0230310Y0237140
X0230350Y0236330
X0274930Y0226830
X0274950Y0225650
X0275990Y0225510
X0320390Y0335160
X0320390Y0334360
X0321190Y0334360
X0321190Y0335160
X0317890Y0335240
X0317890Y0334440
X0317090Y0335240
X0317090Y0334440
X0293330Y0329150
X0291930Y0331930
X0410300Y0334900
X0412800Y0334800
X0344400Y0335000
X0338800Y0334600
X0338190Y0327170
X0338200Y0329700
X0338380Y0325400
X0321600Y0321600
X0313159Y0321689
X0308700Y0315210
X0313640Y0317770
X0308700Y0316260
X0331000Y0308400
X0330000Y0309800
X0324000Y0308600
X0327800Y0305000
X0327800Y0307200
X0324000Y0306800
X0320400Y0246400
X0320400Y0243700
X0321000Y0247400
M30
