M48
INCH
T01C.004
T02C.008
T03C.01575
T04C.03543
T05C.041
T06C.04134
T07C.04331
T08C.06693
T09C.17323
T10C.04724
T11C.12795
;LEADER: 12 
;HEADER: 
;CODE  : ASCII 
;FILE  : BEAGLEV-AHEAD V11_no_logo-1-3.drl for  ... layers TOP and L3_SIG
;DESIGN: BEAGLEV-AHEAD V11_no_logo.brd
;T01 Holesize 1. = 4.000000 Tolerance = +3.000000/-3.000000 PLATED MILS Quantity = 536
%
G90
T01
X0462140Y0302347
X0449440Y0295370
X0462150Y0303922
X0449450Y0297338
X0462110Y0307057
X0449330Y0307200
X0462120Y0308632
X0449340Y0309168
X0189450Y0286110
X0188050Y0288390
X0194410Y0291010
X0275080Y0379660
X0280079Y0378180
X0298630Y0364030
X0306686Y0349406
X0169380Y0255090
X0301961Y0354320
X0286830Y0303060
X0407390Y0393570
X0341270Y0393650
X0305020Y0349400
X0448110Y0335200
X0453600Y0334650
X0267590Y0366290
X0294470Y0357990
X0282050Y0380110
X0464480Y0341560
X0462550Y0343080
X0305160Y0347880
X0306686Y0346256
X0352290Y0347920
X0351880Y0204870
X0432310Y0231920
X0349950Y0203500
X0433100Y0230670
X0347980Y0202320
X0400300Y0204770
X0345990Y0202310
X0438020Y0223230
X0380850Y0202290
X0398580Y0203400
X0434640Y0236160
X0335020Y0204740
X0363380Y0366909
X0382821Y0203210
X0435270Y0235150
X0333150Y0203350
X0437730Y0235150
X0331220Y0202230
X0170260Y0256070
X0284260Y0304000
X0298390Y0304450
X0305111Y0305312
X0282350Y0304930
X0437920Y0220150
X0396560Y0202310
X0346056Y0346256
X0394610Y0202220
X0346066Y0349406
X0416660Y0206430
X0429760Y0314430
X0414750Y0203410
X0412760Y0202380
X0431200Y0214110
X0410790Y0202340
X0268370Y0346340
X0352355Y0346256
X0278310Y0203490
X0446090Y0246330
X0446080Y0290310
X0464560Y0327050
X0182320Y0229690
X0188650Y0237780
X0462590Y0327020
X0447500Y0247590
X0447510Y0283430
X0305111Y0344682
X0303540Y0344590
X0279010Y0236080
X0275030Y0267570
X0293620Y0359070
X0244940Y0366990
X0297700Y0358790
X0417350Y0194890
X0283350Y0397630
X0348930Y0400600
X0346930Y0401630
X0281392Y0397590
X0258510Y0387310
X0415290Y0393510
X0265040Y0387290
X0413297Y0395040
X0262580Y0349020
X0191450Y0290760
X0191500Y0288440
X0200390Y0288740
X0200360Y0284620
X0262310Y0356580
X0195340Y0319050
X0194510Y0318730
X0261100Y0355630
X0198330Y0290660
X0435310Y0233070
X0329230Y0202180
X0438620Y0240280
X0317700Y0204710
X0352355Y0349406
X0315720Y0203420
X0264360Y0360090
X0441290Y0240270
X0313750Y0202210
X0189550Y0294870
X0438940Y0237030
X0311770Y0202210
X0435050Y0230640
X0369040Y0204120
X0198280Y0286650
X0428350Y0249350
X0262100Y0203330
X0301660Y0365230
X0276360Y0202520
X0350870Y0349420
X0367369Y0203100
X0426900Y0249350
X0262150Y0204890
X0349205Y0338382
X0274380Y0202420
X0434800Y0227630
X0365410Y0202240
X0439460Y0226580
X0363460Y0202240
X0349205Y0347731
X0384600Y0204350
X0263020Y0359150
X0429270Y0248360
X0260130Y0202390
X0352355Y0339937
X0258140Y0202410
X0349205Y0339957
X0246310Y0203740
X0350810Y0340000
X0248320Y0204770
X0430290Y0249450
X0244360Y0202720
X0352370Y0341520
X0242340Y0202700
X0262035Y0358345
X0341331Y0347831
X0342906Y0346256
X0351000Y0366900
X0344481Y0347831
X0280340Y0206260
X0350780Y0344682
X0352359Y0344683
X0198330Y0282450
X0299710Y0365050
X0349205Y0343107
X0300690Y0364280
X0352359Y0343108
X0247520Y0251070
X0296670Y0310330
X0199710Y0238160
X0253930Y0254250
X0248240Y0320060
X0305130Y0310060
X0281025Y0235935
X0266413Y0241657
X0247040Y0328330
X0306670Y0311610
X0432970Y0222150
X0378930Y0202240
X0305111Y0328934
X0272760Y0315450
X0405167Y0387770
X0403474Y0393460
X0312985Y0319485
X0217450Y0266030
X0274950Y0265530
X0295110Y0310190
X0298695Y0316640
X0305111Y0317910
X0305110Y0327340
X0308261Y0305312
X0167720Y0237900
X0349205Y0336808
X0308190Y0347800
X0246960Y0325120
X0305120Y0311600
X0306686Y0327359
X0267590Y0330220
X0147100Y0225160
X0308261Y0303737
X0259200Y0347420
X0303536Y0330508
X0270050Y0333120
X0305111Y0338382
X0303536Y0338382
X0350780Y0336808
X0293740Y0309890
X0306686Y0338382
X0309835Y0349406
X0306686Y0339957
X0430480Y0316650
X0316135Y0347831
X0316135Y0349406
X0347620Y0319480
X0347631Y0322634
X0352355Y0319485
X0269540Y0258530
X0208830Y0244600
X0250680Y0235340
X0266413Y0235358
X0325583Y0313186
X0388630Y0226140
X0378710Y0223790
X0283980Y0378100
X0228128Y0234080
X0250450Y0241560
X0301961Y0324209
X0312985Y0346256
X0306686Y0324209
R02X-0001575
X0208540Y0323500
X0203850Y0323560
X0218570Y0323450
X0350780Y0346256
X0215280Y0323570
X0311200Y0302200
X0354020Y0347850
X0296860Y0357680
X0281870Y0280500
X0309835Y0303737
X0289020Y0395400
X0265632Y0395624
X0284260Y0280430
X0309835Y0302162
X0291711Y0392630
X0253810Y0395624
X0289480Y0390610
X0247894Y0393574
X0289020Y0396800
X0263688Y0395590
X0291711Y0391230
X0251866Y0395590
X0286590Y0280480
X0309835Y0300587
X0289480Y0389210
X0245950Y0393540
X0297160Y0391910
X0259706Y0393574
X0297160Y0390510
X0257762Y0393540
X0269562Y0238508
X0288930Y0280540
X0311410Y0300587
X0291130Y0280480
X0310000Y0298710
X0293320Y0280450
X0309700Y0297400
X0405167Y0386370
X0401506Y0393404
X0363310Y0392260
X0339761Y0352557
X0339761Y0349407
X0385738Y0393490
X0338186Y0349407
X0383770Y0393434
X0363310Y0390860
X0339761Y0354131
X0339761Y0350982
X0391644Y0393490
X0341331Y0350981
X0389676Y0393434
X0329871Y0385650
X0337360Y0393520
X0331330Y0393520
X0328920Y0388510
X0329871Y0387050
X0335370Y0393520
X0329560Y0393539
X0328920Y0389910
X0325480Y0393410
X0321733Y0387140
X0323640Y0393410
X0321733Y0388540
X0305111Y0316335
X0299649Y0316052
X0445250Y0244830
X0444840Y0291000
X0206270Y0323540
X0312940Y0302080
X0288261Y0239676
R02X0001000
X0288261Y0240676
R02X0001000
X0290261Y0241676
R02X-0001000
X0266350Y0232130
X0279390Y0319520
X0306686Y0321060
X0292800Y0334240
X0305111Y0333658
X0291120Y0339459
X0303540Y0336840
X0306686Y0336808
X0297420Y0316850
X0306686Y0317910
X0292950Y0339440
X0298570Y0335160
X0306686Y0332083
X0287860Y0341650
X0294257Y0334264
X0305111Y0335233
X0289920Y0340550
X0305100Y0346160
X0464550Y0331020
X0352355Y0336808
X0353950Y0336890
X0314540Y0302140
X0275120Y0364420
X0306686Y0343107
X0305111Y0341532
X0273200Y0364360
X0317713Y0302163
X0301961Y0330508
X0269040Y0334330
X0267479Y0336220
X0305111Y0330508
X0317709Y0303737
X0269400Y0338110
X0306686Y0330508
X0306686Y0302162
X0156160Y0214081
X0289500Y0294940
X0156040Y0204643
X0306600Y0300620
X0157560Y0214081
X0289500Y0293540
X0157440Y0204643
X0303440Y0346310
X0462630Y0333000
X0350770Y0341570
X0303536Y0325784
X0231550Y0292116
X0150500Y0230257
X0231550Y0290716
X0151900Y0230257
X0277652Y0322941
X0305111Y0321060
X0295490Y0280590
X0314489Y0303746
X0312985Y0332083
X0282020Y0378066
X0341331Y0335233
X0322434Y0321060
X0331820Y0319490
X0333457Y0317910
X0322434Y0316335
X0327158Y0303734
X0314851Y0249044
X0312292Y0249044
X0322434Y0305312
X0320858Y0306809
X0312292Y0271091
X0319969Y0271091
X0324010Y0297430
X0324009Y0300587
X0322487Y0271050
X0320018Y0277439
X0323939Y0298988
X0322500Y0303692
X0312292Y0255343
X0325583Y0303737
X0314851Y0255343
X0328820Y0299019
X0319969Y0255343
X0322528Y0255343
X0328733Y0302162
X0322528Y0249044
X0330308Y0303737
X0319969Y0249044
X0328733Y0305312
X0314738Y0277394
X0320857Y0299001
X0312292Y0277390
X0324008Y0305309
X0327158Y0302162
X0314851Y0252193
X0346056Y0302162
X0358355Y0249044
X0360914Y0249044
X0347631Y0302162
X0358349Y0271100
X0352355Y0299012
X0353203Y0271125
X0349205Y0297438
X0350678Y0271091
X0349205Y0299012
X0354815Y0278968
X0349205Y0300587
X0360914Y0255343
X0347718Y0300588
X0344481Y0302162
X0356022Y0256991
X0344481Y0303737
X0353237Y0255343
X0342906Y0303737
X0350678Y0255343
X0341333Y0305309
X0350678Y0249044
X0341331Y0302162
X0353237Y0249044
X0345440Y0294499
X0356882Y0253632
X0358457Y0274105
X0352355Y0300587
X0336607Y0303737
X0350780Y0311611
X0399174Y0303839
X0359375Y0330854
X0383426Y0334548
X0353930Y0330508
X0383467Y0332030
X0353930Y0302162
X0380281Y0296060
X0352355Y0310036
X0397676Y0298193
X0350783Y0327359
X0405473Y0339666
X0353930Y0305312
X0375549Y0299702
X0350780Y0324209
X0405473Y0331989
X0352355Y0325784
X0399174Y0331989
X0360018Y0309077
X0400851Y0297632
X0350825Y0332017
X0399174Y0342225
X0347708Y0333659
X0383426Y0342225
X0355505Y0302162
X0383417Y0296168
X0352355Y0327359
X0402324Y0339666
X0349205Y0332083
X0405473Y0342225
X0360216Y0334960
X0377123Y0339779
X0355529Y0330578
X0377078Y0334499
X0353929Y0306799
X0399174Y0293603
X0352355Y0313186
X0405473Y0301280
X0349205Y0325784
X0405473Y0334548
X0350780Y0328934
X0399174Y0339666
X0349205Y0313186
X0405473Y0303839
X0350780Y0310036
X0399174Y0301280
X0358405Y0325848
X0399174Y0334548
X0355505Y0305312
X0383392Y0301314
X0352355Y0306886
X0405473Y0293603
X0349208Y0330509
X0377127Y0342225
X0352355Y0308461
X0405473Y0296162
X0357079Y0305312
X0383404Y0303861
X0397530Y0242680
X0401770Y0242870
X0415460Y0257190
X0410870Y0257220
X0415280Y0265990
X0411750Y0266960
X0414420Y0261780
X0425340Y0262330
X0426460Y0263790
X0429320Y0268680
X0425790Y0268690
X0429420Y0272560
X0425390Y0272440
X0429050Y0276650
X0426160Y0277170
X0428750Y0279690
X0425550Y0280310
X0257380Y0330570
X0353030Y0366880
X0228860Y0289970
X0255255Y0297455
X0268280Y0360580
X0279220Y0351790
X0281320Y0348830
X0283500Y0347210
X0265470Y0330200
X0311414Y0350982
X0350820Y0347840
X0349220Y0344670
X0349210Y0346230
X0317709Y0347831
X0306686Y0347831
X0346056Y0343107
X0346058Y0339958
X0339757Y0343107
X0342906Y0343107
X0336607Y0343107
R02X-0006299
X0346058Y0336809
X0346056Y0333658
X0333490Y0340010
X0270955Y0325845
X0349205Y0324209
X0350783Y0313184
X0349208Y0314759
X0311408Y0308459
X0349200Y0303730
X0349200Y0302130
X0349208Y0305309
X0363383Y0291134
X0360233Y0294284
X0358658Y0295859
X0361808Y0292709
X0368108Y0286409
X0366533Y0287984
X0364958Y0289559
M30
