M48
INCH
T01C.004
T02C.008
T03C.01575
T04C.03543
T05C.041
T06C.04134
T07C.04331
T08C.06693
T09C.17323
T10C.04724
T11C.12795
;LEADER: 12 
;HEADER: 
;CODE  : ASCII 
;FILE  : BEAGLEV-AHEAD V11_no_logo-1-10.drl for  ... layers TOP and BOTTOM
;DESIGN: BEAGLEV-AHEAD V11_no_logo.brd
;T03 Holesize 1. = 15.750000 Tolerance = +3.000000/-3.000000 PLATED MILS Quantity = 398
;T04 Holesize 2. = 35.430000 Tolerance = +0.000000/-0.000000 PLATED MILS Quantity = 10
;T05 Holesize 3. = 41.000000 Tolerance = +3.000000/-3.000000 PLATED MILS Quantity = 16
;T06 Holesize 4. = 41.340000 Tolerance = +0.000000/-0.000000 PLATED MILS Quantity = 4
;T07 Holesize 5. = 43.310000 Tolerance = +0.000000/-0.000000 PLATED MILS Quantity = 6
;T08 Holesize 6. = 66.930000 Tolerance = +0.000000/-0.000000 PLATED MILS Quantity = 2
;T09 Holesize 7. = 173.230000 Tolerance = +0.000000/-0.000000 PLATED MILS Quantity = 4
;T10 Holesize 8. = 47.240000 Tolerance = +0.000000/-0.000000 NON_PLATED MILS Quantity = 3
;T11 Holesize 9. = 127.950000 Tolerance = +0.000000/-0.000000 NON_PLATED MILS Quantity = 2
%
G90
T03
X0110090Y0358350
X0110660Y0353160
X0473320Y0223440
X0479730Y0223440
X0478070Y0216250
X0474650Y0208090
X0470750Y0200390
X0466430Y0195290
X0462210Y0191090
X0457040Y0187330
X0451970Y0184670
X0446700Y0182580
X0441090Y0181170
X0432380Y0179800
R03X-0005000
X0407380Y0179800
X0412380Y0179800
X0402380Y0179800
R03X-0005000
X0377380Y0179800
X0382380Y0179800
X0372380Y0179800
X0367090Y0179790
R02X-0005000
X0347090Y0179790
X0352090Y0179790
X0342090Y0179790
R03X-0005000
X0317090Y0179790
X0322090Y0179790
X0312090Y0179790
X0305990Y0179800
R02X-0005000
X0285990Y0179800
X0290990Y0179800
X0280990Y0179800
R03X-0005000
X0255990Y0179800
X0260990Y0179800
X0250990Y0179800
X0245090Y0179800
X0240090Y0179800
X0235090Y0179800
X0225090Y0179800
X0230090Y0179800
X0220090Y0179800
R03X-0005000
X0195090Y0179800
X0200090Y0179800
X0190090Y0179800
X0185240Y0179810
R11X-0005000
X0124350Y0180430
X0472460Y0370750
X0480260Y0370830
X0478250Y0378310
X0475710Y0384800
X0469980Y0394650
X0465000Y0400130
X0457690Y0405410
X0450030Y0409880
X0441350Y0412390
X0434390Y0413560
X0427560Y0414280
R02X-0005000
X0407560Y0414280
X0412560Y0414280
X0402560Y0414280
X0397640Y0414280
X0392640Y0414280
X0387640Y0414280
X0377640Y0414280
X0382640Y0414280
X0372640Y0414280
X0367640Y0414280
X0362320Y0414300
R02X-0005000
X0346890Y0414290
R03X-0005000
X0321890Y0414290
X0326890Y0414290
X0316890Y0414290
X0311970Y0414290
X0306970Y0414290
X0301970Y0414290
X0291970Y0414290
X0296970Y0414290
X0286970Y0414290
X0281970Y0414290
X0276650Y0414310
R02X-0005000
X0262460Y0414310
X0252460Y0414310
X0257460Y0414310
X0247460Y0414310
X0242460Y0414310
R02X-0005000
X0227540Y0414310
X0217540Y0414310
X0222540Y0414310
X0212540Y0414310
X0207540Y0414310
R02X-0005000
X0192220Y0414330
X0182220Y0414330
X0187220Y0414330
X0177220Y0414330
X0172220Y0414330
R02X-0005000
X0157310Y0414330
R03X-0005000
X0139190Y0414300
X0132700Y0414310
X0129200Y0414310
X0119370Y0412340
X0109240Y0403520
X0106620Y0398210
X0105190Y0389010
R07Y-0005000
X0111390Y0187380
X0110960Y0192350
X0120270Y0183280
X0115990Y0183280
X0120290Y0187290
X0115960Y0187350
X0120290Y0192290
X0115960Y0192350
X0115960Y0197350
X0110960Y0197350
X0105960Y0197350
X0105140Y0206730
X0105130Y0219280
X0105110Y0227380
X0105190Y0238410
X0105190Y0249010
X0110190Y0249010
X0115580Y0255700
X0110190Y0259010
X0115610Y0259200
X0108610Y0262420
X0105190Y0259010
R03Y0005000
X0109060Y0330030
X0110190Y0334010
X0110190Y0344010
X0105190Y0349010
R14Y-0005000
X0127110Y0316690
X0156190Y0270560
X0158880Y0327890
X0166880Y0327270
X0174200Y0327160
X0174440Y0321720
X0167400Y0322670
X0154160Y0316270
X0151910Y0322250
X0145190Y0316290
X0126160Y0322050
X0125350Y0326320
X0114110Y0323160
X0114040Y0317680
X0114100Y0312390
X0114030Y0285100
X0114250Y0277520
X0126400Y0270950
X0126420Y0276350
X0143950Y0281360
X0151560Y0278800
X0156730Y0275320
X0163970Y0272460
X0173130Y0271020
X0183190Y0324700
X0183260Y0317870
X0183990Y0301600
X0129620Y0311880
X0126980Y0281820
X0179780Y0288700
X0178480Y0307940
X0179860Y0301730
X0178500Y0295160
X0179340Y0283460
X0152570Y0292830
X0143830Y0292790
X0141950Y0301390
X0135590Y0301290
X0134710Y0309990
X0124320Y0395570
X0443920Y0376140
X0449090Y0227490
X0460060Y0231030
X0468040Y0230590
X0443910Y0221560
X0222550Y0189950
X0472780Y0302310
X0472100Y0311300
X0438980Y0402620
X0472780Y0362840
X0443130Y0403330
X0430070Y0406720
X0414580Y0408860
X0404070Y0408990
X0394360Y0408840
X0383780Y0408910
X0373790Y0409060
X0353900Y0408980
X0336430Y0408960
X0325600Y0409050
X0313070Y0409080
X0281390Y0409020
X0264480Y0409040
X0244820Y0409060
X0229920Y0408630
X0217860Y0408830
X0183850Y0408860
X0171110Y0408790
X0155840Y0409020
X0156370Y0186150
X0144270Y0186000
X0140950Y0191600
X0150400Y0193790
X0158030Y0194090
X0182270Y0185410
X0229220Y0185120
X0383480Y0185140
X0404350Y0185190
X0414990Y0185190
X0430280Y0185280
X0440750Y0190450
X0473120Y0230640
X0474340Y0237070
X0176040Y0277210
X0136290Y0291410
X0129760Y0300770
X0129760Y0287350
X0142610Y0286890
X0152100Y0286030
X0149040Y0301270
X0154490Y0301130
X0140040Y0309670
X0145040Y0309670
X0155040Y0309670
X0150040Y0309670
X0121860Y0305800
X0121860Y0300800
X0121860Y0290800
X0121860Y0295800
X0114280Y0290530
R03Y0005000
X0376710Y0279250
X0383780Y0283330
X0394070Y0282470
X0436620Y0185210
X0223660Y0185110
X0218690Y0185110
X0176030Y0185260
X0169920Y0185360
X0163680Y0185490
X0150840Y0185260
X0138580Y0185240
X0480280Y0235160
X0480350Y0239710
X0480350Y0259710
X0480350Y0254710
R02Y-0005000
X0480400Y0264770
R03Y0005000
X0480330Y0289260
X0480260Y0298590
R03Y0005000
X0480400Y0323430
X0480310Y0333380
X0480400Y0344130
X0480420Y0356310
X0479960Y0362540
X0160990Y0408910
X0270500Y0359470
X0185090Y0355100
X0194300Y0342630
X0190450Y0320870
X0195550Y0326480
X0180200Y0273260
X0180360Y0278100
X0190840Y0312330
X0136150Y0377780
X0130610Y0377740
X0124760Y0389500
R02Y-0005000
X0119030Y0394360
X0120290Y0389320
R02Y-0005000
X0115290Y0394320
X0110690Y0394320
X0115290Y0389320
X0110640Y0389530
X0115290Y0384320
X0110550Y0384490
X0115290Y0379320
X0110650Y0380190
X0115010Y0374190
X0110740Y0375790
X0116710Y0369870
X0113890Y0366060
X0110610Y0369460
X0117350Y0363170
X0135960Y0374020
X0130960Y0374020
X0135960Y0369020
X0130960Y0369020
X0135960Y0364020
X0130960Y0364020
X0135960Y0359020
X0130960Y0359020
X0135960Y0354020
X0135960Y0349020
X0120960Y0354020
X0130960Y0354020
X0125960Y0354020
X0141090Y0347180
X0148210Y0347120
X0129790Y0339860
X0130960Y0349020
X0130960Y0344020
X0125960Y0339020
X0125960Y0349020
X0125960Y0344020
X0120460Y0344020
X0144710Y0347140
X0156150Y0344900
X0163760Y0336950
X0179640Y0314850
X0179550Y0321310
X0181170Y0328930
X0132770Y0185440
R03Y0005000
T04
X0170346Y0276562
X0160346Y0281562
X0170346Y0286562
X0160346Y0291562
X0170346Y0296562
X0160346Y0301562
X0170346Y0306562
X0160346Y0311562
X0170346Y0316562
X0160346Y0321562
T05
X0220354Y0207066
X0220354Y0197066
X0230354Y0207066
X0230354Y0197066
X0430354Y0207066
X0430354Y0197066
X0440354Y0207066
X0440354Y0197066
X0220354Y0397066
X0220354Y0387066
X0230354Y0397066
X0230354Y0387066
X0430354Y0397066
X0430354Y0387066
X0440354Y0397066
X0440354Y0387066
T06
X0119362Y0272960
X0119362Y0282960
X0119362Y0315164
X0119362Y0325164
T07
X0360354Y0223790
R05X-0010000
T08
X0147354Y0268058
X0147354Y0330066
T09
X0200354Y0392066
X0200354Y0202066
X0460354Y0379566
X0460354Y0214566
T10
X0148140Y0403600
X0118140Y0407596
X0118140Y0399604
T11
X0135346Y0276562
X0135346Y0321562
M30
