M48
INCH
T01C.004
T02C.008
T03C.01575
T04C.03543
T05C.041
T06C.04134
T07C.04331
T08C.06693
T09C.17323
T10C.04724
T11C.12795
;LEADER: 12 
;HEADER: 
;CODE  : ASCII 
;FILE  : BEAGLEV-AHEAD V11_no_logo-6-8.drl for  ... layers L6_PWR and L8_PWR
;DESIGN: BEAGLEV-AHEAD V11_no_logo.brd
;T01 Holesize 1. = 4.000000 Tolerance = +3.000000/-3.000000 PLATED MILS Quantity = 121
%
G90
T01
X0292640Y0374620
X0301540Y0363820
X0297860Y0363000
X0278670Y0358590
X0287090Y0375440
X0275710Y0359630
X0373210Y0361030
X0368500Y0356770
X0290160Y0372490
X0368330Y0358330
X0288060Y0373480
X0376010Y0361240
X0288520Y0365290
X0289450Y0364190
X0247780Y0259380
X0248610Y0258380
X0355808Y0258454
X0351318Y0274642
X0356959Y0268536
X0384992Y0297150
X0385027Y0294789
X0400295Y0294795
X0314410Y0258080
X0312940Y0258640
X0313478Y0269490
X0315839Y0269525
X0296300Y0216680
X0295190Y0216650
X0294090Y0216610
X0294100Y0215590
X0295170Y0215570
X0296290Y0215580
X0211380Y0285120
X0211330Y0286190
X0197090Y0324000
X0198140Y0324040
X0466780Y0343500
X0471020Y0333360
X0465520Y0322200
X0420240Y0385050
X0420160Y0386110
X0420200Y0387190
X0354720Y0385440
X0354650Y0386500
X0354620Y0387550
X0265960Y0381780
X0264670Y0381750
X0265800Y0383420
X0264670Y0383500
X0265780Y0385540
X0275040Y0372270
X0264610Y0385600
X0293720Y0382640
X0293680Y0384070
X0292430Y0384050
X0188280Y0229830
X0189280Y0229830
X0189280Y0230830
R02X-0001000
X0187280Y0229830
X0187280Y0228830
X0188280Y0228830
X0189280Y0228830
X0381670Y0274950
X0382780Y0274920
X0382790Y0273840
X0381560Y0273860
X0232140Y0229300
X0233140Y0229300
X0331183Y0341173
X0244560Y0266580
X0244570Y0265020
X0281040Y0214040
X0280040Y0214040
X0247450Y0286080
X0246410Y0286090
X0245410Y0286090
X0245380Y0287120
X0246440Y0287070
X0247400Y0287120
X0249970Y0363940
X0247670Y0368070
X0240260Y0377680
X0396210Y0363430
X0246790Y0364060
X0304640Y0367580
X0245820Y0376750
X0384970Y0363530
X0390350Y0363500
X0242340Y0378620
X0275000Y0258950
X0275000Y0259950
X0261220Y0346910
X0467750Y0338890
X0467710Y0328610
X0243490Y0360070
X0223660Y0341340
X0221670Y0341220
X0222560Y0341370
X0223590Y0340310
X0437700Y0335800
X0445900Y0276960
X0393070Y0199540
X0371830Y0199220
X0421900Y0198240
X0407010Y0197890
X0391180Y0198450
X0358045Y0198655
X0341350Y0198310
X0324115Y0198135
X0308090Y0198430
X0286940Y0198100
X0270090Y0198810
X0254370Y0198900
X0239920Y0222140
X0239960Y0221240
X0240460Y0220420
X0258170Y0297780
X0269640Y0258830
X0270640Y0258830
M30
