M48
INCH
T01C.004
T02C.008
T03C.01575
T04C.03543
T05C.041
T06C.04134
T07C.04331
T08C.06693
T09C.17323
T10C.04724
T11C.12795
;LEADER: 12 
;HEADER: 
;CODE  : ASCII 
;FILE  : BEAGLEV-AHEAD V11_no_logo-2-5.drl for  ... layers L2_GND and L5_SIG
;DESIGN: BEAGLEV-AHEAD V11_no_logo.brd
;T01 Holesize 1. = 4.000000 Tolerance = +3.000000/-3.000000 PLATED MILS Quantity = 111
%
G90
T01
X0406083Y0344913
X0396298Y0345372
X0391370Y0345074
X0381856Y0344551
X0406977Y0340857
X0406931Y0338359
X0399477Y0340995
X0389766Y0343516
X0389597Y0339889
X0378103Y0340357
X0378292Y0342593
X0373085Y0340487
X0358865Y0333836
X0405244Y0326954
X0399607Y0326915
X0397878Y0329075
X0395293Y0328729
X0397406Y0326870
X0405773Y0320231
X0400644Y0320954
X0400656Y0323487
X0396801Y0321538
X0395120Y0321382
X0376912Y0320708
X0369932Y0321464
X0361185Y0321119
X0405182Y0317847
X0399148Y0318094
X0401285Y0316729
X0403685Y0314592
X0397405Y0314789
X0395268Y0317189
X0392752Y0318126
X0400656Y0310678
X0386908Y0311263
X0408315Y0307531
X0405086Y0302684
X0406895Y0303721
X0404080Y0306870
X0387212Y0303732
X0368415Y0303611
X0370447Y0303479
X0365258Y0303644
X0361601Y0303617
X0407039Y0298942
X0407158Y0301269
X0384599Y0298416
X0384598Y0301472
X0368728Y0298414
X0372728Y0298127
X0365887Y0298323
X0362564Y0298323
X0360244Y0298695
X0400547Y0291586
X0391725Y0293637
X0381105Y0295216
X0375649Y0294450
X0368614Y0294702
X0362770Y0294679
X0356194Y0291953
X0355822Y0294273
X0350900Y0292916
X0399540Y0287771
X0395529Y0289650
X0395781Y0287771
X0363423Y0284315
X0356103Y0285789
X0356194Y0288630
X0351307Y0286416
X0350873Y0289259
X0340153Y0284585
X0356390Y0281789
X0350975Y0283812
X0323149Y0282586
X0363240Y0272661
X0361282Y0276225
X0317105Y0269918
X0363763Y0263147
X0362205Y0264751
X0336746Y0261508
X0312012Y0264175
X0309600Y0266000
X0362208Y0255070
X0345835Y0257086
X0347230Y0256500
X0338877Y0256796
X0338489Y0257546
X0338260Y0255800
X0336783Y0255369
X0333478Y0257112
X0335878Y0259249
X0309700Y0259700
X0363602Y0248434
X0345164Y0252835
X0345227Y0249317
X0339643Y0253873
X0338920Y0248744
X0336536Y0249335
X0335418Y0253232
X0333381Y0250366
X0327808Y0254050
X0321323Y0248733
X0325000Y0251200
X0309344Y0253694
X0310700Y0248700
X0357048Y0247586
X0359546Y0247540
X0326220Y0246202
X0322410Y0247622
X0317631Y0247478
X0319958Y0247359
M30
