M48
INCH
T01C.004
T02C.008
T03C.01575
T04C.03543
T05C.041
T06C.04134
T07C.04331
T08C.06693
T09C.17323
T10C.04724
T11C.12795
;LEADER: 12 
;HEADER: 
;CODE  : ASCII 
;FILE  : BEAGLEV-AHEAD V11_no_logo-5-6.drl for  ... layers L5_SIG and L6_PWR
;DESIGN: BEAGLEV-AHEAD V11_no_logo.brd
;T02 Holesize 1. = 8.000000 Tolerance = +3.000000/-3.000000 PLATED MILS Quantity = 1561
%
G90
T02
X0292400Y0373300
X0136270Y0228680
X0154090Y0214560
X0161100Y0214980
X0438660Y0324360
X0451260Y0319410
X0442310Y0319280
X0446780Y0319400
X0416662Y0196428
X0192150Y0261940
X0206582Y0261920
X0155670Y0253890
X0457750Y0334300
X0456270Y0339260
X0300510Y0362830
X0297720Y0361690
X0455970Y0328590
X0458430Y0324200
X0277420Y0358590
X0285810Y0375440
X0275710Y0360970
X0140660Y0214250
X0134590Y0215800
X0148050Y0216360
X0450600Y0279200
X0229440Y0334470
X0187545Y0343005
X0426180Y0257570
X0426160Y0259310
X0460210Y0282010
X0457010Y0295910
X0459080Y0296040
X0440880Y0282050
X0232270Y0345330
X0232270Y0348820
X0229610Y0350050
X0380720Y0220480
X0377650Y0220870
X0395300Y0270010
X0384210Y0252520
X0293915Y0365435
X0291940Y0364600
X0230630Y0342950
X0155480Y0241610
X0153770Y0241580
X0153780Y0239900
X0153830Y0238230
X0155490Y0239930
X0155550Y0238240
X0454372Y0363190
X0456360Y0363150
X0232510Y0260370
X0209330Y0259660
X0210110Y0258080
X0208420Y0258130
X0185650Y0257890
X0187410Y0257910
X0189270Y0257880
X0261920Y0249780
X0261570Y0252700
X0258370Y0252700
X0262510Y0243150
X0262440Y0246360
X0262230Y0237060
X0262270Y0240250
X0261990Y0233640
X0256230Y0232560
X0255440Y0235560
X0259040Y0236590
X0252390Y0232610
X0242600Y0235000
X0414297Y0196803
X0415950Y0193160
X0400510Y0196350
X0408630Y0194620
X0396975Y0196125
X0386560Y0194360
X0423490Y0393130
X0381440Y0196840
X0420960Y0398430
X0371800Y0196850
X0382440Y0193878
X0210640Y0316930
X0214600Y0295820
X0367682Y0196502
X0209060Y0320770
X0369460Y0193840
X0216740Y0320320
X0215950Y0321790
X0217030Y0275320
X0217490Y0276950
X0363995Y0196035
X0358580Y0193660
X0349440Y0198390
X0349570Y0194360
X0304250Y0196640
X0205920Y0320760
X0346595Y0196135
X0384430Y0196950
X0340200Y0194520
X0331935Y0196455
X0328630Y0193660
X0328114Y0197156
X0205920Y0294210
X0320170Y0194350
X0314967Y0196623
X0310590Y0193530
X0310842Y0196358
X0298500Y0196690
X0277047Y0196303
X0203040Y0320770
X0292735Y0200475
X0279310Y0193550
X0463480Y0294720
X0444710Y0283530
X0294495Y0196585
X0455040Y0294430
X0434050Y0285170
X0270270Y0193698
X0452510Y0293570
X0273437Y0195613
X0207480Y0291560
X0260365Y0196465
X0250730Y0193530
X0257480Y0196610
X0241990Y0193590
X0260340Y0193310
X0244429Y0197220
X0458260Y0345220
X0458170Y0347040
X0443410Y0343460
X0443420Y0345230
X0204338Y0316840
X0190500Y0315270
X0190060Y0274780
X0207508Y0316890
X0194970Y0293370
X0197670Y0312200
X0276060Y0382240
X0215460Y0306220
X0215060Y0299910
X0452020Y0253440
X0365210Y0355970
X0364120Y0357740
X0273150Y0383320
X0453580Y0249340
X0371880Y0361050
X0198580Y0291870
X0192890Y0299630
X0192890Y0307504
X0209930Y0292040
X0367660Y0355770
X0289120Y0371830
X0369690Y0358090
X0286740Y0373630
X0374980Y0360160
X0287060Y0383130
X0287110Y0365030
X0288210Y0363235
X0249800Y0259650
X0250070Y0257710
X0228670Y0341600
X0324020Y0315810
X0334080Y0320750
X0319274Y0321028
X0328460Y0321060
X0328600Y0314400
X0327200Y0319560
X0314550Y0316500
X0310040Y0318150
X0313320Y0319420
X0448420Y0275740
X0389470Y0265540
X0312900Y0315100
X0153480Y0247860
X0260340Y0400610
X0251210Y0323630
X0252330Y0318670
X0224190Y0344670
X0400390Y0385610
X0384120Y0387080
X0301730Y0316030
X0379630Y0351200
X0305143Y0315967
X0440510Y0276290
X0432940Y0276410
X0320975Y0350033
X0200990Y0317900
X0317700Y0310200
X0198940Y0315270
X0228720Y0346820
X0375790Y0350410
X0226100Y0348820
X0182320Y0264670
X0435190Y0290480
X0197200Y0265150
X0347980Y0319460
X0346070Y0316410
X0339540Y0310430
X0344081Y0311209
X0346057Y0322337
X0346057Y0319387
X0346358Y0328936
X0360021Y0259435
X0354871Y0245013
X0349520Y0251597
X0360049Y0275210
X0351318Y0273188
X0375262Y0298669
X0373990Y0335769
X0386577Y0297159
X0381590Y0303550
X0386447Y0294837
X0395423Y0293825
X0400724Y0293605
X0396349Y0297088
X0402229Y0305240
X0382361Y0330134
X0385250Y0337093
X0394743Y0337107
X0387537Y0341371
X0395082Y0341332
X0403198Y0341232
X0379307Y0341360
X0403306Y0332835
X0409877Y0298445
X0409510Y0336200
X0312294Y0253793
X0315777Y0258168
X0312476Y0259836
X0331884Y0311262
X0317333Y0279295
X0322910Y0273025
X0313516Y0267940
X0313329Y0275195
X0315848Y0267940
X0323910Y0252350
X0317510Y0244630
X0379322Y0294640
X0355782Y0269267
X0360060Y0266980
X0357027Y0279825
X0355796Y0259774
X0359921Y0251319
X0348010Y0323230
X0340428Y0307453
X0405780Y0307910
X0250680Y0277370
X0252150Y0276470
X0252210Y0278300
X0252130Y0280190
X0250270Y0280220
X0248480Y0280220
X0288890Y0257750
X0286000Y0253580
X0288880Y0255950
X0286000Y0255380
R02Y0001800
X0288950Y0259500
X0343290Y0331910
X0345560Y0259840
X0340456Y0250118
X0338278Y0251343
X0340207Y0273010
X0346097Y0266750
X0345619Y0279270
X0340438Y0279126
X0336607Y0313487
X0342908Y0316336
X0339690Y0313540
X0342908Y0319486
X0350900Y0277670
X0352039Y0268083
X0372739Y0308447
X0399468Y0289819
X0383426Y0292314
X0395000Y0304651
X0403290Y0316160
X0397415Y0308292
X0389284Y0310544
X0378960Y0314031
X0378093Y0305458
X0397299Y0332171
X0385679Y0326001
X0378223Y0329986
X0403150Y0319860
X0381419Y0322304
X0394810Y0326890
X0384755Y0344782
X0409901Y0309176
X0409626Y0327723
X0404399Y0321767
X0333457Y0313399
X0330577Y0313187
X0327865Y0244616
X0333594Y0275582
X0323340Y0259517
X0326547Y0267397
X0333663Y0279311
X0327136Y0281778
X0324147Y0276424
X0310956Y0270711
X0326981Y0257102
X0308508Y0255049
X0334942Y0251343
X0322900Y0266730
X0386437Y0330569
X0398154Y0346059
X0387618Y0301221
X0375391Y0321749
X0372682Y0326767
X0375238Y0314049
X0363471Y0269762
X0351249Y0259837
X0364748Y0256363
X0346412Y0244891
X0343282Y0325658
X0398900Y0266330
X0399010Y0262890
X0393500Y0255690
X0391020Y0255640
X0294450Y0208850
X0296290Y0208810
X0325720Y0309000
X0336100Y0308770
X0329300Y0308300
X0281830Y0220780
X0345982Y0325408
X0348706Y0254183
X0350867Y0281996
X0351316Y0270608
X0372508Y0331820
X0400053Y0307625
X0384786Y0305873
X0384674Y0329611
X0409544Y0331056
X0326314Y0254464
X0321411Y0281032
X0324562Y0269731
X0322262Y0244513
X0410004Y0303573
X0400334Y0330017
X0375726Y0303581
X0349745Y0244973
X0334570Y0306480
X0395450Y0206510
X0418860Y0203080
X0403010Y0202640
X0387300Y0202900
X0373330Y0204040
X0354630Y0202960
X0337800Y0202780
X0320370Y0202490
X0304260Y0202840
X0282840Y0202810
X0266550Y0202940
X0250980Y0203030
X0209670Y0286180
X0198000Y0322420
X0468520Y0343480
X0469640Y0333320
X0463880Y0322200
X0444240Y0324480
X0418810Y0385100
X0418780Y0387090
X0356090Y0385250
X0356050Y0387270
X0263030Y0381500
X0263010Y0383560
X0276490Y0362900
X0276470Y0364690
X0278250Y0364720
X0275040Y0374090
X0263010Y0385600
X0292110Y0381720
X0290750Y0383400
X0441410Y0360390
X0441430Y0362390
X0185820Y0229540
X0185780Y0227080
X0187570Y0227110
X0189280Y0227170
X0247540Y0328960
X0332102Y0346207
X0333458Y0347658
X0320650Y0347200
X0320648Y0344797
X0138540Y0401030
X0127800Y0399620
X0216890Y0225910
X0214870Y0225960
X0214830Y0227700
X0216950Y0227640
X0322330Y0308800
X0383960Y0272330
X0382110Y0272270
X0390490Y0274210
X0387890Y0274420
X0390090Y0269990
X0387670Y0269140
X0455870Y0262980
X0122420Y0403650
X0131160Y0403860
X0377340Y0362700
X0372010Y0363160
X0232750Y0227740
X0342220Y0335800
X0331883Y0339955
R02X-0003150
X0322434Y0339955
X0246090Y0265490
X0328800Y0336800
X0322400Y0336800
X0319640Y0311610
X0280850Y0212720
X0319185Y0324549
X0321170Y0325770
X0284480Y0265950
X0284370Y0264170
X0288030Y0266030
X0287950Y0264210
X0286340Y0266060
X0286230Y0264280
X0272200Y0278830
X0270400Y0280630
R02X0001800
X0270400Y0282320
R02X0001800
X0270420Y0284170
R02X0001800
X0317800Y0329000
X0316100Y0324200
X0313000Y0324300
X0312984Y0327256
X0316070Y0327420
X0317400Y0322700
X0324015Y0325845
X0321220Y0329020
X0437220Y0305890
X0389160Y0390530
X0392670Y0394910
X0379830Y0391240
X0303200Y0281948
X0299600Y0281948
X0301400Y0281948
X0301720Y0280158
X0304910Y0281970
X0336600Y0316400
X0338182Y0317662
X0341420Y0323880
X0339400Y0319485
X0341333Y0321057
X0341300Y0327400
X0339760Y0332084
X0330305Y0316335
X0237810Y0308560
X0393490Y0391680
X0237740Y0313270
X0236760Y0316480
X0410350Y0383940
X0239340Y0310881
X0237350Y0303430
X0194620Y0219150
X0273270Y0361870
X0447810Y0271370
X0165950Y0387910
X0237710Y0306380
X0401750Y0351260
X0249970Y0362550
X0404850Y0350100
X0246230Y0368080
X0385180Y0239550
X0385370Y0242480
X0381360Y0241010
X0398330Y0350630
X0394860Y0243810
X0394750Y0350650
X0392890Y0267130
X0389090Y0249160
X0383640Y0249310
X0381300Y0238130
X0394900Y0249300
X0238640Y0377710
X0396210Y0362100
X0245590Y0364060
X0306080Y0367580
X0244220Y0376770
X0384970Y0362180
X0390440Y0362160
X0241070Y0379890
X0140480Y0406880
X0276280Y0259000
X0317420Y0315990
X0316160Y0317670
X0320520Y0316000
X0320800Y0319490
X0318500Y0313820
X0389610Y0261130
X0260200Y0345830
X0243250Y0221040
X0469610Y0338910
X0469760Y0328330
X0276100Y0378630
X0242020Y0360070
X0269470Y0375950
X0265840Y0366890
X0214590Y0312750
X0437710Y0337580
X0444440Y0276960
X0392980Y0200970
X0371830Y0200550
X0421900Y0199770
X0405900Y0199030
X0390030Y0199620
X0356980Y0199810
X0340220Y0199440
X0323060Y0199200
X0307060Y0199480
X0285810Y0199250
X0269090Y0199820
X0253210Y0200040
X0241480Y0221320
X0344500Y0336900
X0338282Y0337115
X0339850Y0338380
X0334932Y0337115
X0313000Y0336850
X0319264Y0339675
X0316135Y0340755
X0312985Y0340755
X0448680Y0250130
X0424610Y0251520
X0430570Y0329910
X0166610Y0249770
X0150350Y0253940
X0230370Y0238770
X0276980Y0227080
X0258170Y0299220
X0270760Y0256800
X0311390Y0322290
X0311700Y0313200
X0260560Y0308250
X0336606Y0325784
X0336606Y0329334
X0336606Y0332084
X0336605Y0322635
X0325600Y0317600
X0335010Y0330480
X0334980Y0327360
X0335020Y0324210
X0326860Y0322720
X0325550Y0334030
X0316132Y0333662
X0319260Y0333900
X0333455Y0325785
X0330305Y0325785
X0327055Y0325805
X0333455Y0328935
R02X-0003150
X0333455Y0332085
R02X-0003150
X0323905Y0332065
X0319282Y0330512
X0316132Y0330512
X0330305Y0322635
X0333455Y0322635
X0346990Y0249620
X0364416Y0259364
X0364356Y0266684
X0324415Y0248015
X0404371Y0328455
X0387108Y0345438
X0394307Y0346629
X0210930Y0319680
X0395550Y0245870
X0382450Y0242580
X0382230Y0250700
X0386960Y0241010
X0218010Y0366010
X0212460Y0361000
X0207560Y0330940
X0217750Y0268280
X0204080Y0266490
X0198310Y0268330
X0213380Y0276430
X0214370Y0286080
X0212910Y0291610
X0212730Y0303900
X0212630Y0308180
X0209050Y0301140
X0205090Y0301180
X0202070Y0298120
X0202060Y0303850
X0202090Y0307710
X0391110Y0247530
X0389140Y0257600
X0389100Y0254140
X0390700Y0251730
X0201770Y0314720
X0415120Y0286360
X0409650Y0280710
X0402090Y0277720
X0398540Y0269330
X0378830Y0269460
X0378680Y0274040
X0385130Y0277640
X0394320Y0275790
X0395670Y0272270
X0384420Y0237650
X0130390Y0408910
X0136390Y0408880
X0138800Y0227930
X0307700Y0409010
X0287700Y0409100
X0272480Y0409150
X0251390Y0409320
X0232880Y0407090
X0228550Y0405050
X0223600Y0408490
X0223660Y0405070
X0217910Y0405500
X0133750Y0253740
X0139260Y0253800
X0143890Y0253710
X0156060Y0387650
X0150640Y0394760
X0158030Y0395380
X0157320Y0403780
X0174670Y0405640
X0218730Y0213920
X0203500Y0217900
X0184290Y0191580
X0214790Y0212360
X0216610Y0191530
X0216440Y0202220
X0216290Y0402280
X0216880Y0391340
X0184040Y0389610
X0184850Y0383460
X0301890Y0311450
X0302100Y0323360
X0303230Y0331990
X0302430Y0344320
X0304770Y0353670
X0301760Y0360570
X0289800Y0354240
X0276510Y0343410
X0277090Y0332980
X0289550Y0344290
X0290540Y0334150
X0290790Y0325700
X0292040Y0317360
X0291270Y0303090
X0280040Y0298000
X0435080Y0327580
X0444330Y0315540
X0439470Y0288000
X0422950Y0289370
X0417020Y0312380
X0417390Y0303450
X0447570Y0308630
X0451340Y0314270
X0450170Y0322280
X0246140Y0321010
X0238140Y0370740
X0254530Y0341780
X0254600Y0335400
X0211270Y0365530
X0215940Y0358970
X0206740Y0348590
X0206650Y0339890
X0204250Y0332170
X0203690Y0327160
X0205720Y0277580
X0211710Y0280750
X0164370Y0193900
X0179820Y0195130
X0303520Y0229380
X0296340Y0223470
X0288740Y0216630
X0328220Y0216350
X0338080Y0216450
X0347860Y0215380
X0400990Y0216280
X0413730Y0216950
X0414030Y0207490
X0400350Y0207950
X0422020Y0230720
X0422920Y0222670
X0427310Y0215950
X0442460Y0233370
X0444210Y0242290
X0444730Y0251100
X0442350Y0265060
X0439410Y0272080
X0437670Y0282250
X0432160Y0337220
X0428340Y0342850
X0450420Y0338860
X0455970Y0316930
X0454310Y0310470
X0448010Y0296590
X0445160Y0289040
X0440270Y0291520
X0431520Y0297390
X0429150Y0287060
X0421830Y0294850
X0423650Y0306590
X0422350Y0314610
X0416680Y0322010
X0459590Y0270870
X0466480Y0278330
X0473930Y0277430
X0471730Y0264440
X0466970Y0249010
X0315180Y0399540
X0326130Y0400060
X0340610Y0400030
X0357330Y0399770
X0373130Y0399360
X0384950Y0399900
X0396770Y0399640
X0410930Y0398220
X0285010Y0237690
X0286310Y0247880
X0293200Y0245140
X0291750Y0239760
X0304430Y0293950
X0295490Y0288900
X0286890Y0282570
X0293010Y0282180
X0302430Y0286670
X0312500Y0285400
X0315260Y0291690
X0236450Y0380720
X0223320Y0380200
X0213110Y0379720
X0251710Y0372910
X0240820Y0373690
X0233790Y0373800
X0286280Y0392230
X0272430Y0393030
X0260220Y0392190
X0257290Y0382400
X0257870Y0368310
X0262080Y0343910
X0265890Y0355860
X0267230Y0346980
X0248400Y0356540
X0250780Y0347480
X0241990Y0348970
X0233470Y0366040
X0225330Y0372960
X0226220Y0365960
X0227400Y0360200
X0412340Y0325350
X0411680Y0318850
X0412170Y0311650
X0412330Y0305480
X0412560Y0298590
X0411990Y0294220
X0403940Y0286690
X0393360Y0286410
X0382750Y0286440
X0374900Y0285700
X0234200Y0316920
X0234390Y0313400
X0234770Y0309360
X0318740Y0214840
X0309290Y0214700
X0302350Y0214920
X0181240Y0404650
X0168270Y0396850
X0162730Y0388630
X0155390Y0393290
X0152410Y0399880
X0161280Y0397510
X0169890Y0399880
X0180170Y0401200
X0175500Y0401910
X0168420Y0391970
X0168600Y0386040
X0180730Y0394550
X0198610Y0370830
X0167740Y0369350
X0183910Y0361550
X0177780Y0361680
X0171260Y0384830
X0171670Y0380880
X0171450Y0377130
X0171610Y0371670
X0174580Y0371380
X0174880Y0368550
X0184420Y0202730
X0443070Y0217190
X0452330Y0233250
X0454710Y0243530
X0458060Y0255930
X0461400Y0259820
X0197020Y0285110
X0204230Y0286530
X0198740Y0279500
X0303820Y0187420
X0312440Y0187410
X0321460Y0187480
X0329500Y0187440
X0337710Y0187480
X0345140Y0187410
X0352590Y0187430
X0357880Y0187450
X0289900Y0310870
X0285110Y0310910
X0273820Y0309550
X0265640Y0307650
X0262980Y0297010
X0245670Y0309850
X0244940Y0306650
X0217120Y0324610
X0223740Y0315940
X0223850Y0308830
X0223800Y0300100
X0223810Y0284180
X0233960Y0297100
X0235190Y0300080
X0249820Y0377740
X0332300Y0375420
X0323480Y0374530
X0303180Y0374100
X0297790Y0371670
X0168330Y0343380
X0176940Y0344310
X0184840Y0348880
X0195180Y0347910
X0192890Y0351840
X0201910Y0371740
X0215450Y0371670
X0209340Y0371920
X0203950Y0367810
X0204200Y0361880
X0203840Y0353520
X0160400Y0353240
X0177160Y0350880
X0175260Y0356700
X0183230Y0357420
X0194270Y0358060
X0162800Y0369710
X0162830Y0364960
X0169730Y0363810
X0169730Y0374460
X0169080Y0381670
X0162150Y0381780
X0464980Y0362280
X0450760Y0364960
X0435510Y0364200
X0436690Y0358630
X0459160Y0357130
X0458340Y0352920
X0452620Y0353200
X0446650Y0353090
X0441980Y0353130
X0436120Y0353060
X0437970Y0345630
X0443600Y0335280
X0474380Y0344740
X0473730Y0349590
X0466550Y0351560
X0461660Y0351950
X0463840Y0345560
X0444650Y0321460
X0448870Y0328540
X0444530Y0328620
X0448080Y0332720
X0455450Y0332650
X0467570Y0316190
X0467430Y0309330
X0467210Y0303480
X0467140Y0296900
X0467500Y0290220
X0459570Y0300940
X0459520Y0306440
X0450440Y0304760
X0452230Y0299780
X0443330Y0300330
X0443190Y0310690
X0443240Y0305730
X0415610Y0239570
X0415110Y0230420
X0414610Y0224350
X0403880Y0236170
X0407520Y0236890
X0407450Y0241460
X0407700Y0248370
X0407910Y0256640
X0408090Y0259960
X0406360Y0265700
X0408020Y0268250
X0394670Y0251450
X0381770Y0263830
X0382060Y0253850
X0381740Y0259050
X0377100Y0263570
X0377070Y0258790
X0377390Y0253590
X0389190Y0263090
X0395390Y0256250
X0368990Y0204950
X0365330Y0204610
X0385320Y0206590
X0385100Y0213170
X0382640Y0218310
X0402380Y0232790
X0398980Y0228290
X0405880Y0223010
X0398380Y0223040
X0392547Y0223059
X0423919Y0196699
X0423470Y0205880
X0408290Y0203360
X0408475Y0199591
X0415040Y0190020
X0405140Y0190160
X0395820Y0192090
X0392300Y0195980
X0383800Y0189840
X0376170Y0189620
X0364960Y0188660
X0364850Y0192020
X0358170Y0195930
X0343380Y0194660
X0343560Y0202480
X0326110Y0195200
X0326620Y0202520
X0309620Y0202020
X0308800Y0195840
X0284790Y0193910
X0289380Y0196590
X0289110Y0202650
X0272530Y0197950
X0272130Y0202740
X0256160Y0202450
X0255519Y0196999
X0441550Y0374350
X0446660Y0369130
X0437260Y0367490
X0431510Y0371560
X0426400Y0378280
X0441980Y0380100
X0435150Y0381570
X0298620Y0375240
X0306800Y0377070
X0316530Y0377518
X0326870Y0377140
X0336590Y0377240
X0346310Y0377240
X0355350Y0377390
X0364170Y0377530
X0373390Y0377710
X0385390Y0377850
X0401000Y0377980
X0410520Y0378420
X0416200Y0378420
X0410560Y0387690
X0405130Y0385410
X0396110Y0387090
X0391850Y0387260
X0384890Y0384780
X0377660Y0386590
X0370990Y0386590
X0364870Y0386760
X0350930Y0387210
X0349510Y0385540
X0343490Y0390360
X0338600Y0390440
X0334810Y0390440
X0328630Y0390750
X0319410Y0390840
X0313725Y0390775
X0307390Y0390730
X0304170Y0398320
X0280650Y0389390
X0277950Y0389270
X0301060Y0390690
X0295150Y0390520
X0297060Y0398090
X0293240Y0398120
X0286450Y0399630
X0274880Y0399660
X0268650Y0400690
X0264090Y0400210
X0256520Y0400470
X0249940Y0397680
X0239320Y0401570
X0239280Y0395430
X0239100Y0389280
X0246170Y0388100
X0252210Y0387530
X0245980Y0382800
X0252620Y0366640
X0277650Y0350450
X0275560Y0355150
X0271200Y0356110
X0278020Y0320210
X0272250Y0318190
X0272250Y0320710
X0263000Y0330270
X0263480Y0333550
X0263860Y0337430
X0258880Y0338060
X0247830Y0336950
X0250600Y0359380
X0253210Y0359470
X0256840Y0359490
X0260370Y0359440
X0237890Y0344900
X0233280Y0355360
X0225540Y0355190
X0209090Y0298190
X0205020Y0297990
X0205140Y0304050
X0209500Y0304060
X0205110Y0307530
X0209490Y0307550
X0202763Y0312196
X0206840Y0312260
X0209990Y0312160
X0124770Y0239280
X0121960Y0243070
X0137130Y0235310
X0131950Y0235280
X0147700Y0232870
X0173690Y0233170
X0183760Y0246100
X0184740Y0240510
X0178550Y0228280
X0183190Y0232740
X0175730Y0222470
X0171370Y0226550
X0168370Y0222190
X0169080Y0216400
X0166230Y0211110
X0174160Y0211680
X0179160Y0215190
X0188800Y0214900
X0184230Y0210040
X0177590Y0205040
X0169940Y0203830
X0195660Y0254570
X0201310Y0253710
X0185050Y0222630
X0191910Y0223130
X0198090Y0220270
X0202590Y0220310
X0216350Y0246460
X0216220Y0253710
X0216430Y0258070
X0208610Y0273150
X0200750Y0273380
X0194120Y0274200
X0192390Y0279090
X0190040Y0287090
X0215920Y0264570
X0210380Y0265040
X0212170Y0269970
X0216840Y0271680
X0221350Y0271470
X0223780Y0275060
X0223830Y0280030
X0182890Y0307970
X0182770Y0295120
X0170870Y0259750
X0174730Y0264250
X0165550Y0262250
X0163970Y0256780
X0167940Y0234060
X0162010Y0234600
X0155360Y0234560
X0145610Y0235780
X0149720Y0235810
X0163900Y0238760
X0163960Y0242300
X0163940Y0247170
X0179690Y0253860
X0124710Y0218660
X0122060Y0221820
X0118980Y0228850
X0118830Y0224590
X0118870Y0219830
X0122780Y0226560
X0125030Y0223370
X0127560Y0219920
X0132110Y0219610
X0136070Y0219930
X0139060Y0222420
X0145130Y0222390
X0148460Y0212520
X0144320Y0212320
X0137880Y0212550
X0150000Y0220900
X0149230Y0224060
X0123630Y0212350
X0126010Y0212160
X0134330Y0212230
X0162310Y0203490
X0151560Y0203420
X0154610Y0206070
X0159000Y0206370
X0157130Y0211480
X0151810Y0211930
X0165290Y0252090
X0160750Y0252230
X0150060Y0251400
X0151800Y0251330
X0164170Y0222760
X0160300Y0222510
X0156580Y0222480
X0152330Y0226710
X0156290Y0226850
X0160090Y0226810
X0164210Y0227010
X0166880Y0229360
X0221190Y0223000
X0217910Y0222750
X0214840Y0222640
X0211890Y0222520
X0210890Y0227550
X0208400Y0227510
X0212140Y0234260
X0212050Y0237940
X0208850Y0242040
X0216590Y0240530
X0214110Y0242520
X0213070Y0249030
X0208340Y0253020
X0208450Y0249220
X0201880Y0225450
X0196540Y0225810
X0198250Y0228840
X0201700Y0228870
X0201560Y0232650
X0197720Y0232580
X0181960Y0249740
X0176160Y0249490
X0181850Y0256300
X0185400Y0252140
X0201950Y0248040
X0201950Y0242230
X0198940Y0239990
X0201450Y0235860
X0196540Y0235930
X0193030Y0234320
X0190740Y0236770
X0194800Y0241390
X0189700Y0240110
X0191390Y0243290
X0193550Y0245690
X0191080Y0247390
X0188350Y0244820
X0279640Y0280980
X0278580Y0284090
X0236430Y0224950
X0264040Y0284170
X0257760Y0284070
X0252760Y0284070
X0282760Y0284070
X0282760Y0289070
X0277760Y0289070
R07X-0005000
X0237260Y0263650
X0235170Y0266670
X0229050Y0261600
X0227560Y0244490
X0226070Y0243290
X0230480Y0232790
X0228550Y0231910
X0298290Y0234500
X0292470Y0228680
X0294200Y0234540
X0291660Y0232650
X0291610Y0234500
X0283870Y0234630
X0283920Y0232810
X0395820Y0263520
X0397300Y0260110
X0403328Y0345752
X0366130Y0345900
X0358830Y0344800
X0349420Y0347430
X0349430Y0349100
X0339020Y0344910
X0335880Y0345060
X0329430Y0344860
X0329910Y0350140
X0326260Y0345030
X0324870Y0349280
X0316200Y0349210
X0310440Y0345000
X0312890Y0346310
X0403660Y0339010
X0400783Y0340332
X0380697Y0339308
X0376367Y0341250
X0370913Y0341296
X0364678Y0339188
X0366120Y0344230
X0358820Y0343130
X0354230Y0340200
X0342950Y0338660
X0342320Y0341400
X0339760Y0341520
X0336630Y0341410
X0314520Y0344430
X0309400Y0340790
X0307170Y0339230
X0404883Y0334509
X0400608Y0338130
X0392572Y0337433
X0390599Y0335429
X0382051Y0336506
X0370253Y0335735
X0361309Y0336529
X0354220Y0338530
X0348260Y0332680
X0346510Y0338450
X0346240Y0333440
X0346300Y0335300
X0339970Y0335260
X0344190Y0333710
X0319250Y0336850
X0311320Y0338440
X0314560Y0338430
X0309500Y0336340
X0313000Y0333600
X0309450Y0334590
X0307030Y0336610
X0272700Y0334270
X0270440Y0336280
X0268120Y0334420
X0406069Y0331968
X0398212Y0334030
X0400138Y0332275
X0388368Y0329622
X0380192Y0329699
X0370015Y0326819
X0367108Y0330754
X0348980Y0330100
X0339700Y0328900
X0311320Y0329180
X0311390Y0331990
X0309430Y0331420
X0309470Y0328150
X0307020Y0332470
X0270600Y0332150
X0400790Y0325551
X0387996Y0325206
X0390714Y0321999
X0309750Y0321090
X0308630Y0326080
X0311320Y0325760
X0309750Y0324660
X0306890Y0321280
X0400823Y0318583
X0395769Y0319903
X0397154Y0316498
X0394129Y0318469
X0328440Y0317940
X0323970Y0319620
X0309960Y0315210
X0311850Y0317520
X0306930Y0317980
X0401738Y0309714
X0393098Y0310758
X0391264Y0313141
X0372153Y0314154
X0347610Y0310000
X0343010Y0308810
X0327500Y0311400
X0323860Y0310070
X0326000Y0313200
X0315400Y0310200
X0315900Y0314000
X0312410Y0310040
X0405015Y0304466
X0402228Y0307150
X0392500Y0306068
X0388084Y0305788
X0357619Y0304351
X0345080Y0308300
X0347790Y0306740
X0336660Y0303790
X0327650Y0307100
X0324200Y0305400
X0315120Y0302830
X0315130Y0304500
X0316400Y0307200
X0320240Y0304700
X0318930Y0307020
X0401921Y0296696
X0399027Y0298969
X0397498Y0300921
X0389592Y0301361
X0385532Y0302315
X0381637Y0297453
X0370671Y0298599
X0357756Y0299171
X0317860Y0296761
X0310000Y0300000
X0310830Y0297300
X0388561Y0297671
X0388610Y0294219
X0390306Y0295963
X0382694Y0294875
X0377421Y0296444
X0371020Y0294030
X0371030Y0295700
X0365920Y0293630
X0365930Y0295300
X0360320Y0293830
X0360330Y0295500
X0355218Y0293208
X0325379Y0296470
X0310820Y0295630
X0370420Y0287630
X0370430Y0289300
X0357877Y0289839
X0362420Y0288730
X0362430Y0290400
X0350926Y0285153
X0350871Y0287604
X0310420Y0290740
X0390000Y0280000
X0359985Y0283604
X0355129Y0284277
X0333520Y0282560
X0326340Y0279760
X0320580Y0279240
X0322425Y0283885
X0317288Y0283846
X0357201Y0277418
X0357997Y0273820
X0359939Y0278150
X0346828Y0273302
X0316420Y0273380
X0313310Y0277448
X0357752Y0266799
X0354210Y0267100
X0355195Y0272466
X0319117Y0268432
X0313564Y0271823
X0354118Y0263918
X0356122Y0261945
X0340688Y0263803
X0329447Y0261419
X0324716Y0265641
X0324757Y0262017
X0314652Y0264211
X0316360Y0265956
X0316530Y0262380
X0318200Y0262370
X0312908Y0265907
X0292650Y0262690
X0292660Y0264360
X0294710Y0261840
X0296380Y0261830
X0258290Y0261470
X0255930Y0261470
X0357099Y0254779
X0359209Y0257449
X0355548Y0255490
X0353596Y0257019
X0338592Y0258748
X0335187Y0257363
X0337250Y0260300
X0292820Y0258850
X0292830Y0260520
X0294760Y0257950
X0296430Y0257940
X0283720Y0256190
X0283720Y0258550
X0267070Y0257620
X0267080Y0259290
X0364541Y0251189
X0359021Y0253734
X0357875Y0251699
X0353274Y0248666
X0344240Y0253727
X0336990Y0254060
X0328403Y0252779
X0323155Y0249502
X0325839Y0252289
X0316639Y0254182
X0315385Y0252596
X0252240Y0248930
X0350657Y0248448
X0338750Y0247350
X0334000Y0243070
X0336730Y0247800
X0332330Y0243080
X0317700Y0341900
X0379219Y0345703
X0409560Y0340560
X0387718Y0339063
X0327190Y0341190
X0321010Y0341600
X0325580Y0336830
X0314600Y0341900
X0311400Y0341900
X0409278Y0333456
X0404278Y0336717
X0383620Y0338417
X0376034Y0334402
X0397068Y0340520
X0354158Y0329128
X0369351Y0331979
X0341400Y0333590
X0336600Y0338400
X0333530Y0341360
X0328600Y0333700
X0331890Y0336800
X0333400Y0338400
X0407556Y0330145
X0397953Y0325639
X0401788Y0328286
X0394867Y0330222
X0342940Y0328960
X0354092Y0326237
X0328700Y0330500
X0324009Y0328649
X0409528Y0323445
X0398252Y0322641
X0403268Y0325236
X0384727Y0321302
X0372379Y0321671
X0339700Y0322300
X0341300Y0330500
X0338020Y0321090
X0339700Y0325600
X0319030Y0327410
X0314560Y0322810
X0314540Y0325630
X0320859Y0332081
X0317709Y0332191
X0314558Y0331932
X0314580Y0328800
X0406744Y0315376
X0398980Y0315385
X0384694Y0314246
X0349205Y0321060
X0344500Y0317700
X0341300Y0317900
X0332190Y0318820
X0334400Y0317900
X0336580Y0319740
X0328719Y0327359
X0328700Y0324250
X0330350Y0319420
X0322250Y0322630
X0317490Y0320370
X0319450Y0317980
X0322100Y0317250
X0409920Y0311487
X0401083Y0311955
X0352188Y0308614
X0348380Y0313760
X0350676Y0309944
X0342700Y0313200
X0338870Y0308580
X0322440Y0314690
X0315200Y0312500
X0309470Y0311540
X0409908Y0306467
X0381546Y0305792
X0353773Y0307087
X0352349Y0300799
X0343000Y0306700
X0332720Y0307010
X0332640Y0308610
X0405445Y0297482
X0409998Y0301467
X0409900Y0296230
X0378754Y0303238
X0372265Y0303276
X0384204Y0299752
X0378427Y0298713
X0402049Y0289813
X0386347Y0289778
X0379188Y0289966
X0364392Y0275298
X0325009Y0273011
X0318804Y0277409
X0308655Y0275329
X0357106Y0270897
X0340398Y0276160
X0340360Y0282138
X0339991Y0269790
X0333486Y0270060
X0318441Y0270313
X0308200Y0268800
X0347031Y0257764
X0334074Y0255537
X0340310Y0256700
X0355796Y0247760
X0346975Y0252729
X0344780Y0255750
X0343925Y0251249
X0334065Y0247773
X0330644Y0253434
X0316171Y0249072
X0308502Y0252468
X0359307Y0244607
X0352145Y0245239
X0348834Y0246961
X0342134Y0244989
X0330176Y0244597
X0319620Y0244730
X0325156Y0244609
X0314919Y0244617
X0268600Y0247170
X0268600Y0244810
X0255420Y0248640
X0255350Y0246110
X0258530Y0246170
X0258530Y0248530
X0258520Y0243290
X0255380Y0243140
X0252100Y0246280
X0252150Y0243660
X0268370Y0238780
X0268590Y0241930
X0255250Y0239850
X0258300Y0240140
X0251810Y0240170
X0283630Y0226260
X0283640Y0227930
X0280360Y0226410
X0280370Y0228080
X0263330Y0219780
X0278380Y0216480
X0278390Y0218150
X0274160Y0216600
X0274170Y0218270
X0270310Y0216460
X0270320Y0218130
X0266980Y0216530
X0266990Y0218200
X0263320Y0218110
X0257850Y0215700
X0247320Y0215190
X0247330Y0216860
M30
