M48
INCH
T01C.004
T02C.008
T03C.01575
T04C.03543
T05C.041
T06C.04134
T07C.04331
T08C.06693
T09C.17323
T10C.04724
T11C.12795
;LEADER: 12 
;HEADER: 
;CODE  : ASCII 
;FILE  : BEAGLEV-AHEAD V11_no_logo-1-4.drl for  ... layers TOP and L4_GND
;DESIGN: BEAGLEV-AHEAD V11_no_logo.brd
;T01 Holesize 1. = 4.000000 Tolerance = +3.000000/-3.000000 PLATED MILS Quantity = 46
%
G90
T01
X0277920Y0324680
X0333457Y0347831
X0333457Y0346256
X0331883Y0346256
X0320859Y0349406
X0322434Y0347831
R02X-0001575
X0399174Y0337107
X0396032Y0334617
X0361462Y0335555
X0341331Y0333658
X0346070Y0328900
X0405473Y0321753
X0352355Y0321060
X0349205Y0321060
X0346050Y0322640
X0317710Y0321040
X0350780Y0316335
X0349205Y0317910
X0346050Y0316310
X0346070Y0319480
X0327158Y0319485
X0330310Y0316320
X0324009Y0314760
X0344490Y0311620
X0339757Y0310036
X0327390Y0311640
X0331890Y0311600
X0386576Y0306398
X0341331Y0303737
X0335032Y0306887
X0399174Y0298721
X0386576Y0296162
X0318962Y0293055
X0314800Y0280560
X0314851Y0267941
X0355796Y0255343
X0336607Y0302162
X0319969Y0258493
X0317410Y0255343
X0340442Y0249044
X0260610Y0217390
X0260610Y0216390
X0252900Y0216300
X0252900Y0217300
M30
