M48
INCH
T01C.004
T02C.008
T03C.01575
T04C.03543
T05C.041
T06C.04134
T07C.04331
T08C.06693
T09C.17323
T10C.04724
T11C.12795
;LEADER: 12 
;HEADER: 
;CODE  : ASCII 
;FILE  : BEAGLEV-AHEAD V11_no_logo-2-3.drl for  ... layers L2_GND and L3_SIG
;DESIGN: BEAGLEV-AHEAD V11_no_logo.brd
;T01 Holesize 1. = 4.000000 Tolerance = +3.000000/-3.000000 PLATED MILS Quantity = 40
%
G90
T01
X0350110Y0350990
X0352980Y0350320
X0347970Y0352070
X0348430Y0350440
X0346730Y0350530
X0307117Y0350600
X0354490Y0339970
X0343490Y0347230
X0302639Y0321736
X0317170Y0299260
X0303134Y0326867
X0303520Y0309870
X0303650Y0302260
X0314700Y0305000
X0312490Y0303500
X0311410Y0304818
X0316400Y0303900
X0291810Y0323260
X0287990Y0323250
X0280490Y0323300
X0284030Y0322000
X0343650Y0357300
X0337633Y0360438
X0325765Y0356011
X0316690Y0356149
X0314078Y0356449
X0348390Y0355900
X0344340Y0355590
X0339645Y0355575
X0329365Y0355636
X0331102Y0352137
X0324603Y0351724
X0316552Y0352412
X0315460Y0350950
X0310778Y0355311
X0356600Y0349530
X0344800Y0333600
X0286200Y0321400
X0302200Y0318504
X0315300Y0310100
M30
