M48
INCH
T01C.004
T02C.008
T03C.01575
T04C.03543
T05C.041
T06C.04134
T07C.04331
T08C.06693
T09C.17323
T10C.04724
T11C.12795
;LEADER: 12 
;HEADER: 
;CODE  : ASCII 
;FILE  : BEAGLEV-AHEAD V11_no_logo-3-5.drl for  ... layers L3_SIG and L5_SIG
;DESIGN: BEAGLEV-AHEAD V11_no_logo.brd
;T01 Holesize 1. = 4.000000 Tolerance = +3.000000/-3.000000 PLATED MILS Quantity = 165
%
G90
T01
X0198940Y0366990
X0198060Y0364380
X0145410Y0214590
X0200210Y0365750
X0147420Y0222360
X0294060Y0378250
X0295100Y0373840
X0298650Y0353970
X0439970Y0324350
X0449810Y0319430
X0449170Y0361660
X0449170Y0352700
X0446730Y0320950
X0446060Y0356200
X0447240Y0357370
X0299560Y0355550
X0297720Y0355380
X0421240Y0286670
X0426780Y0232010
X0427460Y0221120
X0425680Y0282680
X0421885Y0285590
X0428430Y0229410
X0429370Y0221130
X0427540Y0282650
X0426640Y0283620
X0431080Y0224780
X0139170Y0214260
X0145200Y0219150
X0145180Y0217020
X0436110Y0218070
X0430430Y0281630
X0435090Y0217250
X0429410Y0282620
X0436090Y0216130
X0433470Y0281620
X0432730Y0215230
X0428560Y0283600
X0376350Y0224860
X0236040Y0346160
X0450660Y0246530
X0420260Y0287830
X0419780Y0241000
X0293370Y0357040
X0292400Y0355600
X0196810Y0363340
X0422090Y0393130
X0419280Y0398450
X0217180Y0347030
X0215010Y0356420
X0215360Y0320400
X0215450Y0319470
X0212270Y0356470
X0204470Y0294140
X0422580Y0284520
X0427840Y0239190
X0209850Y0360140
X0220170Y0371390
X0205940Y0291560
X0219040Y0370350
X0410480Y0230910
X0414830Y0282570
X0428370Y0227400
X0423690Y0282720
X0413750Y0283360
X0408990Y0230930
X0427510Y0224790
X0424760Y0283650
X0211130Y0358860
X0412380Y0236510
X0416080Y0283380
X0416750Y0276840
X0415930Y0247840
X0414700Y0249390
X0414670Y0276090
X0414930Y0243820
X0418220Y0288720
X0213860Y0357590
X0456200Y0253420
X0431360Y0282680
X0436330Y0246390
X0365390Y0357740
X0455210Y0249350
X0370550Y0361140
X0209970Y0290480
X0219020Y0368180
X0368840Y0357210
X0220200Y0369270
X0373940Y0359090
X0254610Y0278400
X0227810Y0330060
X0254260Y0332760
X0310665Y0319685
X0446580Y0275710
X0308420Y0288330
X0245850Y0282300
X0224390Y0328950
X0250480Y0332530
X0378190Y0351440
X0434210Y0351390
X0440510Y0277650
X0304660Y0359590
X0432950Y0352890
X0432340Y0286660
X0255780Y0331160
X0234590Y0347490
X0203230Y0349150
X0202090Y0348160
X0226620Y0331300
X0377280Y0350380
X0226690Y0327820
X0196810Y0350500
X0305550Y0358400
X0435170Y0349750
X0435190Y0291940
X0197730Y0351510
X0434720Y0280250
X0441170Y0243190
X0396700Y0227460
X0240080Y0300390
X0318500Y0353767
X0317100Y0353767
X0324800Y0311800
X0304650Y0357600
X0454450Y0262980
X0375860Y0363060
X0370360Y0363060
X0219030Y0363290
X0394420Y0227150
X0438230Y0304870
X0298995Y0279335
X0299995Y0279335
X0299995Y0280335
X0298995Y0280335
X0303045Y0280255
X0304045Y0280255
X0304045Y0279255
X0303045Y0279255
X0305095Y0279325
X0305095Y0280325
X0240860Y0344280
X0237780Y0342340
X0236180Y0341470
X0239400Y0343310
X0243490Y0345780
X0194620Y0220750
X0271610Y0361870
X0447710Y0253630
X0164640Y0387340
X0242210Y0344770
X0442310Y0355390
X0296570Y0355060
X0396900Y0350630
X0298790Y0286350
X0393060Y0350670
X0297360Y0285200
X0307400Y0289720
X0305960Y0289430
X0295370Y0355930
X0443600Y0356340
X0364320Y0367710
X0444450Y0275530
X0447540Y0251240
X0426260Y0251490
X0323610Y0312080
M30
