M48
INCH
T01C.004
T02C.008
T03C.01575
T04C.03543
T05C.041
T06C.04134
T07C.04331
T08C.06693
T09C.17323
T10C.04724
T11C.12795
;LEADER: 12 
;HEADER: 
;CODE  : ASCII 
;FILE  : BEAGLEV-AHEAD V11_no_logo-7-10.drl for  ... layers L7_PWR and BOTTOM
;DESIGN: BEAGLEV-AHEAD V11_no_logo.brd
;T01 Holesize 1. = 4.000000 Tolerance = +3.000000/-3.000000 PLATED MILS Quantity = 104
%
G90
T01
X0239930Y0337000
X0240690Y0337650
X0241430Y0338360
X0242060Y0339040
X0242720Y0339690
X0243310Y0340400
X0243950Y0340980
X0244650Y0341610
X0245290Y0342190
X0245930Y0342870
X0252630Y0342070
R04X0001000
X0258630Y0342070
X0257630Y0342070
X0261090Y0333200
X0260120Y0333190
X0266260Y0324570
X0267330Y0324630
X0266270Y0323500
X0267360Y0323500
X0266420Y0322360
X0267370Y0322370
X0266612Y0330263
X0266612Y0331838
X0305726Y0256767
X0305726Y0255767
X0306726Y0256767
X0306726Y0255767
X0368535Y0283767
X0365535Y0283767
X0366535Y0283767
X0367535Y0283767
X0368535Y0284767
X0365535Y0284767
X0366535Y0284767
X0367535Y0284767
X0368535Y0285767
R03X-0001000
X0381076Y0318977
X0381076Y0317977
X0380076Y0318977
X0380076Y0317977
X0329360Y0336930
X0313500Y0328400
X0309400Y0328394
X0310200Y0328394
X0339550Y0320220
X0315400Y0309400
X0167740Y0383030
X0166690Y0383080
X0362490Y0368200
X0294750Y0331770
R02X0001000
X0296750Y0332770
R02X-0001000
X0294270Y0339360
R02X0001000
X0296270Y0338360
R02X-0001000
X0306340Y0334200
X0305540Y0334200
X0307140Y0334200
X0311750Y0333970
X0310150Y0333970
X0310950Y0333970
X0335000Y0318000
X0325800Y0317200
X0311700Y0313438
X0332380Y0333730
X0328790Y0334070
X0323897Y0334953
X0331600Y0330600
X0332600Y0330600
X0332600Y0331600
X0331600Y0331600
X0328790Y0327000
X0323801Y0328980
X0336630Y0320460
X0336920Y0322420
X0326260Y0322620
X0329910Y0323190
X0329900Y0325200
X0329900Y0324100
X0331070Y0323050
X0330400Y0319200
X0328200Y0319200
X0326950Y0319139
X0320700Y0318809
X0311640Y0317100
X0312480Y0317730
X0312270Y0321689
X0315980Y0316990
X0331510Y0306870
X0324041Y0305858
X0323880Y0309600
M30
