M48
INCH
T01C.004
T02C.008
T03C.01575
T04C.03543
T05C.041
T06C.04134
T07C.04331
T08C.06693
T09C.17323
T10C.04724
T11C.12795
;LEADER: 12 
;HEADER: 
;CODE  : ASCII 
;FILE  : BEAGLEV-AHEAD V11_no_logo-1-2.drl for  ... layers TOP and L2_GND
;DESIGN: BEAGLEV-AHEAD V11_no_logo.brd
;T01 Holesize 1. = 4.000000 Tolerance = +3.000000/-3.000000 PLATED MILS Quantity = 475
%
G90
T01
X0347631Y0347831
X0353930Y0349406
X0347631Y0349406
X0349135Y0349459
X0344481Y0349406
X0308261Y0349406
X0350780Y0338382
X0342906Y0347831
X0305115Y0322635
X0319288Y0302163
X0355390Y0338050
X0352350Y0338280
X0305115Y0325785
X0305111Y0308461
X0303536Y0300587
X0314560Y0299012
X0312989Y0300588
X0311410Y0303737
X0316195Y0302160
X0298010Y0354680
X0384610Y0223824
X0278110Y0378066
X0269330Y0308500
X0269250Y0306330
X0272680Y0309600
X0444930Y0324980
X0444010Y0329890
X0443730Y0334370
X0452130Y0321020
X0453210Y0316960
X0441950Y0318830
X0436220Y0319160
X0434420Y0303110
X0431320Y0309440
X0431490Y0314210
X0431660Y0318170
X0403570Y0384830
X0388900Y0389400
X0386400Y0384270
X0378150Y0384440
X0366800Y0384540
X0353260Y0383950
X0349890Y0383830
X0243000Y0221770
X0271520Y0376390
X0270700Y0384040
X0270920Y0381490
X0267920Y0380850
X0246510Y0380700
X0247430Y0377280
X0216340Y0369850
X0211070Y0370900
X0204610Y0370900
X0223500Y0335700
X0218190Y0335860
X0213040Y0335840
X0223300Y0342660
X0218540Y0342810
X0216100Y0342660
X0244740Y0329290
X0279790Y0286520
X0283890Y0286340
X0238780Y0285630
X0236250Y0283590
X0221090Y0301070
X0219430Y0297950
X0219190Y0304050
X0220960Y0306120
X0358910Y0210910
X0352690Y0208980
X0347480Y0209300
X0334380Y0208990
X0329520Y0209170
X0327140Y0216980
X0319880Y0210170
X0315050Y0207660
X0308830Y0207560
X0301480Y0207330
X0292730Y0207390
X0288460Y0207530
X0278590Y0206410
X0280440Y0208330
X0282700Y0210350
X0199440Y0326040
X0202040Y0323460
X0209940Y0328000
X0217160Y0327900
X0213520Y0327990
X0221610Y0327690
X0213660Y0323260
X0220550Y0321660
X0223650Y0311010
X0221560Y0310590
X0219120Y0311420
X0219420Y0318920
X0221560Y0317040
X0358320Y0376120
X0355760Y0373640
X0353260Y0371180
X0351900Y0368470
X0322160Y0372340
X0326690Y0376870
X0289540Y0313940
X0279280Y0308770
X0272670Y0305410
X0265280Y0306080
X0260250Y0305680
X0255820Y0305710
X0248640Y0304430
X0248970Y0301020
X0256600Y0297000
X0292850Y0308480
X0239118Y0350752
X0246980Y0360390
X0249300Y0357880
X0249320Y0352860
X0249260Y0348830
X0259080Y0312580
X0254130Y0312590
X0250290Y0325770
X0251000Y0320690
X0250890Y0314890
X0267980Y0314870
X0312985Y0347831
X0314560Y0347831
X0311410Y0349406
X0301961Y0299012
X0418790Y0229710
X0422380Y0229940
X0422130Y0233980
X0418740Y0234100
X0420477Y0232128
X0306686Y0305312
X0306686Y0306886
X0390652Y0220189
X0422632Y0196999
X0406580Y0196621
X0390832Y0196899
X0357932Y0196899
X0341132Y0196699
X0323732Y0196499
X0307580Y0196821
X0286332Y0196899
X0269932Y0197099
X0254332Y0196999
X0368429Y0366909
X0291360Y0314430
X0456120Y0307840
X0457274Y0307844
X0420600Y0284260
X0420490Y0280400
X0390999Y0263093
X0411310Y0395300
X0411287Y0393380
X0411310Y0391550
X0405500Y0395480
X0405477Y0393560
X0405500Y0391730
X0393570Y0395390
X0393547Y0393470
X0393570Y0391640
X0387820Y0395340
X0387797Y0393420
X0387820Y0391590
X0381710Y0395410
X0381687Y0393490
X0381710Y0391660
X0375930Y0395290
X0375907Y0393370
X0375930Y0391540
X0345227Y0393510
X0345250Y0395430
X0345250Y0391680
X0309870Y0395430
X0309847Y0393510
X0309870Y0391680
X0283230Y0388020
X0283230Y0387020
X0290240Y0388100
X0290400Y0392140
X0290450Y0394340
X0279317Y0393400
X0279340Y0395320
X0279340Y0391570
X0273347Y0393450
X0273370Y0395370
X0273370Y0391620
X0267557Y0393500
X0267580Y0395420
X0267580Y0391670
X0261730Y0395460
X0261730Y0391710
X0261707Y0393540
X0255780Y0391700
X0265480Y0332345
X0265140Y0340130
X0257460Y0341380
X0249720Y0335960
X0246220Y0334830
X0246250Y0335770
X0234142Y0364350
X0234142Y0371437
X0222380Y0376112
X0222380Y0331328
X0198155Y0309850
X0196150Y0309155
X0196150Y0306655
X0196150Y0298655
X0196345Y0295850
X0199345Y0295550
X0209450Y0293140
X0209370Y0292200
X0211350Y0296345
X0211500Y0298500
X0209060Y0302190
X0209160Y0301180
X0284390Y0358640
X0272970Y0381480
X0264430Y0362480
X0238360Y0338290
X0239740Y0360810
X0249310Y0345210
X0265490Y0301030
X0303536Y0321060
X0372630Y0359790
X0318800Y0375600
X0334800Y0368000
X0334800Y0370600
X0332070Y0370740
X0326030Y0369920
X0322900Y0368000
X0318600Y0371200
X0315600Y0371200
X0312400Y0371000
X0309400Y0371200
X0306400Y0371200
X0348000Y0362000
X0341000Y0366800
X0335000Y0364800
X0332020Y0366120
X0328600Y0366400
X0325400Y0364200
X0322400Y0363400
X0315600Y0366600
X0319400Y0366600
X0314000Y0363400
X0309400Y0363800
X0306410Y0363590
X0302830Y0363890
X0346870Y0357400
X0352880Y0363370
X0341000Y0357800
X0335400Y0360800
X0333200Y0358800
X0331970Y0361290
X0328600Y0359600
X0325400Y0358800
X0317800Y0359400
X0308400Y0360400
X0311800Y0356800
X0357260Y0354290
X0353930Y0350981
X0332000Y0355400
X0327200Y0355800
X0327200Y0352800
X0331883Y0350981
X0324009Y0350981
X0314560Y0350981
X0313000Y0352800
X0304800Y0363000
X0303536Y0350981
X0298180Y0350510
X0300230Y0354280
X0289299Y0350538
X0358870Y0346020
X0356620Y0347460
X0353930Y0346256
X0347631Y0346256
X0346056Y0347831
X0342906Y0349406
X0331883Y0349406
X0322434Y0346256
X0320859Y0346256
X0324009Y0349406
X0317709Y0349406
X0306686Y0344682
X0297020Y0348130
X0373977Y0339666
X0368800Y0339600
X0350780Y0343107
X0349205Y0341532
X0347606Y0342677
X0305111Y0339957
X0305111Y0343107
X0298170Y0338740
X0386576Y0334548
X0377127Y0337107
X0373977Y0334548
X0353933Y0333659
X0361700Y0333000
X0350780Y0333658
X0352358Y0333659
X0352358Y0332084
X0363248Y0337990
X0366468Y0341227
X0347640Y0332060
X0336607Y0333658
X0305111Y0332083
X0305111Y0336808
X0290280Y0336090
X0297760Y0334340
X0386576Y0329430
X0380276Y0329430
X0378600Y0329200
X0373977Y0329430
X0353933Y0327359
X0352355Y0328934
X0341310Y0327350
X0341331Y0330508
X0336607Y0330508
X0336607Y0327359
X0333457Y0330508
X0333457Y0327359
X0295810Y0330540
X0270810Y0347890
X0299100Y0330630
X0287030Y0329080
X0249080Y0342180
X0249750Y0331490
X0388100Y0324200
X0385200Y0321700
X0385000Y0324000
X0381900Y0324100
X0380276Y0324312
X0378800Y0321800
X0373977Y0324312
X0372900Y0323200
X0365000Y0323100
X0353933Y0325784
X0352358Y0324207
X0341331Y0324209
X0341331Y0321060
X0336607Y0324209
X0333457Y0324209
X0333457Y0321060
X0308261Y0325784
X0306686Y0325784
X0298160Y0323540
X0284920Y0323400
X0280560Y0322180
X0298010Y0320970
X0269209Y0324629
X0403800Y0317900
X0352358Y0314758
X0350783Y0314759
X0352358Y0317909
X0350783Y0325784
X0341331Y0317910
X0339757Y0316335
X0336607Y0316335
X0324009Y0316335
X0303536Y0314760
X0282415Y0319625
X0380276Y0311516
X0373977Y0311516
X0355508Y0308459
X0353930Y0308461
X0352355Y0311611
X0324009Y0311611
X0308261Y0308461
X0308261Y0310036
X0303536Y0311611
X0306686Y0310036
X0306686Y0308461
X0399600Y0307700
X0402324Y0306398
X0396024Y0306398
X0373977Y0306398
X0358110Y0303936
X0355702Y0303764
X0346056Y0303737
X0346058Y0305309
X0347631Y0305312
X0347631Y0303737
X0339720Y0303740
X0339760Y0302180
X0342900Y0302160
X0335080Y0303730
X0333470Y0302180
X0330310Y0302159
X0328733Y0303734
X0325600Y0302120
X0322480Y0306880
X0320858Y0302159
X0322433Y0302159
X0317709Y0305312
X0320855Y0303734
X0319290Y0305310
X0319288Y0303734
X0308261Y0306886
X0309835Y0305312
X0312985Y0305312
X0305111Y0302162
X0305111Y0303737
X0306686Y0303737
X0297390Y0303980
X0396024Y0301280
X0396024Y0296162
X0386576Y0301280
X0373977Y0296162
X0373977Y0301280
X0371200Y0297300
X0366400Y0299400
X0366700Y0296400
X0350581Y0296407
X0350753Y0298815
X0346058Y0299009
X0346056Y0300587
X0327120Y0300560
X0328730Y0300590
X0305111Y0300587
X0308261Y0300587
X0308056Y0296263
X0305240Y0296211
X0303536Y0299012
X0300240Y0297330
X0321400Y0292600
X0320858Y0300584
X0358100Y0287900
X0355100Y0288100
X0321200Y0287400
X0325200Y0285300
X0358355Y0280540
X0352800Y0278700
X0350400Y0278900
X0353237Y0280540
X0348119Y0280540
X0343000Y0282500
X0343001Y0280540
X0330300Y0278900
X0331000Y0282100
X0330205Y0280540
R02X-0005118
X0314800Y0278900
X0351900Y0276800
X0355796Y0277390
X0348119Y0274241
X0343001Y0274241
X0330205Y0274241
X0317100Y0275900
X0316100Y0273700
X0353237Y0267941
X0348119Y0267941
X0327500Y0266600
X0325200Y0269700
X0325087Y0267941
X0319969Y0267941
X0340100Y0263000
X0353237Y0258493
X0325200Y0256800
X0325087Y0258493
X0314851Y0258493
X0338400Y0253400
X0337500Y0250000
X0327800Y0250800
X0325087Y0252193
X0294750Y0254410
X0294750Y0253410
X0295750Y0253410
X0295750Y0254410
X0296140Y0247260
X0295140Y0247260
X0296140Y0248260
X0295140Y0248260
M30
