G04 ================== begin FILE IDENTIFICATION RECORD ==================*
G04 Layout Name:  BEAGLEV-AHEAD V11_no_logo.brd*
G04 Film Name:    OUTLINE*
G04 File Format:  Gerber RS274X*
G04 File Origin:  Cadence Allegro 17.4-S035*
G04 Origin Date:  Wed Jul 12 11:34:59 2023*
G04 *
G04 Layer:  BOARD GEOMETRY/DIMENSION*
G04 Layer:  BOARD GEOMETRY/OUTLINE*
G04 *
G04 Offset:    (0.00 0.00)*
G04 Mirror:    No*
G04 Mode:      Positive*
G04 Rotation:  0*
G04 FullContactRelief:  No*
G04 UndefLineWidth:     5.00*
G04 ================== end FILE IDENTIFICATION RECORD ====================*
%FSLAX25Y25*MOIN*%
%IR0*IPPOS*OFA0.00000B0.00000*MIA0B0*SFA1.00000B1.00000*%
%ADD10C,.02*%
%ADD11C,.005*%
G75*
%LPD*%
G75*
G54D10*
G01X62942Y268755D02*
X61483Y269840D01*
X60650Y270770D01*
X60233Y272010D01*
X60650Y273095D01*
X61483Y273870D01*
X62733Y274490D01*
X64192Y274645D01*
X65442Y274490D01*
X66692Y273870D01*
X67733Y272940D01*
X68150Y271855D01*
X67733Y270615D01*
X66484Y269530D01*
X64608Y268910D01*
X62525Y268755D01*
X59817Y269065D01*
X58358Y269530D01*
X56900Y270305D01*
X55858Y271390D01*
X55650Y272475D01*
X56067Y273560D01*
X57108Y274335D01*
G01X55650Y284100D02*
X56067Y282860D01*
X57108Y281930D01*
X58358Y281310D01*
X60025Y280845D01*
X61900Y280690D01*
X63775Y280845D01*
X65442Y281310D01*
X66692Y281930D01*
X67733Y282860D01*
X68150Y284100D01*
X67733Y285340D01*
X66692Y286270D01*
X65442Y286890D01*
X63775Y287355D01*
X61900Y287510D01*
X60025Y287355D01*
X58358Y286890D01*
X57108Y286270D01*
X56067Y285340D01*
X55650Y284100D01*
G01X68567Y296500D02*
X68358Y296190D01*
X67942D01*
X67733Y296500D01*
X67942Y296810D01*
X68358D01*
X68567Y296500D01*
G01X68150Y308590D02*
X65442Y308900D01*
X63150Y309365D01*
X61067Y309985D01*
X58775Y310760D01*
X55650Y312000D01*
Y305800D01*
G01X68150Y317270D02*
X55650D01*
X66067Y321300D01*
X55650Y325330D01*
X68150D01*
G01Y329670D02*
X55650D01*
X66067Y333700D01*
X55650Y337730D01*
X68150D01*
G01X234265Y447708D02*
X235350Y446667D01*
X236590Y446250D01*
X237830Y446667D01*
X238915Y447916D01*
X239690Y449792D01*
X240000Y451667D01*
Y453958D01*
X239690Y455833D01*
X238915Y457500D01*
X237985Y458333D01*
X236900Y458750D01*
X235660Y458333D01*
X234730Y457500D01*
X234110Y456250D01*
X233800Y454583D01*
X234110Y453125D01*
X234885Y451667D01*
X235815Y450833D01*
X236900Y450625D01*
X238140Y451041D01*
X239070Y452083D01*
X240000Y453958D01*
G01X246355Y451458D02*
X247440Y452917D01*
X248370Y453750D01*
X249610Y454167D01*
X250695Y453750D01*
X251470Y452917D01*
X252090Y451667D01*
X252245Y450208D01*
X252090Y448958D01*
X251470Y447708D01*
X250540Y446667D01*
X249455Y446250D01*
X248215Y446667D01*
X247130Y447916D01*
X246510Y449792D01*
X246355Y451875D01*
X246665Y454583D01*
X247130Y456042D01*
X247905Y457500D01*
X248990Y458542D01*
X250075Y458750D01*
X251160Y458333D01*
X251935Y457292D01*
G01X261700Y445833D02*
X261390Y446042D01*
Y446458D01*
X261700Y446667D01*
X262010Y446458D01*
Y446042D01*
X261700Y445833D01*
G01X270690Y448125D02*
X271620Y447083D01*
X272705Y446458D01*
X274100Y446250D01*
X275495Y446667D01*
X276580Y447500D01*
X277355Y448958D01*
X277510Y450625D01*
X277200Y452292D01*
X276425Y453333D01*
X275340Y454167D01*
X274255Y454375D01*
X273170Y454167D01*
X271775Y453333D01*
X272240Y458750D01*
X276425D01*
G01X283555Y456667D02*
X284485Y457916D01*
X285570Y458542D01*
X286810Y458750D01*
X288360Y458333D01*
X289445Y457292D01*
X289755Y456042D01*
X289600Y454791D01*
X288980Y453750D01*
X285880Y451667D01*
X284485Y450208D01*
X283555Y448125D01*
X283245Y446250D01*
X289755D01*
G01X294870D02*
Y458750D01*
X298900Y448333D01*
X302930Y458750D01*
Y446250D01*
G01X307270D02*
Y458750D01*
X311300Y448333D01*
X315330Y458750D01*
Y446250D01*
G54D11*
G01X118160Y177600D02*
X65560D01*
G01X118014Y416566D02*
X65560D01*
G01X72940Y193350D02*
X75400Y177600D01*
X77860Y193350D01*
X72940D01*
G01X77860Y400816D02*
X75400Y416566D01*
X72940Y400816D01*
X77860D01*
G01X75400Y302700D02*
Y177600D01*
G01Y302700D02*
Y416566D01*
G01X102854Y202566D02*
G03X127854Y177566I25000J0D01*
G01X102854Y391566D02*
Y202566D01*
G01X127854Y416566D02*
G03X102854Y391566I0J-25000D01*
G01Y401406D02*
Y448840D01*
G01X274100Y439000D02*
X102854D01*
G01X118604Y441460D02*
X102854Y439000D01*
X118604Y436540D01*
Y441460D01*
G01X127854Y177566D02*
X432854D01*
G01Y416566D02*
X127854D01*
G01X274100Y439000D02*
X482854D01*
G01X432854Y177566D02*
G03X482854Y227566I0J50000D01*
G01Y366566D02*
G03X432854Y416566I-50000J0D01*
G01X467104Y436540D02*
X482854Y439000D01*
X467104Y441460D01*
Y436540D01*
G01X482854Y227566D02*
Y366566D01*
G01Y376406D02*
Y448840D01*
M02*
