G04 ================== begin FILE IDENTIFICATION RECORD ==================*
G04 Layout Name:  BEAGLEV-AHEAD V11_no_logo.brd*
G04 Film Name:    pasttop*
G04 File Format:  Gerber RS274X*
G04 File Origin:  Cadence Allegro 17.4-S035*
G04 Origin Date:  Wed Jul 12 11:35:00 2023*
G04 *
G04 Layer:  PACKAGE GEOMETRY/PASTEMASK_TOP*
G04 Layer:  PIN/PASTEMASK_TOP*
G04 Layer:  BOARD GEOMETRY/OUTLINE*
G04 *
G04 Offset:    (0.00 0.00)*
G04 Mirror:    No*
G04 Mode:      Positive*
G04 Rotation:  0*
G04 FullContactRelief:  No*
G04 UndefLineWidth:     5.00*
G04 ================== end FILE IDENTIFICATION RECORD ====================*
%FSLAX25Y25*MOIN*%
%IR0*IPPOS*OFA0.00000B0.00000*MIA0B0*SFA1.00000B1.00000*%
%AMMACRO68*
4,1,44,.02559,.02953,
-.02559,.02953,
-.026957,.029411,
-.028282,.029057,
-.029526,.028478,
-.03065,.027692,
-.031621,.026723,
-.032408,.025599,
-.032989,.024356,
-.033345,.023032,
-.033465,.021665,
-.03346,.02166,
-.03346,-.02166,
-.033345,-.023027,
-.03299,-.024352,
-.032411,-.025595,
-.031624,-.026719,
-.030654,-.027689,
-.02953,-.028476,
-.028287,-.029055,
-.026962,-.02941,
-.025595,-.02953,
-.02559,-.02953,
.02559,-.02953,
.026957,-.029411,
.028282,-.029057,
.029526,-.028478,
.03065,-.027692,
.031621,-.026723,
.032408,-.025599,
.032989,-.024356,
.033345,-.023032,
.033465,-.021665,
.03346,-.02166,
.03346,.02166,
.033345,.023027,
.03299,.024352,
.032411,.025595,
.031624,.026719,
.030654,.027689,
.02953,.028476,
.028287,.029055,
.026962,.02941,
.025595,.02953,
.02559,.02953,
0.0*
%
%ADD68MACRO68*%
%AMMACRO36*
4,1,44,-.00984,.00787,
-.00984,-.00787,
-.009816,-.008212,
-.009728,-.008544,
-.009584,-.008856,
-.009387,-.009137,
-.009145,-.009381,
-.008864,-.009579,
-.008553,-.009724,
-.008222,-.009814,
-.00788,-.009845,
-.00787,-.00984,
.00787,-.00984,
.008212,-.009816,
.008544,-.009728,
.008856,-.009584,
.009137,-.009387,
.009381,-.009145,
.009579,-.008864,
.009724,-.008553,
.009814,-.008222,
.009845,-.00788,
.00984,-.00787,
.00984,.00787,
.009816,.008212,
.009728,.008544,
.009584,.008856,
.009387,.009137,
.009145,.009381,
.008864,.009579,
.008553,.009724,
.008222,.009814,
.00788,.009845,
.00787,.00984,
-.00787,.00984,
-.008212,.009816,
-.008544,.009728,
-.008856,.009584,
-.009137,.009387,
-.009381,.009145,
-.009579,.008864,
-.009724,.008553,
-.009814,.008222,
-.009845,.00788,
-.00984,.00787,
0.0*
%
%ADD36MACRO36*%
%AMMACRO23*
4,1,44,.00787,.00984,
-.00787,.00984,
-.008212,.009816,
-.008544,.009728,
-.008856,.009584,
-.009137,.009387,
-.009381,.009145,
-.009579,.008864,
-.009724,.008553,
-.009814,.008222,
-.009845,.00788,
-.00984,.00787,
-.00984,-.00787,
-.009816,-.008212,
-.009728,-.008544,
-.009584,-.008856,
-.009387,-.009137,
-.009145,-.009381,
-.008864,-.009579,
-.008553,-.009724,
-.008222,-.009814,
-.00788,-.009845,
-.00787,-.00984,
.00787,-.00984,
.008212,-.009816,
.008544,-.009728,
.008856,-.009584,
.009137,-.009387,
.009381,-.009145,
.009579,-.008864,
.009724,-.008553,
.009814,-.008222,
.009845,-.00788,
.00984,-.00787,
.00984,.00787,
.009816,.008212,
.009728,.008544,
.009584,.008856,
.009387,.009137,
.009145,.009381,
.008864,.009579,
.008553,.009724,
.008222,.009814,
.00788,.009845,
.00787,.00984,
0.0*
%
%ADD23MACRO23*%
%AMMACRO50*
4,1,40,.03,-.01106,
.03,.01106,
.02994,.011744,
.029762,.012408,
.029472,.01303,
.029078,.013593,
.028593,.014078,
.02803,.014472,
.027408,.014762,
.026744,.01494,
.02606,.015,
-.02606,.015,
-.026744,.01494,
-.027408,.014762,
-.02803,.014472,
-.028593,.014078,
-.029078,.013593,
-.029472,.01303,
-.029762,.012408,
-.02994,.011744,
-.03,.01106,
-.03,-.01106,
-.02994,-.011744,
-.029762,-.012408,
-.029472,-.01303,
-.029078,-.013593,
-.028593,-.014078,
-.02803,-.014472,
-.027408,-.014762,
-.026744,-.01494,
-.02606,-.015,
.02606,-.015,
.026744,-.01494,
.027408,-.014762,
.02803,-.014472,
.028593,-.014078,
.029078,-.013593,
.029472,-.01303,
.029762,-.012408,
.02994,-.011744,
.03,-.01106,
0.0*
%
%ADD50MACRO50*%
%AMMACRO31*
4,1,40,.0275,-.01606,
.0275,.01606,
.02744,.016744,
.027262,.017408,
.026972,.01803,
.026578,.018593,
.026093,.019078,
.02553,.019472,
.024908,.019762,
.024244,.01994,
.02356,.02,
-.02356,.02,
-.024244,.01994,
-.024908,.019762,
-.02553,.019472,
-.026093,.019078,
-.026578,.018593,
-.026972,.01803,
-.027262,.017408,
-.02744,.016744,
-.0275,.01606,
-.0275,-.01606,
-.02744,-.016744,
-.027262,-.017408,
-.026972,-.01803,
-.026578,-.018593,
-.026093,-.019078,
-.02553,-.019472,
-.024908,-.019762,
-.024244,-.01994,
-.02356,-.02,
.02356,-.02,
.024244,-.01994,
.024908,-.019762,
.02553,-.019472,
.026093,-.019078,
.026578,-.018593,
.026972,-.01803,
.027262,-.017408,
.02744,-.016744,
.0275,-.01606,
0.0*
%
%ADD31MACRO31*%
%ADD44C,.018*%
%ADD43C,.01181*%
%ADD30R,.04X.04*%
%ADD38C,.02362*%
%AMMACRO17*
4,1,40,-.03213,-.045,
.03213,-.045,
.033497,-.04488,
.034822,-.044525,
.036065,-.043946,
.037189,-.043159,
.038159,-.042189,
.038946,-.041065,
.039525,-.039822,
.03988,-.038497,
.04,-.03713,
.04,.03713,
.03988,.038497,
.039525,.039822,
.038946,.041065,
.038159,.042189,
.037189,.043159,
.036065,.043946,
.034822,.044525,
.033497,.04488,
.03213,.045,
-.03213,.045,
-.033497,.04488,
-.034822,.044525,
-.036065,.043946,
-.037189,.043159,
-.038159,.042189,
-.038946,.041065,
-.039525,.039822,
-.03988,.038497,
-.04,.03713,
-.04,-.03713,
-.03988,-.038497,
-.039525,-.039822,
-.038946,-.041065,
-.038159,-.042189,
-.037189,-.043159,
-.036065,-.043946,
-.034822,-.044525,
-.033497,-.04488,
-.03213,-.045,
0.0*
%
%ADD17MACRO17*%
%AMMACRO29*
4,1,40,.01378,-.01303,
.01378,.01303,
.01375,.013372,
.013661,.013704,
.013516,.014015,
.013319,.014296,
.013076,.014539,
.012795,.014736,
.012484,.014881,
.012152,.01497,
.01181,.015,
-.01181,.015,
-.012152,.01497,
-.012484,.014881,
-.012795,.014736,
-.013076,.014539,
-.013319,.014296,
-.013516,.014015,
-.013661,.013704,
-.01375,.013372,
-.01378,.01303,
-.01378,-.01303,
-.01375,-.013372,
-.013661,-.013704,
-.013516,-.014015,
-.013319,-.014296,
-.013076,-.014539,
-.012795,-.014736,
-.012484,-.014881,
-.012152,-.01497,
-.01181,-.015,
.01181,-.015,
.012152,-.01497,
.012484,-.014881,
.012795,-.014736,
.013076,-.014539,
.013319,-.014296,
.013516,-.014015,
.013661,-.013704,
.01375,-.013372,
.01378,-.01303,
0.0*
%
%ADD29MACRO29*%
%ADD19R,.01181X.01181*%
%AMMACRO49*
4,1,44,-.00393,-.02559,
.00393,-.02559,
.004272,-.025561,
.004604,-.025473,
.004916,-.025329,
.005197,-.025132,
.005441,-.02489,
.005639,-.024609,
.005784,-.024298,
.005874,-.023967,
.005905,-.023625,
.0059,-.02362,
.0059,.02362,
.005875,.023962,
.005786,.024294,
.005641,.024605,
.005444,.024886,
.005201,.025129,
.00492,.025326,
.004609,.025471,
.004277,.02556,
.003935,.02559,
.00393,.02559,
-.00393,.02559,
-.004272,.025561,
-.004604,.025473,
-.004916,.025329,
-.005197,.025132,
-.005441,.02489,
-.005639,.024609,
-.005784,.024298,
-.005874,.023967,
-.005905,.023625,
-.0059,.02362,
-.0059,-.02362,
-.005875,-.023962,
-.005786,-.024294,
-.005641,-.024605,
-.005444,-.024886,
-.005201,-.025129,
-.00492,-.025326,
-.004609,-.025471,
-.004277,-.02556,
-.003935,-.02559,
-.00393,-.02559,
0.0*
%
%ADD49MACRO49*%
%AMMACRO51*
4,1,44,-.0059,-.01181,
.0059,-.01181,
.006242,-.011781,
.006574,-.011693,
.006886,-.011549,
.007167,-.011352,
.007411,-.01111,
.007609,-.010829,
.007754,-.010518,
.007844,-.010187,
.007875,-.009845,
.00787,-.00984,
.00787,.00984,
.007845,.010182,
.007756,.010514,
.007611,.010825,
.007414,.011106,
.007171,.011349,
.00689,.011546,
.006579,.011691,
.006247,.01178,
.005905,.01181,
.0059,.01181,
-.0059,.01181,
-.006242,.011781,
-.006574,.011693,
-.006886,.011549,
-.007167,.011352,
-.007411,.01111,
-.007609,.010829,
-.007754,.010518,
-.007844,.010187,
-.007875,.009845,
-.00787,.00984,
-.00787,-.00984,
-.007845,-.010182,
-.007756,-.010514,
-.007611,-.010825,
-.007414,-.011106,
-.007171,-.011349,
-.00689,-.011546,
-.006579,-.011691,
-.006247,-.01178,
-.005905,-.01181,
-.0059,-.01181,
0.0*
%
%ADD51MACRO51*%
%AMMACRO14*
4,1,44,.02657,-.0059,
.02657,.0059,
.026546,.006242,
.026458,.006574,
.026314,.006886,
.026117,.007167,
.025875,.007411,
.025594,.007609,
.025283,.007754,
.024952,.007844,
.02461,.007875,
.0246,.00787,
-.0246,.00787,
-.024942,.007846,
-.025274,.007758,
-.025586,.007614,
-.025867,.007417,
-.026111,.007175,
-.026309,.006894,
-.026454,.006583,
-.026544,.006252,
-.026575,.00591,
-.02657,.0059,
-.02657,-.0059,
-.026546,-.006242,
-.026458,-.006574,
-.026314,-.006886,
-.026117,-.007167,
-.025875,-.007411,
-.025594,-.007609,
-.025283,-.007754,
-.024952,-.007844,
-.02461,-.007875,
-.0246,-.00787,
.0246,-.00787,
.024942,-.007846,
.025274,-.007758,
.025586,-.007614,
.025867,-.007417,
.026111,-.007175,
.026309,-.006894,
.026454,-.006583,
.026544,-.006252,
.026575,-.00591,
.02657,-.0059,
0.0*
%
%ADD14MACRO14*%
%AMMACRO64*
4,1,40,.02756,-.01772,
.02756,.01772,
.02744,.019087,
.027085,.020412,
.026506,.021655,
.025719,.022779,
.024749,.023749,
.023625,.024536,
.022382,.025115,
.021057,.02547,
.01969,.02559,
-.01969,.02559,
-.021057,.02547,
-.022382,.025115,
-.023625,.024536,
-.024749,.023749,
-.025719,.022779,
-.026506,.021655,
-.027085,.020412,
-.02744,.019087,
-.02756,.01772,
-.02756,-.01772,
-.02744,-.019087,
-.027085,-.020412,
-.026506,-.021655,
-.025719,-.022779,
-.024749,-.023749,
-.023625,-.024536,
-.022382,-.025115,
-.021057,-.02547,
-.01969,-.02559,
.01969,-.02559,
.021057,-.02547,
.022382,-.025115,
.023625,-.024536,
.024749,-.023749,
.025719,-.022779,
.026506,-.021655,
.027085,-.020412,
.02744,-.019087,
.02756,-.01772,
0.0*
%
%ADD64MACRO64*%
%ADD11R,.0748X.0748*%
%AMMACRO58*
4,1,40,.02559,-.01772,
.02559,.01772,
.02547,.019087,
.025115,.020412,
.024536,.021655,
.023749,.022779,
.022779,.023749,
.021655,.024536,
.020412,.025115,
.019087,.02547,
.01772,.02559,
-.01772,.02559,
-.019087,.02547,
-.020412,.025115,
-.021655,.024536,
-.022779,.023749,
-.023749,.022779,
-.024536,.021655,
-.025115,.020412,
-.02547,.019087,
-.02559,.01772,
-.02559,-.01772,
-.02547,-.019087,
-.025115,-.020412,
-.024536,-.021655,
-.023749,-.022779,
-.022779,-.023749,
-.021655,-.024536,
-.020412,-.025115,
-.019087,-.02547,
-.01772,-.02559,
.01772,-.02559,
.019087,-.02547,
.020412,-.025115,
.021655,-.024536,
.022779,-.023749,
.023749,-.022779,
.024536,-.021655,
.025115,-.020412,
.02547,-.019087,
.02559,-.01772,
0.0*
%
%ADD58MACRO58*%
%AMMACRO22*
4,1,44,.01476,-.0059,
.01476,.0059,
.014736,.006242,
.014648,.006574,
.014504,.006886,
.014307,.007167,
.014065,.007411,
.013784,.007609,
.013473,.007754,
.013142,.007844,
.0128,.007875,
.01279,.00787,
-.01279,.00787,
-.013132,.007846,
-.013464,.007758,
-.013776,.007614,
-.014057,.007417,
-.014301,.007175,
-.014499,.006894,
-.014644,.006583,
-.014734,.006252,
-.014765,.00591,
-.01476,.0059,
-.01476,-.0059,
-.014736,-.006242,
-.014648,-.006574,
-.014504,-.006886,
-.014307,-.007167,
-.014065,-.007411,
-.013784,-.007609,
-.013473,-.007754,
-.013142,-.007844,
-.0128,-.007875,
-.01279,-.00787,
.01279,-.00787,
.013132,-.007846,
.013464,-.007758,
.013776,-.007614,
.014057,-.007417,
.014301,-.007175,
.014499,-.006894,
.014644,-.006583,
.014734,-.006252,
.014765,-.00591,
.01476,-.0059,
0.0*
%
%ADD22MACRO22*%
%ADD15O,.02756X.00787*%
%AMMACRO52*
4,1,44,-.00787,-.01181,
.00787,-.01181,
.008212,-.011781,
.008544,-.011693,
.008856,-.011549,
.009137,-.011352,
.009381,-.01111,
.009579,-.010829,
.009724,-.010518,
.009814,-.010187,
.009845,-.009845,
.00984,-.00984,
.00984,.00984,
.009815,.010182,
.009726,.010514,
.009581,.010825,
.009384,.011106,
.009141,.011349,
.00886,.011546,
.008549,.011691,
.008217,.01178,
.007875,.01181,
.00787,.01181,
-.00787,.01181,
-.008212,.011781,
-.008544,.011693,
-.008856,.011549,
-.009137,.011352,
-.009381,.01111,
-.009579,.010829,
-.009724,.010518,
-.009814,.010187,
-.009845,.009845,
-.00984,.00984,
-.00984,-.00984,
-.009815,-.010182,
-.009726,-.010514,
-.009581,-.010825,
-.009384,-.011106,
-.009141,-.011349,
-.00886,-.011546,
-.008549,-.011691,
-.008217,-.01178,
-.007875,-.01181,
-.00787,-.01181,
0.0*
%
%ADD52MACRO52*%
%AMMACRO16*
4,1,44,.01378,-.0059,
.01378,.0059,
.013751,.006242,
.013663,.006574,
.013519,.006886,
.013322,.007167,
.01308,.007411,
.012799,.007609,
.012488,.007754,
.012157,.007844,
.011815,.007875,
.01181,.00787,
-.01181,.00787,
-.012152,.007845,
-.012484,.007756,
-.012795,.007611,
-.013076,.007414,
-.013319,.007171,
-.013516,.00689,
-.013661,.006579,
-.01375,.006247,
-.01378,.005905,
-.01378,.0059,
-.01378,-.0059,
-.013751,-.006242,
-.013663,-.006574,
-.013519,-.006886,
-.013322,-.007167,
-.01308,-.007411,
-.012799,-.007609,
-.012488,-.007754,
-.012157,-.007844,
-.011815,-.007875,
-.01181,-.00787,
.01181,-.00787,
.012152,-.007845,
.012484,-.007756,
.012795,-.007611,
.013076,-.007414,
.013319,-.007171,
.013516,-.00689,
.013661,-.006579,
.01375,-.006247,
.01378,-.005905,
.01378,-.0059,
0.0*
%
%ADD16MACRO16*%
%AMMACRO55*
4,1,44,.02953,-.02559,
.02953,.02559,
.029411,.026957,
.029057,.028282,
.028478,.029526,
.027692,.03065,
.026723,.031621,
.025599,.032408,
.024356,.032989,
.023032,.033345,
.021665,.033465,
.02166,.03346,
-.02166,.03346,
-.023027,.033345,
-.024352,.03299,
-.025595,.032411,
-.026719,.031624,
-.027689,.030654,
-.028476,.02953,
-.029055,.028287,
-.02941,.026962,
-.02953,.025595,
-.02953,.02559,
-.02953,-.02559,
-.029411,-.026957,
-.029057,-.028282,
-.028478,-.029526,
-.027692,-.03065,
-.026723,-.031621,
-.025599,-.032408,
-.024356,-.032989,
-.023032,-.033345,
-.021665,-.033465,
-.02166,-.03346,
.02166,-.03346,
.023027,-.033345,
.024352,-.03299,
.025595,-.032411,
.026719,-.031624,
.027689,-.030654,
.028476,-.02953,
.029055,-.028287,
.02941,-.026962,
.02953,-.025595,
.02953,-.02559,
0.0*
%
%ADD55MACRO55*%
%AMMACRO20*
4,1,44,-.00787,-.00984,
.00787,-.00984,
.008212,-.009816,
.008544,-.009728,
.008856,-.009584,
.009137,-.009387,
.009381,-.009145,
.009579,-.008864,
.009724,-.008553,
.009814,-.008222,
.009845,-.00788,
.00984,-.00787,
.00984,.00787,
.009816,.008212,
.009728,.008544,
.009584,.008856,
.009387,.009137,
.009145,.009381,
.008864,.009579,
.008553,.009724,
.008222,.009814,
.00788,.009845,
.00787,.00984,
-.00787,.00984,
-.008212,.009816,
-.008544,.009728,
-.008856,.009584,
-.009137,.009387,
-.009381,.009145,
-.009579,.008864,
-.009724,.008553,
-.009814,.008222,
-.009845,.00788,
-.00984,.00787,
-.00984,-.00787,
-.009816,-.008212,
-.009728,-.008544,
-.009584,-.008856,
-.009387,-.009137,
-.009145,-.009381,
-.008864,-.009579,
-.008553,-.009724,
-.008222,-.009814,
-.00788,-.009845,
-.00787,-.00984,
0.0*
%
%ADD20MACRO20*%
%AMMACRO18*
4,1,44,.00984,-.00787,
.00984,.00787,
.009816,.008212,
.009728,.008544,
.009584,.008856,
.009387,.009137,
.009145,.009381,
.008864,.009579,
.008553,.009724,
.008222,.009814,
.00788,.009845,
.00787,.00984,
-.00787,.00984,
-.008212,.009816,
-.008544,.009728,
-.008856,.009584,
-.009137,.009387,
-.009381,.009145,
-.009579,.008864,
-.009724,.008553,
-.009814,.008222,
-.009845,.00788,
-.00984,.00787,
-.00984,-.00787,
-.009816,-.008212,
-.009728,-.008544,
-.009584,-.008856,
-.009387,-.009137,
-.009145,-.009381,
-.008864,-.009579,
-.008553,-.009724,
-.008222,-.009814,
-.00788,-.009845,
-.00787,-.00984,
.00787,-.00984,
.008212,-.009816,
.008544,-.009728,
.008856,-.009584,
.009137,-.009387,
.009381,-.009145,
.009579,-.008864,
.009724,-.008553,
.009814,-.008222,
.009845,-.00788,
.00984,-.00787,
0.0*
%
%ADD18MACRO18*%
%AMMACRO57*
4,1,44,.02953,-.02362,
.02953,.02362,
.029411,.024987,
.029057,.026312,
.028478,.027556,
.027692,.02868,
.026723,.029651,
.025599,.030438,
.024356,.031019,
.023032,.031375,
.021665,.031495,
.02166,.03149,
-.02166,.03149,
-.023027,.031375,
-.024352,.03102,
-.025595,.030441,
-.026719,.029654,
-.027689,.028684,
-.028476,.02756,
-.029055,.026317,
-.02941,.024992,
-.02953,.023625,
-.02953,.02362,
-.02953,-.02362,
-.029411,-.024987,
-.029057,-.026312,
-.028478,-.027556,
-.027692,-.02868,
-.026723,-.029651,
-.025599,-.030438,
-.024356,-.031019,
-.023032,-.031375,
-.021665,-.031495,
-.02166,-.03149,
.02166,-.03149,
.023027,-.031375,
.024352,-.03102,
.025595,-.030441,
.026719,-.029654,
.027689,-.028684,
.028476,-.02756,
.029055,-.026317,
.02941,-.024992,
.02953,-.023625,
.02953,-.02362,
0.0*
%
%ADD57MACRO57*%
%ADD26R,.02X.025*%
%ADD21R,.025X.02*%
%AMMACRO61*
4,1,44,.03543,-.02697,
.03543,.02697,
.035316,.028337,
.034962,.029662,
.034383,.030906,
.033597,.03203,
.032628,.033001,
.031504,.033788,
.030261,.034369,
.028937,.034725,
.02757,.034845,
.02756,.03484,
-.02756,.03484,
-.028927,.034726,
-.030252,.034372,
-.031496,.033793,
-.03262,.033007,
-.033591,.032038,
-.034378,.030914,
-.034959,.029671,
-.035315,.028347,
-.035435,.02698,
-.03543,.02697,
-.03543,-.02697,
-.035316,-.028337,
-.034962,-.029662,
-.034383,-.030906,
-.033597,-.03203,
-.032628,-.033001,
-.031504,-.033788,
-.030261,-.034369,
-.028937,-.034725,
-.02757,-.034845,
-.02756,-.03484,
.02756,-.03484,
.028927,-.034726,
.030252,-.034372,
.031496,-.033793,
.03262,-.033007,
.033591,-.032038,
.034378,-.030914,
.034959,-.029671,
.035315,-.028347,
.035435,-.02698,
.03543,-.02697,
0.0*
%
%ADD61MACRO61*%
%ADD48R,.04X.025*%
%ADD39R,.025X.04*%
%ADD45R,.032X.035*%
%ADD25R,.052X.042*%
%ADD27R,.035X.032*%
%AMMACRO41*
4,1,40,.01106,.03,
-.01106,.03,
-.011744,.02994,
-.012408,.029762,
-.01303,.029472,
-.013593,.029078,
-.014078,.028593,
-.014472,.02803,
-.014762,.027408,
-.01494,.026744,
-.015,.02606,
-.015,-.02606,
-.01494,-.026744,
-.014762,-.027408,
-.014472,-.02803,
-.014078,-.028593,
-.013593,-.029078,
-.01303,-.029472,
-.012408,-.029762,
-.011744,-.02994,
-.01106,-.03,
.01106,-.03,
.011744,-.02994,
.012408,-.029762,
.01303,-.029472,
.013593,-.029078,
.014078,-.028593,
.014472,-.02803,
.014762,-.027408,
.01494,-.026744,
.015,-.02606,
.015,.02606,
.01494,.026744,
.014762,.027408,
.014472,.02803,
.014078,.028593,
.013593,.029078,
.01303,.029472,
.012408,.029762,
.011744,.02994,
.01106,.03,
0.0*
%
%ADD41MACRO41*%
%AMMACRO63*
4,1,40,.00856,.015,
-.00856,.015,
-.009244,.01494,
-.009908,.014762,
-.01053,.014472,
-.011093,.014078,
-.011578,.013593,
-.011972,.01303,
-.012262,.012408,
-.01244,.011744,
-.0125,.01106,
-.0125,-.01106,
-.01244,-.011744,
-.012262,-.012408,
-.011972,-.01303,
-.011578,-.013593,
-.011093,-.014078,
-.01053,-.014472,
-.009908,-.014762,
-.009244,-.01494,
-.00856,-.015,
.00856,-.015,
.009244,-.01494,
.009908,-.014762,
.01053,-.014472,
.011093,-.014078,
.011578,-.013593,
.011972,-.01303,
.012262,-.012408,
.01244,-.011744,
.0125,-.01106,
.0125,.01106,
.01244,.011744,
.012262,.012408,
.011972,.01303,
.011578,.013593,
.011093,.014078,
.01053,.014472,
.009908,.014762,
.009244,.01494,
.00856,.015,
0.0*
%
%ADD63MACRO63*%
%ADD28R,.04X.088*%
%ADD12R,.055X.064*%
%AMMACRO33*
4,1,40,.01356,.0175,
-.01356,.0175,
-.014244,.01744,
-.014908,.017262,
-.01553,.016972,
-.016093,.016578,
-.016578,.016093,
-.016972,.01553,
-.017262,.014908,
-.01744,.014244,
-.0175,.01356,
-.0175,-.01356,
-.01744,-.014244,
-.017262,-.014908,
-.016972,-.01553,
-.016578,-.016093,
-.016093,-.016578,
-.01553,-.016972,
-.014908,-.017262,
-.014244,-.01744,
-.01356,-.0175,
.01356,-.0175,
.014244,-.01744,
.014908,-.017262,
.01553,-.016972,
.016093,-.016578,
.016578,-.016093,
.016972,-.01553,
.017262,-.014908,
.01744,-.014244,
.0175,-.01356,
.0175,.01356,
.01744,.014244,
.017262,.014908,
.016972,.01553,
.016578,.016093,
.016093,.016578,
.01553,.016972,
.014908,.017262,
.014244,.01744,
.01356,.0175,
0.0*
%
%ADD33MACRO33*%
%AMMACRO62*
4,1,44,.00393,.0059,
-.00393,.0059,
-.004272,.005876,
-.004604,.005788,
-.004916,.005644,
-.005197,.005447,
-.005441,.005205,
-.005639,.004924,
-.005784,.004613,
-.005874,.004282,
-.005905,.00394,
-.0059,.00393,
-.0059,-.00393,
-.005876,-.004272,
-.005788,-.004604,
-.005644,-.004916,
-.005447,-.005197,
-.005205,-.005441,
-.004924,-.005639,
-.004613,-.005784,
-.004282,-.005874,
-.00394,-.005905,
-.00393,-.0059,
.00393,-.0059,
.004272,-.005876,
.004604,-.005788,
.004916,-.005644,
.005197,-.005447,
.005441,-.005205,
.005639,-.004924,
.005784,-.004613,
.005874,-.004282,
.005905,-.00394,
.0059,-.00393,
.0059,.00393,
.005876,.004272,
.005788,.004604,
.005644,.004916,
.005447,.005197,
.005205,.005441,
.004924,.005639,
.004613,.005784,
.004282,.005874,
.00394,.005905,
.00393,.0059,
0.0*
%
%ADD62MACRO62*%
%AMMACRO32*
4,1,44,-.01181,.00393,
-.01181,-.00393,
-.011781,-.004272,
-.011693,-.004604,
-.011549,-.004916,
-.011352,-.005197,
-.01111,-.005441,
-.010829,-.005639,
-.010518,-.005784,
-.010187,-.005874,
-.009845,-.005905,
-.00984,-.0059,
.00984,-.0059,
.010182,-.005875,
.010514,-.005786,
.010825,-.005641,
.011106,-.005444,
.011349,-.005201,
.011546,-.00492,
.011691,-.004609,
.01178,-.004277,
.01181,-.003935,
.01181,-.00393,
.01181,.00393,
.011781,.004272,
.011693,.004604,
.011549,.004916,
.011352,.005197,
.01111,.005441,
.010829,.005639,
.010518,.005784,
.010187,.005874,
.009845,.005905,
.00984,.0059,
-.00984,.0059,
-.010182,.005875,
-.010514,.005786,
-.010825,.005641,
-.011106,.005444,
-.011349,.005201,
-.011546,.00492,
-.011691,.004609,
-.01178,.004277,
-.01181,.003935,
-.01181,.00393,
0.0*
%
%ADD32MACRO32*%
%AMMACRO56*
4,1,40,.03307,.01181,
-.03307,.01181,
-.033754,.01175,
-.034418,.011572,
-.03504,.011282,
-.035603,.010888,
-.036088,.010403,
-.036482,.00984,
-.036772,.009218,
-.03695,.008554,
-.03701,.00787,
-.03701,-.00787,
-.03695,-.008554,
-.036772,-.009218,
-.036482,-.00984,
-.036088,-.010403,
-.035603,-.010888,
-.03504,-.011282,
-.034418,-.011572,
-.033754,-.01175,
-.03307,-.01181,
.03307,-.01181,
.033754,-.01175,
.034418,-.011572,
.03504,-.011282,
.035603,-.010888,
.036088,-.010403,
.036482,-.00984,
.036772,-.009218,
.03695,-.008554,
.03701,-.00787,
.03701,.00787,
.03695,.008554,
.036772,.009218,
.036482,.00984,
.036088,.010403,
.035603,.010888,
.03504,.011282,
.034418,.011572,
.033754,.01175,
.03307,.01181,
0.0*
%
%ADD56MACRO56*%
%ADD13O,.0374X.07087*%
%ADD54C,.00984*%
%ADD24R,.09449X.055*%
%ADD10O,.09843X.0374*%
%ADD46R,.03543X.03937*%
%AMMACRO60*
4,1,44,.0059,.01181,
-.0059,.01181,
-.006242,.011781,
-.006574,.011693,
-.006886,.011549,
-.007167,.011352,
-.007411,.01111,
-.007609,.010829,
-.007754,.010518,
-.007844,.010187,
-.007875,.009845,
-.00787,.00984,
-.00787,-.00984,
-.007845,-.010182,
-.007756,-.010514,
-.007611,-.010825,
-.007414,-.011106,
-.007171,-.011349,
-.00689,-.011546,
-.006579,-.011691,
-.006247,-.01178,
-.005905,-.01181,
-.0059,-.01181,
.0059,-.01181,
.006242,-.011781,
.006574,-.011693,
.006886,-.011549,
.007167,-.011352,
.007411,-.01111,
.007609,-.010829,
.007754,-.010518,
.007844,-.010187,
.007875,-.009845,
.00787,-.00984,
.00787,.00984,
.007845,.010182,
.007756,.010514,
.007611,.010825,
.007414,.011106,
.007171,.011349,
.00689,.011546,
.006579,.011691,
.006247,.01178,
.005905,.01181,
.0059,.01181,
0.0*
%
%ADD60MACRO60*%
%ADD69O,.08661X.03937*%
%ADD34R,.04724X.01969*%
%ADD37R,.01969X.04724*%
%AMMACRO65*
4,1,40,.01673,-.00295,
.01673,.00295,
.0167,.003292,
.016611,.003624,
.016466,.003935,
.016269,.004216,
.016026,.004459,
.015745,.004656,
.015434,.004801,
.015102,.00489,
.01476,.00492,
-.01476,.00492,
-.015102,.00489,
-.015434,.004801,
-.015745,.004656,
-.016026,.004459,
-.016269,.004216,
-.016466,.003935,
-.016611,.003624,
-.0167,.003292,
-.01673,.00295,
-.01673,-.00295,
-.0167,-.003292,
-.016611,-.003624,
-.016466,-.003935,
-.016269,-.004216,
-.016026,-.004459,
-.015745,-.004656,
-.015434,-.004801,
-.015102,-.00489,
-.01476,-.00492,
.01476,-.00492,
.015102,-.00489,
.015434,-.004801,
.015745,-.004656,
.016026,-.004459,
.016269,-.004216,
.016466,-.003935,
.016611,-.003624,
.0167,-.003292,
.01673,-.00295,
0.0*
%
%ADD65MACRO65*%
%ADD42R,.07087X.08661*%
%AMMACRO59*
4,1,44,.00787,.01181,
-.00787,.01181,
-.008212,.011781,
-.008544,.011693,
-.008856,.011549,
-.009137,.011352,
-.009381,.01111,
-.009579,.010829,
-.009724,.010518,
-.009814,.010187,
-.009845,.009845,
-.00984,.00984,
-.00984,-.00984,
-.009815,-.010182,
-.009726,-.010514,
-.009581,-.010825,
-.009384,-.011106,
-.009141,-.011349,
-.00886,-.011546,
-.008549,-.011691,
-.008217,-.01178,
-.007875,-.01181,
-.00787,-.01181,
.00787,-.01181,
.008212,-.011781,
.008544,-.011693,
.008856,-.011549,
.009137,-.011352,
.009381,-.01111,
.009579,-.010829,
.009724,-.010518,
.009814,-.010187,
.009845,-.009845,
.00984,-.00984,
.00984,.00984,
.009815,.010182,
.009726,.010514,
.009581,.010825,
.009384,.011106,
.009141,.011349,
.00886,.011546,
.008549,.011691,
.008217,.01178,
.007875,.01181,
.00787,.01181,
0.0*
%
%ADD59MACRO59*%
%AMMACRO47*
4,1,44,-.03543,.00984,
-.03543,-.00984,
-.035375,-.010524,
-.035197,-.011188,
-.034907,-.01181,
-.034513,-.012373,
-.034028,-.012858,
-.033465,-.013252,
-.032843,-.013542,
-.032179,-.01372,
-.031495,-.01378,
-.03149,-.01378,
.03149,-.01378,
.032174,-.013721,
.032838,-.013544,
.033461,-.013255,
.034024,-.012861,
.03451,-.012376,
.034905,-.011814,
.035196,-.011192,
.035374,-.010529,
.035435,-.009845,
.03543,-.00984,
.03543,.00984,
.035375,.010524,
.035197,.011188,
.034907,.01181,
.034513,.012373,
.034028,.012858,
.033465,.013252,
.032843,.013542,
.032179,.01372,
.031495,.01378,
.03149,.01378,
-.03149,.01378,
-.032174,.013721,
-.032838,.013544,
-.033461,.013255,
-.034024,.012861,
-.03451,.012376,
-.034905,.011814,
-.035196,.011192,
-.035374,.010529,
-.035435,.009845,
-.03543,.00984,
0.0*
%
%ADD47MACRO47*%
%AMMACRO35*
4,1,44,.01377,.03149,
-.01377,.03149,
-.014454,.031436,
-.015118,.031259,
-.015741,.03097,
-.016304,.030576,
-.01679,.030091,
-.017185,.029529,
-.017476,.028907,
-.017654,.028244,
-.017715,.02756,
-.01771,.02755,
-.01771,-.02755,
-.017656,-.028234,
-.017479,-.028898,
-.01719,-.029521,
-.016796,-.030084,
-.016311,-.03057,
-.015749,-.030965,
-.015127,-.031256,
-.014464,-.031434,
-.01378,-.031495,
-.01377,-.03149,
.01377,-.03149,
.014454,-.031436,
.015118,-.031259,
.015741,-.03097,
.016304,-.030576,
.01679,-.030091,
.017185,-.029529,
.017476,-.028907,
.017654,-.028244,
.017715,-.02756,
.01771,-.02755,
.01771,.02755,
.017656,.028234,
.017479,.028898,
.01719,.029521,
.016796,.030084,
.016311,.03057,
.015749,.030965,
.015127,.031256,
.014464,.031434,
.01378,.031495,
.01377,.03149,
0.0*
%
%ADD35MACRO35*%
%AMMACRO66*
4,1,44,.02519,.04724,
-.02519,.04724,
-.025532,.047216,
-.025864,.047128,
-.026176,.046984,
-.026457,.046787,
-.026701,.046545,
-.026899,.046264,
-.027044,.045953,
-.027134,.045622,
-.027165,.04528,
-.02716,.04527,
-.02716,-.04527,
-.027136,-.045612,
-.027048,-.045944,
-.026904,-.046256,
-.026707,-.046537,
-.026465,-.046781,
-.026184,-.046979,
-.025873,-.047124,
-.025542,-.047214,
-.0252,-.047245,
-.02519,-.04724,
.02519,-.04724,
.025532,-.047216,
.025864,-.047128,
.026176,-.046984,
.026457,-.046787,
.026701,-.046545,
.026899,-.046264,
.027044,-.045953,
.027134,-.045622,
.027165,-.04528,
.02716,-.04527,
.02716,.04527,
.027136,.045612,
.027048,.045944,
.026904,.046256,
.026707,.046537,
.026465,.046781,
.026184,.046979,
.025873,.047124,
.025542,.047214,
.0252,.047245,
.02519,.04724,
0.0*
%
%ADD66MACRO66*%
%AMMACRO53*
4,1,44,.00984,.03543,
-.00984,.03543,
-.010524,.035375,
-.011188,.035197,
-.01181,.034907,
-.012373,.034513,
-.012858,.034028,
-.013252,.033465,
-.013542,.032843,
-.01372,.032179,
-.01378,.031495,
-.01378,.03149,
-.01378,-.03149,
-.013721,-.032174,
-.013544,-.032838,
-.013255,-.033461,
-.012861,-.034024,
-.012376,-.03451,
-.011814,-.034905,
-.011192,-.035196,
-.010529,-.035374,
-.009845,-.035435,
-.00984,-.03543,
.00984,-.03543,
.010524,-.035375,
.011188,-.035197,
.01181,-.034907,
.012373,-.034513,
.012858,-.034028,
.013252,-.033465,
.013542,-.032843,
.01372,-.032179,
.01378,-.031495,
.01378,-.03149,
.01378,.03149,
.013721,.032174,
.013544,.032838,
.013255,.033461,
.012861,.034024,
.012376,.03451,
.011814,.034905,
.011192,.035196,
.010529,.035374,
.009845,.035435,
.00984,.03543,
0.0*
%
%ADD53MACRO53*%
%ADD40R,.03937X.09449*%
%AMMACRO67*
4,1,44,.01968,-.00295,
.01968,.00295,
.019655,.003292,
.019566,.003624,
.019421,.003935,
.019224,.004216,
.018981,.004459,
.0187,.004656,
.018389,.004801,
.018057,.00489,
.017715,.00492,
.01771,.00492,
-.01771,.00492,
-.018052,.004891,
-.018384,.004803,
-.018696,.004659,
-.018977,.004462,
-.019221,.00422,
-.019419,.003939,
-.019564,.003628,
-.019654,.003297,
-.019685,.002955,
-.01968,.00295,
-.01968,-.00295,
-.019655,-.003292,
-.019566,-.003624,
-.019421,-.003935,
-.019224,-.004216,
-.018981,-.004459,
-.0187,-.004656,
-.018389,-.004801,
-.018057,-.00489,
-.017715,-.00492,
-.01771,-.00492,
.01771,-.00492,
.018052,-.004891,
.018384,-.004803,
.018696,-.004659,
.018977,-.004462,
.019221,-.00422,
.019419,-.003939,
.019564,-.003628,
.019654,-.003297,
.019685,-.002955,
.01968,-.00295,
0.0*
%
%ADD67MACRO67*%
%ADD70C,.005*%
G75*
%LPD*%
G75*
G54D10*
X109152Y201982D03*
Y253793D03*
G54D20*
X129917Y227184D03*
X133559D03*
X129917Y235084D03*
X133559D03*
X129917Y231184D03*
X133559D03*
X408547Y281408D03*
X412189D03*
G54D11*
X109152Y212652D03*
Y233715D03*
Y243163D03*
G54D12*
X110642Y339530D03*
X110750Y348489D03*
X121742Y339530D03*
X121850Y348489D03*
G54D21*
X140962Y205118D03*
Y209818D03*
Y214918D03*
X141062Y219618D03*
X140982Y230812D03*
Y235512D03*
X144962Y205118D03*
Y209818D03*
Y214918D03*
X145062Y219618D03*
X144982Y230812D03*
Y235512D03*
X177142Y335678D03*
X177799Y224220D03*
X181799D03*
X177799Y229720D03*
X181799D03*
X181142Y335678D03*
X177279Y340724D03*
X181279D03*
X210090Y229515D03*
X210681Y251658D03*
X210050Y292678D03*
X209742Y301678D03*
X214090Y229515D03*
X214681Y251658D03*
X214050Y292678D03*
X213742Y301678D03*
X228780Y230290D03*
X228870Y238740D03*
Y248340D03*
Y243540D03*
X232780Y230290D03*
X232870Y238740D03*
Y248340D03*
Y243540D03*
X241950Y335322D03*
X245950D03*
X278100Y229150D03*
X278070Y225480D03*
X278150Y233000D03*
X277223Y305386D03*
X273223D03*
X277223Y310136D03*
X273223D03*
X273170Y314489D03*
X277170D03*
X282100Y229150D03*
X282070Y225480D03*
X282150Y233000D03*
G54D30*
X177332Y381063D03*
G54D40*
X230000Y322334D03*
X239056D03*
G54D13*
X119782Y200604D03*
Y255132D03*
G54D22*
X139278Y205767D03*
Y209113D03*
X139378Y215567D03*
Y218913D03*
X139298Y234807D03*
Y231461D03*
X146562Y205767D03*
Y209113D03*
X146662Y215567D03*
Y218913D03*
X146582Y234807D03*
Y231461D03*
G54D31*
X179432Y237656D03*
Y244656D03*
G54D32*
X188220Y238137D03*
Y240106D03*
Y242074D03*
Y244043D03*
X196094Y242074D03*
Y240106D03*
Y238137D03*
Y244043D03*
G54D41*
X232369Y215670D03*
X244369D03*
G54D14*
X120274Y206943D03*
Y209502D03*
Y212061D03*
Y217179D03*
Y214620D03*
Y233321D03*
Y235880D03*
Y238439D03*
Y240998D03*
Y243557D03*
G54D50*
X252861Y328249D03*
Y340249D03*
G54D23*
X139975Y401172D03*
X136333D03*
X139991Y405350D03*
X136349D03*
X210259Y288470D03*
X213901D03*
X408435Y246322D03*
X408439Y250322D03*
X408443Y254322D03*
X408447Y263822D03*
X408515Y272588D03*
X408551Y276822D03*
X412077Y246322D03*
X412081Y250322D03*
X412085Y254322D03*
X412089Y263822D03*
X412157Y272588D03*
X412193Y276822D03*
G54D42*
X235920Y405930D03*
X293400Y405931D03*
X301717Y405929D03*
X359197Y405930D03*
X367825Y405824D03*
X425305Y405825D03*
G54D60*
X437994Y327004D03*
X438231Y338460D03*
X441932Y327004D03*
X442169Y338460D03*
G54D24*
X160515Y231830D03*
Y242830D03*
G54D33*
X189327Y256802D03*
X195327D03*
X209597D03*
X215597D03*
G54D15*
X128157Y208226D03*
Y210194D03*
Y214132D03*
Y216100D03*
X131701Y210194D03*
Y208226D03*
Y216100D03*
Y214132D03*
X445857Y295363D03*
Y297331D03*
Y301269D03*
Y307200D03*
Y303237D03*
Y309168D03*
Y313106D03*
Y315074D03*
X449401Y295363D03*
Y301269D03*
Y297331D03*
Y307200D03*
Y303237D03*
Y313106D03*
Y309168D03*
Y315074D03*
G54D51*
X259622Y378340D03*
X255684D03*
X265069D03*
X269007D03*
G54D70*
G01X102854Y202566D02*
G03X127854Y177566I25000J0D01*
G01X102854Y391566D02*
Y202566D01*
G01X127854Y416566D02*
G03X102854Y391566I0J-25000D01*
G01X127854Y177566D02*
X432854D01*
G01Y416566D02*
X127854D01*
G01X432854Y177566D02*
G03X482854Y227566I0J50000D01*
G01Y366566D02*
G03X432854Y416566I-50000J0D01*
G01X482854Y227566D02*
Y366566D01*
G54D34*
X189358Y336003D03*
Y339547D03*
Y343090D03*
Y346633D03*
Y350177D03*
Y353720D03*
Y357263D03*
Y360807D03*
Y364350D03*
Y367893D03*
Y371437D03*
X234142Y336003D03*
Y343090D03*
Y339547D03*
Y350177D03*
Y346633D03*
Y353720D03*
Y360807D03*
Y357263D03*
Y367893D03*
Y364350D03*
Y371437D03*
G54D25*
X165416Y347024D03*
Y354308D03*
X174472Y347024D03*
Y354308D03*
X255742Y316158D03*
Y323442D03*
X264798Y316158D03*
Y323442D03*
G54D61*
X440666Y346053D03*
Y362131D03*
X452336Y346053D03*
Y362131D03*
G54D16*
X128157Y212163D03*
X131701D03*
X445857Y299300D03*
Y311137D03*
X449401Y299300D03*
Y311137D03*
G54D52*
X257653Y383222D03*
X267038D03*
G54D43*
X242384Y198765D03*
Y200734D03*
Y202703D03*
X248290Y198765D03*
X246321D03*
X244353D03*
X248290Y200734D03*
Y202703D03*
X246321Y200734D03*
Y202703D03*
X244353Y200734D03*
Y202703D03*
X260101Y198487D03*
Y200456D03*
X258132Y198487D03*
Y200456D03*
X260101Y202425D03*
X258132D03*
X264038Y198487D03*
Y200456D03*
X262069Y198487D03*
Y200456D03*
X264038Y202425D03*
X262069D03*
X278321Y198565D03*
X276353D03*
X274384D03*
X278321Y200534D03*
Y202503D03*
X276353Y200534D03*
Y202503D03*
X274384Y200534D03*
Y202503D03*
X278110Y380035D03*
Y378066D03*
Y376097D03*
X280290Y198565D03*
Y200534D03*
Y202503D03*
X280079Y380035D03*
Y378066D03*
Y376097D03*
X282047Y380035D03*
Y378066D03*
Y376097D03*
X284016Y380035D03*
Y378066D03*
Y376097D03*
X295632Y198587D03*
Y200556D03*
Y202525D03*
X301538Y198587D03*
X299569D03*
X297601D03*
X301538Y200556D03*
Y202525D03*
X299569Y200556D03*
Y202525D03*
X297601Y200556D03*
Y202525D03*
X313753Y198265D03*
Y200234D03*
X311784Y198265D03*
Y200234D03*
X313753Y202203D03*
X311784D03*
X312292Y245894D03*
X309733D03*
X312292Y252193D03*
Y249044D03*
X309733Y252193D03*
Y249044D03*
X312292Y258493D03*
Y255343D03*
X309733Y258493D03*
Y255343D03*
X312292Y271091D03*
Y267941D03*
X309733Y271091D03*
Y267941D03*
X312292Y277390D03*
Y274241D03*
X309733Y277390D03*
Y274241D03*
X312292Y280540D03*
X309733D03*
X317690Y198265D03*
Y200234D03*
X315721Y198265D03*
Y200234D03*
X317690Y202203D03*
X315721D03*
X319969Y245894D03*
X317410D03*
X314851D03*
X319969Y252193D03*
Y249044D03*
X317410Y252193D03*
Y249044D03*
X314851Y252193D03*
Y249044D03*
X319969Y258493D03*
Y255343D03*
X317410Y258493D03*
Y255343D03*
X314851Y258493D03*
Y255343D03*
X319969Y271091D03*
Y267941D03*
X317410Y271091D03*
Y267941D03*
X314851Y271091D03*
Y267941D03*
X319969Y277390D03*
Y274241D03*
X317410Y277390D03*
Y274241D03*
X314851Y277390D03*
Y274241D03*
X319969Y280540D03*
X317410D03*
X314851D03*
X325087Y245894D03*
X322528D03*
X325087Y252193D03*
Y249044D03*
X322528Y252193D03*
Y249044D03*
X325087Y258493D03*
Y255343D03*
X322528Y258493D03*
Y255343D03*
X325087Y271091D03*
Y267941D03*
X322528Y271091D03*
Y267941D03*
X325087Y277390D03*
Y274241D03*
X322528Y277390D03*
Y274241D03*
X325087Y280540D03*
X322528D03*
X331201Y198287D03*
Y200256D03*
X329232Y198287D03*
Y200256D03*
X331201Y202225D03*
X329232D03*
X330205Y245894D03*
X327646D03*
X330205Y252193D03*
Y249044D03*
X327646Y252193D03*
Y249044D03*
X330205Y258493D03*
Y255343D03*
X327646Y258493D03*
Y255343D03*
X330205Y271091D03*
Y267941D03*
X327646Y271091D03*
Y267941D03*
X330205Y277390D03*
Y274241D03*
X327646Y277390D03*
Y274241D03*
X330205Y280540D03*
X327646D03*
X335138Y198287D03*
Y200256D03*
X333169Y198287D03*
Y200256D03*
X335138Y202225D03*
X333169D03*
X332764Y245894D03*
Y252193D03*
Y249044D03*
Y258493D03*
Y255343D03*
Y271091D03*
Y267941D03*
Y277390D03*
Y274241D03*
Y280540D03*
X343001Y245894D03*
X340442D03*
X343001Y252193D03*
Y249044D03*
X340442Y252193D03*
Y249044D03*
X343001Y258493D03*
Y255343D03*
X340442Y258493D03*
Y255343D03*
X343001Y271091D03*
Y267941D03*
X340442Y271091D03*
Y267941D03*
X343001Y277390D03*
Y274241D03*
X340442Y277390D03*
Y274241D03*
X343001Y280540D03*
X340442D03*
X349969Y198387D03*
Y200356D03*
X348001Y198387D03*
Y200356D03*
X346032Y198387D03*
Y200356D03*
X349969Y202325D03*
X348001D03*
X346032D03*
X348119Y245894D03*
X345560D03*
X348119Y252193D03*
Y249044D03*
X345560Y252193D03*
Y249044D03*
X348119Y258493D03*
Y255343D03*
X345560Y258493D03*
Y255343D03*
X348119Y271091D03*
Y267941D03*
X345560Y271091D03*
Y267941D03*
X348119Y277390D03*
Y274241D03*
X345560Y277390D03*
Y274241D03*
X348119Y280540D03*
X345560D03*
X351938Y198387D03*
Y200356D03*
Y202325D03*
X355796Y245894D03*
X353237D03*
X350678D03*
X355796Y252193D03*
Y249044D03*
X353237Y252193D03*
Y249044D03*
X350678Y252193D03*
Y249044D03*
X355796Y258493D03*
Y255343D03*
X353237Y258493D03*
Y255343D03*
X350678Y258493D03*
Y255343D03*
X355796Y271091D03*
Y267941D03*
X353237Y271091D03*
Y267941D03*
X350678Y271091D03*
Y267941D03*
X355796Y277390D03*
Y274241D03*
X353237Y277390D03*
Y274241D03*
X350678Y277390D03*
Y274241D03*
X355796Y280540D03*
X353237D03*
X350678D03*
X360914Y245894D03*
X358355D03*
X360914Y252193D03*
Y249044D03*
X358355Y252193D03*
Y249044D03*
X360914Y258493D03*
Y255343D03*
X358355Y258493D03*
Y255343D03*
X360914Y271091D03*
Y267941D03*
X358355Y271091D03*
Y267941D03*
X360914Y277390D03*
Y274241D03*
X358355Y277390D03*
Y274241D03*
X360914Y280540D03*
X358355D03*
X367369Y198287D03*
Y200256D03*
X365401Y198287D03*
Y200256D03*
X363432Y198287D03*
Y200256D03*
X367369Y202225D03*
X365401D03*
X363432D03*
X363473Y245894D03*
Y252193D03*
Y249044D03*
Y258493D03*
Y255343D03*
Y271091D03*
Y267941D03*
Y277390D03*
Y274241D03*
Y280540D03*
X369338Y198287D03*
Y200256D03*
Y202225D03*
X373977Y296162D03*
Y293603D03*
Y291044D03*
Y301280D03*
Y298721D03*
Y306398D03*
Y303839D03*
Y314075D03*
Y311516D03*
Y308957D03*
Y324312D03*
Y321753D03*
Y331989D03*
Y329430D03*
Y326871D03*
Y337107D03*
Y334548D03*
Y342225D03*
Y339666D03*
Y344784D03*
X378884Y198365D03*
Y200334D03*
Y202303D03*
X378704Y221855D03*
Y223824D03*
Y225793D03*
X377127Y296162D03*
Y293603D03*
Y291044D03*
Y301280D03*
Y298721D03*
Y306398D03*
Y303839D03*
Y314075D03*
Y311516D03*
Y308957D03*
Y324312D03*
Y321753D03*
Y331989D03*
Y329430D03*
Y326871D03*
Y337107D03*
Y334548D03*
Y342225D03*
Y339666D03*
Y344784D03*
X384790Y198365D03*
Y200334D03*
X382821Y198365D03*
Y200334D03*
X380853Y198365D03*
Y200334D03*
X384790Y202303D03*
X382821D03*
X380853D03*
X384610Y221855D03*
Y223824D03*
X382641Y221855D03*
Y223824D03*
X380673Y221855D03*
Y223824D03*
X384610Y225793D03*
X382641D03*
X380673D03*
X380276Y296162D03*
X383426D03*
X380276Y293603D03*
X383426D03*
X380276Y291044D03*
X383426D03*
X380276Y301280D03*
X383426D03*
X380276Y298721D03*
X383426D03*
X380276Y306398D03*
X383426D03*
X380276Y303839D03*
X383426D03*
X380276Y314075D03*
X383426D03*
X380276Y311516D03*
X383426D03*
X380276Y308957D03*
X383426D03*
X380276Y324312D03*
X383426D03*
X380276Y321753D03*
X383426D03*
X380276Y331989D03*
X383426D03*
X380276Y329430D03*
X383426D03*
X380276Y326871D03*
X383426D03*
X380276Y337107D03*
X383426D03*
X380276Y334548D03*
X383426D03*
X380276Y342225D03*
X383426D03*
X380276Y339666D03*
X383426D03*
X380276Y344784D03*
X383426D03*
X386576Y296162D03*
Y293603D03*
Y291044D03*
Y301280D03*
Y298721D03*
Y306398D03*
Y303839D03*
Y314075D03*
Y311516D03*
Y308957D03*
Y324312D03*
Y321753D03*
Y331989D03*
Y329430D03*
Y326871D03*
Y337107D03*
Y334548D03*
Y342225D03*
Y339666D03*
Y344784D03*
X396601Y198387D03*
Y200356D03*
X394632Y198387D03*
Y200356D03*
X396601Y202325D03*
X394632D03*
X396024Y296162D03*
Y293603D03*
Y291044D03*
Y301280D03*
Y298721D03*
Y306398D03*
Y303839D03*
Y314075D03*
Y311516D03*
Y308957D03*
Y324312D03*
Y321753D03*
Y331989D03*
Y329430D03*
Y326871D03*
Y337107D03*
Y334548D03*
Y342225D03*
Y339666D03*
Y344784D03*
X400538Y198387D03*
Y200356D03*
X398569Y198387D03*
Y200356D03*
X400538Y202325D03*
X398569D03*
X399174Y296162D03*
X402324D03*
X399174Y293603D03*
X402324D03*
X399174Y291044D03*
X402324D03*
X399174Y301280D03*
X402324D03*
X399174Y298721D03*
X402324D03*
X399174Y306398D03*
X402324D03*
X399174Y303839D03*
X402324D03*
X399174Y314075D03*
X402324D03*
X399174Y311516D03*
X402324D03*
X399174Y308957D03*
X402324D03*
X399174Y324312D03*
X402324D03*
X399174Y321753D03*
X402324D03*
X399174Y331989D03*
X402324D03*
X399174Y329430D03*
X402324D03*
X399174Y326871D03*
X402324D03*
X399174Y337107D03*
X402324D03*
X399174Y334548D03*
X402324D03*
X399174Y342225D03*
X402324D03*
X399174Y339666D03*
X402324D03*
X399174Y344784D03*
X402324D03*
X405473Y296162D03*
X408623D03*
X405473Y293603D03*
X408623D03*
X405473Y291044D03*
X408623D03*
X405473Y301280D03*
X408623D03*
X405473Y298721D03*
X408623D03*
X405473Y306398D03*
X408623D03*
X405473Y303839D03*
X408623D03*
X405473Y314075D03*
X408623D03*
X405473Y311516D03*
X408623D03*
X405473Y308957D03*
X408623D03*
X405473Y324312D03*
X408623D03*
X405473Y321753D03*
X408623D03*
X405473Y331989D03*
X408623D03*
X405473Y329430D03*
X408623D03*
X405473Y326871D03*
X408623D03*
X405473Y337107D03*
X408623D03*
X405473Y334548D03*
X408623D03*
X405473Y342225D03*
X408623D03*
X405473Y339666D03*
X408623D03*
X405473Y344784D03*
X408623D03*
X414721Y198465D03*
Y200434D03*
X412753Y198465D03*
Y200434D03*
X410784Y198465D03*
Y200434D03*
X414721Y202403D03*
X412753D03*
X410784D03*
X416690Y198465D03*
Y200434D03*
Y202403D03*
X462621Y327065D03*
Y329034D03*
Y331003D03*
X460653Y327065D03*
Y329034D03*
Y331003D03*
X458684Y327065D03*
Y329034D03*
Y331003D03*
X462521Y337665D03*
X460553D03*
X458584D03*
X462521Y339634D03*
Y341603D03*
X460553Y339634D03*
Y341603D03*
X458584Y339634D03*
Y341603D03*
X464590Y327065D03*
Y329034D03*
Y331003D03*
X464490Y337665D03*
Y339634D03*
Y341603D03*
G54D53*
X277632Y241516D03*
Y250802D03*
X277489Y259257D03*
X283932Y241516D03*
Y250802D03*
X283789Y259257D03*
G54D35*
X192157Y241090D03*
G54D62*
X440886Y295336D03*
X443248D03*
X440886Y301217D03*
X443248D03*
Y297304D03*
X440886D03*
X443248Y303185D03*
X440886D03*
Y307205D03*
X443248D03*
X440886Y313128D03*
X443248D03*
Y309173D03*
X440886D03*
X443248Y315096D03*
X440886D03*
G54D26*
X170228Y240680D03*
Y244680D03*
X194834Y314284D03*
Y318284D03*
X213678Y306258D03*
Y310258D03*
X224510Y241770D03*
Y245770D03*
X229000Y253210D03*
Y257210D03*
X232770Y221920D03*
Y225920D03*
X242640Y266530D03*
X238330Y266620D03*
X242640Y270530D03*
X238330Y270620D03*
X242178Y344758D03*
Y340758D03*
X252960Y216770D03*
X249060D03*
X252960Y220770D03*
X249060D03*
X252178Y349358D03*
Y353358D03*
X260760Y216770D03*
X256860D03*
X260760Y220770D03*
X256860D03*
X257178Y349358D03*
Y353358D03*
X264660Y216770D03*
Y220770D03*
X260946Y331937D03*
Y335937D03*
X272460Y216770D03*
X268560D03*
X272460Y220770D03*
X268560D03*
X272300Y266750D03*
Y270750D03*
X276360Y216770D03*
Y220770D03*
X273236Y319377D03*
Y323377D03*
X383500Y275000D03*
Y279000D03*
X388000Y255500D03*
Y259500D03*
G54D17*
X131370Y246240D03*
X147370D03*
G54D44*
X241216Y229059D03*
Y232208D03*
Y235358D03*
Y238508D03*
Y241657D03*
Y244807D03*
Y247956D03*
Y251106D03*
Y254256D03*
Y257405D03*
X244365Y229059D03*
X247515D03*
X244365Y232208D03*
Y235358D03*
X247515Y232208D03*
Y235358D03*
X244365Y238508D03*
Y241657D03*
X247515Y238508D03*
Y241657D03*
X244365Y244807D03*
Y247956D03*
X247515Y244807D03*
Y247956D03*
X244365Y251106D03*
Y254256D03*
X247515Y251106D03*
Y254256D03*
X244365Y257405D03*
X247515D03*
X250665Y229059D03*
X253814D03*
X250665Y232208D03*
Y235358D03*
X253814Y232208D03*
Y235358D03*
X250665Y238508D03*
Y241657D03*
X253814Y238508D03*
Y241657D03*
X250665Y244807D03*
Y247956D03*
X253814Y244807D03*
Y247956D03*
X250665Y251106D03*
Y254256D03*
X253814Y251106D03*
Y254256D03*
X250665Y257405D03*
X253814D03*
X256964Y229059D03*
X260113D03*
X256964Y232208D03*
Y235358D03*
X260113Y232208D03*
Y235358D03*
X256964Y238508D03*
Y241657D03*
X260113Y238508D03*
Y241657D03*
X256964Y244807D03*
Y247956D03*
X260113Y244807D03*
Y247956D03*
X256964Y251106D03*
Y254256D03*
X260113Y251106D03*
Y254256D03*
X256964Y257405D03*
X260113D03*
X263263Y229059D03*
X266413D03*
X263263Y232208D03*
Y235358D03*
X266413Y232208D03*
Y235358D03*
X263263Y238508D03*
Y241657D03*
X266413Y238508D03*
Y241657D03*
X263263Y244807D03*
Y247956D03*
X266413Y244807D03*
Y247956D03*
X263263Y251106D03*
Y254256D03*
X266413Y251106D03*
Y254256D03*
X263263Y257405D03*
X266413D03*
X269562Y229059D03*
Y232208D03*
Y235358D03*
Y238508D03*
Y241657D03*
Y244807D03*
Y247956D03*
Y251106D03*
Y254256D03*
Y257405D03*
G54D54*
X300229Y299012D03*
X300275Y297327D03*
X301961Y297280D03*
Y299012D03*
Y300587D03*
Y302162D03*
X300387D03*
X301961Y305312D03*
X300387D03*
X301961Y308461D03*
X300387D03*
X301961Y311611D03*
X300387D03*
X301961Y314760D03*
X300387D03*
X301961Y317910D03*
X300387D03*
X301961Y321060D03*
X300387D03*
X301961Y324209D03*
X300387D03*
X301961Y327359D03*
X300387D03*
X301961Y330508D03*
X300387D03*
X301961Y333658D03*
X300387D03*
X301961Y336808D03*
X300387D03*
X301961Y339957D03*
X300387D03*
X301961Y343107D03*
X300387D03*
X301961Y346256D03*
X300387D03*
X301961Y349406D03*
X300387D03*
X300275Y354241D03*
X301961Y354288D03*
X300229Y352556D03*
X301961Y350981D03*
Y352556D03*
X305111Y297438D03*
Y299012D03*
X303536D03*
X306686Y300587D03*
X305111D03*
X303536D03*
X306686Y302162D03*
X305111D03*
X303536D03*
X306686Y303737D03*
X305111D03*
X303536D03*
X306686Y305312D03*
X305111D03*
X303536D03*
X306686Y306886D03*
X305111D03*
X303536D03*
X306686Y308461D03*
X305111D03*
X303536D03*
X306686Y310036D03*
X305111D03*
X303536D03*
X306686Y311611D03*
X305111D03*
X303536D03*
X306686Y313186D03*
X305111D03*
X303536D03*
X306686Y314760D03*
X305111D03*
X303536D03*
X306686Y316335D03*
X305111D03*
X303536D03*
X306686Y317910D03*
X305111D03*
X303536D03*
X306686Y319485D03*
X305111D03*
X303536D03*
X306686Y321060D03*
X305111D03*
X303536D03*
X306686Y322634D03*
X305111D03*
X303536D03*
X306686Y324209D03*
X305111D03*
X303536D03*
X306686Y325784D03*
X305111D03*
X303536D03*
X306686Y327359D03*
X305111D03*
X303536D03*
X306686Y328934D03*
X305111D03*
X303536D03*
X306686Y330508D03*
X305111D03*
X303536D03*
X306686Y332083D03*
X305111D03*
X303536D03*
X306686Y333658D03*
X305111D03*
X303536D03*
X306686Y335233D03*
X305111D03*
X303536D03*
X306686Y336808D03*
X305111D03*
X303536D03*
X306686Y338382D03*
X305111D03*
X303536D03*
X306686Y339957D03*
X305111D03*
X303536D03*
X306686Y341532D03*
X305111D03*
X303536D03*
X306686Y343107D03*
X305111D03*
X303536D03*
X306686Y344682D03*
X305111D03*
X303536D03*
X306686Y346256D03*
X305111D03*
X303536D03*
X306686Y347831D03*
X305111D03*
X303536D03*
X306686Y349406D03*
X305111D03*
X303536D03*
X306686Y350981D03*
X305111D03*
X303536D03*
X305111Y352556D03*
X303536D03*
X305111Y354130D03*
X311410Y297438D03*
X308261D03*
X311410Y299012D03*
X308261D03*
X312985Y300587D03*
X311410D03*
X309835D03*
X308261D03*
X312985Y302162D03*
X311410D03*
X309835D03*
X308261D03*
X312985Y303737D03*
X311410D03*
X309835D03*
X308261D03*
X312985Y305312D03*
X311410D03*
X309835D03*
X308261D03*
Y306886D03*
X311410Y308461D03*
X308261D03*
Y310036D03*
X311410Y311611D03*
X308261D03*
X312985Y313186D03*
X308261D03*
X311410Y314760D03*
X308261D03*
X312985Y316335D03*
X311410D03*
X308261D03*
X312985Y317910D03*
X308261D03*
X312985Y319485D03*
X308261D03*
X311410Y321060D03*
X308261D03*
X312985Y322634D03*
X308261D03*
X311410Y324209D03*
X308261D03*
X312985Y325784D03*
X308261D03*
X311410Y327359D03*
X308261D03*
X312985Y328934D03*
X308261D03*
X311410Y330508D03*
X308261D03*
X312985Y332083D03*
X308261D03*
X311410Y333658D03*
X308261D03*
X312985Y335233D03*
X308261D03*
X311410Y336808D03*
X308261D03*
X312985Y338382D03*
X308261D03*
X311410Y339957D03*
X308261D03*
Y341532D03*
X311410Y343107D03*
X308261D03*
Y344682D03*
X312985Y346256D03*
X311410D03*
X309835D03*
X308261D03*
X312985Y347831D03*
X311410D03*
X309835D03*
X308261D03*
X312985Y349406D03*
X311410D03*
X309835D03*
X308261D03*
X312985Y350981D03*
X311410D03*
X309835D03*
X308261D03*
X311410Y352556D03*
X308261D03*
X311410Y354130D03*
X308261D03*
X317709Y297438D03*
X314560D03*
X317709Y299012D03*
X314560D03*
X319284Y300587D03*
X317709D03*
X316135D03*
X314560D03*
X319284Y302162D03*
X317709D03*
X316135D03*
X314560D03*
X319284Y303737D03*
X317709D03*
X316135D03*
X314560D03*
X319284Y305312D03*
X317709D03*
X316135D03*
X314560D03*
X317709Y308461D03*
X314560D03*
X317709Y311611D03*
X316135D03*
Y313186D03*
X319284Y314760D03*
X317709D03*
X314560D03*
X319284Y316335D03*
X316135D03*
X317709Y317910D03*
X314560D03*
X319284Y319485D03*
X316135D03*
X314560D03*
X317709Y321060D03*
X316135D03*
X314560D03*
X319284Y322634D03*
X316135D03*
X317709Y324209D03*
X314560D03*
X319284Y325784D03*
X316135D03*
X317709Y327359D03*
X314560D03*
X319284Y328934D03*
X316135D03*
X317709Y330508D03*
X314560D03*
X319284Y332083D03*
X316135D03*
X317709Y333658D03*
X314560D03*
X319284Y335233D03*
X316135D03*
X317709Y336808D03*
X314560D03*
X319284Y338382D03*
X316135D03*
X317709Y339957D03*
X314560D03*
X317709Y343107D03*
X314560D03*
X319284Y346256D03*
X317709D03*
X316135D03*
X314560D03*
X319284Y347831D03*
X317709D03*
X316135D03*
X314560D03*
X319284Y349406D03*
X317709D03*
X316135D03*
X314560D03*
X319284Y350981D03*
X317709D03*
X316135D03*
X314560D03*
X317709Y352556D03*
X314560D03*
X317709Y354130D03*
X314560D03*
X324009Y297438D03*
X320859D03*
X324009Y299012D03*
X320859D03*
X325583Y300587D03*
X324009D03*
X322434D03*
X320859D03*
X325583Y302162D03*
X324009D03*
X322434D03*
X320859D03*
X325583Y303737D03*
X324009D03*
X322434D03*
X320859D03*
X325583Y305312D03*
X324009D03*
X322434D03*
X320859D03*
X322434Y306887D03*
X324009D03*
Y308461D03*
X320859D03*
X325583Y311611D03*
X324009D03*
X322434D03*
X320859D03*
X325583Y313186D03*
X324009D03*
X322434D03*
X320859D03*
X324009Y314760D03*
X320859D03*
X325583Y316335D03*
X324009D03*
X322434D03*
X324009Y317910D03*
X320859D03*
X325583Y319485D03*
X322434D03*
X324009Y321060D03*
X322434D03*
X320859D03*
X325583Y322634D03*
X322434D03*
X324009Y324209D03*
X320859D03*
X325583Y325784D03*
X322434D03*
X324009Y327359D03*
X322434D03*
X320859D03*
X325583Y328934D03*
X322434D03*
X324009Y330508D03*
X320859D03*
X325583Y332083D03*
X322434D03*
X324009Y333658D03*
X320859D03*
X325583Y335233D03*
X322434D03*
X324009Y336808D03*
X320859D03*
X325583Y338382D03*
X324009D03*
X322434D03*
X320859D03*
X324009Y339957D03*
X320859D03*
X324009Y343107D03*
X320859D03*
X325583Y346256D03*
X324009D03*
X322434D03*
X320859D03*
X325583Y347831D03*
X324009D03*
X322434D03*
X320859D03*
X325583Y349406D03*
X324009D03*
X322434D03*
X320859D03*
X325583Y350981D03*
X324009D03*
X322434D03*
X320859D03*
X325583Y352556D03*
X320859D03*
X325583Y354130D03*
X320859D03*
X322434Y352556D03*
X330308Y297438D03*
X327158D03*
X330308Y299012D03*
X328733D03*
X327158D03*
X331883Y300587D03*
X330308D03*
X328733D03*
X327158D03*
X331883Y302162D03*
X330308D03*
X328733D03*
X327158D03*
X331883Y303737D03*
X330308D03*
X328733D03*
X327158D03*
X331883Y305312D03*
X330308D03*
X328733D03*
X327158D03*
X328733Y306887D03*
X331883Y310036D03*
X330308D03*
X328733D03*
X327158D03*
X331883Y311611D03*
X330308D03*
X328733D03*
X331883Y313186D03*
X328733D03*
X330308Y314760D03*
X327158D03*
X331883Y316335D03*
X330308D03*
X328733D03*
X327158D03*
X330308Y317910D03*
X327158D03*
X331883Y319485D03*
X328733D03*
X327158D03*
X330308Y321060D03*
X327158D03*
X331883Y322634D03*
X328733D03*
X330308Y324209D03*
X327158D03*
X331883Y325784D03*
X328733D03*
X330308Y327359D03*
X327158D03*
X331883Y328934D03*
X328733D03*
X330308Y330508D03*
X327158D03*
X331883Y332083D03*
X328733D03*
X330308Y333658D03*
X327158D03*
X331883Y335233D03*
X328733D03*
X330308Y336808D03*
X327158D03*
X331883Y338382D03*
X330308D03*
X328733D03*
X327158D03*
X330308Y339957D03*
X327158D03*
X330308Y343107D03*
X327158D03*
X331883Y346256D03*
X330308D03*
X328733D03*
X327158D03*
X331883Y347831D03*
X330308D03*
X328733D03*
X327158D03*
X331883Y349406D03*
X330308D03*
X328733D03*
X327158D03*
X331883Y350981D03*
X330308D03*
X328733D03*
X327158D03*
X331883Y352556D03*
X328733D03*
X331883Y354130D03*
X328733D03*
X336607Y297438D03*
X333457D03*
X336607Y299012D03*
X333457D03*
X336607Y300587D03*
X335032D03*
X333457D03*
X336607Y302162D03*
X335032D03*
X333457D03*
X336607Y303737D03*
X335032D03*
X333457D03*
X336607Y305312D03*
X335032D03*
X333457D03*
X335032Y306887D03*
X336607Y310036D03*
X335032D03*
X333457D03*
X336607Y311611D03*
X335032D03*
X333457D03*
X335032Y313186D03*
X336607Y314760D03*
X333457D03*
X336607Y316335D03*
X335032D03*
X333457D03*
X336607Y317910D03*
X333457D03*
X335032Y319485D03*
X336607Y321060D03*
X333457D03*
X335032Y322634D03*
X336607Y324209D03*
X333457D03*
X335032Y325784D03*
X336607Y327359D03*
X333457D03*
X335032Y328934D03*
X336607Y330508D03*
X333457D03*
X335032Y332083D03*
X336607Y333658D03*
X333457D03*
X335032Y335233D03*
X336607Y336808D03*
X333457D03*
X335032Y338382D03*
X336607Y339957D03*
X333457D03*
X336607Y343107D03*
X333457D03*
X336607Y346256D03*
X335032D03*
X333457D03*
X336607Y347831D03*
X335032D03*
X333457D03*
X336607Y349406D03*
X335032D03*
X333457D03*
X336607Y350981D03*
X335032D03*
X333457D03*
X336607Y352556D03*
X333457D03*
X336607Y354130D03*
X333457D03*
X342906Y297438D03*
X339757D03*
X342906Y299012D03*
X339757D03*
X342906Y300587D03*
X341331D03*
X339757D03*
X338182D03*
X342906Y302162D03*
X341331D03*
X339757D03*
X338182D03*
X342906Y303737D03*
X341331D03*
X339757D03*
X338182D03*
X342906Y305312D03*
X341331D03*
X339757D03*
X338182D03*
Y306887D03*
X342906Y310036D03*
X341331D03*
X339757D03*
X338182D03*
X342906Y311611D03*
X341331D03*
X339757D03*
X338182D03*
X341331Y313186D03*
X338182D03*
X342906Y314760D03*
X339757D03*
X341331Y316335D03*
X339757D03*
X338182D03*
X342906Y317910D03*
X341331D03*
X339757D03*
X341331Y319485D03*
X338182D03*
X342906Y321060D03*
X341331D03*
X339757D03*
X341331Y322634D03*
X338182D03*
X342906Y324209D03*
X341331D03*
X339757D03*
X341331Y325784D03*
X338182D03*
X342906Y327359D03*
X341331D03*
X339757D03*
X341331Y328934D03*
X338182D03*
X342906Y330508D03*
X341331D03*
X339757D03*
X341331Y332083D03*
X338182D03*
X342906Y333658D03*
X341331D03*
X339757D03*
X341331Y335233D03*
X338182D03*
X342906Y336808D03*
X339757D03*
X341331Y338382D03*
X338182D03*
X342906Y339957D03*
X339757D03*
X342906Y343107D03*
X339757D03*
X342906Y346256D03*
X341331D03*
X339757D03*
X338182D03*
X342906Y347831D03*
X341331D03*
X339757D03*
X338182D03*
X342906Y349406D03*
X341331D03*
X339757D03*
X338182D03*
X342906Y350981D03*
X341331D03*
X339757D03*
X342906Y352556D03*
X339757D03*
X342906Y354130D03*
X339757D03*
X349205Y297438D03*
X346056D03*
X349205Y299012D03*
X347631D03*
X346056D03*
X344481D03*
X349205Y300587D03*
X347631D03*
X346056D03*
X344481D03*
X349205Y302162D03*
X347631D03*
X346056D03*
X344481D03*
X349205Y303737D03*
X347631D03*
X346056D03*
X344481D03*
X349205Y305312D03*
X347631D03*
X346056D03*
X344481D03*
X349205Y306886D03*
Y308461D03*
Y310036D03*
X344481D03*
X349205Y311611D03*
X346056D03*
X344481D03*
X349205Y313186D03*
Y314760D03*
X347631D03*
X346056D03*
X349205Y316335D03*
X347631D03*
X346056D03*
X344481D03*
X349205Y317910D03*
X347631D03*
X346056D03*
X349205Y319485D03*
X347631D03*
X346056D03*
X344481D03*
X349205Y321060D03*
X347631D03*
X346056D03*
X349205Y322634D03*
X347631D03*
X346056D03*
X344481D03*
X349205Y324209D03*
X346056D03*
X349205Y325784D03*
X347631D03*
X344481D03*
X349205Y327359D03*
X347631D03*
X346056D03*
X349205Y328934D03*
X347631D03*
X346056D03*
X344481D03*
X349205Y330508D03*
X347631D03*
X346056D03*
X349205Y332083D03*
X346056D03*
X344481D03*
X347630D03*
X349205Y333658D03*
X346056D03*
X349205Y335233D03*
X344481D03*
X349205Y336808D03*
X346056D03*
X349205Y338382D03*
X344481D03*
X349205Y339957D03*
X346056D03*
X349205Y341532D03*
Y343107D03*
X346056D03*
X349205Y344682D03*
Y346256D03*
X347631D03*
X346056D03*
X344481D03*
X349205Y347831D03*
X347631D03*
X346056D03*
X344481D03*
X349205Y349406D03*
X347631D03*
X346056D03*
X344481D03*
X349205Y350981D03*
X347631D03*
X346056D03*
X344481D03*
X349205Y352556D03*
X346056D03*
X349205Y354130D03*
X346056D03*
X355505Y297280D03*
X352355Y297438D03*
X355505Y299012D03*
X353930D03*
X352355D03*
X355505Y300587D03*
X353930D03*
X352355D03*
X350780D03*
X355505Y302162D03*
X353930D03*
X352355D03*
X350780D03*
X353930Y303737D03*
X352355D03*
X350780D03*
X355505Y305312D03*
X353930D03*
X352355D03*
X350780D03*
X355505Y306886D03*
X353930D03*
X352355D03*
X350780D03*
X355505Y308461D03*
X353930D03*
X352355D03*
X350780D03*
X355505Y310036D03*
X353930D03*
X352355D03*
X350780D03*
X355505Y311611D03*
X353930D03*
X352355D03*
X350780D03*
X353930Y313186D03*
X352355D03*
X350780D03*
X355505Y314760D03*
X353930D03*
X352355D03*
X350780D03*
X353930Y316335D03*
X352355D03*
X350780D03*
X355505Y317910D03*
X353930D03*
X352355D03*
X350780D03*
X353930Y319485D03*
X352355D03*
X350780D03*
X355505Y321060D03*
X353930D03*
X352355D03*
X350780D03*
X353930Y322634D03*
X352355D03*
X350780D03*
X355505Y324209D03*
X353930D03*
X352355D03*
X350780D03*
X355505Y325784D03*
X353930D03*
X352355D03*
X350780D03*
X355505Y327359D03*
X353930D03*
X352355D03*
X350780D03*
X353930Y328934D03*
X352355D03*
X350780D03*
X355505Y330508D03*
X353930D03*
X352355D03*
X350780D03*
X353930Y332083D03*
X352355D03*
X350780D03*
X353930Y335233D03*
X352355D03*
X350780D03*
X355505Y333658D03*
X353930D03*
X352355D03*
X350780D03*
X355505Y336808D03*
X353930D03*
X352355D03*
X350780D03*
X353930Y338382D03*
X352355D03*
X350780D03*
X355505Y339957D03*
X353930D03*
X352355D03*
X350780D03*
X353930Y341532D03*
X352355D03*
X350780D03*
X355505Y343107D03*
X353930D03*
X352355D03*
X350780D03*
X353930Y344682D03*
X352355D03*
X350780D03*
X355505Y346256D03*
X353930D03*
X352355D03*
X350780D03*
X353930Y347831D03*
X352355D03*
X350780D03*
X355505Y349406D03*
X353930D03*
X352355D03*
X350780D03*
X355505Y354288D03*
Y350981D03*
X353930D03*
X352355D03*
X350780D03*
X355505Y352556D03*
X353930D03*
X352355D03*
Y354130D03*
X357190Y297327D03*
X357237Y299012D03*
X357079Y302162D03*
Y305312D03*
Y308461D03*
Y311611D03*
Y314760D03*
Y317910D03*
Y321060D03*
Y324209D03*
Y327359D03*
Y330508D03*
Y333658D03*
Y336808D03*
Y339957D03*
Y343107D03*
Y346256D03*
Y349406D03*
X357237Y352556D03*
X357190Y354241D03*
G54D63*
X446700Y332466D03*
X451818D03*
X449200Y339466D03*
G54D27*
X166860Y363970D03*
X172860D03*
X189470Y229812D03*
X189320Y250979D03*
X195470Y229812D03*
X195320Y250979D03*
X289730Y247750D03*
X289640Y253560D03*
X289652Y259297D03*
Y264997D03*
X295730Y247750D03*
X295640Y253560D03*
X295652Y259297D03*
Y264997D03*
X355700Y386511D03*
X361700D03*
X412610Y382705D03*
X418610D03*
G54D45*
X242320Y278750D03*
Y284750D03*
X248320Y278760D03*
Y284760D03*
X255783Y279052D03*
Y285052D03*
X267430Y279100D03*
X261520D03*
X267430Y285100D03*
X261520D03*
X273420Y279100D03*
Y285100D03*
X289350Y233460D03*
Y239460D03*
X289634Y375730D03*
Y381730D03*
G54D18*
X124540Y401449D03*
X128520D03*
X124540Y405091D03*
X128520D03*
X132600Y401449D03*
Y405091D03*
X452296Y324577D03*
Y328219D03*
G54D36*
X194850Y314465D03*
Y318107D03*
X199050Y314515D03*
Y318157D03*
G54D37*
X194033Y331328D03*
Y376112D03*
X197577Y331328D03*
Y376112D03*
X204663Y331328D03*
X201120D03*
Y376112D03*
X204663D03*
X211750Y331328D03*
X208207D03*
Y376112D03*
X211750D03*
X218837Y331328D03*
X215293D03*
Y376112D03*
X218837D03*
X222380Y331328D03*
Y376112D03*
X229467Y331328D03*
X225923D03*
Y376112D03*
X229467D03*
G54D46*
X241711Y350752D03*
Y357150D03*
X246533Y350752D03*
Y357150D03*
G54D28*
X171525Y387264D03*
X183139D03*
G54D55*
X420477Y232128D03*
G54D64*
X455831Y284490D03*
G54D19*
X131200Y224025D03*
X129200D03*
X131199Y221740D03*
X129199D03*
X150113Y216185D03*
X152113D03*
X150120Y218311D03*
X152120D03*
X169030Y235690D03*
Y233690D03*
X165030Y339800D03*
X167030D03*
X173217Y341720D03*
Y339720D03*
X175332Y367893D03*
Y374620D03*
X178870Y220556D03*
X180870D03*
X177332Y367893D03*
Y370152D03*
Y372152D03*
Y374620D03*
X191449Y286105D03*
X189449D03*
X191449Y288437D03*
X189449D03*
X191449Y290772D03*
X189449D03*
X194399Y290791D03*
X194150Y298655D03*
Y306655D03*
Y309155D03*
X195570Y282721D03*
X198280Y282532D03*
X200280D03*
X200320Y280388D03*
X198320D03*
X195570Y284721D03*
X195531Y286731D03*
Y288731D03*
X198280Y284632D03*
X200280D03*
X198280Y288832D03*
X200280D03*
X200320Y286688D03*
X198320D03*
X196399Y290791D03*
X200320Y290788D03*
X198320D03*
X199345Y295550D03*
Y293550D03*
X196345Y295850D03*
Y293850D03*
X196150Y298655D03*
Y306655D03*
Y309155D03*
X198155Y309850D03*
Y311850D03*
X204168Y234030D03*
Y236030D03*
Y238230D03*
Y240230D03*
X203899Y323521D03*
Y325521D03*
X206231Y323521D03*
Y325521D03*
X211500Y298500D03*
X211350Y296345D03*
X208564Y323521D03*
Y325521D03*
X213500Y298500D03*
X213350Y296345D03*
X215233Y323521D03*
Y325521D03*
X218566Y323521D03*
Y325521D03*
X230150Y235130D03*
X228150D03*
X236360Y221770D03*
X232089Y235131D03*
X234089D03*
X232070Y233130D03*
X234070D03*
X234380Y251640D03*
X232380D03*
X234410Y253910D03*
X232410D03*
X234470Y258560D03*
X232470D03*
X234500Y261600D03*
X232500D03*
X241000Y221770D03*
X238360D03*
X242050Y361775D03*
X242021Y363934D03*
X241110Y383270D03*
Y385400D03*
X243000Y221770D03*
X245920Y341561D03*
Y343561D03*
X244050Y361775D03*
X244021Y363934D03*
X243110Y383270D03*
Y385400D03*
X252372Y198901D03*
X252332Y196999D03*
X254332D03*
Y202999D03*
X252332D03*
X254332Y200999D03*
X252332D03*
X254372Y198901D03*
X257458Y330630D03*
Y337296D03*
Y335296D03*
Y332630D03*
X260187Y341981D03*
X257458Y339320D03*
Y341320D03*
X258479Y387368D03*
X265479Y330385D03*
Y336220D03*
X265480Y334345D03*
Y332345D03*
X265479Y339554D03*
X262187Y341981D03*
X264480Y349045D03*
X262500D03*
X260500D03*
X264479Y353724D03*
X264480Y351845D03*
Y355845D03*
X264479Y360057D03*
X264480Y357845D03*
X264445Y366858D03*
X264465Y362500D03*
Y364500D03*
X264445Y368858D03*
X264435Y372679D03*
Y374679D03*
X263021Y387368D03*
X265021D03*
X260479D03*
X269972Y199001D03*
X267972D03*
X267932Y197099D03*
X269932D03*
Y203099D03*
X267932D03*
X269932Y201099D03*
X267932D03*
X267041Y300687D03*
X269041D03*
X267041Y298597D03*
X269041D03*
X267260Y310495D03*
X269260D03*
X267261Y312451D03*
X269261D03*
X269255Y318778D03*
X269201Y316871D03*
Y314871D03*
X269255Y320778D03*
X269209Y322629D03*
Y324629D03*
X267479Y330385D03*
Y336220D03*
X267480Y334345D03*
Y332345D03*
X267479Y339554D03*
X266480Y349045D03*
X266479Y353724D03*
X266480Y351845D03*
Y355845D03*
X266479Y360057D03*
X266480Y357845D03*
X266891Y364657D03*
X268891D03*
X266891Y362637D03*
X268891D03*
X267801Y372679D03*
Y374679D03*
X277040Y236010D03*
X275010Y265520D03*
Y267520D03*
X273028Y379599D03*
X275028D03*
X273068Y377601D03*
X275068D03*
X273068Y375701D03*
X275068D03*
Y381501D03*
X273068D03*
X280453Y206221D03*
Y208221D03*
X279040Y236010D03*
X284237Y280479D03*
Y278479D03*
X281904Y280479D03*
Y278479D03*
X283340Y387405D03*
X286372Y198801D03*
X284372D03*
X284332Y196899D03*
X286332D03*
Y202899D03*
X284332D03*
X286332Y200899D03*
X284332D03*
X288903Y280479D03*
Y278479D03*
X286570Y280479D03*
Y278479D03*
X285340Y387405D03*
X293271Y280479D03*
Y278479D03*
X295438Y280479D03*
Y278479D03*
X291105Y280479D03*
Y278479D03*
X293480Y288618D03*
X291480D03*
X293479Y296887D03*
X291479D03*
X293350Y314385D03*
X291350D03*
X307772Y198801D03*
X305772D03*
X305732Y196899D03*
X307732D03*
Y200899D03*
X305732D03*
X307732Y202899D03*
X305732D03*
X323772Y198501D03*
X321772D03*
X321732Y196599D03*
X323732D03*
Y202599D03*
X321732D03*
X323732Y200599D03*
X321732D03*
X341172Y198601D03*
X339172D03*
X339132Y196699D03*
X341132D03*
Y202699D03*
X339132D03*
X341132Y200699D03*
X339132D03*
X355972Y198801D03*
X355932Y196899D03*
Y202899D03*
Y200899D03*
X351020Y366910D03*
X353020D03*
X351647Y385866D03*
Y387866D03*
X357972Y198801D03*
X357932Y196899D03*
Y202899D03*
Y200899D03*
X366429Y366909D03*
X373372Y198501D03*
X373332Y196599D03*
Y200599D03*
Y202599D03*
X368429Y366909D03*
X375372Y198501D03*
X375332Y196599D03*
Y200599D03*
Y202599D03*
X377500Y251500D03*
X379500D03*
X390872Y198801D03*
X388872D03*
X388832Y196899D03*
X390832D03*
Y200899D03*
X388832D03*
X390832Y202899D03*
X388832D03*
X390692Y222091D03*
X388692D03*
X388652Y220189D03*
X390652D03*
Y224189D03*
X388652D03*
X390652Y226189D03*
X388652D03*
X391000Y259000D03*
Y257000D03*
Y268500D03*
Y266500D03*
X387000D03*
Y268500D03*
X391500Y276500D03*
Y274500D03*
X386500Y276500D03*
Y274500D03*
X389000Y276500D03*
Y274500D03*
X393000Y259000D03*
Y257000D03*
X396000Y262000D03*
X398000D03*
X395510Y268290D03*
X397510D03*
X402021Y246272D03*
X404021D03*
X402021Y250439D03*
X404021D03*
X402021Y254106D03*
X404021D03*
X402021Y272273D03*
X404021D03*
X402021Y276940D03*
X404021D03*
X402258Y281505D03*
X406672Y198601D03*
X404672D03*
X404632Y196699D03*
X406632D03*
Y202699D03*
X404632D03*
X406632Y200699D03*
X404632D03*
X404258Y281505D03*
X415230Y387495D03*
X420672Y198901D03*
X420632Y196999D03*
Y202999D03*
Y200999D03*
X417230Y387495D03*
X422672Y198901D03*
X422632Y196999D03*
Y202999D03*
Y200999D03*
X433799Y325472D03*
Y323142D03*
Y321142D03*
Y327472D03*
X432455Y337130D03*
Y335130D03*
X434912Y337129D03*
Y335129D03*
X441064Y295349D03*
X443064D03*
X441064Y301229D03*
X443064D03*
X441064Y297299D03*
X443064D03*
X441074Y307209D03*
X443074D03*
X441064Y303179D03*
X443064D03*
X441064Y313139D03*
X443064D03*
X441074Y309159D03*
X443074D03*
X441064Y315089D03*
X443064D03*
X446822Y324221D03*
Y326221D03*
X449045Y324259D03*
Y326259D03*
X468632Y325399D03*
X468672Y327301D03*
X468632Y331399D03*
Y329399D03*
X468572Y337901D03*
X468532Y335999D03*
Y341999D03*
Y339999D03*
X470632Y325399D03*
X470672Y327301D03*
X470632Y331399D03*
Y329399D03*
X470572Y337901D03*
X470532Y335999D03*
Y341999D03*
Y339999D03*
G54D47*
X249195Y265946D03*
Y272246D03*
X257481Y265946D03*
Y272246D03*
X265767Y265946D03*
Y272246D03*
G54D65*
X457274Y301545D03*
Y299970D03*
Y298395D03*
Y307844D03*
Y306269D03*
Y304695D03*
Y303120D03*
Y312569D03*
Y310994D03*
Y309419D03*
G54D56*
X420438Y246498D03*
Y250829D03*
Y255160D03*
Y259490D03*
Y263821D03*
Y268152D03*
Y272483D03*
Y276813D03*
G54D29*
X172403Y229428D03*
Y235728D03*
G54D38*
X201120Y367893D03*
X208207D03*
X215293D03*
G54D66*
X462904Y291899D03*
Y319065D03*
G54D39*
X208840Y235250D03*
X212590Y245450D03*
X208840D03*
X216340Y235250D03*
Y245450D03*
G54D48*
X249622Y362600D03*
Y366350D03*
Y370100D03*
X259822Y362600D03*
Y370100D03*
G54D57*
X420477Y282424D03*
G54D67*
X462195Y299183D03*
Y300758D03*
Y302332D03*
Y303907D03*
Y305482D03*
Y307057D03*
Y308632D03*
Y310206D03*
Y311781D03*
G54D58*
X426697Y284490D03*
G54D49*
X247928Y393540D03*
X245959D03*
X243991D03*
X253833D03*
X251865D03*
X249896D03*
X259739D03*
X257770D03*
X255802D03*
X265644D03*
X263676D03*
X261707D03*
X271550D03*
X269581D03*
X267613D03*
X277455D03*
X275487D03*
X273518D03*
X283361D03*
X281392D03*
X279424D03*
X285329D03*
X313725Y393539D03*
X311756D03*
X309788D03*
X319630D03*
X317662D03*
X315693D03*
X325536D03*
X323567D03*
X321599D03*
X331441D03*
X329473D03*
X327504D03*
X337347D03*
X335378D03*
X333410D03*
X343252D03*
X341284D03*
X339315D03*
X349158D03*
X347189D03*
X345221D03*
X351126D03*
X379833Y393434D03*
X377864D03*
X375896D03*
X385738D03*
X383770D03*
X381801D03*
X391644D03*
X389675D03*
X387707D03*
X397549D03*
X395581D03*
X393612D03*
X403455D03*
X401486D03*
X399518D03*
X409360D03*
X407392D03*
X405423D03*
X415266D03*
X413297D03*
X411329D03*
X417234D03*
G54D59*
X439963Y322122D03*
X440200Y333578D03*
G54D68*
X478666Y230947D03*
Y284097D03*
G54D69*
X476172Y293277D03*
Y317687D03*
M02*
