G04 ================== begin FILE IDENTIFICATION RECORD ==================*
G04 Layout Name:  BEAGLEV-AHEAD V11_no_logo.brd*
G04 Film Name:    silkbotm*
G04 File Format:  Gerber RS274X*
G04 File Origin:  Cadence Allegro 17.4-S035*
G04 Origin Date:  Wed Jul 12 11:35:00 2023*
G04 *
G04 Layer:  REF DES/SILKSCREEN_BOTTOM*
G04 Layer:  PACKAGE GEOMETRY/SILKSCREEN_BOTTOM*
G04 Layer:  BOARD GEOMETRY/OUTLINE*
G04 Layer:  BOARD GEOMETRY/SILKSCREEN_BOTTOM*
G04 *
G04 Offset:    (0.00 0.00)*
G04 Mirror:    No*
G04 Mode:      Positive*
G04 Rotation:  0*
G04 FullContactRelief:  No*
G04 UndefLineWidth:     2.00*
G04 ================== end FILE IDENTIFICATION RECORD ====================*
%FSLAX25Y25*MOIN*%
%IR0*IPPOS*OFA0.00000B0.00000*MIA0B0*SFA1.00000B1.00000*%
%ADD10C,.01*%
%ADD11C,.002*%
%ADD12C,.004*%
%ADD13C,.005*%
%ADD14C,.006*%
%ADD15C,.00512*%
%ADD16C,.008*%
%ADD17C,.00315*%
G75*
%LPD*%
G75*
G36*
G01X115686Y210822D02*
Y207822D01*
X114186Y209322D01*
X115686Y210822D01*
G37*
G36*
G01Y217822D02*
Y214822D01*
X114186Y216322D01*
X115686Y217822D01*
G37*
G36*
G01Y224822D02*
Y221822D01*
X114186Y223322D01*
X115686Y224822D01*
G37*
G36*
G01Y231822D02*
Y228822D01*
X114186Y230322D01*
X115686Y231822D01*
G37*
G36*
G01Y238822D02*
Y235822D01*
X114186Y237322D01*
X115686Y238822D01*
G37*
G36*
G01X160890Y368580D02*
X163890Y365580D01*
X166890Y368580D01*
X167390Y369080D01*
X160390D01*
X160890Y368580D01*
G37*
G36*
G01X164774Y384367D02*
Y382367D01*
X163774Y383367D01*
X164774Y384367D01*
G37*
G36*
G01X164621Y388867D02*
Y386867D01*
X163621Y387867D01*
X164621Y388867D01*
G37*
G36*
G01X168296Y405060D02*
Y402060D01*
X166796Y403560D01*
X168296Y405060D01*
G37*
G36*
G01X172587Y361043D02*
X173701Y362157D01*
X172587Y363272D01*
Y361043D01*
G37*
G36*
G01X177346Y276062D02*
X179846Y273562D01*
Y278562D01*
X177346Y276062D01*
G37*
G36*
G01X217413Y350957D02*
X216299Y349843D01*
X217413Y348728D01*
Y350957D01*
G37*
G36*
G01Y366957D02*
X216299Y365843D01*
X217413Y364728D01*
Y366957D01*
G37*
G36*
G01X220094Y218272D02*
X218094Y220272D01*
X222094D01*
X220094Y218272D01*
G37*
G36*
G01X220234Y408302D02*
X218234Y410302D01*
X222234D01*
X220234Y408302D01*
G37*
G36*
G01X453000Y272397D02*
Y270397D01*
X452000Y271397D01*
X453000Y272397D01*
G37*
G36*
G01Y276739D02*
Y274739D01*
X452000Y275739D01*
X453000Y276739D01*
G37*
G36*
G01Y280897D02*
Y278897D01*
X452000Y279897D01*
X453000Y280897D01*
G37*
G36*
G01Y285500D02*
Y283500D01*
X452000Y284500D01*
X453000Y285500D01*
G37*
G54D10*
G01X145433Y194692D02*
G03I-500J0D01*
G01Y231992D02*
G03I-500J0D01*
G01X158343Y248859D02*
G03I-500J0D01*
G01X186371Y301126D02*
G03I-500J0D01*
G01Y313974D02*
G03I-500J0D01*
G01X193050Y291550D02*
G03I-500J0D01*
G01X210380Y277004D02*
G03I-500J0D01*
G01X214073Y336859D02*
G03I-500J0D01*
G01X232129Y368999D02*
G03I-500J0D01*
G01X273974Y328200D02*
G03I-500J0D01*
G01X286317Y364526D02*
G03I-500J0D01*
G01X307025Y364784D02*
G03I-500J0D01*
G01X334537Y364746D02*
G03I-500J0D01*
G01X351035Y364574D02*
G03I-500J0D01*
G01X372420Y233140D02*
G03I-500J0D01*
G01X389705Y364634D02*
G03I-500J0D01*
G01X440443Y261518D02*
G03I-500J0D01*
G01X458501Y245728D02*
G03I-500J0D01*
G01Y264548D02*
G03I-500J0D01*
G01X468408Y279383D02*
G03I-500J0D01*
G54D11*
G01X273273Y330100D02*
X274573D01*
X274313Y329940D01*
G01X273273D02*
Y330260D01*
G01X274356Y331347D02*
X274486Y331427D01*
X274551Y331520D01*
X274573Y331627D01*
X274530Y331760D01*
X274421Y331853D01*
X274291Y331880D01*
X274161Y331867D01*
X274053Y331813D01*
X273836Y331547D01*
X273685Y331427D01*
X273468Y331347D01*
X273273Y331320D01*
Y331880D01*
G01X273533Y332807D02*
X273381Y332887D01*
X273295Y332993D01*
X273273Y333113D01*
X273295Y333220D01*
X273403Y333327D01*
X273533Y333393D01*
X273663Y333407D01*
X273815Y333380D01*
X273923Y333287D01*
X273966Y333193D01*
Y333073D01*
G01Y333193D02*
X274031Y333273D01*
X274140Y333340D01*
X274270Y333367D01*
X274400Y333340D01*
X274508Y333273D01*
X274573Y333153D01*
X274551Y333033D01*
X274465Y332913D01*
G01X273273Y334760D02*
X274573D01*
X273641Y334267D01*
Y334933D01*
G01X273468Y336307D02*
X273360Y336387D01*
X273295Y336480D01*
X273273Y336600D01*
X273316Y336720D01*
X273403Y336813D01*
X273555Y336880D01*
X273728Y336893D01*
X273901Y336867D01*
X274010Y336800D01*
X274096Y336707D01*
X274118Y336613D01*
X274096Y336520D01*
X274010Y336400D01*
X274573Y336440D01*
Y336800D01*
G01X273815Y337847D02*
X273966Y337940D01*
X274053Y338020D01*
X274096Y338127D01*
X274053Y338220D01*
X273966Y338287D01*
X273836Y338340D01*
X273685Y338353D01*
X273555Y338340D01*
X273425Y338287D01*
X273316Y338207D01*
X273273Y338113D01*
X273316Y338007D01*
X273446Y337913D01*
X273641Y337860D01*
X273858Y337847D01*
X274140Y337873D01*
X274291Y337913D01*
X274443Y337980D01*
X274551Y338073D01*
X274573Y338167D01*
X274530Y338260D01*
X274421Y338327D01*
G01X102854Y202566D02*
G03X127854Y177566I25000J0D01*
G01X102854Y391566D02*
Y202566D01*
G01X127854Y416566D02*
G03X102854Y391566I0J-25000D01*
G01X127854Y177566D02*
X432854D01*
G01Y416566D02*
X127854D01*
G01X365354Y228790D02*
Y218790D01*
X305354D01*
Y228790D01*
X365354D01*
G01X432854Y177566D02*
G03X482854Y227566I0J50000D01*
G01Y366566D02*
G03X432854Y416566I-50000J0D01*
G01X482854Y227566D02*
Y366566D01*
G54D12*
G01X108720Y207850D02*
Y210650D01*
X108120D01*
X107880Y210510D01*
X107700Y210323D01*
X107550Y210043D01*
X107430Y209717D01*
X107400Y209250D01*
X107430Y208783D01*
X107550Y208457D01*
X107700Y208177D01*
X107880Y207990D01*
X108120Y207850D01*
X108720D01*
G01X106220Y208270D02*
X106040Y208037D01*
X105830Y207897D01*
X105560Y207850D01*
X105290Y207943D01*
X105080Y208130D01*
X104930Y208457D01*
X104900Y208830D01*
X104960Y209203D01*
X105110Y209437D01*
X105320Y209623D01*
X105530Y209670D01*
X105740Y209623D01*
X106010Y209437D01*
X105920Y210650D01*
X105110D01*
G01X108770Y214660D02*
Y217460D01*
X108170D01*
X107930Y217320D01*
X107750Y217133D01*
X107600Y216853D01*
X107480Y216527D01*
X107450Y216060D01*
X107480Y215593D01*
X107600Y215267D01*
X107750Y214987D01*
X107930Y214800D01*
X108170Y214660D01*
X108770D01*
G01X105250D02*
Y217460D01*
X106360Y215453D01*
X104860D01*
G01X108700Y221920D02*
Y224720D01*
X108100D01*
X107860Y224580D01*
X107680Y224393D01*
X107530Y224113D01*
X107410Y223787D01*
X107380Y223320D01*
X107410Y222853D01*
X107530Y222527D01*
X107680Y222247D01*
X107860Y222060D01*
X108100Y221920D01*
X108700D01*
G01X106200Y222480D02*
X106020Y222153D01*
X105780Y221967D01*
X105510Y221920D01*
X105270Y221967D01*
X105030Y222200D01*
X104880Y222480D01*
X104850Y222760D01*
X104910Y223087D01*
X105120Y223320D01*
X105330Y223413D01*
X105600D01*
G01X105330D02*
X105150Y223553D01*
X105000Y223787D01*
X104940Y224067D01*
X105000Y224347D01*
X105150Y224580D01*
X105420Y224720D01*
X105690Y224673D01*
X105960Y224487D01*
G01X108700Y228850D02*
Y231650D01*
X108100D01*
X107860Y231510D01*
X107680Y231323D01*
X107530Y231043D01*
X107410Y230717D01*
X107380Y230250D01*
X107410Y229783D01*
X107530Y229457D01*
X107680Y229177D01*
X107860Y228990D01*
X108100Y228850D01*
X108700D01*
G01X106110Y231183D02*
X105930Y231463D01*
X105720Y231603D01*
X105480Y231650D01*
X105180Y231557D01*
X104970Y231323D01*
X104910Y231043D01*
X104940Y230763D01*
X105060Y230530D01*
X105660Y230063D01*
X105930Y229737D01*
X106110Y229270D01*
X106170Y228850D01*
X104910D01*
G01X108790Y235710D02*
Y238510D01*
X108190D01*
X107950Y238370D01*
X107770Y238183D01*
X107620Y237903D01*
X107500Y237577D01*
X107470Y237110D01*
X107500Y236643D01*
X107620Y236317D01*
X107770Y236037D01*
X107950Y235850D01*
X108190Y235710D01*
X108790D01*
G01X105630D02*
Y238510D01*
X105990Y237950D01*
G01Y235710D02*
X105270D01*
G01X171220Y397050D02*
Y399850D01*
X170500D01*
X170260Y399710D01*
X170080Y399383D01*
X170020Y399010D01*
X170080Y398637D01*
X170230Y398357D01*
X170500Y398217D01*
X171220D01*
G01X169020Y399850D02*
X168600Y397050D01*
X168120Y399850D01*
X167640Y397050D01*
X167220Y399850D01*
G01X166220Y397050D02*
Y399850D01*
X165470D01*
X165230Y399710D01*
X165080Y399523D01*
X165020Y399150D01*
X165080Y398777D01*
X165260Y398543D01*
X165470Y398403D01*
X166220D01*
G01X165470D02*
X165020Y397050D01*
G01X370314Y248378D02*
X371064Y245578D01*
X371814Y248378D01*
G01X371544Y247398D02*
X370584D01*
G01X370464Y274953D02*
Y272153D01*
X371184D01*
X371424Y272293D01*
X371604Y272620D01*
X371664Y272993D01*
X371604Y273366D01*
X371454Y273646D01*
X371184Y273786D01*
X370464D01*
G01X382875Y233614D02*
Y230814D01*
X382515Y231374D01*
G01Y233614D02*
X383235D01*
G01X406915D02*
Y230814D01*
X406555Y231374D01*
G01Y233614D02*
X407275D01*
G01X409775D02*
Y230814D01*
X408665Y232821D01*
X410165D01*
G01X426365Y312674D02*
X429165D01*
X428605Y312314D01*
G01X426365D02*
Y313034D01*
G01X427532Y314604D02*
X427858Y314814D01*
X428045Y314994D01*
X428138Y315234D01*
X428045Y315444D01*
X427858Y315594D01*
X427578Y315714D01*
X427252Y315744D01*
X426972Y315714D01*
X426692Y315594D01*
X426458Y315414D01*
X426365Y315204D01*
X426458Y314964D01*
X426738Y314754D01*
X427158Y314634D01*
X427625Y314604D01*
X428232Y314664D01*
X428558Y314754D01*
X428885Y314904D01*
X429118Y315114D01*
X429165Y315324D01*
X429072Y315534D01*
X428838Y315684D01*
G01X428698Y348154D02*
X428978Y348334D01*
X429118Y348544D01*
X429165Y348784D01*
X429072Y349084D01*
X428838Y349294D01*
X428558Y349354D01*
X428278Y349324D01*
X428045Y349204D01*
X427578Y348604D01*
X427252Y348334D01*
X426785Y348154D01*
X426365Y348094D01*
Y349354D01*
G01X461865Y312674D02*
X464665D01*
X464105Y312314D01*
G01X461865D02*
Y313034D01*
G01X462285Y314514D02*
X462052Y314694D01*
X461912Y314904D01*
X461865Y315174D01*
X461958Y315444D01*
X462145Y315654D01*
X462472Y315804D01*
X462845Y315834D01*
X463218Y315774D01*
X463452Y315624D01*
X463638Y315414D01*
X463685Y315204D01*
X463638Y314994D01*
X463452Y314724D01*
X464665Y314814D01*
Y315624D01*
G01X462365Y348724D02*
X465165D01*
X464605Y348364D01*
G01X462365D02*
Y349084D01*
G54D13*
G01X92826Y267704D02*
Y330420D01*
X176488D01*
Y267704D01*
X92826D01*
G01X147803Y358444D02*
Y346877D01*
X92803D01*
Y385066D01*
X126803D01*
G01X120436Y211822D02*
X109936D01*
Y206822D01*
X120436D01*
Y211822D01*
G01Y218822D02*
X109936D01*
Y213822D01*
X120436D01*
Y218822D01*
G01Y225822D02*
X109936D01*
Y220822D01*
X120436D01*
Y225822D01*
G01Y232822D02*
X109936D01*
Y227822D01*
X120436D01*
Y232822D01*
G01Y239822D02*
X109936D01*
Y234822D01*
X120436D01*
Y239822D01*
G01X125575Y195893D02*
X143291D01*
G01Y208491D02*
X125575D01*
G01Y233193D02*
X143291D01*
G01Y245791D02*
X125575D01*
G01X132437Y219784D02*
Y222934D01*
X134012D01*
G01X139437Y219784D02*
Y222934D01*
X141012D01*
G01X134800Y219784D02*
X136406D01*
G01X138737D02*
Y222934D01*
X137162D01*
G01X141800Y219784D02*
X143406D01*
G01X145737D02*
Y222934D01*
X144162D01*
G01X147803Y375444D02*
Y385066D01*
X143803D01*
G01X150863Y207323D02*
Y200717D01*
X147757D01*
Y207323D01*
X150863D01*
G01X148800Y219784D02*
X150406D01*
G01X152737D02*
Y222934D01*
X151162D01*
G01X146437Y219784D02*
Y222934D01*
X148012D01*
G01X151133Y244803D02*
Y238197D01*
X148027D01*
Y244803D01*
X151133D01*
G01X155800Y219784D02*
X157406D01*
G01X153437D02*
Y222934D01*
X155012D01*
G01X158890Y359080D02*
X156390D01*
G01Y376080D02*
Y359080D01*
G01X158890Y376080D02*
X156390D01*
G01X159737Y219784D02*
Y222934D01*
X158162D01*
G01X162800Y219784D02*
X164406D01*
G01X160437D02*
Y222934D01*
X162012D01*
G01X159906Y247422D02*
X167780D01*
Y247716D01*
G01X159906D02*
Y247422D01*
G01X167780Y255002D02*
Y255296D01*
X159906D01*
Y255002D01*
G01X162912Y381792D02*
X165636D01*
G01Y384942D02*
X162912D01*
G01X162759Y386292D02*
X165483D01*
G01Y389442D02*
X162759D01*
G01X173046Y406060D02*
X162546D01*
Y401060D01*
X173046D01*
Y406060D01*
G01X166737Y219784D02*
Y222934D01*
X165162D01*
G01X171390Y359080D02*
X168890D01*
G01X171390D02*
Y376080D01*
X168890D01*
G01X175070Y242615D02*
Y245765D01*
X176645D01*
G01X175059Y360161D02*
Y359622D01*
X175618Y359059D01*
X179091D01*
G01Y372941D02*
X175059D01*
Y371839D01*
G01X177433Y242615D02*
X179039D01*
G01X181370D02*
Y245765D01*
X179795D01*
G01X181112Y264156D02*
Y267306D01*
X182687D01*
G01X184840Y290205D02*
X180902D01*
G01Y300047D02*
X184840D01*
G01Y303053D02*
X180902D01*
G01Y312895D02*
X184840D01*
G01X181910Y343630D02*
X180910D01*
G01X177410Y344630D02*
Y348630D01*
X179410D01*
G01X183475Y264156D02*
X185081D01*
G01X187412D02*
Y267306D01*
X185837D01*
G01X183284Y338819D02*
Y327007D01*
X189584D01*
Y338819D01*
X183284D01*
G01X185410Y344630D02*
Y348630D01*
X183410D01*
G01X184709Y359059D02*
X188941D01*
Y360161D01*
G01Y371839D02*
Y372941D01*
X184709D01*
G01X195188Y292707D02*
X194889D01*
X193707Y293889D01*
Y294188D01*
G01Y310912D02*
Y312393D01*
X195188D01*
G01X188547Y356773D02*
X195153D01*
Y353667D01*
X188547D01*
Y356773D01*
G01X198375Y264156D02*
X199981D01*
G01X196012D02*
Y267306D01*
X197587D01*
G01X202980Y275583D02*
X199880D01*
G01X195081Y279304D02*
Y281604D01*
G01X199880Y285425D02*
X202980D01*
G01X202312Y264156D02*
Y267306D01*
X200737D01*
G01X201059Y340161D02*
Y339059D01*
X205291D01*
G01Y352941D02*
X201059D01*
Y351839D01*
G01Y356161D02*
Y355059D01*
X205291D01*
G01Y368941D02*
X201059D01*
Y367839D01*
G01X207679Y279404D02*
X207680Y281504D01*
G01X211912Y292707D02*
X213393D01*
Y294188D01*
G01Y310912D02*
Y312393D01*
X211912D01*
G01X212534Y327922D02*
X207612D01*
G01Y335796D02*
X212534D01*
G01X210909Y339059D02*
X214941D01*
Y340161D01*
G01Y351839D02*
Y352378D01*
X214382Y352941D01*
X210909D01*
G01Y355059D02*
X214941D01*
Y356161D01*
G01Y367839D02*
Y368378D01*
X214382Y368941D01*
X210909D01*
G01X217716Y211909D02*
X215354D01*
Y192223D01*
X217716D01*
G01X216500Y294500D02*
Y284500D01*
X224500D01*
Y294500D01*
X216500D01*
G01X217317Y317097D02*
Y323703D01*
X220423D01*
Y317097D01*
X217317D01*
G01X217716Y401909D02*
X215354D01*
Y382223D01*
X217716D01*
G01X230590Y360062D02*
X225668D01*
G01Y367936D02*
X230590D01*
G01X284932Y324659D02*
X280994D01*
G01X285019Y336471D02*
X281081D01*
G01X280994Y332533D02*
X284932D01*
G01X281081Y344345D02*
X285019D01*
G01X294557Y365770D02*
X287077D01*
Y371282D01*
X294557D01*
Y365770D01*
G01X293947Y311197D02*
Y317803D01*
X297053D01*
Y311197D01*
X293947D01*
G01X301940Y260808D02*
Y259210D01*
X305141D01*
G01Y266210D02*
X301940D01*
Y264009D01*
G01X304300Y319700D02*
Y317700D01*
X308300D01*
Y319700D01*
X304300D01*
G01X307100Y322200D02*
Y320200D01*
X311100D01*
Y322200D01*
X307100D01*
G01X315265Y366028D02*
X307785D01*
Y371540D01*
X315265D01*
Y366028D01*
G01X312842Y259210D02*
X315940D01*
Y260808D01*
G01X315842Y264009D02*
Y266308D01*
X312641D01*
G01X308500Y311900D02*
X310500D01*
Y315900D01*
X308500D01*
Y311900D01*
G01X314800Y313600D02*
Y311600D01*
X318800D01*
Y313600D01*
X314800D01*
G01X330700Y317800D02*
X328700D01*
Y313800D01*
X330700D01*
Y317800D01*
G01X327400Y322000D02*
X329400D01*
Y326000D01*
X327400D01*
Y322000D01*
G01X333960Y324600D02*
X331960D01*
Y320600D01*
X333960D01*
Y324600D01*
G01X336400D02*
X334400D01*
Y320600D01*
X336400D01*
Y324600D01*
G01X342777Y365990D02*
X335297D01*
Y371502D01*
X342777D01*
Y365990D01*
G01X359275Y365818D02*
X351795D01*
Y371330D01*
X359275D01*
Y365818D01*
G01X356755Y283458D02*
Y281159D01*
X359956D01*
G01X359755Y288257D02*
X356657D01*
Y286659D01*
G01X367456Y281257D02*
X370657D01*
Y283458D01*
G01Y286659D02*
Y288257D01*
X367456D01*
G01X373282Y285731D02*
X418558D01*
Y234549D01*
X373282D01*
Y285731D01*
G01X397945Y365878D02*
X390465D01*
Y371390D01*
X397945D01*
Y365878D01*
G01X421716Y355063D02*
X424866D01*
Y356638D01*
G01X421716Y359000D02*
Y357394D01*
G01Y361363D02*
X424866D01*
Y359788D01*
G01X421716Y367425D02*
Y365819D01*
G01Y363488D02*
X424866D01*
Y365063D01*
G01X421716Y369788D02*
X424866D01*
Y368213D01*
G01X431782Y275866D02*
Y279016D01*
X433357D01*
G01X439377Y275866D02*
Y279016D01*
X440952D01*
G01X434145Y275866D02*
X435751D01*
G01X438082D02*
Y279016D01*
X436507D01*
G01X439350Y292075D02*
Y288925D01*
X440925D01*
G01X434198Y310474D02*
Y295734D01*
X456598D01*
G01Y350974D02*
Y366214D01*
X434198D01*
Y351474D01*
G01X442992Y211909D02*
X445354D01*
Y192223D01*
X442992D01*
G01X442006Y260081D02*
X449880D01*
Y260375D01*
G01X442006D02*
Y260081D01*
G01X449880Y267661D02*
Y267955D01*
X442006D01*
Y267661D01*
G01X441740Y275866D02*
X443346D01*
G01X445677D02*
Y279016D01*
X444102D01*
G01X445650Y292075D02*
Y288925D01*
X444075D01*
G01X443287Y292075D02*
X441681D01*
G01X442992Y401909D02*
X445354D01*
Y382223D01*
X442992D01*
G01X451138Y269822D02*
X453862D01*
G01Y272972D02*
X451138D01*
G01Y274164D02*
X453862D01*
G01Y277314D02*
X451138D01*
G01Y278322D02*
X453862D01*
G01Y281472D02*
X451138D01*
G01Y282925D02*
X453862D01*
G01X453053Y294803D02*
Y288197D01*
X449947D01*
Y294803D01*
X453053D01*
G01X453862Y286075D02*
X451138D01*
G01X457053Y294803D02*
Y288197D01*
X453947D01*
Y294803D01*
X457053D01*
G01X456598Y295734D02*
Y310974D01*
G01X459643Y231929D02*
X477359D01*
G01Y244527D02*
X459643D01*
G01Y250749D02*
X477359D01*
G01Y263347D02*
X459643D01*
G01X461053Y294803D02*
Y288197D01*
X457947D01*
Y294803D01*
X461053D01*
G01X465053D02*
Y288197D01*
X461947D01*
Y294803D01*
X465053D01*
G01X460522Y327436D02*
X463522D01*
G01D02*
Y334436D01*
G01D02*
X460522D01*
G01X466471Y277320D02*
Y269446D01*
X466765D01*
G01Y277320D02*
X466471D01*
G01X474051Y269446D02*
X474345D01*
Y277320D01*
X474051D01*
G54D14*
G01X154680Y252102D02*
X146680D01*
Y248102D01*
X154680D01*
Y252102D01*
G01X150100Y349530D02*
X151700D01*
G01X149400Y348830D02*
Y345830D01*
X152400D01*
Y348830D01*
G01X149400Y353830D02*
Y350830D01*
G01X150100Y350130D02*
X151700D01*
G01X152400Y350830D02*
Y353830D01*
X149400D01*
G01X155420Y240565D02*
X158420D01*
G01Y243565D02*
X155420D01*
Y240565D01*
G01X157370Y349530D02*
X158970D01*
G01X156670Y348830D02*
Y345830D01*
X159670D01*
Y348830D01*
G01X153730Y349530D02*
X155330D01*
G01X153030Y348830D02*
Y345830D01*
X156030D01*
Y348830D01*
G01X156670Y353830D02*
Y350830D01*
G01X157370Y350130D02*
X158970D01*
G01X159670Y350830D02*
Y353830D01*
X156670D01*
G01X153030D02*
Y350830D01*
G01X153730Y350130D02*
X155330D01*
G01X156030Y350830D02*
Y353830D01*
X153030D01*
G01X159120Y241265D02*
Y242865D01*
G01X159720Y241265D02*
Y242865D01*
G01X160420Y240565D02*
X163420D01*
Y243565D01*
X160420D01*
G01X160410Y338138D02*
X168410D01*
Y342138D01*
X160410D01*
Y338138D01*
G01X168820Y243008D02*
Y241408D01*
G01X168220Y243008D02*
Y241408D01*
G01X167520Y243708D02*
X164520D01*
Y240708D01*
X167520D01*
G01X169520D02*
X172520D01*
Y243708D01*
G01D02*
X169520D01*
G01X174200Y334121D02*
Y342121D01*
X170200D01*
Y334121D01*
X174200D01*
G01X180110Y287020D02*
Y279020D01*
X184110D01*
Y287020D01*
X180110D01*
G01X185230Y282930D02*
X193230D01*
Y286930D01*
X185230D01*
Y282930D01*
G01X187500Y344000D02*
X190500D01*
G01Y347000D02*
X187500D01*
Y344000D01*
G01X186520Y347750D02*
X191020D01*
G01Y352750D02*
X186520D01*
Y347750D01*
G01X194082Y261731D02*
Y269731D01*
X190082D01*
Y261731D01*
X194082D01*
G01X191200Y344700D02*
Y346300D01*
G01X191800Y344700D02*
Y346300D01*
G01X192500Y344000D02*
X195500D01*
Y347000D01*
X192500D01*
G01X191620Y349150D02*
Y351450D01*
G01X192320Y349150D02*
Y351450D01*
G01X193020Y347750D02*
X197520D01*
Y352750D01*
X193020D01*
G01X208582Y261731D02*
Y269731D01*
X204582D01*
Y261731D01*
X208582D01*
G01X216600Y280220D02*
X219600D01*
G01Y283220D02*
X216600D01*
Y280220D01*
G01X216890Y324410D02*
Y316410D01*
X220890D01*
Y324410D01*
X216890D01*
G01X220300Y280920D02*
Y282520D01*
G01X220900Y280920D02*
Y282520D01*
G01X221600Y280220D02*
X224600D01*
Y283220D01*
X221600D01*
G01X224000Y333500D02*
Y341500D01*
X220000D01*
Y333500D01*
X224000D01*
G01X228000D02*
Y336500D01*
G01X227300Y337200D02*
X225700D01*
G01X227300Y337800D02*
X225700D01*
G01X225000Y336500D02*
Y333500D01*
X228000D01*
G01Y338500D02*
Y341500D01*
X225000D01*
Y338500D01*
G01X235228Y364334D02*
X238228D01*
G01Y367334D02*
X235228D01*
Y364334D01*
G01Y371834D02*
X238228D01*
G01Y374834D02*
X235228D01*
Y371834D01*
G01Y368074D02*
X238228D01*
G01Y371074D02*
X235228D01*
Y368074D01*
G01X238928Y365034D02*
Y366634D01*
G01X239528Y365034D02*
Y366634D01*
G01X240228Y364334D02*
X243228D01*
Y367334D01*
X240228D01*
G01X238928Y372534D02*
Y374134D01*
G01X239528Y372534D02*
Y374134D01*
G01X240228Y371834D02*
X243228D01*
Y374834D01*
X240228D01*
G01X238928Y368774D02*
Y370374D01*
G01X239528Y368774D02*
Y370374D01*
G01X240228Y368074D02*
X243228D01*
Y371074D01*
X240228D01*
G01X243820Y229720D02*
Y225220D01*
X248820D01*
Y229720D01*
G01X243820Y236220D02*
Y231720D01*
G01X245220Y231120D02*
X247520D01*
G01X245220Y230420D02*
X247520D01*
G01X248820Y231720D02*
Y236220D01*
X243820D01*
G01X254570Y235580D02*
X252970D01*
G01X252270Y234880D02*
Y231880D01*
X255270D01*
G01X254570Y236180D02*
X252970D01*
G01X255270Y236880D02*
Y239880D01*
X252270D01*
Y236880D01*
G01X253850Y322150D02*
X261850D01*
Y326150D01*
X253850D01*
Y322150D01*
G01X253340Y326590D02*
Y334590D01*
X249340D01*
Y326590D01*
X253340D01*
G01X249620Y347702D02*
Y340202D01*
X261620D01*
G01X257620Y348690D02*
X253620D01*
G01X257620Y350690D02*
X253620D01*
G01X261620Y351678D02*
Y359178D01*
X249620D01*
Y351678D01*
G01X257070Y229680D02*
Y226680D01*
X260070D01*
Y229680D01*
G01X257070Y234680D02*
Y231680D01*
G01X257770Y230980D02*
X259370D01*
G01X257770Y230380D02*
X259370D01*
G01X260070Y231680D02*
Y234680D01*
X257070D01*
G01X255270Y231880D02*
Y234880D01*
G01X255870Y247780D02*
X258170D01*
G01X254470Y247080D02*
Y242580D01*
X259470D01*
Y247080D01*
G01X254470Y253580D02*
Y249080D01*
G01X255870Y248480D02*
X258170D01*
G01X259470Y249080D02*
Y253580D01*
X254470D01*
G01X259470Y254380D02*
Y258880D01*
G01X258070Y259480D02*
X255770D01*
G01X254470Y258880D02*
Y254380D01*
X259470D01*
G01X258070Y260180D02*
X255770D01*
G01X259470Y260880D02*
Y265380D01*
X254470D01*
Y260880D01*
G01X254030Y326920D02*
X262030D01*
Y330920D01*
X254030D01*
Y326920D01*
G01X257120Y334690D02*
X254120D01*
Y331690D01*
X257120D01*
G01X259120D02*
X262120D01*
Y334690D01*
G01D02*
X259120D01*
G01X258420Y333990D02*
Y332390D01*
G01X257820Y333990D02*
Y332390D01*
G01X262470Y234380D02*
X266970D01*
G01Y239380D02*
X262470D01*
Y234380D01*
G01Y240780D02*
X266970D01*
G01Y245780D02*
X262470D01*
Y240780D01*
G01Y247080D02*
X266970D01*
G01Y252080D02*
X262470D01*
Y247080D01*
G01Y252980D02*
X266970D01*
G01Y257980D02*
X262470D01*
Y252980D01*
G01X269360Y326000D02*
X264860D01*
Y321000D01*
G01D02*
X269360D01*
G01X269190Y347710D02*
X264690D01*
Y342710D01*
G01D02*
X269190D01*
G01X261620Y340202D02*
Y347190D01*
G01X267570Y235780D02*
Y238080D01*
G01X268270Y235780D02*
Y238080D01*
G01X268970Y234380D02*
X273470D01*
Y239380D01*
X268970D01*
G01Y240780D02*
X273470D01*
Y245780D01*
X268970D01*
G01X267570Y242180D02*
Y244480D01*
G01X268270Y242180D02*
Y244480D01*
G01X268970Y247080D02*
X273470D01*
Y252080D01*
X268970D01*
G01Y252980D02*
X273470D01*
Y257980D01*
X268970D01*
G01X267570Y248480D02*
Y250780D01*
G01X268270Y248480D02*
Y250780D01*
G01X267570Y254380D02*
Y256680D01*
G01X268270Y254380D02*
Y256680D01*
G01X271360Y321000D02*
X275860D01*
Y326000D01*
X271360D01*
G01X270660Y322400D02*
Y324700D01*
G01X269960Y322400D02*
Y324700D01*
G01X271190Y342710D02*
X275690D01*
Y347710D01*
X271190D01*
G01X270490Y344110D02*
Y346410D01*
G01X269790Y344110D02*
Y346410D01*
G01X293290Y327460D02*
Y322960D01*
X298290D01*
Y327460D01*
G01X294690Y328160D02*
X296990D01*
G01X294690Y328860D02*
X296990D01*
G01X293290Y333960D02*
Y329460D01*
G01X292960Y341660D02*
Y337160D01*
X297960D01*
G01X298290Y329460D02*
Y333960D01*
X293290D01*
G01X297960Y343660D02*
Y348160D01*
X292960D01*
Y343660D01*
G01X296560Y342960D02*
X294260D01*
G01X296560Y342260D02*
X294260D01*
G01X297960Y337160D02*
Y341660D01*
G01X300857Y338851D02*
Y334351D01*
X305857D01*
G01Y340851D02*
Y345351D01*
X300857D01*
Y340851D01*
G01X303350Y251500D02*
Y247000D01*
X308350D01*
Y251500D01*
G01X303350Y258000D02*
Y253500D01*
G01X304750Y252900D02*
X307050D01*
G01X304750Y252200D02*
X307050D01*
G01X308350Y253500D02*
Y258000D01*
X303350D01*
G01X306500Y328470D02*
Y325470D01*
X309500D01*
G01X305803Y325459D02*
Y328459D01*
G01X302803D02*
Y325459D01*
X305803D01*
G01X308800Y329170D02*
X307200D01*
G01X308800Y329770D02*
X307200D01*
G01X309500Y330470D02*
Y333470D01*
X306500D01*
Y330470D01*
G01X305103Y329159D02*
X303503D01*
G01X305103Y329759D02*
X303503D01*
G01X305803Y330459D02*
Y333459D01*
X302803D01*
Y330459D01*
G01X305857Y334351D02*
Y338851D01*
G01X306557Y338881D02*
Y334381D01*
X311557D01*
G01X304457Y339451D02*
X302157D01*
G01X304457Y340151D02*
X302157D01*
G01X310157Y339481D02*
X307857D01*
G01X310157Y340181D02*
X307857D01*
G01X311557Y340881D02*
Y345381D01*
X306557D01*
Y340881D01*
G01X313599Y243099D02*
Y240799D01*
G01X312899Y244499D02*
X308399D01*
Y239499D01*
X312899D01*
G01X309500Y325470D02*
Y328470D01*
G01X310315Y325179D02*
Y324179D01*
X310815Y324679D01*
X310315Y325179D01*
G01X312000Y323000D02*
X313000D01*
G01X314500Y330690D02*
X312900D01*
G01X314500Y331290D02*
X312900D01*
G01X312200Y329990D02*
Y326990D01*
X315200D01*
G01X312000Y326000D02*
X313000D01*
G01X315200Y331990D02*
Y334990D01*
X312200D01*
Y331990D01*
G01X311557Y334381D02*
Y338881D01*
G01X314250Y349800D02*
X312650D01*
G01X311950Y349100D02*
Y346100D01*
X314950D01*
G01X314250Y350400D02*
X312650D01*
G01X314950Y351100D02*
Y354100D01*
X311950D01*
Y351100D01*
G01X314299Y243099D02*
Y240799D01*
G01X314899Y239499D02*
X319399D01*
Y244499D01*
G01D02*
X314899D01*
G01X319280Y304300D02*
X316280D01*
Y301300D01*
X319280D01*
G01X315000Y323000D02*
X316000D01*
G01X315200Y326990D02*
Y329990D01*
G01X315000Y326000D02*
X316000D01*
G01X314950Y346100D02*
Y349100D01*
G01X320450Y279510D02*
Y276510D01*
X323450D01*
Y279510D01*
G01X320450Y284510D02*
Y281510D01*
G01X321150Y280810D02*
X322750D01*
G01X321150Y280210D02*
X322750D01*
G01X323450Y281510D02*
Y284510D01*
X320450D01*
G01X321280Y301300D02*
X324280D01*
Y304300D01*
G01X325180Y304660D02*
Y301660D01*
G01Y299660D02*
Y296660D01*
X328180D01*
Y299660D01*
G01X324280Y304300D02*
X321280D01*
G01X320580Y303600D02*
Y302000D01*
G01X319980Y303600D02*
Y302000D01*
G01X328180Y301660D02*
Y304660D01*
X325180D01*
G01X325880Y300960D02*
X327480D01*
G01X325880Y300360D02*
X327480D01*
G01X332710Y312860D02*
X331710D01*
G01X332710Y315860D02*
X331710D01*
G01X329870Y329500D02*
Y325000D01*
X334870D01*
G01X333470Y330100D02*
X331170D01*
G01X333470Y330800D02*
X331170D01*
G01X334870Y331500D02*
Y336000D01*
X329870D01*
Y331500D01*
G01X335488Y247795D02*
X337788D01*
G01X334088Y247095D02*
Y242595D01*
X339088D01*
Y247095D01*
G01X334088Y253595D02*
Y249095D01*
G01X335488Y248495D02*
X337788D01*
G01X339088Y249095D02*
Y253595D01*
X334088D01*
G01X335710Y312860D02*
X334710D01*
G01X337395Y313681D02*
Y314681D01*
X336895Y314181D01*
X337395Y313681D01*
G01X335710Y315860D02*
X334710D01*
G01X334870Y325000D02*
Y329500D01*
G01X344000Y313450D02*
X343000D01*
G01X341000D02*
X340000D01*
G01X341000Y316450D02*
X340000D01*
G01X344000D02*
X343000D01*
G01X341900Y324100D02*
Y323100D01*
G01X338900Y321100D02*
Y320100D01*
G01X341079Y325785D02*
X340079D01*
X340579Y325285D01*
X341079Y325785D01*
G01X338900Y324100D02*
Y323100D01*
G01X341900Y321100D02*
Y320100D01*
G01X342600Y321050D02*
Y320050D01*
G01X344779Y325735D02*
X343779D01*
X344279Y325235D01*
X344779Y325735D01*
G01X342600Y324050D02*
Y323050D01*
G01X341030Y331060D02*
Y330060D01*
G01X338030Y328060D02*
Y327060D01*
G01Y331060D02*
Y330060D01*
G01X341030Y328060D02*
Y327060D01*
G01X341930Y327900D02*
Y326900D01*
G01Y330900D02*
Y329900D01*
G01X340209Y332745D02*
X339209D01*
X339709Y332245D01*
X340209Y332745D01*
G01X344109Y332585D02*
X343109D01*
X343609Y332085D01*
X344109Y332585D01*
G01X345685Y314271D02*
Y315271D01*
X345185Y314771D01*
X345685Y314271D01*
G01X345600Y324050D02*
Y323050D01*
G01Y321050D02*
Y320050D01*
G01X344930Y330900D02*
Y329900D01*
G01Y327900D02*
Y326900D01*
G01X351600Y312000D02*
Y307500D01*
X356600D01*
Y312000D01*
G01X353000Y313400D02*
X355300D01*
G01X353000Y312700D02*
X355300D01*
G01X351600Y318500D02*
Y314000D01*
G01X356600D02*
Y318500D01*
X351600D01*
G01X363200Y312000D02*
Y307500D01*
X368200D01*
Y312000D01*
G01X364600Y313400D02*
X366900D01*
G01X364600Y312700D02*
X366900D01*
G01X363200Y318500D02*
Y314000D01*
G01X368200D02*
Y318500D01*
X363200D01*
G01X376700Y320800D02*
X372200D01*
Y315800D01*
X376700D01*
G01X368500Y373000D02*
Y365000D01*
X372500D01*
Y373000D01*
X368500D01*
G01X378100Y319400D02*
Y317100D01*
G01X377400Y319400D02*
Y317100D01*
G01X378700Y315800D02*
X383200D01*
Y320800D01*
G01D02*
X378700D01*
G01X390417Y298510D02*
X385917D01*
Y293510D01*
X390417D01*
G01X391117Y297110D02*
Y294810D01*
G01X392417Y293510D02*
X396917D01*
Y298510D01*
G01X391817Y297110D02*
Y294810D01*
G01X396917Y298510D02*
X392417D01*
G01X398500Y308050D02*
Y305050D01*
X401500D01*
G01D02*
Y308050D01*
G01Y310050D02*
Y313050D01*
X398500D01*
Y310050D01*
G01X400800Y309350D02*
X399200D01*
G01X400800Y308750D02*
X399200D01*
G01X404493Y319998D02*
X399993D01*
Y314998D01*
G01D02*
X404493D01*
G01X406493D02*
X410993D01*
Y319998D01*
X406493D01*
G01X405793Y316398D02*
Y318698D01*
G01X405093Y316398D02*
Y318698D01*
G01X433900Y259750D02*
X432300D01*
G01X431600Y259050D02*
Y256050D01*
X434600D01*
G01X433900Y260350D02*
X432300D01*
G01X434600Y261050D02*
Y264050D01*
X431600D01*
Y261050D01*
G01X434600Y256050D02*
Y259050D01*
G01X462012Y268150D02*
Y265150D01*
X465012D01*
G01X464312Y268850D02*
X462712D01*
G01X464312Y269450D02*
X462712D01*
G01X465012Y270150D02*
Y273150D01*
X462012D01*
Y270150D01*
G01X461952Y277300D02*
Y274300D01*
X464952D01*
Y277300D01*
G01X461952Y282300D02*
Y279300D01*
G01X462652Y278600D02*
X464252D01*
G01X462652Y278000D02*
X464252D01*
G01X464952Y279300D02*
Y282300D01*
X461952D01*
G01X465012Y265150D02*
Y268150D01*
G01X466440Y281678D02*
X474440D01*
Y285678D01*
X466440D01*
Y281678D01*
G54D15*
G01X265293Y328944D02*
X272655D01*
G01X265293Y339456D02*
Y328944D01*
G01X263324Y326976D02*
X274624D01*
G01X263324Y341424D02*
Y326976D01*
G01X272655Y339456D02*
X265293D01*
G01X274624Y341424D02*
X263324D01*
G01X272655Y328944D02*
Y339456D01*
G01X274624Y326976D02*
Y341424D01*
G54D16*
G01X131630Y261917D02*
X133550D01*
Y265917D01*
X131630D01*
G01X132398Y263984D02*
X133550D01*
G01X128910Y265917D02*
Y261917D01*
G01X130014Y265917D02*
X127806D01*
G01X126238Y261917D02*
Y265917D01*
G01X124222D02*
Y261917D01*
G01Y263917D02*
X126238D01*
G01X120590Y261917D02*
X122510D01*
Y265917D01*
X120590D01*
G01X121358Y263984D02*
X122510D01*
G01X118830Y261917D02*
Y265917D01*
X117630D01*
X117246Y265717D01*
X117006Y265450D01*
X116910Y264917D01*
X117006Y264384D01*
X117294Y264050D01*
X117630Y263850D01*
X118830D01*
G01X117630D02*
X116910Y261917D01*
G01X115294D02*
Y265917D01*
X113086Y261917D01*
Y265917D01*
G01X109550Y261917D02*
X111470D01*
Y265917D01*
X109550D01*
G01X110318Y263984D02*
X111470D01*
G01X106830Y265917D02*
Y261917D01*
G01X107934Y265917D02*
X105726D01*
G01X122216Y340577D02*
Y344577D01*
X121256D01*
X120872Y344377D01*
X120584Y344110D01*
X120344Y343710D01*
X120152Y343244D01*
X120104Y342577D01*
X120152Y341910D01*
X120344Y341444D01*
X120584Y341044D01*
X120872Y340777D01*
X121256Y340577D01*
X122216D01*
G01X116424Y344244D02*
X116712Y344444D01*
X117048Y344577D01*
X117432D01*
X117864Y344377D01*
X118200Y344044D01*
X118440Y343644D01*
X118632Y342977D01*
X118680Y342377D01*
X118584Y341777D01*
X118440Y341377D01*
X118152Y340977D01*
X117816Y340710D01*
X117480Y340577D01*
X117144D01*
X116808Y340710D01*
X116520Y340910D01*
X116280Y341177D01*
G01X115240Y339244D02*
X112360D01*
G01X111176Y341177D02*
X110888Y340844D01*
X110552Y340644D01*
X110120Y340577D01*
X109688Y340710D01*
X109352Y340977D01*
X109112Y341444D01*
X109064Y341977D01*
X109160Y342510D01*
X109400Y342844D01*
X109736Y343110D01*
X110072Y343177D01*
X110408Y343110D01*
X110840Y342844D01*
X110696Y344577D01*
X109400D01*
G01X107640D02*
X106440Y340577D01*
X105240Y344577D01*
G01X142630Y190050D02*
Y194050D01*
X141430D01*
X141046Y193850D01*
X140806Y193583D01*
X140710Y193050D01*
X140806Y192517D01*
X141094Y192183D01*
X141430Y191983D01*
X142630D01*
G01X141430D02*
X140710Y190050D01*
G01X137030D02*
X138950D01*
Y194050D01*
X137030D01*
G01X137798Y192117D02*
X138950D01*
G01X135318Y190583D02*
X134934Y190250D01*
X134502Y190050D01*
X134118D01*
X133734Y190250D01*
X133446Y190583D01*
X133302Y191050D01*
X133398Y191517D01*
X133638Y191917D01*
X134070Y192183D01*
X134646Y192317D01*
X134982Y192583D01*
X135126Y193050D01*
X135030Y193517D01*
X134790Y193850D01*
X134454Y194050D01*
X134118D01*
X133782Y193917D01*
X133494Y193583D01*
G01X129670Y190050D02*
X131590D01*
Y194050D01*
X129670D01*
G01X130438Y192117D02*
X131590D01*
G01X126950Y194050D02*
Y190050D01*
G01X128054Y194050D02*
X125846D01*
G01X142820Y247580D02*
Y251580D01*
X141668D01*
X141284Y251380D01*
X140996Y250913D01*
X140900Y250380D01*
X140996Y249847D01*
X141236Y249447D01*
X141668Y249247D01*
X142820D01*
G01X138180Y247580D02*
X138564Y247647D01*
X138900Y247913D01*
X139188Y248313D01*
X139380Y248780D01*
X139476Y249313D01*
Y249847D01*
X139380Y250380D01*
X139188Y250847D01*
X138900Y251247D01*
X138564Y251513D01*
X138180Y251580D01*
X137796Y251513D01*
X137460Y251247D01*
X137172Y250847D01*
X136980Y250380D01*
X136884Y249847D01*
Y249313D01*
X136980Y248780D01*
X137172Y248313D01*
X137460Y247913D01*
X137796Y247647D01*
X138180Y247580D01*
G01X135940Y251580D02*
X135268Y247580D01*
X134500Y251580D01*
X133732Y247580D01*
X133060Y251580D01*
G01X129860Y247580D02*
X131780D01*
Y251580D01*
X129860D01*
G01X130628Y249647D02*
X131780D01*
G01X128100Y247580D02*
Y251580D01*
X126900D01*
X126516Y251380D01*
X126276Y251113D01*
X126180Y250580D01*
X126276Y250047D01*
X126564Y249713D01*
X126900Y249513D01*
X128100D01*
G01X126900D02*
X126180Y247580D01*
G01X139740Y410460D02*
X139500Y410060D01*
X139212Y409793D01*
X138876Y409660D01*
X138492Y409793D01*
X138204Y410060D01*
X137916Y410460D01*
X137820Y410993D01*
Y413660D01*
G01X135100D02*
Y409660D01*
G01X136204Y413660D02*
X133996D01*
G01X132620Y409660D02*
X131420Y413660D01*
X130220Y409660D01*
G01X130652Y411060D02*
X132188D01*
G01X127452Y411660D02*
X126492D01*
Y410460D01*
X126780Y410060D01*
X127116Y409793D01*
X127596Y409660D01*
X128076Y409793D01*
X128412Y410060D01*
X128700Y410460D01*
X128892Y410927D01*
X128988Y411460D01*
Y411927D01*
X128892Y412327D01*
X128700Y412793D01*
X128412Y413193D01*
X128124Y413460D01*
X127740Y413660D01*
X127404D01*
X127020Y413527D01*
X126732Y413260D01*
G01X221372Y189983D02*
X221084Y190383D01*
X220748Y190583D01*
X220364Y190650D01*
X219884Y190517D01*
X219548Y190183D01*
X219452Y189783D01*
X219500Y189383D01*
X219692Y189050D01*
X220652Y188383D01*
X221084Y187917D01*
X221372Y187250D01*
X221468Y186650D01*
X219452D01*
G01X220300Y213620D02*
Y217620D01*
X220876Y216820D01*
G01Y213620D02*
X219724D01*
G01X221302Y379623D02*
X221014Y380023D01*
X220678Y380223D01*
X220294Y380290D01*
X219814Y380157D01*
X219478Y379823D01*
X219382Y379423D01*
X219430Y379023D01*
X219622Y378690D01*
X220582Y378023D01*
X221014Y377557D01*
X221302Y376890D01*
X221398Y376290D01*
X219382D01*
G01X220340Y403550D02*
Y407550D01*
X220916Y406750D01*
G01Y403550D02*
X219764D01*
G01X229934Y186610D02*
Y190610D01*
X231710Y187743D01*
X229310D01*
G01X231356Y214420D02*
X231068Y213953D01*
X230684Y213687D01*
X230252Y213620D01*
X229868Y213687D01*
X229484Y214020D01*
X229244Y214420D01*
X229196Y214820D01*
X229292Y215287D01*
X229628Y215620D01*
X229964Y215753D01*
X230396D01*
G01X229964D02*
X229676Y215953D01*
X229436Y216287D01*
X229340Y216687D01*
X229436Y217087D01*
X229676Y217420D01*
X230108Y217620D01*
X230540Y217553D01*
X230972Y217287D01*
G01X229834Y376320D02*
Y380320D01*
X231610Y377453D01*
X229210D01*
G01X231396Y404350D02*
X231108Y403883D01*
X230724Y403617D01*
X230292Y403550D01*
X229908Y403617D01*
X229524Y403950D01*
X229284Y404350D01*
X229236Y404750D01*
X229332Y405217D01*
X229668Y405550D01*
X230004Y405683D01*
X230436D01*
G01X230004D02*
X229716Y405883D01*
X229476Y406217D01*
X229380Y406617D01*
X229476Y407017D01*
X229716Y407350D01*
X230148Y407550D01*
X230580Y407483D01*
X231012Y407217D01*
G01X241452Y182447D02*
X241116Y182913D01*
X240828Y183180D01*
X240444Y183313D01*
X240108Y183180D01*
X239868Y182913D01*
X239676Y182513D01*
X239628Y182047D01*
X239676Y181647D01*
X239868Y181247D01*
X240156Y180913D01*
X240492Y180780D01*
X240876Y180913D01*
X241212Y181313D01*
X241404Y181913D01*
X241452Y182580D01*
X241356Y183447D01*
X241212Y183913D01*
X240972Y184380D01*
X240636Y184713D01*
X240300Y184780D01*
X239964Y184647D01*
X239724Y184313D01*
G01X293504Y281264D02*
X292640Y278597D01*
X291776Y281264D01*
G01X288960Y278597D02*
Y282597D01*
X289536Y281797D01*
G01Y278597D02*
X288384D01*
G01X285280Y278464D02*
X285376Y278530D01*
Y278664D01*
X285280Y278730D01*
X285184Y278664D01*
Y278530D01*
X285280Y278464D01*
G01X281600Y278597D02*
Y282597D01*
X282176Y281797D01*
G01Y278597D02*
X281024D01*
G01X274240Y282597D02*
X274624Y282464D01*
X274912Y282130D01*
X275104Y281730D01*
X275248Y281197D01*
X275296Y280597D01*
X275248Y279997D01*
X275104Y279464D01*
X274912Y279064D01*
X274624Y278730D01*
X274240Y278597D01*
X273856Y278730D01*
X273568Y279064D01*
X273376Y279464D01*
X273232Y279997D01*
X273184Y280597D01*
X273232Y281197D01*
X273376Y281730D01*
X273568Y282130D01*
X273856Y282464D01*
X274240Y282597D01*
G01X270656Y278597D02*
X270560Y279464D01*
X270416Y280197D01*
X270224Y280864D01*
X269984Y281597D01*
X269600Y282597D01*
X271520D01*
G01X267744Y278464D02*
X266016Y282597D01*
G01X263200D02*
X263584Y282464D01*
X263872Y282130D01*
X264064Y281730D01*
X264208Y281197D01*
X264256Y280597D01*
X264208Y279997D01*
X264064Y279464D01*
X263872Y279064D01*
X263584Y278730D01*
X263200Y278597D01*
X262816Y278730D01*
X262528Y279064D01*
X262336Y279464D01*
X262192Y279997D01*
X262144Y280597D01*
X262192Y281197D01*
X262336Y281730D01*
X262528Y282130D01*
X262816Y282464D01*
X263200Y282597D01*
G01X260576Y279397D02*
X260288Y278930D01*
X259904Y278664D01*
X259472Y278597D01*
X259088Y278664D01*
X258704Y278997D01*
X258464Y279397D01*
X258416Y279797D01*
X258512Y280264D01*
X258848Y280597D01*
X259184Y280730D01*
X259616D01*
G01X259184D02*
X258896Y280930D01*
X258656Y281264D01*
X258560Y281664D01*
X258656Y282064D01*
X258896Y282397D01*
X259328Y282597D01*
X259760Y282530D01*
X260192Y282264D01*
G01X256704Y278464D02*
X254976Y282597D01*
G01X253072Y281930D02*
X252784Y282330D01*
X252448Y282530D01*
X252064Y282597D01*
X251584Y282464D01*
X251248Y282130D01*
X251152Y281730D01*
X251200Y281330D01*
X251392Y280997D01*
X252352Y280330D01*
X252784Y279864D01*
X253072Y279197D01*
X253168Y278597D01*
X251152D01*
G01X248480Y282597D02*
X248864Y282464D01*
X249152Y282130D01*
X249344Y281730D01*
X249488Y281197D01*
X249536Y280597D01*
X249488Y279997D01*
X249344Y279464D01*
X249152Y279064D01*
X248864Y278730D01*
X248480Y278597D01*
X248096Y278730D01*
X247808Y279064D01*
X247616Y279464D01*
X247472Y279997D01*
X247424Y280597D01*
X247472Y281197D01*
X247616Y281730D01*
X247808Y282130D01*
X248096Y282464D01*
X248480Y282597D01*
G01X245712Y281930D02*
X245424Y282330D01*
X245088Y282530D01*
X244704Y282597D01*
X244224Y282464D01*
X243888Y282130D01*
X243792Y281730D01*
X243840Y281330D01*
X244032Y280997D01*
X244992Y280330D01*
X245424Y279864D01*
X245712Y279197D01*
X245808Y278597D01*
X243792D01*
G01X242176Y279397D02*
X241888Y278930D01*
X241504Y278664D01*
X241072Y278597D01*
X240688Y278664D01*
X240304Y278997D01*
X240064Y279397D01*
X240016Y279797D01*
X240112Y280264D01*
X240448Y280597D01*
X240784Y280730D01*
X241216D01*
G01X240784D02*
X240496Y280930D01*
X240256Y281264D01*
X240160Y281664D01*
X240256Y282064D01*
X240496Y282397D01*
X240928Y282597D01*
X241360Y282530D01*
X241792Y282264D01*
G01X306933Y291190D02*
X306600Y291490D01*
X306350Y291990D01*
X306183Y292690D01*
X306350Y293290D01*
X306683Y293690D01*
X307267Y293990D01*
X309517D01*
Y287990D01*
X306767D01*
X306183Y288390D01*
X305850Y288990D01*
X305683Y289690D01*
X305850Y290390D01*
X306350Y290990D01*
X306933Y291190D01*
X309517D01*
G01X303350Y290690D02*
X300683D01*
X300933Y291390D01*
X301350Y291790D01*
X301933Y291990D01*
X302517Y291890D01*
X303017Y291590D01*
X303350Y290890D01*
X303517Y290290D01*
Y289690D01*
X303350Y289090D01*
X302933Y288490D01*
X302433Y288090D01*
X301850Y287990D01*
X301267Y288190D01*
X300683Y288790D01*
G01X295100Y287990D02*
Y291990D01*
G01Y291290D02*
X295433Y291690D01*
X295933Y291890D01*
X296517Y291990D01*
X297100Y291790D01*
X297600Y291390D01*
X297933Y290790D01*
X298100Y289990D01*
X297933Y289190D01*
X297600Y288590D01*
X297100Y288190D01*
X296517Y287990D01*
X295933Y288090D01*
X295433Y288390D01*
X295100Y288790D01*
G01X292267Y286490D02*
X291683Y286090D01*
X291017Y285990D01*
X290433Y286090D01*
X289933Y286590D01*
X289600Y287290D01*
Y291990D01*
G01Y291190D02*
X289933Y291590D01*
X290433Y291890D01*
X291017Y291990D01*
X291683Y291790D01*
X292100Y291390D01*
X292433Y290690D01*
X292600Y289990D01*
X292517Y289390D01*
X292183Y288690D01*
X291683Y288190D01*
X291017Y287990D01*
X290517Y288090D01*
X289933Y288490D01*
X289600Y288890D01*
G01X285600Y287990D02*
Y293990D01*
G01X281350Y290690D02*
X278683D01*
X278933Y291390D01*
X279350Y291790D01*
X279933Y291990D01*
X280517Y291890D01*
X281017Y291590D01*
X281350Y290890D01*
X281517Y290290D01*
Y289690D01*
X281350Y289090D01*
X280933Y288490D01*
X280433Y288090D01*
X279850Y287990D01*
X279267Y288190D01*
X278683Y288790D01*
G01X276683Y293990D02*
X274600Y287990D01*
X272517Y293990D01*
G01X270183Y289990D02*
X268017D01*
G01X265683Y287990D02*
X263600Y293990D01*
X261517Y287990D01*
G01X262267Y290090D02*
X264933D01*
G01X259517Y287990D02*
Y293990D01*
G01Y291090D02*
X259100Y291590D01*
X258683Y291890D01*
X258017Y291990D01*
X257517Y291890D01*
X256933Y291490D01*
X256683Y290890D01*
Y287990D01*
G01X253850Y290690D02*
X251183D01*
X251433Y291390D01*
X251850Y291790D01*
X252433Y291990D01*
X253017Y291890D01*
X253517Y291590D01*
X253850Y290890D01*
X254017Y290290D01*
Y289690D01*
X253850Y289090D01*
X253433Y288490D01*
X252933Y288090D01*
X252350Y287990D01*
X251767Y288190D01*
X251183Y288790D01*
G01X245600Y287990D02*
Y291990D01*
G01Y291290D02*
X245933Y291690D01*
X246433Y291890D01*
X247017Y291990D01*
X247600Y291790D01*
X248100Y291390D01*
X248433Y290790D01*
X248600Y289990D01*
X248433Y289190D01*
X248100Y288590D01*
X247600Y288190D01*
X247017Y287990D01*
X246433Y288090D01*
X245933Y288390D01*
X245600Y288790D01*
G01X240100Y293990D02*
Y287990D01*
G01Y288890D02*
X240433Y288390D01*
X240933Y288090D01*
X241517Y287990D01*
X242183Y288190D01*
X242683Y288690D01*
X243017Y289290D01*
X243100Y289990D01*
X243017Y290690D01*
X242683Y291290D01*
X242183Y291790D01*
X241517Y291990D01*
X240933Y291890D01*
X240517Y291690D01*
X240100Y291290D01*
G01X241346Y410280D02*
X241058Y409947D01*
X240722Y409747D01*
X240290Y409680D01*
X239858Y409813D01*
X239522Y410080D01*
X239282Y410547D01*
X239234Y411080D01*
X239330Y411613D01*
X239570Y411947D01*
X239906Y412213D01*
X240242Y412280D01*
X240578Y412213D01*
X241010Y411947D01*
X240866Y413680D01*
X239570D01*
G01X250590Y180740D02*
X250254Y180807D01*
X249870Y181007D01*
X249630Y181340D01*
X249534Y181807D01*
X249630Y182273D01*
X249918Y182673D01*
X250350Y182873D01*
X250830D01*
X251118Y183007D01*
X251358Y183340D01*
X251454Y183807D01*
X251310Y184273D01*
X250974Y184607D01*
X250590Y184740D01*
X250206Y184607D01*
X249870Y184273D01*
X249726Y183807D01*
X249822Y183340D01*
X250062Y183007D01*
X250350Y182873D01*
X250830D01*
X251262Y182673D01*
X251550Y182273D01*
X251646Y181807D01*
X251550Y181340D01*
X251310Y181007D01*
X250926Y180807D01*
X250590Y180740D01*
G01X250436Y409640D02*
X250340Y410507D01*
X250196Y411240D01*
X250004Y411907D01*
X249764Y412640D01*
X249380Y413640D01*
X251300D01*
G01X262350Y180700D02*
Y184700D01*
X262926Y183900D01*
G01Y180700D02*
X261774D01*
G01X258670Y184700D02*
X259054Y184567D01*
X259342Y184233D01*
X259534Y183833D01*
X259678Y183300D01*
X259726Y182700D01*
X259678Y182100D01*
X259534Y181567D01*
X259342Y181167D01*
X259054Y180833D01*
X258670Y180700D01*
X258286Y180833D01*
X257998Y181167D01*
X257806Y181567D01*
X257662Y182100D01*
X257614Y182700D01*
X257662Y183300D01*
X257806Y183833D01*
X257998Y184233D01*
X258286Y184567D01*
X258670Y184700D01*
G01X261056Y410067D02*
X260720Y409733D01*
X260336Y409600D01*
X259952Y409733D01*
X259616Y410133D01*
X259376Y410733D01*
X259280Y411333D01*
Y412067D01*
X259376Y412667D01*
X259616Y413200D01*
X259904Y413467D01*
X260240Y413600D01*
X260624Y413467D01*
X260912Y413200D01*
X261104Y412800D01*
X261200Y412267D01*
X261104Y411800D01*
X260864Y411333D01*
X260576Y411067D01*
X260240Y411000D01*
X259856Y411133D01*
X259568Y411467D01*
X259280Y412067D01*
G01X272400Y180660D02*
Y184660D01*
X272976Y183860D01*
G01Y180660D02*
X271824D01*
G01X269632Y183993D02*
X269344Y184393D01*
X269008Y184593D01*
X268624Y184660D01*
X268144Y184527D01*
X267808Y184193D01*
X267712Y183793D01*
X267760Y183393D01*
X267952Y183060D01*
X268912Y182393D01*
X269344Y181927D01*
X269632Y181260D01*
X269728Y180660D01*
X267712D01*
G01X272150Y409560D02*
Y413560D01*
X272726Y412760D01*
G01Y409560D02*
X271574D01*
G01X268470D02*
Y413560D01*
X269046Y412760D01*
G01Y409560D02*
X267894D01*
G01X282350Y180700D02*
Y184700D01*
X282926Y183900D01*
G01Y180700D02*
X281774D01*
G01X278094D02*
Y184700D01*
X279870Y181833D01*
X277470D01*
G01X282100Y409600D02*
Y413600D01*
X282676Y412800D01*
G01Y409600D02*
X281524D01*
G01X279476Y410400D02*
X279188Y409933D01*
X278804Y409667D01*
X278372Y409600D01*
X277988Y409667D01*
X277604Y410000D01*
X277364Y410400D01*
X277316Y410800D01*
X277412Y411267D01*
X277748Y411600D01*
X278084Y411733D01*
X278516D01*
G01X278084D02*
X277796Y411933D01*
X277556Y412267D01*
X277460Y412667D01*
X277556Y413067D01*
X277796Y413400D01*
X278228Y413600D01*
X278660Y413533D01*
X279092Y413267D01*
G01X292400Y180660D02*
Y184660D01*
X292976Y183860D01*
G01Y180660D02*
X291824D01*
G01X289632Y182327D02*
X289296Y182793D01*
X289008Y183060D01*
X288624Y183193D01*
X288288Y183060D01*
X288048Y182793D01*
X287856Y182393D01*
X287808Y181927D01*
X287856Y181527D01*
X288048Y181127D01*
X288336Y180793D01*
X288672Y180660D01*
X289056Y180793D01*
X289392Y181193D01*
X289584Y181793D01*
X289632Y182460D01*
X289536Y183327D01*
X289392Y183793D01*
X289152Y184260D01*
X288816Y184593D01*
X288480Y184660D01*
X288144Y184527D01*
X287904Y184193D01*
G01X303296Y221810D02*
Y225810D01*
X302336D01*
X301952Y225610D01*
X301664Y225343D01*
X301424Y224943D01*
X301232Y224477D01*
X301184Y223810D01*
X301232Y223143D01*
X301424Y222677D01*
X301664Y222277D01*
X301952Y222010D01*
X302336Y221810D01*
X303296D01*
G01X299280Y223610D02*
X297744D01*
X297888Y224077D01*
X298128Y224343D01*
X298464Y224477D01*
X298800Y224410D01*
X299088Y224210D01*
X299280Y223743D01*
X299376Y223343D01*
Y222943D01*
X299280Y222543D01*
X299040Y222143D01*
X298752Y221877D01*
X298416Y221810D01*
X298080Y221943D01*
X297744Y222343D01*
G01X295744Y221810D02*
Y225810D01*
G01Y223810D02*
X295504Y224210D01*
X295216Y224410D01*
X294928Y224477D01*
X294496Y224343D01*
X294208Y224077D01*
X294016Y223610D01*
Y223077D01*
X294112Y222543D01*
X294304Y222143D01*
X294640Y221877D01*
X294928Y221810D01*
X295216Y221877D01*
X295504Y222077D01*
X295744Y222410D01*
G01X292016Y224477D02*
Y222610D01*
X291824Y222143D01*
X291536Y221877D01*
X291200Y221810D01*
X290864Y221877D01*
X290576Y222143D01*
X290384Y222610D01*
G01Y221810D02*
Y224477D01*
G01X288192Y220810D02*
X287856Y220543D01*
X287472Y220477D01*
X287136Y220543D01*
X286848Y220877D01*
X286656Y221343D01*
Y224477D01*
G01Y223943D02*
X286848Y224210D01*
X287136Y224410D01*
X287472Y224477D01*
X287856Y224343D01*
X288096Y224077D01*
X288288Y223610D01*
X288384Y223143D01*
X288336Y222743D01*
X288144Y222277D01*
X287856Y221943D01*
X287472Y221810D01*
X287184Y221877D01*
X286848Y222143D01*
X286656Y222410D01*
G01X292150Y409560D02*
Y413560D01*
X292726Y412760D01*
G01Y409560D02*
X291574D01*
G01X289526Y410160D02*
X289238Y409827D01*
X288902Y409627D01*
X288470Y409560D01*
X288038Y409693D01*
X287702Y409960D01*
X287462Y410427D01*
X287414Y410960D01*
X287510Y411493D01*
X287750Y411827D01*
X288086Y412093D01*
X288422Y412160D01*
X288758Y412093D01*
X289190Y411827D01*
X289046Y413560D01*
X287750D01*
G01X302350Y180700D02*
Y184700D01*
X302926Y183900D01*
G01Y180700D02*
X301774D01*
G01X298670D02*
X298334Y180767D01*
X297950Y180967D01*
X297710Y181300D01*
X297614Y181767D01*
X297710Y182233D01*
X297998Y182633D01*
X298430Y182833D01*
X298910D01*
X299198Y182967D01*
X299438Y183300D01*
X299534Y183767D01*
X299390Y184233D01*
X299054Y184567D01*
X298670Y184700D01*
X298286Y184567D01*
X297950Y184233D01*
X297806Y183767D01*
X297902Y183300D01*
X298142Y182967D01*
X298430Y182833D01*
X298910D01*
X299342Y182633D01*
X299630Y182233D01*
X299726Y181767D01*
X299630Y181300D01*
X299390Y180967D01*
X299006Y180767D01*
X298670Y180700D01*
G01X302100Y409600D02*
Y413600D01*
X302676Y412800D01*
G01Y409600D02*
X301524D01*
G01X298516D02*
X298420Y410467D01*
X298276Y411200D01*
X298084Y411867D01*
X297844Y412600D01*
X297460Y413600D01*
X299380D01*
G01X313312Y183993D02*
X313024Y184393D01*
X312688Y184593D01*
X312304Y184660D01*
X311824Y184527D01*
X311488Y184193D01*
X311392Y183793D01*
X311440Y183393D01*
X311632Y183060D01*
X312592Y182393D01*
X313024Y181927D01*
X313312Y181260D01*
X313408Y180660D01*
X311392D01*
G01X308720Y184660D02*
X309104Y184527D01*
X309392Y184193D01*
X309584Y183793D01*
X309728Y183260D01*
X309776Y182660D01*
X309728Y182060D01*
X309584Y181527D01*
X309392Y181127D01*
X309104Y180793D01*
X308720Y180660D01*
X308336Y180793D01*
X308048Y181127D01*
X307856Y181527D01*
X307712Y182060D01*
X307664Y182660D01*
X307712Y183260D01*
X307856Y183793D01*
X308048Y184193D01*
X308336Y184527D01*
X308720Y184660D01*
G01X308480Y230066D02*
X312480D01*
X308480Y232274D01*
X312480D01*
G01X312147Y235906D02*
X312347Y235618D01*
X312480Y235282D01*
Y234898D01*
X312280Y234466D01*
X311947Y234130D01*
X311547Y233890D01*
X310880Y233698D01*
X310280Y233650D01*
X309680Y233746D01*
X309280Y233890D01*
X308880Y234178D01*
X308613Y234514D01*
X308480Y234850D01*
Y235186D01*
X308613Y235522D01*
X308813Y235810D01*
X309080Y236050D01*
G01X312150Y409560D02*
Y413560D01*
X312726Y412760D01*
G01Y409560D02*
X311574D01*
G01X309286Y410027D02*
X308950Y409693D01*
X308566Y409560D01*
X308182Y409693D01*
X307846Y410093D01*
X307606Y410693D01*
X307510Y411293D01*
Y412027D01*
X307606Y412627D01*
X307846Y413160D01*
X308134Y413427D01*
X308470Y413560D01*
X308854Y413427D01*
X309142Y413160D01*
X309334Y412760D01*
X309430Y412227D01*
X309334Y411760D01*
X309094Y411293D01*
X308806Y411027D01*
X308470Y410960D01*
X308086Y411093D01*
X307798Y411427D01*
X307510Y412027D01*
G01X323262Y184033D02*
X322974Y184433D01*
X322638Y184633D01*
X322254Y184700D01*
X321774Y184567D01*
X321438Y184233D01*
X321342Y183833D01*
X321390Y183433D01*
X321582Y183100D01*
X322542Y182433D01*
X322974Y181967D01*
X323262Y181300D01*
X323358Y180700D01*
X321342D01*
G01X319582Y184033D02*
X319294Y184433D01*
X318958Y184633D01*
X318574Y184700D01*
X318094Y184567D01*
X317758Y184233D01*
X317662Y183833D01*
X317710Y183433D01*
X317902Y183100D01*
X318862Y182433D01*
X319294Y181967D01*
X319582Y181300D01*
X319678Y180700D01*
X317662D01*
G01X322410Y231250D02*
X318410D01*
G01X322410Y230146D02*
Y232354D01*
G01X318410Y233922D02*
X322410Y235938D01*
G01Y233922D02*
X318410Y235938D01*
G01X323012Y412933D02*
X322724Y413333D01*
X322388Y413533D01*
X322004Y413600D01*
X321524Y413467D01*
X321188Y413133D01*
X321092Y412733D01*
X321140Y412333D01*
X321332Y412000D01*
X322292Y411333D01*
X322724Y410867D01*
X323012Y410200D01*
X323108Y409600D01*
X321092D01*
G01X318420D02*
Y413600D01*
X318996Y412800D01*
G01Y409600D02*
X317844D01*
G01X333312Y183993D02*
X333024Y184393D01*
X332688Y184593D01*
X332304Y184660D01*
X331824Y184527D01*
X331488Y184193D01*
X331392Y183793D01*
X331440Y183393D01*
X331632Y183060D01*
X332592Y182393D01*
X333024Y181927D01*
X333312Y181260D01*
X333408Y180660D01*
X331392D01*
G01X328144D02*
Y184660D01*
X329920Y181793D01*
X327520D01*
G01X327860Y230600D02*
X331860D01*
Y231800D01*
X331660Y232184D01*
X331393Y232424D01*
X330860Y232520D01*
X330327Y232424D01*
X329993Y232136D01*
X329793Y231800D01*
Y230600D01*
G01Y231800D02*
X327860Y232520D01*
G01Y234232D02*
X331860Y236248D01*
G01Y234232D02*
X327860Y236248D01*
G01X333062Y412893D02*
X332774Y413293D01*
X332438Y413493D01*
X332054Y413560D01*
X331574Y413427D01*
X331238Y413093D01*
X331142Y412693D01*
X331190Y412293D01*
X331382Y411960D01*
X332342Y411293D01*
X332774Y410827D01*
X333062Y410160D01*
X333158Y409560D01*
X331142D01*
G01X329526Y410360D02*
X329238Y409893D01*
X328854Y409627D01*
X328422Y409560D01*
X328038Y409627D01*
X327654Y409960D01*
X327414Y410360D01*
X327366Y410760D01*
X327462Y411227D01*
X327798Y411560D01*
X328134Y411693D01*
X328566D01*
G01X328134D02*
X327846Y411893D01*
X327606Y412227D01*
X327510Y412627D01*
X327606Y413027D01*
X327846Y413360D01*
X328278Y413560D01*
X328710Y413493D01*
X329142Y413227D01*
G01X343262Y184033D02*
X342974Y184433D01*
X342638Y184633D01*
X342254Y184700D01*
X341774Y184567D01*
X341438Y184233D01*
X341342Y183833D01*
X341390Y183433D01*
X341582Y183100D01*
X342542Y182433D01*
X342974Y181967D01*
X343262Y181300D01*
X343358Y180700D01*
X341342D01*
G01X339582Y182367D02*
X339246Y182833D01*
X338958Y183100D01*
X338574Y183233D01*
X338238Y183100D01*
X337998Y182833D01*
X337806Y182433D01*
X337758Y181967D01*
X337806Y181567D01*
X337998Y181167D01*
X338286Y180833D01*
X338622Y180700D01*
X339006Y180833D01*
X339342Y181233D01*
X339534Y181833D01*
X339582Y182500D01*
X339486Y183367D01*
X339342Y183833D01*
X339102Y184300D01*
X338766Y184633D01*
X338430Y184700D01*
X338094Y184567D01*
X337854Y184233D01*
G01X337630Y230526D02*
X341630D01*
X337630Y232734D01*
X341630D01*
G01X341297Y236366D02*
X341497Y236078D01*
X341630Y235742D01*
Y235358D01*
X341430Y234926D01*
X341097Y234590D01*
X340697Y234350D01*
X340030Y234158D01*
X339430Y234110D01*
X338830Y234206D01*
X338430Y234350D01*
X338030Y234638D01*
X337763Y234974D01*
X337630Y235310D01*
Y235646D01*
X337763Y235982D01*
X337963Y236270D01*
X338230Y236510D01*
G01X343012Y412933D02*
X342724Y413333D01*
X342388Y413533D01*
X342004Y413600D01*
X341524Y413467D01*
X341188Y413133D01*
X341092Y412733D01*
X341140Y412333D01*
X341332Y412000D01*
X342292Y411333D01*
X342724Y410867D01*
X343012Y410200D01*
X343108Y409600D01*
X341092D01*
G01X339476Y410200D02*
X339188Y409867D01*
X338852Y409667D01*
X338420Y409600D01*
X337988Y409733D01*
X337652Y410000D01*
X337412Y410467D01*
X337364Y411000D01*
X337460Y411533D01*
X337700Y411867D01*
X338036Y412133D01*
X338372Y412200D01*
X338708Y412133D01*
X339140Y411867D01*
X338996Y413600D01*
X337700D01*
G01X353312Y183993D02*
X353024Y184393D01*
X352688Y184593D01*
X352304Y184660D01*
X351824Y184527D01*
X351488Y184193D01*
X351392Y183793D01*
X351440Y183393D01*
X351632Y183060D01*
X352592Y182393D01*
X353024Y181927D01*
X353312Y181260D01*
X353408Y180660D01*
X351392D01*
G01X348720D02*
X348384Y180727D01*
X348000Y180927D01*
X347760Y181260D01*
X347664Y181727D01*
X347760Y182193D01*
X348048Y182593D01*
X348480Y182793D01*
X348960D01*
X349248Y182927D01*
X349488Y183260D01*
X349584Y183727D01*
X349440Y184193D01*
X349104Y184527D01*
X348720Y184660D01*
X348336Y184527D01*
X348000Y184193D01*
X347856Y183727D01*
X347952Y183260D01*
X348192Y182927D01*
X348480Y182793D01*
X348960D01*
X349392Y182593D01*
X349680Y182193D01*
X349776Y181727D01*
X349680Y181260D01*
X349440Y180927D01*
X349056Y180727D01*
X348720Y180660D01*
G01X348200Y230626D02*
X352200D01*
X348200Y232834D01*
X352200D01*
G01X351867Y236466D02*
X352067Y236178D01*
X352200Y235842D01*
Y235458D01*
X352000Y235026D01*
X351667Y234690D01*
X351267Y234450D01*
X350600Y234258D01*
X350000Y234210D01*
X349400Y234306D01*
X349000Y234450D01*
X348600Y234738D01*
X348333Y235074D01*
X348200Y235410D01*
Y235746D01*
X348333Y236082D01*
X348533Y236370D01*
X348800Y236610D01*
G01X353062Y412893D02*
X352774Y413293D01*
X352438Y413493D01*
X352054Y413560D01*
X351574Y413427D01*
X351238Y413093D01*
X351142Y412693D01*
X351190Y412293D01*
X351382Y411960D01*
X352342Y411293D01*
X352774Y410827D01*
X353062Y410160D01*
X353158Y409560D01*
X351142D01*
G01X348566D02*
X348470Y410427D01*
X348326Y411160D01*
X348134Y411827D01*
X347894Y412560D01*
X347510Y413560D01*
X349430D01*
G01X363406Y181500D02*
X363118Y181033D01*
X362734Y180767D01*
X362302Y180700D01*
X361918Y180767D01*
X361534Y181100D01*
X361294Y181500D01*
X361246Y181900D01*
X361342Y182367D01*
X361678Y182700D01*
X362014Y182833D01*
X362446D01*
G01X362014D02*
X361726Y183033D01*
X361486Y183367D01*
X361390Y183767D01*
X361486Y184167D01*
X361726Y184500D01*
X362158Y184700D01*
X362590Y184633D01*
X363022Y184367D01*
G01X358670Y184700D02*
X359054Y184567D01*
X359342Y184233D01*
X359534Y183833D01*
X359678Y183300D01*
X359726Y182700D01*
X359678Y182100D01*
X359534Y181567D01*
X359342Y181167D01*
X359054Y180833D01*
X358670Y180700D01*
X358286Y180833D01*
X357998Y181167D01*
X357806Y181567D01*
X357662Y182100D01*
X357614Y182700D01*
X357662Y183300D01*
X357806Y183833D01*
X357998Y184233D01*
X358286Y184567D01*
X358670Y184700D01*
G01X359850Y231778D02*
Y232738D01*
X358650D01*
X358250Y232450D01*
X357983Y232114D01*
X357850Y231634D01*
X357983Y231154D01*
X358250Y230818D01*
X358650Y230530D01*
X359117Y230338D01*
X359650Y230242D01*
X360117D01*
X360517Y230338D01*
X360983Y230530D01*
X361383Y230818D01*
X361650Y231106D01*
X361850Y231490D01*
Y231826D01*
X361717Y232210D01*
X361450Y232498D01*
G01X357850Y234066D02*
X361850D01*
X357850Y236274D01*
X361850D01*
G01X357850Y237794D02*
X361850D01*
Y238754D01*
X361650Y239138D01*
X361383Y239426D01*
X360983Y239666D01*
X360517Y239858D01*
X359850Y239906D01*
X359183Y239858D01*
X358717Y239666D01*
X358317Y239426D01*
X358050Y239138D01*
X357850Y238754D01*
Y237794D01*
G01X363012Y412933D02*
X362724Y413333D01*
X362388Y413533D01*
X362004Y413600D01*
X361524Y413467D01*
X361188Y413133D01*
X361092Y412733D01*
X361140Y412333D01*
X361332Y412000D01*
X362292Y411333D01*
X362724Y410867D01*
X363012Y410200D01*
X363108Y409600D01*
X361092D01*
G01X359236Y410067D02*
X358900Y409733D01*
X358516Y409600D01*
X358132Y409733D01*
X357796Y410133D01*
X357556Y410733D01*
X357460Y411333D01*
Y412067D01*
X357556Y412667D01*
X357796Y413200D01*
X358084Y413467D01*
X358420Y413600D01*
X358804Y413467D01*
X359092Y413200D01*
X359284Y412800D01*
X359380Y412267D01*
X359284Y411800D01*
X359044Y411333D01*
X358756Y411067D01*
X358420Y411000D01*
X358036Y411133D01*
X357748Y411467D01*
X357460Y412067D01*
G01X373456Y181460D02*
X373168Y180993D01*
X372784Y180727D01*
X372352Y180660D01*
X371968Y180727D01*
X371584Y181060D01*
X371344Y181460D01*
X371296Y181860D01*
X371392Y182327D01*
X371728Y182660D01*
X372064Y182793D01*
X372496D01*
G01X372064D02*
X371776Y182993D01*
X371536Y183327D01*
X371440Y183727D01*
X371536Y184127D01*
X371776Y184460D01*
X372208Y184660D01*
X372640Y184593D01*
X373072Y184327D01*
G01X369632Y183993D02*
X369344Y184393D01*
X369008Y184593D01*
X368624Y184660D01*
X368144Y184527D01*
X367808Y184193D01*
X367712Y183793D01*
X367760Y183393D01*
X367952Y183060D01*
X368912Y182393D01*
X369344Y181927D01*
X369632Y181260D01*
X369728Y180660D01*
X367712D01*
G01X373206Y410360D02*
X372918Y409893D01*
X372534Y409627D01*
X372102Y409560D01*
X371718Y409627D01*
X371334Y409960D01*
X371094Y410360D01*
X371046Y410760D01*
X371142Y411227D01*
X371478Y411560D01*
X371814Y411693D01*
X372246D01*
G01X371814D02*
X371526Y411893D01*
X371286Y412227D01*
X371190Y412627D01*
X371286Y413027D01*
X371526Y413360D01*
X371958Y413560D01*
X372390Y413493D01*
X372822Y413227D01*
G01X368470Y409560D02*
Y413560D01*
X369046Y412760D01*
G01Y409560D02*
X367894D01*
G01X372070Y219830D02*
X376070Y221030D01*
X372070Y222230D01*
G01X373470Y221798D02*
Y220262D01*
G01X372070Y223750D02*
X376070D01*
Y224950D01*
X375870Y225334D01*
X375603Y225574D01*
X375070Y225670D01*
X374537Y225574D01*
X374203Y225286D01*
X374003Y224950D01*
Y223750D01*
G01Y224950D02*
X372070Y225670D01*
G01Y227382D02*
X376070Y229398D01*
G01Y227382D02*
X372070Y229398D01*
G01X383406Y181500D02*
X383118Y181033D01*
X382734Y180767D01*
X382302Y180700D01*
X381918Y180767D01*
X381534Y181100D01*
X381294Y181500D01*
X381246Y181900D01*
X381342Y182367D01*
X381678Y182700D01*
X382014Y182833D01*
X382446D01*
G01X382014D02*
X381726Y183033D01*
X381486Y183367D01*
X381390Y183767D01*
X381486Y184167D01*
X381726Y184500D01*
X382158Y184700D01*
X382590Y184633D01*
X383022Y184367D01*
G01X378094Y180700D02*
Y184700D01*
X379870Y181833D01*
X377470D01*
G01X383156Y410400D02*
X382868Y409933D01*
X382484Y409667D01*
X382052Y409600D01*
X381668Y409667D01*
X381284Y410000D01*
X381044Y410400D01*
X380996Y410800D01*
X381092Y411267D01*
X381428Y411600D01*
X381764Y411733D01*
X382196D01*
G01X381764D02*
X381476Y411933D01*
X381236Y412267D01*
X381140Y412667D01*
X381236Y413067D01*
X381476Y413400D01*
X381908Y413600D01*
X382340Y413533D01*
X382772Y413267D01*
G01X379476Y410400D02*
X379188Y409933D01*
X378804Y409667D01*
X378372Y409600D01*
X377988Y409667D01*
X377604Y410000D01*
X377364Y410400D01*
X377316Y410800D01*
X377412Y411267D01*
X377748Y411600D01*
X378084Y411733D01*
X378516D01*
G01X378084D02*
X377796Y411933D01*
X377556Y412267D01*
X377460Y412667D01*
X377556Y413067D01*
X377796Y413400D01*
X378228Y413600D01*
X378660Y413533D01*
X379092Y413267D01*
G01X382260Y219740D02*
X386260Y220940D01*
X382260Y222140D01*
G01X383660Y221708D02*
Y220172D01*
G01X386260Y224620D02*
X382260D01*
G01X386260Y223516D02*
Y225724D01*
G01X382260Y227292D02*
X386260Y229308D01*
G01Y227292D02*
X382260Y229308D01*
G01X393456Y181460D02*
X393168Y180993D01*
X392784Y180727D01*
X392352Y180660D01*
X391968Y180727D01*
X391584Y181060D01*
X391344Y181460D01*
X391296Y181860D01*
X391392Y182327D01*
X391728Y182660D01*
X392064Y182793D01*
X392496D01*
G01X392064D02*
X391776Y182993D01*
X391536Y183327D01*
X391440Y183727D01*
X391536Y184127D01*
X391776Y184460D01*
X392208Y184660D01*
X392640Y184593D01*
X393072Y184327D01*
G01X389632Y182327D02*
X389296Y182793D01*
X389008Y183060D01*
X388624Y183193D01*
X388288Y183060D01*
X388048Y182793D01*
X387856Y182393D01*
X387808Y181927D01*
X387856Y181527D01*
X388048Y181127D01*
X388336Y180793D01*
X388672Y180660D01*
X389056Y180793D01*
X389392Y181193D01*
X389584Y181793D01*
X389632Y182460D01*
X389536Y183327D01*
X389392Y183793D01*
X389152Y184260D01*
X388816Y184593D01*
X388480Y184660D01*
X388144Y184527D01*
X387904Y184193D01*
G01X393206Y410360D02*
X392918Y409893D01*
X392534Y409627D01*
X392102Y409560D01*
X391718Y409627D01*
X391334Y409960D01*
X391094Y410360D01*
X391046Y410760D01*
X391142Y411227D01*
X391478Y411560D01*
X391814Y411693D01*
X392246D01*
G01X391814D02*
X391526Y411893D01*
X391286Y412227D01*
X391190Y412627D01*
X391286Y413027D01*
X391526Y413360D01*
X391958Y413560D01*
X392390Y413493D01*
X392822Y413227D01*
G01X389526Y410160D02*
X389238Y409827D01*
X388902Y409627D01*
X388470Y409560D01*
X388038Y409693D01*
X387702Y409960D01*
X387462Y410427D01*
X387414Y410960D01*
X387510Y411493D01*
X387750Y411827D01*
X388086Y412093D01*
X388422Y412160D01*
X388758Y412093D01*
X389190Y411827D01*
X389046Y413560D01*
X387750D01*
G01X403406Y181500D02*
X403118Y181033D01*
X402734Y180767D01*
X402302Y180700D01*
X401918Y180767D01*
X401534Y181100D01*
X401294Y181500D01*
X401246Y181900D01*
X401342Y182367D01*
X401678Y182700D01*
X402014Y182833D01*
X402446D01*
G01X402014D02*
X401726Y183033D01*
X401486Y183367D01*
X401390Y183767D01*
X401486Y184167D01*
X401726Y184500D01*
X402158Y184700D01*
X402590Y184633D01*
X403022Y184367D01*
G01X398670Y180700D02*
X398334Y180767D01*
X397950Y180967D01*
X397710Y181300D01*
X397614Y181767D01*
X397710Y182233D01*
X397998Y182633D01*
X398430Y182833D01*
X398910D01*
X399198Y182967D01*
X399438Y183300D01*
X399534Y183767D01*
X399390Y184233D01*
X399054Y184567D01*
X398670Y184700D01*
X398286Y184567D01*
X397950Y184233D01*
X397806Y183767D01*
X397902Y183300D01*
X398142Y182967D01*
X398430Y182833D01*
X398910D01*
X399342Y182633D01*
X399630Y182233D01*
X399726Y181767D01*
X399630Y181300D01*
X399390Y180967D01*
X399006Y180767D01*
X398670Y180700D01*
G01X403156Y410400D02*
X402868Y409933D01*
X402484Y409667D01*
X402052Y409600D01*
X401668Y409667D01*
X401284Y410000D01*
X401044Y410400D01*
X400996Y410800D01*
X401092Y411267D01*
X401428Y411600D01*
X401764Y411733D01*
X402196D01*
G01X401764D02*
X401476Y411933D01*
X401236Y412267D01*
X401140Y412667D01*
X401236Y413067D01*
X401476Y413400D01*
X401908Y413600D01*
X402340Y413533D01*
X402772Y413267D01*
G01X398516Y409600D02*
X398420Y410467D01*
X398276Y411200D01*
X398084Y411867D01*
X397844Y412600D01*
X397460Y413600D01*
X399380D01*
G01X411824Y180660D02*
Y184660D01*
X413600Y181793D01*
X411200D01*
G01X408720Y184660D02*
X409104Y184527D01*
X409392Y184193D01*
X409584Y183793D01*
X409728Y183260D01*
X409776Y182660D01*
X409728Y182060D01*
X409584Y181527D01*
X409392Y181127D01*
X409104Y180793D01*
X408720Y180660D01*
X408336Y180793D01*
X408048Y181127D01*
X407856Y181527D01*
X407712Y182060D01*
X407664Y182660D01*
X407712Y183260D01*
X407856Y183793D01*
X408048Y184193D01*
X408336Y184527D01*
X408720Y184660D01*
G01X413206Y410360D02*
X412918Y409893D01*
X412534Y409627D01*
X412102Y409560D01*
X411718Y409627D01*
X411334Y409960D01*
X411094Y410360D01*
X411046Y410760D01*
X411142Y411227D01*
X411478Y411560D01*
X411814Y411693D01*
X412246D01*
G01X411814D02*
X411526Y411893D01*
X411286Y412227D01*
X411190Y412627D01*
X411286Y413027D01*
X411526Y413360D01*
X411958Y413560D01*
X412390Y413493D01*
X412822Y413227D01*
G01X409286Y410027D02*
X408950Y409693D01*
X408566Y409560D01*
X408182Y409693D01*
X407846Y410093D01*
X407606Y410693D01*
X407510Y411293D01*
Y412027D01*
X407606Y412627D01*
X407846Y413160D01*
X408134Y413427D01*
X408470Y413560D01*
X408854Y413427D01*
X409142Y413160D01*
X409334Y412760D01*
X409430Y412227D01*
X409334Y411760D01*
X409094Y411293D01*
X408806Y411027D01*
X408470Y410960D01*
X408086Y411093D01*
X407798Y411427D01*
X407510Y412027D01*
G01X421774Y180700D02*
Y184700D01*
X423550Y181833D01*
X421150D01*
G01X419582Y184033D02*
X419294Y184433D01*
X418958Y184633D01*
X418574Y184700D01*
X418094Y184567D01*
X417758Y184233D01*
X417662Y183833D01*
X417710Y183433D01*
X417902Y183100D01*
X418862Y182433D01*
X419294Y181967D01*
X419582Y181300D01*
X419678Y180700D01*
X417662D01*
G01X421524Y409600D02*
Y413600D01*
X423300Y410733D01*
X420900D01*
G01X418420Y409600D02*
Y413600D01*
X418996Y412800D01*
G01Y409600D02*
X417844D01*
G01X431644Y185520D02*
Y189520D01*
X433420Y186653D01*
X431020D01*
G01X427964Y185520D02*
Y189520D01*
X429740Y186653D01*
X427340D01*
G01X431614Y213850D02*
Y217850D01*
X433390Y214983D01*
X430990D01*
G01X429566Y214650D02*
X429278Y214183D01*
X428894Y213917D01*
X428462Y213850D01*
X428078Y213917D01*
X427694Y214250D01*
X427454Y214650D01*
X427406Y215050D01*
X427502Y215517D01*
X427838Y215850D01*
X428174Y215983D01*
X428606D01*
G01X428174D02*
X427886Y216183D01*
X427646Y216517D01*
X427550Y216917D01*
X427646Y217317D01*
X427886Y217650D01*
X428318Y217850D01*
X428750Y217783D01*
X429182Y217517D01*
G01X431874Y375210D02*
Y379210D01*
X433650Y376343D01*
X431250D01*
G01X428194Y375210D02*
Y379210D01*
X429970Y376343D01*
X427570D01*
G01X431534Y403850D02*
Y407850D01*
X433310Y404983D01*
X430910D01*
G01X429486Y404650D02*
X429198Y404183D01*
X428814Y403917D01*
X428382Y403850D01*
X427998Y403917D01*
X427614Y404250D01*
X427374Y404650D01*
X427326Y405050D01*
X427422Y405517D01*
X427758Y405850D01*
X428094Y405983D01*
X428526D01*
G01X428094D02*
X427806Y406183D01*
X427566Y406517D01*
X427470Y406917D01*
X427566Y407317D01*
X427806Y407650D01*
X428238Y407850D01*
X428670Y407783D01*
X429102Y407517D01*
G01X441504Y185550D02*
Y189550D01*
X443280Y186683D01*
X440880D01*
G01X439312Y187217D02*
X438976Y187683D01*
X438688Y187950D01*
X438304Y188083D01*
X437968Y187950D01*
X437728Y187683D01*
X437536Y187283D01*
X437488Y186817D01*
X437536Y186417D01*
X437728Y186017D01*
X438016Y185683D01*
X438352Y185550D01*
X438736Y185683D01*
X439072Y186083D01*
X439264Y186683D01*
X439312Y187350D01*
X439216Y188217D01*
X439072Y188683D01*
X438832Y189150D01*
X438496Y189483D01*
X438160Y189550D01*
X437824Y189417D01*
X437584Y189083D01*
G01X441614Y213850D02*
Y217850D01*
X443390Y214983D01*
X440990D01*
G01X439566Y214450D02*
X439278Y214117D01*
X438942Y213917D01*
X438510Y213850D01*
X438078Y213983D01*
X437742Y214250D01*
X437502Y214717D01*
X437454Y215250D01*
X437550Y215783D01*
X437790Y216117D01*
X438126Y216383D01*
X438462Y216450D01*
X438798Y216383D01*
X439230Y216117D01*
X439086Y217850D01*
X437790D01*
G01X441874Y375240D02*
Y379240D01*
X443650Y376373D01*
X441250D01*
G01X439682Y376907D02*
X439346Y377373D01*
X439058Y377640D01*
X438674Y377773D01*
X438338Y377640D01*
X438098Y377373D01*
X437906Y376973D01*
X437858Y376507D01*
X437906Y376107D01*
X438098Y375707D01*
X438386Y375373D01*
X438722Y375240D01*
X439106Y375373D01*
X439442Y375773D01*
X439634Y376373D01*
X439682Y377040D01*
X439586Y377907D01*
X439442Y378373D01*
X439202Y378840D01*
X438866Y379173D01*
X438530Y379240D01*
X438194Y379107D01*
X437954Y378773D01*
G01X441764Y403870D02*
Y407870D01*
X443540Y405003D01*
X441140D01*
G01X439716Y404470D02*
X439428Y404137D01*
X439092Y403937D01*
X438660Y403870D01*
X438228Y404003D01*
X437892Y404270D01*
X437652Y404737D01*
X437604Y405270D01*
X437700Y405803D01*
X437940Y406137D01*
X438276Y406403D01*
X438612Y406470D01*
X438948Y406403D01*
X439380Y406137D01*
X439236Y407870D01*
X437940D01*
G01X453516Y192864D02*
Y196864D01*
X452364D01*
X451980Y196664D01*
X451692Y196197D01*
X451596Y195664D01*
X451692Y195131D01*
X451932Y194731D01*
X452364Y194531D01*
X453516D01*
G01X448876Y192864D02*
X448540Y192931D01*
X448156Y193131D01*
X447916Y193464D01*
X447820Y193931D01*
X447916Y194397D01*
X448204Y194797D01*
X448636Y194997D01*
X449116D01*
X449404Y195131D01*
X449644Y195464D01*
X449740Y195931D01*
X449596Y196397D01*
X449260Y196731D01*
X448876Y196864D01*
X448492Y196731D01*
X448156Y196397D01*
X448012Y195931D01*
X448108Y195464D01*
X448348Y195131D01*
X448636Y194997D01*
X449116D01*
X449548Y194797D01*
X449836Y194397D01*
X449932Y193931D01*
X449836Y193464D01*
X449596Y193131D01*
X449212Y192931D01*
X448876Y192864D01*
G01X456857Y233694D02*
X453990D01*
X453390Y233886D01*
X452990Y234270D01*
X452857Y234750D01*
X452990Y235230D01*
X453390Y235614D01*
X453990Y235806D01*
X456857D01*
G01X453390Y237422D02*
X453057Y237806D01*
X452857Y238238D01*
Y238622D01*
X453057Y239006D01*
X453390Y239294D01*
X453857Y239438D01*
X454324Y239342D01*
X454724Y239102D01*
X454990Y238670D01*
X455124Y238094D01*
X455390Y237758D01*
X455857Y237614D01*
X456324Y237710D01*
X456657Y237950D01*
X456857Y238286D01*
Y238622D01*
X456724Y238958D01*
X456390Y239246D01*
G01X454990Y242494D02*
X455190Y242686D01*
X455524Y242830D01*
X455990Y242926D01*
X456390Y242830D01*
X456657Y242638D01*
X456857Y242302D01*
Y241006D01*
X452857D01*
Y242590D01*
X453124Y242926D01*
X453524Y243118D01*
X453990Y243214D01*
X454457Y243118D01*
X454857Y242830D01*
X454990Y242494D01*
Y241006D01*
G01X453320Y254252D02*
X452987Y254636D01*
X452787Y255068D01*
Y255452D01*
X452987Y255836D01*
X453320Y256124D01*
X453787Y256268D01*
X454254Y256172D01*
X454654Y255932D01*
X454920Y255500D01*
X455054Y254924D01*
X455320Y254588D01*
X455787Y254444D01*
X456254Y254540D01*
X456587Y254780D01*
X456787Y255116D01*
Y255452D01*
X456654Y255788D01*
X456320Y256076D01*
G01X452787Y257884D02*
X456787D01*
Y258844D01*
X456587Y259228D01*
X456320Y259516D01*
X455920Y259756D01*
X455454Y259948D01*
X454787Y259996D01*
X454120Y259948D01*
X453654Y259756D01*
X453254Y259516D01*
X452987Y259228D01*
X452787Y258844D01*
Y257884D01*
G01X453236Y397354D02*
Y401354D01*
X452084D01*
X451700Y401154D01*
X451412Y400687D01*
X451316Y400154D01*
X451412Y399621D01*
X451652Y399221D01*
X452084Y399021D01*
X453236D01*
G01X449412Y397821D02*
X449076Y397487D01*
X448692Y397354D01*
X448308Y397487D01*
X447972Y397887D01*
X447732Y398487D01*
X447636Y399087D01*
Y399821D01*
X447732Y400421D01*
X447972Y400954D01*
X448260Y401221D01*
X448596Y401354D01*
X448980Y401221D01*
X449268Y400954D01*
X449460Y400554D01*
X449556Y400021D01*
X449460Y399554D01*
X449220Y399087D01*
X448932Y398821D01*
X448596Y398754D01*
X448212Y398887D01*
X447924Y399221D01*
X447636Y399821D01*
G01X464837Y318222D02*
X468837D01*
X465504Y319470D01*
X468837Y320718D01*
X464837D01*
G01X467504Y323150D02*
X464837D01*
G01X468570D02*
X468637Y323054D01*
X468770D01*
X468837Y323150D01*
X468770Y323246D01*
X468637D01*
X468570Y323150D01*
G01X464837Y326014D02*
X468837D01*
G01X467504Y327550D02*
X465970Y326014D01*
G01X466570Y326638D02*
X464837Y327646D01*
G01Y329838D02*
X467504D01*
G01X466970D02*
X467237Y330078D01*
X467437Y330318D01*
X467504Y330654D01*
X467437Y330894D01*
X467237Y331182D01*
G01X464837Y334190D02*
X464904Y333902D01*
X465170Y333614D01*
X465637Y333422D01*
X466170Y333326D01*
X466704Y333422D01*
X467170Y333614D01*
X467437Y333902D01*
X467504Y334190D01*
X467437Y334478D01*
X467170Y334766D01*
X466704Y334958D01*
X466170Y335006D01*
X465637Y334958D01*
X465170Y334766D01*
X464904Y334478D01*
X464837Y334190D01*
G01X466970Y338254D02*
X467170Y338446D01*
X467504Y338590D01*
X467970Y338686D01*
X468370Y338590D01*
X468637Y338398D01*
X468837Y338062D01*
Y336766D01*
X464837D01*
Y338350D01*
X465104Y338686D01*
X465504Y338878D01*
X465970Y338974D01*
X466437Y338878D01*
X466837Y338590D01*
X466970Y338254D01*
Y336766D01*
G01X468837Y340494D02*
X465970D01*
X465370Y340686D01*
X464970Y341070D01*
X464837Y341550D01*
X464970Y342030D01*
X465370Y342414D01*
X465970Y342606D01*
X468837D01*
G01X465370Y344222D02*
X465037Y344606D01*
X464837Y345038D01*
Y345422D01*
X465037Y345806D01*
X465370Y346094D01*
X465837Y346238D01*
X466304Y346142D01*
X466704Y345902D01*
X466970Y345470D01*
X467104Y344894D01*
X467370Y344558D01*
X467837Y344414D01*
X468304Y344510D01*
X468637Y344750D01*
X468837Y345086D01*
Y345422D01*
X468704Y345758D01*
X468370Y346046D01*
G54D17*
G01X130772Y213822D02*
X127307D01*
Y215357D01*
X130733D01*
X130772Y215318D01*
Y213822D01*
G01Y222488D02*
X127307D01*
Y224023D01*
X130733D01*
X130772Y223984D01*
Y222488D01*
G01Y218155D02*
X127307D01*
Y219690D01*
X130733D01*
X130772Y219651D01*
Y218155D01*
G01Y229654D02*
X127307D01*
Y231189D01*
X130733D01*
X130772Y231150D01*
Y229654D01*
G01Y226321D02*
X127307D01*
Y227856D01*
X130733D01*
X130772Y227817D01*
Y226321D01*
G01X133828Y215343D02*
X137293D01*
Y213808D01*
X133867D01*
X133828Y213847D01*
Y215343D01*
G01X141328Y215510D02*
X144793D01*
Y213975D01*
X141367D01*
X141328Y214014D01*
Y215510D01*
G01X147828Y215677D02*
X151293D01*
Y214142D01*
X147867D01*
X147828Y214181D01*
Y215677D01*
G01X154665Y253148D02*
X151200D01*
Y254683D01*
X154626D01*
X154665Y254644D01*
Y253148D01*
G01X155328Y215844D02*
X158793D01*
Y214309D01*
X155367D01*
X155328Y214348D01*
Y215844D01*
G01X157727Y239595D02*
X161192D01*
Y238060D01*
X157766D01*
X157727Y238099D01*
Y239595D01*
G01X161807Y215787D02*
X165272D01*
Y214252D01*
X161846D01*
X161807Y214291D01*
Y215787D01*
G01X159420Y238414D02*
Y239202D01*
G01X162557Y344507D02*
X166022D01*
Y342972D01*
X162596D01*
X162557Y343011D01*
Y344507D01*
G01X165983Y347485D02*
X162518D01*
Y349020D01*
X165944D01*
X165983Y348981D01*
Y347485D01*
G01X162557Y346632D02*
X166022D01*
Y345097D01*
X162596D01*
X162557Y345136D01*
Y346632D01*
G01X169365Y349043D02*
Y345578D01*
X167830D01*
Y349004D01*
X167869Y349043D01*
X169365D01*
G01X164250Y345451D02*
Y346239D01*
G01X178533Y253133D02*
X175068D01*
Y254668D01*
X178494D01*
X178533Y254629D01*
Y253133D01*
G01X170253Y345617D02*
Y349082D01*
X171788D01*
Y345656D01*
X171749Y345617D01*
X170253D01*
G01X177733Y402773D02*
X174268D01*
Y404308D01*
X177694D01*
X177733Y404269D01*
Y402773D01*
G01X179828Y355680D02*
X183293D01*
Y354145D01*
X179867D01*
X179828Y354184D01*
Y355680D01*
G01X185974Y259172D02*
X182509D01*
Y260707D01*
X185935D01*
X185974Y260668D01*
Y259172D01*
G01Y270719D02*
X182509D01*
Y272254D01*
X185935D01*
X185974Y272215D01*
Y270719D01*
G01X191193Y280312D02*
X187728D01*
Y281847D01*
X191154D01*
X191193Y281808D01*
Y280312D01*
G01X189500Y281493D02*
Y280705D01*
G01X191000Y342106D02*
Y342894D01*
G01X189307Y343287D02*
X192772D01*
Y341752D01*
X189346D01*
X189307Y341791D01*
Y343287D01*
G01X200874Y259172D02*
X197409D01*
Y260707D01*
X200835D01*
X200874Y260668D01*
Y259172D01*
G01X197449Y272293D02*
X200914D01*
Y270758D01*
X197488D01*
X197449Y270797D01*
Y272293D01*
G01X200943Y327535D02*
X197478D01*
Y329070D01*
X200904D01*
X200943Y329031D01*
Y327535D01*
G01Y333035D02*
X197478D01*
Y334570D01*
X200904D01*
X200943Y334531D01*
Y333035D01*
G01X201787Y319193D02*
Y315728D01*
X200252D01*
Y319154D01*
X200291Y319193D01*
X201787D01*
G01X211069Y280493D02*
X210281D01*
G01X209888Y278800D02*
Y282265D01*
X211423D01*
Y278839D01*
X211384Y278800D01*
X209888D01*
G01X220673Y300213D02*
X217208D01*
Y301748D01*
X220634D01*
X220673Y301709D01*
Y300213D01*
G01Y296713D02*
X217208D01*
Y298248D01*
X220634D01*
X220673Y298209D01*
Y296713D01*
G01X220672Y302821D02*
X217207D01*
Y304356D01*
X220633D01*
X220672Y304317D01*
Y302821D01*
G01Y305454D02*
X217207D01*
Y306989D01*
X220633D01*
X220672Y306950D01*
Y305454D01*
G01Y307787D02*
X217207D01*
Y309322D01*
X220633D01*
X220672Y309283D01*
Y307787D01*
G01Y310120D02*
X217207D01*
Y311655D01*
X220633D01*
X220672Y311616D01*
Y310120D01*
G01X217247Y313637D02*
X220712D01*
Y312102D01*
X217286D01*
X217247Y312141D01*
Y313637D01*
G01Y315827D02*
X220712D01*
Y314292D01*
X217286D01*
X217247Y314331D01*
Y315827D01*
G01X218727Y279127D02*
X222192D01*
Y277592D01*
X218766D01*
X218727Y277631D01*
Y279127D01*
G01X220420Y277946D02*
Y278734D01*
G01X225137Y300213D02*
X221672D01*
Y301748D01*
X225098D01*
X225137Y301709D01*
Y300213D01*
G01Y296713D02*
X221672D01*
Y298248D01*
X225098D01*
X225137Y298209D01*
Y296713D01*
G01Y302821D02*
X221672D01*
Y304356D01*
X225098D01*
X225137Y304317D01*
Y302821D01*
G01Y305454D02*
X221672D01*
Y306989D01*
X225098D01*
X225137Y306950D01*
Y305454D01*
G01Y307787D02*
X221672D01*
Y309322D01*
X225098D01*
X225137Y309283D01*
Y307787D01*
G01Y310120D02*
X221672D01*
Y311655D01*
X225098D01*
X225137Y311616D01*
Y310120D01*
G01X218940Y312456D02*
Y313244D01*
G01Y314646D02*
Y315434D01*
G01X229607Y296713D02*
X226142D01*
Y298248D01*
X229568D01*
X229607Y298209D01*
Y296713D01*
G01Y300213D02*
X226142D01*
Y301748D01*
X229568D01*
X229607Y301709D01*
Y300213D01*
G01Y305454D02*
X226142D01*
Y306989D01*
X229568D01*
X229607Y306950D01*
Y305454D01*
G01Y302821D02*
X226142D01*
Y304356D01*
X229568D01*
X229607Y304317D01*
Y302821D01*
G01Y310120D02*
X226142D01*
Y311655D01*
X229568D01*
X229607Y311616D01*
Y310120D01*
G01Y307787D02*
X226142D01*
Y309322D01*
X229568D01*
X229607Y309283D01*
Y307787D01*
G01X229894Y337000D02*
X229106D01*
G01X228713Y335307D02*
Y338772D01*
X230248D01*
Y335346D01*
X230209Y335307D01*
X228713D01*
G01X226807Y343787D02*
X230272D01*
Y342252D01*
X226846D01*
X226807Y342291D01*
Y343787D01*
G01X226778Y345729D02*
X230243D01*
Y344194D01*
X226817D01*
X226778Y344233D01*
Y345729D01*
G01X226758Y347622D02*
X230223D01*
Y346087D01*
X226797D01*
X226758Y346126D01*
Y347622D01*
G01X226757Y349527D02*
X230222D01*
Y347992D01*
X226796D01*
X226757Y348031D01*
Y349527D01*
G01X232394Y297894D02*
Y297106D01*
G01X234087Y296713D02*
X230622D01*
Y298248D01*
X234048D01*
X234087Y298209D01*
Y296713D01*
G01X235097Y361605D02*
X238562D01*
Y360070D01*
X235136D01*
X235097Y360109D01*
Y361605D01*
G01X235067Y363675D02*
X238532D01*
Y362140D01*
X235106D01*
X235067Y362179D01*
Y363675D01*
G01X251510Y321382D02*
Y317917D01*
X249975D01*
Y321343D01*
X250014Y321382D01*
X251510D01*
G01X249930Y321888D02*
Y325353D01*
X251465D01*
Y321927D01*
X251426Y321888D01*
X249930D01*
G01X255817Y338653D02*
Y335188D01*
X254282D01*
Y338614D01*
X254321Y338653D01*
X255817D01*
G01X258848Y336707D02*
X262313D01*
Y335172D01*
X258887D01*
X258848Y335211D01*
Y336707D01*
G01X297119Y368948D02*
X300584D01*
Y367413D01*
X297158D01*
X297119Y367452D01*
Y368948D01*
G01X298812Y365767D02*
Y366555D01*
G01X297119Y366948D02*
X300584D01*
Y365413D01*
X297158D01*
X297119Y365452D01*
Y366948D01*
G01X300545Y369472D02*
X297080D01*
Y371007D01*
X300506D01*
X300545Y370968D01*
Y369472D01*
G01X297119Y372948D02*
X300584D01*
Y371413D01*
X297158D01*
X297119Y371452D01*
Y372948D01*
G01X298812Y367767D02*
Y368555D01*
G01X306243Y314281D02*
Y315069D01*
G01X304550Y315462D02*
X308015D01*
Y313927D01*
X304589D01*
X304550Y313966D01*
Y315462D01*
G01X306273Y316167D02*
Y316955D01*
G01X304580Y317348D02*
X308045D01*
Y315813D01*
X304619D01*
X304580Y315852D01*
Y317348D01*
G01X310672Y322573D02*
X307207D01*
Y324108D01*
X310633D01*
X310672Y324069D01*
Y322573D01*
G01X309350Y253670D02*
X310138D01*
G01X310531Y255363D02*
Y251898D01*
X308996D01*
Y255324D01*
X309035Y255363D01*
X310531D01*
G01X313396Y254945D02*
Y255735D01*
G01X311702Y256127D02*
X315168Y256126D01*
Y254592D01*
X311742Y254593D01*
X311703Y254631D01*
X311702Y256127D01*
G01X309309Y269527D02*
X310097D01*
G01X310490Y271220D02*
Y267755D01*
X308955D01*
Y271181D01*
X308994Y271220D01*
X310490D01*
G01X310906Y276016D02*
Y275228D01*
G01X312599Y274835D02*
X309134D01*
Y276370D01*
X312560D01*
X312599Y276331D01*
Y274835D01*
G01X312487Y316131D02*
Y312666D01*
X310952D01*
Y316092D01*
X310991Y316131D01*
X312487D01*
G01X311306Y310640D02*
X312094D01*
G01X312487Y312333D02*
Y308868D01*
X310952D01*
Y312294D01*
X310991Y312333D01*
X312487D01*
G01X314117Y312959D02*
X313329D01*
G01X312936Y311266D02*
Y314731D01*
X314471D01*
Y311305D01*
X314432Y311266D01*
X312936D01*
G01X314135Y316791D02*
X313347D01*
G01X312954Y315098D02*
Y318563D01*
X314489D01*
Y315137D01*
X314450Y315098D01*
X312954D01*
G01X311306Y314438D02*
X312094D01*
G01X313373Y318957D02*
Y322422D01*
X314908D01*
Y318996D01*
X314869Y318957D01*
X313373D01*
G01X309146Y318109D02*
X309934D01*
G01X310327Y319802D02*
Y316337D01*
X308792D01*
Y319763D01*
X308831Y319802D01*
X310327D01*
G01X313057Y322382D02*
Y318917D01*
X311522D01*
Y322343D01*
X311561Y322382D01*
X313057D01*
G01X308979Y323754D02*
Y322966D01*
G01X311876Y320689D02*
X312664D01*
G01X313394Y343019D02*
X312606D01*
G01X312213Y341326D02*
Y344791D01*
X313748D01*
Y341365D01*
X313709Y341326D01*
X312213D01*
G01X318410Y245500D02*
Y246288D01*
G01X316717Y246681D02*
X320182D01*
Y245146D01*
X316756D01*
X316717Y245185D01*
Y246681D01*
G01X316986Y277189D02*
X317774D01*
G01X318167Y278882D02*
Y275417D01*
X316632D01*
Y278843D01*
X316671Y278882D01*
X318167D01*
G01X318747Y310491D02*
Y307026D01*
X317212D01*
Y310452D01*
X317251Y310491D01*
X318747D01*
G01X320617D02*
Y307026D01*
X319082D01*
Y310452D01*
X319121Y310491D01*
X320617D01*
G01X319297Y313617D02*
X322762D01*
Y312082D01*
X319336D01*
X319297Y312121D01*
Y313617D01*
G01X319436Y308798D02*
X320224D01*
G01X317018Y319292D02*
Y318504D01*
G01X318711Y318111D02*
X315246D01*
Y319646D01*
X318672D01*
X318711Y319607D01*
Y318111D01*
G01X316802Y317300D02*
Y316512D01*
G01X318495Y316119D02*
X315030D01*
Y317654D01*
X318456D01*
X318495Y317615D01*
Y316119D01*
G01X319296Y315720D02*
X320084D01*
G01X320477Y317413D02*
Y313948D01*
X318942D01*
Y317374D01*
X318981Y317413D01*
X320477D01*
G01X316804Y315498D02*
Y314710D01*
G01X318497Y314317D02*
X315032D01*
Y315852D01*
X318458D01*
X318497Y315813D01*
Y314317D01*
G01X321207Y321552D02*
Y318087D01*
X319672D01*
Y321513D01*
X319711Y321552D01*
X321207D01*
G01X320874Y325713D02*
X317409D01*
Y327248D01*
X320835D01*
X320874Y327209D01*
Y325713D01*
G01X314554Y320650D02*
X313766D01*
G01X318795Y323610D02*
X318007D01*
G01X317614Y321917D02*
Y325382D01*
X319149D01*
Y321956D01*
X319110Y321917D01*
X317614D01*
G01X319181Y326894D02*
Y326106D01*
G01X316894Y329420D02*
X316106D01*
G01X315713Y327727D02*
Y331192D01*
X317248D01*
Y327766D01*
X317209Y327727D01*
X315713D01*
G01X318006Y329618D02*
X318794D01*
G01X319187Y331311D02*
Y327846D01*
X317652D01*
Y331272D01*
X317691Y331311D01*
X319187D01*
G01X315724Y337312D02*
X314936D01*
G01X314543Y335619D02*
Y339084D01*
X316078D01*
Y335658D01*
X316039Y335619D01*
X314543D01*
G01X316106Y333481D02*
X316894D01*
G01X317287Y335174D02*
Y331709D01*
X315752D01*
Y335135D01*
X315791Y335174D01*
X317287D01*
G01X318906Y333619D02*
X319694D01*
G01X320087Y335312D02*
Y331847D01*
X318552D01*
Y335273D01*
X318591Y335312D01*
X320087D01*
G01X316594Y343019D02*
X315806D01*
G01X315413Y341326D02*
Y344791D01*
X316948D01*
Y341365D01*
X316909Y341326D01*
X315413D01*
G01X319737Y347209D02*
X316272D01*
Y348744D01*
X319698D01*
X319737Y348705D01*
Y347209D01*
G01X319790Y345189D02*
X316325D01*
Y346724D01*
X319751D01*
X319790Y346685D01*
Y345189D01*
G01X319713Y350213D02*
X316248D01*
Y351748D01*
X319674D01*
X319713Y351709D01*
Y350213D01*
G01X319572Y365947D02*
Y366735D01*
G01X317879Y367128D02*
X321344D01*
Y365593D01*
X317918D01*
X317879Y365632D01*
Y367128D01*
G01Y369128D02*
X321344D01*
Y367593D01*
X317918D01*
X317879Y367632D01*
Y369128D01*
G01X321305Y369652D02*
X317840D01*
Y371187D01*
X321266D01*
X321305Y371148D01*
Y369652D01*
G01X317879Y373128D02*
X321344D01*
Y371593D01*
X317918D01*
X317879Y371632D01*
Y373128D01*
G01X319572Y367947D02*
Y368735D01*
G01X325867Y249462D02*
Y245997D01*
X324332D01*
Y249423D01*
X324371Y249462D01*
X325867D01*
G01X323200Y242956D02*
Y243744D01*
G01X321507Y244137D02*
X324972D01*
Y242602D01*
X321546D01*
X321507Y242641D01*
Y244137D01*
G01X321849Y253374D02*
Y252586D01*
G01X323542Y252193D02*
X320077D01*
Y253728D01*
X323503D01*
X323542Y253689D01*
Y252193D01*
G01X323790Y255204D02*
Y254416D01*
G01X325483Y254023D02*
X322018D01*
Y255558D01*
X325444D01*
X325483Y255519D01*
Y254023D01*
G01X323743Y273850D02*
Y274638D01*
G01X322050Y275031D02*
X325515D01*
Y273496D01*
X322089D01*
X322050Y273535D01*
Y275031D01*
G01X324322Y276878D02*
Y280343D01*
X325857D01*
Y276917D01*
X325818Y276878D01*
X324322D01*
G01X325503Y278571D02*
X324715D01*
G01X325229Y308798D02*
X328694D01*
Y307263D01*
X325268D01*
X325229Y307302D01*
Y308798D01*
G01X322881Y307306D02*
Y308094D01*
G01X321188Y308487D02*
X324653D01*
Y306952D01*
X321227D01*
X321188Y306991D01*
Y308487D01*
G01X328734Y305404D02*
X325269D01*
Y306939D01*
X328695D01*
X328734Y306900D01*
Y305404D01*
G01X323041Y306252D02*
Y305464D01*
G01X324734Y305071D02*
X321269D01*
Y306606D01*
X324695D01*
X324734Y306567D01*
Y305071D01*
G01X320990Y312436D02*
Y313224D01*
G01X325220Y310746D02*
X328685D01*
Y309211D01*
X325259D01*
X325220Y309250D01*
Y310746D01*
G01X322880Y309206D02*
Y309994D01*
G01X321187Y310387D02*
X324652D01*
Y308852D01*
X321226D01*
X321187Y308891D01*
Y310387D01*
G01X321673Y318078D02*
Y321543D01*
X323208D01*
Y318117D01*
X323169Y318078D01*
X321673D01*
G01X322639Y315244D02*
Y314456D01*
G01X324332Y314063D02*
X320867D01*
Y315598D01*
X324293D01*
X324332Y315559D01*
Y314063D01*
G01X325975Y315931D02*
X325187D01*
G01X324794Y314238D02*
Y317703D01*
X326329D01*
Y314277D01*
X326290Y314238D01*
X324794D01*
G01X325893Y321549D02*
Y318084D01*
X324358D01*
Y321510D01*
X324397Y321549D01*
X325893D01*
G01X322637Y317351D02*
Y316563D01*
G01X324330Y316170D02*
X320865D01*
Y317705D01*
X324291D01*
X324330Y317666D01*
Y316170D01*
G01X320411Y323622D02*
X321199D01*
G01X321592Y325315D02*
Y321850D01*
X320057D01*
Y325276D01*
X320096Y325315D01*
X321592D01*
G01X322854Y319771D02*
X322066D01*
G01X324712Y319856D02*
X325500D01*
G01X320026Y319859D02*
X320814D01*
G01X323213Y323571D02*
X324001D01*
G01X324394Y325264D02*
Y321799D01*
X322859D01*
Y325225D01*
X322898Y325264D01*
X324394D01*
G01X326960Y325360D02*
Y321895D01*
X325425D01*
Y325321D01*
X325464Y325360D01*
X326960D01*
G01X325477Y327971D02*
X326265D01*
G01X326658Y329664D02*
Y326199D01*
X325123D01*
Y329625D01*
X325162Y329664D01*
X326658D01*
G01X322981Y326706D02*
Y327494D01*
G01X321288Y327887D02*
X324753D01*
Y326352D01*
X321327D01*
X321288Y326391D01*
Y327887D01*
G01X321694Y331220D02*
X320906D01*
G01X320513Y329527D02*
Y332992D01*
X322048D01*
Y329566D01*
X322009Y329527D01*
X320513D01*
G01X326598Y333553D02*
Y330088D01*
X325063D01*
Y333514D01*
X325102Y333553D01*
X326598D01*
G01X323407Y330070D02*
X324195D01*
G01X324588Y331763D02*
Y328298D01*
X323053D01*
Y331724D01*
X323092Y331763D01*
X324588D01*
G01X323403Y336296D02*
Y339761D01*
X324938D01*
Y336335D01*
X324899Y336296D01*
X323403D01*
G01X320413Y336127D02*
Y339592D01*
X321948D01*
Y336166D01*
X321909Y336127D01*
X320413D01*
G01X325417Y331860D02*
X326205D01*
G01X324311Y334093D02*
X323523D01*
G01X323130Y332400D02*
Y335865D01*
X324665D01*
Y332439D01*
X324626Y332400D01*
X323130D01*
G01X325894Y342119D02*
X325106D01*
G01X324713Y340426D02*
Y343891D01*
X326248D01*
Y340465D01*
X326209Y340426D01*
X324713D01*
G01X322793Y342119D02*
X322005D01*
G01X321612Y340426D02*
Y343891D01*
X323147D01*
Y340465D01*
X323108Y340426D01*
X321612D01*
G01X324584Y337989D02*
X323796D01*
G01X321594Y337820D02*
X320806D01*
G01X328040Y259493D02*
X327252D01*
G01X326859Y257800D02*
Y261265D01*
X328394D01*
Y257839D01*
X328355Y257800D01*
X326859D01*
G01X330790Y304626D02*
Y305414D01*
G01X329097Y305807D02*
X332562D01*
Y304272D01*
X329136D01*
X329097Y304311D01*
Y305807D01*
G01X330771Y306466D02*
Y307254D01*
G01X329078Y307647D02*
X332543D01*
Y306112D01*
X329117D01*
X329078Y306151D01*
Y307647D01*
G01X326922Y307617D02*
Y308405D01*
G01X327041Y306585D02*
Y305797D01*
G01X326913Y309565D02*
Y310353D01*
G01X330928Y318487D02*
X334393D01*
Y316952D01*
X330967D01*
X330928Y316991D01*
Y318487D01*
G01X327832Y321532D02*
Y318067D01*
X326297D01*
Y321493D01*
X326336Y321532D01*
X327832D01*
G01X329747Y321642D02*
Y318177D01*
X328212D01*
Y321603D01*
X328251Y321642D01*
X329747D01*
G01X327107Y316027D02*
X327895D01*
G01X328288Y317720D02*
Y314255D01*
X326753D01*
Y317681D01*
X326792Y317720D01*
X328288D01*
G01X330073Y318787D02*
Y322252D01*
X331608D01*
Y318826D01*
X331569Y318787D01*
X330073D01*
G01X326651Y319839D02*
X327439D01*
G01X328566Y319949D02*
X329354D01*
G01X325779Y323667D02*
X326567D01*
G01X331254Y320480D02*
X330466D01*
G01X327912Y331326D02*
Y334791D01*
X329447D01*
Y331365D01*
X329408Y331326D01*
X327912D01*
G01X328299Y327997D02*
X329087D01*
G01X329480Y329690D02*
Y326225D01*
X327945D01*
Y329651D01*
X327984Y329690D01*
X329480D01*
G01X329093Y333019D02*
X328305D01*
G01X326713Y336126D02*
Y339591D01*
X328248D01*
Y336165D01*
X328209Y336126D01*
X326713D01*
G01X327894Y337819D02*
X327106D01*
G01X329193Y342119D02*
X328405D01*
G01X328012Y340426D02*
Y343891D01*
X329547D01*
Y340465D01*
X329508Y340426D01*
X328012D01*
G01X332366Y350080D02*
Y346615D01*
X330831D01*
Y350041D01*
X330870Y350080D01*
X332366D01*
G01X337361Y304806D02*
Y305594D01*
G01X335668Y305987D02*
X339133D01*
Y304452D01*
X335707D01*
X335668Y304491D01*
Y305987D01*
G01X337331Y306676D02*
Y307464D01*
G01X335638Y307857D02*
X339103D01*
Y306322D01*
X335677D01*
X335638Y306361D01*
Y307857D01*
G01X338727Y316563D02*
Y313098D01*
X337192D01*
Y316524D01*
X337231Y316563D01*
X338727D01*
G01X332621Y317306D02*
Y318094D01*
G01X336519D02*
Y317306D01*
G01X338212Y316913D02*
X334747D01*
Y318448D01*
X338173D01*
X338212Y318409D01*
Y316913D01*
G01X334710Y319126D02*
Y319914D01*
G01X333017Y320307D02*
X336482D01*
Y318772D01*
X333056D01*
X333017Y318811D01*
Y320307D01*
G01X337546Y314870D02*
X338334D01*
G01X337087Y328913D02*
Y325448D01*
X335552D01*
Y328874D01*
X335591Y328913D01*
X337087D01*
G01X338477Y325103D02*
Y321638D01*
X336942D01*
Y325064D01*
X336981Y325103D01*
X338477D01*
G01X337296Y323410D02*
X338084D01*
G01X335806Y331020D02*
X336594D01*
G01X336987Y332713D02*
Y329248D01*
X335452D01*
Y332674D01*
X335491Y332713D01*
X336987D01*
G01X335906Y327220D02*
X336694D01*
G01X334213Y337726D02*
Y341191D01*
X335748D01*
Y337765D01*
X335709Y337726D01*
X334213D01*
G01X336711Y334783D02*
X335923D01*
G01X335530Y333090D02*
Y336555D01*
X337065D01*
Y333129D01*
X337026Y333090D01*
X335530D01*
G01X335394Y339419D02*
X334606D01*
G01X337413Y337727D02*
Y341192D01*
X338948D01*
Y337766D01*
X338909Y337727D01*
X337413D01*
G01X334449Y352232D02*
Y348767D01*
X332914D01*
Y352193D01*
X332953Y352232D01*
X334449D01*
G01X345942Y243623D02*
X342477D01*
Y245158D01*
X345903D01*
X345942Y245119D01*
Y243623D01*
G01X339749Y275028D02*
X343214D01*
Y273493D01*
X339788D01*
X339749Y273532D01*
Y275028D01*
G01X341442Y273847D02*
Y274635D01*
G01X342447Y307652D02*
Y304187D01*
X340912D01*
Y307613D01*
X340951Y307652D01*
X342447D01*
G01X338726Y319037D02*
X342191D01*
Y317502D01*
X338765D01*
X338726Y317541D01*
Y319037D01*
G01X340419Y317856D02*
Y318644D01*
G01X342147Y337313D02*
Y333848D01*
X340612D01*
Y337274D01*
X340651Y337313D01*
X342147D01*
G01X340966Y335620D02*
X341754D01*
G01X340263Y337726D02*
Y341191D01*
X341798D01*
Y337765D01*
X341759Y337726D01*
X340263D01*
G01X341444Y339419D02*
X340656D01*
G01X338594Y339420D02*
X337806D01*
G01X344249Y244804D02*
Y244016D01*
G01X350992Y249683D02*
X347527D01*
Y251218D01*
X350953D01*
X350992Y251179D01*
Y249683D01*
G01X344972Y259464D02*
X348437D01*
Y257929D01*
X345011D01*
X344972Y257968D01*
Y259464D01*
G01X346665Y258283D02*
Y259071D01*
G01X348793Y254773D02*
X345328D01*
Y256308D01*
X348754D01*
X348793Y256269D01*
Y254773D01*
G01X347100Y255954D02*
Y255166D01*
G01X351489Y278315D02*
X348024D01*
Y279850D01*
X351450D01*
X351489Y279811D01*
Y278315D01*
G01X351522Y282583D02*
X348057D01*
Y284118D01*
X351483D01*
X351522Y284079D01*
Y282583D01*
G01X348986Y326037D02*
X352451D01*
Y324502D01*
X349025D01*
X348986Y324541D01*
Y326037D01*
G01X346963Y324127D02*
Y327592D01*
X348498D01*
Y324166D01*
X348459Y324127D01*
X346963D01*
G01X348144Y325820D02*
X347356D01*
G01X345038Y337737D02*
X348503D01*
Y336202D01*
X345077D01*
X345038Y336241D01*
Y337737D01*
G01X346731Y336556D02*
Y337344D01*
G01X345339Y369168D02*
X348804D01*
Y367633D01*
X345378D01*
X345339Y367672D01*
Y369168D01*
G01X347032Y365987D02*
Y366775D01*
G01X345339Y367168D02*
X348804D01*
Y365633D01*
X345378D01*
X345339Y365672D01*
Y367168D01*
G01X348765Y369692D02*
X345300D01*
Y371227D01*
X348726D01*
X348765Y371188D01*
Y369692D01*
G01X345339Y373168D02*
X348804D01*
Y371633D01*
X345378D01*
X345339Y371672D01*
Y373168D01*
G01X347032Y367987D02*
Y368775D01*
G01X355280Y245300D02*
X358746Y245299D01*
Y243765D01*
X355320Y243766D01*
X355281Y243804D01*
X355280Y245300D01*
G01X350319Y259343D02*
X353785Y259342D01*
Y257808D01*
X350359Y257809D01*
X350320Y257847D01*
X350319Y259343D01*
G01X352013Y258161D02*
Y258951D01*
G01X351361Y268795D02*
Y265330D01*
X349826D01*
Y268756D01*
X349865Y268795D01*
X351361D01*
G01X350180Y267102D02*
X350968D01*
G01X356586Y279892D02*
Y276427D01*
X355051D01*
Y279853D01*
X355090Y279892D01*
X356586D01*
G01X355405Y278199D02*
X356193D01*
G01X349796Y279496D02*
Y278708D01*
G01X349829Y283764D02*
Y282976D01*
G01X356974Y244118D02*
Y244908D01*
G01X360547Y251808D02*
X364012D01*
Y250273D01*
X360586D01*
X360547Y250312D01*
Y251808D01*
G01X360463Y260744D02*
X363929Y260743D01*
Y259209D01*
X360503Y259210D01*
X360464Y259248D01*
X360463Y260744D01*
G01X360431Y267125D02*
X363896D01*
Y265590D01*
X360470D01*
X360431Y265629D01*
Y267125D01*
G01X360566Y276536D02*
X364031D01*
Y275001D01*
X360605D01*
X360566Y275040D01*
Y276536D01*
G01X362240Y250627D02*
Y251415D01*
G01X365904Y255806D02*
Y252341D01*
X364369D01*
Y255767D01*
X364408Y255806D01*
X365904D01*
G01X364723Y254113D02*
X365511D01*
G01X362259Y275355D02*
Y276143D01*
G01X361789Y369018D02*
X365254D01*
Y367483D01*
X361828D01*
X361789Y367522D01*
Y369018D01*
G01X363482Y365837D02*
Y366625D01*
G01X361789Y367018D02*
X365254D01*
Y365483D01*
X361828D01*
X361789Y365522D01*
Y367018D01*
G01X365215Y369542D02*
X361750D01*
Y371077D01*
X365176D01*
X365215Y371038D01*
Y369542D01*
G01X361789Y373018D02*
X365254D01*
Y371483D01*
X361828D01*
X361789Y371522D01*
Y373018D01*
G01X363482Y367837D02*
Y368625D01*
G01X374434Y299508D02*
X377899D01*
Y297973D01*
X374473D01*
X374434Y298012D01*
Y299508D01*
G01X376127Y298327D02*
Y299115D01*
G01X379499Y303266D02*
Y306731D01*
X381034D01*
Y303305D01*
X380995Y303266D01*
X379499D01*
G01X377706Y305605D02*
X374241D01*
Y307140D01*
X377667D01*
X377706Y307101D01*
Y305605D01*
G01X376013Y306786D02*
Y305998D01*
G01X379583Y314862D02*
X383048D01*
Y313327D01*
X379622D01*
X379583Y313366D01*
Y314862D01*
G01X379370Y321186D02*
Y324651D01*
X380905D01*
Y321225D01*
X380866Y321186D01*
X379370D01*
G01X377551Y332146D02*
X381017Y332145D01*
Y330611D01*
X377591Y330612D01*
X377552Y330650D01*
X377551Y332146D01*
G01X379245Y330964D02*
Y331754D01*
G01X373767Y337888D02*
X377232D01*
Y336353D01*
X373806D01*
X373767Y336392D01*
Y337888D01*
G01X375460Y336707D02*
Y337495D01*
G01X378016Y341838D02*
Y345303D01*
X379551D01*
Y341877D01*
X379512Y341838D01*
X378016D01*
G01X379197Y343531D02*
X378409D01*
G01X381447Y295519D02*
Y292054D01*
X379912D01*
Y295480D01*
X379951Y295519D01*
X381447D01*
G01X380266Y293826D02*
X381054D01*
G01X380680Y304959D02*
X379892D01*
G01X381276Y313681D02*
Y314469D01*
G01X380551Y322879D02*
X379763D01*
G01X381526Y330621D02*
Y334086D01*
X383061D01*
Y330660D01*
X383022Y330621D01*
X381526D01*
G01X382707Y332314D02*
X381919D01*
G01X385472Y365820D02*
X382007D01*
Y367355D01*
X385433D01*
X385472Y367316D01*
Y365820D01*
G01Y370820D02*
X382007D01*
Y372355D01*
X385433D01*
X385472Y372316D01*
Y370820D01*
G01X388737Y310830D02*
Y307365D01*
X387202D01*
Y310791D01*
X387241Y310830D01*
X388737D01*
G01X386906Y303386D02*
X390371D01*
Y301851D01*
X386945D01*
X386906Y301890D01*
Y303386D01*
G01X388599Y302205D02*
Y302993D01*
G01X387556Y309137D02*
X388344D01*
G01X385857Y326271D02*
Y329736D01*
X387392D01*
Y326310D01*
X387353Y326271D01*
X385857D01*
G01X387038Y327964D02*
X386250D01*
G01X387237Y331599D02*
Y335064D01*
X388772D01*
Y331638D01*
X388733Y331599D01*
X387237D01*
G01X385763Y336717D02*
Y340182D01*
X387298D01*
Y336756D01*
X387259Y336717D01*
X385763D01*
G01X388418Y333292D02*
X387630D01*
G01X387414Y341742D02*
Y345207D01*
X388949D01*
Y341781D01*
X388910Y341742D01*
X387414D01*
G01X386944Y338410D02*
X386156D01*
G01X396717Y308170D02*
X393252D01*
Y309705D01*
X396678D01*
X396717Y309666D01*
Y308170D01*
G01X395024Y309351D02*
Y308563D01*
G01X395253Y336698D02*
Y340163D01*
X396788D01*
Y336737D01*
X396749Y336698D01*
X395253D01*
G01X393791Y341845D02*
Y345310D01*
X395326D01*
Y341884D01*
X395287Y341845D01*
X393791D01*
G01X396434Y338391D02*
X395646D01*
G01X399148Y291832D02*
X402614Y291831D01*
Y290297D01*
X399188Y290298D01*
X399149Y290336D01*
X399148Y291832D01*
G01X400842Y290650D02*
Y291440D01*
G01X402404Y304826D02*
X402403Y301360D01*
X400869D01*
X400870Y304786D01*
X400908Y304825D01*
X402404Y304826D01*
G01X401222Y303132D02*
X402012D01*
G01X404707Y332492D02*
Y329027D01*
X403172D01*
Y332453D01*
X403211Y332492D01*
X404707D01*
G01X402782Y341786D02*
X402783Y345252D01*
X404317D01*
X404316Y341826D01*
X404278Y341787D01*
X402782Y341786D01*
G01X403964Y343480D02*
X403174D01*
G01X398689Y347198D02*
X402155Y347197D01*
Y345663D01*
X398729Y345664D01*
X398690Y345702D01*
X398689Y347198D01*
G01X400383Y346016D02*
Y346806D01*
G01X402252Y365897D02*
Y366685D01*
G01X400559Y367078D02*
X404024D01*
Y365543D01*
X400598D01*
X400559Y365582D01*
Y367078D01*
G01Y369078D02*
X404024D01*
Y367543D01*
X400598D01*
X400559Y367582D01*
Y369078D01*
G01X403985Y369602D02*
X400520D01*
Y371137D01*
X403946D01*
X403985Y371098D01*
Y369602D01*
G01X400559Y373078D02*
X404024D01*
Y371543D01*
X400598D01*
X400559Y371582D01*
Y373078D01*
G01X402252Y367897D02*
Y368685D01*
G01X409379Y299094D02*
Y295629D01*
X407844D01*
Y299055D01*
X407883Y299094D01*
X409379D01*
G01X409396Y304200D02*
Y300735D01*
X407861D01*
Y304161D01*
X407900Y304200D01*
X409396D01*
G01X408198Y297401D02*
X408986D01*
G01X404697Y307527D02*
X408162D01*
Y305992D01*
X404736D01*
X404697Y306031D01*
Y307527D01*
G01X408215Y302507D02*
X409003D01*
G01X409274Y336605D02*
Y340070D01*
X410809D01*
Y336644D01*
X410770Y336605D01*
X409274D01*
G01X410023Y330487D02*
Y333952D01*
X411558D01*
Y330526D01*
X411519Y330487D01*
X410023D01*
G01X411204Y332180D02*
X410416D01*
G01X410455Y338298D02*
X409667D01*
G01X416666Y360112D02*
Y356647D01*
X415131D01*
Y360073D01*
X415170Y360112D01*
X416666D01*
G01X413400D02*
Y356647D01*
X411865D01*
Y360073D01*
X411904Y360112D01*
X413400D01*
G01X416666Y367105D02*
Y363640D01*
X415131D01*
Y367066D01*
X415170Y367105D01*
X416666D01*
G01X413400Y367104D02*
Y363639D01*
X411865D01*
Y367065D01*
X411904Y367104D01*
X413400D01*
G01X415092Y369325D02*
Y372790D01*
X416627D01*
Y369364D01*
X416588Y369325D01*
X415092D01*
G01X411826Y369326D02*
Y372791D01*
X413361D01*
Y369365D01*
X413322Y369326D01*
X411826D01*
G01X421578Y353582D02*
X425043D01*
Y352047D01*
X421617D01*
X421578Y352086D01*
Y353582D01*
G01Y372952D02*
X425043D01*
Y371417D01*
X421617D01*
X421578Y371456D01*
Y372952D01*
G01X426623Y258617D02*
Y262082D01*
X428158D01*
Y258656D01*
X428119Y258617D01*
X426623D01*
G01X427804Y260310D02*
X427016D01*
G01X429123Y258617D02*
Y262082D01*
X430658D01*
Y258656D01*
X430619Y258617D01*
X429123D01*
G01X434972Y265313D02*
X431507D01*
Y266848D01*
X434933D01*
X434972Y266809D01*
Y265313D01*
G01X430304Y260310D02*
X429516D01*
G01X436702Y270610D02*
X433237D01*
Y272145D01*
X436663D01*
X436702Y272106D01*
Y270610D01*
G01X436792Y282733D02*
X433327D01*
Y284268D01*
X436753D01*
X436792Y284229D01*
Y282733D01*
G01X437287Y293193D02*
Y289728D01*
X435752D01*
Y293154D01*
X435791Y293193D01*
X437287D01*
G01X443750Y254951D02*
Y255739D01*
G01X442057Y256132D02*
X445522D01*
Y254597D01*
X442096D01*
X442057Y254636D01*
Y256132D01*
G01X443750Y257451D02*
Y258239D01*
G01X442057Y258632D02*
X445522D01*
Y257097D01*
X442096D01*
X442057Y257136D01*
Y258632D01*
G01X444443Y270610D02*
X440978D01*
Y272145D01*
X444404D01*
X444443Y272106D01*
Y270610D01*
G01X440248Y284307D02*
X443713D01*
Y282772D01*
X440287D01*
X440248Y282811D01*
Y284307D01*
G01X450342Y246457D02*
X446877D01*
Y247992D01*
X450303D01*
X450342Y247953D01*
Y246457D01*
G01Y250627D02*
X446877D01*
Y252162D01*
X450303D01*
X450342Y252123D01*
Y250627D01*
G01Y252801D02*
X446877D01*
Y254336D01*
X450303D01*
X450342Y254297D01*
Y252801D01*
G01X450343Y248498D02*
X446878D01*
Y250033D01*
X450304D01*
X450343Y249994D01*
Y248498D01*
G01X448650Y258239D02*
Y257451D01*
G01X450343Y257058D02*
X446878D01*
Y258593D01*
X450304D01*
X450343Y258554D01*
Y257058D01*
G01X447713Y289807D02*
Y293272D01*
X449248D01*
Y289846D01*
X449209Y289807D01*
X447713D01*
G01X454868Y263765D02*
Y267230D01*
X456403D01*
Y263804D01*
X456364Y263765D01*
X454868D01*
G01X454132Y267243D02*
Y263778D01*
X452597D01*
Y267204D01*
X452636Y267243D01*
X454132D01*
G01X460997Y280059D02*
Y276594D01*
X459462D01*
Y280020D01*
X459501Y280059D01*
X460997D01*
G01X459816Y278366D02*
X460604D01*
M02*
