G04 ================== begin FILE IDENTIFICATION RECORD ==================*
G04 Layout Name:  BEAGLEV-AHEAD V11_no_logo.brd*
G04 Film Name:    silktop*
G04 File Format:  Gerber RS274X*
G04 File Origin:  Cadence Allegro 17.4-S035*
G04 Origin Date:  Wed Jul 12 11:35:00 2023*
G04 *
G04 Layer:  REF DES/SILKSCREEN_TOP*
G04 Layer:  PACKAGE GEOMETRY/SILKSCREEN_TOP*
G04 Layer:  BOARD GEOMETRY/OUTLINE*
G04 Layer:  BOARD GEOMETRY/SILKSCREEN_TOP*
G04 *
G04 Offset:    (0.00 0.00)*
G04 Mirror:    No*
G04 Mode:      Positive*
G04 Rotation:  0*
G04 FullContactRelief:  No*
G04 UndefLineWidth:     5.00*
G04 ================== end FILE IDENTIFICATION RECORD ====================*
%FSLAX25Y25*MOIN*%
%IR0*IPPOS*OFA0.00000B0.00000*MIA0B0*SFA1.00000B1.00000*%
%ADD10C,.01*%
%ADD11C,.004*%
%ADD12C,.005*%
%ADD13C,.006*%
%ADD14C,.00512*%
%ADD15C,.008*%
%ADD16C,.00315*%
%ADD17C,.0064*%
%ADD18C,.00787*%
G75*
%LPD*%
G75*
G36*
G01X140370Y243240D02*
X137370Y246240D01*
X140370Y249240D01*
X140870Y249740D01*
Y242740D01*
X140370Y243240D01*
G37*
G36*
G01X171403Y232078D02*
X173403D01*
X172403Y233078D01*
X171403Y232078D01*
G37*
G36*
G01X440666Y351592D02*
X445166Y356092D01*
X436166D01*
X440666Y351592D01*
G37*
G36*
G01X452336D02*
X456836Y356092D01*
X447836D01*
X452336Y351592D01*
G37*
G54D10*
G01X127429Y218163D02*
G03I-500J0D01*
G01X146920Y203440D02*
G03I-500J0D01*
G01X147020Y213240D02*
G03I-500J0D01*
G01X146940Y229134D02*
G03I-500J0D01*
G01X178944Y354166D02*
G03I-500J0D01*
G01X187157Y246590D02*
G03I-500J0D01*
G01X217090Y248850D02*
G03I-500J0D01*
G01X240837Y204734D02*
G03I-500J0D01*
G01X238889Y226232D02*
G03I-500J0D01*
G01X239622Y359951D02*
G03I-500J0D01*
G01X246722Y370350D02*
G03I-500J0D01*
G01X244628Y389221D02*
G03I-499J0D01*
G01X252270Y316300D02*
G03I-500J0D01*
G01X256585Y204456D02*
G03I-500J0D01*
G01X272837Y204534D02*
G03I-500J0D01*
G01X286563Y374066D02*
G03I-500J0D01*
G01X294085Y204556D02*
G03I-500J0D01*
G01X298733Y356784D02*
G03I-500J0D01*
G01X310237Y204234D02*
G03I-500J0D01*
G01X310425Y389220D02*
G03I-499J0D01*
G01X327685Y204256D02*
G03I-500J0D01*
G01X344485Y204356D02*
G03I-500J0D01*
G01X361885Y204256D02*
G03I-500J0D01*
G01X377337Y204334D02*
G03I-500J0D01*
G01X377157Y227824D02*
G03I-500J0D01*
G01X376533Y389115D02*
G03I-499J0D01*
G01X393085Y204356D02*
G03I-500J0D01*
G01X409237Y204434D02*
G03I-500J0D01*
G01X440067Y299320D02*
G03I-500J0D01*
G01Y305201D02*
G03I-500J0D01*
G01Y311189D02*
G03I-500J0D01*
G01Y317112D02*
G03I-500J0D01*
G01X445129Y305300D02*
G03I-500J0D01*
G01Y317137D02*
G03I-500J0D01*
G01X457137Y333034D02*
G03I-500J0D01*
G01X457660Y343710D02*
G03I-500J0D01*
G54D11*
G01X111945Y373412D02*
G03X116025I2040J-3489D01*
G01X116099Y357972D02*
G03I-2154J0D01*
G01X113945Y365892D02*
Y360132D01*
G01Y359252D02*
Y356692D01*
G01X112985Y364612D02*
X113945Y365892D01*
G01X114825Y364612D02*
X113945Y365892D01*
G01X116099Y369892D02*
G03I-2154J0D01*
G01X113065Y373652D02*
X113945Y372372D01*
G01D02*
X114905Y373652D01*
G01X113945Y379972D02*
Y372372D01*
G01X115225Y382212D02*
X112665D01*
G01X116099D02*
G03I-2154J0D01*
G01X113945Y383572D02*
Y381012D01*
G01X243160Y224910D02*
X240360Y225660D01*
X243160Y226410D01*
G01X242180Y226140D02*
Y225180D01*
G01X238889Y229132D02*
X236089D01*
X236649Y228772D01*
G01X238889D02*
Y229492D01*
G01Y257132D02*
X236089D01*
X236649Y256772D01*
G01X238889D02*
Y257492D01*
G01X236089Y259632D02*
X236182Y259392D01*
X236416Y259212D01*
X236696Y259092D01*
X237069Y259002D01*
X237489Y258972D01*
X237909Y259002D01*
X238282Y259092D01*
X238562Y259212D01*
X238796Y259392D01*
X238889Y259632D01*
X238796Y259872D01*
X238562Y260052D01*
X238282Y260172D01*
X237909Y260262D01*
X237489Y260292D01*
X237069Y260262D01*
X236696Y260172D01*
X236416Y260052D01*
X236182Y259872D01*
X236089Y259632D01*
G01X270900Y225060D02*
X268100D01*
G01Y226200D02*
X269827Y225060D01*
G01X270900Y226380D02*
X269033Y225570D01*
G01X294030Y352010D02*
X294780Y354810D01*
X295530Y352010D01*
G01X295260Y352990D02*
X294300D01*
G01X297280Y352010D02*
Y354810D01*
X296920Y354250D01*
G01Y352010D02*
X297640D01*
G54D12*
G01X103652Y202612D02*
X100687D01*
Y253203D01*
G01X100652Y247939D02*
X98152D01*
Y206939D01*
X100652D01*
G01X100687Y253203D02*
X103652D01*
G01X124692Y335530D02*
X107692D01*
G01Y343530D02*
X124692D01*
G01X107800Y344489D02*
X124800D01*
G03Y352489I-7375J4000D01*
G01X107800D01*
G01Y344489D02*
G02Y352489I7500J4000D01*
G01X117152Y202612D02*
X114652D01*
G01Y253203D02*
X117152D01*
G01X120372Y205439D02*
Y204939D01*
G01Y231439D02*
Y218939D01*
G01Y250939D02*
Y245439D01*
G01X127960Y207242D02*
X131898D01*
G01Y217084D02*
X127960D01*
G01X126093Y399967D02*
Y406573D01*
X122987D01*
Y399967D01*
X126093D01*
G01X130073D02*
Y406573D01*
X126967D01*
Y399967D01*
X130073D01*
G01X128435Y229631D02*
X135041D01*
Y232737D01*
X128435D01*
Y229631D01*
G01Y225631D02*
X135041D01*
Y228737D01*
X128435D01*
Y225631D01*
G01Y233531D02*
X135041D01*
Y236637D01*
X128435D01*
Y233531D01*
G01X130870Y241240D02*
Y238740D01*
G01X147870D02*
X130870D01*
G01Y253740D02*
Y251240D01*
G01Y253740D02*
X147870D01*
Y251240D01*
G01X134153Y399967D02*
Y406573D01*
X131047D01*
Y399967D01*
X134153D01*
G01X138983Y206940D02*
Y207940D01*
G01X139083Y216740D02*
Y217740D01*
G01X139003Y232634D02*
Y233634D01*
G01X141457Y402725D02*
X134851D01*
Y399619D01*
X141457D01*
Y402725D01*
G01X141473Y406903D02*
X134867D01*
Y403797D01*
X141473D01*
Y406903D01*
G01X144495Y205078D02*
X141345D01*
G01Y209802D02*
X144495D01*
G01X144595Y214878D02*
X141445D01*
G01Y219602D02*
X144595D01*
G01X144515Y230772D02*
X141365D01*
G01Y235496D02*
X144515D01*
G01X146857Y206940D02*
Y207940D01*
G01X146957Y216740D02*
Y217740D01*
G01X146877Y232634D02*
Y233634D01*
G01X147870Y241240D02*
Y238740D01*
G01X163645Y351866D02*
Y349566D01*
G01X168444Y345745D02*
X171544D01*
G01Y355587D02*
X168444D01*
G01X173978Y233940D02*
Y231216D01*
G01X170828D02*
Y233940D01*
G01X182932Y234656D02*
X175932D01*
Y247656D01*
X182932D01*
Y234656D01*
G01X175127Y382146D02*
X172214D01*
Y382540D01*
G01Y391792D02*
Y392382D01*
X175363D01*
Y393563D01*
X179301D01*
Y392382D01*
X182450D01*
Y391988D01*
G01X176243Y351766D02*
X176244Y349666D01*
G01X182450Y382146D02*
X179301D01*
G01X187826Y236956D02*
X196488D01*
G01X187826Y245224D02*
X196488D01*
G01X197827Y259302D02*
X186827D01*
Y254302D01*
X197827D01*
Y259302D01*
G01X182450Y382540D02*
Y382146D01*
G01X193297Y319589D02*
Y312983D01*
X196403D01*
Y319589D01*
X193297D01*
G01X188128Y334429D02*
Y330098D01*
X192459D01*
G01X188128Y373011D02*
Y375374D01*
X190096Y377342D01*
X192459D01*
G01X197497Y319639D02*
Y313033D01*
X200603D01*
Y319639D01*
X197497D01*
G01X206990Y237350D02*
Y243350D01*
G01X214090Y237350D02*
X211090D01*
G01X218097Y259302D02*
X207097D01*
Y254302D01*
X218097D01*
Y259302D01*
G01X215383Y290023D02*
X208777D01*
Y286917D01*
X215383D01*
Y290023D01*
G01X218190Y243350D02*
Y237350D01*
G01X241869Y212717D02*
X234869D01*
G01Y218623D02*
X241869D01*
G01X232559Y318397D02*
X236497D01*
G01X231041Y330098D02*
X235372D01*
Y334035D01*
G01X236497Y326271D02*
X232559D01*
G01X235372Y373011D02*
Y377342D01*
G01D02*
X231041D01*
G01X234377Y400721D02*
Y394721D01*
G01D02*
X294943D01*
Y400721D01*
G01Y410721D02*
Y415390D01*
X234377D01*
Y411221D01*
G01X249077Y203490D02*
X241597D01*
Y197978D01*
X249077D01*
Y203490D01*
G01X240185Y354739D02*
Y353163D01*
G01X245195Y264096D02*
Y274096D01*
X253195D01*
Y264096D01*
X245195D01*
G01X243925Y349030D02*
X244319D01*
G01Y358872D02*
X243925D01*
G01X253481Y264096D02*
Y274096D01*
X261481D01*
Y264096D01*
X253481D01*
G01X249908Y330749D02*
Y337749D01*
G01X248059Y353163D02*
Y354739D01*
G01X257722Y360750D02*
X251722D01*
G01Y371950D02*
X257722D01*
G01X264825Y203212D02*
X257345D01*
Y197700D01*
X264825D01*
Y203212D01*
G01X258670Y314879D02*
X261770D01*
G01X253971Y318700D02*
X253970Y320800D01*
G01X261770Y324721D02*
X258670D01*
G01X255814Y337749D02*
Y330749D01*
G01X257722Y367850D02*
Y364850D01*
G01X258440Y379206D02*
X256834D01*
G01X254503D02*
Y382356D01*
X256078D01*
G01X260803Y379206D02*
Y382356D01*
X259228D01*
G01X261767Y264096D02*
Y274096D01*
X269767D01*
Y264096D01*
X261767D01*
G01X263888Y379206D02*
Y382356D01*
X265463D01*
G01X266569Y318600D02*
Y320900D01*
G01X267825Y379206D02*
X266219D01*
G01X270188D02*
Y382356D01*
X268613D01*
G01X281077Y203290D02*
X273597D01*
Y197778D01*
X281077D01*
Y203290D01*
G01X275782Y245516D02*
X285782D01*
Y237516D01*
X275782D01*
Y245516D01*
G01Y254802D02*
X285782D01*
Y246802D01*
X275782D01*
Y254802D01*
G01X275639Y263257D02*
X285639D01*
Y255257D01*
X275639D01*
Y263257D01*
G01X277323Y375310D02*
X284803D01*
Y380822D01*
X277323D01*
Y375310D01*
G01X302325Y203312D02*
X294845D01*
Y197800D01*
X302325D01*
Y203312D01*
G01X300174Y400720D02*
Y394720D01*
G01D02*
X360740D01*
Y400720D01*
G01Y410720D02*
Y415389D01*
X300174D01*
Y411220D01*
G01X318477Y202990D02*
X310997D01*
Y197478D01*
X318477D01*
Y202990D01*
G01X335925Y203012D02*
X328445D01*
Y197500D01*
X335925D01*
Y203012D01*
G01X352725Y203112D02*
X345245D01*
Y197600D01*
X352725D01*
Y203112D01*
G01X370125Y203012D02*
X362645D01*
Y197500D01*
X370125D01*
Y203012D01*
G01X366282Y400615D02*
Y394615D01*
G01D02*
X426848D01*
Y400615D01*
G01Y410615D02*
Y415284D01*
X366282D01*
Y411115D01*
G01X385577Y203090D02*
X378097D01*
Y197578D01*
X385577D01*
Y203090D01*
G01X385397Y226580D02*
X377917D01*
Y221068D01*
X385397D01*
Y226580D01*
G01X401325Y203112D02*
X393845D01*
Y197600D01*
X401325D01*
Y203112D01*
G01X413559Y247875D02*
X406953D01*
Y244769D01*
X413559D01*
Y247875D01*
G01X413563Y251875D02*
X406957D01*
Y248769D01*
X413563D01*
Y251875D01*
G01X413567Y255875D02*
X406961D01*
Y252769D01*
X413567D01*
Y255875D01*
G01X413571Y265375D02*
X406965D01*
Y262269D01*
X413571D01*
Y265375D01*
G01X413639Y274141D02*
X407033D01*
Y271035D01*
X413639D01*
Y274141D01*
G01X413675Y278375D02*
X407069D01*
Y275269D01*
X413675D01*
Y278375D01*
G01X407065Y279855D02*
X413671D01*
Y282961D01*
X407065D01*
Y279855D01*
G01X417477Y203190D02*
X409997D01*
Y197678D01*
X417477D01*
Y203190D01*
G01X421477Y236357D02*
Y237144D01*
G01D02*
X417977D01*
G01D02*
Y243644D01*
G01D02*
X421477D01*
G01D02*
Y244337D01*
G01X474312Y229372D02*
X424544D01*
G01X429843Y285672D02*
X452453D01*
G01X436813Y326138D02*
Y322988D01*
X438388D01*
G01X439176Y326138D02*
X440782D01*
G01X439413Y337594D02*
X441019D01*
G01X437050D02*
Y334444D01*
X438625D01*
G01X435351Y345647D02*
X436532D01*
G01X435351D02*
Y362537D01*
X436532D01*
G01X440666Y351592D02*
X445166Y356092D01*
X436166D01*
X440666Y351592D01*
G01X436166D02*
X445166D01*
G01X442000Y294647D02*
X442201D01*
G01X442000Y300528D02*
X442201D01*
G01X442000Y297993D02*
X442201D01*
G01X442000Y303874D02*
X442201D01*
G01X442000Y306516D02*
X442201D01*
G01X442000Y312439D02*
X442201D01*
G01X442000Y309862D02*
X442201D01*
G01X442000Y315785D02*
X442201D01*
G01X443113Y326138D02*
Y322988D01*
X441538D01*
G01X443350Y337594D02*
Y334444D01*
X441775D01*
G01X445200Y334466D02*
Y338466D01*
X447200D01*
G01X444800Y345647D02*
X445981D01*
G01X440666Y357092D02*
Y350592D01*
G01X444800Y362537D02*
X445981D01*
G01X445660Y294379D02*
X449598D01*
G01X445660Y306216D02*
X449598D01*
G01Y304221D02*
X445660D01*
G01X449598Y316058D02*
X445660D01*
G01X453849Y323095D02*
Y329701D01*
X450743D01*
Y323095D01*
X453849D01*
G01X448700Y333466D02*
X449700D01*
G01X453200Y334466D02*
Y338466D01*
X451200D01*
G01X445981Y362537D02*
Y345647D01*
G01X447021D02*
X448202D01*
G01X447021D02*
Y362537D01*
X448202D01*
G01X452336Y351592D02*
X456836Y356092D01*
X447836D01*
X452336Y351592D01*
G01X447836D02*
X456836D01*
G01X485620Y292687D02*
X453337D01*
Y318277D01*
X485620D01*
G01X456470Y345647D02*
X457651D01*
G01X452336Y357092D02*
Y350592D01*
G01X456470Y362537D02*
X457651D01*
G01X459209Y285672D02*
X474768D01*
G01X465377Y331790D02*
X457897D01*
Y326278D01*
X465377D01*
Y331790D01*
G01X465277Y342390D02*
X457797D01*
Y336878D01*
X465277D01*
Y342390D01*
G01X457651Y362537D02*
Y345647D01*
G01X482446Y237144D02*
G02X474446Y258644I23158J20855D01*
G01X482438Y280349D02*
G03X474449Y258707I22548J-20619D01*
G01X482485Y280392D02*
Y234487D01*
G01X482865Y318277D02*
Y292687D01*
G01X485620Y318277D02*
Y292687D01*
G01X102854Y202566D02*
G03X127854Y177566I25000J0D01*
G01X102854Y391566D02*
Y202566D01*
G01X127854Y416566D02*
G03X102854Y391566I0J-25000D01*
G01X127854Y177566D02*
X432854D01*
G01Y416566D02*
X127854D01*
G01X432854Y177566D02*
G03X482854Y227566I0J50000D01*
G01Y366566D02*
G03X432854Y416566I-50000J0D01*
G01X482854Y227566D02*
Y366566D01*
G54D13*
G01X146962Y203118D02*
X138962D01*
Y207118D01*
X146962D01*
Y203118D01*
G01Y207818D02*
X138962D01*
Y211818D01*
X146962D01*
Y207818D01*
G01X147062Y217618D02*
X139062D01*
Y221618D01*
X147062D01*
Y217618D01*
G01X146962Y212918D02*
X138962D01*
Y216918D01*
X146962D01*
Y212918D01*
G01X146982Y228812D02*
X138982D01*
Y232812D01*
X146982D01*
Y228812D01*
G01Y233512D02*
X138982D01*
Y237512D01*
X146982D01*
Y233512D01*
G01X166515Y235342D02*
Y227842D01*
X154515D01*
Y235342D01*
G01Y239318D02*
Y246818D01*
X166515D01*
G01X162515Y238330D02*
X158515D01*
G01X162515Y236330D02*
X158515D01*
G01X168228Y238680D02*
Y246680D01*
X172228D01*
Y238680D01*
X168228D01*
G01X166515Y246818D02*
Y239830D01*
G01X168860Y361470D02*
X164360D01*
Y366470D01*
G01D02*
X168860D01*
G01X169460Y365070D02*
Y362770D01*
G01X183799Y222220D02*
X175799D01*
Y226220D01*
X183799D01*
Y222220D01*
G01Y227720D02*
X175799D01*
Y231720D01*
X183799D01*
Y227720D01*
G01X183142Y333678D02*
X175142D01*
Y337678D01*
X183142D01*
Y333678D01*
G01X183279Y338724D02*
X175279D01*
Y342724D01*
X183279D01*
Y338724D01*
G01X170860Y366470D02*
X175360D01*
Y361470D01*
X170860D01*
G01X170160Y365070D02*
Y362770D01*
G01X191470Y227312D02*
X186970D01*
Y232312D01*
G01D02*
X191470D01*
G01X191320Y248479D02*
X186820D01*
Y253479D01*
X191320D01*
G01X192070Y230912D02*
Y228612D01*
G01X192770Y230912D02*
Y228612D01*
G01X193470Y232312D02*
X197970D01*
Y227312D01*
X193470D01*
G01X197820Y248479D02*
X193320D01*
G01X192720Y249879D02*
Y252179D01*
G01X192020Y249879D02*
Y252179D01*
G01X193320Y253479D02*
X197820D01*
Y248479D01*
G01X192834Y312284D02*
Y320284D01*
X196834D01*
Y312284D01*
X192834D01*
G01X211790Y228715D02*
Y230315D01*
G01X211090Y228015D02*
X208090D01*
Y231015D01*
X211090D01*
G01X211681Y250158D02*
X208681D01*
Y253158D01*
X211681D01*
G01X211750Y291878D02*
Y293478D01*
G01X211050Y291178D02*
X208050D01*
Y294178D01*
X211050D01*
G01X211442Y300878D02*
Y302478D01*
G01X210742Y300178D02*
X207742D01*
Y303178D01*
X210742D01*
G01X211678Y304258D02*
Y312258D01*
X215678D01*
Y304258D01*
X211678D01*
G01X216090Y228015D02*
X213090D01*
G01X212390Y228715D02*
Y230315D01*
G01X213090Y231015D02*
X216090D01*
Y228015D01*
G01X216681Y250158D02*
X213681D01*
G01X212981Y250858D02*
Y252458D01*
G01X212381Y250858D02*
Y252458D01*
G01X213681Y253158D02*
X216681D01*
Y250158D01*
G01X216050Y291178D02*
X213050D01*
G01X212350Y291878D02*
Y293478D01*
G01X213050Y294178D02*
X216050D01*
Y291178D01*
G01X215742Y300178D02*
X212742D01*
G01X212042Y300878D02*
Y302478D01*
G01X212742Y303178D02*
X215742D01*
Y300178D01*
G01X226010Y242770D02*
Y239770D01*
X223010D01*
Y242770D01*
G01X225310Y244070D02*
X223710D01*
G01X225310Y243470D02*
X223710D01*
G01X223010Y244770D02*
Y247770D01*
X226010D01*
G01X229780Y228790D02*
X226780D01*
Y231790D01*
X229780D01*
G01X234870Y236740D02*
X226870D01*
Y240740D01*
X234870D01*
Y236740D01*
G01Y241540D02*
X226870D01*
Y245540D01*
X234870D01*
Y241540D01*
G01X226870Y250340D02*
X234870D01*
Y246340D01*
X226870D01*
Y250340D01*
G01X226010Y247770D02*
Y244770D01*
G01X231000Y259210D02*
Y251210D01*
X227000D01*
Y259210D01*
X231000D01*
G01X234770Y227920D02*
Y219920D01*
X230770D01*
Y227920D01*
X234770D01*
G01X234780Y228790D02*
X231780D01*
G01X231080Y229490D02*
Y231090D01*
G01X230480Y229490D02*
Y231090D01*
G01X231780Y231790D02*
X234780D01*
Y228790D01*
G01X244640Y272530D02*
Y264530D01*
X240640D01*
Y272530D01*
X244640D01*
G01X236830Y264620D02*
Y267620D01*
G01X239830D02*
Y264620D01*
X236830D01*
G01X237530Y268320D02*
X239130D01*
G01X237530Y268920D02*
X239130D01*
G01X236830Y269620D02*
Y272620D01*
X239830D01*
Y269620D01*
G01X239820Y276250D02*
Y280750D01*
G01X244820D02*
Y276250D01*
X239820D01*
G01X241220Y281350D02*
X243520D01*
G01X241220Y282050D02*
X243520D01*
G01X239820Y282750D02*
Y287250D01*
X244820D01*
Y282750D01*
G01X239950Y336822D02*
X242950D01*
G01Y333822D02*
X239950D01*
Y336822D01*
G01X240178Y338758D02*
Y346758D01*
X244178D01*
Y338758D01*
X240178D01*
G01X250560Y217770D02*
Y214770D01*
X247560D01*
Y217770D01*
G01Y219770D02*
Y222770D01*
X250560D01*
G01X245820Y276260D02*
Y280760D01*
G01X250820D02*
Y276260D01*
X245820D01*
G01X247220Y281360D02*
X249520D01*
G01X247220Y282060D02*
X249520D01*
G01X245820Y282760D02*
Y287260D01*
X250820D01*
Y282760D01*
G01X243650Y336122D02*
Y334522D01*
G01X244250Y336122D02*
Y334522D01*
G01X244950Y336822D02*
X247950D01*
Y333822D01*
X244950D01*
G01X254460Y217770D02*
Y214770D01*
X251460D01*
Y217770D01*
G01X253760Y219070D02*
X252160D01*
G01X253760Y218470D02*
X252160D01*
G01X251460Y219770D02*
Y222770D01*
X254460D01*
G01X250560D02*
Y219770D01*
G01X249860Y219070D02*
X248260D01*
G01X249860Y218470D02*
X248260D01*
G01X253283Y276552D02*
Y281052D01*
G01X258283D02*
Y276552D01*
X253283D01*
G01Y283052D02*
Y287552D01*
X258283D01*
Y283052D01*
G01X250178Y347358D02*
Y355358D01*
X254178D01*
Y347358D01*
X250178D01*
G01X262260Y217770D02*
Y214770D01*
X259260D01*
Y217770D01*
G01X258360D02*
Y214770D01*
X255360D01*
Y217770D01*
G01X259260Y219770D02*
Y222770D01*
X262260D01*
G01X258360D02*
Y219770D01*
G01X257660Y219070D02*
X256060D01*
G01X257660Y218470D02*
X256060D01*
G01X255360Y219770D02*
Y222770D01*
X258360D01*
G01X254460D02*
Y219770D01*
G01X264020Y281100D02*
Y276600D01*
X259020D01*
G01D02*
Y281100D01*
G01Y283100D02*
Y287600D01*
X264020D01*
Y283100D01*
G01X254683Y281652D02*
X256983D01*
G01X254683Y282352D02*
X256983D01*
G01X262946Y337937D02*
Y329937D01*
X258946D01*
Y337937D01*
X262946D01*
G01X255178Y347358D02*
Y355358D01*
X259178D01*
Y347358D01*
X255178D01*
G01X266160Y217770D02*
Y214770D01*
X263160D01*
Y217770D01*
G01X265460Y219070D02*
X263860D01*
G01X265460Y218470D02*
X263860D01*
G01X263160Y219770D02*
Y222770D01*
X266160D01*
G01X262260D02*
Y219770D01*
G01X261560Y219070D02*
X259960D01*
G01X261560Y218470D02*
X259960D01*
G01X269930Y281100D02*
Y276600D01*
X264930D01*
G01D02*
Y281100D01*
G01Y283100D02*
Y287600D01*
X269930D01*
Y283100D01*
G01X260420Y282400D02*
X262720D01*
G01X260420Y281700D02*
X262720D01*
G01X273960Y217770D02*
Y214770D01*
X270960D01*
Y217770D01*
G01X270060D02*
Y214770D01*
X267060D01*
Y217770D01*
G01X266160Y222770D02*
Y219770D01*
G01X273260Y219070D02*
X271660D01*
G01X273260Y218470D02*
X271660D01*
G01X270960Y219770D02*
Y222770D01*
X273960D01*
G01X270060D02*
Y219770D01*
G01X269360Y219070D02*
X267760D01*
G01X269360Y218470D02*
X267760D01*
G01X267060Y219770D02*
Y222770D01*
X270060D01*
G01X270800Y264750D02*
Y267750D01*
G01X273800D02*
Y264750D01*
X270800D01*
G01X271500Y268450D02*
X273100D01*
G01X271500Y269050D02*
X273100D01*
G01X270800Y269750D02*
Y272750D01*
X273800D01*
Y269750D01*
G01X275920Y281100D02*
Y276600D01*
X270920D01*
G01D02*
Y281100D01*
G01Y283100D02*
Y287600D01*
X275920D01*
Y283100D01*
G01X266330Y282400D02*
X268630D01*
G01X266330Y281700D02*
X268630D01*
G01X271223Y307386D02*
X279223D01*
Y303386D01*
X271223D01*
Y307386D01*
G01Y312136D02*
X279223D01*
Y308136D01*
X271223D01*
Y312136D01*
G01X274170Y312989D02*
X271170D01*
Y315989D01*
G01X275236Y325377D02*
Y317377D01*
X271236D01*
Y325377D01*
X275236D01*
G01X271170Y315989D02*
X274170D01*
G01X277860Y217770D02*
Y214770D01*
X274860D01*
Y217770D01*
G01X279070Y223980D02*
X276070D01*
Y226980D01*
G01X277860Y222770D02*
Y219770D01*
G01X277160Y219070D02*
X275560D01*
G01X277160Y218470D02*
X275560D01*
G01X274860Y219770D02*
Y222770D01*
X277860D01*
G01X273960D02*
Y219770D01*
G01X279100Y227650D02*
X276100D01*
Y230650D01*
G01X276070Y226980D02*
X279070D01*
G01X276150Y234500D02*
X279150D01*
G01Y231500D02*
X276150D01*
Y234500D01*
G01X276100Y230650D02*
X279100D01*
G01X272320Y282400D02*
X274620D01*
G01X272320Y281700D02*
X274620D01*
G01X274870Y315289D02*
Y313689D01*
G01X275470Y315289D02*
Y313689D01*
G01X276170Y315989D02*
X279170D01*
Y312989D01*
X276170D01*
G01X281070Y226980D02*
X284070D01*
Y223980D01*
X281070D01*
G01X279800Y229950D02*
Y228350D01*
G01X280400Y229950D02*
Y228350D01*
G01X281100Y230650D02*
X284100D01*
Y227650D01*
X281100D01*
G01X279770Y226280D02*
Y224680D01*
G01X280370Y226280D02*
Y224680D01*
G01X279850Y233800D02*
Y232200D01*
G01X280450Y233800D02*
Y232200D01*
G01X281150Y234500D02*
X284150D01*
Y231500D01*
X281150D01*
G01X291850Y235460D02*
Y230960D01*
X286850D01*
Y235460D01*
G01X290450Y236860D02*
X288150D01*
G01X290450Y236160D02*
X288150D01*
G01X286850Y237460D02*
Y241960D01*
X291850D01*
G01X291730Y245250D02*
X287230D01*
Y250250D01*
G01X291640Y251060D02*
X287140D01*
Y256060D01*
G01X287230Y250250D02*
X291730D01*
G01X287140Y256060D02*
X291640D01*
G01X291652Y256797D02*
X287152D01*
Y261797D01*
G01X291652Y262497D02*
X287152D01*
Y267497D01*
G01Y261797D02*
X291652D01*
G01X287152Y267497D02*
X291652D01*
G01X292134Y377730D02*
Y373230D01*
X287134D01*
Y377730D01*
G01X290734Y379130D02*
X288434D01*
G01X290734Y378430D02*
X288434D01*
G01X287134Y379730D02*
Y384230D01*
X292134D01*
G01X291850Y241960D02*
Y237460D01*
G01X292330Y248850D02*
Y246550D01*
G01X293030Y248850D02*
Y246550D01*
G01X293730Y250250D02*
X298230D01*
Y245250D01*
X293730D01*
G01X292240Y254660D02*
Y252360D01*
G01X292940Y254660D02*
Y252360D01*
G01X293640Y256060D02*
X298140D01*
Y251060D01*
X293640D01*
G01X292252Y260397D02*
Y258097D01*
G01X292952Y260397D02*
Y258097D01*
G01X293652Y261797D02*
X298152D01*
Y256797D01*
X293652D01*
G01X292252Y266097D02*
Y263797D01*
G01X292952Y266097D02*
Y263797D01*
G01X293652Y267497D02*
X298152D01*
Y262497D01*
X293652D01*
G01X292134Y384230D02*
Y379730D01*
G01X299205Y296256D02*
Y354524D01*
X299993Y355312D01*
X358261D01*
Y296256D01*
X299205D01*
G01X357700Y384011D02*
X353200D01*
Y389011D01*
G01D02*
X357700D01*
G01X358300Y387611D02*
Y385311D01*
G01X359000Y387611D02*
Y385311D01*
G01X359700Y389011D02*
X364200D01*
Y384011D01*
X359700D01*
G01X382000Y273000D02*
Y276000D01*
G01X382700Y276700D02*
X384300D01*
G01X382700Y277300D02*
X384300D01*
G01X385000Y276000D02*
Y273000D01*
X382000D01*
G01Y278000D02*
Y281000D01*
X385000D01*
Y278000D01*
G01X386500Y253500D02*
Y256500D01*
G01X389500D02*
Y253500D01*
X386500D01*
G01X387200Y257200D02*
X388800D01*
G01X387200Y257800D02*
X388800D01*
G01X386500Y258500D02*
Y261500D01*
X389500D01*
Y258500D01*
G01X415310Y381605D02*
Y383905D01*
G01X414610Y380205D02*
X410110D01*
Y385205D01*
X414610D01*
G01X421110Y380205D02*
X416610D01*
G01X416010Y381605D02*
Y383905D01*
G01X416610Y385205D02*
X421110D01*
Y380205D01*
G54D14*
G01X275074Y223547D02*
X235704D01*
G01D02*
Y262917D01*
G01X235746Y226426D02*
X238570Y223602D01*
G01X235704Y262917D02*
X275074D01*
G01X271137Y227484D02*
Y258980D01*
X239641D01*
Y227484D01*
X271137D01*
G01X275074Y262917D02*
Y223547D01*
G54D15*
G01X105244Y264867D02*
Y262000D01*
X105436Y261400D01*
X105820Y261000D01*
X106300Y260867D01*
X106780Y261000D01*
X107164Y261400D01*
X107356Y262000D01*
Y264867D01*
G01X108972Y261400D02*
X109356Y261067D01*
X109788Y260867D01*
X110172D01*
X110556Y261067D01*
X110844Y261400D01*
X110988Y261867D01*
X110892Y262334D01*
X110652Y262734D01*
X110220Y263000D01*
X109644Y263134D01*
X109308Y263400D01*
X109164Y263867D01*
X109260Y264334D01*
X109500Y264667D01*
X109836Y264867D01*
X110172D01*
X110508Y264734D01*
X110796Y264400D01*
G01X114044Y263000D02*
X114236Y263200D01*
X114380Y263534D01*
X114476Y264000D01*
X114380Y264400D01*
X114188Y264667D01*
X113852Y264867D01*
X112556D01*
Y260867D01*
X114140D01*
X114476Y261134D01*
X114668Y261534D01*
X114764Y262000D01*
X114668Y262467D01*
X114380Y262867D01*
X114044Y263000D01*
X112556D01*
G01X119964Y261667D02*
X120252Y261200D01*
X120636Y260934D01*
X121068Y260867D01*
X121452Y260934D01*
X121836Y261267D01*
X122076Y261667D01*
X122124Y262067D01*
X122028Y262534D01*
X121692Y262867D01*
X121356Y263000D01*
X120924D01*
G01X121356D02*
X121644Y263200D01*
X121884Y263534D01*
X121980Y263934D01*
X121884Y264334D01*
X121644Y264667D01*
X121212Y264867D01*
X120780Y264800D01*
X120348Y264534D01*
G01X124700Y260734D02*
X124604Y260800D01*
Y260934D01*
X124700Y261000D01*
X124796Y260934D01*
Y260800D01*
X124700Y260734D01*
G01X128380Y264867D02*
X127996Y264734D01*
X127708Y264400D01*
X127516Y264000D01*
X127372Y263467D01*
X127324Y262867D01*
X127372Y262267D01*
X127516Y261734D01*
X127708Y261334D01*
X127996Y261000D01*
X128380Y260867D01*
X128764Y261000D01*
X129052Y261334D01*
X129244Y261734D01*
X129388Y262267D01*
X129436Y262867D01*
X129388Y263467D01*
X129244Y264000D01*
X129052Y264400D01*
X128764Y264734D01*
X128380Y264867D01*
G01X109390Y361584D02*
X105390D01*
Y362544D01*
X105590Y362928D01*
X105857Y363216D01*
X106257Y363456D01*
X106723Y363648D01*
X107390Y363696D01*
X108057Y363648D01*
X108523Y363456D01*
X108923Y363216D01*
X109190Y362928D01*
X109390Y362544D01*
Y361584D01*
G01X105723Y367376D02*
X105523Y367088D01*
X105390Y366752D01*
Y366368D01*
X105590Y365936D01*
X105923Y365600D01*
X106323Y365360D01*
X106990Y365168D01*
X107590Y365120D01*
X108190Y365216D01*
X108590Y365360D01*
X108990Y365648D01*
X109257Y365984D01*
X109390Y366320D01*
Y366656D01*
X109257Y366992D01*
X109057Y367280D01*
X108790Y367520D01*
G01Y372624D02*
X109123Y372912D01*
X109323Y373248D01*
X109390Y373680D01*
X109257Y374112D01*
X108990Y374448D01*
X108523Y374688D01*
X107990Y374736D01*
X107457Y374640D01*
X107123Y374400D01*
X106857Y374064D01*
X106790Y373728D01*
X106857Y373392D01*
X107123Y372960D01*
X105390Y373104D01*
Y374400D01*
G01Y376160D02*
X109390Y377360D01*
X105390Y378560D01*
G01X172450Y395710D02*
X173650Y399710D01*
X174850Y395710D01*
G01X174418Y397110D02*
X172882D01*
G01X176226Y395710D02*
Y399710D01*
X178434Y395710D01*
Y399710D01*
G01X181010D02*
Y395710D01*
G01X179906Y399710D02*
X182114D01*
G01X246564Y385380D02*
Y389380D01*
X247524D01*
X247908Y389180D01*
X248196Y388913D01*
X248436Y388513D01*
X248628Y388047D01*
X248676Y387380D01*
X248628Y386713D01*
X248436Y386247D01*
X248196Y385847D01*
X247908Y385580D01*
X247524Y385380D01*
X246564D01*
G01X250292Y385913D02*
X250676Y385580D01*
X251108Y385380D01*
X251492D01*
X251876Y385580D01*
X252164Y385913D01*
X252308Y386380D01*
X252212Y386847D01*
X251972Y387247D01*
X251540Y387513D01*
X250964Y387647D01*
X250628Y387913D01*
X250484Y388380D01*
X250580Y388847D01*
X250820Y389180D01*
X251156Y389380D01*
X251492D01*
X251828Y389247D01*
X252116Y388913D01*
G01X254404Y389380D02*
X255556D01*
G01X254980D02*
Y385380D01*
G01X254404D02*
X255556D01*
G01X314586Y388797D02*
X314298Y388997D01*
X313962Y389130D01*
X313578D01*
X313146Y388930D01*
X312810Y388597D01*
X312570Y388197D01*
X312378Y387530D01*
X312330Y386930D01*
X312426Y386330D01*
X312570Y385930D01*
X312858Y385530D01*
X313194Y385263D01*
X313530Y385130D01*
X313866D01*
X314202Y385263D01*
X314490Y385463D01*
X314730Y385730D01*
G01X316202Y385663D02*
X316586Y385330D01*
X317018Y385130D01*
X317402D01*
X317786Y385330D01*
X318074Y385663D01*
X318218Y386130D01*
X318122Y386597D01*
X317882Y386997D01*
X317450Y387263D01*
X316874Y387397D01*
X316538Y387663D01*
X316394Y388130D01*
X316490Y388597D01*
X316730Y388930D01*
X317066Y389130D01*
X317402D01*
X317738Y388997D01*
X318026Y388663D01*
G01X320314Y389130D02*
X321466D01*
G01X320890D02*
Y385130D01*
G01X320314D02*
X321466D01*
G01X324570Y389130D02*
X324186Y388997D01*
X323898Y388663D01*
X323706Y388263D01*
X323562Y387730D01*
X323514Y387130D01*
X323562Y386530D01*
X323706Y385997D01*
X323898Y385597D01*
X324186Y385263D01*
X324570Y385130D01*
X324954Y385263D01*
X325242Y385597D01*
X325434Y385997D01*
X325578Y386530D01*
X325626Y387130D01*
X325578Y387730D01*
X325434Y388263D01*
X325242Y388663D01*
X324954Y388997D01*
X324570Y389130D01*
G01X380866Y388907D02*
X380578Y389107D01*
X380242Y389240D01*
X379858D01*
X379426Y389040D01*
X379090Y388707D01*
X378850Y388307D01*
X378658Y387640D01*
X378610Y387040D01*
X378706Y386440D01*
X378850Y386040D01*
X379138Y385640D01*
X379474Y385373D01*
X379810Y385240D01*
X380146D01*
X380482Y385373D01*
X380770Y385573D01*
X381010Y385840D01*
G01X382482Y385773D02*
X382866Y385440D01*
X383298Y385240D01*
X383682D01*
X384066Y385440D01*
X384354Y385773D01*
X384498Y386240D01*
X384402Y386707D01*
X384162Y387107D01*
X383730Y387373D01*
X383154Y387507D01*
X382818Y387773D01*
X382674Y388240D01*
X382770Y388707D01*
X383010Y389040D01*
X383346Y389240D01*
X383682D01*
X384018Y389107D01*
X384306Y388773D01*
G01X386594Y389240D02*
X387746D01*
G01X387170D02*
Y385240D01*
G01X386594D02*
X387746D01*
G01X390850D02*
Y389240D01*
X390274Y388440D01*
G01Y385240D02*
X391426D01*
G01X418342Y221827D02*
Y225827D01*
X419590Y222494D01*
X420838Y225827D01*
Y221827D01*
G01X423270Y224494D02*
Y221827D01*
G01Y225560D02*
X423174Y225627D01*
Y225760D01*
X423270Y225827D01*
X423366Y225760D01*
Y225627D01*
X423270Y225560D01*
G01X427718Y224160D02*
X427382Y224427D01*
X427094Y224494D01*
X426710Y224360D01*
X426422Y224094D01*
X426230Y223627D01*
X426182Y223160D01*
X426230Y222694D01*
X426422Y222294D01*
X426710Y221960D01*
X427094Y221827D01*
X427430Y221960D01*
X427718Y222227D01*
G01X429958Y221827D02*
Y224494D01*
G01Y223960D02*
X430198Y224227D01*
X430438Y224427D01*
X430774Y224494D01*
X431014Y224427D01*
X431302Y224227D01*
G01X434310Y221827D02*
X434022Y221894D01*
X433734Y222160D01*
X433542Y222627D01*
X433446Y223160D01*
X433542Y223694D01*
X433734Y224160D01*
X434022Y224427D01*
X434310Y224494D01*
X434598Y224427D01*
X434886Y224160D01*
X435078Y223694D01*
X435126Y223160D01*
X435078Y222627D01*
X434886Y222160D01*
X434598Y221894D01*
X434310Y221827D01*
G01X436550Y220494D02*
X439430D01*
G01X440662Y222360D02*
X441046Y222027D01*
X441478Y221827D01*
X441862D01*
X442246Y222027D01*
X442534Y222360D01*
X442678Y222827D01*
X442582Y223294D01*
X442342Y223694D01*
X441910Y223960D01*
X441334Y224094D01*
X440998Y224360D01*
X440854Y224827D01*
X440950Y225294D01*
X441190Y225627D01*
X441526Y225827D01*
X441862D01*
X442198Y225694D01*
X442486Y225360D01*
G01X444294Y221827D02*
Y225827D01*
X445254D01*
X445638Y225627D01*
X445926Y225360D01*
X446166Y224960D01*
X446358Y224494D01*
X446406Y223827D01*
X446358Y223160D01*
X446166Y222694D01*
X445926Y222294D01*
X445638Y222027D01*
X445254Y221827D01*
X444294D01*
G01X468512Y320227D02*
Y324227D01*
G01X470528D02*
Y320227D01*
G01Y322227D02*
X468512D01*
G01X472144Y320227D02*
Y324227D01*
X473104D01*
X473488Y324027D01*
X473776Y323760D01*
X474016Y323360D01*
X474208Y322894D01*
X474256Y322227D01*
X474208Y321560D01*
X474016Y321094D01*
X473776Y320694D01*
X473488Y320427D01*
X473104Y320227D01*
X472144D01*
G01X475632D02*
Y324227D01*
X476880Y320894D01*
X478128Y324227D01*
Y320227D01*
G01X479984Y324227D02*
X481136D01*
G01X480560D02*
Y320227D01*
G01X479984D02*
X481136D01*
G54D16*
G01X131893Y224812D02*
X128428D01*
Y223277D01*
X131854D01*
X131893Y223316D01*
Y224812D01*
G01X131892Y222527D02*
X128427D01*
Y220992D01*
X131853D01*
X131892Y221031D01*
Y222527D01*
G01X151113Y215791D02*
Y216579D01*
G01X152806Y216972D02*
X149341D01*
Y215437D01*
X152767D01*
X152806Y215476D01*
Y216972D01*
G01X152813Y219098D02*
X149348D01*
Y217563D01*
X152774D01*
X152813Y217602D01*
Y219098D01*
G01X151120Y217917D02*
Y218705D01*
G01X168243Y236383D02*
Y232918D01*
X169778D01*
Y236344D01*
X169739Y236383D01*
X168243D01*
G01X166030Y339406D02*
Y340194D01*
G01X167723Y340587D02*
X164258D01*
Y339052D01*
X167684D01*
X167723Y339091D01*
Y340587D01*
G01X172823Y340720D02*
X173611D01*
G01X174004Y339027D02*
Y342492D01*
X172469D01*
Y339066D01*
X172508Y339027D01*
X174004D01*
G01X178025Y368680D02*
X174560D01*
Y367145D01*
X177986D01*
X178025Y367184D01*
Y368680D01*
G01Y375407D02*
X174560D01*
Y373872D01*
X177986D01*
X178025Y373911D01*
Y375407D01*
G01X179870Y220162D02*
Y220950D01*
G01X181563Y221343D02*
X178098D01*
Y219808D01*
X181524D01*
X181563Y219847D01*
Y221343D01*
G01X176332Y367499D02*
Y368287D01*
G01X178119Y369459D02*
Y372924D01*
X176584D01*
Y369498D01*
X176623Y369459D01*
X178119D01*
G01X176332Y374226D02*
Y375014D01*
G01X192142Y286892D02*
X188677D01*
Y285357D01*
X192103D01*
X192142Y285396D01*
Y286892D01*
G01Y289224D02*
X188677D01*
Y287689D01*
X192103D01*
X192142Y287728D01*
Y289224D01*
G01Y291559D02*
X188677D01*
Y290024D01*
X192103D01*
X192142Y290063D01*
Y291559D01*
G01X197092Y291578D02*
X193627D01*
Y290043D01*
X197053D01*
X197092Y290082D01*
Y291578D01*
G01X193457Y297868D02*
X196922D01*
Y299403D01*
X193496D01*
X193457Y299364D01*
Y297868D01*
G01Y305868D02*
X196922D01*
Y307403D01*
X193496D01*
X193457Y307364D01*
Y305868D01*
G01Y308368D02*
X196922D01*
Y309903D01*
X193496D01*
X193457Y309864D01*
Y308368D01*
G01X196357Y282028D02*
Y285493D01*
X194822D01*
Y282067D01*
X194861Y282028D01*
X196357D01*
G01X197587Y281745D02*
X201052D01*
Y283280D01*
X197626D01*
X197587Y283241D01*
Y281745D01*
G01X201013Y281175D02*
X197548D01*
Y279640D01*
X200974D01*
X201013Y279679D01*
Y281175D01*
G01X196318Y286038D02*
Y289503D01*
X194783D01*
Y286077D01*
X194822Y286038D01*
X196318D01*
G01X197587Y283845D02*
X201052D01*
Y285380D01*
X197626D01*
X197587Y285341D01*
Y283845D01*
G01Y288045D02*
X201052D01*
Y289580D01*
X197626D01*
X197587Y289541D01*
Y288045D01*
G01X201013Y287475D02*
X197548D01*
Y285940D01*
X200974D01*
X201013Y285979D01*
Y287475D01*
G01Y291575D02*
X197548D01*
Y290040D01*
X200974D01*
X201013Y290079D01*
Y291575D01*
G01X198951Y294550D02*
X199739D01*
G01X200132Y292857D02*
Y296322D01*
X198597D01*
Y292896D01*
X198636Y292857D01*
X200132D01*
G01X195951Y294850D02*
X196739D01*
G01X197132Y293157D02*
Y296622D01*
X195597D01*
Y293196D01*
X195636Y293157D01*
X197132D01*
G01X195150Y299049D02*
Y298261D01*
G01Y307049D02*
Y306261D01*
G01Y309549D02*
Y308761D01*
G01X198549Y310850D02*
X197761D01*
G01X197368Y312543D02*
Y309078D01*
X198903D01*
Y312504D01*
X198864Y312543D01*
X197368D01*
G01X204955Y233337D02*
Y236802D01*
X203420D01*
Y233376D01*
X203459Y233337D01*
X204955D01*
G01Y237537D02*
Y241002D01*
X203420D01*
Y237576D01*
X203459Y237537D01*
X204955D01*
G01X204686Y322828D02*
Y326293D01*
X203151D01*
Y322867D01*
X203190Y322828D01*
X204686D01*
G01X207018D02*
Y326293D01*
X205483D01*
Y322867D01*
X205522Y322828D01*
X207018D01*
G01X214043Y297132D02*
X210578D01*
Y295597D01*
X214004D01*
X214043Y295636D01*
Y297132D01*
G01X214193Y299287D02*
X210728D01*
Y297752D01*
X214154D01*
X214193Y297791D01*
Y299287D01*
G01X209351Y322828D02*
Y326293D01*
X207816D01*
Y322867D01*
X207855Y322828D01*
X209351D01*
G01X212500Y298106D02*
Y298894D01*
G01X212350Y295951D02*
Y296739D01*
G01X216020Y322828D02*
Y326293D01*
X214485D01*
Y322867D01*
X214524Y322828D01*
X216020D01*
G01X219353D02*
Y326293D01*
X217818D01*
Y322867D01*
X217857Y322828D01*
X219353D01*
G01X230843Y235917D02*
X227378D01*
Y234382D01*
X230804D01*
X230843Y234421D01*
Y235917D01*
G01X235667Y220983D02*
X239132D01*
Y222518D01*
X235706D01*
X235667Y222479D01*
Y220983D01*
G01X233089Y234737D02*
Y235525D01*
G01X234782Y235918D02*
X231317D01*
Y234383D01*
X234743D01*
X234782Y234422D01*
Y235918D01*
G01X233070Y232736D02*
Y233524D01*
G01X234763Y233917D02*
X231298D01*
Y232382D01*
X234724D01*
X234763Y232421D01*
Y233917D01*
G01X231687Y250853D02*
X235152D01*
Y252388D01*
X231726D01*
X231687Y252349D01*
Y250853D01*
G01X231717Y253123D02*
X235182D01*
Y254658D01*
X231756D01*
X231717Y254619D01*
Y253123D01*
G01X231777Y257773D02*
X235242D01*
Y259308D01*
X231816D01*
X231777Y259269D01*
Y257773D01*
G01X231807Y260813D02*
X235272D01*
Y262348D01*
X231846D01*
X231807Y262309D01*
Y260813D01*
G01X243693Y222557D02*
X240228D01*
Y221022D01*
X243654D01*
X243693Y221061D01*
Y222557D01*
G01X237360Y222164D02*
Y221376D01*
G01X241357Y360988D02*
X244822D01*
Y362523D01*
X241396D01*
X241357Y362484D01*
Y360988D01*
G01X241328Y363147D02*
X244793D01*
Y364682D01*
X241367D01*
X241328Y364643D01*
Y363147D01*
G01X243803Y384057D02*
X240338D01*
Y382522D01*
X243764D01*
X243803Y382561D01*
Y384057D01*
G01Y386187D02*
X240338D01*
Y384652D01*
X243764D01*
X243803Y384691D01*
Y386187D01*
G01X242000Y221376D02*
Y222164D01*
G01X246707Y340868D02*
Y344333D01*
X245172D01*
Y340907D01*
X245211Y340868D01*
X246707D01*
G01X243050Y362169D02*
Y361381D01*
G01X255065Y199688D02*
X251600D01*
Y198153D01*
X255026D01*
X255065Y198192D01*
Y199688D01*
G01X251639Y196212D02*
X255104D01*
Y197747D01*
X251678D01*
X251639Y197708D01*
Y196212D01*
G01X253332Y203393D02*
Y202605D01*
G01X251639Y202212D02*
X255104D01*
Y203747D01*
X251678D01*
X251639Y203708D01*
Y202212D01*
G01X253332Y201393D02*
Y200605D01*
G01X251639Y200212D02*
X255104D01*
Y201747D01*
X251678D01*
X251639Y201708D01*
Y200212D01*
G01X257064Y331630D02*
X257852D01*
G01X258245Y329937D02*
Y333402D01*
X256710D01*
Y329976D01*
X256749Y329937D01*
X258245D01*
G01X256671Y337989D02*
Y334524D01*
X258206D01*
Y337950D01*
X258167Y337989D01*
X256671D01*
G01X262880Y342768D02*
X259415D01*
Y341233D01*
X262841D01*
X262880Y341272D01*
Y342768D01*
G01X256671Y342013D02*
Y338548D01*
X258206D01*
Y341974D01*
X258167Y342013D01*
X256671D01*
G01X257852Y340320D02*
X257064D01*
G01X259807Y348258D02*
X263272D01*
Y349793D01*
X259846D01*
X259807Y349754D01*
Y348258D01*
G01X261172Y388155D02*
X257707D01*
Y386620D01*
X261133D01*
X261172Y386659D01*
Y388155D01*
G01X268172Y331172D02*
X264707D01*
Y329637D01*
X268133D01*
X268172Y329676D01*
Y331172D01*
G01X268173Y333132D02*
X264708D01*
Y331597D01*
X268134D01*
X268173Y331636D01*
Y333132D01*
G01X268172Y337007D02*
X264707D01*
Y335472D01*
X268133D01*
X268172Y335511D01*
Y337007D01*
G01X268173Y335132D02*
X264708D01*
Y333597D01*
X268134D01*
X268173Y333636D01*
Y335132D01*
G01X268172Y340341D02*
X264707D01*
Y338806D01*
X268133D01*
X268172Y338845D01*
Y340341D01*
G01X267173Y349832D02*
X263708D01*
Y348297D01*
X267134D01*
X267173Y348336D01*
Y349832D01*
G01X261500Y349439D02*
Y348651D01*
G01X267172Y354511D02*
X263707D01*
Y352976D01*
X267133D01*
X267172Y353015D01*
Y354511D01*
G01X267173Y352632D02*
X263708D01*
Y351097D01*
X267134D01*
X267173Y351136D01*
Y352632D01*
G01Y356632D02*
X263708D01*
Y355097D01*
X267134D01*
X267173Y355136D01*
Y356632D01*
G01X267172Y360844D02*
X263707D01*
Y359309D01*
X267133D01*
X267172Y359348D01*
Y360844D01*
G01X267173Y358632D02*
X263708D01*
Y357097D01*
X267134D01*
X267173Y357136D01*
Y358632D01*
G01X265232Y366165D02*
Y369630D01*
X263697D01*
Y366204D01*
X263736Y366165D01*
X265232D01*
G01X264859Y363500D02*
X264071D01*
G01X263678Y365193D02*
Y361728D01*
X265213D01*
Y365154D01*
X265174Y365193D01*
X263678D01*
G01X263648Y375372D02*
Y371907D01*
X265183D01*
Y375333D01*
X265144Y375372D01*
X263648D01*
G01X262328Y386581D02*
X265793D01*
Y388116D01*
X262367D01*
X262328Y388077D01*
Y386581D01*
G01X270665Y199788D02*
X267200D01*
Y198253D01*
X270626D01*
X270665Y198292D01*
Y199788D01*
G01X267239Y196312D02*
X270704D01*
Y197847D01*
X267278D01*
X267239Y197808D01*
Y196312D01*
G01X268932Y203493D02*
Y202705D01*
G01X267239Y202312D02*
X270704D01*
Y203847D01*
X267278D01*
X267239Y203808D01*
Y202312D01*
G01X268932Y201493D02*
Y200705D01*
G01X267239Y200312D02*
X270704D01*
Y201847D01*
X267278D01*
X267239Y201808D01*
Y200312D01*
G01X266348Y299900D02*
X269813D01*
Y301435D01*
X266387D01*
X266348Y301396D01*
Y299900D01*
G01Y297810D02*
X269813D01*
Y299345D01*
X266387D01*
X266348Y299306D01*
Y297810D01*
G01X266567Y309708D02*
X270032D01*
Y311243D01*
X266606D01*
X266567Y311204D01*
Y309708D01*
G01X266568Y311664D02*
X270033D01*
Y313199D01*
X266607D01*
X266568Y313160D01*
Y311664D01*
G01X268468Y321471D02*
Y318006D01*
X270003D01*
Y321432D01*
X269964Y321471D01*
X268468D01*
G01X268807Y315871D02*
X269595D01*
G01X269988Y314178D02*
Y317643D01*
X268453D01*
Y314217D01*
X268492Y314178D01*
X269988D01*
G01X269603Y323629D02*
X268815D01*
G01X268422Y325322D02*
Y321857D01*
X269957D01*
Y325283D01*
X269918Y325322D01*
X268422D01*
G01X266198Y363870D02*
X269663D01*
Y365405D01*
X266237D01*
X266198Y365366D01*
Y363870D01*
G01Y361850D02*
X269663D01*
Y363385D01*
X266237D01*
X266198Y363346D01*
Y361850D01*
G01X267014Y375372D02*
Y371907D01*
X268549D01*
Y375333D01*
X268510Y375372D01*
X267014D01*
G01X279733Y236797D02*
X276268D01*
Y235262D01*
X279694D01*
X279733Y235301D01*
Y236797D01*
G01X274223Y268213D02*
Y264748D01*
X275758D01*
Y268174D01*
X275719Y268213D01*
X274223D01*
G01X272335Y378812D02*
X275800D01*
Y380347D01*
X272374D01*
X272335Y380308D01*
Y378812D01*
G01X274068Y377207D02*
Y377995D01*
G01X275761Y378388D02*
X272296D01*
Y376853D01*
X275722D01*
X275761Y376892D01*
Y378388D01*
G01X274068Y375307D02*
Y376095D01*
G01X275761Y376488D02*
X272296D01*
Y374953D01*
X275722D01*
X275761Y374992D01*
Y376488D01*
G01Y382288D02*
X272296D01*
Y380753D01*
X275722D01*
X275761Y380792D01*
Y382288D01*
G01X287065Y199588D02*
X283600D01*
Y198053D01*
X287026D01*
X287065Y198092D01*
Y199588D01*
G01X283639Y196112D02*
X287104D01*
Y197647D01*
X283678D01*
X283639Y197608D01*
Y196112D01*
G01X281240Y205528D02*
Y208993D01*
X279705D01*
Y205567D01*
X279744Y205528D01*
X281240D01*
G01X283639Y202112D02*
X287104D01*
Y203647D01*
X283678D01*
X283639Y203608D01*
Y202112D01*
G01Y200112D02*
X287104D01*
Y201647D01*
X283678D01*
X283639Y201608D01*
Y200112D01*
G01X283450Y281172D02*
Y277707D01*
X284985D01*
Y281133D01*
X284946Y281172D01*
X283450D01*
G01X281117D02*
Y277707D01*
X282652D01*
Y281133D01*
X282613Y281172D01*
X281117D01*
G01X286033Y388192D02*
X282568D01*
Y386657D01*
X285994D01*
X286033Y386696D01*
Y388192D01*
G01X285332Y203293D02*
Y202505D01*
G01Y201293D02*
Y200505D01*
G01X288116Y281172D02*
Y277707D01*
X289651D01*
Y281133D01*
X289612Y281172D01*
X288116D01*
G01X285783D02*
Y277707D01*
X287318D01*
Y281133D01*
X287279Y281172D01*
X285783D01*
G01X284340Y387011D02*
Y387799D01*
G01X292484Y281172D02*
Y277707D01*
X294019D01*
Y281133D01*
X293980Y281172D01*
X292484D01*
G01X294651D02*
Y277707D01*
X296186D01*
Y281133D01*
X296147Y281172D01*
X294651D01*
G01X290318D02*
Y277707D01*
X291853D01*
Y281133D01*
X291814Y281172D01*
X290318D01*
G01X294173Y289405D02*
X290708D01*
Y287870D01*
X294134D01*
X294173Y287909D01*
Y289405D01*
G01X294172Y297674D02*
X290707D01*
Y296139D01*
X294133D01*
X294172Y296178D01*
Y297674D01*
G01X294043Y315172D02*
X290578D01*
Y313637D01*
X294004D01*
X294043Y313676D01*
Y315172D01*
G01X308465Y199588D02*
X305000D01*
Y198053D01*
X308426D01*
X308465Y198092D01*
Y199588D01*
G01X305039Y196112D02*
X308504D01*
Y197647D01*
X305078D01*
X305039Y197608D01*
Y196112D01*
G01X306732Y201293D02*
Y200505D01*
G01X305039Y200112D02*
X308504D01*
Y201647D01*
X305078D01*
X305039Y201608D01*
Y200112D01*
G01X306732Y203293D02*
Y202505D01*
G01X305039Y202112D02*
X308504D01*
Y203647D01*
X305078D01*
X305039Y203608D01*
Y202112D01*
G01X324465Y199288D02*
X321000D01*
Y197753D01*
X324426D01*
X324465Y197792D01*
Y199288D01*
G01X321039Y195812D02*
X324504D01*
Y197347D01*
X321078D01*
X321039Y197308D01*
Y195812D01*
G01Y199812D02*
X324504D01*
Y201347D01*
X321078D01*
X321039Y201308D01*
Y199812D01*
G01X322732Y202993D02*
Y202205D01*
G01X321039Y201812D02*
X324504D01*
Y203347D01*
X321078D01*
X321039Y203308D01*
Y201812D01*
G01X322732Y200993D02*
Y200205D01*
G01X341865Y199388D02*
X338400D01*
Y197853D01*
X341826D01*
X341865Y197892D01*
Y199388D01*
G01X338439Y195912D02*
X341904D01*
Y197447D01*
X338478D01*
X338439Y197408D01*
Y195912D01*
G01X340132Y203093D02*
Y202305D01*
G01X338439Y201912D02*
X341904D01*
Y203447D01*
X338478D01*
X338439Y203408D01*
Y201912D01*
G01X340132Y201093D02*
Y200305D01*
G01X338439Y199912D02*
X341904D01*
Y201447D01*
X338478D01*
X338439Y201408D01*
Y199912D01*
G01X358665Y199588D02*
X355200D01*
Y198053D01*
X358626D01*
X358665Y198092D01*
Y199588D01*
G01X355239Y196112D02*
X358704D01*
Y197647D01*
X355278D01*
X355239Y197608D01*
Y196112D01*
G01Y202112D02*
X358704D01*
Y203647D01*
X355278D01*
X355239Y203608D01*
Y202112D01*
G01Y200112D02*
X358704D01*
Y201647D01*
X355278D01*
X355239Y201608D01*
Y200112D01*
G01X350327Y366123D02*
X353792D01*
Y367658D01*
X350366D01*
X350327Y367619D01*
Y366123D01*
G01X350860Y388559D02*
Y385094D01*
X352395D01*
Y388520D01*
X352356Y388559D01*
X350860D01*
G01X352041Y386866D02*
X351253D01*
G01X356932Y203293D02*
Y202505D01*
G01Y201293D02*
Y200505D01*
G01X365736Y366122D02*
X369201D01*
Y367657D01*
X365775D01*
X365736Y367618D01*
Y366122D01*
G01X376065Y199288D02*
X372600D01*
Y197753D01*
X376026D01*
X376065Y197792D01*
Y199288D01*
G01X372639Y195812D02*
X376104D01*
Y197347D01*
X372678D01*
X372639Y197308D01*
Y195812D01*
G01Y199812D02*
X376104D01*
Y201347D01*
X372678D01*
X372639Y201308D01*
Y199812D01*
G01Y201812D02*
X376104D01*
Y203347D01*
X372678D01*
X372639Y203308D01*
Y201812D01*
G01X374332Y200993D02*
Y200205D01*
G01Y202993D02*
Y202205D01*
G01X378500Y251106D02*
Y251894D01*
G01X380193Y252287D02*
X376728D01*
Y250752D01*
X380154D01*
X380193Y250791D01*
Y252287D01*
G01X391565Y199588D02*
X388100D01*
Y198053D01*
X391526D01*
X391565Y198092D01*
Y199588D01*
G01X388139Y196112D02*
X391604D01*
Y197647D01*
X388178D01*
X388139Y197608D01*
Y196112D01*
G01X389832Y201293D02*
Y200505D01*
G01X388139Y200112D02*
X391604D01*
Y201647D01*
X388178D01*
X388139Y201608D01*
Y200112D01*
G01X389832Y203293D02*
Y202505D01*
G01X388139Y202112D02*
X391604D01*
Y203647D01*
X388178D01*
X388139Y203608D01*
Y202112D01*
G01X391385Y222878D02*
X387920D01*
Y221343D01*
X391346D01*
X391385Y221382D01*
Y222878D01*
G01X387959Y219402D02*
X391424D01*
Y220937D01*
X387998D01*
X387959Y220898D01*
Y219402D01*
G01X389652Y224583D02*
Y223795D01*
G01X387959Y223402D02*
X391424D01*
Y224937D01*
X387998D01*
X387959Y224898D01*
Y223402D01*
G01X389652Y226583D02*
Y225795D01*
G01X387959Y225402D02*
X391424D01*
Y226937D01*
X387998D01*
X387959Y226898D01*
Y225402D01*
G01X390606Y258000D02*
X391394D01*
G01X391787Y256307D02*
Y259772D01*
X390252D01*
Y256346D01*
X390291Y256307D01*
X391787D01*
G01X390213Y269193D02*
Y265728D01*
X391748D01*
Y269154D01*
X391709Y269193D01*
X390213D01*
G01X386213D02*
Y265728D01*
X387748D01*
Y269154D01*
X387709Y269193D01*
X386213D01*
G01X387394Y267500D02*
X386606D01*
G01X391106Y275500D02*
X391894D01*
G01X392287Y273807D02*
Y277272D01*
X390752D01*
Y273846D01*
X390791Y273807D01*
X392287D01*
G01X386106Y275500D02*
X386894D01*
G01X387287Y273807D02*
Y277272D01*
X385752D01*
Y273846D01*
X385791Y273807D01*
X387287D01*
G01X388606Y275500D02*
X389394D01*
G01X389787Y273807D02*
Y277272D01*
X388252D01*
Y273846D01*
X388291Y273807D01*
X389787D01*
G01X392606Y258000D02*
X393394D01*
G01X393787Y256307D02*
Y259772D01*
X392252D01*
Y256346D01*
X392291Y256307D01*
X393787D01*
G01X397000Y261606D02*
Y262394D01*
G01X398693Y262787D02*
X395228D01*
Y261252D01*
X398654D01*
X398693Y261291D01*
Y262787D01*
G01X396510Y267896D02*
Y268684D01*
G01X398203Y269077D02*
X394738D01*
Y267542D01*
X398164D01*
X398203Y267581D01*
Y269077D01*
G01X401328Y245485D02*
X404793D01*
Y247020D01*
X401367D01*
X401328Y246981D01*
Y245485D01*
G01Y249652D02*
X404793D01*
Y251187D01*
X401367D01*
X401328Y251148D01*
Y249652D01*
G01Y253319D02*
X404793D01*
Y254854D01*
X401367D01*
X401328Y254815D01*
Y253319D01*
G01Y271486D02*
X404793D01*
Y273021D01*
X401367D01*
X401328Y272982D01*
Y271486D01*
G01Y276153D02*
X404793D01*
Y277688D01*
X401367D01*
X401328Y277649D01*
Y276153D01*
G01X401565Y280718D02*
X405030D01*
Y282253D01*
X401604D01*
X401565Y282214D01*
Y280718D01*
G01X407365Y199388D02*
X403900D01*
Y197853D01*
X407326D01*
X407365Y197892D01*
Y199388D01*
G01X403939Y195912D02*
X407404D01*
Y197447D01*
X403978D01*
X403939Y197408D01*
Y195912D01*
G01X405632Y203093D02*
Y202305D01*
G01X403939Y201912D02*
X407404D01*
Y203447D01*
X403978D01*
X403939Y203408D01*
Y201912D01*
G01X405632Y201093D02*
Y200305D01*
G01X403939Y199912D02*
X407404D01*
Y201447D01*
X403978D01*
X403939Y201408D01*
Y199912D01*
G01X417923Y388282D02*
X414458D01*
Y386747D01*
X417884D01*
X417923Y386786D01*
Y388282D01*
G01X423365Y199688D02*
X419900D01*
Y198153D01*
X423326D01*
X423365Y198192D01*
Y199688D01*
G01X419939Y196212D02*
X423404D01*
Y197747D01*
X419978D01*
X419939Y197708D01*
Y196212D01*
G01Y202212D02*
X423404D01*
Y203747D01*
X419978D01*
X419939Y203708D01*
Y202212D01*
G01Y200212D02*
X423404D01*
Y201747D01*
X419978D01*
X419939Y201708D01*
Y200212D01*
G01X416230Y387101D02*
Y387889D01*
G01X421632Y203393D02*
Y202605D01*
G01Y201393D02*
Y200605D01*
G01X433012Y328165D02*
Y324700D01*
X434547D01*
Y328126D01*
X434508Y328165D01*
X433012D01*
G01Y323835D02*
Y320370D01*
X434547D01*
Y323796D01*
X434508Y323835D01*
X433012D01*
G01X431668Y337823D02*
Y334358D01*
X433203D01*
Y337784D01*
X433164Y337823D01*
X431668D01*
G01X434125Y337822D02*
Y334357D01*
X435660D01*
Y337783D01*
X435621Y337822D01*
X434125D01*
G01X440371Y294562D02*
X443836D01*
Y296097D01*
X440410D01*
X440371Y296058D01*
Y294562D01*
G01Y300442D02*
X443836D01*
Y301977D01*
X440410D01*
X440371Y301938D01*
Y300442D01*
G01Y296512D02*
X443836D01*
Y298047D01*
X440410D01*
X440371Y298008D01*
Y296512D01*
G01X440381Y306422D02*
X443846D01*
Y307957D01*
X440420D01*
X440381Y307918D01*
Y306422D01*
G01X440371Y302392D02*
X443836D01*
Y303927D01*
X440410D01*
X440371Y303888D01*
Y302392D01*
G01Y312352D02*
X443836D01*
Y313887D01*
X440410D01*
X440371Y313848D01*
Y312352D01*
G01X440381Y308372D02*
X443846D01*
Y309907D01*
X440420D01*
X440381Y309868D01*
Y308372D01*
G01X440371Y314302D02*
X443836D01*
Y315837D01*
X440410D01*
X440371Y315798D01*
Y314302D01*
G01X447609Y323528D02*
Y326993D01*
X446074D01*
Y323567D01*
X446113Y323528D01*
X447609D01*
G01X448258Y326952D02*
Y323487D01*
X449793D01*
Y326913D01*
X449754Y326952D01*
X448258D01*
G01X467939Y324612D02*
X471404D01*
Y326147D01*
X467978D01*
X467939Y326108D01*
Y324612D01*
G01X471365Y328088D02*
X467900D01*
Y326553D01*
X471326D01*
X471365Y326592D01*
Y328088D01*
G01X467939Y330612D02*
X471404D01*
Y332147D01*
X467978D01*
X467939Y332108D01*
Y330612D01*
G01Y328612D02*
X471404D01*
Y330147D01*
X467978D01*
X467939Y330108D01*
Y328612D01*
G01X471265Y338688D02*
X467800D01*
Y337153D01*
X471226D01*
X471265Y337192D01*
Y338688D01*
G01X467839Y335212D02*
X471304D01*
Y336747D01*
X467878D01*
X467839Y336708D01*
Y335212D01*
G01Y341212D02*
X471304D01*
Y342747D01*
X467878D01*
X467839Y342708D01*
Y341212D01*
G01Y339212D02*
X471304D01*
Y340747D01*
X467878D01*
X467839Y340708D01*
Y339212D01*
G01X469632Y331793D02*
Y331005D01*
G01Y329793D02*
Y329005D01*
G01X469532Y342393D02*
Y341605D01*
G01Y340393D02*
Y339605D01*
G54D17*
G01X114345Y369972D02*
G03I-400J0D01*
G54D18*
G01X186159Y374586D02*
G03I-787J0D01*
G01X366131Y284871D02*
Y241563D01*
X307075D01*
Y284871D01*
X366131D01*
G01X363375D02*
X366131Y282115D01*
G01X369646Y347442D02*
X412954D01*
Y288386D01*
X369646D01*
Y347442D01*
G01Y344686D02*
X372402Y347442D01*
M02*
