G04 ================== begin FILE IDENTIFICATION RECORD ==================*
G04 Layout Name:  BEAGLEV-AHEAD V11_no_logo.brd*
G04 Film Name:    soldtop*
G04 File Format:  Gerber RS274X*
G04 File Origin:  Cadence Allegro 17.4-S035*
G04 Origin Date:  Wed Jul 12 11:35:00 2023*
G04 *
G04 Layer:  PIN/SOLDERMASK_TOP*
G04 Layer:  PACKAGE GEOMETRY/SOLDERMASK_TOP*
G04 Layer:  BOARD GEOMETRY/OUTLINE*
G04 Layer:  BOARD GEOMETRY/SOLDERMASK_TOP*
G04 *
G04 Offset:    (0.00 0.00)*
G04 Mirror:    No*
G04 Mode:      Positive*
G04 Rotation:  0*
G04 FullContactRelief:  No*
G04 UndefLineWidth:     5.00*
G04 ================== end FILE IDENTIFICATION RECORD ====================*
%FSLAX25Y25*MOIN*%
%IR0*IPPOS*OFA0.00000B0.00000*MIA0B0*SFA1.00000B1.00000*%
%AMMACRO87*
4,1,44,.00787,.01378,
-.00787,.01378,
-.008212,.013751,
-.008544,.013663,
-.008856,.013519,
-.009137,.013322,
-.009381,.01308,
-.009579,.012799,
-.009724,.012488,
-.009814,.012157,
-.009845,.011815,
-.00984,.01181,
-.00984,-.01181,
-.009815,-.012152,
-.009726,-.012484,
-.009581,-.012795,
-.009384,-.013076,
-.009141,-.013319,
-.00886,-.013516,
-.008549,-.013661,
-.008217,-.01375,
-.007875,-.01378,
-.00787,-.01378,
.00787,-.01378,
.008212,-.013751,
.008544,-.013663,
.008856,-.013519,
.009137,-.013322,
.009381,-.01308,
.009579,-.012799,
.009724,-.012488,
.009814,-.012157,
.009845,-.011815,
.00984,-.01181,
.00984,.01181,
.009815,.012152,
.009726,.012484,
.009581,.012795,
.009384,.013076,
.009141,.013319,
.00886,.013516,
.008549,.013661,
.008217,.01375,
.007875,.01378,
.00787,.01378,
0.0*
%
%ADD87MACRO87*%
%AMMACRO45*
4,1,44,.01574,.03346,
-.01574,.03346,
-.016424,.033406,
-.017088,.033229,
-.017711,.03294,
-.018274,.032546,
-.01876,.032061,
-.019155,.031499,
-.019446,.030877,
-.019624,.030214,
-.019685,.02953,
-.01968,.02952,
-.01968,-.02952,
-.019626,-.030204,
-.019449,-.030868,
-.01916,-.031491,
-.018766,-.032054,
-.018281,-.03254,
-.017719,-.032935,
-.017097,-.033226,
-.016434,-.033404,
-.01575,-.033465,
-.01574,-.03346,
.01574,-.03346,
.016424,-.033406,
.017088,-.033229,
.017711,-.03294,
.018274,-.032546,
.01876,-.032061,
.019155,-.031499,
.019446,-.030877,
.019624,-.030214,
.019685,-.02953,
.01968,-.02952,
.01968,.02952,
.019626,.030204,
.019449,.030868,
.01916,.031491,
.018766,.032054,
.018281,.03254,
.017719,.032935,
.017097,.033226,
.016434,.033404,
.01575,.033465,
.01574,.03346,
0.0*
%
%ADD45MACRO45*%
%AMMACRO83*
4,1,44,.03503,.01378,
-.03503,.01378,
-.035714,.013721,
-.036378,.013544,
-.037001,.013255,
-.037564,.012861,
-.03805,.012376,
-.038445,.011814,
-.038736,.011192,
-.038914,.010529,
-.038975,.009845,
-.03897,.00984,
-.03897,-.00984,
-.038915,-.010524,
-.038737,-.011188,
-.038447,-.01181,
-.038053,-.012373,
-.037568,-.012858,
-.037005,-.013252,
-.036383,-.013542,
-.035719,-.01372,
-.035035,-.01378,
-.03503,-.01378,
.03503,-.01378,
.035714,-.013721,
.036378,-.013544,
.037001,-.013255,
.037564,-.012861,
.03805,-.012376,
.038445,-.011814,
.038736,-.011192,
.038914,-.010529,
.038975,-.009845,
.03897,-.00984,
.03897,.00984,
.038915,.010524,
.038737,.011188,
.038447,.01181,
.038053,.012373,
.037568,.012858,
.037005,.013252,
.036383,.013542,
.035719,.01372,
.035035,.01378,
.03503,.01378,
0.0*
%
%ADD83MACRO83*%
%AMMACRO43*
4,1,40,.01553,.01947,
-.01553,.01947,
-.016214,.01941,
-.016878,.019232,
-.0175,.018942,
-.018063,.018548,
-.018548,.018063,
-.018942,.0175,
-.019232,.016878,
-.01941,.016214,
-.01947,.01553,
-.01947,-.01553,
-.01941,-.016214,
-.019232,-.016878,
-.018942,-.0175,
-.018548,-.018063,
-.018063,-.018548,
-.0175,-.018942,
-.016878,-.019232,
-.016214,-.01941,
-.01553,-.01947,
.01553,-.01947,
.016214,-.01941,
.016878,-.019232,
.0175,-.018942,
.018063,-.018548,
.018548,-.018063,
.018942,-.0175,
.019232,-.016878,
.01941,-.016214,
.01947,-.01553,
.01947,.01553,
.01941,.016214,
.019232,.016878,
.018942,.0175,
.018548,.018063,
.018063,.018548,
.0175,.018942,
.016878,.019232,
.016214,.01941,
.01553,.01947,
0.0*
%
%ADD43MACRO43*%
%AMMACRO95*
4,1,44,.02756,.03149,
-.02756,.03149,
-.028927,.031376,
-.030252,.031022,
-.031496,.030443,
-.03262,.029657,
-.033591,.028688,
-.034378,.027564,
-.034959,.026321,
-.035315,.024997,
-.035435,.02363,
-.03543,.02362,
-.03543,-.02362,
-.035316,-.024987,
-.034962,-.026312,
-.034383,-.027556,
-.033597,-.02868,
-.032628,-.029651,
-.031504,-.030438,
-.030261,-.031019,
-.028937,-.031375,
-.02757,-.031495,
-.02756,-.03149,
.02756,-.03149,
.028927,-.031376,
.030252,-.031022,
.031496,-.030443,
.03262,-.029657,
.033591,-.028688,
.034378,-.027564,
.034959,-.026321,
.035315,-.024997,
.035435,-.02363,
.03543,-.02362,
.03543,.02362,
.035316,.024987,
.034962,.026312,
.034383,.027556,
.033597,.02868,
.032628,.029651,
.031504,.030438,
.030261,.031019,
.028937,.031375,
.02757,.031495,
.02756,.03149,
0.0*
%
%ADD95MACRO95*%
%ADD58C,.022*%
%ADD74C,.0122*%
%ADD52C,.024*%
%ADD41C,.035*%
%ADD10O,.10236X.04134*%
%ADD38R,.04X.04*%
%ADD50C,.066*%
%ADD77C,.079*%
%ADD14C,.04724*%
%ADD57C,.01575*%
%ADD51R,.066X.066*%
%AMMACRO24*
4,1,40,-.00984,-.01181,
.00984,-.01181,
.010182,-.01178,
.010514,-.011691,
.010825,-.011546,
.011106,-.011349,
.011349,-.011106,
.011546,-.010825,
.011691,-.010514,
.01178,-.010182,
.01181,-.00984,
.01181,.00984,
.01178,.010182,
.011691,.010514,
.011546,.010825,
.011349,.011106,
.011106,.011349,
.010825,.011546,
.010514,.011691,
.010182,.01178,
.00984,.01181,
-.00984,.01181,
-.010182,.01178,
-.010514,.011691,
-.010825,.011546,
-.011106,.011349,
-.011349,.011106,
-.011546,.010825,
-.011691,.010514,
-.01178,.010182,
-.01181,.00984,
-.01181,-.00984,
-.01178,-.010182,
-.011691,-.010514,
-.011546,-.010825,
-.011349,-.011106,
-.011106,-.011349,
-.010825,-.011546,
-.010514,-.011691,
-.010182,-.01178,
-.00984,-.01181,
0.0*
%
%ADD24MACRO24*%
%AMMACRO22*
4,1,40,.01181,-.00984,
.01181,.00984,
.01178,.010182,
.011691,.010514,
.011546,.010825,
.011349,.011106,
.011106,.011349,
.010825,.011546,
.010514,.011691,
.010182,.01178,
.00984,.01181,
-.00984,.01181,
-.010182,.01178,
-.010514,.011691,
-.010825,.011546,
-.011106,.011349,
-.011349,.011106,
-.011546,.010825,
-.011691,.010514,
-.01178,.010182,
-.01181,.00984,
-.01181,-.00984,
-.01178,-.010182,
-.011691,-.010514,
-.011546,-.010825,
-.011349,-.011106,
-.011106,-.011349,
-.010825,-.011546,
-.010514,-.011691,
-.010182,-.01178,
-.00984,-.01181,
.00984,-.01181,
.010182,-.01178,
.010514,-.011691,
.010825,-.011546,
.011106,-.011349,
.011349,-.011106,
.011546,-.010825,
.011691,-.010514,
.01178,-.010182,
.01181,-.00984,
0.0*
%
%ADD22MACRO22*%
%ADD13C,.0748*%
%ADD48C,.02756*%
%AMMACRO37*
4,1,40,.01575,-.015,
.01575,.015,
.01572,.015342,
.015631,.015674,
.015486,.015985,
.015289,.016266,
.015046,.016509,
.014765,.016706,
.014454,.016851,
.014122,.01694,
.01378,.01697,
-.01378,.01697,
-.014122,.01694,
-.014454,.016851,
-.014765,.016706,
-.015046,.016509,
-.015289,.016266,
-.015486,.015985,
-.015631,.015674,
-.01572,.015342,
-.01575,.015,
-.01575,-.015,
-.01572,-.015342,
-.015631,-.015674,
-.015486,-.015985,
-.015289,-.016266,
-.015046,-.016509,
-.014765,-.016706,
-.014454,-.016851,
-.014122,-.01694,
-.01378,-.01697,
.01378,-.01697,
.014122,-.01694,
.014454,-.016851,
.014765,-.016706,
.015046,-.016509,
.015289,-.016266,
.015486,-.015985,
.015631,-.015674,
.01572,-.015342,
.01575,-.015,
0.0*
%
%ADD37MACRO37*%
%ADD21O,.16142X.08268*%
%AMMACRO73*
4,1,39,.0059,.00196,
.005811,.002985,
.005545,.00398,
.00511,.004913,
.00452,.005756,
.003793,.006484,
.00295,.007075,
.002017,.007511,
.001023,.007778,
-.000002,.007868,
-.001028,.007779,
-.002022,.007513,
-.002955,.007078,
-.003799,.006488,
-.004527,.005761,
-.005118,.004918,
-.005553,.003985,
-.00582,.002991,
-.00591,.001966,
-.00591,.00196,
-.00591,-.00198,
-.00582,-.003005,
-.005553,-.003999,
-.005117,-.004932,
-.004526,-.005775,
-.003798,-.006502,
-.002954,-.007092,
-.002021,-.007526,
-.001027,-.007792,
-.000001,-.007881,
.001024,-.007791,
.002018,-.007524,
.002951,-.007088,
.003794,-.006497,
.004521,-.005769,
.005111,-.004925,
.005545,-.003992,
.005811,-.002998,
.0059,-.00198,
.0059,.00196,
0.0*
%
%ADD73MACRO73*%
%AMMACRO72*
4,1,39,.00556,-.00279,
.006219,-.001999,
.006734,-.001108,
.007087,-.000141,
.007267,.000873,
.007267,.001902,
.007089,.002916,
.006738,.003883,
.006224,.004775,
.005563,.005564,
.004775,.006226,
.003884,.006741,
.002917,.007094,
.001903,.007274,
.000874,.007274,
-.00014,.007096,
-.001108,.006745,
-.001999,.006231,
-.002788,.00557,
-.00279,.00556,
-.00558,.00278,
-.00624,.00199,
-.006754,.001098,
-.007106,.000131,
-.007284,-.000883,
-.007283,-.001912,
-.007104,-.002926,
-.006751,-.003893,
-.006236,-.004784,
-.005574,-.005572,
-.004785,-.006233,
-.003893,-.006747,
-.002926,-.007099,
-.001912,-.007277,
-.000883,-.007276,
.000131,-.007097,
.001098,-.006744,
.001989,-.006229,
.00277,-.00557,
.00556,-.00279,
0.0*
%
%ADD72MACRO72*%
%ADD17O,.08268X.16142*%
%AMMACRO94*
4,1,44,.02165,-.00492,
.02165,.00492,
.021625,.005262,
.021536,.005594,
.021391,.005905,
.021194,.006186,
.020951,.006429,
.02067,.006626,
.020359,.006771,
.020027,.00686,
.019685,.00689,
.01968,.00689,
-.01968,.00689,
-.020022,.006861,
-.020354,.006773,
-.020666,.006629,
-.020947,.006432,
-.021191,.00619,
-.021389,.005909,
-.021534,.005598,
-.021624,.005267,
-.021655,.004925,
-.02165,.00492,
-.02165,-.00492,
-.021625,-.005262,
-.021536,-.005594,
-.021391,-.005905,
-.021194,-.006186,
-.020951,-.006429,
-.02067,-.006626,
-.020359,-.006771,
-.020027,-.00686,
-.019685,-.00689,
-.01968,-.00689,
.01968,-.00689,
.020022,-.006861,
.020354,-.006773,
.020666,-.006629,
.020947,-.006432,
.021191,-.00619,
.021389,-.005909,
.021534,-.005598,
.021624,-.005267,
.021655,-.004925,
.02165,-.00492,
0.0*
%
%ADD94MACRO94*%
%ADD78R,.079X.079*%
%AMMACRO71*
4,1,39,.00196,-.0059,
.002985,-.005811,
.00398,-.005545,
.004913,-.00511,
.005756,-.00452,
.006484,-.003793,
.007075,-.00295,
.007511,-.002017,
.007778,-.001023,
.007868,.000002,
.007779,.001028,
.007513,.002022,
.007078,.002955,
.006488,.003799,
.005761,.004527,
.004918,.005118,
.003985,.005553,
.002991,.00582,
.001966,.00591,
.00196,.00591,
-.00198,.00591,
-.003005,.00582,
-.003999,.005553,
-.004932,.005117,
-.005775,.004526,
-.006502,.003798,
-.007092,.002954,
-.007526,.002021,
-.007792,.001027,
-.007881,.000001,
-.007791,-.001024,
-.007524,-.002018,
-.007088,-.002951,
-.006497,-.003794,
-.005769,-.004521,
-.004925,-.005111,
-.003992,-.005545,
-.002998,-.005811,
-.00198,-.0059,
.00196,-.0059,
0.0*
%
%ADD71MACRO71*%
%AMMACRO85*
4,1,40,.02756,-.01969,
.02756,.01969,
.02744,.021057,
.027085,.022382,
.026506,.023625,
.025719,.024749,
.024749,.025719,
.023625,.026506,
.022382,.027085,
.021057,.02744,
.01969,.02756,
-.01969,.02756,
-.021057,.02744,
-.022382,.027085,
-.023625,.026506,
-.024749,.025719,
-.025719,.024749,
-.026506,.023625,
-.027085,.022382,
-.02744,.021057,
-.02756,.01969,
-.02756,-.01969,
-.02744,-.021057,
-.027085,-.022382,
-.026506,-.023625,
-.025719,-.024749,
-.024749,-.025719,
-.023625,-.026506,
-.022382,-.027085,
-.021057,-.02744,
-.01969,-.02756,
.01969,-.02756,
.021057,-.02744,
.022382,-.027085,
.023625,-.026506,
.024749,-.025719,
.025719,-.024749,
.026506,-.023625,
.027085,-.022382,
.02744,-.021057,
.02756,-.01969,
0.0*
%
%ADD85MACRO85*%
%AMMACRO65*
4,1,44,-.0059,-.02756,
.0059,-.02756,
.006242,-.027531,
.006574,-.027443,
.006886,-.027299,
.007167,-.027102,
.007411,-.02686,
.007609,-.026579,
.007754,-.026268,
.007844,-.025937,
.007875,-.025595,
.00787,-.02559,
.00787,.02559,
.007845,.025932,
.007756,.026264,
.007611,.026575,
.007414,.026856,
.007171,.027099,
.00689,.027296,
.006579,.027441,
.006247,.02753,
.005905,.02756,
.0059,.02756,
-.0059,.02756,
-.006242,.027531,
-.006574,.027443,
-.006886,.027299,
-.007167,.027102,
-.007411,.02686,
-.007609,.026579,
-.007754,.026268,
-.007844,.025937,
-.007875,.025595,
-.00787,.02559,
-.00787,-.02559,
-.007845,-.025932,
-.007756,-.026264,
-.007611,-.026575,
-.007414,-.026856,
-.007171,-.027099,
-.00689,-.027296,
-.006579,-.027441,
-.006247,-.02753,
-.005905,-.02756,
-.0059,-.02756,
0.0*
%
%ADD65MACRO65*%
%ADD31C,.06693*%
%AMMACRO92*
4,1,40,.0187,-.00492,
.0187,.00492,
.01867,.005262,
.018581,.005594,
.018436,.005905,
.018239,.006186,
.017996,.006429,
.017715,.006626,
.017404,.006771,
.017072,.00686,
.01673,.00689,
-.01673,.00689,
-.017072,.00686,
-.017404,.006771,
-.017715,.006626,
-.017996,.006429,
-.018239,.006186,
-.018436,.005905,
-.018581,.005594,
-.01867,.005262,
-.0187,.00492,
-.0187,-.00492,
-.01867,-.005262,
-.018581,-.005594,
-.018436,-.005905,
-.018239,-.006186,
-.017996,-.006429,
-.017715,-.006626,
-.017404,-.006771,
-.017072,-.00686,
-.01673,-.00689,
.01673,-.00689,
.017072,-.00686,
.017404,-.006771,
.017715,-.006626,
.017996,-.006429,
.018239,-.006186,
.018436,-.005905,
.018581,-.005594,
.01867,-.005262,
.0187,-.00492,
0.0*
%
%ADD92MACRO92*%
%AMMACRO69*
4,1,40,-.00984,-.01378,
.00984,-.01378,
.010182,-.01375,
.010514,-.013661,
.010825,-.013516,
.011106,-.013319,
.011349,-.013076,
.011546,-.012795,
.011691,-.012484,
.01178,-.012152,
.01181,-.01181,
.01181,.01181,
.01178,.012152,
.011691,.012484,
.011546,.012795,
.011349,.013076,
.011106,.013319,
.010825,.013516,
.010514,.013661,
.010182,.01375,
.00984,.01378,
-.00984,.01378,
-.010182,.01375,
-.010514,.013661,
-.010825,.013516,
-.011106,.013319,
-.011349,.013076,
-.011546,.012795,
-.011691,.012484,
-.01178,.012152,
-.01181,.01181,
-.01181,-.01181,
-.01178,-.012152,
-.011691,-.012484,
-.011546,-.012795,
-.011349,-.013076,
-.011106,-.013319,
-.010825,-.013516,
-.010514,-.013661,
-.010182,-.01375,
-.00984,-.01378,
0.0*
%
%ADD69MACRO69*%
%ADD23R,.01378X.01378*%
%AMMACRO19*
4,1,44,.01575,-.00787,
.01575,.00787,
.015721,.008212,
.015633,.008544,
.015489,.008856,
.015292,.009137,
.01505,.009381,
.014769,.009579,
.014458,.009724,
.014127,.009814,
.013785,.009845,
.01378,.00984,
-.01378,.00984,
-.014122,.009815,
-.014454,.009726,
-.014765,.009581,
-.015046,.009384,
-.015289,.009141,
-.015486,.00886,
-.015631,.008549,
-.01572,.008217,
-.01575,.007875,
-.01575,.00787,
-.01575,-.00787,
-.015721,-.008212,
-.015633,-.008544,
-.015489,-.008856,
-.015292,-.009137,
-.01505,-.009381,
-.014769,-.009579,
-.014458,-.009724,
-.014127,-.009814,
-.013785,-.009845,
-.01378,-.00984,
.01378,-.00984,
.014122,-.009815,
.014454,-.009726,
.014765,-.009581,
.015046,-.009384,
.015289,-.009141,
.015486,-.00886,
.015631,-.008549,
.01572,-.008217,
.01575,-.007875,
.01575,-.00787,
0.0*
%
%ADD19MACRO19*%
%AMMACRO91*
4,1,40,.02953,-.01969,
.02953,.01969,
.02941,.021057,
.029055,.022382,
.028476,.023625,
.027689,.024749,
.026719,.025719,
.025595,.026506,
.024352,.027085,
.023027,.02744,
.02166,.02756,
-.02166,.02756,
-.023027,.02744,
-.024352,.027085,
-.025595,.026506,
-.026719,.025719,
-.027689,.024749,
-.028476,.023625,
-.029055,.022382,
-.02941,.021057,
-.02953,.01969,
-.02953,-.01969,
-.02941,-.021057,
-.029055,-.022382,
-.028476,-.023625,
-.027689,-.024749,
-.026719,-.025719,
-.025595,-.026506,
-.024352,-.027085,
-.023027,-.02744,
-.02166,-.02756,
.02166,-.02756,
.023027,-.02744,
.024352,-.027085,
.025595,-.026506,
.026719,-.025719,
.027689,-.024749,
.028476,-.023625,
.029055,-.022382,
.02941,-.021057,
.02953,-.01969,
0.0*
%
%ADD91MACRO91*%
%AMMACRO66*
4,1,40,.03197,-.01303,
.03197,.01303,
.03191,.013714,
.031732,.014378,
.031442,.015,
.031048,.015563,
.030563,.016048,
.03,.016442,
.029378,.016732,
.028714,.01691,
.02803,.01697,
-.02803,.01697,
-.028714,.01691,
-.029378,.016732,
-.03,.016442,
-.030563,.016048,
-.031048,.015563,
-.031442,.015,
-.031732,.014378,
-.03191,.013714,
-.03197,.01303,
-.03197,-.01303,
-.03191,-.013714,
-.031732,-.014378,
-.031442,-.015,
-.031048,-.015563,
-.030563,-.016048,
-.03,-.016442,
-.029378,-.016732,
-.028714,-.01691,
-.02803,-.01697,
.02803,-.01697,
.028714,-.01691,
.029378,-.016732,
.03,-.016442,
.030563,-.016048,
.031048,-.015563,
.031442,-.015,
.031732,-.014378,
.03191,-.013714,
.03197,-.01303,
0.0*
%
%ADD66MACRO66*%
%ADD11R,.07874X.07874*%
%AMMACRO27*
4,1,44,.01673,-.00787,
.01673,.00787,
.016701,.008212,
.016613,.008544,
.016469,.008856,
.016272,.009137,
.01603,.009381,
.015749,.009579,
.015438,.009724,
.015107,.009814,
.014765,.009845,
.01476,.00984,
-.01476,.00984,
-.015102,.009815,
-.015434,.009726,
-.015745,.009581,
-.016026,.009384,
-.016269,.009141,
-.016466,.00886,
-.016611,.008549,
-.0167,.008217,
-.01673,.007875,
-.01673,.00787,
-.01673,-.00787,
-.016701,-.008212,
-.016613,-.008544,
-.016469,-.008856,
-.016272,-.009137,
-.01603,-.009381,
-.015749,-.009579,
-.015438,-.009724,
-.015107,-.009814,
-.014765,-.009845,
-.01476,-.00984,
.01476,-.00984,
.015102,-.009815,
.015434,-.009726,
.015745,-.009581,
.016026,-.009384,
.016269,-.009141,
.016466,-.00886,
.016611,-.008549,
.0167,-.008217,
.01673,-.007875,
.01673,-.00787,
0.0*
%
%ADD27MACRO27*%
%AMMACRO88*
4,1,40,.0374,-.02894,
.0374,.02894,
.03728,.030307,
.036925,.031632,
.036346,.032875,
.035559,.033999,
.034589,.034969,
.033465,.035756,
.032222,.036335,
.030897,.03669,
.02953,.03681,
-.02953,.03681,
-.030897,.03669,
-.032222,.036335,
-.033465,.035756,
-.034589,.034969,
-.035559,.033999,
-.036346,.032875,
-.036925,.031632,
-.03728,.030307,
-.0374,.02894,
-.0374,-.02894,
-.03728,-.030307,
-.036925,-.031632,
-.036346,-.032875,
-.035559,-.033999,
-.034589,-.034969,
-.033465,-.035756,
-.032222,-.036335,
-.030897,-.03669,
-.02953,-.03681,
.02953,-.03681,
.030897,-.03669,
.032222,-.036335,
.033465,-.035756,
.034589,-.034969,
.035559,-.033999,
.036346,-.032875,
.036925,-.031632,
.03728,-.030307,
.0374,-.02894,
0.0*
%
%ADD88MACRO88*%
%AMMACRO68*
4,1,44,-.00787,-.01378,
.00787,-.01378,
.008212,-.013751,
.008544,-.013663,
.008856,-.013519,
.009137,-.013322,
.009381,-.01308,
.009579,-.012799,
.009724,-.012488,
.009814,-.012157,
.009845,-.011815,
.00984,-.01181,
.00984,.01181,
.009815,.012152,
.009726,.012484,
.009581,.012795,
.009384,.013076,
.009141,.013319,
.00886,.013516,
.008549,.013661,
.008217,.01375,
.007875,.01378,
.00787,.01378,
-.00787,.01378,
-.008212,.013751,
-.008544,.013663,
-.008856,.013519,
-.009137,.013322,
-.009381,.01308,
-.009579,.012799,
-.009724,.012488,
-.009814,.012157,
-.009845,.011815,
-.00984,.01181,
-.00984,-.01181,
-.009815,-.012152,
-.009726,-.012484,
-.009581,-.012795,
-.009384,-.013076,
-.009141,-.013319,
-.00886,-.013516,
-.008549,-.013661,
-.008217,-.01375,
-.007875,-.01378,
-.00787,-.01378,
0.0*
%
%ADD68MACRO68*%
%AMMACRO39*
4,1,40,.02947,-.01803,
.02947,.01803,
.02941,.018714,
.029232,.019378,
.028942,.02,
.028548,.020563,
.028063,.021048,
.0275,.021442,
.026878,.021732,
.026214,.02191,
.02553,.02197,
-.02553,.02197,
-.026214,.02191,
-.026878,.021732,
-.0275,.021442,
-.028063,.021048,
-.028548,.020563,
-.028942,.02,
-.029232,.019378,
-.02941,.018714,
-.02947,.01803,
-.02947,-.01803,
-.02941,-.018714,
-.029232,-.019378,
-.028942,-.02,
-.028548,-.020563,
-.028063,-.021048,
-.0275,-.021442,
-.026878,-.021732,
-.026214,-.02191,
-.02553,-.02197,
.02553,-.02197,
.026214,-.02191,
.026878,-.021732,
.0275,-.021442,
.028063,-.021048,
.028548,-.020563,
.028942,-.02,
.029232,-.019378,
.02941,-.018714,
.02947,-.01803,
0.0*
%
%ADD39MACRO39*%
%AMMACRO67*
4,1,44,-.01968,.0059,
-.01968,-.0059,
-.019477,-.008293,
-.018856,-.010613,
-.017841,-.012791,
-.016464,-.014759,
-.014766,-.016458,
-.012799,-.017836,
-.010623,-.018852,
-.008303,-.019475,
-.00591,-.019685,
-.0059,-.01968,
.0059,-.01968,
.008293,-.019477,
.010613,-.018856,
.012791,-.017841,
.014759,-.016464,
.016458,-.014766,
.017836,-.012799,
.018852,-.010623,
.019475,-.008303,
.019685,-.00591,
.01968,-.0059,
.01968,.0059,
.019477,.008293,
.018856,.010613,
.017841,.012791,
.016464,.014759,
.014766,.016458,
.012799,.017836,
.010623,.018852,
.008303,.019475,
.00591,.019685,
.0059,.01968,
-.0059,.01968,
-.008293,.019477,
-.010613,.018856,
-.012791,.017841,
-.014759,.016464,
-.016458,.014766,
-.017836,.012799,
-.018852,.010623,
-.019475,.008303,
-.019685,.00591,
-.01968,.0059,
0.0*
%
%ADD67MACRO67*%
%AMMACRO16*
4,1,44,.02854,-.00787,
.02854,.00787,
.028516,.008212,
.028428,.008544,
.028284,.008856,
.028087,.009137,
.027845,.009381,
.027564,.009579,
.027253,.009724,
.026922,.009814,
.02658,.009845,
.02657,.00984,
-.02657,.00984,
-.026912,.009816,
-.027244,.009728,
-.027556,.009584,
-.027837,.009387,
-.028081,.009145,
-.028279,.008864,
-.028424,.008553,
-.028514,.008222,
-.028545,.00788,
-.02854,.00787,
-.02854,-.00787,
-.028516,-.008212,
-.028428,-.008544,
-.028284,-.008856,
-.028087,-.009137,
-.027845,-.009381,
-.027564,-.009579,
-.027253,-.009724,
-.026922,-.009814,
-.02658,-.009845,
-.02657,-.00984,
.02657,-.00984,
.026912,-.009816,
.027244,-.009728,
.027556,-.009584,
.027837,-.009387,
.028081,-.009145,
.028279,-.008864,
.028424,-.008553,
.028514,-.008222,
.028545,-.00788,
.02854,-.00787,
0.0*
%
%ADD16MACRO16*%
%AMMACRO62*
4,1,44,.0059,.01968,
-.0059,.01968,
-.008293,.019477,
-.010613,.018856,
-.012791,.017841,
-.014759,.016464,
-.016458,.014766,
-.017836,.012799,
-.018852,.010623,
-.019475,.008303,
-.019685,.00591,
-.01968,.0059,
-.01968,-.0059,
-.019477,-.008293,
-.018856,-.010613,
-.017841,-.012791,
-.016464,-.014759,
-.014766,-.016458,
-.012799,-.017836,
-.010623,-.018852,
-.008303,-.019475,
-.00591,-.019685,
-.0059,-.01968,
.0059,-.01968,
.008293,-.019477,
.010613,-.018856,
.012791,-.017841,
.014759,-.016464,
.016458,-.014766,
.017836,-.012799,
.018852,-.010623,
.019475,-.008303,
.019685,-.00591,
.01968,-.0059,
.01968,.0059,
.019477,.008293,
.018856,.010613,
.017841,.012791,
.016464,.014759,
.014766,.016458,
.012799,.017836,
.010623,.018852,
.008303,.019475,
.00591,.019685,
.0059,.01968,
0.0*
%
%ADD62MACRO62*%
%AMMACRO82*
4,1,44,.03149,-.02756,
.03149,.02756,
.031376,.028927,
.031022,.030252,
.030443,.031496,
.029657,.03262,
.028688,.033591,
.027564,.034378,
.026321,.034959,
.024997,.035315,
.02363,.035435,
.02362,.03543,
-.02362,.03543,
-.024987,.035316,
-.026312,.034962,
-.027556,.034383,
-.02868,.033597,
-.029651,.032628,
-.030438,.031504,
-.031019,.030261,
-.031375,.028937,
-.031495,.02757,
-.03149,.02756,
-.03149,-.02756,
-.031376,-.028927,
-.031022,-.030252,
-.030443,-.031496,
-.029657,-.03262,
-.028688,-.033591,
-.027564,-.034378,
-.026321,-.034959,
-.024997,-.035315,
-.02363,-.035435,
-.02362,-.03543,
.02362,-.03543,
.024987,-.035316,
.026312,-.034962,
.027556,-.034383,
.02868,-.033597,
.029651,-.032628,
.030438,-.031504,
.031019,-.030261,
.031375,-.028937,
.031495,-.02757,
.03149,-.02756,
0.0*
%
%ADD82MACRO82*%
%AMMACRO20*
4,1,40,-.0341,-.04697,
.0341,-.04697,
.035467,-.04685,
.036792,-.046495,
.038035,-.045916,
.039159,-.045129,
.040129,-.044159,
.040916,-.043035,
.041495,-.041792,
.04185,-.040467,
.04197,-.0391,
.04197,.0391,
.04185,.040467,
.041495,.041792,
.040916,.043035,
.040129,.044159,
.039159,.045129,
.038035,.045916,
.036792,.046495,
.035467,.04685,
.0341,.04697,
-.0341,.04697,
-.035467,.04685,
-.036792,.046495,
-.038035,.045916,
-.039159,.045129,
-.040129,.044159,
-.040916,.043035,
-.041495,.041792,
-.04185,.040467,
-.04197,.0391,
-.04197,-.0391,
-.04185,-.040467,
-.041495,-.041792,
-.040916,-.043035,
-.040129,-.044159,
-.039159,-.045129,
-.038035,-.045916,
-.036792,-.046495,
-.035467,-.04685,
-.0341,-.04697,
0.0*
%
%ADD20MACRO20*%
%AMMACRO84*
4,1,44,.03149,-.02559,
.03149,.02559,
.031376,.026957,
.031022,.028282,
.030443,.029526,
.029657,.03065,
.028688,.031621,
.027564,.032408,
.026321,.032989,
.024997,.033345,
.02363,.033465,
.02362,.03346,
-.02362,.03346,
-.024987,.033346,
-.026312,.032992,
-.027556,.032413,
-.02868,.031627,
-.029651,.030658,
-.030438,.029534,
-.031019,.028291,
-.031375,.026967,
-.031495,.0256,
-.03149,.02559,
-.03149,-.02559,
-.031376,-.026957,
-.031022,-.028282,
-.030443,-.029526,
-.029657,-.03065,
-.028688,-.031621,
-.027564,-.032408,
-.026321,-.032989,
-.024997,-.033345,
-.02363,-.033465,
-.02362,-.03346,
.02362,-.03346,
.024987,-.033346,
.026312,-.032992,
.027556,-.032413,
.02868,-.031627,
.029651,-.030658,
.030438,-.029534,
.031019,-.028291,
.031375,-.026967,
.031495,-.0256,
.03149,-.02559,
0.0*
%
%ADD84MACRO84*%
%ADD32R,.052X.042*%
%ADD64R,.046X.031*%
%ADD49R,.031X.046*%
%ADD34R,.024X.029*%
%ADD29C,.11024*%
%ADD18O,.0315X.01181*%
%ADD26R,.029X.024*%
%ADD36R,.04X.088*%
%ADD12R,.055X.064*%
%ADD59R,.036X.039*%
%ADD33C,.11811*%
%ADD35R,.039X.036*%
%ADD40C,.20079*%
%ADD96O,.09055X.04331*%
%ADD44R,.05118X.02362*%
%ADD15O,.04134X.0748*%
%ADD47R,.02362X.05118*%
%AMMACRO81*
4,1,39,-.00556,.00279,
-.006219,.001999,
-.006734,.001108,
-.007087,.000141,
-.007267,-.000873,
-.007267,-.001902,
-.007089,-.002916,
-.006738,-.003883,
-.006224,-.004775,
-.005563,-.005564,
-.004775,-.006226,
-.003884,-.006741,
-.002917,-.007094,
-.001903,-.007274,
-.000874,-.007274,
.00014,-.007096,
.001108,-.006745,
.001999,-.006231,
.002788,-.00557,
.00279,-.00556,
.00558,-.00278,
.00624,-.00199,
.006754,-.001098,
.007106,-.000131,
.007284,.000883,
.007283,.001912,
.007104,.002926,
.006751,.003893,
.006236,.004784,
.005574,.005572,
.004785,.006233,
.003893,.006747,
.002926,.007099,
.001912,.007277,
.000883,.007276,
-.000131,.007097,
-.001098,.006744,
-.001989,.006229,
-.00277,.00557,
-.00556,.00279,
0.0*
%
%ADD81MACRO81*%
%AMMACRO80*
4,1,39,-.00196,.0059,
-.002985,.005811,
-.00398,.005545,
-.004913,.00511,
-.005756,.00452,
-.006484,.003793,
-.007075,.00295,
-.007511,.002017,
-.007778,.001023,
-.007868,-.000002,
-.007779,-.001028,
-.007513,-.002022,
-.007078,-.002955,
-.006488,-.003799,
-.005761,-.004527,
-.004918,-.005118,
-.003985,-.005553,
-.002991,-.00582,
-.001966,-.00591,
-.00196,-.00591,
.00198,-.00591,
.003005,-.00582,
.003999,-.005553,
.004932,-.005117,
.005775,-.004526,
.006502,-.003798,
.007092,-.002954,
.007526,-.002021,
.007792,-.001027,
.007881,-.000001,
.007791,.001024,
.007524,.002018,
.007088,.002951,
.006497,.003794,
.005769,.004521,
.004925,.005111,
.003992,.005545,
.002998,.005811,
.00198,.0059,
-.00196,.0059,
0.0*
%
%ADD80MACRO80*%
%AMMACRO79*
4,1,39,.00279,.00556,
.001999,.006219,
.001108,.006734,
.000141,.007087,
-.000873,.007267,
-.001902,.007267,
-.002916,.007089,
-.003883,.006738,
-.004775,.006224,
-.005564,.005563,
-.006226,.004775,
-.006741,.003884,
-.007094,.002917,
-.007274,.001903,
-.007274,.000874,
-.007096,-.00014,
-.006745,-.001108,
-.006231,-.001999,
-.00557,-.002788,
-.00556,-.00279,
-.00278,-.00558,
-.00199,-.00624,
-.001098,-.006754,
-.000131,-.007106,
.000883,-.007284,
.001912,-.007283,
.002926,-.007104,
.003893,-.006751,
.004784,-.006236,
.005572,-.005574,
.006233,-.004785,
.006747,-.003893,
.007099,-.002926,
.007277,-.001912,
.007276,-.000883,
.007097,.000131,
.006744,.001098,
.006229,.001989,
.00557,.00277,
.00279,.00556,
0.0*
%
%ADD79MACRO79*%
%AMMACRO76*
4,1,39,-.0059,-.00196,
-.005811,-.002985,
-.005545,-.00398,
-.00511,-.004913,
-.00452,-.005756,
-.003793,-.006484,
-.00295,-.007075,
-.002017,-.007511,
-.001023,-.007778,
.000002,-.007868,
.001028,-.007779,
.002022,-.007513,
.002955,-.007078,
.003799,-.006488,
.004527,-.005761,
.005118,-.004918,
.005553,-.003985,
.00582,-.002991,
.00591,-.001966,
.00591,-.00196,
.00591,.00198,
.00582,.003005,
.005553,.003999,
.005117,.004932,
.004526,.005775,
.003798,.006502,
.002954,.007092,
.002021,.007526,
.001027,.007792,
.000001,.007881,
-.001024,.007791,
-.002018,.007524,
-.002951,.007088,
-.003794,.006497,
-.004521,.005769,
-.005111,.004925,
-.005545,.003992,
-.005811,.002998,
-.0059,.00198,
-.0059,-.00196,
0.0*
%
%ADD76MACRO76*%
%AMMACRO75*
4,1,39,-.00279,-.00556,
-.001999,-.006219,
-.001108,-.006734,
-.000141,-.007087,
.000873,-.007267,
.001902,-.007267,
.002916,-.007089,
.003883,-.006738,
.004775,-.006224,
.005564,-.005563,
.006226,-.004775,
.006741,-.003884,
.007094,-.002917,
.007274,-.001903,
.007274,-.000874,
.007096,.00014,
.006745,.001108,
.006231,.001999,
.00557,.002788,
.00556,.00279,
.00278,.00558,
.00199,.00624,
.001098,.006754,
.000131,.007106,
-.000883,.007284,
-.001912,.007283,
-.002926,.007104,
-.003893,.006751,
-.004784,.006236,
-.005572,.005574,
-.006233,.004785,
-.006747,.003893,
-.007099,.002926,
-.007277,.001912,
-.007276,.000883,
-.007097,-.000131,
-.006744,-.001098,
-.006229,-.001989,
-.00557,-.00277,
-.00279,-.00556,
0.0*
%
%ADD75MACRO75*%
%ADD60R,.03937X.04331*%
%AMMACRO46*
4,1,40,-.01181,.00984,
-.01181,-.00984,
-.01178,-.010182,
-.011691,-.010514,
-.011546,-.010825,
-.011349,-.011106,
-.011106,-.011349,
-.010825,-.011546,
-.010514,-.011691,
-.010182,-.01178,
-.00984,-.01181,
.00984,-.01181,
.010182,-.01178,
.010514,-.011691,
.010825,-.011546,
.011106,-.011349,
.011349,-.011106,
.011546,-.010825,
.011691,-.010514,
.01178,-.010182,
.01181,-.00984,
.01181,.00984,
.01178,.010182,
.011691,.010514,
.011546,.010825,
.011349,.011106,
.011106,.011349,
.010825,.011546,
.010514,.011691,
.010182,.01178,
.00984,.01181,
-.00984,.01181,
-.010182,.01178,
-.010514,.011691,
-.010825,.011546,
-.011106,.011349,
-.011349,.011106,
-.011546,.010825,
-.011691,.010514,
-.01178,.010182,
-.01181,.00984,
0.0*
%
%ADD46MACRO46*%
%ADD25C,.12795*%
%AMMACRO63*
4,1,40,-.0374,.01181,
-.0374,-.01181,
-.03734,-.012494,
-.037162,-.013158,
-.036872,-.01378,
-.036478,-.014343,
-.035993,-.014828,
-.03543,-.015222,
-.034808,-.015512,
-.034144,-.01569,
-.03346,-.01575,
.03346,-.01575,
.034144,-.01569,
.034808,-.015512,
.03543,-.015222,
.035993,-.014828,
.036478,-.014343,
.036872,-.01378,
.037162,-.013158,
.03734,-.012494,
.0374,-.01181,
.0374,.01181,
.03734,.012494,
.037162,.013158,
.036872,.01378,
.036478,.014343,
.035993,.014828,
.03543,.015222,
.034808,.015512,
.034144,.01569,
.03346,.01575,
-.03346,.01575,
-.034144,.01569,
-.034808,.015512,
-.03543,.015222,
-.035993,.014828,
-.036478,.014343,
-.036872,.01378,
-.037162,.013158,
-.03734,.012494,
-.0374,.01181,
0.0*
%
%ADD63MACRO63*%
%AMMACRO28*
4,1,40,.00984,.01181,
-.00984,.01181,
-.010182,.01178,
-.010514,.011691,
-.010825,.011546,
-.011106,.011349,
-.011349,.011106,
-.011546,.010825,
-.011691,.010514,
-.01178,.010182,
-.01181,.00984,
-.01181,-.00984,
-.01178,-.010182,
-.011691,-.010514,
-.011546,-.010825,
-.011349,-.011106,
-.011106,-.011349,
-.010825,-.011546,
-.010514,-.011691,
-.010182,-.01178,
-.00984,-.01181,
.00984,-.01181,
.010182,-.01178,
.010514,-.011691,
.010825,-.011546,
.011106,-.011349,
.011349,-.011106,
.011546,-.010825,
.011691,-.010514,
.01178,-.010182,
.01181,-.00984,
.01181,.00984,
.01178,.010182,
.011691,.010514,
.011546,.010825,
.011349,.011106,
.011106,.011349,
.010825,.011546,
.010514,.011691,
.010182,.01178,
.00984,.01181,
0.0*
%
%ADD28MACRO28*%
%AMMACRO70*
4,1,40,.01181,.0374,
-.01181,.0374,
-.012494,.03734,
-.013158,.037162,
-.01378,.036872,
-.014343,.036478,
-.014828,.035993,
-.015222,.03543,
-.015512,.034808,
-.01569,.034144,
-.01575,.03346,
-.01575,-.03346,
-.01569,-.034144,
-.015512,-.034808,
-.015222,-.03543,
-.014828,-.035993,
-.014343,-.036478,
-.01378,-.036872,
-.013158,-.037162,
-.012494,-.03734,
-.01181,-.0374,
.01181,-.0374,
.012494,-.03734,
.013158,-.037162,
.01378,-.036872,
.014343,-.036478,
.014828,-.035993,
.015222,-.03543,
.015512,-.034808,
.01569,-.034144,
.01575,-.03346,
.01575,.03346,
.01569,.034144,
.015512,.034808,
.015222,.03543,
.014828,.035993,
.014343,.036478,
.01378,.036872,
.013158,.037162,
.012494,.03734,
.01181,.0374,
0.0*
%
%ADD70MACRO70*%
%ADD53R,.04331X.09843*%
%ADD30R,.09843X.059*%
%ADD56R,.0748X.09055*%
%AMMACRO86*
4,1,40,.00984,.01378,
-.00984,.01378,
-.010182,.01375,
-.010514,.013661,
-.010825,.013516,
-.011106,.013319,
-.011349,.013076,
-.011546,.012795,
-.011691,.012484,
-.01178,.012152,
-.01181,.01181,
-.01181,-.01181,
-.01178,-.012152,
-.011691,-.012484,
-.011546,-.012795,
-.011349,-.013076,
-.011106,-.013319,
-.010825,-.013516,
-.010514,-.013661,
-.010182,-.01375,
-.00984,-.01378,
.00984,-.01378,
.010182,-.01375,
.010514,-.013661,
.010825,-.013516,
.011106,-.013319,
.011349,-.013076,
.011546,-.012795,
.011691,-.012484,
.01178,-.012152,
.01181,-.01181,
.01181,.01181,
.01178,.012152,
.011691,.012484,
.011546,.012795,
.011349,.013076,
.011106,.013319,
.010825,.013516,
.010514,.013661,
.010182,.01375,
.00984,.01378,
0.0*
%
%ADD86MACRO86*%
%AMMACRO89*
4,1,44,.0059,.00787,
-.0059,.00787,
-.006242,.007846,
-.006574,.007758,
-.006886,.007614,
-.007167,.007417,
-.007411,.007175,
-.007609,.006894,
-.007754,.006583,
-.007844,.006252,
-.007875,.00591,
-.00787,.0059,
-.00787,-.0059,
-.007846,-.006242,
-.007758,-.006574,
-.007614,-.006886,
-.007417,-.007167,
-.007175,-.007411,
-.006894,-.007609,
-.006583,-.007754,
-.006252,-.007844,
-.00591,-.007875,
-.0059,-.00787,
.0059,-.00787,
.006242,-.007846,
.006574,-.007758,
.006886,-.007614,
.007167,-.007417,
.007411,-.007175,
.007609,-.006894,
.007754,-.006583,
.007844,-.006252,
.007875,-.00591,
.00787,-.0059,
.00787,.0059,
.007846,.006242,
.007758,.006574,
.007614,.006886,
.007417,.007167,
.007175,.007411,
.006894,.007609,
.006583,.007754,
.006252,.007844,
.00591,.007875,
.0059,.00787,
0.0*
%
%ADD89MACRO89*%
%AMMACRO42*
4,1,44,-.01378,.0059,
-.01378,-.0059,
-.013751,-.006242,
-.013663,-.006574,
-.013519,-.006886,
-.013322,-.007167,
-.01308,-.007411,
-.012799,-.007609,
-.012488,-.007754,
-.012157,-.007844,
-.011815,-.007875,
-.01181,-.00787,
.01181,-.00787,
.012152,-.007845,
.012484,-.007756,
.012795,-.007611,
.013076,-.007414,
.013319,-.007171,
.013516,-.00689,
.013661,-.006579,
.01375,-.006247,
.01378,-.005905,
.01378,-.0059,
.01378,.0059,
.013751,.006242,
.013663,.006574,
.013519,.006886,
.013322,.007167,
.01308,.007411,
.012799,.007609,
.012488,.007754,
.012157,.007844,
.011815,.007875,
.01181,.00787,
-.01181,.00787,
-.012152,.007845,
-.012484,.007756,
-.012795,.007611,
-.013076,.007414,
-.013319,.007171,
-.013516,.00689,
-.013661,.006579,
-.01375,.006247,
-.01378,.005905,
-.01378,.0059,
0.0*
%
%ADD42MACRO42*%
%AMMACRO61*
4,1,44,.01968,-.0059,
.01968,.0059,
.019477,.008293,
.018856,.010613,
.017841,.012791,
.016464,.014759,
.014766,.016458,
.012799,.017836,
.010623,.018852,
.008303,.019475,
.00591,.019685,
.0059,.01968,
-.0059,.01968,
-.008293,.019477,
-.010613,.018856,
-.012791,.017841,
-.014759,.016464,
-.016458,.014766,
-.017836,.012799,
-.018852,.010623,
-.019475,.008303,
-.019685,.00591,
-.01968,.0059,
-.01968,-.0059,
-.019477,-.008293,
-.018856,-.010613,
-.017841,-.012791,
-.016464,-.014759,
-.014766,-.016458,
-.012799,-.017836,
-.010623,-.018852,
-.008303,-.019475,
-.00591,-.019685,
-.0059,-.01968,
.0059,-.01968,
.008293,-.019477,
.010613,-.018856,
.012791,-.017841,
.014759,-.016464,
.016458,-.014766,
.017836,-.012799,
.018852,-.010623,
.019475,-.008303,
.019685,-.00591,
.01968,-.0059,
0.0*
%
%ADD61MACRO61*%
%AMMACRO55*
4,1,44,-.0059,-.01968,
.0059,-.01968,
.008293,-.019477,
.010613,-.018856,
.012791,-.017841,
.014759,-.016464,
.016458,-.014766,
.017836,-.012799,
.018852,-.010623,
.019475,-.008303,
.019685,-.00591,
.01968,-.0059,
.01968,.0059,
.019477,.008293,
.018856,.010613,
.017841,.012791,
.016464,.014759,
.014766,.016458,
.012799,.017836,
.010623,.018852,
.008303,.019475,
.00591,.019685,
.0059,.01968,
-.0059,.01968,
-.008293,.019477,
-.010613,.018856,
-.012791,.017841,
-.014759,.016464,
-.016458,.014766,
-.017836,.012799,
-.018852,.010623,
-.019475,.008303,
-.019685,.00591,
-.01968,.0059,
-.01968,-.0059,
-.019477,-.008293,
-.018856,-.010613,
-.017841,-.012791,
-.016464,-.014759,
-.014766,-.016458,
-.012799,-.017836,
-.010623,-.018852,
-.008303,-.019475,
-.00591,-.019685,
-.0059,-.01968,
0.0*
%
%ADD55MACRO55*%
%AMMACRO54*
4,1,40,.01303,.03197,
-.01303,.03197,
-.013714,.03191,
-.014378,.031732,
-.015,.031442,
-.015563,.031048,
-.016048,.030563,
-.016442,.03,
-.016732,.029378,
-.01691,.028714,
-.01697,.02803,
-.01697,-.02803,
-.01691,-.028714,
-.016732,-.029378,
-.016442,-.03,
-.016048,-.030563,
-.015563,-.031048,
-.015,-.031442,
-.014378,-.031732,
-.013714,-.03191,
-.01303,-.03197,
.01303,-.03197,
.013714,-.03191,
.014378,-.031732,
.015,-.031442,
.015563,-.031048,
.016048,-.030563,
.016442,-.03,
.016732,-.029378,
.01691,-.028714,
.01697,-.02803,
.01697,.02803,
.01691,.028714,
.016732,.029378,
.016442,.03,
.016048,.030563,
.015563,.031048,
.015,.031442,
.014378,.031732,
.013714,.03191,
.01303,.03197,
0.0*
%
%ADD54MACRO54*%
%AMMACRO90*
4,1,40,.01053,.01697,
-.01053,.01697,
-.011214,.01691,
-.011878,.016732,
-.0125,.016442,
-.013063,.016048,
-.013548,.015563,
-.013942,.015,
-.014232,.014378,
-.01441,.013714,
-.01447,.01303,
-.01447,-.01303,
-.01441,-.013714,
-.014232,-.014378,
-.013942,-.015,
-.013548,-.015563,
-.013063,-.016048,
-.0125,-.016442,
-.011878,-.016732,
-.011214,-.01691,
-.01053,-.01697,
.01053,-.01697,
.011214,-.01691,
.011878,-.016732,
.0125,-.016442,
.013063,-.016048,
.013548,-.015563,
.013942,-.015,
.014232,-.014378,
.01441,-.013714,
.01447,-.01303,
.01447,.01303,
.01441,.013714,
.014232,.014378,
.013942,.015,
.013548,.015563,
.013063,.016048,
.0125,.016442,
.011878,.016732,
.011214,.01691,
.01053,.01697,
0.0*
%
%ADD90MACRO90*%
%AMMACRO93*
4,1,44,.02539,.04921,
-.02539,.04921,
-.025732,.049185,
-.026064,.049096,
-.026375,.048951,
-.026656,.048754,
-.026899,.048511,
-.027096,.04823,
-.027241,.047919,
-.02733,.047587,
-.02736,.047245,
-.02736,.04724,
-.02736,-.04724,
-.027331,-.047582,
-.027243,-.047914,
-.027099,-.048226,
-.026902,-.048507,
-.02666,-.048751,
-.026379,-.048949,
-.026068,-.049094,
-.025737,-.049184,
-.025395,-.049215,
-.02539,-.04921,
.02539,-.04921,
.025732,-.049185,
.026064,-.049096,
.026375,-.048951,
.026656,-.048754,
.026899,-.048511,
.027096,-.04823,
.027241,-.047919,
.02733,-.047587,
.02736,-.047245,
.02736,-.04724,
.02736,.04724,
.027331,.047582,
.027243,.047914,
.027099,.048226,
.026902,.048507,
.02666,.048751,
.026379,.048949,
.026068,.049094,
.025737,.049184,
.025395,.049215,
.02539,.04921,
0.0*
%
%ADD93MACRO93*%
%ADD97C,.005*%
G75*
%LPD*%
G75*
G54D10*
X109152Y201982D03*
Y253793D03*
G54D20*
X131370Y246240D03*
X147370D03*
G54D11*
X109152Y212652D03*
Y233715D03*
Y243163D03*
G54D30*
X160515Y231830D03*
Y242830D03*
G54D12*
X110642Y339530D03*
X110750Y348489D03*
X121742Y339530D03*
X121850Y348489D03*
G54D21*
X135303Y385066D03*
G54D40*
X200354Y202066D03*
Y392066D03*
X460354Y214566D03*
Y379566D03*
G54D31*
X160346Y281562D03*
Y291562D03*
Y301562D03*
Y311562D03*
Y321562D03*
X170346Y276562D03*
Y286562D03*
Y296562D03*
Y306562D03*
Y316562D03*
G54D13*
X119362Y272960D03*
Y282960D03*
Y315164D03*
Y325164D03*
G54D22*
X124540Y401449D03*
X128520D03*
X124540Y405091D03*
X128520D03*
X132600Y401449D03*
Y405091D03*
X452296Y324577D03*
Y328219D03*
G54D32*
X165416Y347024D03*
Y354308D03*
X174472Y347024D03*
Y354308D03*
X255742Y316158D03*
Y323442D03*
X264798Y316158D03*
Y323442D03*
G54D23*
X131200Y224025D03*
X129200D03*
X131199Y221740D03*
X129199D03*
X150113Y216185D03*
X152113D03*
X150120Y218311D03*
X152120D03*
X169030Y235690D03*
Y233690D03*
X165030Y339800D03*
X167030D03*
X173217Y341720D03*
Y339720D03*
X175332Y367893D03*
Y374620D03*
X178870Y220556D03*
X180870D03*
X177332Y367893D03*
Y370152D03*
Y372152D03*
Y374620D03*
X191449Y286105D03*
X189449D03*
X191449Y288437D03*
X189449D03*
X191449Y290772D03*
X189449D03*
X194399Y290791D03*
X194150Y298655D03*
Y306655D03*
Y309155D03*
X195570Y282721D03*
X198280Y282532D03*
X200280D03*
X200320Y280388D03*
X198320D03*
X195570Y284721D03*
X195531Y286731D03*
Y288731D03*
X198280Y284632D03*
X200280D03*
X198280Y288832D03*
X200280D03*
X200320Y286688D03*
X198320D03*
X196399Y290791D03*
X200320Y290788D03*
X198320D03*
X199345Y295550D03*
Y293550D03*
X196345Y295850D03*
Y293850D03*
X196150Y298655D03*
Y306655D03*
Y309155D03*
X198155Y309850D03*
Y311850D03*
X204168Y234030D03*
Y236030D03*
Y238230D03*
Y240230D03*
X203899Y323521D03*
Y325521D03*
X206231Y323521D03*
Y325521D03*
X211500Y298500D03*
X211350Y296345D03*
X208564Y323521D03*
Y325521D03*
X213500Y298500D03*
X213350Y296345D03*
X215233Y323521D03*
Y325521D03*
X218566Y323521D03*
Y325521D03*
X230150Y235130D03*
X228150D03*
X236360Y221770D03*
X232089Y235131D03*
X234089D03*
X232070Y233130D03*
X234070D03*
X234380Y251640D03*
X232380D03*
X234410Y253910D03*
X232410D03*
X234470Y258560D03*
X232470D03*
X234500Y261600D03*
X232500D03*
X241000Y221770D03*
X238360D03*
X242050Y361775D03*
X242021Y363934D03*
X241110Y383270D03*
Y385400D03*
X243000Y221770D03*
X245920Y341561D03*
Y343561D03*
X244050Y361775D03*
X244021Y363934D03*
X243110Y383270D03*
Y385400D03*
X252372Y198901D03*
X252332Y196999D03*
X254332D03*
Y202999D03*
X252332D03*
X254332Y200999D03*
X252332D03*
X254372Y198901D03*
X257458Y330630D03*
Y337296D03*
Y335296D03*
Y332630D03*
X260187Y341981D03*
X257458Y339320D03*
Y341320D03*
X258479Y387368D03*
X265479Y330385D03*
Y336220D03*
X265480Y334345D03*
Y332345D03*
X265479Y339554D03*
X262187Y341981D03*
X264480Y349045D03*
X262500D03*
X260500D03*
X264479Y353724D03*
X264480Y351845D03*
Y355845D03*
X264479Y360057D03*
X264480Y357845D03*
X264445Y366858D03*
X264465Y362500D03*
Y364500D03*
X264445Y368858D03*
X264435Y372679D03*
Y374679D03*
X263021Y387368D03*
X265021D03*
X260479D03*
X269972Y199001D03*
X267972D03*
X267932Y197099D03*
X269932D03*
Y203099D03*
X267932D03*
X269932Y201099D03*
X267932D03*
X267041Y300687D03*
X269041D03*
X267041Y298597D03*
X269041D03*
X267260Y310495D03*
X269260D03*
X267261Y312451D03*
X269261D03*
X269255Y318778D03*
X269201Y316871D03*
Y314871D03*
X269255Y320778D03*
X269209Y322629D03*
Y324629D03*
X267479Y330385D03*
Y336220D03*
X267480Y334345D03*
Y332345D03*
X267479Y339554D03*
X266480Y349045D03*
X266479Y353724D03*
X266480Y351845D03*
Y355845D03*
X266479Y360057D03*
X266480Y357845D03*
X266891Y364657D03*
X268891D03*
X266891Y362637D03*
X268891D03*
X267801Y372679D03*
Y374679D03*
X277040Y236010D03*
X275010Y265520D03*
Y267520D03*
X273028Y379599D03*
X275028D03*
X273068Y377601D03*
X275068D03*
X273068Y375701D03*
X275068D03*
Y381501D03*
X273068D03*
X280453Y206221D03*
Y208221D03*
X279040Y236010D03*
X284237Y280479D03*
Y278479D03*
X281904Y280479D03*
Y278479D03*
X283340Y387405D03*
X286372Y198801D03*
X284372D03*
X284332Y196899D03*
X286332D03*
Y202899D03*
X284332D03*
X286332Y200899D03*
X284332D03*
X288903Y280479D03*
Y278479D03*
X286570Y280479D03*
Y278479D03*
X285340Y387405D03*
X293271Y280479D03*
Y278479D03*
X295438Y280479D03*
Y278479D03*
X291105Y280479D03*
Y278479D03*
X293480Y288618D03*
X291480D03*
X293479Y296887D03*
X291479D03*
X293350Y314385D03*
X291350D03*
X307772Y198801D03*
X305772D03*
X305732Y196899D03*
X307732D03*
Y200899D03*
X305732D03*
X307732Y202899D03*
X305732D03*
X323772Y198501D03*
X321772D03*
X321732Y196599D03*
X323732D03*
Y202599D03*
X321732D03*
X323732Y200599D03*
X321732D03*
X341172Y198601D03*
X339172D03*
X339132Y196699D03*
X341132D03*
Y202699D03*
X339132D03*
X341132Y200699D03*
X339132D03*
X355972Y198801D03*
X355932Y196899D03*
Y202899D03*
Y200899D03*
X351020Y366910D03*
X353020D03*
X351647Y385866D03*
Y387866D03*
X357972Y198801D03*
X357932Y196899D03*
Y202899D03*
Y200899D03*
X366429Y366909D03*
X373372Y198501D03*
X373332Y196599D03*
Y200599D03*
Y202599D03*
X368429Y366909D03*
X375372Y198501D03*
X375332Y196599D03*
Y200599D03*
Y202599D03*
X377500Y251500D03*
X379500D03*
X390872Y198801D03*
X388872D03*
X388832Y196899D03*
X390832D03*
Y200899D03*
X388832D03*
X390832Y202899D03*
X388832D03*
X390692Y222091D03*
X388692D03*
X388652Y220189D03*
X390652D03*
Y224189D03*
X388652D03*
X390652Y226189D03*
X388652D03*
X391000Y259000D03*
Y257000D03*
Y268500D03*
Y266500D03*
X387000D03*
Y268500D03*
X391500Y276500D03*
Y274500D03*
X386500Y276500D03*
Y274500D03*
X389000Y276500D03*
Y274500D03*
X393000Y259000D03*
Y257000D03*
X396000Y262000D03*
X398000D03*
X395510Y268290D03*
X397510D03*
X402021Y246272D03*
X404021D03*
X402021Y250439D03*
X404021D03*
X402021Y254106D03*
X404021D03*
X402021Y272273D03*
X404021D03*
X402021Y276940D03*
X404021D03*
X402258Y281505D03*
X406672Y198601D03*
X404672D03*
X404632Y196699D03*
X406632D03*
Y202699D03*
X404632D03*
X406632Y200699D03*
X404632D03*
X404258Y281505D03*
X415230Y387495D03*
X420672Y198901D03*
X420632Y196999D03*
Y202999D03*
Y200999D03*
X417230Y387495D03*
X422672Y198901D03*
X422632Y196999D03*
Y202999D03*
Y200999D03*
X433799Y325472D03*
Y323142D03*
Y321142D03*
Y327472D03*
X432455Y337130D03*
Y335130D03*
X434912Y337129D03*
Y335129D03*
X441064Y295349D03*
X443064D03*
X441064Y301229D03*
X443064D03*
X441064Y297299D03*
X443064D03*
X441074Y307209D03*
X443074D03*
X441064Y303179D03*
X443064D03*
X441064Y313139D03*
X443064D03*
X441074Y309159D03*
X443074D03*
X441064Y315089D03*
X443064D03*
X446822Y324221D03*
Y326221D03*
X449045Y324259D03*
Y326259D03*
X468632Y325399D03*
X468672Y327301D03*
X468632Y331399D03*
Y329399D03*
X468572Y337901D03*
X468532Y335999D03*
Y341999D03*
Y339999D03*
X470632Y325399D03*
X470672Y327301D03*
X470632Y331399D03*
Y329399D03*
X470572Y337901D03*
X470532Y335999D03*
Y341999D03*
Y339999D03*
G54D14*
X118140Y399604D03*
Y407596D03*
X148140Y403600D03*
G54D50*
X220354Y197066D03*
Y387066D03*
X230354Y197066D03*
Y207066D03*
Y387066D03*
Y397066D03*
X430354Y197066D03*
Y207066D03*
Y387066D03*
Y397066D03*
X440354Y197066D03*
Y207066D03*
Y387066D03*
Y397066D03*
G54D41*
X189260Y224032D03*
X267572Y368500D03*
G54D42*
X188220Y238137D03*
Y240106D03*
Y242074D03*
Y244043D03*
X196094Y242074D03*
Y240106D03*
Y238137D03*
Y244043D03*
G54D60*
X241711Y350752D03*
Y357150D03*
X246533Y350752D03*
Y357150D03*
G54D15*
X119782Y200604D03*
Y255132D03*
G54D33*
X171570Y196860D03*
G54D24*
X129917Y227184D03*
X133559D03*
X129917Y235084D03*
X133559D03*
X129917Y231184D03*
X133559D03*
X408547Y281408D03*
X412189D03*
G54D51*
X220354Y207066D03*
Y397066D03*
G54D61*
X241285Y369032D03*
Y374969D03*
G54D70*
X277632Y241516D03*
Y250802D03*
X277489Y259257D03*
X283932Y241516D03*
Y250802D03*
X283789Y259257D03*
G54D25*
X135346Y276562D03*
Y321562D03*
G54D34*
X170228Y240680D03*
Y244680D03*
X194834Y314284D03*
Y318284D03*
X213678Y306258D03*
Y310258D03*
X224510Y241770D03*
Y245770D03*
X229000Y253210D03*
Y257210D03*
X232770Y221920D03*
Y225920D03*
X242640Y266530D03*
X238330Y266620D03*
X242640Y270530D03*
X238330Y270620D03*
X242178Y344758D03*
Y340758D03*
X252960Y216770D03*
X249060D03*
X252960Y220770D03*
X249060D03*
X252178Y349358D03*
Y353358D03*
X260760Y216770D03*
X256860D03*
X260760Y220770D03*
X256860D03*
X257178Y349358D03*
Y353358D03*
X264660Y216770D03*
Y220770D03*
X260946Y331937D03*
Y335937D03*
X272460Y216770D03*
X268560D03*
X272460Y220770D03*
X268560D03*
X272300Y266750D03*
Y270750D03*
X276360Y216770D03*
Y220770D03*
X273236Y319377D03*
Y323377D03*
X383500Y275000D03*
Y279000D03*
X388000Y255500D03*
Y259500D03*
G54D16*
X120274Y206943D03*
Y209502D03*
Y212061D03*
Y217179D03*
Y214620D03*
Y233321D03*
Y235880D03*
Y238439D03*
Y240998D03*
Y243557D03*
G54D52*
X225294Y233322D03*
X224650Y238320D03*
X225060Y249970D03*
X234510Y256290D03*
X262870Y328360D03*
X272200Y330400D03*
X277652Y317441D03*
Y322941D03*
X281091Y236048D03*
G54D43*
X189327Y256802D03*
X195327D03*
X209597D03*
X215597D03*
G54D53*
X230000Y322334D03*
X239056D03*
G54D80*
X357433Y299013D03*
Y352557D03*
G54D44*
X189358Y336003D03*
Y339547D03*
Y343090D03*
Y346633D03*
Y350177D03*
Y353720D03*
Y357263D03*
Y360807D03*
Y364350D03*
Y367893D03*
Y371437D03*
X234142Y336003D03*
Y343090D03*
Y339547D03*
Y350177D03*
Y346633D03*
Y353720D03*
Y360807D03*
Y357263D03*
Y367893D03*
Y364350D03*
Y371437D03*
G54D35*
X166860Y363970D03*
X172860D03*
X189470Y229812D03*
X189320Y250979D03*
X195470Y229812D03*
X195320Y250979D03*
X289730Y247750D03*
X289640Y253560D03*
X289652Y259297D03*
Y264997D03*
X295730Y247750D03*
X295640Y253560D03*
X295652Y259297D03*
Y264997D03*
X355700Y386511D03*
X361700D03*
X412610Y382705D03*
X418610D03*
G54D26*
X140962Y205118D03*
Y209818D03*
Y214918D03*
X141062Y219618D03*
X140982Y230812D03*
Y235512D03*
X144962Y205118D03*
Y209818D03*
Y214918D03*
X145062Y219618D03*
X144982Y230812D03*
Y235512D03*
X177142Y335678D03*
X177799Y224220D03*
X181799D03*
X177799Y229720D03*
X181799D03*
X181142Y335678D03*
X177279Y340724D03*
X181279D03*
X210090Y229515D03*
X210681Y251658D03*
X210050Y292678D03*
X209742Y301678D03*
X214090Y229515D03*
X214681Y251658D03*
X214050Y292678D03*
X213742Y301678D03*
X228780Y230290D03*
X228870Y238740D03*
Y248340D03*
Y243540D03*
X232780Y230290D03*
X232870Y238740D03*
Y248340D03*
Y243540D03*
X241950Y335322D03*
X245950D03*
X278100Y229150D03*
X278070Y225480D03*
X278150Y233000D03*
X277223Y305386D03*
X273223D03*
X277223Y310136D03*
X273223D03*
X273170Y314489D03*
X277170D03*
X282100Y229150D03*
X282070Y225480D03*
X282150Y233000D03*
G54D62*
X248869Y212349D03*
X247022Y318975D03*
Y325055D03*
Y331125D03*
X253169Y212349D03*
X252134Y295305D03*
X251885Y357995D03*
X257469Y212349D03*
X259212Y357995D03*
X259713Y374411D03*
X266370Y212350D03*
X261769Y212349D03*
X270669D03*
X272600Y372511D03*
X274969Y212349D03*
X279269D03*
X278550Y277830D03*
X285320Y266150D03*
X288390Y218640D03*
Y223640D03*
Y228640D03*
X288843Y309295D03*
X294600Y240440D03*
G54D71*
X300033Y299011D03*
Y352555D03*
G54D17*
X123303Y366944D03*
X147803D03*
G54D90*
X446700Y332466D03*
X451818D03*
X449200Y339466D03*
G54D54*
X232369Y215670D03*
X244369D03*
G54D63*
X249195Y265946D03*
Y272246D03*
X257481Y265946D03*
Y272246D03*
X265767Y265946D03*
Y272246D03*
G54D81*
X357328Y354380D03*
G54D36*
X171525Y387264D03*
X183139D03*
G54D18*
X128157Y208226D03*
Y210194D03*
Y214132D03*
Y216100D03*
X131701Y210194D03*
Y208226D03*
Y216100D03*
Y214132D03*
X445857Y295363D03*
Y297331D03*
Y301269D03*
Y307200D03*
Y303237D03*
Y309168D03*
Y313106D03*
Y315074D03*
X449401Y295363D03*
Y301269D03*
Y297331D03*
Y307200D03*
Y303237D03*
Y313106D03*
Y309168D03*
Y315074D03*
G54D27*
X139278Y205767D03*
Y209113D03*
X139378Y215567D03*
Y218913D03*
X139298Y234807D03*
Y231461D03*
X146562Y205767D03*
Y209113D03*
X146662Y215567D03*
Y218913D03*
X146582Y234807D03*
Y231461D03*
G54D72*
X300137Y297188D03*
G54D45*
X192157Y241090D03*
G54D55*
X236930Y278090D03*
G54D28*
X139975Y401172D03*
X136333D03*
X139991Y405350D03*
X136349D03*
X210259Y288470D03*
X213901D03*
X408435Y246322D03*
X408439Y250322D03*
X408443Y254322D03*
X408447Y263822D03*
X408515Y272588D03*
X408551Y276822D03*
X412077Y246322D03*
X412081Y250322D03*
X412085Y254322D03*
X412089Y263822D03*
X412157Y272588D03*
X412193Y276822D03*
G54D46*
X194850Y314465D03*
Y318107D03*
X199050Y314515D03*
Y318157D03*
G54D64*
X249622Y362600D03*
Y366350D03*
Y370100D03*
X259822Y362600D03*
Y370100D03*
G54D82*
X420477Y232128D03*
G54D91*
X455831Y284490D03*
G54D19*
X128157Y212163D03*
X131701D03*
X445857Y299300D03*
Y311137D03*
X449401Y299300D03*
Y311137D03*
G54D73*
X301962Y297084D03*
X355506D03*
G54D37*
X172403Y229428D03*
Y235728D03*
G54D56*
X235920Y405930D03*
X293400Y405931D03*
X301717Y405929D03*
X359197Y405930D03*
X367825Y405824D03*
X425305Y405825D03*
G54D47*
X194033Y331328D03*
Y376112D03*
X197577Y331328D03*
Y376112D03*
X204663Y331328D03*
X201120D03*
Y376112D03*
X204663D03*
X211750Y331328D03*
X208207D03*
Y376112D03*
X211750D03*
X218837Y331328D03*
X215293D03*
Y376112D03*
X218837D03*
X222380Y331328D03*
Y376112D03*
X229467Y331328D03*
X225923D03*
Y376112D03*
X229467D03*
G54D29*
X147354Y268058D03*
Y330066D03*
G54D92*
X457274Y301545D03*
Y299970D03*
Y298395D03*
Y307844D03*
Y306269D03*
Y304695D03*
Y303120D03*
Y312569D03*
Y310994D03*
Y309419D03*
G54D65*
X247928Y393540D03*
X245959D03*
X243991D03*
X253833D03*
X251865D03*
X249896D03*
X259739D03*
X257770D03*
X255802D03*
X265644D03*
X263676D03*
X261707D03*
X271550D03*
X269581D03*
X267613D03*
X277455D03*
X275487D03*
X273518D03*
X283361D03*
X281392D03*
X279424D03*
X285329D03*
X313725Y393539D03*
X311756D03*
X309788D03*
X319630D03*
X317662D03*
X315693D03*
X325536D03*
X323567D03*
X321599D03*
X331441D03*
X329473D03*
X327504D03*
X337347D03*
X335378D03*
X333410D03*
X343252D03*
X341284D03*
X339315D03*
X349158D03*
X347189D03*
X345221D03*
X351126D03*
X379833Y393434D03*
X377864D03*
X375896D03*
X385738D03*
X383770D03*
X381801D03*
X391644D03*
X389675D03*
X387707D03*
X397549D03*
X395581D03*
X393612D03*
X403455D03*
X401486D03*
X399518D03*
X409360D03*
X407392D03*
X405423D03*
X415266D03*
X413297D03*
X411329D03*
X417234D03*
G54D38*
X177332Y381063D03*
G54D74*
X301961Y299012D03*
Y300587D03*
Y302162D03*
X300387D03*
X301961Y305312D03*
X300387D03*
X301961Y308461D03*
X300387D03*
X301961Y311611D03*
X300387D03*
X301961Y314760D03*
X300387D03*
X301961Y317910D03*
X300387D03*
X301961Y321060D03*
X300387D03*
X301961Y324209D03*
X300387D03*
X301961Y327359D03*
X300387D03*
X301961Y330508D03*
X300387D03*
X301961Y333658D03*
X300387D03*
X301961Y336808D03*
X300387D03*
X301961Y339957D03*
X300387D03*
X301961Y343107D03*
X300387D03*
X301961Y346256D03*
X300387D03*
X301961Y349406D03*
X300387D03*
X301961Y350981D03*
Y352556D03*
X305111Y297438D03*
Y299012D03*
X303536D03*
X306686Y300587D03*
X305111D03*
X303536D03*
X306686Y302162D03*
X305111D03*
X303536D03*
X306686Y303737D03*
X305111D03*
X303536D03*
X306686Y305312D03*
X305111D03*
X303536D03*
X306686Y306886D03*
X305111D03*
X303536D03*
X306686Y308461D03*
X305111D03*
X303536D03*
X306686Y310036D03*
X305111D03*
X303536D03*
X306686Y311611D03*
X305111D03*
X303536D03*
X306686Y313186D03*
X305111D03*
X303536D03*
X306686Y314760D03*
X305111D03*
X303536D03*
X306686Y316335D03*
X305111D03*
X303536D03*
X306686Y317910D03*
X305111D03*
X303536D03*
X306686Y319485D03*
X305111D03*
X303536D03*
X306686Y321060D03*
X305111D03*
X303536D03*
X306686Y322634D03*
X305111D03*
X303536D03*
X306686Y324209D03*
X305111D03*
X303536D03*
X306686Y325784D03*
X305111D03*
X303536D03*
X306686Y327359D03*
X305111D03*
X303536D03*
X306686Y328934D03*
X305111D03*
X303536D03*
X306686Y330508D03*
X305111D03*
X303536D03*
X306686Y332083D03*
X305111D03*
X303536D03*
X306686Y333658D03*
X305111D03*
X303536D03*
X306686Y335233D03*
X305111D03*
X303536D03*
X306686Y336808D03*
X305111D03*
X303536D03*
X306686Y338382D03*
X305111D03*
X303536D03*
X306686Y339957D03*
X305111D03*
X303536D03*
X306686Y341532D03*
X305111D03*
X303536D03*
X306686Y343107D03*
X305111D03*
X303536D03*
X306686Y344682D03*
X305111D03*
X303536D03*
X306686Y346256D03*
X305111D03*
X303536D03*
X306686Y347831D03*
X305111D03*
X303536D03*
X306686Y349406D03*
X305111D03*
X303536D03*
X306686Y350981D03*
X305111D03*
X303536D03*
X305111Y352556D03*
X303536D03*
X305111Y354130D03*
X311410Y297438D03*
X308261D03*
X311410Y299012D03*
X308261D03*
X312985Y300587D03*
X311410D03*
X309835D03*
X308261D03*
X312985Y302162D03*
X311410D03*
X309835D03*
X308261D03*
X312985Y303737D03*
X311410D03*
X309835D03*
X308261D03*
X312985Y305312D03*
X311410D03*
X309835D03*
X308261D03*
Y306886D03*
X311410Y308461D03*
X308261D03*
Y310036D03*
X311410Y311611D03*
X308261D03*
X312985Y313186D03*
X308261D03*
X311410Y314760D03*
X308261D03*
X312985Y316335D03*
X311410D03*
X308261D03*
X312985Y317910D03*
X308261D03*
X312985Y319485D03*
X308261D03*
X311410Y321060D03*
X308261D03*
X312985Y322634D03*
X308261D03*
X311410Y324209D03*
X308261D03*
X312985Y325784D03*
X308261D03*
X311410Y327359D03*
X308261D03*
X312985Y328934D03*
X308261D03*
X311410Y330508D03*
X308261D03*
X312985Y332083D03*
X308261D03*
X311410Y333658D03*
X308261D03*
X312985Y335233D03*
X308261D03*
X311410Y336808D03*
X308261D03*
X312985Y338382D03*
X308261D03*
X311410Y339957D03*
X308261D03*
Y341532D03*
X311410Y343107D03*
X308261D03*
Y344682D03*
X312985Y346256D03*
X311410D03*
X309835D03*
X308261D03*
X312985Y347831D03*
X311410D03*
X309835D03*
X308261D03*
X312985Y349406D03*
X311410D03*
X309835D03*
X308261D03*
X312985Y350981D03*
X311410D03*
X309835D03*
X308261D03*
X311410Y352556D03*
X308261D03*
X311410Y354130D03*
X308261D03*
X317709Y297438D03*
X314560D03*
X317709Y299012D03*
X314560D03*
X319284Y300587D03*
X317709D03*
X316135D03*
X314560D03*
X319284Y302162D03*
X317709D03*
X316135D03*
X314560D03*
X319284Y303737D03*
X317709D03*
X316135D03*
X314560D03*
X319284Y305312D03*
X317709D03*
X316135D03*
X314560D03*
X317709Y308461D03*
X314560D03*
X317709Y311611D03*
X316135D03*
Y313186D03*
X319284Y314760D03*
X317709D03*
X314560D03*
X319284Y316335D03*
X316135D03*
X317709Y317910D03*
X314560D03*
X319284Y319485D03*
X316135D03*
X314560D03*
X317709Y321060D03*
X316135D03*
X314560D03*
X319284Y322634D03*
X316135D03*
X317709Y324209D03*
X314560D03*
X319284Y325784D03*
X316135D03*
X317709Y327359D03*
X314560D03*
X319284Y328934D03*
X316135D03*
X317709Y330508D03*
X314560D03*
X319284Y332083D03*
X316135D03*
X317709Y333658D03*
X314560D03*
X319284Y335233D03*
X316135D03*
X317709Y336808D03*
X314560D03*
X319284Y338382D03*
X316135D03*
X317709Y339957D03*
X314560D03*
X317709Y343107D03*
X314560D03*
X319284Y346256D03*
X317709D03*
X316135D03*
X314560D03*
X319284Y347831D03*
X317709D03*
X316135D03*
X314560D03*
X319284Y349406D03*
X317709D03*
X316135D03*
X314560D03*
X319284Y350981D03*
X317709D03*
X316135D03*
X314560D03*
X317709Y352556D03*
X314560D03*
X317709Y354130D03*
X314560D03*
X324009Y297438D03*
X320859D03*
X324009Y299012D03*
X320859D03*
X325583Y300587D03*
X324009D03*
X322434D03*
X320859D03*
X325583Y302162D03*
X324009D03*
X322434D03*
X320859D03*
X325583Y303737D03*
X324009D03*
X322434D03*
X320859D03*
X325583Y305312D03*
X324009D03*
X322434D03*
X320859D03*
X322434Y306887D03*
X324009D03*
Y308461D03*
X320859D03*
X325583Y311611D03*
X324009D03*
X322434D03*
X320859D03*
X325583Y313186D03*
X324009D03*
X322434D03*
X320859D03*
X324009Y314760D03*
X320859D03*
X325583Y316335D03*
X324009D03*
X322434D03*
X324009Y317910D03*
X320859D03*
X325583Y319485D03*
X322434D03*
X324009Y321060D03*
X322434D03*
X320859D03*
X325583Y322634D03*
X322434D03*
X324009Y324209D03*
X320859D03*
X325583Y325784D03*
X322434D03*
X324009Y327359D03*
X322434D03*
X320859D03*
X325583Y328934D03*
X322434D03*
X324009Y330508D03*
X320859D03*
X325583Y332083D03*
X322434D03*
X324009Y333658D03*
X320859D03*
X325583Y335233D03*
X322434D03*
X324009Y336808D03*
X320859D03*
X325583Y338382D03*
X324009D03*
X322434D03*
X320859D03*
X324009Y339957D03*
X320859D03*
X324009Y343107D03*
X320859D03*
X325583Y346256D03*
X324009D03*
X322434D03*
X320859D03*
X325583Y347831D03*
X324009D03*
X322434D03*
X320859D03*
X325583Y349406D03*
X324009D03*
X322434D03*
X320859D03*
X325583Y350981D03*
X324009D03*
X322434D03*
X320859D03*
X325583Y352556D03*
X320859D03*
X325583Y354130D03*
X320859D03*
X322434Y352556D03*
X330308Y297438D03*
X327158D03*
X330308Y299012D03*
X328733D03*
X327158D03*
X331883Y300587D03*
X330308D03*
X328733D03*
X327158D03*
X331883Y302162D03*
X330308D03*
X328733D03*
X327158D03*
X331883Y303737D03*
X330308D03*
X328733D03*
X327158D03*
X331883Y305312D03*
X330308D03*
X328733D03*
X327158D03*
X328733Y306887D03*
X331883Y310036D03*
X330308D03*
X328733D03*
X327158D03*
X331883Y311611D03*
X330308D03*
X328733D03*
X331883Y313186D03*
X328733D03*
X330308Y314760D03*
X327158D03*
X331883Y316335D03*
X330308D03*
X328733D03*
X327158D03*
X330308Y317910D03*
X327158D03*
X331883Y319485D03*
X328733D03*
X327158D03*
X330308Y321060D03*
X327158D03*
X331883Y322634D03*
X328733D03*
X330308Y324209D03*
X327158D03*
X331883Y325784D03*
X328733D03*
X330308Y327359D03*
X327158D03*
X331883Y328934D03*
X328733D03*
X330308Y330508D03*
X327158D03*
X331883Y332083D03*
X328733D03*
X330308Y333658D03*
X327158D03*
X331883Y335233D03*
X328733D03*
X330308Y336808D03*
X327158D03*
X331883Y338382D03*
X330308D03*
X328733D03*
X327158D03*
X330308Y339957D03*
X327158D03*
X330308Y343107D03*
X327158D03*
X331883Y346256D03*
X330308D03*
X328733D03*
X327158D03*
X331883Y347831D03*
X330308D03*
X328733D03*
X327158D03*
X331883Y349406D03*
X330308D03*
X328733D03*
X327158D03*
X331883Y350981D03*
X330308D03*
X328733D03*
X327158D03*
X331883Y352556D03*
X328733D03*
X331883Y354130D03*
X328733D03*
X336607Y297438D03*
X333457D03*
X336607Y299012D03*
X333457D03*
X336607Y300587D03*
X335032D03*
X333457D03*
X336607Y302162D03*
X335032D03*
X333457D03*
X336607Y303737D03*
X335032D03*
X333457D03*
X336607Y305312D03*
X335032D03*
X333457D03*
X335032Y306887D03*
X336607Y310036D03*
X335032D03*
X333457D03*
X336607Y311611D03*
X335032D03*
X333457D03*
X335032Y313186D03*
X336607Y314760D03*
X333457D03*
X336607Y316335D03*
X335032D03*
X333457D03*
X336607Y317910D03*
X333457D03*
X335032Y319485D03*
X336607Y321060D03*
X333457D03*
X335032Y322634D03*
X336607Y324209D03*
X333457D03*
X335032Y325784D03*
X336607Y327359D03*
X333457D03*
X335032Y328934D03*
X336607Y330508D03*
X333457D03*
X335032Y332083D03*
X336607Y333658D03*
X333457D03*
X335032Y335233D03*
X336607Y336808D03*
X333457D03*
X335032Y338382D03*
X336607Y339957D03*
X333457D03*
X336607Y343107D03*
X333457D03*
X336607Y346256D03*
X335032D03*
X333457D03*
X336607Y347831D03*
X335032D03*
X333457D03*
X336607Y349406D03*
X335032D03*
X333457D03*
X336607Y350981D03*
X335032D03*
X333457D03*
X336607Y352556D03*
X333457D03*
X336607Y354130D03*
X333457D03*
X342906Y297438D03*
X339757D03*
X342906Y299012D03*
X339757D03*
X342906Y300587D03*
X341331D03*
X339757D03*
X338182D03*
X342906Y302162D03*
X341331D03*
X339757D03*
X338182D03*
X342906Y303737D03*
X341331D03*
X339757D03*
X338182D03*
X342906Y305312D03*
X341331D03*
X339757D03*
X338182D03*
Y306887D03*
X342906Y310036D03*
X341331D03*
X339757D03*
X338182D03*
X342906Y311611D03*
X341331D03*
X339757D03*
X338182D03*
X341331Y313186D03*
X338182D03*
X342906Y314760D03*
X339757D03*
X341331Y316335D03*
X339757D03*
X338182D03*
X342906Y317910D03*
X341331D03*
X339757D03*
X341331Y319485D03*
X338182D03*
X342906Y321060D03*
X341331D03*
X339757D03*
X341331Y322634D03*
X338182D03*
X342906Y324209D03*
X341331D03*
X339757D03*
X341331Y325784D03*
X338182D03*
X342906Y327359D03*
X341331D03*
X339757D03*
X341331Y328934D03*
X338182D03*
X342906Y330508D03*
X341331D03*
X339757D03*
X341331Y332083D03*
X338182D03*
X342906Y333658D03*
X341331D03*
X339757D03*
X341331Y335233D03*
X338182D03*
X342906Y336808D03*
X339757D03*
X341331Y338382D03*
X338182D03*
X342906Y339957D03*
X339757D03*
X342906Y343107D03*
X339757D03*
X342906Y346256D03*
X341331D03*
X339757D03*
X338182D03*
X342906Y347831D03*
X341331D03*
X339757D03*
X338182D03*
X342906Y349406D03*
X341331D03*
X339757D03*
X338182D03*
X342906Y350981D03*
X341331D03*
X339757D03*
X342906Y352556D03*
X339757D03*
X342906Y354130D03*
X339757D03*
X349205Y297438D03*
X346056D03*
X349205Y299012D03*
X347631D03*
X346056D03*
X344481D03*
X349205Y300587D03*
X347631D03*
X346056D03*
X344481D03*
X349205Y302162D03*
X347631D03*
X346056D03*
X344481D03*
X349205Y303737D03*
X347631D03*
X346056D03*
X344481D03*
X349205Y305312D03*
X347631D03*
X346056D03*
X344481D03*
X349205Y306886D03*
Y308461D03*
Y310036D03*
X344481D03*
X349205Y311611D03*
X346056D03*
X344481D03*
X349205Y313186D03*
Y314760D03*
X347631D03*
X346056D03*
X349205Y316335D03*
X347631D03*
X346056D03*
X344481D03*
X349205Y317910D03*
X347631D03*
X346056D03*
X349205Y319485D03*
X347631D03*
X346056D03*
X344481D03*
X349205Y321060D03*
X347631D03*
X346056D03*
X349205Y322634D03*
X347631D03*
X346056D03*
X344481D03*
X349205Y324209D03*
X346056D03*
X349205Y325784D03*
X347631D03*
X344481D03*
X349205Y327359D03*
X347631D03*
X346056D03*
X349205Y328934D03*
X347631D03*
X346056D03*
X344481D03*
X349205Y330508D03*
X347631D03*
X346056D03*
X349205Y332083D03*
X346056D03*
X344481D03*
X347630D03*
X349205Y333658D03*
X346056D03*
X349205Y335233D03*
X344481D03*
X349205Y336808D03*
X346056D03*
X349205Y338382D03*
X344481D03*
X349205Y339957D03*
X346056D03*
X349205Y341532D03*
Y343107D03*
X346056D03*
X349205Y344682D03*
Y346256D03*
X347631D03*
X346056D03*
X344481D03*
X349205Y347831D03*
X347631D03*
X346056D03*
X344481D03*
X349205Y349406D03*
X347631D03*
X346056D03*
X344481D03*
X349205Y350981D03*
X347631D03*
X346056D03*
X344481D03*
X349205Y352556D03*
X346056D03*
X349205Y354130D03*
X346056D03*
X352355Y297438D03*
X355505Y299012D03*
X353930D03*
X352355D03*
X355505Y300587D03*
X353930D03*
X352355D03*
X350780D03*
X355505Y302162D03*
X353930D03*
X352355D03*
X350780D03*
X353930Y303737D03*
X352355D03*
X350780D03*
X355505Y305312D03*
X353930D03*
X352355D03*
X350780D03*
X355505Y306886D03*
X353930D03*
X352355D03*
X350780D03*
X355505Y308461D03*
X353930D03*
X352355D03*
X350780D03*
X355505Y310036D03*
X353930D03*
X352355D03*
X350780D03*
X355505Y311611D03*
X353930D03*
X352355D03*
X350780D03*
X353930Y313186D03*
X352355D03*
X350780D03*
X355505Y314760D03*
X353930D03*
X352355D03*
X350780D03*
X353930Y316335D03*
X352355D03*
X350780D03*
X355505Y317910D03*
X353930D03*
X352355D03*
X350780D03*
X353930Y319485D03*
X352355D03*
X350780D03*
X355505Y321060D03*
X353930D03*
X352355D03*
X350780D03*
X353930Y322634D03*
X352355D03*
X350780D03*
X355505Y324209D03*
X353930D03*
X352355D03*
X350780D03*
X355505Y325784D03*
X353930D03*
X352355D03*
X350780D03*
X355505Y327359D03*
X353930D03*
X352355D03*
X350780D03*
X353930Y328934D03*
X352355D03*
X350780D03*
X355505Y330508D03*
X353930D03*
X352355D03*
X350780D03*
X353930Y332083D03*
X352355D03*
X350780D03*
X353930Y335233D03*
X352355D03*
X350780D03*
X355505Y333658D03*
X353930D03*
X352355D03*
X350780D03*
X355505Y336808D03*
X353930D03*
X352355D03*
X350780D03*
X353930Y338382D03*
X352355D03*
X350780D03*
X355505Y339957D03*
X353930D03*
X352355D03*
X350780D03*
X353930Y341532D03*
X352355D03*
X350780D03*
X355505Y343107D03*
X353930D03*
X352355D03*
X350780D03*
X353930Y344682D03*
X352355D03*
X350780D03*
X355505Y346256D03*
X353930D03*
X352355D03*
X350780D03*
X353930Y347831D03*
X352355D03*
X350780D03*
X355505Y349406D03*
X353930D03*
X352355D03*
X350780D03*
X355505Y350981D03*
X353930D03*
X352355D03*
X350780D03*
X355505Y352556D03*
X353930D03*
X352355D03*
Y354130D03*
X357079Y302162D03*
Y305312D03*
Y308461D03*
Y311611D03*
Y314760D03*
Y317910D03*
Y321060D03*
Y324209D03*
Y327359D03*
Y330508D03*
Y333658D03*
Y336808D03*
Y339957D03*
Y343107D03*
Y346256D03*
Y349406D03*
G54D83*
X420438Y246498D03*
Y250829D03*
Y255160D03*
Y259490D03*
Y263821D03*
Y268152D03*
Y272483D03*
Y276813D03*
G54D93*
X462904Y291899D03*
Y319065D03*
G54D75*
X300136Y354379D03*
G54D84*
X420477Y282424D03*
G54D39*
X179432Y237656D03*
Y244656D03*
G54D66*
X252861Y328249D03*
Y340249D03*
G54D48*
X201120Y367893D03*
X208207D03*
X215293D03*
G54D57*
X242384Y198765D03*
Y200734D03*
Y202703D03*
X248290Y198765D03*
X246321D03*
X244353D03*
X248290Y200734D03*
Y202703D03*
X246321Y200734D03*
Y202703D03*
X244353Y200734D03*
Y202703D03*
X260101Y198487D03*
Y200456D03*
X258132Y198487D03*
Y200456D03*
X260101Y202425D03*
X258132D03*
X264038Y198487D03*
Y200456D03*
X262069Y198487D03*
Y200456D03*
X264038Y202425D03*
X262069D03*
X278321Y198565D03*
X276353D03*
X274384D03*
X278321Y200534D03*
Y202503D03*
X276353Y200534D03*
Y202503D03*
X274384Y200534D03*
Y202503D03*
X278110Y380035D03*
Y378066D03*
Y376097D03*
X280290Y198565D03*
Y200534D03*
Y202503D03*
X280079Y380035D03*
Y378066D03*
Y376097D03*
X282047Y380035D03*
Y378066D03*
Y376097D03*
X284016Y380035D03*
Y378066D03*
Y376097D03*
X295632Y198587D03*
Y200556D03*
Y202525D03*
X301538Y198587D03*
X299569D03*
X297601D03*
X301538Y200556D03*
Y202525D03*
X299569Y200556D03*
Y202525D03*
X297601Y200556D03*
Y202525D03*
X313753Y198265D03*
Y200234D03*
X311784Y198265D03*
Y200234D03*
X313753Y202203D03*
X311784D03*
X312292Y245894D03*
X309733D03*
X312292Y252193D03*
Y249044D03*
X309733Y252193D03*
Y249044D03*
X312292Y258493D03*
Y255343D03*
X309733Y258493D03*
Y255343D03*
X312292Y271091D03*
Y267941D03*
X309733Y271091D03*
Y267941D03*
X312292Y277390D03*
Y274241D03*
X309733Y277390D03*
Y274241D03*
X312292Y280540D03*
X309733D03*
X317690Y198265D03*
Y200234D03*
X315721Y198265D03*
Y200234D03*
X317690Y202203D03*
X315721D03*
X319969Y245894D03*
X317410D03*
X314851D03*
X319969Y252193D03*
Y249044D03*
X317410Y252193D03*
Y249044D03*
X314851Y252193D03*
Y249044D03*
X319969Y258493D03*
Y255343D03*
X317410Y258493D03*
Y255343D03*
X314851Y258493D03*
Y255343D03*
X319969Y271091D03*
Y267941D03*
X317410Y271091D03*
Y267941D03*
X314851Y271091D03*
Y267941D03*
X319969Y277390D03*
Y274241D03*
X317410Y277390D03*
Y274241D03*
X314851Y277390D03*
Y274241D03*
X319969Y280540D03*
X317410D03*
X314851D03*
X325087Y245894D03*
X322528D03*
X325087Y252193D03*
Y249044D03*
X322528Y252193D03*
Y249044D03*
X325087Y258493D03*
Y255343D03*
X322528Y258493D03*
Y255343D03*
X325087Y271091D03*
Y267941D03*
X322528Y271091D03*
Y267941D03*
X325087Y277390D03*
Y274241D03*
X322528Y277390D03*
Y274241D03*
X325087Y280540D03*
X322528D03*
X331201Y198287D03*
Y200256D03*
X329232Y198287D03*
Y200256D03*
X331201Y202225D03*
X329232D03*
X330205Y245894D03*
X327646D03*
X330205Y252193D03*
Y249044D03*
X327646Y252193D03*
Y249044D03*
X330205Y258493D03*
Y255343D03*
X327646Y258493D03*
Y255343D03*
X330205Y271091D03*
Y267941D03*
X327646Y271091D03*
Y267941D03*
X330205Y277390D03*
Y274241D03*
X327646Y277390D03*
Y274241D03*
X330205Y280540D03*
X327646D03*
X335138Y198287D03*
Y200256D03*
X333169Y198287D03*
Y200256D03*
X335138Y202225D03*
X333169D03*
X332764Y245894D03*
Y252193D03*
Y249044D03*
Y258493D03*
Y255343D03*
Y271091D03*
Y267941D03*
Y277390D03*
Y274241D03*
Y280540D03*
X343001Y245894D03*
X340442D03*
X343001Y252193D03*
Y249044D03*
X340442Y252193D03*
Y249044D03*
X343001Y258493D03*
Y255343D03*
X340442Y258493D03*
Y255343D03*
X343001Y271091D03*
Y267941D03*
X340442Y271091D03*
Y267941D03*
X343001Y277390D03*
Y274241D03*
X340442Y277390D03*
Y274241D03*
X343001Y280540D03*
X340442D03*
X349969Y198387D03*
Y200356D03*
X348001Y198387D03*
Y200356D03*
X346032Y198387D03*
Y200356D03*
X349969Y202325D03*
X348001D03*
X346032D03*
X348119Y245894D03*
X345560D03*
X348119Y252193D03*
Y249044D03*
X345560Y252193D03*
Y249044D03*
X348119Y258493D03*
Y255343D03*
X345560Y258493D03*
Y255343D03*
X348119Y271091D03*
Y267941D03*
X345560Y271091D03*
Y267941D03*
X348119Y277390D03*
Y274241D03*
X345560Y277390D03*
Y274241D03*
X348119Y280540D03*
X345560D03*
X351938Y198387D03*
Y200356D03*
Y202325D03*
X355796Y245894D03*
X353237D03*
X350678D03*
X355796Y252193D03*
Y249044D03*
X353237Y252193D03*
Y249044D03*
X350678Y252193D03*
Y249044D03*
X355796Y258493D03*
Y255343D03*
X353237Y258493D03*
Y255343D03*
X350678Y258493D03*
Y255343D03*
X355796Y271091D03*
Y267941D03*
X353237Y271091D03*
Y267941D03*
X350678Y271091D03*
Y267941D03*
X355796Y277390D03*
Y274241D03*
X353237Y277390D03*
Y274241D03*
X350678Y277390D03*
Y274241D03*
X355796Y280540D03*
X353237D03*
X350678D03*
X360914Y245894D03*
X358355D03*
X360914Y252193D03*
Y249044D03*
X358355Y252193D03*
Y249044D03*
X360914Y258493D03*
Y255343D03*
X358355Y258493D03*
Y255343D03*
X360914Y271091D03*
Y267941D03*
X358355Y271091D03*
Y267941D03*
X360914Y277390D03*
Y274241D03*
X358355Y277390D03*
Y274241D03*
X360914Y280540D03*
X358355D03*
X367369Y198287D03*
Y200256D03*
X365401Y198287D03*
Y200256D03*
X363432Y198287D03*
Y200256D03*
X367369Y202225D03*
X365401D03*
X363432D03*
X363473Y245894D03*
Y252193D03*
Y249044D03*
Y258493D03*
Y255343D03*
Y271091D03*
Y267941D03*
Y277390D03*
Y274241D03*
Y280540D03*
X369338Y198287D03*
Y200256D03*
Y202225D03*
X373977Y296162D03*
Y293603D03*
Y291044D03*
Y301280D03*
Y298721D03*
Y306398D03*
Y303839D03*
Y314075D03*
Y311516D03*
Y308957D03*
Y324312D03*
Y321753D03*
Y331989D03*
Y329430D03*
Y326871D03*
Y337107D03*
Y334548D03*
Y342225D03*
Y339666D03*
Y344784D03*
X378884Y198365D03*
Y200334D03*
Y202303D03*
X378704Y221855D03*
Y223824D03*
Y225793D03*
X377127Y296162D03*
Y293603D03*
Y291044D03*
Y301280D03*
Y298721D03*
Y306398D03*
Y303839D03*
Y314075D03*
Y311516D03*
Y308957D03*
Y324312D03*
Y321753D03*
Y331989D03*
Y329430D03*
Y326871D03*
Y337107D03*
Y334548D03*
Y342225D03*
Y339666D03*
Y344784D03*
X384790Y198365D03*
Y200334D03*
X382821Y198365D03*
Y200334D03*
X380853Y198365D03*
Y200334D03*
X384790Y202303D03*
X382821D03*
X380853D03*
X384610Y221855D03*
Y223824D03*
X382641Y221855D03*
Y223824D03*
X380673Y221855D03*
Y223824D03*
X384610Y225793D03*
X382641D03*
X380673D03*
X380276Y296162D03*
X383426D03*
X380276Y293603D03*
X383426D03*
X380276Y291044D03*
X383426D03*
X380276Y301280D03*
X383426D03*
X380276Y298721D03*
X383426D03*
X380276Y306398D03*
X383426D03*
X380276Y303839D03*
X383426D03*
X380276Y314075D03*
X383426D03*
X380276Y311516D03*
X383426D03*
X380276Y308957D03*
X383426D03*
X380276Y324312D03*
X383426D03*
X380276Y321753D03*
X383426D03*
X380276Y331989D03*
X383426D03*
X380276Y329430D03*
X383426D03*
X380276Y326871D03*
X383426D03*
X380276Y337107D03*
X383426D03*
X380276Y334548D03*
X383426D03*
X380276Y342225D03*
X383426D03*
X380276Y339666D03*
X383426D03*
X380276Y344784D03*
X383426D03*
X386576Y296162D03*
Y293603D03*
Y291044D03*
Y301280D03*
Y298721D03*
Y306398D03*
Y303839D03*
Y314075D03*
Y311516D03*
Y308957D03*
Y324312D03*
Y321753D03*
Y331989D03*
Y329430D03*
Y326871D03*
Y337107D03*
Y334548D03*
Y342225D03*
Y339666D03*
Y344784D03*
X396601Y198387D03*
Y200356D03*
X394632Y198387D03*
Y200356D03*
X396601Y202325D03*
X394632D03*
X396024Y296162D03*
Y293603D03*
Y291044D03*
Y301280D03*
Y298721D03*
Y306398D03*
Y303839D03*
Y314075D03*
Y311516D03*
Y308957D03*
Y324312D03*
Y321753D03*
Y331989D03*
Y329430D03*
Y326871D03*
Y337107D03*
Y334548D03*
Y342225D03*
Y339666D03*
Y344784D03*
X400538Y198387D03*
Y200356D03*
X398569Y198387D03*
Y200356D03*
X400538Y202325D03*
X398569D03*
X399174Y296162D03*
X402324D03*
X399174Y293603D03*
X402324D03*
X399174Y291044D03*
X402324D03*
X399174Y301280D03*
X402324D03*
X399174Y298721D03*
X402324D03*
X399174Y306398D03*
X402324D03*
X399174Y303839D03*
X402324D03*
X399174Y314075D03*
X402324D03*
X399174Y311516D03*
X402324D03*
X399174Y308957D03*
X402324D03*
X399174Y324312D03*
X402324D03*
X399174Y321753D03*
X402324D03*
X399174Y331989D03*
X402324D03*
X399174Y329430D03*
X402324D03*
X399174Y326871D03*
X402324D03*
X399174Y337107D03*
X402324D03*
X399174Y334548D03*
X402324D03*
X399174Y342225D03*
X402324D03*
X399174Y339666D03*
X402324D03*
X399174Y344784D03*
X402324D03*
X405473Y296162D03*
X408623D03*
X405473Y293603D03*
X408623D03*
X405473Y291044D03*
X408623D03*
X405473Y301280D03*
X408623D03*
X405473Y298721D03*
X408623D03*
X405473Y306398D03*
X408623D03*
X405473Y303839D03*
X408623D03*
X405473Y314075D03*
X408623D03*
X405473Y311516D03*
X408623D03*
X405473Y308957D03*
X408623D03*
X405473Y324312D03*
X408623D03*
X405473Y321753D03*
X408623D03*
X405473Y331989D03*
X408623D03*
X405473Y329430D03*
X408623D03*
X405473Y326871D03*
X408623D03*
X405473Y337107D03*
X408623D03*
X405473Y334548D03*
X408623D03*
X405473Y342225D03*
X408623D03*
X405473Y339666D03*
X408623D03*
X405473Y344784D03*
X408623D03*
X414721Y198465D03*
Y200434D03*
X412753Y198465D03*
Y200434D03*
X410784Y198465D03*
Y200434D03*
X414721Y202403D03*
X412753D03*
X410784D03*
X416690Y198465D03*
Y200434D03*
Y202403D03*
X462621Y327065D03*
Y329034D03*
Y331003D03*
X460653Y327065D03*
Y329034D03*
Y331003D03*
X458684Y327065D03*
Y329034D03*
Y331003D03*
X462521Y337665D03*
X460553D03*
X458584D03*
X462521Y339634D03*
Y341603D03*
X460553Y339634D03*
Y341603D03*
X458584Y339634D03*
Y341603D03*
X464590Y327065D03*
Y329034D03*
Y331003D03*
X464490Y337665D03*
Y339634D03*
Y341603D03*
G54D76*
X301960Y354484D03*
X355504D03*
G54D49*
X208840Y235250D03*
X212590Y245450D03*
X208840D03*
X216340Y235250D03*
Y245450D03*
G54D67*
X256215Y300300D03*
X262825D03*
X273039Y298836D03*
X283719Y299769D03*
G54D85*
X426697Y284490D03*
G54D94*
X462195Y299183D03*
Y300758D03*
Y302332D03*
Y303907D03*
Y305482D03*
Y307057D03*
Y308632D03*
Y310206D03*
Y311781D03*
G54D58*
X241216Y229059D03*
Y232208D03*
Y235358D03*
Y238508D03*
Y241657D03*
Y244807D03*
Y247956D03*
Y251106D03*
Y254256D03*
Y257405D03*
X244365Y229059D03*
X247515D03*
X244365Y232208D03*
Y235358D03*
X247515Y232208D03*
Y235358D03*
X244365Y238508D03*
Y241657D03*
X247515Y238508D03*
Y241657D03*
X244365Y244807D03*
Y247956D03*
X247515Y244807D03*
Y247956D03*
X244365Y251106D03*
Y254256D03*
X247515Y251106D03*
Y254256D03*
X244365Y257405D03*
X247515D03*
X250665Y229059D03*
X253814D03*
X250665Y232208D03*
Y235358D03*
X253814Y232208D03*
Y235358D03*
X250665Y238508D03*
Y241657D03*
X253814Y238508D03*
Y241657D03*
X250665Y244807D03*
Y247956D03*
X253814Y244807D03*
Y247956D03*
X250665Y251106D03*
Y254256D03*
X253814Y251106D03*
Y254256D03*
X250665Y257405D03*
X253814D03*
X256964Y229059D03*
X260113D03*
X256964Y232208D03*
Y235358D03*
X260113Y232208D03*
Y235358D03*
X256964Y238508D03*
Y241657D03*
X260113Y238508D03*
Y241657D03*
X256964Y244807D03*
Y247956D03*
X260113Y244807D03*
Y247956D03*
X256964Y251106D03*
Y254256D03*
X260113Y251106D03*
Y254256D03*
X256964Y257405D03*
X260113D03*
X263263Y229059D03*
X266413D03*
X263263Y232208D03*
Y235358D03*
X266413Y232208D03*
Y235358D03*
X263263Y238508D03*
Y241657D03*
X266413Y238508D03*
Y241657D03*
X263263Y244807D03*
Y247956D03*
X266413Y244807D03*
Y247956D03*
X263263Y251106D03*
Y254256D03*
X266413Y251106D03*
Y254256D03*
X263263Y257405D03*
X266413D03*
X269562Y229059D03*
Y232208D03*
Y235358D03*
Y238508D03*
Y241657D03*
Y244807D03*
Y247956D03*
Y251106D03*
Y254256D03*
Y257405D03*
G54D86*
X439963Y322122D03*
X440200Y333578D03*
G54D59*
X242320Y278750D03*
Y284750D03*
X248320Y278760D03*
Y284760D03*
X255783Y279052D03*
Y285052D03*
X267430Y279100D03*
X261520D03*
X267430Y285100D03*
X261520D03*
X273420Y279100D03*
Y285100D03*
X289350Y233460D03*
Y239460D03*
X289634Y375730D03*
Y381730D03*
G54D68*
X259622Y378340D03*
X255684D03*
X265069D03*
X269007D03*
G54D77*
X310354Y223790D03*
X320354D03*
X330354D03*
X340354D03*
X350354D03*
G54D95*
X478666Y230947D03*
Y284097D03*
G54D96*
X476172Y293277D03*
Y317687D03*
G54D69*
X257653Y383222D03*
X267038D03*
G54D78*
X360354Y223790D03*
G54D87*
X437994Y327004D03*
X438231Y338460D03*
X441932Y327004D03*
X442169Y338460D03*
G54D97*
G01X102854Y202566D02*
G03X127854Y177566I25000J0D01*
G01X102854Y391566D02*
Y202566D01*
G01X127854Y416566D02*
G03X102854Y391566I0J-25000D01*
G01X127854Y177566D02*
X432854D01*
G01Y416566D02*
X127854D01*
G01X432854Y177566D02*
G03X482854Y227566I0J50000D01*
G01Y366566D02*
G03X432854Y416566I-50000J0D01*
G01X482854Y227566D02*
Y366566D01*
G54D79*
X357329Y297189D03*
G54D88*
X440666Y346053D03*
Y362131D03*
X452336Y346053D03*
Y362131D03*
G54D89*
X440886Y295336D03*
X443248D03*
X440886Y301217D03*
X443248D03*
Y297304D03*
X440886D03*
X443248Y303185D03*
X440886D03*
Y307205D03*
X443248D03*
X440886Y313128D03*
X443248D03*
Y309173D03*
X440886D03*
X443248Y315096D03*
X440886D03*
M02*
